<svg width="289.552" height="19" viewBox="0 0 289.552 19" xmlns="http://www.w3.org/2000/svg"><path d="M31.982 3.244h1.82v9.486h-1.956V8.273l-1.821 4.457h-1.21l-1.807-4.457v4.457h-1.957V3.244H26.9l2.514 6.333 2.569-6.333zm6.278 0h1.685l3.67 9.486h-2.107l-.856-2.378h-3.085l-.856 2.378h-2.093l3.642-9.486zm.843 2.868l-.91 2.541h1.834l-.924-2.541zm7.393 4.743h4.022v1.875h-5.952V3.244h1.93v7.61zm7.216 0h4.022v1.875h-5.952V3.244h1.93v7.61zm12.455-4.696q.224.85.224 1.828 0 .979-.224 1.828-.225.85-.68 1.542-.455.694-1.243 1.088-.789.394-1.821.394-1.033 0-1.821-.394-.789-.394-1.244-1.088-.455-.693-.68-1.542-.223-.85-.223-1.828 0-.978.224-1.828.224-.849.68-1.542.454-.693 1.243-1.087.788-.394 1.82-.394 1.033 0 1.822.394.788.394 1.243 1.087.455.693.68 1.542zm-3.744 4.764q2.01 0 2.01-2.936 0-2.935-2.01-2.935-2.012 0-2.012 2.935 0 2.936 2.012 2.936zm12.23-4.798q0 .884-.496 1.584-.496.7-1.338.985.108.095.38.503l2.256 3.533H73.2l-1.902-3.18q-.231-.394-.401-.516-.17-.123-.591-.123h-.476v3.819h-1.943V3.244h3.479q1.467 0 2.378.727.91.728.91 2.154zm-1.943.014q0-.584-.353-.802-.354-.217-.979-.217H69.83v2.079h1.55q.638 0 .984-.231.347-.231.347-.829zm9.2 3.615l1.373 1.332q-.843.992-1.53 1.379-.685.387-1.868.387-1.345 0-2.303-.693t-1.393-1.773q-.435-1.08-.435-2.399 0-1.332.428-2.405.428-1.074 1.38-1.767.95-.693 2.31-.693 1.1 0 1.862.387.76.388 1.48 1.257l-1.372 1.346q-.489-.544-.917-.809-.428-.265-1.053-.265-.585 0-1.02.265-.434.265-.665.707-.231.442-.34.938-.109.496-.109 1.04 0 .543.109 1.039.109.496.34.938.23.441.666.706.434.265 1.019.265.638 0 1.1-.299.463-.299.938-.883zm5.314-6.51h1.685l3.67 9.486h-2.107l-.856-2.378H86.53l-.856 2.378h-2.093l3.642-9.486zm.842 2.868l-.91 2.541h1.834l-.924-2.541zm18.102-3.914h1.658v11.578h-1.658V2.198zm22.993 1.046h1.821v9.486h-1.957V8.273l-1.82 4.457h-1.21l-1.807-4.457v4.457h-1.957V3.244h1.848l2.514 6.333 2.568-6.333zm10.892 2.915q.225.85.225 1.828 0 .979-.225 1.828-.224.85-.679 1.542-.455.694-1.243 1.088-.789.394-1.821.394-1.033 0-1.821-.394-.789-.394-1.244-1.088-.455-.693-.68-1.542-.224-.85-.224-1.828 0-.978.225-1.828.224-.849.68-1.542.454-.693 1.243-1.087.788-.394 1.82-.394 1.033 0 1.822.394.788.394 1.243 1.087.455.693.68 1.542zm-3.743 4.764q2.01 0 2.01-2.936 0-2.935-2.01-2.935-2.012 0-2.012 2.935 0 2.936 2.012 2.936zm12.23-4.798q0 .884-.496 1.584-.496.7-1.338.985.108.095.38.503l2.256 3.533h-2.256l-1.902-3.18q-.231-.394-.401-.516-.17-.123-.591-.123h-.476v3.819h-1.943V3.244h3.479q1.467 0 2.378.727.91.728.91 2.154zm-1.943.014q0-.584-.353-.802-.354-.217-.979-.217h-1.55v2.079h1.55q.639 0 .985-.231.347-.231.347-.829zm6.835 2.935V7.416h3.602v5.314h-1.631v-.693q-.625.802-1.862.802-.815 0-1.481-.265-.666-.265-1.108-.72-.441-.456-.74-1.08-.3-.626-.435-1.32-.136-.692-.136-1.467 0-.774.136-1.474t.442-1.325q.305-.625.754-1.074.448-.448 1.12-.713.674-.265 1.503-.265 1.1 0 1.841.428.74.428 1.447 1.38l-1.359 1.236q-.421-.571-.856-.85-.435-.278-1.073-.278-2.012 0-2.012 2.935 0 2.936 2.025 2.936.761 0 1.135-.524.374-.523.374-1.325h-1.686zm10.424-5.83h1.943v5.572q0 1.903-.883 2.963-.884 1.06-2.745 1.06-1.876 0-2.76-1.06-.882-1.06-.882-2.963V3.244h1.943v5.463q0 .503.061.87t.238.7q.177.333.523.503.347.17.863.17 1.033 0 1.366-.564.333-.564.333-1.679V3.244zm8.738 0h1.943v9.486h-1.563l-3.465-5.409v5.409h-1.943V3.244h1.576l3.452 5.41v-5.41zm3.846 0h6.387v1.917h-4.458v1.78h3.969v1.834h-3.969v3.955h-1.93V3.244zm9.811 7.61h4.023v1.876h-5.952V3.244h1.93v7.61zm10.478-7.61h1.943v5.572q0 1.903-.883 2.963t-2.745 1.06q-1.875 0-2.759-1.06-.883-1.06-.883-2.963V3.244h1.943v5.463q0 .503.061.87.062.367.238.7.177.333.523.503.347.17.863.17 1.033 0 1.366-.564.333-.564.333-1.679V3.244zm7.094 5.83V7.416h3.601v5.314h-1.63v-.693q-.626.802-1.862.802-.816 0-1.482-.265t-1.107-.72q-.442-.456-.74-1.08-.3-.626-.436-1.32-.136-.692-.136-1.467 0-.774.136-1.474t.442-1.325q.306-.625.754-1.074.449-.448 1.121-.713.673-.265 1.502-.265 1.1 0 1.841.428.741.428 1.448 1.38l-1.36 1.236q-.42-.571-.855-.85-.435-.278-1.074-.278-2.011 0-2.011 2.935 0 2.936 2.025 2.936.76 0 1.134-.524.374-.523.374-1.325h-1.685zm9.309-5.83h1.943v9.486h-1.943V3.244zm0-.815L214.3.214h1.849l-1.753 2.215h-1.264zm14.88 7.393q0 1.4-1.06 2.222-1.06.822-2.5.822-3.099 0-3.832-2.881l1.834-.367q.394 1.4 1.998 1.4.611 0 1.114-.313.503-.312.503-.883 0-.394-.38-.652-.38-.259-.952-.374-.57-.116-1.243-.313-.673-.197-1.244-.448-.57-.252-.95-.809-.381-.557-.381-1.359 0-1.29.971-2.011.972-.72 2.304-.72 1.29 0 2.14.516.85.517 1.407 1.658l-1.672.775q-.34-.612-.76-.877-.422-.265-1.115-.265-.49 0-.91.231-.422.231-.422.693 0 .326.38.55.381.225.952.34.57.116 1.243.327.673.21 1.244.489.57.278.95.856.381.577.381 1.393zm6.619-6.578h1.943v5.572q0 1.903-.883 2.963-.884 1.06-2.746 1.06-1.875 0-2.758-1.06-.884-1.06-.884-2.963V3.244h1.944v5.463q0 .503.06.87.062.367.239.7.176.333.523.503.346.17.863.17 1.033 0 1.366-.564.333-.564.333-1.679V3.244zm10.504 0h1.821v9.486H245V8.273l-1.82 4.457h-1.21l-1.807-4.457v4.457h-1.957V3.244h1.848l2.514 6.333 2.568-6.333zm6.279 0h1.685l3.67 9.486h-2.107l-.856-2.378h-3.085l-.856 2.378h-2.093l3.642-9.486zm.842 2.868l-.91 2.541h1.834l-.924-2.541zm12.231.013q0 .884-.496 1.584-.496.7-1.339.985.11.095.38.503l2.257 3.533h-2.256l-1.903-3.18q-.23-.394-.4-.516-.17-.123-.592-.123h-.475v3.819h-1.944V3.244h3.48q1.467 0 2.377.727.911.728.911 2.154zm-1.943.014q0-.584-.354-.802-.353-.217-.978-.217h-1.55v2.079h1.55q.639 0 .985-.231.347-.231.347-.829z" fill="#fff"/></svg>