<svg width="304.092" height="17" viewBox="0 0 304.092 17" xmlns="http://www.w3.org/2000/svg"><path d="M19.53 8.693l1.838-5.806h1.815L20.34 11.33h-1.633l-2.842-8.443h1.826l1.839 5.806zm4.62-5.806h1.73v8.443h-1.73V2.887zm7.959 0h1.899L31.359 7.06l2.963 4.27H32.29l-2.794-4.27 2.613-4.173zm-2.806 0v8.443h-1.73V2.887h1.73zm10.571 0h1.73v4.96q0 1.693-.786 2.636-.787.944-2.444.944-1.669 0-2.455-.944-.786-.943-.786-2.636v-4.96h1.73V7.75q0 .447.054.774.054.326.212.623.157.296.465.447.309.152.768.152.92 0 1.216-.502.296-.502.296-1.494V2.887zm3.302 0h5.685v1.706h-3.967v1.584h3.532V7.81h-3.532v3.52h-1.718V2.887zm8.745 6.738h4.064v1.705h-5.794V2.887h5.794v1.706h-4.064v1.584h3.544V7.81h-3.544v1.815zM63.46 5.452q0 .786-.442 1.409-.441.623-1.19.877.096.084.338.447l2.008 3.145h-2.008L60.472 8.5q-.205-.351-.356-.46-.152-.109-.527-.109h-.423v3.399h-1.73V2.887h3.097q1.306 0 2.117.648.81.647.81 1.917zm-1.73.012q0-.52-.314-.714-.315-.193-.871-.193h-1.379v1.85h1.379q.568 0 .877-.205.308-.206.308-.738zm9.604-.11q.085.618.085 1.755t-.085 1.754q-.085.629-.339 1.094-.254.466-.58.726-.327.26-.799.411-.471.151-.889.194-.417.042-.949.042h-2.77V7.75h-.447V6.504h.447V2.887h2.77q.532 0 .95.043.417.042.888.193.472.152.799.412.326.26.58.725.254.466.339 1.095zm-1.705 3.122q.06-.424.06-1.367 0-.944-.06-1.38-.049-.326-.164-.543-.115-.218-.248-.34-.133-.12-.399-.174-.266-.055-.465-.067-.2-.012-.575-.012h-1.04v1.911h1.475V7.75h-1.475v1.875h1.04q.968 0 1.36-.2.394-.2.49-.95zm3.241-5.589h1.73v8.443h-1.73V2.887zm9.447 2.565q0 .786-.442 1.409-.441.623-1.191.877.096.084.338.447l2.008 3.145h-2.008L79.33 8.5q-.206-.351-.357-.46-.151-.109-.526-.109h-.423v3.399h-1.73V2.887h3.096q1.307 0 2.117.648.81.647.81 1.917zm-1.73.012q0-.52-.315-.714-.314-.193-.87-.193h-1.38v1.85h1.38q.568 0 .876-.205.309-.206.309-.738zm7.305-3.508h1.476v10.305h-1.476V1.956zm10.79.931h5.684v1.706H100.4v1.584h3.532V7.81h-3.532v3.52H98.68V2.887zm8.732 6.774h3.58v1.669h-5.297V2.887h1.717v6.774zm9.326-6.774h1.73v4.96q0 1.693-.787 2.636-.786.944-2.443.944-1.67 0-2.456-.944-.786-.943-.786-2.636v-4.96h1.73V7.75q0 .447.054.774.055.326.212.623.157.296.466.447.308.152.768.152.919 0 1.215-.502.297-.502.297-1.494V2.887zm6.313 5.19V6.6h3.206v4.729h-1.452v-.617q-.556.714-1.657.714-.726 0-1.318-.236-.593-.236-.986-.641t-.66-.962q-.265-.556-.386-1.173t-.121-1.306q0-.69.12-1.313.122-.622.394-1.179.272-.556.671-.955.4-.4.998-.635.599-.236 1.337-.236.98 0 1.638.38.66.382 1.289 1.228l-1.21 1.101q-.375-.508-.762-.756t-.955-.248q-1.79 0-1.79 2.613 0 2.612 1.802 2.612.677 0 1.01-.465.332-.466.332-1.18h-1.5zm15.023 2.418l-1.1 1.053q-.557-.58-.727-.75-.883.653-2.346.653-1.161 0-1.923-.677-.762-.678-.762-1.815 0-.774.326-1.324.327-.55.992-1.07-.29-.388-.4-.55-.108-.164-.217-.473-.109-.308-.109-.659 0-.943.617-1.518.617-.574 1.573-.574.943 0 1.578.586.635.587.635 1.518 0 1.137-1.524 2.069.181.23 1.427 1.56.412-.508.387-1.33h1.585q-.024 1.584-.81 2.455.75.786.798.846zm-3.484-5.612q0-.242-.181-.435-.182-.194-.423-.194-.254 0-.436.176-.181.175-.181.441 0 .387.447.931.242-.145.37-.241.126-.097.265-.285.14-.187.14-.393zm.569 4.754q-.932-.895-1.657-1.827-.605.472-.605 1.077 0 .496.363.774t.883.278q.544 0 1.016-.302zm11.418-1.56V6.6h3.205v4.729h-1.451v-.617q-.557.714-1.658.714-.725 0-1.318-.236-.593-.236-.986-.641t-.659-.962q-.266-.556-.387-1.173-.12-.617-.12-1.306 0-.69.12-1.313.121-.622.393-1.179.272-.556.671-.955.4-.4.998-.635.599-.236 1.337-.236.98 0 1.639.38.659.382 1.288 1.228L148.44 5.5q-.375-.508-.762-.756t-.955-.248q-1.79 0-1.79 2.613 0 2.612 1.802 2.612.677 0 1.01-.465.333-.466.333-1.18h-1.5zm4.656-5.19h1.73v8.443h-1.73V2.887zm9.616 5.855q0 1.245-.943 1.977-.944.732-2.226.732-2.758 0-3.41-2.564l1.632-.327q.35 1.246 1.778 1.246.544 0 .992-.278.447-.278.447-.786 0-.351-.338-.581-.339-.23-.847-.333-.508-.102-1.107-.278-.598-.175-1.106-.399-.508-.224-.847-.72-.339-.495-.339-1.21 0-1.148.865-1.79.865-.64 2.05-.64 1.15 0 1.905.46.756.459 1.252 1.475l-1.488.69q-.302-.545-.677-.78-.375-.237-.992-.237-.435 0-.81.206-.375.206-.375.617 0 .29.339.49.338.2.846.302.508.103 1.107.29.599.188 1.107.436t.846.762q.34.514.34 1.24zm.423-5.855h6.471v1.706h-2.37v6.737h-1.73V4.593h-2.37V2.887zm7.681 0h1.73v8.443h-1.73V2.887zm7.898 0h1.73v8.443h-1.391l-3.084-4.814v4.814h-1.73V2.887h1.403l3.072 4.814V2.887zm6.435 5.19V6.6h3.205v4.729h-1.451v-.617q-.557.714-1.657.714-.726 0-1.319-.236-.592-.236-.986-.641-.393-.405-.659-.962-.266-.556-.387-1.173-.12-.617-.12-1.306 0-.69.12-1.313.121-.622.393-1.179.272-.556.672-.955.399-.4.997-.635.6-.236 1.337-.236.98 0 1.639.38.66.382 1.288 1.228L185.15 5.5q-.374-.508-.761-.756-.388-.248-.956-.248-1.79 0-1.79 2.613 0 2.612 1.802 2.612.677 0 1.01-.465.333-.466.333-1.18h-1.5zm8.648-6.12h1.476V12.26h-1.476V1.956zm7.16.93h5.685v1.706h-3.967v1.584h3.532V7.81h-3.532v3.52h-1.718V2.887zm13.04 2.565q0 .786-.442 1.409t-1.192.877q.097.084.339.447l2.008 3.145h-2.008l-1.693-2.83q-.206-.351-.357-.46-.151-.109-.526-.109h-.424v3.399h-1.73V2.887h3.097q1.306 0 2.117.648.81.647.81 1.917zm-1.73.012q0-.52-.315-.714-.314-.193-.87-.193h-1.38v1.85h1.38q.568 0 .876-.205.308-.206.308-.738zm5.708-2.577h1.5l3.266 8.443h-1.875l-.762-2.117h-2.745l-.762 2.117h-1.863l3.241-8.443zm.75 2.553l-.81 2.261h1.633l-.823-2.261zm-.387-3.278l1.04-1.972h1.645l-1.56 1.972h-1.125zm11.551 6.592q0 1.33-.816 1.953-.817.623-2.195.623h-3.29V2.887h3.096q1.306 0 2.11.611.805.611.805 1.881 0 .931-.605 1.512.895.593.895 1.863zm-1.983-3.363q0-.52-.309-.69-.308-.169-.889-.169h-1.39v1.766h1.39q.58 0 .89-.181.308-.181.308-.726zm-.079 4.125q.333-.182.333-.75 0-.569-.333-.756-.333-.188-.95-.188h-1.56v1.875h1.56q.617 0 .95-.181zm9.404.109h3.943v1.705h-5.66V9.213h-2.214l-1.088 2.117h-1.96l4.56-8.443h6.362v1.706h-3.943v1.584h3.435V7.81h-3.435v1.815zm-1.754-4.67l-1.39 2.746h1.427V4.956h-.037zm13.172.497q0 .786-.441 1.409-.442.623-1.192.877.097.084.339.447l2.008 3.145h-2.008L243.8 8.5q-.206-.351-.357-.46-.151-.109-.526-.109h-.424v3.399h-1.73V2.887h3.097q1.306 0 2.117.648.81.647.81 1.917zm-1.73.012q0-.52-.314-.714-.315-.193-.87-.193h-1.38v1.85h1.38q.568 0 .876-.205.308-.206.308-.738zm2.589-2.577h6.47v1.706h-2.37v6.737h-1.73V4.593h-2.37V2.887zm14.248 5.806l1.839-5.806h1.814l-2.843 8.443h-1.632l-2.843-8.443h1.827l1.838 5.806zm6.35.932h4.064v1.705h-5.794V2.887h5.794v1.706h-4.064v1.584h3.544V7.81h-3.544v1.815zm11.539-4.173q0 .786-.442 1.409-.441.623-1.19.877.096.084.338.447l2.008 3.145h-2.008l-1.694-2.83q-.205-.351-.356-.46-.152-.109-.527-.109h-.423v3.399h-1.73V2.887h3.097q1.306 0 2.117.648.81.647.81 1.917zm-1.73.012q0-.52-.314-.714-.315-.193-.871-.193h-1.379v1.85h1.379q.568 0 .877-.205.308-.206.308-.738zm9.604-.11q.085.618.085 1.755t-.085 1.754q-.085.629-.339 1.094-.254.466-.58.726-.327.26-.799.411-.471.151-.889.194-.417.042-.949.042h-2.77V7.75h-.447V6.504h.447V2.887h2.77q.532 0 .95.043.417.042.888.193.472.152.799.412.326.26.58.725.254.466.339 1.095zm-1.705 3.122q.06-.424.06-1.367 0-.944-.06-1.38-.049-.326-.164-.543-.115-.218-.248-.34-.133-.12-.399-.174-.266-.055-.465-.067-.2-.012-.575-.012h-1.04v1.911h1.475V7.75h-1.475v1.875h1.04q.968 0 1.36-.2.394-.2.49-.95z" fill="#fff"/></svg>