<svg width="370.078" height="31" viewBox="0 0 370.078 31" xmlns="http://www.w3.org/2000/svg"><path d="M26.969 20.68c0 .132.088.22.22.22h2.442c.132 0 .22-.088.22-.22v-5.984c0-.088.044-.132.132-.132h2.09c.088 0 .132.044.132.132v5.984c0 .132.088.22.22.22h2.442c.132 0 .22-.088.22-.22V6.16c0-.132-.088-.22-.22-.22h-2.442c-.132 0-.22.088-.22.22v5.676c0 .088-.044.132-.132.132h-2.09c-.088 0-.132-.044-.132-.132V6.16c0-.132-.088-.22-.22-.22h-2.442c-.132 0-.22.088-.22.22zm10.142 0c0 .132.088.22.22.22h6.534c.132 0 .22-.088.22-.22v-2.156c0-.132-.088-.22-.22-.22h-3.74c-.088 0-.132-.044-.132-.132v-3.388c0-.088.044-.132.132-.132h3.234c.132 0 .22-.088.22-.22v-2.156c0-.132-.088-.22-.22-.22h-3.234c-.088 0-.132-.044-.132-.132V8.668c0-.088.044-.132.132-.132h3.74c.132 0 .22-.088.22-.22V6.16c0-.132-.088-.22-.22-.22H37.33c-.132 0-.22.088-.22.22zm8.58 0c0 .132.088.22.22.22h6.578c.132 0 .22-.088.22-.22v-2.156c0-.132-.088-.22-.22-.22h-3.784c-.088 0-.132-.044-.132-.132V6.16c0-.132-.088-.22-.22-.22H45.91c-.132 0-.22.088-.22.22zm8.008-2.09c.55 1.628 1.848 2.508 3.85 2.508 1.958 0 3.256-.88 3.806-2.53.242-.682.308-1.298.308-5.148v-.66c0-.132-.088-.22-.22-.22h-3.63c-.132 0-.22.088-.22.22v1.936c0 .132.088.22.22.22h.946c.088 0 .132.044.132.132 0 2.2-.044 2.42-.132 2.728-.132.44-.594.726-1.144.726-.55 0-1.012-.286-1.144-.726-.11-.33-.132-.528-.132-4.356 0-3.85.022-4.026.132-4.378.132-.418.572-.704 1.1-.704.748 0 1.188.506 1.254 1.584.022.154.11.22.242.198l2.332-.396c.132-.022.198-.132.176-.264-.198-2.42-1.606-3.718-4.026-3.718-2.002 0-3.3.88-3.85 2.508-.22.704-.286 1.32-.286 5.17 0 3.85.066 4.466.286 5.17zm8.558 2.09c-.022.132.044.22.176.22h2.442c.154 0 .22-.088.242-.22l.506-2.706h2.838l.484 2.706c.022.132.088.22.242.22h2.442c.132 0 .198-.088.176-.22L68.593 6.16c-.022-.132-.11-.22-.242-.22h-2.596c-.132 0-.198.088-.242.22zm3.784-4.994l.99-5.192h.066l.946 5.192zm15.4 5.214c.11 0 .154-.11.11-.22l-2.046-6.336c1.034-.704 1.672-1.936 1.672-3.828 0-3.322-1.716-4.576-4.378-4.576h-3.564c-.132 0-.22.088-.22.22v14.52c0 .132.088.22.22.22h2.442c.132 0 .22-.088.22-.22v-5.5c0-.088.044-.132.132-.132h.836l1.694 5.676c.044.132.11.176.242.176zm-4.774-8.338h-.638c-.088 0-.132-.044-.132-.132V8.602c0-.088.044-.132.132-.132h.638c1.122 0 1.606.484 1.606 2.046 0 1.584-.484 2.046-1.606 2.046zm6.336 8.118c0 .132.088.22.22.22h2.442c.132 0 .22-.088.22-.22v-5.742c0-.088.044-.132.132-.132h3.234c.132 0 .22-.088.22-.22v-2.178c0-.132-.088-.22-.22-.22h-3.234c-.088 0-.132-.044-.132-.132V8.668c0-.088.044-.132.132-.132h3.74c.132 0 .22-.088.22-.22V6.16c0-.132-.088-.22-.22-.22h-6.534c-.132 0-.22.088-.22.22zm8.492 0c0 .132.088.22.22.22h6.534c.132 0 .22-.088.22-.22v-2.156c0-.132-.088-.22-.22-.22h-3.74c-.088 0-.132-.044-.132-.132v-3.388c0-.088.044-.132.132-.132h3.234c.132 0 .22-.088.22-.22v-2.156c0-.132-.088-.22-.22-.22h-3.234c-.088 0-.132-.044-.132-.132V8.668c0-.088.044-.132.132-.132h3.74c.132 0 .22-.088.22-.22V6.16c0-.132-.088-.22-.22-.22h-6.534c-.132 0-.22.088-.22.22zm17.006.22c.11 0 .154-.11.11-.22l-2.046-6.336c1.034-.704 1.672-1.936 1.672-3.828 0-3.322-1.716-4.576-4.378-4.576h-3.564c-.132 0-.22.088-.22.22v14.52c0 .132.088.22.22.22h2.442c.132 0 .22-.088.22-.22v-5.5c0-.088.044-.132.132-.132h.836l1.694 5.676c.044.132.11.176.242.176zm-4.774-8.338h-.638c-.088 0-.132-.044-.132-.132V8.602c0-.088.044-.132.132-.132h.638c1.122 0 1.606.484 1.606 2.046 0 1.584-.484 2.046-1.606 2.046zm10.34 8.338c2.068 0 3.278-.792 3.828-2.486.264-.836.396-1.848.396-4.994s-.132-4.158-.396-4.994c-.55-1.694-1.76-2.486-3.828-2.486h-3.784c-.132 0-.22.088-.22.22v6.028c0 .088-.044.132-.132.132h-.594c-.132 0-.22.088-.22.22v1.628c0 .132.088.22.22.22h.594c.088 0 .132.044.132.132v6.16c0 .132.088.22.22.22zm-.286-2.596h-.704c-.088 0-.132-.044-.132-.132V14.52c0-.088.044-.132.132-.132h.968c.132 0 .22-.088.22-.22v-1.606c0-.132-.088-.22-.22-.22h-.968c-.088 0-.132-.044-.132-.132V8.668c0-.088.044-.132.132-.132h.704c.726 0 1.122.264 1.342.924.154.462.242 1.1.242 3.96s-.088 3.498-.242 3.96c-.22.66-.616.924-1.342.924zm19.338 2.596c.132 0 .22-.088.22-.22V8.668c0-.088.044-.132.132-.132h2.354c.132 0 .22-.088.22-.22V6.16c0-.132-.088-.22-.22-.22h-7.854c-.132 0-.22.088-.22.22v2.156c0 .132.088.22.22.22h2.354c.088 0 .132.044.132.132V20.68c0 .132.088.22.22.22zm4.246-.22c0 .132.088.22.22.22h2.442c.132 0 .22-.088.22-.22V6.16c0-.132-.088-.22-.22-.22h-2.442c-.132 0-.22.088-.22.22zm4.906 0c0 .132.088.22.22.22h6.578c.132 0 .22-.088.22-.22v-2.156c0-.132-.088-.22-.22-.22h-3.784c-.088 0-.132-.044-.132-.132V6.16c0-.132-.088-.22-.22-.22h-2.442c-.132 0-.22.088-.22.22zm15.422.22c.132 0 .22-.088.22-.22v-5.192c0-.088.044-.132.132-.132h.726c2.662 0 4.4-1.32 4.4-4.708 0-3.41-1.672-4.708-4.4-4.708h-3.52c-.132 0-.22.088-.22.22v14.52c0 .132.088.22.22.22zm.99-8.074h-.638c-.088 0-.132-.044-.132-.132V8.602c0-.088.044-.132.132-.132h.638c1.122 0 1.606.484 1.606 2.178s-.484 2.178-1.606 2.178zm10.01 8.272c1.958 0 3.278-.88 3.828-2.53.242-.682.308-1.298.308-5.148 0-3.85-.066-4.466-.308-5.148-.55-1.65-1.87-2.53-3.828-2.53-1.958 0-3.278.88-3.828 2.53-.242.682-.308 1.298-.308 5.148 0 3.85.066 4.466.308 5.148.55 1.65 1.87 2.53 3.828 2.53zm0-2.596c-.55 0-.924-.308-1.056-.726-.11-.352-.154-.726-.154-4.356s.044-4.004.154-4.356c.132-.418.506-.726 1.056-.726s.924.308 1.056.726c.11.352.154.726.154 4.356s-.044 4.004-.154 4.356c-.132.418-.506.726-1.056.726zm14.366 2.398c.11 0 .154-.11.11-.22l-2.046-6.336c1.034-.704 1.672-1.936 1.672-3.828 0-3.322-1.716-4.576-4.378-4.576h-3.564c-.132 0-.22.088-.22.22v14.52c0 .132.088.22.22.22h2.442c.132 0 .22-.088.22-.22v-5.5c0-.088.044-.132.132-.132h.836l1.694 5.676c.044.132.11.176.242.176zm-4.774-8.338h-.638c-.088 0-.132-.044-.132-.132V8.602c0-.088.044-.132.132-.132h.638c1.122 0 1.606.484 1.606 2.046 0 1.584-.484 2.046-1.606 2.046zm10.868 8.338c.132 0 .22-.088.22-.22V8.668c0-.088.044-.132.132-.132h2.354c.132 0 .22-.088.22-.22V6.16c0-.132-.088-.22-.22-.22h-7.854c-.132 0-.22.088-.22.22v2.156c0 .132.088.22.22.22h2.354c.088 0 .132.044.132.132V20.68c0 .132.088.22.22.22zm8.426-16.61c.176 0 .286-.066.44-.22l2.288-2.508c.088-.11.022-.22-.11-.22h-2.2c-.176 0-.242.066-.352.22L195.84 4.07c-.088.11-.022.22.11.22zm-.66 16.808c1.958 0 3.278-.88 3.828-2.53.242-.682.308-1.298.308-5.148 0-3.85-.066-4.466-.308-5.148-.55-1.65-1.87-2.53-3.828-2.53-1.958 0-3.278.88-3.828 2.53-.242.682-.308 1.298-.308 5.148 0 3.85.066 4.466.308 5.148.55 1.65 1.87 2.53 3.828 2.53zm0-2.596c-.55 0-.924-.308-1.056-.726-.11-.352-.154-.726-.154-4.356s.044-4.004.154-4.356c.132-.418.506-.726 1.056-.726s.924.308 1.056.726c.11.352.154.726.154 4.356s-.044 4.004-.154 4.356c-.132.418-.506.726-1.056.726zm21.714 4.246c.132 0 .22-.088.22-.22V4.84c0-.132-.088-.22-.22-.22h-1.782c-.132 0-.22.088-.22.22v17.688c0 .132.088.22.22.22zm16.148-3.894c.462 1.452 1.694 2.244 3.454 2.244 1.76 0 3.014-.77 3.454-2.244.176-.55.242-1.144.242-5.434s-.066-4.884-.242-5.434c-.44-1.474-1.694-2.244-3.454-2.244-1.76 0-2.97.792-3.432 2.244-.176.55-.264 1.144-.264 5.434s.066 4.884.242 5.434zm2.618-.748c-.066-.22-.088-.484-.088-4.686s.022-4.466.088-4.686c.11-.352.396-.572.836-.572.44 0 .726.22.836.572.066.22.088.484.088 4.686s-.022 4.466-.088 4.686c-.11.352-.374.572-.836.572-.44 0-.726-.22-.836-.572zm6.556.77c.462 1.408 1.606 2.222 3.432 2.222 1.826 0 2.97-.792 3.454-2.222.132-.418.198-.968.198-2.794 0-2.112-.066-2.64-.242-3.146-.396-1.254-1.276-1.848-2.706-1.848-.748 0-1.32.242-1.65.572h-.022V8.536c0-.088.044-.132.132-.132h4.246c.132 0 .22-.088.22-.22V6.16c0-.132-.088-.22-.22-.22h-6.6c-.132 0-.22.088-.22.22v7.898c0 .154.088.22.22.22h1.958c.176 0 .264-.044.308-.198.132-.374.396-.616.88-.616.44 0 .726.198.858.594.066.176.088.396.088 2.024 0 1.628-.022 1.848-.088 2.024-.132.396-.396.572-.858.572-.44 0-.704-.198-.836-.594-.066-.176-.088-.374-.088-.946 0-.176-.11-.242-.264-.22l-2.178.22c-.154.022-.22.11-.22.264 0 .528.066 1.034.198 1.474zm8.954 1.804c0 .132.088.22.22.22h2.244c.132 0 .22-.088.22-.22v-2.552c0-.132-.088-.22-.22-.22h-2.244c-.132 0-.22.088-.22.22zm8.646-4.356h5.896c.132 0 .22-.088.22-.22v-2.068c0-.132-.088-.22-.22-.22h-5.896c-.132 0-.22.088-.22.22v2.068c0 .132.088.22.22.22zm12.386 2.53c.462 1.452 1.694 2.244 3.454 2.244 1.76 0 3.014-.77 3.454-2.244.176-.55.242-1.144.242-5.434s-.066-4.884-.242-5.434c-.44-1.474-1.694-2.244-3.454-2.244-1.76 0-2.97.792-3.432 2.244-.176.55-.264 1.144-.264 5.434s.066 4.884.242 5.434zm2.618-.748c-.066-.22-.088-.484-.088-4.686s.022-4.466.088-4.686c.11-.352.396-.572.836-.572.44 0 .726.22.836.572.066.22.088.484.088 4.686s-.022 4.466-.088 4.686c-.11.352-.374.572-.836.572-.44 0-.726-.22-.836-.572zm6.512.748c.462 1.43 1.65 2.244 3.476 2.244s3.014-.814 3.476-2.244c.132-.44.198-.924.198-2.31 0-1.122-.044-1.562-.198-2.046-.198-.616-.55-1.1-1.034-1.408v-.044c.506-.308.836-.814 1.034-1.43.132-.44.198-.902.198-1.672 0-1.012-.066-1.518-.198-1.958-.462-1.43-1.65-2.244-3.476-2.244s-3.014.814-3.476 2.244c-.132.44-.198.946-.198 1.958 0 .77.044 1.232.198 1.672.198.616.55 1.122 1.034 1.43v.044a2.645 2.645 0 00-1.034 1.408c-.154.484-.198.924-.198 2.046 0 1.386.066 1.87.198 2.31zm3.476-6.93c-.44 0-.704-.198-.836-.594-.066-.198-.088-.462-.088-1.298 0-.836.022-1.078.088-1.276.132-.396.396-.594.836-.594.44 0 .704.198.836.594.066.198.088.44.088 1.276 0 .836-.022 1.1-.088 1.298-.132.396-.396.594-.836.594zm-.836 6.16c-.066-.198-.088-.396-.088-1.584 0-1.188.022-1.364.088-1.562.132-.374.396-.594.836-.594.44 0 .704.22.836.594.066.198.088.374.088 1.562 0 1.188-.022 1.386-.088 1.584-.132.374-.396.594-.836.594-.44 0-.704-.22-.836-.594zm6.358 2.596c0 .132.088.22.22.22h2.244c.132 0 .22-.088.22-.22v-2.552c0-.132-.088-.22-.22-.22h-2.244c-.132 0-.22.088-.22.22zm8.58 0c0 .132.088.22.22.22h2.134c.132 0 .22-.088.22-.22v-8.646h.132l1.628 5.984c.044.132.132.22.286.22h1.21c.154 0 .242-.088.286-.22l1.628-5.984h.132v8.646c0 .132.088.22.22.22h2.134c.132 0 .22-.088.22-.22V6.16c0-.132-.088-.22-.22-.22h-2.354c-.198 0-.308.066-.352.22l-2.2 7.854h-.088l-2.288-7.854c-.044-.154-.154-.22-.352-.22h-2.376c-.132 0-.22.088-.22.22zm11.66 0c-.022.132.044.22.176.22h2.442c.154 0 .22-.088.242-.22l.506-2.706h2.838l.484 2.706c.022.132.088.22.242.22h2.442c.132 0 .198-.088.176-.22l-3.212-14.52c-.022-.132-.11-.22-.242-.22h-2.596c-.132 0-.198.088-.242.22zm3.784-4.994l.99-5.192h.066l.946 5.192zm6.974 4.994c0 .132.088.22.22.22h2.442c.132 0 .22-.088.22-.22V6.16c0-.132-.088-.22-.22-.22h-2.442c-.132 0-.22.088-.22.22zm2.112-16.39c.176 0 .286-.066.44-.22l2.288-2.508c.088-.11.022-.22-.11-.22h-2.2c-.176 0-.242.066-.352.22L323.44 4.07c-.088.11-.022.22.11.22z" fill="#fff"/></svg>