<svg width="716.177" height="31" viewBox="0 0 716.177 31" xmlns="http://www.w3.org/2000/svg"><path d="M139.618 20.9c.132 0 .198-.088.22-.22l2.992-14.52c.044-.132-.022-.22-.176-.22h-2.442c-.132 0-.22.066-.242.22l-1.452 9.46h-.066l-1.518-9.46c-.022-.154-.11-.22-.242-.22h-2.486c-.154 0-.22.088-.176.22L137 20.68c.044.132.11.22.242.22zm4.532-.22c0 .132.088.22.22.22h6.534c.132 0 .22-.088.22-.22v-2.156c0-.132-.088-.22-.22-.22h-3.74c-.088 0-.132-.044-.132-.132v-3.388c0-.088.044-.132.132-.132h3.234c.132 0 .22-.088.22-.22v-2.156c0-.132-.088-.22-.22-.22h-3.234c-.088 0-.132-.044-.132-.132V8.668c0-.088.044-.132.132-.132h3.74c.132 0 .22-.088.22-.22V6.16c0-.132-.088-.22-.22-.22h-6.534c-.132 0-.22.088-.22.22zm17.006.22c.11 0 .154-.11.11-.22l-2.046-6.336c1.034-.704 1.672-1.936 1.672-3.828 0-3.322-1.716-4.576-4.378-4.576h-3.564c-.132 0-.22.088-.22.22v14.52c0 .132.088.22.22.22h2.442c.132 0 .22-.088.22-.22v-5.5c0-.088.044-.132.132-.132h.836l1.694 5.676c.044.132.11.176.242.176zm-4.774-8.338h-.638c-.088 0-.132-.044-.132-.132V8.602c0-.088.044-.132.132-.132h.638c1.122 0 1.606.484 1.606 2.046 0 1.584-.484 2.046-1.606 2.046zm10.34 8.338c2.068 0 3.278-.792 3.828-2.486.264-.836.396-1.848.396-4.994s-.132-4.158-.396-4.994c-.55-1.694-1.76-2.486-3.828-2.486h-3.784c-.132 0-.22.088-.22.22v6.028c0 .088-.044.132-.132.132h-.594c-.132 0-.22.088-.22.22v1.628c0 .132.088.22.22.22h.594c.088 0 .132.044.132.132v6.16c0 .132.088.22.22.22zm-.286-2.596h-.704c-.088 0-.132-.044-.132-.132V14.52c0-.088.044-.132.132-.132h.968c.132 0 .22-.088.22-.22v-1.606c0-.132-.088-.22-.22-.22h-.968c-.088 0-.132-.044-.132-.132V8.668c0-.088.044-.132.132-.132h.704c.726 0 1.122.264 1.342.924.154.462.242 1.1.242 3.96s-.088 3.498-.242 3.96c-.22.66-.616.924-1.342.924zm10.604 2.376c0 .132.088.22.22.22h2.442c.132 0 .22-.088.22-.22v-5.742c0-.088.044-.132.132-.132h3.234c.132 0 .22-.088.22-.22v-2.178c0-.132-.088-.22-.22-.22h-3.234c-.088 0-.132-.044-.132-.132V8.668c0-.088.044-.132.132-.132h3.74c.132 0 .22-.088.22-.22V6.16c0-.132-.088-.22-.22-.22h-6.534c-.132 0-.22.088-.22.22zm16.918.22c.11 0 .154-.11.11-.22l-2.046-6.336c1.034-.704 1.672-1.936 1.672-3.828 0-3.322-1.716-4.576-4.378-4.576h-3.564c-.132 0-.22.088-.22.22v14.52c0 .132.088.22.22.22h2.442c.132 0 .22-.088.22-.22v-5.5c0-.088.044-.132.132-.132h.836l1.694 5.676c.044.132.11.176.242.176zm-4.774-8.338h-.638c-.088 0-.132-.044-.132-.132V8.602c0-.088.044-.132.132-.132h.638c1.122 0 1.606.484 1.606 2.046 0 1.584-.484 2.046-1.606 2.046zm5.522 8.118c-.022.132.044.22.176.22h2.442c.154 0 .22-.088.242-.22l.506-2.706h2.838l.484 2.706c.022.132.088.22.242.22h2.442c.132 0 .198-.088.176-.22l-3.212-14.52c-.022-.132-.11-.22-.242-.22h-2.596c-.132 0-.198.088-.242.22zm3.784-4.994l.99-5.192h.066l.946 5.192zm1.738-11.396c.176 0 .286-.066.44-.22l2.288-2.508c.088-.11.022-.22-.11-.22h-2.2c-.176 0-.242.066-.352.22L198.49 4.07c-.088.11-.022.22.11.22zm12.034 16.39c0 .132.088.22.22.22h2.31c.132 0 .22-.088.22-.22V6.16c0-.132-.088-.22-.22-.22h-2.178c-.154 0-.242.044-.374.132l-1.936 1.43c-.154.11-.198.198-.198.352v2.376c0 .176.132.22.242.132l1.87-1.298h.044zm9.152 0c0 .132.088.22.22.22h2.31c.132 0 .22-.088.22-.22V6.16c0-.132-.088-.22-.22-.22h-2.178c-.154 0-.242.044-.374.132l-1.936 1.43c-.154.11-.198.198-.198.352v2.376c0 .176.132.22.242.132l1.87-1.298h.044zm6.732-1.826c.462 1.43 1.65 2.244 3.476 2.244s3.014-.814 3.476-2.244c.132-.44.198-.946.198-2.332 0-1.408-.088-2.024-.242-2.464-.44-1.32-1.232-2.09-2.684-2.09-.308 0-.55.044-.66.11 0-.022-.044-.044-.044-.044l2.398-5.83c.066-.154 0-.264-.154-.264h-2.332c-.176 0-.264.066-.33.22l-2.53 6.116c-.55 1.32-.77 2.2-.77 4.246 0 1.386.066 1.892.198 2.332zm2.64-.77c-.066-.176-.088-.374-.088-1.562 0-1.188.022-1.408.088-1.584.132-.396.396-.594.836-.594.44 0 .704.198.836.594.066.176.088.396.088 1.584 0 1.188-.022 1.386-.088 1.562-.132.396-.396.594-.836.594-.44 0-.704-.198-.836-.594zm6.358 2.596c0 .132.088.22.22.22h2.244c.132 0 .22-.088.22-.22v-2.552c0-.132-.088-.22-.22-.22h-2.244c-.132 0-.22.088-.22.22zm5.764-.044c-.066.154 0 .264.154.264h2.332c.176 0 .264-.066.33-.22l2.53-6.116c.55-1.32.77-2.2.77-4.246 0-1.386-.066-1.892-.198-2.332-.462-1.43-1.65-2.244-3.476-2.244s-3.014.814-3.476 2.244c-.132.44-.198.946-.198 2.332 0 1.408.088 2.024.242 2.464.44 1.32 1.232 2.09 2.684 2.09.308 0 .55-.044.66-.11 0 .022.044.044.044.044zm2.442-8.14c-.44 0-.704-.198-.836-.594-.066-.176-.088-.396-.088-1.584 0-1.188.022-1.386.088-1.562.132-.396.396-.594.836-.594.44 0 .704.198.836.594.066.176.088.374.088 1.562 0 1.188-.022 1.408-.088 1.584-.132.396-.396.594-.836.594zm5.698 6.358c.462 1.452 1.694 2.244 3.454 2.244 1.76 0 3.014-.77 3.454-2.244.176-.55.242-1.144.242-5.434s-.066-4.884-.242-5.434c-.44-1.474-1.694-2.244-3.454-2.244-1.76 0-2.97.792-3.432 2.244-.176.55-.264 1.144-.264 5.434s.066 4.884.242 5.434zm2.618-.748c-.066-.22-.088-.484-.088-4.686s.022-4.466.088-4.686c.11-.352.396-.572.836-.572.44 0 .726.22.836.572.066.22.088.484.088 4.686s-.022 4.466-.088 4.686c-.11.352-.374.572-.836.572-.44 0-.726-.22-.836-.572zm6.534.748c.462 1.452 1.694 2.244 3.454 2.244 1.76 0 3.014-.77 3.454-2.244.176-.55.242-1.144.242-5.434s-.066-4.884-.242-5.434c-.44-1.474-1.694-2.244-3.454-2.244-1.76 0-2.97.792-3.432 2.244-.176.55-.264 1.144-.264 5.434s.066 4.884.242 5.434zm2.618-.748c-.066-.22-.088-.484-.088-4.686s.022-4.466.088-4.686c.11-.352.396-.572.836-.572.44 0 .726.22.836.572.066.22.088.484.088 4.686s-.022 4.466-.088 4.686c-.11.352-.374.572-.836.572-.44 0-.726-.22-.836-.572zm10.714 2.574c0 .132.088.22.22.22h2.442c.132 0 .22-.088.22-.22v-4.048l.88-1.848 2.2 5.962c.022.11.088.154.22.154h2.618c.11 0 .176-.11.132-.22l-3.366-8.712 2.992-5.808c.066-.11 0-.22-.11-.22h-2.552c-.132 0-.22.044-.286.176l-2.728 5.786V6.16c0-.132-.088-.22-.22-.22h-2.442c-.132 0-.22.088-.22.22zm18.678.22c.11 0 .154-.11.11-.22l-2.046-6.336c1.034-.704 1.672-1.936 1.672-3.828 0-3.322-1.716-4.576-4.378-4.576h-3.564c-.132 0-.22.088-.22.22v14.52c0 .132.088.22.22.22h2.442c.132 0 .22-.088.22-.22v-5.5c0-.088.044-.132.132-.132h.836l1.694 5.676c.044.132.11.176.242.176zm-4.774-8.338h-.638c-.088 0-.132-.044-.132-.132V8.602c0-.088.044-.132.132-.132h.638c1.122 0 1.606.484 1.606 2.046 0 1.584-.484 2.046-1.606 2.046zm6.27 8.118c0 .132.088.22.22.22h2.244c.132 0 .22-.088.22-.22v-2.552c0-.132-.088-.22-.22-.22h-2.244c-.132 0-.22.088-.22.22zm8.58 0c0 .132.088.22.22.22h2.442c.132 0 .22-.088.22-.22v-5.742c0-.088.044-.132.132-.132h3.234c.132 0 .22-.088.22-.22v-2.178c0-.132-.088-.22-.22-.22H305.3c-.088 0-.132-.044-.132-.132V8.668c0-.088.044-.132.132-.132h3.74c.132 0 .22-.088.22-.22V6.16c0-.132-.088-.22-.22-.22h-6.534c-.132 0-.22.088-.22.22zm13.222.22c.132 0 .22-.088.22-.22v-5.72l2.904-8.8c.044-.132 0-.22-.176-.22h-2.398c-.154 0-.22.066-.264.22l-1.408 5.478h-.088l-1.474-5.478c-.022-.154-.11-.22-.264-.22h-2.442c-.176 0-.22.088-.176.22l2.904 8.8v5.72c0 .132.088.22.22.22zm12.738 0c.11 0 .154-.11.11-.22l-2.046-6.336c1.034-.704 1.672-1.936 1.672-3.828 0-3.322-1.716-4.576-4.378-4.576h-3.564c-.132 0-.22.088-.22.22v14.52c0 .132.088.22.22.22h2.442c.132 0 .22-.088.22-.22v-5.5c0-.088.044-.132.132-.132h.836l1.694 5.676c.044.132.11.176.242.176zm-4.774-8.338h-.638c-.088 0-.132-.044-.132-.132V8.602c0-.088.044-.132.132-.132h.638c1.122 0 1.606.484 1.606 2.046 0 1.584-.484 2.046-1.606 2.046zm6.336 8.118c0 .132.088.22.22.22h2.442c.132 0 .22-.088.22-.22V6.16c0-.132-.088-.22-.22-.22h-2.442c-.132 0-.22.088-.22.22zm13.332.22c.11 0 .154-.11.11-.22l-2.046-6.336c1.034-.704 1.672-1.936 1.672-3.828 0-3.322-1.716-4.576-4.378-4.576h-3.564c-.132 0-.22.088-.22.22v14.52c0 .132.088.22.22.22h2.442c.132 0 .22-.088.22-.22v-5.5c0-.088.044-.132.132-.132h.836l1.694 5.676c.044.132.11.176.242.176zm-4.774-8.338h-.638c-.088 0-.132-.044-.132-.132V8.602c0-.088.044-.132.132-.132h.638c1.122 0 1.606.484 1.606 2.046 0 1.584-.484 2.046-1.606 2.046zm10.626 8.118c0 .132.088.22.22.22h2.442c.132 0 .22-.088.22-.22v-5.742c0-.088.044-.132.132-.132h3.234c.132 0 .22-.088.22-.22v-2.178c0-.132-.088-.22-.22-.22h-3.234c-.088 0-.132-.044-.132-.132V8.668c0-.088.044-.132.132-.132h3.74c.132 0 .22-.088.22-.22V6.16c0-.132-.088-.22-.22-.22h-6.534c-.132 0-.22.088-.22.22zm8.492 0c0 .132.088.22.22.22h6.578c.132 0 .22-.088.22-.22v-2.156c0-.132-.088-.22-.22-.22h-3.784c-.088 0-.132-.044-.132-.132V6.16c0-.132-.088-.22-.22-.22h-2.442c-.132 0-.22.088-.22.22zm11.924.418c2.508 0 4.048-1.43 4.048-4.246V6.16c0-.132-.088-.22-.22-.22h-2.442c-.132 0-.22.088-.22.22v11.044c0 .792-.418 1.298-1.166 1.298-.726 0-1.144-.506-1.144-1.298V6.16c0-.132-.088-.22-.22-.22h-2.442c-.132 0-.22.088-.22.22v10.692c0 2.816 1.54 4.246 4.026 4.246zm6.094-2.508c.55 1.628 1.848 2.508 3.85 2.508 1.958 0 3.256-.88 3.806-2.53.242-.682.308-1.298.308-5.148v-.66c0-.132-.088-.22-.22-.22h-3.63c-.132 0-.22.088-.22.22v1.936c0 .132.088.22.22.22h.946c.088 0 .132.044.132.132 0 2.2-.044 2.42-.132 2.728-.132.44-.594.726-1.144.726-.55 0-1.012-.286-1.144-.726-.11-.33-.132-.528-.132-4.356 0-3.85.022-4.026.132-4.378.132-.418.572-.704 1.1-.704.748 0 1.188.506 1.254 1.584.022.154.11.22.242.198l2.332-.396c.132-.022.198-.132.176-.264-.198-2.42-1.606-3.718-4.026-3.718-2.002 0-3.3.88-3.85 2.508-.22.704-.286 1.32-.286 5.17 0 3.85.066 4.466.286 5.17zm9.658 4.334c0 .132.088.22.22.22.11 0 .176-.044.242-.132l1.892-2.178c.132-.154.176-.308.176-.594v-2.112c0-.132-.088-.22-.22-.22h-2.09c-.132 0-.22.088-.22.22zm8.492-4.334c.55 1.628 1.848 2.508 3.85 2.508 1.958 0 3.256-.88 3.806-2.53.242-.682.308-1.298.308-5.148v-.66c0-.132-.088-.22-.22-.22h-3.63c-.132 0-.22.088-.22.22v1.936c0 .132.088.22.22.22h.946c.088 0 .132.044.132.132 0 2.2-.044 2.42-.132 2.728-.132.44-.594.726-1.144.726-.55 0-1.012-.286-1.144-.726-.11-.33-.132-.528-.132-4.356 0-3.85.022-4.026.132-4.378.132-.418.572-.704 1.1-.704.748 0 1.188.506 1.254 1.584.022.154.11.22.242.198l2.332-.396c.132-.022.198-.132.176-.264-.198-2.42-1.606-3.718-4.026-3.718-2.002 0-3.3.88-3.85 2.508-.22.704-.286 1.32-.286 5.17 0 3.85.066 4.466.286 5.17zm9.724 2.09c0 .132.088.22.22.22h2.442c.132 0 .22-.088.22-.22V6.16c0-.132-.088-.22-.22-.22h-2.442c-.132 0-.22.088-.22.22zm12.65-4.224c0-2.53-.792-3.63-2.838-4.422l-.902-.352c-1.166-.462-1.408-.814-1.408-1.936 0-1.012.374-1.496 1.144-1.496.792 0 1.166.55 1.188 1.628 0 .132.11.198.242.176l2.244-.352c.132-.022.198-.11.198-.242-.11-2.354-1.342-3.718-3.96-3.718-2.662 0-3.96 1.452-3.96 4.158 0 2.398.726 3.52 2.838 4.334l.902.352c1.122.44 1.386.902 1.386 2.222 0 1.364-.374 1.782-1.188 1.782-.858 0-1.254-.55-1.298-1.936 0-.132-.088-.198-.242-.176l-2.354.374c-.132.022-.176.11-.176.242.044 2.574 1.342 4.004 4.048 4.004 2.97 0 4.136-1.584 4.136-4.642zm5.962 4.444c.132 0 .22-.088.22-.22V8.668c0-.088.044-.132.132-.132h2.354c.132 0 .22-.088.22-.22V6.16c0-.132-.088-.22-.22-.22h-7.854c-.132 0-.22.088-.22.22v2.156c0 .132.088.22.22.22h2.354c.088 0 .132.044.132.132V20.68c0 .132.088.22.22.22zm4.246-.22c0 .132.088.22.22.22h2.442c.132 0 .22-.088.22-.22V6.16c0-.132-.088-.22-.22-.22h-2.442c-.132 0-.22.088-.22.22zm4.906 0c0 .132.088.22.22.22h2.09c.132 0 .22-.088.22-.22v-9.394h.11l2.596 9.394c.044.154.132.22.308.22h2.64c.132 0 .22-.088.22-.22V6.16c0-.132-.088-.22-.22-.22h-2.09c-.132 0-.22.088-.22.22v9.394h-.11l-2.486-9.394c-.044-.154-.132-.22-.308-.22h-2.75c-.132 0-.22.088-.22.22zm10.494-2.09c.55 1.628 1.848 2.508 3.85 2.508 1.958 0 3.256-.88 3.806-2.53.242-.682.308-1.298.308-5.148v-.66c0-.132-.088-.22-.22-.22h-3.63c-.132 0-.22.088-.22.22v1.936c0 .132.088.22.22.22h.946c.088 0 .132.044.132.132 0 2.2-.044 2.42-.132 2.728-.132.44-.594.726-1.144.726-.55 0-1.012-.286-1.144-.726-.11-.33-.132-.528-.132-4.356 0-3.85.022-4.026.132-4.378.132-.418.572-.704 1.1-.704.748 0 1.188.506 1.254 1.584.022.154.11.22.242.198l2.332-.396c.132-.022.198-.132.176-.264-.198-2.42-1.606-3.718-4.026-3.718-2.002 0-3.3.88-3.85 2.508-.22.704-.286 1.32-.286 5.17 0 3.85.066 4.466.286 5.17zm13.706 2.508c2.508 0 4.048-1.43 4.048-4.246V6.16c0-.132-.088-.22-.22-.22h-2.442c-.132 0-.22.088-.22.22v11.044c0 .792-.418 1.298-1.166 1.298-.726 0-1.144-.506-1.144-1.298V6.16c0-.132-.088-.22-.22-.22h-2.442c-.132 0-.22.088-.22.22v10.692c0 2.816 1.54 4.246 4.026 4.246zm10.516-3.454c0 2.112 1.386 3.454 3.498 3.454 1.32 0 2.31-.396 3.212-1.452l.198.308c.462.726.836.946 1.716.946h.836c.132 0 .22-.088.22-.22v-1.87c0-.132-.088-.22-.22-.22h-.088c-.308 0-.506-.088-.748-.506l-.418-.66 1.474-2.354c.066-.132.044-.242-.066-.308l-1.474-.968c-.132-.088-.242-.044-.308.066l-.924 1.474-1.342-2.134c1.716-1.936 2.244-3.058 2.244-4.18 0-2.002-1.43-3.278-3.454-3.278s-3.454 1.298-3.454 3.278c0 1.166.528 2.222 1.43 3.63l.176.308c-1.694 1.87-2.508 3.19-2.508 4.686zm4.268-6.556c-.726-1.232-.88-1.804-.88-2.178 0-.704.352-1.122.968-1.122s.99.418.99 1.122c0 .66-.198 1.166-1.078 2.178zm-1.694 6.402c0-.726.352-1.386 1.254-2.442l1.606 2.574c-.682.902-1.144 1.122-1.694 1.122-.682 0-1.166-.462-1.166-1.254zm13.728 3.19c0 .132.088.22.22.22h2.442c.132 0 .22-.088.22-.22v-5.742c0-.088.044-.132.132-.132h3.234c.132 0 .22-.088.22-.22v-2.178c0-.132-.088-.22-.22-.22h-3.234c-.088 0-.132-.044-.132-.132V8.668c0-.088.044-.132.132-.132h3.74c.132 0 .22-.088.22-.22V6.16c0-.132-.088-.22-.22-.22h-6.534c-.132 0-.22.088-.22.22zm6.754 0c-.022.132.044.22.176.22h2.442c.154 0 .22-.088.242-.22l.506-2.706h2.838l.484 2.706c.022.132.088.22.242.22h2.442c.132 0 .198-.088.176-.22l-3.212-14.52c-.022-.132-.11-.22-.242-.22h-2.596c-.132 0-.198.088-.242.22zm3.784-4.994l.99-5.192h.066l.946 5.192zm15.4 5.214c.11 0 .154-.11.11-.22l-2.046-6.336c1.034-.704 1.672-1.936 1.672-3.828 0-3.322-1.716-4.576-4.378-4.576h-3.564c-.132 0-.22.088-.22.22v14.52c0 .132.088.22.22.22h2.442c.132 0 .22-.088.22-.22v-5.5c0-.088.044-.132.132-.132h.836l1.694 5.676c.044.132.11.176.242.176zm-4.774-8.338h-.638c-.088 0-.132-.044-.132-.132V8.602c0-.088.044-.132.132-.132h.638c1.122 0 1.606.484 1.606 2.046 0 1.584-.484 2.046-1.606 2.046zm5.522 8.118c-.022.132.044.22.176.22h2.442c.154 0 .22-.088.242-.22l.506-2.706h2.838l.484 2.706c.022.132.088.22.242.22h2.442c.132 0 .198-.088.176-.22L515.18 6.16c-.022-.132-.11-.22-.242-.22h-2.596c-.132 0-.198.088-.242.22zm3.784-4.994l.99-5.192h.066l.946 5.192zm15.4 5.214c.11 0 .154-.11.11-.22l-2.046-6.336c1.034-.704 1.672-1.936 1.672-3.828 0-3.322-1.716-4.576-4.378-4.576h-3.564c-.132 0-.22.088-.22.22v14.52c0 .132.088.22.22.22h2.442c.132 0 .22-.088.22-.22v-5.5c0-.088.044-.132.132-.132h.836l1.694 5.676c.044.132.11.176.242.176zm-4.774-8.338h-.638c-.088 0-.132-.044-.132-.132V8.602c0-.088.044-.132.132-.132h.638c1.122 0 1.606.484 1.606 2.046 0 1.584-.484 2.046-1.606 2.046zm14.08 3.894c0-2.53-.792-3.63-2.838-4.422l-.902-.352c-1.166-.462-1.408-.814-1.408-1.936 0-1.012.374-1.496 1.144-1.496.792 0 1.166.55 1.188 1.628 0 .132.11.198.242.176l2.244-.352c.132-.022.198-.11.198-.242-.11-2.354-1.342-3.718-3.96-3.718-2.662 0-3.96 1.452-3.96 4.158 0 2.398.726 3.52 2.838 4.334l.902.352c1.122.44 1.386.902 1.386 2.222 0 1.364-.374 1.782-1.188 1.782-.858 0-1.254-.55-1.298-1.936 0-.132-.088-.198-.242-.176l-2.354.374c-.132.022-.176.11-.176.242.044 2.574 1.342 4.004 4.048 4.004 2.97 0 4.136-1.584 4.136-4.642zm5.962 4.444c.132 0 .22-.088.22-.22V8.668c0-.088.044-.132.132-.132h2.354c.132 0 .22-.088.22-.22V6.16c0-.132-.088-.22-.22-.22h-7.854c-.132 0-.22.088-.22.22v2.156c0 .132.088.22.22.22h2.354c.088 0 .132.044.132.132V20.68c0 .132.088.22.22.22zm1.54-.902c.572.704 1.606 1.1 2.75 1.1 2.486 0 4.092-1.298 4.092-4.312V6.16c0-.132-.088-.22-.22-.22h-2.442c-.132 0-.22.088-.22.22v10.89c0 1.034-.418 1.452-1.188 1.452a1.24 1.24 0 01-.836-.33c-.132-.11-.22-.11-.33-.022l-1.584 1.54c-.11.088-.11.198-.022.308zm13.42-15.708c.176 0 .286-.066.44-.22l2.288-2.508c.088-.11.022-.22-.11-.22h-2.2c-.176 0-.242.066-.352.22l-1.804 2.508c-.088.11-.022.22.11.22zm-.66 16.808c1.958 0 3.278-.88 3.828-2.53.242-.682.308-1.298.308-5.148 0-3.85-.066-4.466-.308-5.148-.55-1.65-1.87-2.53-3.828-2.53-1.958 0-3.278.88-3.828 2.53-.242.682-.308 1.298-.308 5.148 0 3.85.066 4.466.308 5.148.55 1.65 1.87 2.53 3.828 2.53zm0-2.596c-.55 0-.924-.308-1.056-.726-.11-.352-.154-.726-.154-4.356s.044-4.004.154-4.356c.132-.418.506-.726 1.056-.726s.924.308 1.056.726c.11.352.154.726.154 4.356s-.044 4.004-.154 4.356c-.132.418-.506.726-1.056.726zm14.366 2.398c.11 0 .154-.11.11-.22l-2.046-6.336c1.034-.704 1.672-1.936 1.672-3.828 0-3.322-1.716-4.576-4.378-4.576h-3.564c-.132 0-.22.088-.22.22v14.52c0 .132.088.22.22.22h2.442c.132 0 .22-.088.22-.22v-5.5c0-.088.044-.132.132-.132h.836l1.694 5.676c.044.132.11.176.242.176zm-4.774-8.338h-.638c-.088 0-.132-.044-.132-.132V8.602c0-.088.044-.132.132-.132h.638c1.122 0 1.606.484 1.606 2.046 0 1.584-.484 2.046-1.606 2.046zm5.522 8.118c-.022.132.044.22.176.22h2.442c.154 0 .22-.088.242-.22l.506-2.706h2.838l.484 2.706c.022.132.088.22.242.22h2.442c.132 0 .198-.088.176-.22l-3.212-14.52c-.022-.132-.11-.22-.242-.22h-2.596c-.132 0-.198.088-.242.22zm3.784-4.994l.99-5.192h.066l.946 5.192z" fill="#fff"/></svg>