<svg width="135.761" height="31" viewBox="0 0 135.761 31" xmlns="http://www.w3.org/2000/svg"><path d="M29.182 20.68c0 .132.088.22.22.22h2.442c.132 0 .22-.088.22-.22v-5.984c0-.088.044-.132.132-.132h2.09c.088 0 .132.044.132.132v5.984c0 .132.088.22.22.22h2.442c.132 0 .22-.088.22-.22V6.16c0-.132-.088-.22-.22-.22h-2.442c-.132 0-.22.088-.22.22v5.676c0 .088-.044.132-.132.132h-2.09c-.088 0-.132-.044-.132-.132V6.16c0-.132-.088-.22-.22-.22h-2.442c-.132 0-.22.088-.22.22zm10.142 0c0 .132.088.22.22.22h6.534c.132 0 .22-.088.22-.22v-2.156c0-.132-.088-.22-.22-.22h-3.74c-.088 0-.132-.044-.132-.132v-3.388c0-.088.044-.132.132-.132h3.234c.132 0 .22-.088.22-.22v-2.156c0-.132-.088-.22-.22-.22h-3.234c-.088 0-.132-.044-.132-.132V8.668c0-.088.044-.132.132-.132h3.74c.132 0 .22-.088.22-.22V6.16c0-.132-.088-.22-.22-.22h-6.534c-.132 0-.22.088-.22.22zm8.58 0c0 .132.088.22.22.22h6.578c.132 0 .22-.088.22-.22v-2.156c0-.132-.088-.22-.22-.22h-3.784c-.088 0-.132-.044-.132-.132V6.16c0-.132-.088-.22-.22-.22h-2.442c-.132 0-.22.088-.22.22zm8.008-2.09c.55 1.628 1.848 2.508 3.85 2.508 1.958 0 3.256-.88 3.806-2.53.242-.682.308-1.298.308-5.148v-.66c0-.132-.088-.22-.22-.22h-3.63c-.132 0-.22.088-.22.22v1.936c0 .132.088.22.22.22h.946c.088 0 .132.044.132.132 0 2.2-.044 2.42-.132 2.728-.132.44-.594.726-1.144.726-.55 0-1.012-.286-1.144-.726-.11-.33-.132-.528-.132-4.356 0-3.85.022-4.026.132-4.378.132-.418.572-.704 1.1-.704.748 0 1.188.506 1.254 1.584.022.154.11.22.242.198l2.332-.396c.132-.022.198-.132.176-.264-.198-2.42-1.606-3.718-4.026-3.718-2.002 0-3.3.88-3.85 2.508-.22.704-.286 1.32-.286 5.17 0 3.85.066 4.466.286 5.17zm8.558 2.09c-.022.132.044.22.176.22h2.442c.154 0 .22-.088.242-.22l.506-2.706h2.838l.484 2.706c.022.132.088.22.242.22h2.442c.132 0 .198-.088.176-.22L70.806 6.16c-.022-.132-.11-.22-.242-.22h-2.596c-.132 0-.198.088-.242.22zm3.784-4.994l.99-5.192h.066l.946 5.192zm15.4 5.214c.11 0 .154-.11.11-.22l-2.046-6.336c1.034-.704 1.672-1.936 1.672-3.828 0-3.322-1.716-4.576-4.378-4.576h-3.564c-.132 0-.22.088-.22.22v14.52c0 .132.088.22.22.22h2.442c.132 0 .22-.088.22-.22v-5.5c0-.088.044-.132.132-.132h.836l1.694 5.676c.044.132.11.176.242.176zm-4.774-8.338h-.638c-.088 0-.132-.044-.132-.132V8.602c0-.088.044-.132.132-.132h.638c1.122 0 1.606.484 1.606 2.046 0 1.584-.484 2.046-1.606 2.046zm6.336 8.118c0 .132.088.22.22.22h2.442c.132 0 .22-.088.22-.22v-5.742c0-.088.044-.132.132-.132h3.234c.132 0 .22-.088.22-.22v-2.178c0-.132-.088-.22-.22-.22H88.23c-.088 0-.132-.044-.132-.132V8.668c0-.088.044-.132.132-.132h3.74c.132 0 .22-.088.22-.22V6.16c0-.132-.088-.22-.22-.22h-6.534c-.132 0-.22.088-.22.22zm16.918.22c.11 0 .154-.11.11-.22l-2.046-6.336c1.034-.704 1.672-1.936 1.672-3.828 0-3.322-1.716-4.576-4.378-4.576h-3.564c-.132 0-.22.088-.22.22v14.52c0 .132.088.22.22.22h2.442c.132 0 .22-.088.22-.22v-5.5c0-.088.044-.132.132-.132h.836l1.694 5.676c.044.132.11.176.242.176zm-4.774-8.338h-.638c-.088 0-.132-.044-.132-.132V8.602c0-.088.044-.132.132-.132h.638c1.122 0 1.606.484 1.606 2.046 0 1.584-.484 2.046-1.606 2.046zm6.336 8.118c0 .132.088.22.22.22h2.442c.132 0 .22-.088.22-.22V6.16c0-.132-.088-.22-.22-.22h-2.442c-.132 0-.22.088-.22.22zm2.112-16.39c.176 0 .286-.066.44-.22l2.288-2.508c.088-.11.022-.22-.11-.22h-2.2c-.176 0-.242.066-.352.22L104.07 4.07c-.088.11-.022.22.11.22z" fill="#fff"/></svg>