<svg width="178" height="36" viewBox="0 0 178 36" xmlns="http://www.w3.org/2000/svg"><path d="M5.304 24.7c.156 0 .234-.104.26-.26l3.51-17.16c.026-.156-.026-.26-.208-.26h-.858c-.156 0-.234.104-.26.26L4.966 21.528h-.078L2.08 7.28c-.026-.156-.13-.26-.286-.26H.936c-.182 0-.234.104-.208.26l3.51 17.16c.026.156.104.26.26.26zm6.266-.26c0 .156.104.26.26.26h6.006c.156 0 .26-.104.26-.26v-.754c0-.156-.104-.26-.26-.26h-4.758c-.104 0-.156-.052-.156-.156v-6.734c0-.104.052-.156.156-.156h4.16c.156 0 .26-.104.26-.26v-.754c0-.156-.104-.26-.26-.26h-4.16c-.104 0-.156-.052-.156-.156v-6.5c0-.104.052-.156.156-.156h4.758c.156 0 .26-.104.26-.26V7.28c0-.156-.104-.26-.26-.26H11.83c-.156 0-.26.104-.26.26zm16.484.26c.13 0 .182-.104.13-.26l-2.392-8.06c1.404-.624 2.184-2.002 2.184-4.472 0-3.588-1.404-4.888-4.498-4.888h-2.522c-.156 0-.26.104-.26.26v17.16c0 .156.104.26.26.26h.832c.156 0 .26-.104.26-.26v-7.488c0-.104.052-.156.156-.156h1.222c.39 0 .754-.026 1.092-.078l2.288 7.8c.052.13.13.182.286.182zm-4.472-9.152h-1.378c-.104 0-.156-.052-.156-.156V8.45c0-.104.052-.156.156-.156h1.378c2.158 0 3.042.884 3.042 3.614 0 2.834-.936 3.64-3.042 3.64zm11.05 9.152c2.132 0 3.302-.936 3.848-2.626.312-.962.416-2.132.416-6.214 0-4.108-.104-5.252-.416-6.214-.546-1.69-1.716-2.626-3.848-2.626H31.46c-.156 0-.26.104-.26.26v7.722c0 .104-.052.156-.156.156h-.884c-.156 0-.26.104-.26.26v.624c0 .156.104.26.26.26h.884c.104 0 .156.052.156.156v7.982c0 .156.104.26.26.26zm-.156-1.274h-1.768c-.104 0-.156-.052-.156-.156v-6.812c0-.104.052-.156.156-.156h1.95c.156 0 .26-.104.26-.26v-.624c0-.156-.104-.26-.26-.26h-1.95c-.104 0-.156-.052-.156-.156V8.45c0-.104.052-.156.156-.156h1.768c1.482 0 2.288.572 2.704 1.794.26.806.364 1.872.364 5.772 0 3.9-.104 4.966-.364 5.772-.416 1.222-1.222 1.794-2.704 1.794zm12.48 1.014c0 .156.104.26.26.26h.832c.156 0 .26-.104.26-.26v-7.8c0-.104.052-.156.156-.156h4.16c.156 0 .26-.104.26-.26v-.754c0-.156-.104-.26-.26-.26h-4.16c-.104 0-.156-.052-.156-.156V8.45c0-.104.052-.156.156-.156h4.758c.156 0 .26-.104.26-.26V7.28c0-.156-.104-.26-.26-.26h-6.006c-.156 0-.26.104-.26.26zm16.406.26c.13 0 .182-.104.13-.26L61.1 16.38c1.404-.624 2.184-2.002 2.184-4.472 0-3.588-1.404-4.888-4.498-4.888h-2.522c-.156 0-.26.104-.26.26v17.16c0 .156.104.26.26.26h.832c.156 0 .26-.104.26-.26v-7.488c0-.104.052-.156.156-.156h1.222c.39 0 .754-.026 1.092-.078l2.288 7.8c.052.13.13.182.286.182zm-4.472-9.152h-1.378c-.104 0-.156-.052-.156-.156V8.45c0-.104.052-.156.156-.156h1.378c2.158 0 3.042.884 3.042 3.614 0 2.834-.936 3.64-3.042 3.64zm6.5 8.892c-.026.156.104.26.26.26h.832c.156 0 .234-.104.26-.26l.884-4.238h4.316l.884 4.238c.026.156.104.26.286.26h.832c.156 0 .26-.104.234-.26l-3.64-17.16c-.026-.156-.13-.26-.286-.26h-.858c-.156 0-.234.104-.286.26zm2.496-5.46l1.898-9.022h.052l1.846 9.022zm2.236-14.17c.182 0 .26-.052.442-.26l2.262-2.678c.104-.13.052-.26-.104-.26h-.858c-.234 0-.312.078-.442.26l-1.95 2.678c-.104.13-.052.26.104.26zm6.708 9.698H78c.156 0 .26-.104.26-.26v-1.69c0-.156-.104-.26-.26-.26h-1.17c-.156 0-.26.104-.26.26v1.69c0 .156.104.26.26.26zm-.26 9.932c0 .156.104.26.26.26H78c.156 0 .26-.104.26-.26v-1.69c0-.156-.104-.26-.26-.26h-1.17c-.156 0-.26.104-.26.26z" fill="#fff"/></svg>