<svg width="265" height="42" viewBox="0 0 265 42" xmlns="http://www.w3.org/2000/svg"><path d="M1.5 25.71c.63 1.95 2.25 3.06 4.74 3.06s4.11-1.11 4.74-3.06c.18-.6.27-1.26.27-3.15 0-1.53-.06-2.13-.27-2.79-.27-.84-.75-1.5-1.41-1.92v-.06c.69-.42 1.14-1.11 1.41-1.95.18-.6.27-1.23.27-2.28 0-1.38-.09-2.07-.27-2.67-.63-1.95-2.25-3.06-4.74-3.06S2.13 8.94 1.5 10.89c-.18.6-.27 1.29-.27 2.67 0 1.05.06 1.68.27 2.28.27.84.75 1.53 1.41 1.95v.06c-.63.42-1.14 1.08-1.41 1.92-.21.66-.27 1.26-.27 2.79 0 1.89.09 2.55.27 3.15zm4.74-9.45c-.6 0-.96-.27-1.14-.81-.09-.27-.12-.63-.12-1.77 0-1.14.03-1.47.12-1.74.18-.54.54-.81 1.14-.81.6 0 .96.27 1.14.81.09.27.12.6.12 1.74 0 1.14-.03 1.5-.12 1.77-.18.54-.54.81-1.14.81zm-1.14 8.4c-.09-.27-.12-.54-.12-2.16s.03-1.86.12-2.13c.18-.51.54-.81 1.14-.81.6 0 .96.3 1.14.81.09.27.12.51.12 2.13 0 1.62-.03 1.89-.12 2.16-.18.51-.54.81-1.14.81-.6 0-.96-.3-1.14-.81zm12.18 3.54c0 .18.12.3.3.3h3.15c.18 0 .3-.12.3-.3V8.4c0-.18-.12-.3-.3-.3h-2.97c-.21 0-.33.06-.51.18l-2.64 1.95c-.21.15-.27.27-.27.48v3.24c0 .24.18.3.33.18l2.55-1.77h.06zm8.97 0c0 .18.12.3.3.3h3.06c.18 0 .3-.12.3-.3v-3.48c0-.18-.12-.3-.3-.3h-3.06c-.18 0-.3.12-.3.3zm7.86-.06c-.09.21 0 .36.21.36h3.18c.24 0 .36-.09.45-.3l3.45-8.34c.75-1.8 1.05-3 1.05-5.79 0-1.89-.09-2.58-.27-3.18-.63-1.95-2.25-3.06-4.74-3.06s-4.11 1.11-4.74 3.06c-.18.6-.27 1.29-.27 3.18 0 1.92.12 2.76.33 3.36.6 1.8 1.68 2.85 3.66 2.85.42 0 .75-.06.9-.15 0 .03.06.06.06.06zm3.33-11.1c-.6 0-.96-.27-1.14-.81-.09-.24-.12-.54-.12-2.16s.03-1.89.12-2.13c.18-.54.54-.81 1.14-.81.6 0 .96.27 1.14.81.09.24.12.51.12 2.13 0 1.62-.03 1.92-.12 2.16-.18.54-.54.81-1.14.81zm7.77 8.67c.63 1.98 2.31 3.06 4.71 3.06s4.11-1.05 4.71-3.06c.24-.75.33-1.56.33-7.41s-.09-6.66-.33-7.41c-.6-2.01-2.31-3.06-4.71-3.06s-4.05 1.08-4.68 3.06c-.24.75-.36 1.56-.36 7.41s.09 6.66.33 7.41zm3.57-1.02c-.09-.3-.12-.66-.12-6.39 0-5.73.03-6.09.12-6.39.15-.48.54-.78 1.14-.78.6 0 .99.3 1.14.78.09.3.12.66.12 6.39 0 5.73-.03 6.09-.12 6.39-.15.48-.51.78-1.14.78-.6 0-.99-.3-1.14-.78zm8.91 1.02c.63 1.98 2.31 3.06 4.71 3.06s4.11-1.05 4.71-3.06c.24-.75.33-1.56.33-7.41s-.09-6.66-.33-7.41c-.6-2.01-2.31-3.06-4.71-3.06s-4.05 1.08-4.68 3.06c-.24.75-.36 1.56-.36 7.41s.09 6.66.33 7.41zm3.57-1.02c-.09-.3-.12-.66-.12-6.39 0-5.73.03-6.09.12-6.39.15-.48.54-.78 1.14-.78.6 0 .99.3 1.14.78.09.3.12.66.12 6.39 0 5.73-.03 6.09-.12 6.39-.15.48-.51.78-1.14.78-.6 0-.99-.3-1.14-.78zm14.61 3.51c0 .18.12.3.3.3h3.33c.18 0 .3-.12.3-.3v-5.52l1.2-2.52 3 8.13c.03.15.12.21.3.21h3.57c.15 0 .24-.15.18-.3l-4.59-11.88 4.08-7.92c.09-.15 0-.3-.15-.3h-3.48c-.18 0-.3.06-.39.24l-3.72 7.89V8.4c0-.18-.12-.3-.3-.3h-3.33c-.18 0-.3.12-.3.3zm25.47.3c.15 0 .21-.15.15-.3l-2.79-8.64c1.41-.96 2.28-2.64 2.28-5.22 0-4.53-2.34-6.24-5.97-6.24h-4.86c-.18 0-.3.12-.3.3v19.8c0 .18.12.3.3.3h3.33c.18 0 .3-.12.3-.3v-7.5c0-.12.06-.18.18-.18h1.14l2.31 7.74c.06.18.15.24.33.24zm-6.51-11.37h-.87c-.12 0-.18-.06-.18-.18v-5.22c0-.12.06-.18.18-.18h.87c1.53 0 2.19.66 2.19 2.79 0 2.16-.66 2.79-2.19 2.79zm8.55 11.07c0 .18.12.3.3.3h3.06c.18 0 .3-.12.3-.3v-3.48c0-.18-.12-.3-.3-.3h-3.06c-.18 0-.3.12-.3.3z" fill="#fff"/></svg>