<svg width="217.244" height="42" viewBox="0 0 217.244 42" xmlns="http://www.w3.org/2000/svg"><path d="M.27 28.2c-.03.18.06.3.24.3h3.33c.21 0 .3-.12.33-.3l.69-3.69h3.87l.66 3.69c.03.18.12.3.33.3h3.33c.18 0 .27-.12.24-.3L8.91 8.4c-.03-.18-.15-.3-.33-.3H5.04c-.18 0-.27.12-.33.3zm5.16-6.81l1.35-7.08h.09l1.29 7.08zm9.51 6.81c0 .18.12.3.3.3h8.97c.18 0 .3-.12.3-.3v-2.94c0-.18-.12-.3-.3-.3h-5.16c-.12 0-.18-.06-.18-.18V8.4c0-.18-.12-.3-.3-.3h-3.33c-.18 0-.3.12-.3.3zm11.55 0c0 .18.12.3.3.3h2.91c.18 0 .3-.12.3-.3V16.41h.18l2.22 8.16c.06.18.18.3.39.3h1.65c.21 0 .33-.12.39-.3l2.22-8.16h.18V28.2c0 .18.12.3.3.3h2.91c.18 0 .3-.12.3-.3V8.4c0-.18-.12-.3-.3-.3h-3.21c-.27 0-.42.09-.48.3l-3 10.71h-.12L30.51 8.4c-.06-.21-.21-.3-.48-.3h-3.24c-.18 0-.3.12-.3.3zm17.01 0c0 .18.12.3.3.3h8.91c.18 0 .3-.12.3-.3v-2.94c0-.18-.12-.3-.3-.3h-5.1c-.12 0-.18-.06-.18-.18v-4.62c0-.12.06-.18.18-.18h4.41c.18 0 .3-.12.3-.3v-2.94c0-.18-.12-.3-.3-.3h-4.41c-.12 0-.18-.06-.18-.18v-4.44c0-.12.06-.18.18-.18h5.1c.18 0 .3-.12.3-.3V8.4c0-.18-.12-.3-.3-.3H43.8c-.18 0-.3.12-.3.3zm23.19.3c.15 0 .21-.15.15-.3l-2.79-8.64c1.41-.96 2.28-2.64 2.28-5.22 0-4.53-2.34-6.24-5.97-6.24H55.5c-.18 0-.3.12-.3.3v19.8c0 .18.12.3.3.3h3.33c.18 0 .3-.12.3-.3v-7.5c0-.12.06-.18.18-.18h1.14l2.31 7.74c.06.18.15.24.33.24zm-6.51-11.37h-.87c-.12 0-.18-.06-.18-.18v-5.22c0-.12.06-.18.18-.18h.87c1.53 0 2.19.66 2.19 2.79 0 2.16-.66 2.79-2.19 2.79zm8.64 11.07c0 .18.12.3.3.3h3.33c.18 0 .3-.12.3-.3V8.4c0-.18-.12-.3-.3-.3h-3.33c-.18 0-.3.12-.3.3zM71.7 5.85c.24 0 .39-.09.6-.3l3.12-3.42c.12-.15.03-.3-.15-.3h-3c-.24 0-.33.09-.48.3l-2.46 3.42c-.12.15-.03.3.15.3zm2.7 22.35c-.03.18.06.3.24.3h3.33c.21 0 .3-.12.33-.3l.69-3.69h3.87l.66 3.69c.03.18.12.3.33.3h3.33c.18 0 .27-.12.24-.3L83.04 8.4c-.03-.18-.15-.3-.33-.3h-3.54c-.18 0-.27.12-.33.3zm5.16-6.81l1.35-7.08H81l1.29 7.08z" fill="#fff"/></svg>