<svg width="226.667" height="27" viewBox="0 0 226.667 27" xmlns="http://www.w3.org/2000/svg"><path d="M51.62 14.085l1.918-5.68h2.793l-3.61 9.385h-2.09l-3.59-9.385h2.774l1.805 5.68zm13.374-1.177v.817H59.56q.076.816.541 1.33.465.512 1.282.512 1.064 0 1.92-.893l1.595 1.577q-1.71 1.71-3.534 1.71-2.07 0-3.267-1.377-1.197-1.378-1.197-3.467 0-2.11 1.159-3.486 1.159-1.378 3.21-1.378 1.71 0 2.717 1.283 1.007 1.282 1.007 3.372zm-5.414-.798h3.02q-.209-1.463-1.444-1.463-1.33 0-1.576 1.463zm13.279-3.23l-.95 1.995q-.627-.266-1.102-.266-.646 0-.997.351-.352.352-.352.96v5.87h-2.564V8.405h2.09l.094.4q.741-.647 1.73-.647 1.044 0 2.05.722zm10.145 4.142q0 2.28-1.017 3.6-1.016 1.32-3.106 1.32-2.166 0-3.153-1.377-.988-1.378-.988-3.543 0-2.242 1.007-3.543 1.006-1.302 3.115-1.302.266 0 .361.02l-.17-.4h-2.28V5.765h1.367l-.988-2.204h2.356l.988 2.204h1.748v2.032h-.817l.988 2.033q.589 1.083.589 3.192zm-2.223.019q0-1.311-.399-2.014-.399-.703-1.52-.703-.608 0-1.007.228-.399.228-.589.646-.19.418-.247.836-.057.418-.057 1.007 0 1.291.4 1.994.398.703 1.5.703.608 0 1.017-.218.408-.219.588-.637.18-.418.247-.836.067-.417.067-1.006zM95.808 4.53v2.09q-.817 0-1.159.246-.342.247-.342 1.026v.513h1.311v2.166h-1.31v7.219h-2.49v-7.22h-.76V8.406h.76V7.208q0-.665.134-1.14.132-.474.446-.76.313-.284.598-.455.285-.171.855-.238.57-.066.903-.076.332-.01 1.054-.01zm7.77 4.35l-.95 1.995q-.627-.266-1.102-.266-.646 0-.997.351-.352.352-.352.96v5.87h-2.564V8.405h2.09l.095.4q.74-.647 1.728-.647 1.045 0 2.052.722zm7.96 2.375v4.768l.38 1.425-2.223.57-.19-.608q-.817.627-2.07.627-1.463 0-2.47-.826-1.007-.827-1.007-2.252 0-1.33.845-2.108.846-.78 2.575-.874h1.424q.323-.02.323-.247v-.266q0-.4-.304-.637t-.76-.237q-1.196 0-1.595.893l-2.185-.76q.76-2.432 3.78-2.432 1.35 0 2.413.827 1.064.826 1.064 2.137zm-2.413 4.046v-1.614q-.19.132-.475.132h-1.063q-1.311.038-1.311 1.14 0 .437.39.684.389.247.826.247.892 0 1.633-.589zm-3.286-7.713l1.634-3.096h2.583l-2.45 3.096h-1.767zm13.621.817h2.508v9.385h-2.508V8.405zm.741-.817l1.634-3.096h2.583l-2.45 3.096H120.2zm16.946 7.333q0 1.425-1.13 2.242t-2.613.817q-3.286 0-3.894-2.584l2.242-.608q.36.893 1.614.893 1.216 0 1.216-.646 0-.36-.513-.608-.513-.247-1.254-.437-.74-.19-1.472-.465-.731-.275-1.244-.893-.513-.617-.513-1.53 0-1.405.997-2.146.998-.74 2.46-.74 1.33 0 2.128.408t1.5 1.472l-1.975 1.102q-.55-.741-1.406-.741-1.102 0-1.102.646 0 .323.513.522.513.2 1.235.38.722.18 1.454.447.731.266 1.244.893.513.626.513 1.576zm6.877-6.516h2.584v9.385h-2.11l-.094-.399q-.817.57-1.71.57-1.938 0-2.935-1.083-.997-1.083-.997-3.02V8.404h2.583v5.282q0 .873.285 1.32.285.446 1.121.446.551 0 .912-.36.361-.362.361-.932V8.405zm17.839 4.104v5.281h-2.603v-5.281q0-.855-.256-1.302-.257-.446-1.055-.446-.342 0-.589.152-.247.152-.36.332-.115.18-.172.542-.057.36-.066.55-.01.19-.01.59v4.863h-2.602v-5.281q0-.836-.257-1.292-.256-.456-1.035-.456-.532 0-.855.351-.323.352-.323.884v5.794h-2.603V8.405h2.128l.095.38q.76-.589 1.558-.589.874 0 1.453.2.58.2 1.283.75 1.082-.95 2.355-.95 1.938 0 2.926 1.178.988 1.178.988 3.135zm9.29-1.254v4.768l.38 1.425-2.223.57-.19-.608q-.817.627-2.07.627-1.464 0-2.47-.826-1.007-.827-1.007-2.252 0-1.33.845-2.108.845-.78 2.574-.874h1.425q.323-.02.323-.247v-.266q0-.4-.304-.637t-.76-.237q-1.197 0-1.596.893l-2.184-.76q.76-2.432 3.78-2.432 1.349 0 2.413.827 1.064.826 1.064 2.137zM168.74 15.3v-1.614q-.19.132-.475.132h-1.064q-1.31.038-1.31 1.14 0 .437.389.684.39.247.826.247.893 0 1.634-.589zm10.696-6.42l-.95 1.994q-.627-.266-1.102-.266-.646 0-.998.351-.351.352-.351.96v5.87h-2.565V8.405h2.09l.095.4q.741-.647 1.729-.647 1.045 0 2.052.722z" fill="#fff"/></svg>