<svg width="303.875" height="39" viewBox="0 0 303.875 39" xmlns="http://www.w3.org/2000/svg"><path d="M32.076 6.515h3.662V25.59h-3.936v-8.964L28.14 25.59h-2.432l-3.634-8.964v8.964h-3.936V6.515h3.717L26.91 19.25l5.165-12.735zm10.398-.15q.615.614.615 1.489 0 .874-.615 1.49-.615.614-1.49.614-.874 0-1.489-.628-.615-.629-.615-1.476 0-.875.615-1.49.615-.614 1.49-.614.874 0 1.49.615zm-3.32 5.725h3.634v13.5h-3.634v-13.5zm18.118 0l-3.607 6.012 4.4 7.488h-3.963l-4.154-7.488 3.471-6.012h3.853zm-11.04-5.575h3.58V25.59h-3.58V6.515zm16.793-.15q.615.614.615 1.489 0 .874-.615 1.49-.615.614-1.49.614-.874 0-1.489-.628-.615-.629-.615-1.476 0-.875.615-1.49.615-.614 1.49-.614.874 0 1.489.615zm-3.32 5.725h3.634v13.5h-3.634v-13.5zm19.348 6.64q0 3.28-1.462 5.18-1.462 1.899-4.468 1.899-3.116 0-4.537-1.982-1.42-1.981-1.42-5.096 0-3.225 1.448-5.097 1.448-1.872 4.481-1.872.383 0 .52.027l-.246-.574h-3.28V8.291h1.968l-1.421-3.17h3.389l1.42 3.17h2.515v2.924h-1.175l1.42 2.924q.848 1.558.848 4.592zm-3.197.028q0-1.886-.574-2.897t-2.187-1.011q-.874 0-1.448.328t-.847.93q-.273.6-.355 1.202-.082.6-.082 1.448 0 1.858.574 2.87.573 1.01 2.158 1.01.875 0 1.463-.314.587-.314.847-.915t.355-1.203q.096-.6.096-1.448zm22.49-6.668h3.717v13.5H99.03l-.137-.574q-1.175.82-2.46.82-2.787 0-4.221-1.558-1.435-1.557-1.435-4.345V12.09h3.717v7.597q0 1.257.41 1.9.41.642 1.612.642.792 0 1.312-.52.519-.519.519-1.339v-8.28zm-4.836-1.175l2.35-4.455h3.717l-3.526 4.455H93.51zm20.687 1.858l-1.366 2.87q-.902-.383-1.585-.383-.93 0-1.435.505-.506.506-.506 1.38v8.445h-3.689v-13.5h3.006l.137.574q1.066-.93 2.487-.93 1.503 0 2.951 1.039zm7.68 7.488l2.76-8.171h4.017l-5.192 13.5h-3.007l-5.165-13.5h3.99l2.597 8.171zm19.047-4.072v6.86l.547 2.05-3.197.819-.274-.875q-1.175.902-2.979.902-2.104 0-3.552-1.189-1.449-1.188-1.449-3.238 0-1.913 1.216-3.033 1.217-1.12 3.703-1.257h2.05q.465-.028.465-.356v-.382q0-.574-.438-.916-.437-.341-1.093-.341-1.721 0-2.295 1.284l-3.143-1.093q1.093-3.498 5.438-3.498 1.94 0 3.471 1.189 1.53 1.188 1.53 3.074zm-3.47 5.821v-2.323q-.274.191-.684.191h-1.53q-1.886.055-1.886 1.64 0 .629.56.984t1.19.355q1.284 0 2.35-.847zm11.095.465l.027 3.115q-2.268 0-3.361-.847-1.093-.847-1.093-3.034V6.515h3.525v15.14q0 .464.205.642t.697.178zm21.18-1.012q0 2.05-1.627 3.225-1.626 1.175-3.757 1.175-4.728 0-5.603-3.716l3.225-.875q.52 1.285 2.323 1.285 1.75 0 1.75-.93 0-.519-.739-.874-.738-.355-1.803-.629-1.066-.273-2.118-.67-1.053-.395-1.79-1.284-.738-.888-.738-2.2 0-2.022 1.434-3.088 1.435-1.065 3.54-1.065 1.912 0 3.06.587 1.148.588 2.16 2.118l-2.843 1.585q-.792-1.066-2.022-1.066-1.585 0-1.585.93 0 .464.738.751.737.287 1.776.547 1.038.26 2.09.642 1.053.382 1.79 1.284.738.902.738 2.268zm12.516-7.706q1.503 1.913 1.503 5.11 0 3.198-1.503 5.097-1.503 1.9-4.619 1.9-3.115 0-4.618-1.9-1.503-1.9-1.503-5.097 0-3.197 1.503-5.11 1.503-1.913 4.618-1.913 3.116 0 4.619 1.913zm-2.76 7.57q.492-.93.492-2.46 0-1.53-.492-2.473-.492-.943-1.859-.943-1.393 0-1.872.93-.478.929-.478 2.486 0 1.558.478 2.473.479.916 1.872.916 1.367 0 1.859-.93zm-4.892-10.412l2.35-4.455h3.717l-3.526 4.455h-2.541zm16.178 11.56l.028 3.115q-2.269 0-3.362-.847t-1.093-3.034V6.515h3.525v15.14q0 .464.205.642t.697.178zm12.844-6.286v6.86l.547 2.05-3.197.819-.274-.875q-1.175.902-2.978.902-2.105 0-3.553-1.189-1.449-1.188-1.449-3.238 0-1.913 1.217-3.033 1.216-1.12 3.703-1.257h2.05q.464-.028.464-.356v-.382q0-.574-.437-.916-.438-.341-1.094-.341-1.721 0-2.295 1.284l-3.143-1.093q1.093-3.498 5.438-3.498 1.94 0 3.471 1.189 1.53 1.188 1.53 3.074zm-3.47 5.821v-2.323q-.273.191-.683.191h-1.53q-1.886.055-1.886 1.64 0 .629.56.984t1.189.355q1.284 0 2.35-.847zm15.386-9.237l-1.367 2.87q-.902-.383-1.585-.383-.929 0-1.435.505-.505.506-.505 1.38v8.445h-3.69v-13.5h3.007l.136.574q1.066-.93 2.487-.93 1.503 0 2.952 1.039zm8.881-6.258V9.52q-1.175 0-1.667.355t-.492 1.476v.738h1.886v3.115h-1.886V25.59h-3.58V15.205h-1.093V12.09h1.093v-1.722q0-.956.192-1.64.191-.683.642-1.093.45-.41.86-.656.41-.246 1.23-.341.82-.096 1.299-.11.478-.013 1.516-.013zm13.419 12.052v1.175h-7.816q.109 1.175.779 1.913.669.738 1.844.738 1.53 0 2.76-1.285l2.296 2.268q-2.46 2.46-5.083 2.46-2.979 0-4.7-1.981-1.722-1.982-1.722-4.988 0-3.033 1.667-5.015 1.667-1.98 4.618-1.98 2.46 0 3.908 1.844 1.449 1.845 1.449 4.85zm-7.789-1.148h4.345q-.3-2.104-2.077-2.104-1.913 0-2.268 2.104zm19.102-4.646l-1.366 2.87q-.902-.383-1.585-.383-.93 0-1.435.505-.505.506-.505 1.38v8.445h-3.69v-13.5h3.006l.137.574q1.066-.93 2.487-.93 1.503 0 2.951 1.039zm14.594 5.958q0 3.279-1.462 5.178-1.462 1.9-4.468 1.9-3.116 0-4.537-1.982-1.421-1.981-1.421-5.096 0-3.225 1.448-5.097 1.449-1.872 4.482-1.872.383 0 .52.027l-.247-.574h-3.279V8.291h1.968l-1.421-3.17h3.388l1.421 3.17h2.515v2.924h-1.175l1.42 2.924q.848 1.558.848 4.592zm-3.198.027q0-1.886-.574-2.897-.573-1.011-2.186-1.011-.874 0-1.448.328t-.847.93q-.274.6-.356 1.202-.082.6-.082 1.448 0 1.858.574 2.87.574 1.01 2.16 1.01.874 0 1.461-.314.588-.314.847-.915.26-.601.356-1.203.095-.6.095-1.448zm17.08-2.569v6.86l.547 2.05-3.197.819-.274-.875q-1.175.902-2.978.902-2.105 0-3.553-1.189-1.448-1.188-1.448-3.238 0-1.913 1.216-3.033 1.216-1.12 3.703-1.257h2.05q.464-.028.464-.356v-.382q0-.574-.437-.916-.438-.341-1.094-.341-1.721 0-2.295 1.284l-3.143-1.093q1.093-3.498 5.438-3.498 1.94 0 3.471 1.189 1.53 1.188 1.53 3.074zm-3.47 5.821v-2.323q-.273.191-.683.191h-1.53q-1.886.055-1.886 1.64 0 .629.56.984t1.189.355q1.284 0 2.35-.847z" fill="#fff"/></svg>