<svg width="101.096" height="19" viewBox="0 0 101.096 19" xmlns="http://www.w3.org/2000/svg"><path d="M9.133 9.618q0 1.463-.898 2.147-.897.685-2.413.685H2.206V3.17h3.403q1.436 0 2.32.671.885.672.885 2.068 0 1.023-.665 1.662.984.651.984 2.047zm-2.18-3.696q0-.572-.34-.758-.339-.186-.977-.186H4.107v1.941h1.529q.638 0 .977-.2.34-.199.34-.797zm-.087 4.534q.365-.2.365-.825t-.365-.83q-.366-.207-1.044-.207H4.107v2.061h1.715q.678 0 1.044-.2zM17.74 6.022q.22.83.22 1.788 0 .957-.22 1.788-.219.831-.664 1.51-.446.677-1.217 1.063-.771.385-1.781.385-1.01 0-1.782-.385-.771-.386-1.217-1.064-.445-.678-.664-1.509-.22-.83-.22-1.788 0-.957.22-1.788.22-.831.664-1.51.446-.677 1.217-1.063.771-.386 1.782-.386 1.01 0 1.781.386.771.386 1.217 1.064.445.678.664 1.509zm-3.662 4.66q1.967 0 1.967-2.872T14.08 4.938q-1.968 0-1.968 2.872t1.968 2.872zm-1.476-8.31L13.746.205h1.808L13.84 2.372h-1.236zm11.806.798h2.087l-2.911 4.587 3.257 4.693H24.61l-3.072-4.693L24.41 3.17zm-3.084 0v9.28h-1.902V3.17h1.902zm9.173 0h1.649l3.59 9.28h-2.061l-.838-2.327H29.82l-.837 2.327h-2.048l3.563-9.28zm.825 2.805l-.891 2.486h1.795l-.904-2.486zm12.258-.093q.093.678.093 1.928t-.093 1.928q-.093.691-.372 1.203-.28.512-.638.798-.36.286-.878.452-.518.166-.977.212-.459.047-1.044.047h-3.044V8.515h-.492v-1.37h.492V3.17h3.044q.585 0 1.044.046.459.047.977.213.519.166.878.452.359.286.638.798t.372 1.203zm-1.875 3.43q.067-.465.067-1.502t-.067-1.516q-.053-.359-.18-.598-.125-.24-.272-.372-.146-.133-.438-.193-.293-.06-.512-.073-.22-.014-.632-.014H38.53v2.101h1.622v1.37h-1.622v2.06h1.143q1.064 0 1.496-.219.432-.22.538-1.044zm8.642-6.142h1.902v5.45q0 1.862-.865 2.9-.864 1.036-2.685 1.036-1.835 0-2.7-1.037-.863-1.037-.863-2.898V3.17h1.9v5.345q0 .491.06.85.06.36.233.685.173.326.512.492.34.166.844.166 1.01 0 1.337-.551.325-.552.325-1.642V3.17zm12.83 0h1.902v9.28h-1.902V8.581h-3.31v3.869h-1.901V3.17h1.9v3.616h3.311V3.17zm5.664 7.405h4.468v1.875H66.94V3.17h6.369v1.874h-4.468v1.742h3.896v1.795h-3.896v1.994zm-.332-8.203L69.653.205h1.808l-1.715 2.167H68.51zm13.016 3.616q0 .865-.485 1.55-.485.684-1.31.963.107.093.373.492l2.207 3.457h-2.207l-1.862-3.111q-.226-.386-.392-.505-.166-.12-.578-.12h-.466v3.736h-1.901V3.17h3.404q1.436 0 2.326.711.891.711.891 2.107zm-1.901.014q0-.572-.346-.785-.345-.212-.957-.212h-1.516v2.034h1.516q.625 0 .964-.226.339-.226.339-.811zm8.562-2.832h1.901v9.28H88.56l-3.39-5.292v5.292h-1.901V3.17h1.542l3.377 5.291V3.17zm6.395 0h1.649l3.59 9.28H97.76l-.838-2.327h-3.018l-.837 2.327h-2.048l3.563-9.28zm.825 2.805l-.891 2.486h1.795l-.904-2.486z" fill="#fff"/></svg>