<svg width="59.431" height="48" viewBox="0 0 59.431 48" xmlns="http://www.w3.org/2000/svg"><path d="M18.71 24.623q0 3.344-2.235 5.477-2.235 2.133-5.58 2.133-6.04 0-7.917-5.562l4.368-1.843q.342 1.228 1.246 1.996.904.768 2.167.768 1.33 0 2.252-.819.921-.819.921-2.15 0-1.877-1.245-2.508-1.246-.631-3.327-.597V17.73q3.992.068 3.992-2.73 0-1.058-.87-1.74-.87-.683-1.962-.683-2.184 0-3.037 2.457l-4.266-1.911Q5.3 7.902 10.691 7.902q3.105 0 5.272 1.996Q18.13 11.895 18.13 15q0 2.662-2.082 4.47 1.16.785 1.911 2.235.751 1.45.751 2.918zm13.036-4.095h5.46v4.163h-5.46v5.46h-4.164v-5.46h-5.46v-4.163h5.46v-5.46h4.164v5.46zm14.776 6.825h9.589v4.607H41.028v-3.037q0-2.286 1.023-4.266 1.024-1.979 2.492-3.31 1.467-1.33 2.917-2.44 1.45-1.109 2.474-2.116 1.024-1.006 1.024-1.86 0-1.125-.853-1.774-.853-.648-1.98-.648-2.08 0-3.412 2.832l-4.095-2.423q1.297-2.525 3.054-3.805 1.758-1.28 4.42-1.28 3.344 0 5.528 1.895 2.184 1.893 2.184 5.204 0 1.774-.836 3.224-.836 1.45-2.099 2.492-1.263 1.04-2.56 1.996-1.296.955-2.388 2.167-1.092 1.211-1.4 2.542z" fill="#fff"/></svg>