<svg width="303.875" height="39" viewBox="0 0 303.875 39" xmlns="http://www.w3.org/2000/svg"><path d="M49.17 19.742q0 2.815-2.132 4.468t-5.028 1.653q-6.231 0-7.707-5.793l3.69-.738q.792 2.815 4.017 2.815 1.23 0 2.24-.629 1.012-.628 1.012-1.776 0-.793-.766-1.312-.765-.52-1.913-.752-1.147-.232-2.5-.628t-2.5-.902q-1.148-.506-1.914-1.626-.765-1.12-.765-2.733 0-2.596 1.954-4.044 1.954-1.449 4.632-1.449 2.596 0 4.304 1.039 1.709 1.038 2.829 3.334l-3.361 1.557q-.684-1.23-1.53-1.762-.848-.533-2.242-.533-.984 0-1.83.464-.848.465-.848 1.394 0 .656.765 1.107.765.45 1.913.683 1.148.232 2.5.656 1.354.424 2.501.984 1.148.56 1.913 1.722.766 1.161.766 2.8zm12.653-5.985q1.503 1.913 1.503 5.11 0 3.198-1.503 5.097-1.504 1.9-4.619 1.9-3.115 0-4.618-1.9-1.503-1.9-1.503-5.097 0-3.197 1.503-5.11 1.503-1.913 4.618-1.913t4.619 1.913zm-2.76 7.57q.491-.93.491-2.46 0-1.53-.492-2.473-.492-.943-1.858-.943-1.394 0-1.872.93-.478.929-.478 2.486 0 1.558.478 2.473.478.916 1.872.916 1.366 0 1.858-.93zM54.17 10.915l2.35-4.455h3.717l-3.526 4.455h-2.541zm16.178 11.56l.027 3.115q-2.268 0-3.361-.847-1.093-.847-1.093-3.034V6.515h3.525v15.14q0 .464.205.642t.697.178zm12.844-6.286v6.86l.547 2.05-3.198.819-.273-.875q-1.175.902-2.979.902-2.104 0-3.552-1.189-1.449-1.188-1.449-3.238 0-1.913 1.216-3.033 1.217-1.12 3.703-1.257h2.05q.465-.028.465-.356v-.382q0-.574-.438-.916-.437-.341-1.093-.341-1.721 0-2.295 1.284l-3.143-1.093q1.093-3.498 5.438-3.498 1.94 0 3.47 1.189 1.531 1.188 1.531 3.074zm-3.47 5.821v-2.323q-.274.191-.684.191h-1.53q-1.886.055-1.886 1.64 0 .629.56.984t1.19.355q1.284 0 2.35-.847zm15.385-9.237l-1.366 2.87q-.902-.383-1.585-.383-.93 0-1.435.505-.505.506-.505 1.38v8.445h-3.69v-13.5h3.006l.137.574q1.066-.93 2.487-.93 1.503 0 2.951 1.039zm13.747 6.176q0 3.088-1.38 5.015-1.38 1.927-4.36 1.927-1.038 0-1.83-.52v6.231h-3.717V12.09h3.033l.137.546q1.12-.847 2.405-.847 2.022 0 3.348 1.039 1.325 1.038 1.844 2.582.52 1.544.52 3.54zm-3.772 1.162q.055-.451.055-1.162 0-.71-.055-1.161-.054-.451-.232-1.025-.178-.574-.615-.875-.437-.3-1.12-.3-.82 0-1.326.464-.505.465-.505 1.258v3.252q0 .82.492 1.27.491.451 1.339.451.683 0 1.12-.287.437-.287.615-.86.178-.574.232-1.025zm16.589-3.922v6.86l.546 2.05-3.197.819-.274-.875q-1.175.902-2.978.902-2.105 0-3.553-1.189-1.448-1.188-1.448-3.238 0-1.913 1.216-3.033 1.216-1.12 3.703-1.257h2.05q.464-.028.464-.356v-.382q0-.574-.437-.916-.438-.341-1.094-.341-1.721 0-2.295 1.284l-3.143-1.093q1.093-3.498 5.438-3.498 1.94 0 3.471 1.189 1.53 1.188 1.53 3.074zM118.2 22.01v-2.323q-.273.191-.683.191h-1.53q-1.886.055-1.886 1.64 0 .629.56.984t1.189.355q1.284 0 2.35-.847zm17.709-9.92l-3.608 6.012 4.4 7.488h-3.962l-4.154-7.488 3.47-6.012h3.854zm-11.041-5.575h3.58V25.59h-3.58V6.515zm24.377 5.575l-3.608 6.012 4.4 7.488h-3.962l-4.154-7.488 3.47-6.012h3.854zm-11.04-5.575h3.58V25.59h-3.58V6.515zm23.556 9.674v6.86l.547 2.05-3.198.819-.273-.875q-1.175.902-2.979.902-2.104 0-3.552-1.189-1.449-1.188-1.449-3.238 0-1.913 1.216-3.033 1.216-1.12 3.703-1.257h2.05q.464-.028.464-.356v-.382q0-.574-.437-.916-.437-.341-1.093-.341-1.722 0-2.295 1.284l-3.143-1.093q1.093-3.498 5.438-3.498 1.94 0 3.47 1.189 1.531 1.188 1.531 3.074zm-3.47 5.821v-2.323q-.274.191-.684.191h-1.53q-1.886.055-1.886 1.64 0 .629.56.984t1.19.355q1.284 0 2.35-.847zm15.385-9.237l-1.366 2.87q-.902-.383-1.585-.383-.93 0-1.435.505-.505.506-.505 1.38v8.445h-3.69v-13.5h3.006l.137.574q1.066-.93 2.487-.93 1.503 0 2.951 1.039zm9.975-.683h3.608v13.5h-3.608v-13.5zm1.066-1.175l2.35-4.455h3.717l-3.525 4.455h-2.542zm24.377 10.548q0 2.05-1.626 3.225-1.626 1.175-3.758 1.175-4.728 0-5.602-3.716l3.225-.875q.519 1.285 2.322 1.285 1.75 0 1.75-.93 0-.519-.738-.874t-1.804-.629q-1.066-.273-2.118-.67-1.052-.395-1.79-1.284-.738-.888-.738-2.2 0-2.022 1.435-3.088 1.435-1.065 3.539-1.065 1.913 0 3.06.587 1.148.588 2.16 2.118l-2.843 1.585q-.792-1.066-2.022-1.066-1.585 0-1.585.93 0 .464.738.751t1.776.547q1.039.26 2.091.642 1.052.382 1.79 1.284t.738 2.268zm9.893-9.373h3.716v13.5h-3.033l-.137-.574q-1.175.82-2.46.82-2.787 0-4.222-1.558-1.434-1.557-1.434-4.345V12.09h3.716v7.597q0 1.257.41 1.9.41.642 1.613.642.792 0 1.311-.52.52-.519.52-1.339v-8.28zm25.661 5.903v7.597h-3.744v-7.597q0-1.23-.369-1.872-.369-.642-1.517-.642-.492 0-.847.218-.355.219-.52.478-.163.26-.245.78-.082.518-.096.792-.013.273-.013.847v6.996h-3.744v-7.597q0-1.203-.37-1.859-.368-.655-1.489-.655-.765 0-1.23.505-.464.506-.464 1.27v8.336h-3.744v-13.5h3.06l.137.546q1.094-.847 2.241-.847 1.257 0 2.091.287.833.287 1.845 1.08 1.557-1.367 3.388-1.367 2.788 0 4.209 1.695 1.421 1.694 1.421 4.509zm13.363-1.804v6.86l.547 2.05-3.197.819-.274-.875q-1.175.902-2.978.902-2.105 0-3.553-1.189-1.448-1.188-1.448-3.238 0-1.913 1.216-3.033 1.216-1.12 3.703-1.257h2.05q.464-.028.464-.356v-.382q0-.574-.437-.916-.438-.341-1.094-.341-1.721 0-2.295 1.284l-3.143-1.093q1.093-3.498 5.438-3.498 1.94 0 3.471 1.189 1.53 1.188 1.53 3.074zm-3.47 5.821v-2.323q-.273.191-.683.191h-1.53q-1.886.055-1.886 1.64 0 .629.56.984t1.189.355q1.284 0 2.35-.847zm15.386-9.237l-1.367 2.87q-.902-.383-1.585-.383-.929 0-1.435.505-.505.506-.505 1.38v8.445h-3.69v-13.5h3.007l.136.574q1.066-.93 2.487-.93 1.503 0 2.952 1.039z" fill="#fff"/></svg>