<svg width="489.125" height="79" viewBox="0 0 489.125 79" xmlns="http://www.w3.org/2000/svg"><path d="M108.153 47.51c1.348 4.1 4.437 6.345 9.491 6.345 6.121 0 9.716-3.257 10.053-9.659 0-.337-.113-.618-.506-.674l-5.896-1.01c-.337-.057-.618.112-.618.505-.113 3.032-1.067 4.212-2.92 4.212-1.348 0-2.134-.562-2.528-1.741-.224-.843-.337-1.516-.337-11.232 0-9.715.113-10.39.337-11.232.394-1.179 1.18-1.74 2.528-1.74 1.853 0 2.807 1.179 2.92 4.211 0 .393.28.562.618.506l5.896-1.011c.393-.056.506-.337.506-.674-.337-6.402-3.932-9.66-10.053-9.66-5.054 0-8.143 2.247-9.49 6.347-.506 1.628-.73 3.37-.73 13.253 0 9.884.224 11.625.73 13.254zm33.022 6.345c4.998 0 8.367-2.246 9.771-6.458.618-1.74.786-3.313.786-13.14 0-9.829-.168-11.401-.786-13.142-1.404-4.212-4.773-6.458-9.771-6.458-4.998 0-8.368 2.246-9.772 6.458-.618 1.74-.786 3.313-.786 13.141s.168 11.4.786 13.141c1.404 4.212 4.774 6.458 9.772 6.458zm0-6.626c-1.404 0-2.359-.786-2.696-1.854-.28-.898-.393-1.853-.393-11.119s.112-10.22.393-11.12c.337-1.066 1.292-1.853 2.696-1.853 1.404 0 2.358.787 2.695 1.854.281.898.393 1.853.393 11.12 0 9.265-.112 10.22-.393 11.118-.337 1.068-1.291 1.854-2.695 1.854zm34.93-5.223c0-6.458-2.021-9.266-7.244-11.288l-2.303-.898c-2.976-1.18-3.594-2.078-3.594-4.942 0-2.584.955-3.82 2.92-3.82 2.022 0 2.977 1.405 3.033 4.157 0 .337.28.505.618.449l5.728-.899c.337-.056.505-.28.505-.617-.28-6.01-3.425-9.491-10.108-9.491-6.795 0-10.109 3.706-10.109 10.614 0 6.121 1.853 8.985 7.245 11.063l2.302.899c2.864 1.123 3.538 2.302 3.538 5.672 0 3.481-.955 4.548-3.032 4.548-2.19 0-3.201-1.404-3.314-4.942 0-.337-.224-.505-.617-.449l-6.01.955c-.336.056-.449.28-.449.618.113 6.57 3.426 10.22 10.333 10.22 7.582 0 10.558-4.043 10.558-11.849zm15.22 11.344c.336 0 .56-.225.56-.562V22.126c0-.225.113-.337.338-.337h6.009c.337 0 .561-.225.561-.562v-5.503c0-.337-.224-.562-.561-.562h-20.049c-.337 0-.561.225-.561.562v5.503c0 .337.224.562.561.562h6.01c.224 0 .336.112.336.337v30.662c0 .337.225.562.562.562zm5.952-.562c-.056.337.112.562.45.562h6.233c.393 0 .561-.225.618-.562l1.291-6.907h7.245l1.235 6.907c.056.337.225.562.618.562h6.234c.337 0 .505-.225.449-.562l-8.2-37.064c-.055-.337-.28-.562-.617-.562h-6.627c-.337 0-.505.225-.618.562zm9.66-12.748l2.526-13.253h.169l2.415 13.253zm28.752 12.748c0 .337.225.562.562.562h9.66c5.278 0 8.367-2.022 9.77-6.346.675-2.134 1.012-4.717 1.012-12.748 0-8.03-.337-10.614-1.011-12.748-1.404-4.324-4.493-6.346-9.772-6.346h-9.659c-.337 0-.562.225-.562.562zm7.357-6.402v-24.26c0-.225.113-.337.337-.337h1.797c1.853 0 2.864.674 3.426 2.359.45 1.179.618 2.807.618 10.108 0 7.3-.169 8.93-.618 10.109-.562 1.684-1.573 2.358-3.426 2.358h-1.797c-.224 0-.337-.112-.337-.337zm18.252 6.402c0 .337.224.562.561.562h16.68c.336 0 .561-.225.561-.562v-5.503c0-.337-.225-.562-.562-.562h-9.547c-.224 0-.336-.112-.336-.337v-8.648c0-.225.112-.337.336-.337h8.256c.337 0 .561-.225.561-.562v-5.503c0-.337-.224-.562-.561-.562h-8.256c-.224 0-.336-.112-.336-.337v-8.311c0-.225.112-.337.336-.337h9.547c.337 0 .562-.225.562-.562v-5.503c0-.337-.225-.562-.562-.562H261.86c-.337 0-.561.225-.561.562zm21.902 0c0 .337.224.562.561.562h16.792c.337 0 .561-.225.561-.562v-5.503c0-.337-.224-.562-.561-.562h-9.66c-.224 0-.337-.112-.337-.337V15.724c0-.337-.224-.562-.561-.562h-6.234c-.337 0-.561.225-.561.562zm52.34-10.782c0-6.458-2.022-9.266-7.245-11.288l-2.303-.898c-2.976-1.18-3.594-2.078-3.594-4.942 0-2.584.955-3.82 2.92-3.82 2.022 0 2.977 1.405 3.033 4.157 0 .337.28.505.618.449l5.728-.899c.337-.056.505-.28.505-.617-.28-6.01-3.425-9.491-10.108-9.491-6.795 0-10.109 3.706-10.109 10.614 0 6.121 1.854 8.985 7.245 11.063l2.302.899c2.864 1.123 3.538 2.302 3.538 5.672 0 3.481-.954 4.548-3.032 4.548-2.19 0-3.201-1.404-3.314-4.942 0-.337-.224-.505-.617-.449l-6.01.955c-.336.056-.449.28-.449.618.113 6.57 3.426 10.22 10.334 10.22 7.58 0 10.557-4.043 10.557-11.849zm13.983 11.85c4.998 0 8.367-2.247 9.771-6.459.618-1.74.787-3.313.787-13.14 0-9.829-.169-11.401-.787-13.142-1.404-4.212-4.773-6.458-9.771-6.458-4.998 0-8.368 2.246-9.772 6.458-.618 1.74-.786 3.313-.786 13.141s.168 11.4.786 13.141c1.404 4.212 4.774 6.458 9.772 6.458zm0-6.627c-1.404 0-2.359-.786-2.696-1.854-.28-.898-.393-1.853-.393-11.119s.112-10.22.393-11.12c.337-1.066 1.292-1.853 2.696-1.853 1.404 0 2.358.787 2.695 1.854.281.898.394 1.853.394 11.12 0 9.265-.113 10.22-.394 11.118-.337 1.068-1.291 1.854-2.695 1.854zm15.163 5.56c0 .336.224.561.561.561h16.792c.337 0 .561-.225.561-.562v-5.503c0-.337-.224-.562-.561-.562h-9.66c-.224 0-.337-.112-.337-.337V15.724c0-.337-.224-.562-.561-.562h-6.234c-.337 0-.561.225-.561.562z" fill="#fff"/></svg>