<svg width="449.457" height="64" viewBox="0 0 449.457 64" xmlns="http://www.w3.org/2000/svg"><path d="M108.684 42.864c0 .274.182.456.456.456h2.781c.274 0 .456-.182.456-.456v-13.04c0-.183.091-.274.274-.274h7.113c.274 0 .456-.183.456-.456v-2.508c0-.274-.182-.456-.456-.456h-7.113c-.183 0-.274-.091-.274-.274v-9.849c0-.182.091-.273.274-.273h8.207c.274 0 .456-.183.456-.456V12.77c0-.274-.182-.456-.456-.456H109.14c-.274 0-.456.182-.456.456zm16.597 0c0 .274.183.456.456.456h11.628c.273 0 .455-.182.455-.456v-2.508c0-.273-.182-.456-.455-.456h-8.117c-.182 0-.273-.091-.273-.273V12.77c0-.274-.183-.456-.456-.456h-2.782c-.273 0-.456.182-.456.456zm22.708.866c4.423 0 7.25-2.69 7.25-8.025V12.77c0-.274-.183-.456-.456-.456H152c-.273 0-.456.182-.456.456V36.16c0 2.69-1.368 4.104-3.556 4.104-2.189 0-3.557-1.414-3.557-4.104V12.77c0-.274-.182-.456-.456-.456h-2.781c-.274 0-.456.182-.456.456v22.935c0 5.335 2.827 8.025 7.25 8.025zm12.767-4.605c.957 2.964 3.283 4.605 6.794 4.605 3.51 0 5.882-1.641 6.794-4.605.456-1.368.593-2.508.593-10.806v-1.323c0-.273-.183-.456-.456-.456h-6.43c-.273 0-.456.183-.456.456v2.417c0 .273.183.456.456.456h3.055c.183 0 .274.091.274.273 0 6.338-.137 7.068-.41 7.934-.456 1.414-1.688 2.189-3.329 2.189-1.642 0-2.873-.775-3.329-2.189-.319-.912-.41-1.596-.41-10.259s.091-9.347.41-10.26c.456-1.413 1.642-2.188 3.283-2.188 2.235 0 3.42 1.413 3.74 3.967.045.274.227.41.547.365l2.553-.502c.274-.045.365-.273.32-.547-.502-4.332-2.92-6.748-7.205-6.748-3.511 0-5.837 1.641-6.794 4.605-.456 1.368-.593 2.508-.593 11.308s.137 9.94.593 11.308zm34.471 4.605c3.511 0 5.882-1.641 6.794-4.605.456-1.368.593-2.508.593-11.308s-.137-9.94-.593-11.308c-.912-2.964-3.283-4.605-6.794-4.605-3.51 0-5.836 1.641-6.794 4.605-.456 1.368-.593 2.508-.593 11.308s.137 9.94.593 11.308c.958 2.964 3.283 4.605 6.794 4.605zm0-3.465c-1.641 0-2.781-.775-3.237-2.189-.32-.912-.41-1.596-.41-10.259s.09-9.347.41-10.26c.456-1.413 1.596-2.188 3.237-2.188 1.642 0 2.827.775 3.283 2.189.274.912.365 1.596.365 10.259s-.091 9.347-.365 10.26c-.456 1.413-1.641 2.188-3.283 2.188zm12.448-1.14c.958 2.964 3.283 4.605 6.794 4.605 3.511 0 5.882-1.641 6.794-4.605.456-1.368.593-2.508.593-10.806v-1.323c0-.273-.182-.456-.456-.456h-6.43c-.273 0-.455.183-.455.456v2.417c0 .273.182.456.456.456h3.055c.182 0 .273.091.273.273 0 6.338-.136 7.068-.41 7.934-.456 1.414-1.687 2.189-3.329 2.189-1.641 0-2.872-.775-3.328-2.189-.32-.912-.41-1.596-.41-10.259s.09-9.347.41-10.26c.456-1.413 1.641-2.188 3.283-2.188 2.234 0 3.42 1.413 3.739 3.967.045.274.228.41.547.365l2.553-.502c.274-.045.365-.273.32-.547-.502-4.332-2.919-6.748-7.205-6.748-3.51 0-5.836 1.641-6.794 4.605-.456 1.368-.593 2.508-.593 11.308s.137 9.94.593 11.308zm27.678 0c.957 2.964 3.283 4.605 6.794 4.605 3.51 0 5.882-1.641 6.794-4.605.456-1.368.592-2.508.592-10.806v-1.323c0-.273-.182-.456-.456-.456h-6.429c-.273 0-.456.183-.456.456v2.417c0 .273.183.456.456.456h3.055c.183 0 .274.091.274.273 0 6.338-.137 7.068-.41 7.934-.457 1.414-1.688 2.189-3.33 2.189-1.64 0-2.872-.775-3.328-2.189-.319-.912-.41-1.596-.41-10.259s.091-9.347.41-10.26c.456-1.413 1.642-2.188 3.283-2.188 2.234 0 3.42 1.413 3.74 3.967.045.274.227.41.546.365l2.554-.502c.273-.045.365-.273.319-.547-.502-4.332-2.918-6.748-7.204-6.748-3.511 0-5.837 1.641-6.794 4.605-.456 1.368-.593 2.508-.593 11.308s.137 9.94.593 11.308zm18.922 3.739c0 .274.183.456.456.456h2.782c.273 0 .456-.182.456-.456V12.77c0-.274-.183-.456-.456-.456h-2.782c-.273 0-.456.182-.456.456zm22.571-8.299c0-5.152-1.413-7.204-5.38-8.8l-1.87-.73c-2.508-.957-3.237-2.051-3.237-5.243 0-3.146 1.094-4.514 3.374-4.514 2.37 0 3.374 1.504 3.465 4.56 0 .273.228.455.502.364l2.553-.41c.274-.046.41-.228.41-.502-.227-4.833-2.37-7.386-7.021-7.386s-6.931 2.735-6.931 8.025c0 4.787 1.185 6.885 5.426 8.526l1.87.73c2.462.957 3.146 2.28 3.146 5.836 0 4.195-1.095 5.335-3.466 5.335-2.37 0-3.602-1.368-3.784-5.198 0-.273-.183-.456-.502-.41l-2.69.501c-.274.046-.365.228-.365.502.228 5.335 2.6 7.98 7.296 7.98 5.243 0 7.204-2.919 7.204-9.166zm10.989 8.755c.273 0 .456-.182.456-.456V16.007c0-.182.091-.273.273-.273h5.107c.274 0 .456-.183.456-.456V12.77c0-.274-.182-.456-.456-.456h-14.454c-.274 0-.456.182-.456.456v2.508c0 .273.182.456.456.456h5.107c.182 0 .274.091.274.273v26.857c0 .274.182.456.455.456zm9.758-.456c0 .274.182.456.456.456h2.781c.274 0 .456-.182.456-.456V12.77c0-.274-.182-.456-.456-.456h-2.781c-.274 0-.456.182-.456.456zm9.165 0c0 .274.182.456.456.456h2.416c.274 0 .456-.182.456-.456V19.61h.228l7.068 23.254c.091.32.319.456.684.456h3.237c.274 0 .456-.182.456-.456V12.77c0-.274-.182-.456-.456-.456h-2.416c-.274 0-.456.182-.456.456v23.254h-.183l-6.93-23.254c-.092-.32-.32-.456-.685-.456h-3.42c-.273 0-.455.182-.455.456zm20.564-3.739c.958 2.964 3.283 4.605 6.794 4.605 3.51 0 5.882-1.641 6.794-4.605.456-1.368.593-2.508.593-10.806v-1.323c0-.273-.183-.456-.456-.456h-6.43c-.273 0-.455.183-.455.456v2.417c0 .273.182.456.456.456h3.055c.182 0 .273.091.273.273 0 6.338-.137 7.068-.41 7.934-.456 1.414-1.687 2.189-3.329 2.189-1.641 0-2.872-.775-3.328-2.189-.32-.912-.41-1.596-.41-10.259s.09-9.347.41-10.26c.456-1.413 1.641-2.188 3.283-2.188 2.234 0 3.42 1.413 3.739 3.967.045.274.228.41.547.365l2.553-.502c.274-.045.365-.273.32-.547-.502-4.332-2.919-6.748-7.205-6.748-3.511 0-5.836 1.641-6.794 4.605-.456 1.368-.593 2.508-.593 11.308s.137 9.94.593 11.308z" fill="#fff"/></svg>