<svg width="172.754" height="21" viewBox="0 0 172.754 21" xmlns="http://www.w3.org/2000/svg"><path d="M29.97 10.84q0 1.545-1.17 2.453-1.17.907-2.76.907-3.42 0-4.23-3.18l2.025-.405q.435 1.545 2.205 1.545.675 0 1.23-.345.555-.345.555-.975 0-.435-.42-.72t-1.05-.412q-.63-.128-1.373-.345-.742-.218-1.372-.495-.63-.278-1.05-.893-.42-.615-.42-1.5 0-1.425 1.072-2.22 1.073-.795 2.543-.795 1.425 0 2.362.57.938.57 1.553 1.83l-1.845.855q-.375-.675-.84-.968-.465-.292-1.23-.292-.54 0-1.005.255-.465.255-.465.765 0 .36.42.607.42.248 1.05.375.63.128 1.372.36.743.233 1.373.54.63.308 1.05.946.42.637.42 1.537zm6.945-3.285q.825 1.05.825 2.805 0 1.755-.825 2.798Q36.09 14.2 34.38 14.2q-1.71 0-2.535-1.042-.825-1.043-.825-2.798 0-1.755.825-2.805.825-1.05 2.535-1.05 1.71 0 2.535 1.05zM35.4 11.71q.27-.51.27-1.35 0-.84-.27-1.357-.27-.518-1.02-.518-.765 0-1.028.51-.262.51-.262 1.365t.262 1.357q.263.503 1.028.503.75 0 1.02-.51zm-2.685-5.715l1.29-2.445h2.04L34.11 5.995h-1.395zm8.88 6.345l.015 1.71q-1.245 0-1.845-.465-.6-.465-.6-1.665V3.58H41.1v8.31q0 .255.112.352.113.098.383.098zm7.05-3.45v3.765l.3 1.125-1.755.45-.15-.48q-.645.495-1.635.495-1.155 0-1.95-.652-.795-.653-.795-1.778 0-1.05.667-1.665.668-.615 2.033-.69h1.125q.255-.015.255-.195v-.21q0-.315-.24-.502-.24-.188-.6-.188-.945 0-1.26.705l-1.725-.6q.6-1.92 2.985-1.92 1.065 0 1.905.652.84.653.84 1.688zm-1.905 3.195V10.81q-.15.105-.375.105h-.84q-1.035.03-1.035.9 0 .345.307.54.308.195.653.195.705 0 1.29-.465zm8.445-5.07l-.75 1.575q-.495-.21-.87-.21-.51 0-.788.277-.277.278-.277.758v4.635h-2.025V6.64h1.65l.075.315q.585-.51 1.365-.51.825 0 1.62.57zm7.545 3.39q0 1.695-.758 2.753-.757 1.057-2.392 1.057-.57 0-1.005-.285v3.42h-2.04V6.64H58.2l.075.3q.615-.465 1.32-.465 1.11 0 1.837.57.728.57 1.013 1.418.285.847.285 1.942zm-2.07.638q.03-.248.03-.638t-.03-.637q-.03-.248-.128-.563-.097-.315-.337-.48-.24-.165-.615-.165-.45 0-.728.255-.277.255-.277.69v1.785q0 .45.27.698.27.247.735.247.375 0 .615-.157.24-.158.337-.473.098-.315.128-.563zm9.105-2.153v3.765l.3 1.125-1.755.45-.15-.48q-.645.495-1.635.495-1.155 0-1.95-.652-.795-.653-.795-1.778 0-1.05.667-1.665.668-.615 2.033-.69h1.125q.255-.015.255-.195v-.21q0-.315-.24-.502-.24-.188-.6-.188-.945 0-1.26.705l-1.725-.6q.6-1.92 2.985-1.92 1.065 0 1.905.652.84.653.84 1.688zm-1.905 3.195V10.81q-.15.105-.375.105h-.84q-1.035.03-1.035.9 0 .345.307.54.308.195.653.195.705 0 1.29-.465zm9.72-5.445l-1.98 3.3 2.415 4.11H75.84l-2.28-4.11 1.905-3.3h2.115zm-6.06-3.06h1.965v10.47H71.52V3.58zM84.9 6.64l-1.98 3.3 2.415 4.11H83.16l-2.28-4.11 1.905-3.3H84.9zm-6.06-3.06h1.965v10.47H78.84V3.58zm12.93 5.31v3.765l.3 1.125-1.755.45-.15-.48q-.645.495-1.635.495-1.155 0-1.95-.652-.795-.653-.795-1.778 0-1.05.667-1.665.668-.615 2.033-.69h1.125q.255-.015.255-.195v-.21q0-.315-.24-.502-.24-.188-.6-.188-.945 0-1.26.705l-1.725-.6q.6-1.92 2.985-1.92 1.065 0 1.905.652.84.653.84 1.688zm-1.905 3.195V10.81q-.15.105-.375.105h-.84q-1.035.03-1.035.9 0 .345.307.54.308.195.653.195.705 0 1.29-.465zm8.445-5.07l-.75 1.575q-.495-.21-.87-.21-.51 0-.788.277-.277.278-.277.758v4.635H93.6V6.64h1.65l.075.315q.585-.51 1.365-.51.825 0 1.62.57zm5.475-.375h1.98v7.41h-1.98V6.64zm.585-.645l1.29-2.445h2.04l-1.935 2.445h-1.395zm13.38 5.79q0 1.125-.893 1.77-.892.645-2.062.645-2.595 0-3.075-2.04l1.77-.48q.285.705 1.275.705.96 0 .96-.51 0-.285-.405-.48t-.99-.345q-.585-.15-1.163-.368-.577-.217-.982-.705-.405-.487-.405-1.207 0-1.11.787-1.695.788-.585 1.943-.585 1.05 0 1.68.322.63.323 1.185 1.163l-1.56.87q-.435-.585-1.11-.585-.87 0-.87.51 0 .255.405.412.405.158.975.3.57.143 1.147.353.578.21.983.705t.405 1.245zm5.43-5.145h2.04v7.41h-1.665l-.075-.315q-.645.45-1.35.45-1.53 0-2.318-.855-.787-.855-.787-2.385V6.64h2.04v4.17q0 .69.225 1.042.225.353.885.353.435 0 .72-.285t.285-.735V6.64zm14.085 3.24v4.17h-2.055V9.88q0-.675-.203-1.028-.202-.352-.832-.352-.27 0-.465.12t-.285.263q-.09.142-.135.427-.045.285-.053.435-.007.15-.007.465v3.84h-2.055V9.88q0-.66-.203-1.02-.202-.36-.817-.36-.42 0-.675.277-.255.278-.255.698v4.575h-2.055V6.64h1.68l.075.3q.6-.465 1.23-.465.69 0 1.147.158.458.157 1.013.592.855-.75 1.86-.75 1.53 0 2.31.93t.78 2.475zm7.335-.99v3.765l.3 1.125-1.755.45-.15-.48q-.645.495-1.635.495-1.155 0-1.95-.652-.795-.653-.795-1.778 0-1.05.667-1.665.668-.615 2.033-.69h1.125q.255-.015.255-.195v-.21q0-.315-.24-.502-.24-.188-.6-.188-.945 0-1.26.705l-1.725-.6q.6-1.92 2.985-1.92 1.065 0 1.905.652.84.653.84 1.688zm-1.905 3.195V10.81q-.15.105-.375.105h-.84q-1.035.03-1.035.9 0 .345.307.54.308.195.653.195.705 0 1.29-.465zm8.445-5.07l-.75 1.575q-.495-.21-.87-.21-.51 0-.788.277-.277.278-.277.758v4.635h-2.025V6.64h1.65l.075.315q.585-.51 1.365-.51.825 0 1.62.57z" fill="#fff"/></svg>