<svg width="168" height="42" viewBox="0 0 168 42" xmlns="http://www.w3.org/2000/svg"><path d="M40.282 3.58h2.01v10.47h-2.16V9.13l-2.01 4.92h-1.334l-1.995-4.92v4.92h-2.16V3.58h2.04l2.774 6.99 2.835-6.99zm9.42 5.31v3.765l.3 1.125-1.755.45-.15-.48q-.645.495-1.635.495-1.155 0-1.95-.652-.794-.653-.794-1.778 0-1.05.667-1.665.668-.615 2.032-.69h1.125q.255-.015.255-.195v-.21q0-.315-.24-.502-.24-.188-.6-.188-.944 0-1.26.705l-1.725-.6q.6-1.92 2.986-1.92 1.065 0 1.904.652.84.653.84 1.688zm-1.904 3.195V10.81q-.15.105-.376.105h-.84q-1.035.03-1.035.9 0 .345.308.54.308.195.653.195.704 0 1.29-.465zm6.09.255l.015 1.71q-1.245 0-1.846-.465-.6-.465-.6-1.665V3.58h1.935v8.31q0 .255.113.352.112.098.383.098zm4.02 0l.014 1.71q-1.244 0-1.844-.465-.6-.465-.6-1.665V3.58h1.934v8.31q0 .255.113.352.113.098.383.098zm6.96-4.785q.825 1.05.825 2.805 0 1.755-.825 2.798-.825 1.042-2.535 1.042-1.71 0-2.535-1.042-.826-1.043-.826-2.798 0-1.755.825-2.805.826-1.05 2.536-1.05t2.535 1.05zm-1.515 4.155q.27-.51.27-1.35 0-.84-.27-1.357-.27-.518-1.02-.518-.765 0-1.028.51t-.263 1.365q0 .855.263 1.357.263.503 1.028.503.75 0 1.02-.51zm8.55-4.695l-.75 1.575q-.496-.21-.87-.21-.51 0-.788.277-.278.278-.278.758v4.635h-2.025V6.64h1.65l.076.315q.584-.51 1.364-.51.826 0 1.62.57zm6.914 1.02l-1.47 1.35q-.794-.915-1.47-.915-1.454 0-1.454 1.89t1.454 1.89q.3 0 .586-.158.285-.157.457-.315.172-.157.427-.442l1.47 1.35q-.75.795-1.38 1.147-.63.353-1.56.353-1.634 0-2.58-1.088-.944-1.087-.944-2.737 0-1.665.945-2.752.945-1.088 2.58-1.088.93 0 1.575.368.644.367 1.364 1.147zm6.886.855v3.765l.3 1.125-1.755.45-.15-.48q-.645.495-1.635.495-1.155 0-1.95-.652-.796-.653-.796-1.778 0-1.05.668-1.665.667-.615 2.032-.69h1.126q.254-.015.254-.195v-.21q0-.315-.24-.502-.24-.188-.6-.188-.944 0-1.26.705l-1.725-.6q.6-1.92 2.986-1.92 1.064 0 1.904.652.84.653.84 1.688zm-1.906 3.195V10.81q-.15.105-.374.105h-.84q-1.035.03-1.035.9 0 .345.307.54.307.195.652.195.706 0 1.29-.465zm6.406.825v1.125l-1.59 2.505h-1.005v-3.63q0-.54.382-.915.383-.375.907-.375.54 0 .923.375t.383.915zm14.025-2.07q0 1.545-1.17 2.453-1.17.907-2.76.907-3.42 0-4.23-3.18l2.025-.405q.434 1.545 2.204 1.545.675 0 1.23-.345.555-.345.555-.975 0-.435-.42-.72t-1.05-.412q-.63-.128-1.372-.345-.742-.218-1.372-.495-.63-.278-1.05-.893-.42-.615-.42-1.5 0-1.425 1.072-2.22 1.073-.795 2.543-.795 1.424 0 2.362.57.938.57 1.552 1.83l-1.845.855q-.374-.675-.84-.968-.465-.292-1.23-.292-.54 0-1.005.255-.465.255-.465.765 0 .36.42.607.42.248 1.05.375.63.128 1.373.36.742.233 1.372.54.63.308 1.05.946.42.637.42 1.537zm7.695-.435q0 1.695-.758 2.753-.758 1.057-2.393 1.057-.57 0-1.005-.285v3.42h-2.04V6.64h1.665l.076.3q.614-.465 1.32-.465 1.11 0 1.837.57.728.57 1.013 1.418.284.847.284 1.942zm-2.07.638q.03-.248.03-.638t-.03-.637q-.03-.248-.128-.563-.097-.315-.337-.48-.24-.165-.616-.165-.45 0-.727.255-.278.255-.278.69v1.785q0 .45.27.698.27.247.735.247.375 0 .615-.157.24-.158.338-.473.098-.315.128-.563zm9.105-2.153v3.765l.3 1.125-1.755.45-.15-.48q-.645.495-1.635.495-1.156 0-1.95-.652-.796-.653-.796-1.778 0-1.05.668-1.665t2.032-.69h1.126q.254-.015.254-.195v-.21q0-.315-.24-.502-.24-.188-.6-.188-.945 0-1.26.705l-1.724-.6q.6-1.92 2.985-1.92 1.065 0 1.905.652.84.653.84 1.688zm-1.906 3.195V10.81q-.15.105-.375.105h-.84q-1.035.03-1.035.9 0 .345.308.54.308.195.653.195.704 0 1.29-.465zm-2.595-6.09l1.29-2.445h2.04l-1.934 2.445h-1.395zm12.526 3.885v4.17h-2.04V9.925q0-.69-.233-1.058-.232-.367-.877-.367-.436 0-.72.307-.285.308-.285.758v4.485h-2.04V6.64h1.665l.075.3q.57-.465 1.394-.465 3.06 0 3.06 3.405zm3.622-6.383q.338.338.338.818 0 .48-.338.817-.337.338-.817.338-.48 0-.818-.345-.338-.345-.338-.81 0-.48.338-.818.338-.337.817-.337.48 0 .818.337zm-1.822 3.143h1.995v7.41h-1.995V6.64z" fill="#fff"/></svg>