<svg width="168" height="21" viewBox="0 0 168 21" xmlns="http://www.w3.org/2000/svg"><path d="M38.347 3.58h7.05v2.115h-4.92V7.66h4.38v2.025h-4.38v4.365h-2.13V3.58zm10.605-.083q.346.338.346.818 0 .48-.346.817-.344.338-.825.338-.48 0-.817-.345-.338-.345-.338-.81 0-.48.338-.818.337-.337.817-.337.48 0 .825.337zM47.139 6.64h1.965v7.875q0 1.14-.63 1.845-.63.705-1.77.855l-.646-1.725q1.08-.255 1.08-1.17V6.64zm9.404.915q.825 1.05.825 2.805 0 1.755-.825 2.798-.825 1.042-2.535 1.042-1.71 0-2.535-1.042-.825-1.043-.825-2.798 0-1.755.825-2.805.825-1.05 2.535-1.05 1.71 0 2.535 1.05zm-1.514 4.155q.27-.51.27-1.35 0-.84-.27-1.357-.27-.518-1.02-.518-.766 0-1.028.51t-.262 1.365q0 .855.262 1.357.263.503 1.028.503.75 0 1.02-.51zm1.312-7.628q.322.323.322.788t-.322.787q-.323.323-.773.323-.465 0-.787-.323-.322-.322-.322-.787t.322-.788q.322-.322.788-.322.45 0 .772.322zm-3.105 0q.322.323.322.788t-.322.787q-.322.323-.773.323-.465 0-.787-.323-.322-.322-.322-.787t.322-.788q.323-.322.788-.322.45 0 .772.322zm7.987 8.258l.015 1.71q-1.245 0-1.845-.465-.6-.465-.6-1.665V3.58h1.935v8.31q0 .255.113.352.112.098.382.098zm7.125-.555q0 1.125-.892 1.77t-2.063.645q-2.594 0-3.074-2.04l1.77-.48q.285.705 1.275.705.96 0 .96-.51 0-.285-.405-.48-.406-.195-.99-.345-.585-.15-1.163-.368-.578-.217-.983-.705-.404-.487-.404-1.207 0-1.11.787-1.695.788-.585 1.943-.585 1.05 0 1.68.322.63.323 1.184 1.163l-1.56.87q-.434-.585-1.11-.585-.87 0-.87.51 0 .255.406.412.405.158.975.3.57.143 1.147.353.578.21.983.705.404.495.404 1.245zm7.41-5.145l-1.98 3.3 2.415 4.11h-2.174l-2.28-4.11 1.904-3.3h2.115zm-6.06-3.06h1.965v10.47h-1.965V3.58zm10.305 7.935l1.56-4.875h2.19l-3.36 9.045q-.374 1.065-1.057 1.38-.682.315-1.897.315h-.346v-1.725h.3q.615 0 .833-.105.218-.105.368-.465l.374-1.035-2.624-7.41h2.19l1.47 4.875zm7.306.825l.014 1.71q-1.245 0-1.844-.465-.6-.465-.6-1.665V3.58h1.934v8.31q0 .255.113.352.112.098.383.098zm7.62 1.41l-1.785.525-.15-.435q-.615.36-1.47.36-1.635 0-2.393-1.08-.757-1.08-.757-2.79 0-1.695.757-2.768.758-1.072 2.392-1.072.555 0 1.02.3V3.58h2.04v9.06q0 .015.083.27.082.255.165.533.082.277.097.307zm-2.385-2.49V9.415q0-.435-.286-.69-.285-.255-.72-.255-.315 0-.54.127-.225.128-.337.293-.112.165-.172.45-.06.285-.068.488-.008.202-.008.517t.008.51q.007.195.067.48.06.285.173.45.112.165.338.293.224.127.54.127.434 0 .72-.255.285-.255.285-.69zm8.04-4.62h2.04v7.41h-1.666l-.075-.315q-.645.45-1.35.45-1.53 0-2.317-.855-.788-.855-.788-2.385V6.64h2.04v4.17q0 .69.225 1.042.226.353.886.353.434 0 .72-.285.284-.285.284-.735V6.64zm7.514-3.06v1.65q-.644 0-.914.195t-.27.81v.405h1.035v1.71h-1.035v5.7h-1.965v-5.7h-.6V6.64h.6v-.945q0-.525.105-.9t.352-.6q.248-.225.472-.36.226-.135.675-.188.45-.052.713-.06.263-.007.832-.007zm3.406-.083q.344.338.344.818 0 .48-.344.817-.346.338-.826.338t-.817-.345q-.338-.345-.338-.81 0-.48.338-.818.338-.337.817-.337.48 0 .825.337zm-1.816 3.143h1.966v7.875q0 1.14-.63 1.845-.63.705-1.77.855l-.645-1.725q1.08-.255 1.08-1.17V6.64zm9.406.915q.825 1.05.825 2.805 0 1.755-.826 2.798-.825 1.042-2.534 1.042-1.71 0-2.536-1.042-.825-1.043-.825-2.798 0-1.755.825-2.805.825-1.05 2.535-1.05 1.71 0 2.535 1.05zm-1.516 4.155q.27-.51.27-1.35 0-.84-.27-1.357-.27-.518-1.02-.518-.764 0-1.027.51-.263.51-.263 1.365t.263 1.357q.263.503 1.028.503.75 0 1.02-.51zm1.313-7.628q.323.323.323.788t-.323.787q-.323.323-.772.323-.465 0-.788-.323-.323-.322-.323-.787t.323-.788q.323-.322.788-.322.45 0 .772.322zm-3.105 0q.323.323.323.788t-.323.787q-.322.323-.772.323-.466 0-.788-.323-.322-.322-.322-.787t.322-.788q.323-.322.788-.322.45 0 .772.322zm10.343 2.933l-.75 1.575q-.496-.21-.87-.21-.51 0-.788.277-.278.278-.278.758v4.635h-2.024V6.64h1.65l.075.315q.585-.51 1.364-.51.825 0 1.62.57z" fill="#fff"/></svg>