<svg width="168" height="42" viewBox="0 0 168 42" xmlns="http://www.w3.org/2000/svg"><path d="M38.145 3.58h1.86l4.05 10.47H41.73l-.945-2.625H37.38l-.945 2.625h-2.31l4.02-10.47zm.93 3.165L38.07 9.55h2.025l-1.02-2.805zm8.01 5.595l.015 1.71q-1.245 0-1.845-.465-.6-.465-.6-1.665V3.58h1.935v8.31q0 .255.112.352.113.098.383.098zm11.61-2.46v4.17H56.64V9.88q0-.675-.203-1.028-.202-.352-.832-.352-.27 0-.465.12t-.285.263q-.09.142-.135.427-.045.285-.053.435-.007.15-.007.465v3.84h-2.055V9.88q0-.66-.202-1.02-.203-.36-.818-.36-.42 0-.675.277-.255.278-.255.698v4.575H48.6V6.64h1.68l.075.3q.6-.465 1.23-.465.69 0 1.148.158.457.157 1.012.592.855-.75 1.86-.75 1.53 0 2.31.93t.78 2.475zm7.74.315v.645h-4.29q.06.645.427 1.05.368.405 1.013.405.84 0 1.515-.705l1.26 1.245q-1.35 1.35-2.79 1.35-1.635 0-2.58-1.088-.945-1.087-.945-2.737 0-1.665.915-2.752.915-1.088 2.535-1.088 1.35 0 2.145 1.013.795 1.012.795 2.662zm-4.275-.63h2.385q-.165-1.155-1.14-1.155-1.05 0-1.245 1.155zm10.485-2.55l-.75 1.575q-.495-.21-.87-.21-.51 0-.788.277-.277.278-.277.758v4.635h-2.025V6.64h1.65l.075.315q.585-.51 1.365-.51.825 0 1.62.57zm1.275-.375h1.98v7.41h-1.98V6.64zm.585-.645l1.29-2.445h2.04L75.9 5.995h-1.395zM83.31 8.89v3.765l.3 1.125-1.755.45-.15-.48q-.645.495-1.635.495-1.155 0-1.95-.652-.795-.653-.795-1.778 0-1.05.668-1.665.667-.615 2.032-.69h1.125q.255-.015.255-.195v-.21q0-.315-.24-.502-.24-.188-.6-.188-.945 0-1.26.705l-1.725-.6q.6-1.92 2.985-1.92 1.065 0 1.905.652.84.653.84 1.688zm-1.905 3.195V10.81q-.15.105-.375.105h-.84q-1.035.03-1.035.9 0 .345.308.54.307.195.652.195.705 0 1.29-.465zm6.405.825v1.125l-1.59 2.505h-1.005v-3.63q0-.54.382-.915.383-.375.908-.375.54 0 .922.375.383.375.383.915zm14.025-2.07q0 1.545-1.17 2.453-1.17.907-2.76.907-3.42 0-4.23-3.18l2.025-.405q.435 1.545 2.205 1.545.675 0 1.23-.345.555-.345.555-.975 0-.435-.42-.72t-1.05-.412q-.63-.128-1.373-.345-.742-.218-1.372-.495-.63-.278-1.05-.893-.42-.615-.42-1.5 0-1.425 1.073-2.22 1.072-.795 2.542-.795 1.425 0 2.362.57.938.57 1.553 1.83l-1.845.855q-.375-.675-.84-.968-.465-.292-1.23-.292-.54 0-1.005.255-.465.255-.465.765 0 .36.42.607.42.248 1.05.375.63.128 1.373.36.742.233 1.372.54.63.308 1.05.946.42.637.42 1.537zm7.695-.435q0 1.695-.758 2.753-.757 1.057-2.392 1.057-.57 0-1.005-.285v3.42h-2.04V6.64H105l.075.3q.615-.465 1.32-.465 1.11 0 1.838.57.727.57 1.012 1.418.285.847.285 1.942zm-2.07.638q.03-.248.03-.638t-.03-.637q-.03-.248-.127-.563-.098-.315-.338-.48-.24-.165-.615-.165-.45 0-.727.255-.278.255-.278.69v1.785q0 .45.27.698.27.247.735.247.375 0 .615-.157.24-.158.337-.473.098-.315.128-.563zm9.105-2.153v3.765l.3 1.125-1.755.45-.15-.48q-.645.495-1.635.495-1.155 0-1.95-.652-.795-.653-.795-1.778 0-1.05.668-1.665.667-.615 2.032-.69h1.125q.255-.015.255-.195v-.21q0-.315-.24-.502-.24-.188-.6-.188-.945 0-1.26.705l-1.725-.6q.6-1.92 2.985-1.92 1.065 0 1.905.652.84.653.84 1.688zm-1.905 3.195V10.81q-.15.105-.375.105h-.84q-1.035.03-1.035.9 0 .345.308.54.307.195.652.195.705 0 1.29-.465zm-2.595-6.09l1.29-2.445h2.04l-1.935 2.445h-1.395zM124.59 9.88v4.17h-2.04V9.925q0-.69-.233-1.058-.232-.367-.877-.367-.435 0-.72.307-.285.308-.285.758v4.485h-2.04V6.64h1.665l.075.3q.57-.465 1.395-.465 3.06 0 3.06 3.405zm3.623-6.383q.337.338.337.818 0 .48-.338.817-.337.338-.817.338-.48 0-.817-.345-.338-.345-.338-.81 0-.48.338-.818.337-.337.817-.337.48 0 .818.337zM126.39 6.64h1.995v7.41h-1.995V6.64z" fill="#fff"/></svg>