<svg width="168" height="42" viewBox="0 0 168 42" xmlns="http://www.w3.org/2000/svg"><path d="M31.642 3.58h1.86l4.05 10.47h-2.325l-.944-2.625h-3.405l-.945 2.625h-2.31l4.02-10.47zm.93 3.165L31.567 9.55h2.026l-1.02-2.805zm8.01 5.595l.015 1.71q-1.245 0-1.845-.465-.6-.465-.6-1.665V3.58h1.935v8.31q0 .255.113.352.112.098.383.098zm7.005-3.03q0 1.26-.81 1.973-.81.712-2.13.712-.42 0-.78-.15-.27.21-.27.495 0 .195.3.195.39 0 1.148-.172.758-.173 1.148-.173.855 0 1.402.525.547.525.547 1.365 0 1.32-1.05 2.13-1.05.81-2.414.81-1.275 0-2.213-.563-.938-.562-.938-1.747 0-.39.136-.75l1.785.54q-.016.06-.016.165 0 .255.3.39t.736.135q.66 0 1.214-.277.555-.278.555-.743 0-.165-.12-.255t-.284-.09q-.3 0-.878.105-.578.105-.862.105-.84 0-1.486-.375-.645-.375-.645-1.155 0-.66.495-1.305-.63-.735-.63-1.905 0-1.32.773-2.048.773-.727 2.108-.727 1.005 0 1.665.39.09-.21.06-.57h1.68q0 1.38-.675 1.86.15.555.15 1.11zm-1.934-.015q0-.42-.255-.652-.256-.233-.69-.233-.42 0-.683.232-.262.233-.262.653 0 .9.945.9t.945-.9zm9.525-.405v3.765l.3 1.125-1.756.45-.15-.48q-.645.495-1.635.495-1.154 0-1.95-.652-.794-.653-.794-1.778 0-1.05.667-1.665.668-.615 2.032-.69h1.125q.255-.015.255-.195v-.21q0-.315-.24-.502-.24-.188-.6-.188-.945 0-1.26.705l-1.724-.6q.6-1.92 2.984-1.92 1.066 0 1.905.652.84.653.84 1.688zm-1.905 3.195V10.81q-.15.105-.376.105h-.84q-1.035.03-1.035.9 0 .345.308.54.308.195.653.195.705 0 1.29-.465zm8.444-5.07l-.75 1.575q-.495-.21-.87-.21-.51 0-.787.277-.278.278-.278.758v4.635h-2.024V6.64h1.65l.075.315q.585-.51 1.364-.51.825 0 1.62.57zm4.216 4.11l1.514-4.485h2.206l-2.85 7.41h-1.65l-2.836-7.41h2.19l1.425 4.485zm10.56-.93v.645h-4.29q.06.645.427 1.05.368.405 1.013.405.84 0 1.514-.705l1.26 1.245q-1.35 1.35-2.79 1.35-1.634 0-2.58-1.088-.944-1.087-.944-2.737 0-1.665.915-2.752.915-1.088 2.534-1.088 1.35 0 2.145 1.013.796 1.012.796 2.662zm-4.275-.63h2.385q-.165-1.155-1.14-1.155-1.05 0-1.245 1.155zm8.444 3.345v1.125l-1.59 2.505h-1.005v-3.63q0-.54.383-.915.382-.375.907-.375.54 0 .923.375.382.375.382.915zm14.01-6.135q0 3.195-3.495 3.195h-2.025v4.08h-2.145V3.58h4.096q1.635 0 2.602.795.968.795.968 2.4zm-2.144 0q0-.66-.398-.908-.397-.247-1.102-.247h-1.876v2.325h1.876q.734 0 1.117-.24t.383-.93zm8.715.78q.825 1.05.825 2.805 0 1.755-.825 2.798-.825 1.042-2.535 1.042-1.71 0-2.535-1.042-.826-1.043-.826-2.798 0-1.755.826-2.805.825-1.05 2.534-1.05 1.71 0 2.536 1.05zm-1.515 4.155q.27-.51.27-1.35 0-.84-.27-1.357-.27-.518-1.02-.518-.766 0-1.028.51-.263.51-.263 1.365t.263 1.357q.262.503 1.027.503.75 0 1.02-.51zm8.55-4.695l-.75 1.575q-.496-.21-.87-.21-.51 0-.788.277-.278.278-.278.758v4.635h-2.025V6.64h1.65l.076.315q.584-.51 1.364-.51.826 0 1.62.57zm3.704-.375h.945v1.71h-.945v3.42q0 .57.66.57v1.71h-.794q-.9 0-1.373-.593-.472-.592-.472-1.507v-3.6h-.826V6.64h.825V4.66h1.98v1.98zm6.6 0h2.04v7.41h-1.665l-.075-.315q-.645.45-1.35.45-1.53 0-2.317-.855-.788-.855-.788-2.385V6.64h2.04v4.17q0 .69.225 1.042.226.353.886.353.434 0 .72-.285.284-.285.284-.735V6.64zm-2.654-.645l1.29-2.445h2.04l-1.935 2.445h-1.395zm12.135 3.315q0 1.26-.81 1.973-.81.712-2.13.712-.42 0-.78-.15-.27.21-.27.495 0 .195.3.195.39 0 1.147-.172.758-.173 1.148-.173.854 0 1.402.525.548.525.548 1.365 0 1.32-1.05 2.13-1.05.81-2.415.81-1.276 0-2.213-.563-.938-.562-.938-1.747 0-.39.136-.75l1.784.54q-.014.06-.014.165 0 .255.3.39t.734.135q.66 0 1.216-.277.555-.278.555-.743 0-.165-.12-.255t-.285-.09q-.3 0-.878.105-.578.105-.863.105-.84 0-1.484-.375-.645-.375-.645-1.155 0-.66.495-1.305-.63-.735-.63-1.905 0-1.32.772-2.048.772-.727 2.108-.727 1.004 0 1.664.39.09-.21.06-.57h1.68q0 1.38-.674 1.86.15.555.15 1.11zm-1.935-.015q0-.42-.255-.652-.255-.233-.69-.233-.42 0-.683.232-.263.233-.263.653 0 .9.946.9.944 0 .944-.9zm9.525-.405v3.765l.3 1.125-1.756.45-.15-.48q-.644.495-1.635.495-1.155 0-1.95-.652-.794-.653-.794-1.778 0-1.05.667-1.665t2.032-.69h1.126q.255-.015.255-.195v-.21q0-.315-.24-.502-.24-.188-.6-.188-.945 0-1.26.705l-1.725-.6q.6-1.92 2.984-1.92 1.065 0 1.905.652.84.653.84 1.688zm-1.905 3.195V10.81q-.15.105-.375.105h-.84q-1.035.03-1.035.9 0 .345.307.54.308.195.653.195.704 0 1.29-.465zm6.09.255l.014 1.71q-1.245 0-1.845-.465-.6-.465-.6-1.665V3.58h1.935v8.31q0 .255.113.352.112.098.382.098z" fill="#fff"/></svg>