<svg width="45.43" height="21" viewBox="0 0 45.43 21" xmlns="http://www.w3.org/2000/svg"><path d="M12.14 10.855q0 1.65-1.012 2.422-1.013.773-2.723.773h-4.08V3.58h3.84q1.62 0 2.618.758.997.757.997 2.332 0 1.155-.75 1.875 1.11.735 1.11 2.31zm-2.46-4.17q0-.645-.382-.855-.383-.21-1.103-.21H6.47v2.19h1.725q.72 0 1.103-.225.382-.225.382-.9zM9.583 11.8q.412-.225.412-.93 0-.705-.412-.938Q9.17 9.7 8.405 9.7H6.47v2.325h1.935q.765 0 1.178-.225zm12.27-5.003q.247.938.247 2.018 0 1.08-.247 2.018-.248.937-.75 1.702-.503.765-1.373 1.2-.87.435-2.01.435-1.14 0-2.01-.435-.87-.435-1.372-1.2-.503-.765-.75-1.703-.248-.937-.248-2.017 0-1.08.248-2.017.247-.938.75-1.703.502-.765 1.372-1.2.87-.435 2.01-.435 1.14 0 2.01.435.87.435 1.373 1.2.502.765.75 1.703zm-4.133 5.258q2.22 0 2.22-3.24t-2.22-3.24q-2.22 0-2.22 3.24t2.22 3.24zM16.055 2.68l1.29-2.445h2.04L17.45 2.68h-1.395zm13.32.9h2.355l-3.285 5.175 3.675 5.295H29.6l-3.465-5.295 3.24-5.175zm-3.48 0v10.47H23.75V3.58h2.145zm10.35 0h1.86l4.05 10.47H39.83l-.945-2.625H35.48l-.945 2.625h-2.31l4.02-10.47zm.93 3.165L36.17 9.55h2.025l-1.02-2.805z" fill="#fff"/></svg>