<svg width="168" height="42" viewBox="0 0 168 42" xmlns="http://www.w3.org/2000/svg"><path d="M49.425 11.935h4.89v2.115h-7.02v-2.625H44.55L43.2 14.05h-2.43l5.655-10.47h7.89v2.115h-4.89V7.66h4.26v2.025h-4.26v2.25zm-2.175-5.79L45.525 9.55h1.77V6.145h-.045zm11.655 4.98L60.42 6.64h2.205l-2.85 7.41h-1.65L55.29 6.64h2.19l1.425 4.485zm6.742-7.627q.338.337.338.817 0 .48-.338.817-.337.338-.817.338-.48 0-.817-.345-.338-.345-.338-.81 0-.48.338-.818.337-.337.817-.337.48 0 .817.337zM63.825 6.64h1.995v7.41h-1.995V6.64zM73.98 9.88v4.17h-2.04V9.925q0-.69-.233-1.058-.232-.367-.877-.367-.435 0-.72.307-.285.308-.285.758v4.485h-2.04V6.64h1.665l.075.3q.57-.465 1.395-.465 3.06 0 3.06 3.405zm4.155-3.24h.945v1.71h-.945v3.42q0 .57.66.57v1.71H78q-.9 0-1.373-.593-.472-.592-.472-1.507v-3.6h-.825V6.64h.825V4.66h1.98v1.98zm5.505 4.875L85.2 6.64h2.19l-3.36 9.045q-.375 1.065-1.058 1.38-.682.315-1.897.315h-.345v-1.725h.3q.615 0 .832-.105.218-.105.368-.465l.375-1.035-2.625-7.41h2.19l1.47 4.875zm-1.62-5.52l1.29-2.445h2.04l-1.935 2.445H82.02zm11.28 1.02l-.75 1.575q-.495-.21-.87-.21-.51 0-.788.277-.277.278-.277.758v4.635H88.59V6.64h1.65l.075.315q.585-.51 1.365-.51.825 0 1.62.57zm6.285 1.875v3.765l.3 1.125-1.755.45-.15-.48q-.645.495-1.635.495-1.155 0-1.95-.652-.795-.653-.795-1.778 0-1.05.668-1.665.667-.615 2.032-.69h1.125q.255-.015.255-.195v-.21q0-.315-.24-.502-.24-.188-.6-.188-.945 0-1.26.705l-1.725-.6q.6-1.92 2.985-1.92 1.065 0 1.905.652.84.653.84 1.688zm-1.905 3.195V10.81q-.15.105-.375.105h-.84q-1.035.03-1.035.9 0 .345.307.54.308.195.653.195.705 0 1.29-.465zm9.675-1.89v.645h-4.29q.06.645.428 1.05.367.405 1.012.405.84 0 1.515-.705l1.26 1.245q-1.35 1.35-2.79 1.35-1.635 0-2.58-1.088-.945-1.087-.945-2.737 0-1.665.915-2.752.915-1.088 2.535-1.088 1.35 0 2.145 1.013.795 1.012.795 2.662zm-4.275-.63h2.385q-.165-1.155-1.14-1.155-1.05 0-1.245 1.155zm8.685 1.95l1.56-4.875h2.19l-3.36 9.045q-.375 1.065-1.058 1.38-.682.315-1.897.315h-.345v-1.725h.3q.615 0 .832-.105.218-.105.368-.465l.375-1.035-2.625-7.41h2.19l1.47 4.875zm6.93-8.018q.345.338.345.818 0 .48-.345.817-.345.338-.825.338t-.818-.345q-.337-.345-.337-.81 0-.48.337-.818.338-.337.818-.337.48 0 .825.337zM116.88 6.64h1.965v7.875q0 1.14-.63 1.845-.63.705-1.77.855l-.645-1.725q1.08-.255 1.08-1.17V6.64zm9.495 2.25v3.765l.3 1.125-1.755.45-.15-.48q-.645.495-1.635.495-1.155 0-1.95-.652-.795-.653-.795-1.778 0-1.05.668-1.665.667-.615 2.032-.69h1.125q.255-.015.255-.195v-.21q0-.315-.24-.502-.24-.188-.6-.188-.945 0-1.26.705l-1.725-.6q.6-1.92 2.985-1.92 1.065 0 1.905.652.84.653.84 1.688zm-1.905 3.195V10.81q-.15.105-.375.105h-.84q-1.035.03-1.035.9 0 .345.308.54.307.195.652.195.705 0 1.29-.465z" fill="#fff"/></svg>