<svg width="168" height="21" viewBox="0 0 168 21" xmlns="http://www.w3.org/2000/svg"><path d="M56.182 3.58h2.01v10.47h-2.16V9.13l-2.01 4.92h-1.334l-1.995-4.92v4.92h-2.16V3.58h2.04l2.774 6.99 2.835-6.99zm9.33 3.975q.826 1.05.826 2.805 0 1.755-.825 2.798-.826 1.042-2.536 1.042t-2.534-1.042q-.825-1.043-.825-2.798 0-1.755.825-2.805.825-1.05 2.535-1.05 1.71 0 2.535 1.05zm-1.514 4.155q.27-.51.27-1.35 0-.84-.27-1.357-.27-.518-1.02-.518-.766 0-1.028.51-.263.51-.263 1.365t.263 1.357q.262.503 1.027.503.75 0 1.02-.51zm8.55-4.695l-.75 1.575q-.496-.21-.87-.21-.51 0-.788.277-.278.278-.278.758v4.635h-2.024V6.64h1.65l.075.315q.584-.51 1.364-.51.825 0 1.62.57zm6.39 2.295q0 1.26-.81 1.973-.81.712-2.13.712-.42 0-.78-.15-.27.21-.27.495 0 .195.3.195.39 0 1.147-.172.758-.173 1.148-.173.854 0 1.402.525.548.525.548 1.365 0 1.32-1.05 2.13-1.05.81-2.415.81-1.276 0-2.213-.563-.938-.562-.938-1.747 0-.39.136-.75l1.784.54q-.014.06-.014.165 0 .255.3.39t.734.135q.66 0 1.216-.277.555-.278.555-.743 0-.165-.12-.255t-.285-.09q-.3 0-.878.105-.578.105-.863.105-.84 0-1.484-.375-.645-.375-.645-1.155 0-.66.495-1.305-.63-.735-.63-1.905 0-1.32.772-2.048.772-.727 2.108-.727 1.004 0 1.664.39.09-.21.06-.57h1.68q0 1.38-.675 1.86.15.555.15 1.11zm-1.936-.015q0-.42-.254-.652-.255-.233-.69-.233-.42 0-.683.232-.263.233-.263.653 0 .9.946.9.944 0 .944-.9zm7.996-2.655h2.04v7.41h-1.665l-.076-.315q-.644.45-1.35.45-1.53 0-2.317-.855-.787-.855-.787-2.385V6.64h2.04v4.17q0 .69.225 1.042.224.353.885.353.434 0 .72-.285.285-.285.285-.735V6.64zm10.184 3.24v4.17h-2.04V9.925q0-.69-.232-1.058-.233-.367-.877-.367-.436 0-.72.307-.285.308-.285.758v4.485h-2.04V6.64h1.665l.075.3q.57-.465 1.395-.465 3.06 0 3.06 3.405zm5.325-6.3v1.65q-.645 0-.915.195t-.27.81v.405h1.035v1.71h-1.034v5.7h-1.965v-5.7h-.6V6.64h.6v-.945q0-.525.105-.9t.352-.6q.248-.225.472-.36.225-.135.675-.188.45-.052.713-.06.263-.007.832-.007zm3.78 8.76l.015 1.71q-1.245 0-1.845-.465-.6-.465-.6-1.665V3.58h1.936v8.31q0 .255.112.352.112.098.382.098zm5.52-5.7h2.04v7.41h-1.664l-.076-.315q-.644.45-1.35.45-1.53 0-2.317-.855-.787-.855-.787-2.385V6.64h2.04v4.17q0 .69.225 1.042.224.353.884.353.435 0 .72-.285t.285-.735V6.64zm9.48 2.67q0 1.26-.81 1.973-.81.712-2.13.712-.42 0-.78-.15-.27.21-.27.495 0 .195.3.195.39 0 1.148-.172.757-.173 1.147-.173.856 0 1.403.525t.547 1.365q0 1.32-1.05 2.13-1.05.81-2.415.81-1.274 0-2.212-.563-.938-.562-.938-1.747 0-.39.135-.75l1.785.54q-.015.06-.015.165 0 .255.3.39t.736.135q.66 0 1.214-.277.555-.278.555-.743 0-.165-.12-.255t-.284-.09q-.3 0-.878.105-.578.105-.862.105-.84 0-1.486-.375-.645-.375-.645-1.155 0-.66.495-1.305-.63-.735-.63-1.905 0-1.32.773-2.048.773-.727 2.108-.727 1.004 0 1.665.39.09-.21.06-.57h1.68q0 1.38-.675 1.86.15.555.15 1.11zm-1.934-.015q0-.42-.255-.652-.255-.233-.69-.233-.42 0-.683.232-.262.233-.262.653 0 .9.945.9t.945-.9z" fill="#fff"/></svg>