<svg width="264.593" height="48" viewBox="0 0 264.593 48" xmlns="http://www.w3.org/2000/svg"><path d="M35.196 32.237c0 .206.137.343.343.343h3.498c4.116 0 5.865-1.68 5.865-6.448 0-3.67-1.2-5.077-2.95-5.694v-.068c1.784-.686 2.71-2.161 2.71-5.18 0-4.39-1.543-5.933-5.487-5.933h-3.636c-.206 0-.343.137-.343.343zm1.99-12.52c-.138 0-.207-.068-.207-.205v-8.369c0-.137.069-.206.206-.206h1.955c2.744 0 3.739.96 3.739 4.425 0 3.293-1.2 4.356-3.636 4.356zm-.207 10.977v-9.158c0-.138.069-.206.206-.206h2.092c2.573 0 3.842 1.132 3.842 4.767 0 3.773-1.166 4.802-4.047 4.802h-1.887c-.137 0-.206-.068-.206-.205zm15.606 1.886c.206 0 .343-.137.343-.343V22.77L57.422 9.6c.068-.206 0-.343-.206-.343h-1.2c-.206 0-.31.137-.378.343l-3.533 10.598h-.068L48.435 9.6c-.068-.206-.171-.343-.377-.343h-1.2c-.206 0-.275.137-.206.343l4.493 13.17v9.467c0 .206.137.343.343.343zm17.665 0c.171 0 .24-.137.171-.343l-3.155-10.633c1.852-.823 2.88-2.64 2.88-5.9 0-4.732-1.852-6.447-5.933-6.447h-3.327c-.206 0-.343.137-.343.343v22.637c0 .206.137.343.343.343h1.097c.206 0 .343-.137.343-.343v-9.878c0-.137.069-.206.206-.206h1.612c.515 0 .995-.034 1.44-.103l3.02 10.29c.068.171.17.24.376.24zm-5.9-12.073h-1.818c-.137 0-.206-.069-.206-.206v-9.158c0-.137.069-.206.206-.206h1.818c2.847 0 4.013 1.166 4.013 4.768 0 3.738-1.235 4.802-4.013 4.802zm8.884 11.113c.754.789 1.92 1.234 3.19 1.234 2.812 0 4.561-1.715 4.561-5.213V9.6c0-.206-.137-.343-.343-.343h-1.097c-.206 0-.343.137-.343.343v18.178c0 2.401-1.03 3.396-2.779 3.396-.72 0-1.406-.275-1.92-.755-.138-.137-.31-.171-.446-.034l-.79.754c-.136.138-.17.31-.033.48zm10.632.617c-.034.206.137.343.343.343h1.098c.206 0 .309-.137.343-.343l1.166-5.59h5.694l1.166 5.59c.034.206.137.343.377.343h1.098c.206 0 .343-.137.308-.343L90.658 9.6c-.035-.206-.172-.343-.378-.343h-1.132c-.205 0-.308.137-.377.343zm3.293-7.203l2.504-11.902h.068l2.436 11.902zm16.018 7.546c2.812 0 4.356-1.235 5.076-3.464.412-1.27.549-2.813.549-8.198 0-5.419-.137-6.928-.549-8.197-.72-2.23-2.264-3.464-5.076-3.464h-4.185c-.206 0-.343.137-.343.343v10.186c0 .138-.068.206-.206.206h-1.166c-.206 0-.343.137-.343.343v.823c0 .206.137.343.343.343h1.166c.138 0 .206.069.206.206v10.53c0 .206.137.343.343.343zm-.206-1.68h-2.332c-.138 0-.206-.07-.206-.206v-8.987c0-.137.068-.206.206-.206h2.572c.206 0 .343-.137.343-.343v-.823c0-.206-.137-.343-.343-.343h-2.572c-.138 0-.206-.068-.206-.206v-8.643c0-.137.068-.206.206-.206h2.332c1.955 0 3.018.755 3.567 2.367.343 1.063.48 2.47.48 7.614 0 5.145-.137 6.551-.48 7.615-.549 1.612-1.612 2.366-3.567 2.366zm15.16 1.954c3.018 0 5.042-1.886 5.042-5.762V9.6c0-.206-.137-.343-.343-.343h-1.063c-.206 0-.343.137-.343.343v17.63c0 2.709-1.338 3.944-3.293 3.944s-3.258-1.235-3.258-3.945V9.6c0-.205-.137-.342-.343-.342h-1.098c-.206 0-.343.137-.343.343v17.492c0 3.876 2.024 5.762 5.042 5.762zm14.509-.617c-.035.206.137.343.343.343h1.097c.206 0 .309-.137.343-.343l1.166-5.59h5.694l1.166 5.59c.035.206.137.343.378.343h1.097c.206 0 .343-.137.309-.343L139.43 9.6c-.034-.206-.172-.343-.377-.343h-1.132c-.206 0-.309.137-.378.343zm3.292-7.203l2.504-11.902h.069l2.435 11.902zm16.018 7.546c2.813 0 4.356-1.235 5.076-3.464.412-1.27.55-2.813.55-8.198 0-5.419-.138-6.928-.55-8.197-.72-2.23-2.263-3.464-5.076-3.464h-4.184c-.206 0-.343.137-.343.343v10.186c0 .138-.069.206-.206.206h-1.166c-.206 0-.343.137-.343.343v.823c0 .206.137.343.343.343h1.166c.137 0 .206.069.206.206v10.53c0 .206.137.343.343.343zm-.206-1.68h-2.332c-.137 0-.206-.07-.206-.206v-8.987c0-.137.069-.206.206-.206h2.572c.206 0 .343-.137.343-.343v-.823c0-.206-.137-.343-.343-.343h-2.572c-.137 0-.206-.068-.206-.206v-8.643c0-.137.069-.206.206-.206h2.332c1.955 0 3.019.755 3.567 2.367.343 1.063.48 2.47.48 7.614 0 5.145-.137 6.551-.48 7.615-.548 1.612-1.612 2.366-3.567 2.366zm17.904 1.68c.206 0 .343-.137.343-.343v-9.226c0-.138.069-.206.206-.206h1.715c4.047 0 5.968-1.955 5.968-6.791 0-4.871-1.886-6.757-5.968-6.757h-3.361c-.206 0-.343.137-.343.343v22.637c0 .206.137.343.343.343zm2.264-11.456h-1.715c-.137 0-.206-.069-.206-.206v-9.775c0-.137.069-.206.206-.206h1.715c3.053 0 4.185 1.372 4.185 5.077 0 3.738-1.132 5.11-4.185 5.11zm6.62 11.113c-.034.206.137.343.343.343h1.097c.206 0 .31-.137.343-.343l1.167-5.59h5.693l1.166 5.59c.035.206.138.343.378.343h1.097c.206 0 .343-.137.309-.343L185.323 9.6c-.034-.206-.171-.343-.377-.343h-1.132c-.206 0-.309.137-.377.343zm3.293-7.203l2.503-11.902h.07l2.434 11.902zm11.49 7.203c0 .206.137.343.343.343h1.097c.206 0 .343-.137.343-.343v-7.443l2.298-4.459 4.46 11.97c.068.206.17.275.377.275h1.303c.171 0 .24-.137.171-.343L198.46 18.38l4.527-8.815c.069-.171 0-.308-.206-.308h-1.234c-.206 0-.31.068-.412.274l-6.037 12.005V9.6c0-.206-.137-.343-.343-.343h-1.097c-.206 0-.343.137-.343.343zm13.72 0c0 .206.137.343.342.343h1.098c.206 0 .343-.137.343-.343v-7.443l2.298-4.459 4.459 11.97c.069.206.171.275.377.275h1.304c.171 0 .24-.137.171-.343L212.18 18.38l4.528-8.815c.068-.171 0-.308-.206-.308h-1.235c-.206 0-.308.068-.411.274l-6.037 12.005V9.6c0-.206-.137-.343-.343-.343h-1.098c-.205 0-.343.137-.343.343zm12.244 0c-.034.206.137.343.343.343h1.098c.206 0 .309-.137.343-.343l1.166-5.59h5.694l1.166 5.59c.034.206.137.343.377.343h1.098c.206 0 .343-.137.308-.343L226.071 9.6c-.035-.206-.172-.343-.378-.343h-1.132c-.205 0-.308.137-.377.343zm3.293-7.203l2.504-11.902h.068l2.436 11.902z" fill="#fff"/></svg>