<svg width="264.456" height="47" viewBox="0 0 264.456 47" xmlns="http://www.w3.org/2000/svg"><path d="M79.478 32.01c.202 0 .337-.135.337-.337v-7.952c0-.135.067-.202.202-.202h1.112c4.077 0 6.74-2.022 6.74-7.21 0-5.224-2.562-7.212-6.74-7.212h-5.391c-.202 0-.337.135-.337.337v22.239c0 .202.135.337.337.337zm1.516-12.366h-.977c-.135 0-.202-.067-.202-.202v-6.268c0-.134.067-.202.202-.202h.977c1.719 0 2.46.742 2.46 3.336 0 2.595-.741 3.336-2.46 3.336zm15.332 12.67c2.999 0 5.02-1.349 5.863-3.876.37-1.044.471-1.988.471-7.884 0-5.897-.1-6.84-.471-7.885-.843-2.527-2.864-3.875-5.863-3.875-3 0-5.02 1.348-5.863 3.875-.37 1.045-.472 1.988-.472 7.885 0 5.896.101 6.84.472 7.884.842 2.527 2.864 3.875 5.863 3.875zm0-3.977c-.843 0-1.416-.471-1.618-1.112-.168-.539-.236-1.112-.236-6.671 0-5.56.068-6.133.236-6.672.202-.64.775-1.112 1.618-1.112.842 0 1.415.472 1.617 1.112.169.54.236 1.112.236 6.672s-.067 6.132-.236 6.671c-.202.64-.775 1.112-1.617 1.112zm22.003 3.673c.168 0 .235-.168.168-.337l-3.134-9.704c1.584-1.078 2.561-2.965 2.561-5.863 0-5.088-2.628-7.009-6.705-7.009h-5.459c-.202 0-.337.135-.337.337v22.239c0 .202.135.337.337.337h3.74c.203 0 .337-.135.337-.337v-8.424c0-.135.068-.202.203-.202h1.28l2.595 8.693c.067.203.168.27.37.27zm-7.312-12.77h-.977c-.135 0-.203-.068-.203-.203v-5.863c0-.134.068-.202.203-.202h.977c1.718 0 2.46.742 2.46 3.134 0 2.426-.742 3.134-2.46 3.134zm16.645 12.77c.202 0 .337-.135.337-.337V13.276c0-.135.067-.203.202-.203h3.606c.202 0 .337-.134.337-.337V9.434c0-.202-.135-.337-.337-.337h-12.03c-.202 0-.336.135-.336.337v3.302c0 .203.134.337.336.337h3.606c.135 0 .202.068.202.203v18.397c0 .202.135.337.337.337zm13.849-25.44c.27 0 .438-.1.674-.337l3.504-3.841c.135-.168.034-.337-.168-.337h-3.37c-.27 0-.37.101-.54.337l-2.762 3.841c-.135.169-.034.337.168.337zm-1.247 25.743c3.841 0 6.2-2.19 6.2-6.503V9.434c0-.202-.135-.337-.337-.337h-3.74c-.202 0-.337.135-.337.337V26.35c0 1.213-.64 1.988-1.786 1.988-1.112 0-1.752-.775-1.752-1.988V9.434c0-.202-.135-.337-.337-.337h-3.74c-.202 0-.337.135-.337.337V25.81c0 4.313 2.359 6.503 6.166 6.503zm9.334-3.841c.842 2.493 2.83 3.841 5.896 3.841 3 0 4.987-1.348 5.83-3.875.37-1.044.471-1.988.471-7.884v-1.011c0-.202-.134-.337-.337-.337h-5.56c-.202 0-.336.135-.336.337v2.965c0 .202.134.337.337.337h1.449c.134 0 .202.067.202.202 0 3.37-.068 3.707-.202 4.178-.203.674-.91 1.112-1.753 1.112-.842 0-1.55-.438-1.752-1.112-.168-.505-.202-.808-.202-6.671 0-5.897.034-6.167.202-6.706.202-.64.876-1.078 1.685-1.078 1.146 0 1.82.775 1.92 2.426.034.236.17.337.371.303l3.572-.606c.202-.034.303-.202.27-.404-.304-3.707-2.46-5.695-6.167-5.695-3.066 0-5.054 1.348-5.896 3.841-.337 1.079-.438 2.022-.438 7.919 0 5.896.1 6.84.438 7.918zm13.107 3.201c-.034.202.067.337.27.337h3.74c.236 0 .337-.135.37-.337l.775-4.144h4.347l.741 4.144c.034.202.135.337.371.337h3.74c.202 0 .303-.135.27-.337l-4.92-22.239c-.033-.202-.168-.337-.37-.337h-3.976c-.203 0-.304.135-.371.337zm5.796-7.649l1.516-7.952h.101l1.449 7.952zm10.681 7.649c0 .202.135.337.337.337h10.075c.202 0 .337-.135.337-.337v-3.302c0-.202-.135-.337-.337-.337h-5.796c-.135 0-.202-.067-.202-.202V9.434c0-.202-.135-.337-.337-.337h-3.74c-.202 0-.337.135-.337.337z" fill="#fff"/></svg>