<svg width="264.354" height="29" viewBox="0 0 264.354 29" xmlns="http://www.w3.org/2000/svg"><path d="M16.12 19.018c-.02.121.082.202.203.202h.648c.121 0 .182-.08.202-.202l.688-3.298h3.358l.688 3.298c.02.121.08.202.223.202h.647c.121 0 .202-.08.182-.202L20.127 5.665c-.02-.121-.102-.202-.223-.202h-.668c-.12 0-.182.08-.222.202zm1.943-4.249l1.477-7.02h.04l1.437 7.02zm1.74-11.026c.142 0 .202-.04.344-.202l1.76-2.084c.08-.101.04-.202-.081-.202h-.668c-.182 0-.242.06-.344.202l-1.517 2.084c-.08.101-.04.202.081.202zm8.76 15.275c0 .121.08.202.202.202h.587c.121 0 .202-.08.202-.202V8.457h.061l2.428 8.113c.04.141.1.202.222.202h.405c.121 0 .182-.06.222-.202l2.428-8.113h.06v10.56c0 .122.082.203.203.203h.587c.121 0 .202-.08.202-.202V5.665c0-.121-.08-.202-.202-.202h-.688c-.121 0-.222.06-.263.202l-2.71 9.226h-.041l-2.752-9.226c-.04-.141-.121-.202-.263-.202h-.688c-.121 0-.202.08-.202.202zm9.69 0c-.02.121.082.202.203.202h.647c.122 0 .183-.08.203-.202l.688-3.298h3.358l.688 3.298c.02.121.08.202.222.202h.648c.121 0 .202-.08.182-.202L42.26 5.665c-.02-.121-.102-.202-.223-.202h-.668c-.121 0-.182.08-.222.202zm1.943-4.249l1.477-7.02h.04l1.437 7.02zm6.777 4.249c0 .121.081.202.203.202h.566c.122 0 .202-.08.202-.202V7.748h.061l3.844 11.27c.06.162.142.202.324.202h.769c.12 0 .202-.08.202-.202V5.665c0-.121-.081-.202-.202-.202h-.567c-.121 0-.202.08-.202.202v11.269h-.06L48.308 5.665c-.061-.162-.142-.202-.324-.202h-.81c-.12 0-.202.08-.202.202zm8.922 0c0 .121.081.202.203.202h.566c.121 0 .202-.08.202-.202V7.748h.061l3.844 11.27c.06.162.142.202.324.202h.768c.122 0 .203-.08.203-.202V5.665c0-.121-.081-.202-.203-.202h-.566c-.121 0-.202.08-.202.202v11.269h-.061L57.231 5.665c-.061-.162-.142-.202-.324-.202h-.81c-.12 0-.202.08-.202.202zm12.645 0c0 .121.08.202.202.202h.587c.121 0 .202-.08.202-.202V8.457h.06l2.429 8.113c.04.141.1.202.222.202h.405c.121 0 .182-.06.222-.202l2.428-8.113h.06v10.56c0 .122.082.203.203.203h.587c.121 0 .202-.08.202-.202V5.665c0-.121-.08-.202-.202-.202h-.688c-.122 0-.223.06-.263.202l-2.711 9.226h-.04l-2.752-9.226c-.04-.141-.121-.202-.263-.202h-.688c-.121 0-.202.08-.202.202zm10.257 0c0 .121.08.202.202.202h.91c.122 0 .203-.08.203-.202v-1.315c0-.122-.08-.203-.202-.203H79c-.122 0-.203.081-.203.203zm6.514.202c.122 0 .182-.08.203-.202l2.73-13.353c.021-.121-.02-.202-.16-.202h-.669c-.121 0-.182.08-.202.202l-2.165 11.087h-.06L82.803 5.665c-.02-.121-.101-.202-.223-.202h-.667c-.142 0-.183.08-.162.202l2.73 13.353c.021.121.082.202.203.202zm2.934-.202c0 .121.08.202.202.202h.91c.122 0 .203-.08.203-.202v-1.315c0-.122-.081-.203-.202-.203h-.91c-.122 0-.203.081-.203.203zm6.919 0c0 .121.08.202.202.202h4.795c.121 0 .202-.08.202-.202v-.547c0-.12-.08-.202-.202-.202h-3.884v-.02l3.297-6.474c.506-1.012.79-1.82.79-3.176 0-.89-.041-1.255-.162-1.64-.344-1.071-1.174-1.658-2.428-1.658-1.255 0-2.084.607-2.428 1.659-.121.384-.182.748-.182 1.78 0 .142.06.223.202.243l.567.06c.141.021.222-.06.222-.202 0-1.052.04-1.315.122-1.578.222-.647.728-1.011 1.477-1.011.768 0 1.274.364 1.476 1.011.102.263.142.526.142 1.336 0 1.133-.243 1.84-.668 2.69l-3.46 6.879a.552.552 0 00-.08.324zm11.471 0c0 .121.081.202.202.202h.648c.121 0 .202-.08.202-.202v-6.07c0-.08.04-.121.121-.121h3.237c.122 0 .203-.081.203-.202v-.587c0-.121-.081-.202-.203-.202h-3.237c-.08 0-.121-.04-.121-.122V6.576c0-.081.04-.122.121-.122h3.703c.121 0 .202-.08.202-.202v-.587c0-.121-.08-.202-.202-.202h-4.674c-.121 0-.202.08-.202.202zm9.994.364c1.78 0 2.974-1.113 2.974-3.399V5.665c0-.121-.08-.202-.202-.202h-.627c-.122 0-.203.08-.203.202v10.399c0 1.598-.789 2.327-1.942 2.327s-1.922-.729-1.922-2.327V5.665c0-.121-.08-.202-.202-.202h-.647c-.122 0-.203.08-.203.202v10.318c0 2.286 1.194 3.399 2.974 3.399zm5.705-.364c0 .121.081.202.203.202h4.653c.121 0 .202-.08.202-.202v-.587c0-.121-.08-.202-.202-.202h-3.682c-.081 0-.122-.04-.122-.122V5.665c0-.121-.08-.202-.202-.202h-.647c-.122 0-.203.08-.203.202zm6.96 0c0 .121.08.202.202.202h4.653c.122 0 .203-.08.203-.202v-.587c0-.121-.081-.202-.203-.202h-3.682c-.08 0-.121-.04-.121-.122V5.665c0-.121-.081-.202-.202-.202h-.648c-.121 0-.202.08-.202.202zm9.286.364c1.416 0 2.367-.648 2.772-1.882.202-.607.263-1.133.263-5.159s-.061-4.552-.263-5.159c-.405-1.234-1.356-1.881-2.772-1.881-1.416 0-2.367.647-2.772 1.881-.202.607-.263 1.133-.263 5.16 0 4.025.061 4.551.263 5.158.405 1.234 1.356 1.882 2.772 1.882zm0-.991c-.87 0-1.477-.405-1.76-1.214-.142-.466-.202-.89-.202-4.836 0-3.945.06-4.37.202-4.835.283-.83.89-1.214 1.76-1.214s1.497.385 1.76 1.214c.142.465.223.89.223 4.835s-.081 4.37-.223 4.836c-.263.809-.89 1.214-1.76 1.214zm11.289.829c.101 0 .142-.08.101-.202l-1.861-6.272c1.092-.486 1.7-1.558 1.7-3.48 0-2.792-1.093-3.803-3.5-3.803h-1.963c-.121 0-.202.08-.202.202v13.353c0 .121.08.202.202.202h.647c.122 0 .203-.08.203-.202V13.19c0-.08.04-.121.121-.121h.95c.304 0 .588-.02.85-.061l1.78 6.07c.041.1.102.141.223.141zm-3.48-7.121h-1.072c-.08 0-.121-.04-.121-.122V6.576c0-.081.04-.122.121-.122h1.072c1.68 0 2.367.688 2.367 2.812 0 2.205-.728 2.833-2.367 2.833zm8.598 7.121c1.66 0 2.57-.728 2.995-2.043.242-.749.323-1.66.323-4.836 0-3.196-.08-4.086-.323-4.835-.425-1.315-1.336-2.043-2.995-2.043h-2.468c-.121 0-.202.08-.202.202v6.009c0 .08-.04.121-.121.121h-.688c-.122 0-.203.081-.203.202v.486c0 .121.081.202.203.202h.688c.08 0 .121.04.121.122v6.21c0 .122.08.203.202.203zm-.12-.991h-1.377c-.08 0-.121-.04-.121-.122v-5.3c0-.081.04-.122.121-.122h1.518c.121 0 .202-.08.202-.202v-.486c0-.12-.08-.202-.202-.202h-1.518c-.08 0-.121-.04-.121-.121V6.576c0-.081.04-.122.121-.122h1.376c1.153 0 1.78.445 2.104 1.396.202.627.283 1.457.283 4.491 0 3.035-.08 3.865-.283 4.492-.324.95-.95 1.396-2.104 1.396zm5.988.789c0 .121.08.202.202.202h.566c.122 0 .203-.08.203-.202V7.748h.06l3.844 11.27c.06.162.142.202.324.202h.769c.121 0 .202-.08.202-.202V5.665c0-.121-.08-.202-.202-.202h-.567c-.121 0-.202.08-.202.202v11.269h-.06L162.19 5.665c-.06-.162-.142-.202-.324-.202h-.81c-.12 0-.201.08-.201.202zm8.052 0c-.02.121.08.202.202.202h.647c.122 0 .182-.08.203-.202l.687-3.298h3.359l.688 3.298c.02.121.08.202.222.202h.648c.12 0 .202-.08.182-.202l-2.833-13.353c-.02-.121-.1-.202-.222-.202h-.668c-.121 0-.182.08-.222.202zm1.942-4.249l1.477-7.02h.04l1.436 7.02zm13.312 4.613c1.416 0 2.367-.648 2.771-1.882.203-.607.263-1.133.263-5.159s-.06-4.552-.263-5.159c-.404-1.234-1.355-1.881-2.771-1.881s-2.367.647-2.772 1.881c-.202.607-.263 1.133-.263 5.16 0 4.025.06 4.551.263 5.158.405 1.234 1.356 1.882 2.772 1.882zm0-.991c-.87 0-1.477-.405-1.76-1.214-.142-.466-.203-.89-.203-4.836 0-3.945.061-4.37.203-4.835.283-.83.89-1.214 1.76-1.214s1.497.385 1.76 1.214c.142.465.222.89.222 4.835s-.08 4.37-.222 4.836c-.263.809-.89 1.214-1.76 1.214zm5.604-.89c.404 1.233 1.355 1.88 2.771 1.88 1.417 0 2.368-.647 2.772-1.88.202-.608.263-1.134.263-4.694v-.547c0-.12-.08-.202-.202-.202h-2.59c-.121 0-.202.081-.202.202v.567c0 .121.08.202.202.202h1.639c.08 0 .121.04.121.122 0 3.135-.06 3.56-.202 4.026-.283.809-.91 1.214-1.78 1.214s-1.497-.405-1.78-1.214c-.142-.466-.203-.89-.203-4.836 0-3.945.06-4.37.202-4.835.284-.83.89-1.214 1.76-1.214 1.214 0 1.801.749 1.983 1.963.02.121.101.182.243.141l.587-.121c.121-.04.161-.121.141-.263-.222-1.659-1.173-2.711-2.954-2.711-1.416 0-2.367.647-2.771 1.881-.202.607-.263 1.133-.263 5.16 0 4.025.06 4.551.263 5.158zm11.754 1.517c0 .121.081.202.202.202h4.795c.122 0 .203-.08.203-.202v-.547c0-.12-.081-.202-.203-.202h-3.884v-.02l3.298-6.474c.505-1.012.789-1.82.789-3.176 0-.89-.04-1.255-.162-1.64-.344-1.071-1.174-1.658-2.428-1.658s-2.084.607-2.428 1.659c-.121.384-.182.748-.182 1.78 0 .142.06.223.202.243l.567.06c.142.021.222-.06.222-.202 0-1.052.04-1.315.122-1.578.222-.647.728-1.011 1.477-1.011.768 0 1.274.364 1.477 1.011.1.263.141.526.141 1.336 0 1.133-.243 1.84-.667 2.69l-3.46 6.879a.552.552 0 00-.08.324zm11.471 0c0 .121.081.202.203.202h2.063c2.428 0 3.46-.991 3.46-3.803 0-2.165-.708-2.995-1.74-3.359v-.04c1.052-.405 1.598-1.275 1.598-3.055 0-2.59-.91-3.5-3.237-3.5h-2.144c-.122 0-.203.08-.203.202zm1.174-7.385c-.081 0-.122-.04-.122-.121V6.576c0-.081.04-.122.122-.122h1.153c1.618 0 2.205.567 2.205 2.61 0 1.942-.708 2.57-2.145 2.57zm-.122 6.474v-5.401c0-.081.04-.122.122-.122h1.234c1.517 0 2.266.668 2.266 2.812 0 2.226-.688 2.833-2.388 2.833h-1.112c-.081 0-.122-.04-.122-.122zm11.43-14.809c.122 0 .203-.08.203-.202V2.003c0-.121-.08-.202-.202-.202h-.688c-.121 0-.202.08-.202.202v1.093c0 .121.08.202.202.202zm-2.791 0c.121 0 .202-.08.202-.202V2.003c0-.121-.08-.202-.202-.202h-.688c-.121 0-.202.08-.202.202v1.093c0 .121.08.202.202.202zm1.052 16.084c1.416 0 2.367-.648 2.772-1.882.202-.607.263-1.133.263-5.159s-.061-4.552-.263-5.159c-.405-1.234-1.356-1.881-2.772-1.881-1.416 0-2.367.647-2.772 1.881-.202.607-.263 1.133-.263 5.16 0 4.025.061 4.551.263 5.158.405 1.234 1.356 1.882 2.772 1.882zm0-.991c-.87 0-1.477-.405-1.76-1.214-.142-.466-.202-.89-.202-4.836 0-3.945.06-4.37.202-4.835.283-.83.89-1.214 1.76-1.214s1.497.385 1.76 1.214c.142.465.223.89.223 4.835s-.081 4.37-.223 4.836c-.263.809-.89 1.214-1.76 1.214zm11.289.829c.101 0 .142-.08.101-.202l-1.861-6.272c1.092-.486 1.7-1.558 1.7-3.48 0-2.792-1.093-3.803-3.5-3.803h-1.963c-.122 0-.202.08-.202.202v13.353c0 .121.08.202.202.202h.647c.122 0 .203-.08.203-.202V13.19c0-.08.04-.121.12-.121h.952c.303 0 .586-.02.85-.061l1.78 6.07c.04.1.101.141.222.141zm-3.48-7.121h-1.072c-.081 0-.121-.04-.121-.122V6.576c0-.081.04-.122.12-.122h1.073c1.68 0 2.367.688 2.367 2.812 0 2.205-.728 2.833-2.367 2.833zm5.928 6.919c0 .121.08.202.202.202h.567c.121 0 .202-.08.202-.202V7.748h.06l3.845 11.27c.06.162.141.202.323.202h.77c.12 0 .201-.08.201-.202V5.665c0-.121-.08-.202-.202-.202h-.566c-.122 0-.203.08-.203.202v11.269h-.06l-3.804-11.269c-.06-.162-.141-.202-.324-.202h-.809c-.121 0-.202.08-.202.202z" fill="#fff"/></svg>