<svg width="264.456" height="47" viewBox="0 0 264.456 47" xmlns="http://www.w3.org/2000/svg"><path d="M50.382 28.506c.81 2.46 2.662 3.807 5.695 3.807 3.673 0 5.83-1.954 6.031-5.795 0-.202-.067-.371-.303-.405l-3.538-.606c-.202-.034-.37.067-.37.303-.068 1.82-.64 2.527-1.753 2.527-.808 0-1.28-.337-1.516-1.044-.135-.506-.202-.91-.202-6.74 0-5.829.067-6.233.202-6.738.236-.708.708-1.045 1.516-1.045 1.112 0 1.685.708 1.752 2.527 0 .236.169.337.371.303l3.538-.606c.236-.034.303-.202.303-.404-.202-3.842-2.358-5.796-6.031-5.796-3.033 0-4.886 1.348-5.695 3.808-.303.977-.438 2.021-.438 7.952 0 5.93.135 6.975.438 7.952zm19.813 3.807c2.999 0 5.02-1.348 5.863-3.875.37-1.044.472-1.988.472-7.884 0-5.897-.101-6.84-.472-7.885-.842-2.527-2.864-3.875-5.863-3.875-2.999 0-5.02 1.348-5.863 3.875-.37 1.045-.472 1.988-.472 7.885 0 5.896.102 6.84.472 7.884.843 2.527 2.864 3.875 5.863 3.875zm0-3.976c-.842 0-1.415-.471-1.617-1.112-.169-.539-.236-1.112-.236-6.671 0-5.56.067-6.133.236-6.672.202-.64.775-1.112 1.617-1.112s1.415.472 1.617 1.112c.169.54.236 1.112.236 6.672s-.067 6.132-.236 6.671c-.202.64-.775 1.112-1.617 1.112zm20.958-3.133c0-3.875-1.213-5.56-4.346-6.773l-1.382-.54c-1.786-.707-2.156-1.246-2.156-2.964 0-1.55.573-2.292 1.752-2.292 1.213 0 1.786.843 1.82 2.494 0 .202.168.303.37.27l3.437-.54c.202-.034.303-.168.303-.37-.168-3.606-2.055-5.695-6.065-5.695-4.077 0-6.065 2.224-6.065 6.368 0 3.673 1.112 5.392 4.347 6.638l1.381.54c1.719.673 2.123 1.381 2.123 3.403 0 2.089-.573 2.729-1.82 2.729-1.314 0-1.92-.842-1.988-2.965 0-.202-.134-.303-.37-.27l-3.606.573c-.202.034-.27.169-.27.37.068 3.943 2.056 6.133 6.2 6.133 4.55 0 6.335-2.426 6.335-7.11zm9.132 6.806c.202 0 .337-.135.337-.337V13.276c0-.135.067-.203.202-.203h3.605c.203 0 .337-.134.337-.337V9.434c0-.202-.134-.337-.337-.337H92.4c-.202 0-.337.135-.337.337v3.302c0 .203.135.337.337.337h3.606c.134 0 .202.068.202.203v18.397c0 .202.135.337.337.337zm3.572-.337c-.034.202.067.337.27.337h3.74c.235 0 .336-.135.37-.337l.775-4.144h4.347l.74 4.144c.035.202.136.337.371.337h3.74c.203 0 .304-.135.27-.337l-4.92-22.239c-.033-.202-.168-.337-.37-.337h-3.976c-.202 0-.303.135-.37.337zm5.795-7.649l1.516-7.952h.101l1.45 7.952zm17.252 7.649c0 .202.135.337.337.337h5.796c3.167 0 5.02-1.213 5.862-3.808.405-1.28.607-2.83.607-7.648 0-4.819-.202-6.369-.607-7.65-.842-2.594-2.695-3.807-5.862-3.807h-5.796c-.202 0-.337.135-.337.337zm4.414-3.841V13.276c0-.135.067-.203.202-.203h1.078c1.112 0 1.719.405 2.056 1.416.27.707.37 1.684.37 6.065 0 4.38-.1 5.357-.37 6.065-.337 1.01-.944 1.415-2.056 1.415h-1.078c-.135 0-.202-.067-.202-.202zm10.951 3.841c0 .202.135.337.337.337h10.007c.203 0 .337-.135.337-.337v-3.302c0-.202-.134-.337-.337-.337h-5.728c-.135 0-.202-.067-.202-.202v-5.19c0-.134.067-.201.202-.201h4.953c.203 0 .337-.135.337-.337v-3.302c0-.203-.134-.337-.337-.337h-4.953c-.135 0-.202-.068-.202-.203v-4.986c0-.135.067-.203.202-.203h5.728c.203 0 .337-.134.337-.337V9.434c0-.202-.134-.337-.337-.337h-10.007c-.202 0-.337.135-.337.337zm13.141 0c0 .202.135.337.337.337h10.075c.202 0 .337-.135.337-.337v-3.302c0-.202-.135-.337-.337-.337h-5.796c-.134 0-.202-.067-.202-.202V9.434c0-.202-.135-.337-.337-.337h-3.74c-.202 0-.337.135-.337.337zm31.404-6.47c0-3.874-1.213-5.56-4.347-6.772l-1.381-.54c-1.786-.707-2.157-1.246-2.157-2.964 0-1.55.573-2.292 1.752-2.292 1.213 0 1.786.843 1.82 2.494 0 .202.168.303.37.27l3.437-.54c.203-.034.304-.168.304-.37-.169-3.606-2.056-5.695-6.065-5.695-4.077 0-6.065 2.224-6.065 6.368 0 3.673 1.111 5.392 4.346 6.638l1.382.54c1.718.673 2.122 1.381 2.122 3.403 0 2.089-.572 2.729-1.82 2.729-1.313 0-1.92-.842-1.987-2.965 0-.202-.135-.303-.37-.27l-3.606.573c-.202.034-.27.169-.27.37.068 3.943 2.056 6.133 6.2 6.133 4.55 0 6.335-2.426 6.335-7.11zm8.39 7.11c2.999 0 5.02-1.348 5.863-3.875.37-1.044.472-1.988.472-7.884 0-5.897-.101-6.84-.472-7.885-.842-2.527-2.864-3.875-5.863-3.875-2.999 0-5.02 1.348-5.863 3.875-.37 1.045-.472 1.988-.472 7.885 0 5.896.101 6.84.472 7.884.842 2.527 2.864 3.875 5.863 3.875zm0-3.976c-.842 0-1.415-.471-1.617-1.112-.169-.539-.236-1.112-.236-6.671 0-5.56.067-6.133.236-6.672.202-.64.775-1.112 1.617-1.112s1.415.472 1.617 1.112c.169.54.236 1.112.236 6.672s-.067 6.132-.236 6.671c-.202.64-.775 1.112-1.617 1.112zm9.098 3.336c0 .202.134.337.337.337h10.074c.203 0 .337-.135.337-.337v-3.302c0-.202-.134-.337-.337-.337h-5.795c-.135 0-.202-.067-.202-.202V9.434c0-.202-.135-.337-.337-.337h-3.74c-.203 0-.337.135-.337.337z" fill="#fff"/></svg>