<svg width="1379.921" height="76" viewBox="0 0 1379.921 76" xmlns="http://www.w3.org/2000/svg"><path d="M42.406 51.14c.323 0 .538-.215.538-.538V37.897c0-.216.108-.323.323-.323h1.777c6.514 0 10.767-3.23 10.767-11.521 0-8.345-4.092-11.52-10.767-11.52H36.43c-.323 0-.538.214-.538.538V50.6c0 .324.215.539.538.539zm2.422-19.757h-1.561c-.215 0-.323-.108-.323-.323V21.046c0-.215.108-.323.323-.323h1.561c2.746 0 3.93 1.185 3.93 5.33s-1.184 5.33-3.93 5.33zm24.495 20.242c4.791 0 8.022-2.154 9.367-6.192.593-1.668.754-3.176.754-12.597s-.161-10.928-.754-12.597c-1.345-4.038-4.576-6.191-9.367-6.191-4.791 0-8.021 2.153-9.367 6.19-.592 1.67-.754 3.177-.754 12.598 0 9.421.162 10.929.754 12.597 1.346 4.038 4.576 6.192 9.367 6.192zm0-6.353c-1.346 0-2.26-.754-2.584-1.777-.27-.86-.377-1.776-.377-10.659 0-8.883.108-9.798.377-10.66.323-1.022 1.238-1.776 2.584-1.776s2.261.754 2.584 1.777c.27.861.377 1.776.377 10.66 0 8.882-.108 9.797-.377 10.658-.323 1.023-1.238 1.777-2.584 1.777zm35.154 5.868c.27 0 .377-.27.27-.538L99.74 35.097c2.53-1.723 4.091-4.737 4.091-9.367 0-8.13-4.199-11.198-10.713-11.198h-8.721c-.323 0-.538.215-.538.539V50.6c0 .324.215.539.538.539h5.976c.323 0 .538-.215.538-.538v-13.46c0-.214.108-.322.323-.322h2.046l4.145 13.89c.108.322.27.43.592.43zM92.795 30.737h-1.561c-.215 0-.323-.108-.323-.323v-9.368c0-.215.108-.323.323-.323h1.561c2.746 0 3.93 1.185 3.93 5.007 0 3.876-1.184 5.007-3.93 5.007zM119.39 51.14c.323 0 .538-.215.538-.538V21.208c0-.216.108-.323.323-.323h5.76c.323 0 .539-.216.539-.539v-5.275c0-.324-.216-.539-.539-.539h-19.219c-.323 0-.538.215-.538.539v5.275c0 .323.215.539.538.539h5.76c.216 0 .324.107.324.323v29.394c0 .323.215.538.538.538zm22.126-40.645c.43 0 .7-.162 1.077-.539l5.598-6.137c.216-.27.054-.538-.269-.538h-5.383c-.43 0-.592.161-.862.538l-4.414 6.137c-.215.27-.054.539.27.539zm-1.992 41.13c6.137 0 9.906-3.5 9.906-10.39V15.07c0-.324-.216-.539-.539-.539h-5.975c-.323 0-.539.215-.539.539v27.025c0 1.938-1.023 3.176-2.853 3.176-1.777 0-2.8-1.238-2.8-3.176V15.07c0-.324-.215-.539-.538-.539h-5.975c-.323 0-.539.215-.539.539v26.163c0 6.891 3.769 10.39 9.852 10.39zm14.912-6.138c1.346 3.984 4.523 6.138 9.421 6.138 4.792 0 7.968-2.154 9.314-6.192.592-1.668.754-3.176.754-12.597v-1.615c0-.323-.216-.538-.539-.538h-8.882c-.323 0-.539.215-.539.538v4.738c0 .323.216.538.539.538h2.314c.216 0 .323.108.323.323 0 5.383-.107 5.922-.323 6.675-.323 1.077-1.453 1.777-2.799 1.777-1.346 0-2.476-.7-2.8-1.777-.269-.807-.322-1.292-.322-10.659 0-9.421.053-9.852.323-10.713.323-1.023 1.4-1.723 2.691-1.723 1.83 0 2.907 1.238 3.069 3.876.054.377.27.539.592.485l5.707-.97c.323-.053.484-.322.43-.645-.484-5.922-3.93-9.098-9.852-9.098-4.898 0-8.075 2.153-9.42 6.137-.539 1.723-.7 3.23-.7 12.651s.161 10.929.7 12.651zm20.942 5.115c-.054.323.108.538.43.538h5.977c.376 0 .538-.215.592-.538l1.238-6.622h6.945l1.184 6.622c.054.323.215.538.592.538h5.976c.323 0 .484-.215.43-.538l-7.86-35.531c-.053-.324-.268-.539-.591-.539h-6.353c-.323 0-.485.215-.592.539zm9.26-12.22l2.422-12.706h.162l2.315 12.705zm17.066 12.22c0 .323.215.538.538.538h16.097c.323 0 .538-.215.538-.538v-5.276c0-.323-.215-.539-.538-.539h-9.26c-.215 0-.323-.107-.323-.323V15.071c0-.324-.215-.539-.538-.539h-5.976c-.323 0-.538.215-.538.539zm83.713 0c0 .323.215.538.538.538h5.976c.323 0 .538-.215.538-.538V36.55c0-.216.108-.323.323-.323h7.914c.323 0 .539-.216.539-.539v-5.33c0-.322-.216-.538-.539-.538h-7.914c-.215 0-.323-.107-.323-.323v-8.29c0-.216.108-.323.323-.323h9.152c.323 0 .539-.216.539-.539v-5.275c0-.324-.216-.539-.539-.539h-15.989c-.323 0-.538.215-.538.539zm20.78 0c0 .323.216.538.539.538h16.096c.323 0 .539-.215.539-.538v-5.276c0-.323-.216-.539-.539-.539h-9.26c-.215 0-.322-.107-.322-.323V15.071c0-.324-.216-.539-.539-.539h-5.975c-.323 0-.539.215-.539.539zm29.179 1.023c6.137 0 9.906-3.5 9.906-10.39V15.07c0-.324-.216-.539-.539-.539h-5.975c-.323 0-.539.215-.539.539v27.025c0 1.938-1.023 3.176-2.853 3.176-1.777 0-2.8-1.238-2.8-3.176V15.07c0-.324-.215-.539-.538-.539h-5.975c-.323 0-.539.215-.539.539v26.163c0 6.891 3.769 10.39 9.852 10.39zm14.912-6.138c1.346 3.984 4.522 6.138 9.421 6.138 4.792 0 7.968-2.154 9.314-6.192.592-1.668.754-3.176.754-12.597v-1.615c0-.323-.216-.538-.539-.538h-8.883c-.323 0-.538.215-.538.538v4.738c0 .323.215.538.538.538h2.315c.216 0 .323.108.323.323 0 5.383-.107 5.922-.323 6.675-.323 1.077-1.453 1.777-2.799 1.777-1.346 0-2.476-.7-2.8-1.777-.269-.807-.322-1.292-.322-10.659 0-9.421.053-9.852.323-10.713.323-1.023 1.4-1.723 2.691-1.723 1.83 0 2.907 1.238 3.069 3.876.054.377.27.539.592.485l5.707-.97c.323-.053.484-.322.43-.645-.484-5.922-3.93-9.098-9.852-9.098-4.899 0-8.075 2.153-9.42 6.137-.539 1.723-.7 3.23-.7 12.651s.161 10.929.7 12.651zm43.876 6.138c4.791 0 8.021-2.154 9.367-6.192.592-1.668.754-3.176.754-12.597s-.162-10.928-.754-12.597c-1.346-4.038-4.576-6.191-9.367-6.191-4.791 0-8.022 2.153-9.367 6.19-.593 1.67-.754 3.177-.754 12.598 0 9.421.161 10.929.754 12.597 1.345 4.038 4.576 6.192 9.367 6.192zm0-6.353c-1.346 0-2.261-.754-2.584-1.777-.27-.86-.377-1.776-.377-10.659 0-8.883.108-9.798.377-10.66.323-1.022 1.238-1.776 2.584-1.776s2.261.754 2.584 1.777c.27.861.377 1.776.377 10.66 0 8.882-.108 9.797-.377 10.658-.323 1.023-1.238 1.777-2.584 1.777zm14.697.215c1.346 3.984 4.522 6.138 9.421 6.138 4.791 0 7.968-2.154 9.313-6.192.593-1.668.754-3.176.754-12.597v-1.615c0-.323-.215-.538-.538-.538h-8.883c-.323 0-.538.215-.538.538v4.738c0 .323.215.538.538.538h2.315c.215 0 .323.108.323.323 0 5.383-.108 5.922-.323 6.675-.323 1.077-1.454 1.777-2.8 1.777-1.345 0-2.476-.7-2.799-1.777-.27-.807-.323-1.292-.323-10.659 0-9.421.054-9.852.323-10.713.323-1.023 1.4-1.723 2.692-1.723 1.83 0 2.907 1.238 3.068 3.876.054.377.27.539.593.485l5.706-.97c.323-.053.485-.322.43-.645-.484-5.922-3.93-9.098-9.851-9.098-4.899 0-8.075 2.153-9.421 6.137-.538 1.723-.7 3.23-.7 12.651s.162 10.929.7 12.651zm34.454 0c1.346 3.984 4.522 6.138 9.421 6.138 4.792 0 7.968-2.154 9.314-6.192.592-1.668.754-3.176.754-12.597v-1.615c0-.323-.216-.538-.539-.538h-8.883c-.323 0-.538.215-.538.538v4.738c0 .323.215.538.538.538h2.315c.216 0 .323.108.323.323 0 5.383-.107 5.922-.323 6.675-.323 1.077-1.453 1.777-2.8 1.777-1.345 0-2.475-.7-2.798-1.777-.27-.807-.323-1.292-.323-10.659 0-9.421.053-9.852.323-10.713.323-1.023 1.4-1.723 2.691-1.723 1.83 0 2.907 1.238 3.069 3.876.054.377.269.539.592.485l5.707-.97c.323-.053.484-.322.43-.645-.484-5.922-3.93-9.098-9.852-9.098-4.899 0-8.075 2.153-9.42 6.137-.539 1.723-.7 3.23-.7 12.651s.161 10.929.7 12.651zm23.795 5.115c0 .323.216.538.539.538h5.975c.323 0 .539-.215.539-.538V15.07c0-.324-.216-.539-.539-.539h-5.975c-.323 0-.539.215-.539.539zm30.956-10.337c0-6.19-1.939-8.882-6.945-10.82l-2.207-.862c-2.854-1.13-3.446-1.992-3.446-4.737 0-2.477.915-3.661 2.8-3.661 1.938 0 2.853 1.346 2.907 3.984 0 .323.269.484.592.43l5.491-.861c.323-.054.485-.27.485-.592-.27-5.76-3.284-9.098-9.69-9.098-6.515 0-9.691 3.553-9.691 10.174 0 5.868 1.776 8.614 6.945 10.606l2.207.861c2.745 1.077 3.391 2.208 3.391 5.438 0 3.337-.915 4.36-2.907 4.36-2.1 0-3.068-1.346-3.176-4.737 0-.323-.215-.485-.592-.43l-5.76.914c-.323.054-.431.27-.431.593.108 6.298 3.284 9.798 9.906 9.798 7.267 0 10.12-3.877 10.12-11.36zm14.589 10.875c.323 0 .538-.215.538-.538V21.208c0-.216.108-.323.323-.323h5.76c.324 0 .539-.216.539-.539v-5.275c0-.324-.215-.539-.538-.539h-19.22c-.323 0-.538.215-.538.539v5.275c0 .323.215.539.538.539h5.76c.216 0 .324.107.324.323v29.394c0 .323.215.538.538.538zm10.39-.538c0 .323.215.538.538.538h5.976c.323 0 .538-.215.538-.538V15.07c0-.324-.215-.539-.538-.539h-5.976c-.323 0-.538.215-.538.539zm12.005 0c0 .323.216.538.539.538h5.114c.323 0 .538-.215.538-.538V27.614h.27l6.352 22.988c.108.376.323.538.754.538h6.46c.323 0 .538-.215.538-.538V15.07c0-.324-.215-.539-.538-.539h-5.114c-.323 0-.539.215-.539.539v22.987h-.269l-6.083-22.987c-.108-.377-.323-.539-.754-.539h-6.73c-.322 0-.538.215-.538.539zm25.68-5.115c1.345 3.984 4.522 6.138 9.42 6.138 4.792 0 7.968-2.154 9.314-6.192.592-1.668.754-3.176.754-12.597v-1.615c0-.323-.215-.538-.538-.538h-8.883c-.323 0-.539.215-.539.538v4.738c0 .323.216.538.539.538h2.315c.215 0 .323.108.323.323 0 5.383-.108 5.922-.323 6.675-.323 1.077-1.454 1.777-2.8 1.777-1.346 0-2.476-.7-2.8-1.777-.268-.807-.322-1.292-.322-10.659 0-9.421.054-9.852.323-10.713.323-1.023 1.4-1.723 2.692-1.723 1.83 0 2.907 1.238 3.068 3.876.054.377.27.539.592.485l5.707-.97c.323-.053.484-.322.43-.645-.484-5.922-3.93-9.098-9.851-9.098-4.9 0-8.076 2.153-9.421 6.137-.539 1.723-.7 3.23-.7 12.651s.161 10.929.7 12.651zm97.064 5.115c0 .323.216.538.539.538h16.742c.323 0 .539-.215.539-.538v-4.953c0-.323-.216-.539-.539-.539h-9.69v-.053l7.645-12.275c1.776-2.853 2.584-5.006 2.584-9.098 0-1.884-.162-3.176-.485-4.199-1.184-3.5-3.93-5.437-8.398-5.437-4.522 0-7.322 1.992-8.452 5.437-.323 1.077-.485 2.315-.485 4.414 0 .377.162.593.539.646l5.33.485c.376.054.645-.108.645-.538 0-2.154.054-2.638.216-3.069.323-.969.969-1.454 2.045-1.454 1.13 0 1.777.485 2.1 1.454.161.43.215.915.215 2.261 0 2.961-.43 4.2-1.615 6.083l-9.206 15.02c-.215.431-.269.646-.269 1.023zm25.357-.108c-.162.377 0 .646.376.646h5.707c.43 0 .646-.162.807-.538l6.191-14.966c1.346-3.23 1.885-5.384 1.885-10.39 0-3.392-.162-4.63-.485-5.707-1.13-3.5-4.037-5.491-8.506-5.491-4.468 0-7.375 1.992-8.506 5.49-.323 1.078-.484 2.316-.484 5.707 0 3.446.215 4.953.592 6.03 1.077 3.23 3.015 5.114 6.568 5.114.753 0 1.346-.107 1.615-.269 0 .054.108.108.108.108zm5.975-19.919c-1.077 0-1.723-.485-2.046-1.454-.161-.43-.215-.969-.215-3.876s.054-3.391.215-3.822c.323-.969.97-1.454 2.046-1.454 1.077 0 1.723.485 2.046 1.454.161.43.215.915.215 3.822s-.054 3.446-.215 3.876c-.323.97-.97 1.454-2.046 1.454zm13.513 20.027c0 .323.215.538.538.538h5.491c.323 0 .539-.215.539-.538v-6.245c0-.323-.216-.539-.539-.539h-5.49c-.324 0-.54.216-.54.539zm20.995 0c0 .323.216.538.539.538h5.222c.323 0 .538-.215.538-.538V29.444h.323l3.984 14.644c.108.323.323.538.7.538h2.96c.378 0 .593-.215.7-.538l3.984-14.644h.323v21.158c0 .323.216.538.539.538h5.222c.323 0 .538-.215.538-.538V15.07c0-.324-.215-.539-.538-.539h-5.76c-.485 0-.754.162-.862.539l-5.383 19.219h-.216l-5.599-19.22c-.107-.376-.376-.538-.861-.538h-5.814c-.323 0-.539.215-.539.539zm28.533 0c-.054.323.108.538.43.538h5.976c.377 0 .539-.215.593-.538l1.238-6.622h6.945l1.184 6.622c.054.323.215.538.592.538h5.976c.323 0 .484-.215.43-.538l-7.86-35.531c-.053-.324-.269-.539-.592-.539h-6.352c-.323 0-.485.215-.592.539zm9.26-12.22l2.422-12.706h.162l2.315 12.705zm17.065 12.22c0 .323.216.538.539.538h5.975c.323 0 .539-.215.539-.538V15.07c0-.324-.216-.539-.539-.539h-5.975c-.323 0-.539.215-.539.539zm5.169-40.107c.43 0 .7-.162 1.076-.539l5.6-6.137c.214-.27.053-.538-.27-.538h-5.384c-.43 0-.592.161-.86.538l-4.415 6.137c-.216.27-.054.539.269.539zm17.496 29.447h14.428c.323 0 .538-.215.538-.538v-5.06c0-.324-.215-.539-.538-.539h-14.428c-.323 0-.538.215-.538.538v5.061c0 .323.215.538.538.538zm30.31 6.191c1.13 3.553 4.144 5.492 8.451 5.492s7.376-1.885 8.452-5.492c.431-1.346.592-2.8.592-13.297 0-10.498-.161-11.951-.592-13.297-1.076-3.607-4.145-5.491-8.452-5.491s-7.268 1.938-8.398 5.49c-.43 1.347-.646 2.8-.646 13.298 0 10.498.161 11.951.592 13.297zm6.405-1.83c-.161-.538-.215-1.184-.215-11.467 0-10.282.054-10.928.215-11.467.27-.861.97-1.4 2.046-1.4 1.077 0 1.777.539 2.046 1.4.161.539.215 1.185.215 11.467 0 10.283-.054 10.929-.215 11.467-.27.861-.915 1.4-2.046 1.4-1.076 0-1.776-.539-2.046-1.4zm17.658 6.191c-.107.43.054.646.377.646h5.707c.43 0 .592-.162.7-.538l8.936-30.094c.054-.162.108-.377.108-.592V15.07c0-.324-.215-.539-.538-.539h-16.905c-.323 0-.538.215-.538.539v8.775c0 .323.215.538.538.538h4.845c.323 0 .539-.215.539-.538V20.83c0-.215.107-.323.323-.323h4.953v.108zm20.296.108c0 .323.216.538.539.538h5.49c.324 0 .54-.215.54-.538v-6.245c0-.323-.216-.539-.54-.539h-5.49c-.323 0-.539.216-.539.539zm19.22-1.67c1.399 1.723 3.93 2.693 6.729 2.693 6.083 0 10.013-3.177 10.013-10.552V15.07c0-.324-.215-.539-.538-.539h-5.976c-.323 0-.538.215-.538.539v26.648c0 2.53-1.023 3.553-2.907 3.553-.808 0-1.508-.323-2.046-.808-.323-.269-.539-.269-.808-.053l-3.876 3.768c-.269.215-.269.485-.054.754zm33.377-38.437c.43 0 .7-.162 1.077-.539l5.599-6.137c.215-.27.053-.538-.27-.538h-5.383c-.43 0-.592.161-.861.538l-4.415 6.137c-.215.27-.054.539.27.539zm-1.992 41.13c6.137 0 9.906-3.5 9.906-10.39V15.07c0-.324-.216-.539-.539-.539h-5.975c-.323 0-.539.215-.539.539v27.025c0 1.938-1.022 3.176-2.853 3.176-1.776 0-2.8-1.238-2.8-3.176V15.07c0-.324-.215-.539-.538-.539h-5.975c-.323 0-.539.215-.539.539v26.163c0 6.891 3.769 10.39 9.852 10.39zm14.751-1.023c0 .323.215.538.538.538h5.115c.323 0 .538-.215.538-.538V27.614h.27l6.352 22.988c.107.376.323.538.753.538h6.46c.324 0 .539-.215.539-.538V15.07c0-.324-.215-.539-.538-.539h-5.115c-.323 0-.538.215-.538.539v22.987h-.27l-6.083-22.987c-.107-.377-.323-.539-.753-.539h-6.73c-.323 0-.538.215-.538.539zm25.518 0c0 .323.215.538.538.538h5.976c.323 0 .538-.215.538-.538V15.07c0-.324-.215-.539-.538-.539h-5.976c-.323 0-.538.215-.538.539zm5.168-40.107c.43 0 .7-.162 1.077-.539l5.598-6.137c.216-.27.054-.538-.269-.538h-5.383c-.43 0-.592.161-.862.538l-4.414 6.137c-.215.27-.054.539.27.539zm91.143 40.645c.323 0 .484-.215.538-.538l7.322-35.531c.107-.324-.054-.539-.431-.539h-5.976c-.323 0-.538.162-.592.539l-3.553 23.149h-.162l-3.714-23.15c-.054-.376-.27-.538-.592-.538h-6.084c-.377 0-.538.215-.43.539l7.267 35.53c.108.324.27.539.593.539zm11.09-.538c0 .323.215.538.538.538h15.99c.322 0 .537-.215.537-.538v-5.276c0-.323-.215-.539-.538-.539h-9.152c-.215 0-.323-.107-.323-.323v-8.29c0-.215.108-.323.323-.323h7.914c.323 0 .538-.215.538-.539v-5.275c0-.323-.215-.539-.538-.539h-7.914c-.215 0-.323-.107-.323-.323v-7.967c0-.216.108-.323.323-.323h9.152c.323 0 .538-.216.538-.539v-5.275c0-.324-.215-.539-.538-.539h-15.989c-.323 0-.538.215-.538.539zm41.614.538c.27 0 .377-.27.27-.538l-5.007-15.505c2.53-1.723 4.091-4.737 4.091-9.367 0-8.13-4.199-11.198-10.713-11.198h-8.721c-.323 0-.539.215-.539.539V50.6c0 .324.216.539.539.539h5.975c.323 0 .539-.215.539-.538v-13.46c0-.214.107-.322.323-.322h2.046l4.145 13.89c.108.322.269.43.592.43zm-11.682-20.403h-1.561c-.216 0-.323-.108-.323-.323v-9.368c0-.215.107-.323.323-.323h1.561c2.746 0 3.93 1.185 3.93 5.007 0 3.876-1.184 5.007-3.93 5.007zm25.302 20.403c5.061 0 8.022-1.938 9.368-6.083.646-2.046.969-4.523.969-12.22 0-7.7-.323-10.176-.97-12.221-1.345-4.146-4.306-6.084-9.367-6.084h-9.26c-.322 0-.537.215-.537.539v14.75c0 .216-.108.323-.323.323h-1.454c-.323 0-.538.216-.538.539v3.983c0 .323.215.539.538.539h1.454c.215 0 .323.107.323.323v15.074c0 .323.215.538.538.538zm-.7-6.353h-1.722c-.215 0-.323-.107-.323-.323v-8.936c0-.216.108-.323.323-.323h2.369c.323 0 .538-.216.538-.539v-3.93c0-.322-.215-.538-.538-.538h-2.37c-.214 0-.322-.108-.322-.323v-8.667c0-.216.108-.323.323-.323h1.723c1.776 0 2.745.646 3.284 2.26.376 1.131.592 2.693.592 9.691 0 6.999-.216 8.56-.592 9.69-.539 1.615-1.508 2.261-3.284 2.261zm28.695 5.707c-.162.377 0 .646.377.646h5.706c.43 0 .646-.162.808-.538l6.19-14.966c1.347-3.23 1.885-5.384 1.885-10.39 0-3.392-.162-4.63-.485-5.707-1.13-3.5-4.037-5.491-8.506-5.491-4.468 0-7.375 1.992-8.506 5.49-.323 1.078-.484 2.316-.484 5.707 0 3.446.215 4.953.592 6.03 1.077 3.23 3.015 5.114 6.568 5.114.754 0 1.346-.107 1.615-.269 0 .054.108.108.108.108zm5.975-19.919c-1.076 0-1.722-.485-2.045-1.454-.162-.43-.216-.969-.216-3.876s.054-3.391.216-3.822c.323-.969.969-1.454 2.045-1.454 1.077 0 1.723.485 2.046 1.454.162.43.215.915.215 3.822s-.053 3.446-.215 3.876c-.323.97-.969 1.454-2.046 1.454zm13.89 15.612c1.13 3.446 3.984 5.438 8.398 5.438 4.522 0 7.322-1.939 8.452-5.384.323-1.023.485-2.423.485-5.707 0-3.337-.108-4.252-.377-5.114-.485-1.561-1.4-2.53-2.8-3.338v-.107c1.346-.808 2.315-1.83 2.8-3.338.27-.861.377-1.83.377-4.253 0-2.53-.162-3.93-.485-4.953-1.13-3.445-3.876-5.383-8.452-5.383-4.414 0-7.268 1.992-8.398 5.437-.323 1.077-.485 2.315-.485 3.984 0 .377.162.592.539.646l5.383.538c.377.054.646-.108.646-.538 0-1.777.054-2.261.162-2.692.323-.969.969-1.454 2.1-1.454 1.076 0 1.722.431 2.045 1.4.162.43.215.97.215 3.015 0 2.692-.053 3.176-.215 3.553-.323.97-1.077 1.292-2.315 1.292h-.861c-.323 0-.539.215-.539.538v5.007c0 .323.216.538.539.538h.807c1.292 0 2.046.324 2.369 1.346.162.377.215.916.215 3.823 0 2.853-.053 3.391-.215 3.822-.323.969-.969 1.4-2.046 1.4-1.13 0-1.776-.485-2.1-1.454-.107-.43-.16-.915-.16-2.692 0-.43-.27-.592-.647-.538l-5.383.538c-.377.054-.539.27-.539.646 0 1.67.162 2.907.485 3.984zm22.018 4.415c0 .323.216.538.539.538h5.49c.324 0 .54-.215.54-.538v-6.245c0-.323-.216-.539-.54-.539h-5.49c-.323 0-.539.216-.539.539zm14.105-.108c-.161.377 0 .646.377.646h5.707c.43 0 .646-.162.807-.538l6.191-14.966c1.346-3.23 1.884-5.384 1.884-10.39 0-3.392-.161-4.63-.484-5.707-1.13-3.5-4.038-5.491-8.506-5.491s-7.376 1.992-8.506 5.49c-.323 1.078-.485 2.316-.485 5.707 0 3.446.216 4.953.593 6.03 1.076 3.23 3.014 5.114 6.567 5.114.754 0 1.346-.107 1.616-.269 0 .054.107.108.107.108zm5.976-19.919c-1.077 0-1.723-.485-2.046-1.454-.161-.43-.215-.969-.215-3.876s.054-3.391.215-3.822c.323-.969.97-1.454 2.046-1.454 1.077 0 1.723.485 2.046 1.454.161.43.215.915.215 3.822s-.054 3.446-.215 3.876c-.323.97-.97 1.454-2.046 1.454zm13.943 15.558c1.13 3.553 4.145 5.492 8.452 5.492s7.376-1.885 8.452-5.492c.431-1.346.593-2.8.593-13.297 0-10.498-.162-11.951-.593-13.297-1.076-3.607-4.145-5.491-8.452-5.491s-7.267 1.938-8.398 5.49c-.43 1.347-.646 2.8-.646 13.298 0 10.498.161 11.951.592 13.297zm6.407-1.83c-.162-.538-.216-1.184-.216-11.467 0-10.282.054-10.928.216-11.467.269-.861.969-1.4 2.045-1.4 1.077 0 1.777.539 2.046 1.4.162.539.215 1.185.215 11.467 0 10.283-.053 10.929-.215 11.467-.27.861-.915 1.4-2.046 1.4-1.076 0-1.776-.539-2.045-1.4zm15.989 1.83c1.13 3.553 4.145 5.492 8.452 5.492 4.306 0 7.375-1.885 8.452-5.492.43-1.346.592-2.8.592-13.297 0-10.498-.162-11.951-.592-13.297-1.077-3.607-4.146-5.491-8.452-5.491-4.307 0-7.268 1.938-8.399 5.49-.43 1.347-.646 2.8-.646 13.298 0 10.498.162 11.951.593 13.297zm6.406-1.83c-.162-.538-.215-1.184-.215-11.467 0-10.282.053-10.928.215-11.467.27-.861.969-1.4 2.046-1.4 1.076 0 1.776.539 2.045 1.4.162.539.216 1.185.216 11.467 0 10.283-.054 10.929-.216 11.467-.269.861-.915 1.4-2.045 1.4-1.077 0-1.777-.539-2.046-1.4zm26.218 6.299c0 .323.215.538.538.538h5.976c.323 0 .538-.215.538-.538v-9.906l2.153-4.522 5.384 14.59c.054.268.215.376.538.376h6.407c.269 0 .43-.27.323-.538l-8.237-21.319 7.321-14.212c.162-.27 0-.539-.269-.539h-6.245c-.323 0-.538.108-.7.43l-6.675 14.16V15.07c0-.324-.215-.539-.538-.539h-5.976c-.323 0-.538.215-.538.539zm45.706.538c.269 0 .376-.27.269-.538l-5.007-15.505c2.53-1.723 4.092-4.737 4.092-9.367 0-8.13-4.2-11.198-10.714-11.198h-8.72c-.324 0-.54.215-.54.539V50.6c0 .324.216.539.54.539h5.975c.323 0 .538-.215.538-.538v-13.46c0-.214.108-.322.323-.322h2.046l4.145 13.89c.108.322.27.43.592.43zm-11.683-20.403h-1.56c-.216 0-.324-.108-.324-.323v-9.368c0-.215.108-.323.323-.323h1.561c2.746 0 3.93 1.185 3.93 5.007 0 3.876-1.184 5.007-3.93 5.007zm15.343 19.865c0 .323.216.538.539.538h5.49c.324 0 .54-.215.54-.538v-6.245c0-.323-.216-.539-.54-.539h-5.49c-.323 0-.539.216-.539.539z" fill="#fff"/></svg>