<svg width="273" height="51" viewBox="0 0 273 51" xmlns="http://www.w3.org/2000/svg"><path d="M84.21 33.84c-.036.216.072.36.288.36h3.996c.252 0 .36-.144.396-.36l.828-4.428h4.644l.792 4.428c.036.216.144.36.396.36h3.996c.216 0 .324-.144.288-.36l-5.256-23.76c-.036-.216-.18-.36-.396-.36h-4.248c-.216 0-.324.144-.396.36zm6.192-8.172l1.62-8.496h.108l1.548 8.496zm11.412 8.172c0 .216.144.36.36.36h10.764c.216 0 .36-.144.36-.36v-3.528c0-.216-.144-.36-.36-.36h-6.192c-.144 0-.216-.072-.216-.216V10.08c0-.216-.144-.36-.36-.36h-3.996c-.216 0-.36.144-.36.36zm13.86 0c0 .216.144.36.36.36h3.492c.216 0 .36-.144.36-.36V19.692h.216l2.664 9.792c.072.216.216.36.468.36h1.98c.252 0 .396-.144.468-.36l2.664-9.792h.216V33.84c0 .216.144.36.36.36h3.492c.216 0 .36-.144.36-.36V10.08c0-.216-.144-.36-.36-.36h-3.852c-.324 0-.504.108-.576.36l-3.6 12.852h-.144l-3.744-12.852c-.072-.252-.252-.36-.576-.36h-3.888c-.216 0-.36.144-.36.36zm20.412 0c0 .216.144.36.36.36h10.692c.216 0 .36-.144.36-.36v-3.528c0-.216-.144-.36-.36-.36h-6.12c-.144 0-.216-.072-.216-.216v-5.544c0-.144.072-.216.216-.216h5.292c.216 0 .36-.144.36-.36v-3.528c0-.216-.144-.36-.36-.36h-5.292c-.144 0-.216-.072-.216-.216v-5.328c0-.144.072-.216.216-.216h6.12c.216 0 .36-.144.36-.36V10.08c0-.216-.144-.36-.36-.36h-10.692c-.216 0-.36.144-.36.36zm27.828.36c.18 0 .252-.18.18-.36l-3.348-10.368c1.692-1.152 2.736-3.168 2.736-6.264 0-5.436-2.808-7.488-7.164-7.488h-5.832c-.216 0-.36.144-.36.36v23.76c0 .216.144.36.36.36h3.996c.216 0 .36-.144.36-.36v-9c0-.144.072-.216.216-.216h1.368l2.772 9.288c.072.216.18.288.396.288zm-7.812-13.644h-1.044c-.144 0-.216-.072-.216-.216v-6.264c0-.144.072-.216.216-.216h1.044c1.836 0 2.628.792 2.628 3.348 0 2.592-.792 3.348-2.628 3.348zM166.47 33.84c0 .216.144.36.36.36h3.996c.216 0 .36-.144.36-.36V10.08c0-.216-.144-.36-.36-.36h-3.996c-.216 0-.36.144-.36.36zm3.456-26.82c.288 0 .468-.108.72-.36l3.744-4.104c.144-.18.036-.36-.18-.36h-3.6c-.288 0-.396.108-.576.36l-2.952 4.104c-.144.18-.036.36.18.36zm3.24 26.82c-.036.216.072.36.288.36h3.996c.252 0 .36-.144.396-.36l.828-4.428h4.644l.792 4.428c.036.216.144.36.396.36h3.996c.216 0 .324-.144.288-.36l-5.256-23.76c-.036-.216-.18-.36-.396-.36h-4.248c-.216 0-.324.144-.396.36zm6.192-8.172l1.62-8.496h.108l1.548 8.496z" fill="#fff"/></svg>