<svg width="489.125" height="79" viewBox="0 0 489.125 79" xmlns="http://www.w3.org/2000/svg"><path d="M148.25 52.788c0 .337.225.562.562.562h5.448c.337 0 .561-.225.561-.562v-22.07h.337l4.156 15.275c.112.337.337.562.73.562h3.089c.393 0 .617-.225.73-.562l4.155-15.275h.337v22.07c0 .337.225.562.562.562h5.447c.337 0 .562-.225.562-.562V15.724c0-.337-.225-.562-.562-.562h-6.009c-.505 0-.786.169-.898.562l-5.616 20.048h-.225l-5.84-20.048c-.112-.393-.393-.562-.899-.562h-6.065c-.337 0-.561.225-.561.562zm29.765 0c-.057.337.112.562.449.562h6.234c.393 0 .561-.225.617-.562l1.292-6.907h7.244l1.236 6.907c.056.337.224.562.618.562h6.233c.337 0 .506-.225.45-.562l-8.2-37.064c-.056-.337-.28-.562-.617-.562h-6.627c-.337 0-.506.225-.618.562zm9.659-12.748l2.527-13.253h.169l2.414 13.253zm17.802 12.748c0 .337.225.562.562.562h16.791c.337 0 .562-.225.562-.562v-5.503c0-.337-.225-.562-.562-.562h-9.66c-.224 0-.336-.112-.336-.337V15.724c0-.337-.225-.562-.562-.562h-6.233c-.337 0-.562.225-.562.562zm21.621 0c0 .337.225.562.562.562h16.791c.337 0 .562-.225.562-.562v-5.503c0-.337-.225-.562-.562-.562h-9.66c-.224 0-.336-.112-.336-.337V15.724c0-.337-.225-.562-.562-.562h-6.233c-.337 0-.562.225-.562.562zm30.27 1.067c4.998 0 8.367-2.246 9.771-6.458.618-1.74.786-3.313.786-13.14 0-9.829-.168-11.401-.786-13.142-1.404-4.212-4.773-6.458-9.771-6.458-4.998 0-8.368 2.246-9.772 6.458-.618 1.74-.786 3.313-.786 13.141s.168 11.4.786 13.141c1.404 4.212 4.774 6.458 9.772 6.458zm0-6.626c-1.404 0-2.359-.786-2.696-1.854-.28-.898-.393-1.853-.393-11.119s.112-10.22.393-11.12c.337-1.066 1.292-1.853 2.696-1.853 1.404 0 2.358.787 2.695 1.854.281.898.393 1.853.393 11.12 0 9.265-.112 10.22-.393 11.118-.337 1.068-1.291 1.854-2.695 1.854zm36.671 6.121c.281 0 .393-.28.281-.562l-5.223-16.173c2.64-1.797 4.268-4.942 4.268-9.772 0-8.48-4.38-11.68-11.175-11.68h-9.098c-.337 0-.562.224-.562.56v37.065c0 .337.225.562.562.562h6.234c.337 0 .561-.225.561-.562v-14.04c0-.224.113-.336.337-.336h2.134l4.324 14.489c.113.337.281.449.618.449zm-12.186-21.284h-1.629c-.224 0-.337-.112-.337-.337v-9.772c0-.224.113-.337.337-.337h1.629c2.864 0 4.1 1.236 4.1 5.223 0 4.044-1.236 5.223-4.1 5.223zm16.23 15.444c1.347 4.1 4.436 6.345 9.49 6.345 6.122 0 9.716-3.257 10.053-9.659 0-.337-.113-.618-.506-.674l-5.896-1.01c-.337-.057-.618.112-.618.505-.112 3.032-1.067 4.212-2.92 4.212-1.348 0-2.134-.562-2.527-1.741-.225-.843-.337-1.516-.337-11.232 0-9.715.112-10.39.337-11.232.393-1.179 1.179-1.74 2.527-1.74 1.853 0 2.808 1.179 2.92 4.211 0 .393.28.562.618.506l5.896-1.011c.393-.056.506-.337.506-.674-.337-6.402-3.931-9.66-10.053-9.66-5.054 0-8.143 2.247-9.49 6.347-.506 1.628-.73 3.37-.73 13.253 0 9.884.224 11.625.73 13.254zm20.497 5.278c-.056.337.113.562.45.562h6.233c.393 0 .562-.225.618-.562l1.292-6.907h7.244l1.236 6.907c.056.337.224.562.617.562h6.234c.337 0 .505-.225.45-.562l-8.2-37.064c-.056-.337-.28-.562-.618-.562h-6.626c-.337 0-.506.225-.618.562zm9.66-12.748l2.527-13.253h.168l2.415 13.253z" fill="#fff"/></svg>