<svg width="489.125" height="79" viewBox="0 0 489.125 79" xmlns="http://www.w3.org/2000/svg"><path d="M171.669 53.35c.337 0 .561-.225.561-.562V22.126c0-.225.113-.337.337-.337h6.01c.336 0 .56-.225.56-.562v-5.503c0-.337-.224-.562-.56-.562h-20.05c-.336 0-.561.225-.561.562v5.503c0 .337.225.562.562.562h6.009c.224 0 .337.112.337.337v30.662c0 .337.224.562.561.562zm10.838-.562c0 .337.225.562.562.562h16.679c.337 0 .562-.225.562-.562v-5.503c0-.337-.225-.562-.562-.562h-9.547c-.225 0-.337-.112-.337-.337v-8.648c0-.225.112-.337.337-.337h8.255c.337 0 .562-.225.562-.562v-5.503c0-.337-.225-.562-.562-.562h-8.255c-.225 0-.337-.112-.337-.337v-8.311c0-.225.112-.337.337-.337h9.547c.337 0 .562-.225.562-.562v-5.503c0-.337-.225-.562-.562-.562h-16.68c-.336 0-.56.225-.56.562zm21.902 0c0 .337.225.562.562.562h5.335c.337 0 .561-.225.561-.562v-23.98h.281l6.627 23.98c.112.394.337.562.786.562h6.74c.336 0 .56-.225.56-.562V15.724c0-.337-.224-.562-.56-.562h-5.336c-.337 0-.562.225-.562.562v23.98h-.28l-6.346-23.98c-.113-.393-.337-.562-.786-.562h-7.02c-.337 0-.562.225-.562.562zm26.62 0c0 .337.224.562.56.562h16.68c.337 0 .562-.225.562-.562v-5.503c0-.337-.225-.562-.562-.562h-9.547c-.225 0-.337-.112-.337-.337v-8.648c0-.225.112-.337.337-.337h8.255c.337 0 .562-.225.562-.562v-5.503c0-.337-.225-.562-.562-.562h-8.255c-.225 0-.337-.112-.337-.337v-8.311c0-.225.112-.337.337-.337h9.547c.337 0 .562-.225.562-.562v-5.503c0-.337-.225-.562-.562-.562h-16.68c-.336 0-.56.225-.56.562zm43.41.562c.28 0 .393-.28.28-.562l-5.222-16.173c2.64-1.797 4.268-4.942 4.268-9.772 0-8.48-4.38-11.68-11.176-11.68h-9.097c-.337 0-.562.224-.562.56v37.065c0 .337.225.562.562.562h6.233c.337 0 .562-.225.562-.562v-14.04c0-.224.112-.336.337-.336h2.134l4.324 14.489c.112.337.28.449.618.449zm-12.187-21.284h-1.628c-.225 0-.337-.112-.337-.337v-9.772c0-.224.112-.337.337-.337h1.628c2.865 0 4.1 1.236 4.1 5.223 0 4.044-1.235 5.223-4.1 5.223zm16.174 20.722c0 .337.225.562.562.562h6.233c.337 0 .562-.225.562-.562V15.724c0-.337-.225-.562-.562-.562h-6.233c-.337 0-.562.225-.562.562zm12.523 0c0 .337.225.562.562.562h6.234c.337 0 .561-.225.561-.562V38.131c0-.225.113-.337.337-.337h8.255c.337 0 .562-.225.562-.561v-5.56c0-.337-.225-.562-.562-.562h-8.255c-.224 0-.337-.112-.337-.337v-8.648c0-.225.113-.337.337-.337h9.547c.337 0 .562-.225.562-.562v-5.503c0-.337-.225-.562-.562-.562h-16.679c-.337 0-.562.225-.562.562zm21.678 0c0 .337.224.562.561.562h16.68c.336 0 .56-.225.56-.562v-5.503c0-.337-.224-.562-.56-.562h-9.548c-.224 0-.337-.112-.337-.337v-8.648c0-.225.113-.337.337-.337h8.256c.337 0 .561-.225.561-.562v-5.503c0-.337-.224-.562-.561-.562h-8.256c-.224 0-.337-.112-.337-.337v-8.311c0-.225.113-.337.337-.337h9.547c.337 0 .562-.225.562-.562v-5.503c0-.337-.225-.562-.562-.562h-16.679c-.337 0-.561.225-.561.562z" fill="#fff"/></svg>