<svg width="489.125" height="79" viewBox="0 0 489.125 79" xmlns="http://www.w3.org/2000/svg"><path d="M156.646 53.35c.337 0 .562-.225.562-.562V39.535c0-.225.112-.337.337-.337h1.853c6.795 0 11.232-3.37 11.232-12.018 0-8.704-4.268-12.018-11.232-12.018h-8.985c-.337 0-.562.225-.562.562v37.064c0 .337.225.562.562.562zm2.527-20.61h-1.628c-.225 0-.337-.112-.337-.337V21.957c0-.224.112-.337.337-.337h1.628c2.865 0 4.1 1.236 4.1 5.56s-1.235 5.56-4.1 5.56zm25.553 21.115c4.998 0 8.367-2.246 9.771-6.458.618-1.74.786-3.313.786-13.14 0-9.829-.168-11.401-.786-13.142-1.404-4.212-4.773-6.458-9.771-6.458-4.999 0-8.368 2.246-9.772 6.458-.618 1.74-.786 3.313-.786 13.141s.168 11.4.786 13.141c1.404 4.212 4.773 6.458 9.772 6.458zm0-6.626c-1.404 0-2.36-.786-2.696-1.854-.28-.898-.393-1.853-.393-11.119s.112-10.22.393-11.12c.337-1.066 1.292-1.853 2.696-1.853 1.404 0 2.358.787 2.695 1.854.281.898.393 1.853.393 11.12 0 9.265-.112 10.22-.393 11.118-.337 1.068-1.291 1.854-2.695 1.854zm36.671 6.121c.28 0 .393-.28.28-.562l-5.222-16.173c2.64-1.797 4.268-4.942 4.268-9.772 0-8.48-4.38-11.68-11.175-11.68h-9.098c-.337 0-.562.224-.562.56v37.065c0 .337.225.562.562.562h6.234c.337 0 .561-.225.561-.562v-14.04c0-.224.112-.336.337-.336h2.134L214.04 52.9c.113.337.281.449.618.449zm-12.186-21.284h-1.629c-.225 0-.337-.112-.337-.337v-9.772c0-.224.112-.337.337-.337h1.629c2.864 0 4.1 1.236 4.1 5.223 0 4.044-1.236 5.223-4.1 5.223zm27.742 21.284c.337 0 .562-.225.562-.562V22.126c0-.225.112-.337.337-.337h6.009c.336 0 .561-.225.561-.562v-5.503c0-.337-.225-.562-.561-.562h-20.05c-.336 0-.56.225-.56.562v5.503c0 .337.224.562.56.562h6.01c.225 0 .337.112.337.337v30.662c0 .337.224.562.561.562zm23.081-42.4c.45 0 .73-.168 1.123-.561l5.84-6.402c.225-.281.057-.562-.28-.562h-5.616c-.45 0-.618.169-.898.562l-4.605 6.402c-.225.28-.057.561.28.561zm-2.078 42.905c6.402 0 10.333-3.65 10.333-10.838V15.724c0-.337-.224-.562-.561-.562h-6.234c-.337 0-.561.225-.561.562v28.191c0 2.022-1.067 3.314-2.977 3.314-1.853 0-2.92-1.292-2.92-3.314V15.724c0-.337-.225-.562-.562-.562h-6.233c-.337 0-.562.225-.562.562v27.293c0 7.188 3.931 10.838 10.277 10.838zm15.556-6.402c1.404 4.156 4.718 6.402 9.828 6.402 4.998 0 8.311-2.246 9.715-6.458.618-1.74.787-3.313.787-13.14V32.57c0-.337-.225-.561-.562-.561h-9.266c-.337 0-.562.224-.562.561v4.942c0 .337.225.562.562.562h2.415c.224 0 .337.112.337.337 0 5.616-.113 6.177-.337 6.963-.337 1.124-1.517 1.854-2.92 1.854-1.405 0-2.584-.73-2.92-1.854-.282-.842-.338-1.347-.338-11.119 0-9.828.056-10.277.337-11.175.337-1.067 1.46-1.798 2.808-1.798 1.91 0 3.033 1.292 3.201 4.044.056.393.281.561.618.505l5.953-1.01c.337-.057.505-.337.449-.674-.505-6.178-4.1-9.491-10.277-9.491-5.11 0-8.424 2.246-9.828 6.402-.561 1.797-.73 3.37-.73 13.197 0 9.828.169 11.4.73 13.197zm21.846 5.335c-.056.337.112.562.45.562h6.233c.393 0 .561-.225.618-.562l1.291-6.907h7.245l1.235 6.907c.056.337.225.562.618.562h6.233c.337 0 .506-.225.45-.562l-8.2-37.064c-.056-.337-.28-.562-.617-.562h-6.627c-.337 0-.505.225-.618.562zm9.66-12.748l2.526-13.253h.169l2.415 13.253zm17.801 12.748c0 .337.225.562.562.562h16.791c.337 0 .562-.225.562-.562v-5.503c0-.337-.225-.562-.562-.562h-9.659c-.224 0-.337-.112-.337-.337V15.724c0-.337-.224-.562-.561-.562h-6.234c-.337 0-.562.225-.562.562z" fill="#fff"/></svg>