<svg width="227.5" height="42" viewBox="0 0 227.5 42" xmlns="http://www.w3.org/2000/svg"><path d="M75.315 28.13c.178 0 .296-.118.296-.296V11.666c0-.118.06-.177.178-.177h3.168c.178 0 .296-.119.296-.296V8.29c0-.178-.118-.296-.296-.296h-10.57c-.179 0-.297.118-.297.296v2.902c0 .177.118.296.296.296h3.169c.118 0 .177.059.177.177v16.168c0 .178.119.296.296.296zm5.715-.296c0 .178.118.296.296.296h8.795c.177 0 .296-.118.296-.296v-2.902c0-.178-.119-.296-.296-.296h-5.034c-.119 0-.178-.06-.178-.178v-4.56c0-.118.06-.177.178-.177h4.352c.178 0 .297-.119.297-.297v-2.901c0-.178-.119-.297-.297-.297h-4.352c-.119 0-.178-.059-.178-.177v-4.383c0-.118.06-.177.178-.177h5.034c.177 0 .296-.119.296-.296V8.29c0-.178-.119-.296-.296-.296h-8.795c-.178 0-.296.118-.296.296zm11.548 0c0 .178.119.296.296.296h2.813c.178 0 .296-.118.296-.296V15.19h.149l3.494 12.644c.059.207.177.296.414.296h3.553c.178 0 .297-.118.297-.296V8.29c0-.178-.119-.296-.297-.296h-2.813c-.177 0-.296.118-.296.296v12.644h-.148L96.99 8.29c-.059-.208-.177-.296-.414-.296h-3.702c-.177 0-.296.118-.296.296zm14.036 0c0 .178.118.296.296.296h8.794c.178 0 .296-.118.296-.296v-2.902c0-.178-.118-.296-.296-.296h-5.034c-.118 0-.177-.06-.177-.178v-4.56c0-.118.059-.177.177-.177h4.353c.178 0 .296-.119.296-.297v-2.901c0-.178-.118-.297-.296-.297h-4.353c-.118 0-.177-.059-.177-.177v-4.383c0-.118.059-.177.177-.177h5.034c.178 0 .296-.119.296-.296V8.29c0-.178-.118-.296-.296-.296h-8.794c-.178 0-.296.118-.296.296zm22.889.296c.148 0 .207-.148.148-.296l-2.754-8.528c1.392-.948 2.25-2.606 2.25-5.152 0-4.472-2.309-6.16-5.892-6.16h-4.797c-.178 0-.296.12-.296.297v19.543c0 .178.118.296.296.296h3.287c.178 0 .296-.118.296-.296V20.43c0-.118.06-.177.178-.177h1.125l2.28 7.64c.06.177.148.236.326.236zm-6.426-11.223h-.858c-.119 0-.178-.059-.178-.177v-5.152c0-.119.06-.178.178-.178h.858c1.51 0 2.162.651 2.162 2.754 0 2.132-.651 2.753-2.162 2.753zm8.528 10.927c0 .178.119.296.296.296h3.287c.178 0 .296-.118.296-.296V8.29c0-.178-.118-.296-.296-.296h-3.287c-.177 0-.296.118-.296.296zm6.604 0c0 .178.118.296.296.296h3.286c.178 0 .297-.118.297-.296v-7.729c0-.118.059-.177.177-.177h4.353c.178 0 .296-.119.296-.296V16.7c0-.177-.118-.296-.296-.296h-4.353c-.118 0-.177-.06-.177-.178v-4.56c0-.118.059-.177.177-.177h5.034c.178 0 .296-.119.296-.296V8.29c0-.178-.118-.296-.296-.296h-8.794c-.178 0-.296.118-.296.296zm11.43 0c0 .178.118.296.295.296h8.795c.178 0 .296-.118.296-.296v-2.902c0-.178-.118-.296-.296-.296h-5.034c-.118 0-.178-.06-.178-.178v-4.56c0-.118.06-.177.178-.177h4.353c.178 0 .296-.119.296-.297v-2.901c0-.178-.118-.297-.296-.297h-4.353c-.118 0-.178-.059-.178-.177v-4.383c0-.118.06-.177.178-.177h5.034c.178 0 .296-.119.296-.296V8.29c0-.178-.118-.296-.296-.296h-8.795c-.177 0-.296.118-.296.296z" fill="#fff"/></svg>