<svg width="227.5" height="23" viewBox="0 0 227.5 23" xmlns="http://www.w3.org/2000/svg"><path d="M20.905 15.218c-.016.097.065.162.162.162h.518c.097 0 .146-.065.162-.162l.55-2.638h2.687l.55 2.638c.016.097.065.162.178.162h.518c.097 0 .162-.065.146-.162L24.11 4.536c-.016-.097-.081-.162-.178-.162h-.534c-.097 0-.146.065-.178.162zm1.554-3.399l1.181-5.616h.033l1.149 5.616zM23.851 3c.113 0 .162-.033.275-.162l1.408-1.667c.065-.081.032-.162-.065-.162h-.534c-.145 0-.194.048-.275.162l-1.214 1.667c-.065.08-.032.162.065.162zm7.008 12.22c0 .096.065.161.162.161h.47c.096 0 .161-.065.161-.162V6.77h.049l1.942 6.49c.032.113.08.162.178.162h.323c.098 0 .146-.049.178-.162l1.943-6.49h.048v8.448c0 .097.065.162.162.162h.47c.097 0 .161-.065.161-.162V4.536c0-.097-.064-.162-.162-.162h-.55c-.097 0-.178.049-.21.162l-2.169 7.38h-.032l-2.202-7.38c-.032-.113-.097-.162-.21-.162h-.55c-.097 0-.162.065-.162.162zm7.753 0c-.017.096.064.161.161.161h.518c.097 0 .146-.065.162-.162l.55-2.638h2.687l.55 2.638c.017.097.065.162.178.162h.518c.097 0 .162-.065.146-.162L41.816 4.536c-.016-.097-.08-.162-.178-.162h-.534c-.097 0-.146.065-.178.162zm1.553-3.4l1.182-5.616h.032l1.15 5.616zm5.422 3.4c0 .096.065.161.162.161h.453c.097 0 .162-.065.162-.162V6.203h.049l3.075 9.015c.048.13.113.162.259.162h.615c.097 0 .162-.065.162-.162V4.536c0-.097-.065-.162-.162-.162h-.453c-.098 0-.162.065-.162.162v9.015h-.049l-3.043-9.015c-.048-.13-.113-.162-.259-.162h-.647c-.097 0-.162.065-.162.162zm7.138 0c0 .096.064.161.162.161h.453c.097 0 .162-.065.162-.162V6.203h.048l3.075 9.015c.049.13.114.162.26.162h.614c.097 0 .162-.065.162-.162V4.536c0-.097-.065-.162-.162-.162h-.453c-.097 0-.162.065-.162.162v9.015h-.048l-3.043-9.015c-.049-.13-.113-.162-.259-.162h-.647c-.098 0-.162.065-.162.162zm10.115 0c0 .096.065.161.162.161h.47c.097 0 .161-.065.161-.162V6.77h.049l1.942 6.49c.033.113.081.162.178.162h.324c.097 0 .146-.049.178-.162l1.942-6.49h.049v8.448c0 .097.064.162.161.162h.47c.097 0 .162-.065.162-.162V4.536c0-.097-.065-.162-.162-.162h-.55c-.098 0-.178.049-.21.162l-2.17 7.38h-.032l-2.201-7.38c-.032-.113-.097-.162-.21-.162h-.55c-.098 0-.163.065-.163.162zm8.206 0c0 .096.065.161.162.161h.728c.097 0 .162-.065.162-.162v-1.052c0-.097-.065-.162-.162-.162h-.728c-.097 0-.162.065-.162.162zm5.212.161c.097 0 .145-.065.161-.162l2.185-10.682c.017-.097-.016-.162-.129-.162h-.534c-.097 0-.146.065-.162.162l-1.732 8.87H76l-1.748-8.87c-.016-.097-.081-.162-.178-.162h-.534c-.114 0-.146.065-.13.162l2.185 10.682c.016.097.065.162.162.162zm2.346-.162c0 .097.065.162.162.162h.729c.097 0 .161-.065.161-.162v-1.052c0-.097-.064-.162-.161-.162h-.729c-.097 0-.162.065-.162.162zm5.536 0c0 .097.064.162.162.162h3.835c.097 0 .162-.065.162-.162v-.437c0-.097-.065-.162-.162-.162H85.03v-.016l2.638-5.18c.405-.808.631-1.456.631-2.54 0-.712-.032-1.004-.13-1.311-.274-.858-.938-1.327-1.941-1.327-1.004 0-1.668.485-1.943 1.327-.097.307-.145.599-.145 1.424 0 .114.048.178.162.194l.453.049c.113.016.178-.049.178-.162 0-.841.032-1.052.097-1.262.178-.518.583-.81 1.181-.81.615 0 1.02.292 1.182.81.08.21.113.42.113 1.068 0 .906-.194 1.473-.534 2.153l-2.768 5.502a.441.441 0 00-.064.26zm9.177 0c0 .097.064.162.161.162h.518c.097 0 .162-.065.162-.162v-4.855c0-.065.033-.097.097-.097h2.59c.097 0 .162-.065.162-.162v-.47c0-.097-.065-.161-.162-.161h-2.59c-.064 0-.097-.033-.097-.098v-4.11c0-.065.033-.098.097-.098h2.962c.097 0 .162-.064.162-.162v-.469c0-.097-.065-.162-.162-.162h-3.739c-.097 0-.161.065-.161.162zm7.995.291c1.424 0 2.38-.89 2.38-2.719V4.536c0-.097-.066-.162-.163-.162h-.502c-.097 0-.161.065-.161.162v8.32c0 1.278-.632 1.86-1.554 1.86-.923 0-1.538-.582-1.538-1.86v-8.32c0-.097-.064-.162-.162-.162h-.517c-.098 0-.162.065-.162.162v8.254c0 1.83.955 2.72 2.379 2.72zm4.564-.29c0 .096.065.161.162.161h3.722c.098 0 .162-.065.162-.162v-.47c0-.096-.064-.161-.162-.161h-2.945c-.065 0-.097-.032-.097-.097V4.536c0-.097-.065-.162-.162-.162h-.518c-.097 0-.162.065-.162.162zm5.568 0c0 .096.064.161.161.161h3.723c.097 0 .162-.065.162-.162v-.47c0-.096-.065-.161-.162-.161h-2.946c-.064 0-.097-.032-.097-.097V4.536c0-.097-.064-.162-.162-.162h-.518c-.097 0-.161.065-.161.162zm7.429.29c1.132 0 1.893-.517 2.217-1.505.162-.485.21-.906.21-4.127 0-3.22-.048-3.641-.21-4.127-.324-.987-1.085-1.505-2.217-1.505-1.133 0-1.894.518-2.218 1.505-.162.486-.21.906-.21 4.127 0 3.22.048 3.642.21 4.127.324.988 1.085 1.505 2.218 1.505zm0-.793c-.696 0-1.182-.323-1.409-.97-.113-.373-.161-.713-.161-3.869s.048-3.496.161-3.868c.227-.664.713-.971 1.409-.971.695 0 1.197.307 1.408.97.113.373.178.713.178 3.87 0 3.155-.065 3.495-.178 3.867-.21.648-.713.971-1.408.971zm9.03.664c.082 0 .114-.065.082-.162l-1.49-5.017c.875-.389 1.36-1.246 1.36-2.784 0-2.233-.874-3.043-2.8-3.043h-1.57c-.097 0-.162.065-.162.162v10.682c0 .097.065.162.162.162h.518c.097 0 .162-.065.162-.162v-4.661c0-.065.032-.097.097-.097h.76c.244 0 .47-.016.68-.049l1.425 4.856c.032.08.08.113.178.113zm-2.783-5.697h-.858c-.065 0-.097-.032-.097-.097V5.264c0-.064.032-.097.097-.097h.858c1.343 0 1.894.55 1.894 2.25 0 1.764-.583 2.266-1.894 2.266zm6.878 5.697c1.328 0 2.056-.583 2.396-1.635.194-.599.259-1.327.259-3.868 0-2.557-.065-3.27-.26-3.868-.339-1.052-1.067-1.635-2.395-1.635h-1.974c-.097 0-.162.065-.162.162v4.807c0 .065-.032.097-.097.097h-.55c-.097 0-.162.065-.162.162v.388c0 .098.065.162.162.162h.55c.065 0 .097.033.097.097v4.97c0 .096.065.161.162.161zm-.097-.793h-1.1c-.065 0-.097-.032-.097-.097v-4.24c0-.065.032-.098.097-.098h1.214c.097 0 .162-.064.162-.162v-.388c0-.097-.065-.162-.162-.162H130.8c-.065 0-.097-.032-.097-.097V5.264c0-.064.032-.097.097-.097h1.1c.923 0 1.425.356 1.684 1.117.161.502.226 1.165.226 3.593s-.065 3.091-.226 3.593c-.26.76-.761 1.117-1.684 1.117zm4.791.631c0 .097.065.162.162.162h.453c.097 0 .162-.065.162-.162V6.203h.049l3.075 9.015c.048.13.113.162.259.162h.615c.097 0 .162-.065.162-.162V4.536c0-.097-.065-.162-.162-.162h-.454c-.097 0-.161.065-.161.162v9.015h-.049l-3.043-9.015c-.048-.13-.113-.162-.259-.162h-.647c-.097 0-.162.065-.162.162zm6.442 0c-.016.097.064.162.162.162h.517c.098 0 .146-.065.162-.162l.55-2.638h2.687l.55 2.638c.017.097.065.162.179.162h.518c.097 0 .161-.065.145-.162l-2.266-10.682c-.016-.097-.08-.162-.178-.162h-.534c-.097 0-.145.065-.178.162zm1.553-3.399l1.182-5.616h.032l1.15 5.616zm10.65 3.69c1.133 0 1.894-.517 2.217-1.505.162-.485.21-.906.21-4.127 0-3.22-.048-3.641-.21-4.127-.323-.987-1.084-1.505-2.217-1.505s-1.893.518-2.217 1.505c-.162.486-.21.906-.21 4.127 0 3.22.048 3.642.21 4.127.324.988 1.084 1.505 2.217 1.505zm0-.793c-.696 0-1.181-.323-1.408-.97-.113-.373-.162-.713-.162-3.869s.049-3.496.162-3.868c.227-.664.712-.971 1.408-.971s1.198.307 1.408.97c.114.373.178.713.178 3.87 0 3.155-.064 3.495-.178 3.867-.21.648-.712.971-1.408.971zm4.483-.712c.324.988 1.085 1.505 2.218 1.505s1.893-.517 2.217-1.505c.162-.485.21-.906.21-3.755v-.437c0-.097-.064-.161-.161-.161h-2.072c-.097 0-.162.064-.162.161v.454c0 .097.065.161.162.161h1.31c.066 0 .098.033.098.098 0 2.508-.049 2.848-.162 3.22-.226.648-.728.971-1.424.971s-1.198-.323-1.424-.97c-.114-.373-.162-.713-.162-3.869s.048-3.496.162-3.868c.226-.664.712-.971 1.408-.971.97 0 1.44.599 1.586 1.57.016.097.08.145.194.113l.47-.097c.097-.032.129-.097.113-.21-.178-1.328-.939-2.17-2.363-2.17-1.133 0-1.894.519-2.218 1.506-.161.486-.21.906-.21 4.127 0 3.22.049 3.642.21 4.127zm9.404 1.214c0 .097.065.162.162.162h3.835c.098 0 .162-.065.162-.162v-.437c0-.097-.064-.162-.162-.162h-3.107v-.016l2.638-5.18c.405-.808.631-1.456.631-2.54 0-.712-.032-1.004-.13-1.311-.274-.858-.938-1.327-1.941-1.327-1.004 0-1.667.485-1.943 1.327-.097.307-.145.599-.145 1.424 0 .114.048.178.162.194l.453.049c.113.016.178-.049.178-.162 0-.841.032-1.052.097-1.262.178-.518.583-.81 1.181-.81.616 0 1.02.292 1.182.81.08.21.113.42.113 1.068 0 .906-.194 1.473-.534 2.153l-2.767 5.502a.441.441 0 00-.065.26zm9.177 0c0 .097.064.162.162.162h1.65c1.943 0 2.768-.793 2.768-3.043 0-1.732-.566-2.395-1.392-2.686v-.033c.842-.324 1.279-1.02 1.279-2.444 0-2.071-.729-2.8-2.59-2.8h-1.715c-.098 0-.162.065-.162.162zm.938-5.907c-.064 0-.097-.033-.097-.097v-3.95c0-.064.033-.097.097-.097h.923c1.295 0 1.764.453 1.764 2.088 0 1.554-.566 2.056-1.716 2.056zm-.097 5.179v-4.322c0-.064.033-.097.097-.097h.988c1.214 0 1.812.534 1.812 2.25 0 1.78-.55 2.266-1.91 2.266h-.89c-.064 0-.097-.032-.097-.097zm9.145-11.848c.097 0 .162-.064.162-.161v-.874c0-.097-.065-.162-.162-.162h-.55c-.098 0-.162.065-.162.162v.874c0 .097.064.161.161.161zm-2.234 0c.097 0 .162-.064.162-.161v-.874c0-.097-.065-.162-.162-.162h-.55c-.097 0-.162.065-.162.162v.874c0 .097.065.161.162.161zm.842 12.867c1.133 0 1.893-.517 2.217-1.505.162-.485.21-.906.21-4.127 0-3.22-.048-3.641-.21-4.127-.324-.987-1.084-1.505-2.217-1.505s-1.894.518-2.217 1.505c-.162.486-.21.906-.21 4.127 0 3.22.048 3.642.21 4.127.323.988 1.084 1.505 2.217 1.505zm0-.793c-.696 0-1.182-.323-1.408-.97-.114-.373-.162-.713-.162-3.869s.048-3.496.162-3.868c.226-.664.712-.971 1.408-.971s1.198.307 1.408.97c.113.373.178.713.178 3.87 0 3.155-.065 3.495-.178 3.867-.21.648-.712.971-1.408.971zm9.031.664c.081 0 .113-.065.081-.162l-1.489-5.017c.874-.389 1.36-1.246 1.36-2.784 0-2.233-.874-3.043-2.8-3.043h-1.57c-.098 0-.162.065-.162.162v10.682c0 .097.064.162.162.162h.517c.098 0 .162-.065.162-.162v-4.661c0-.065.033-.097.097-.097h.761c.243 0 .47-.016.68-.049l1.424 4.856c.033.08.081.113.178.113zm-2.784-5.697h-.858c-.064 0-.097-.032-.097-.097V5.264c0-.064.033-.097.097-.097h.858c1.344 0 1.894.55 1.894 2.25 0 1.764-.583 2.266-1.894 2.266zm4.742 5.535c0 .097.065.162.162.162h.453c.098 0 .162-.065.162-.162V6.203h.049l3.075 9.015c.049.13.113.162.259.162h.615c.097 0 .162-.065.162-.162V4.536c0-.097-.065-.162-.162-.162h-.453c-.097 0-.162.065-.162.162v9.015h-.049l-3.042-9.015c-.049-.13-.114-.162-.26-.162h-.647c-.097 0-.162.065-.162.162z" fill="#fff"/></svg>