<svg width="227.5" height="42" viewBox="0 0 227.5 42" xmlns="http://www.w3.org/2000/svg"><path d="M70.74 27.834c-.03.178.06.296.237.296h3.287c.207 0 .296-.118.326-.296l.68-3.642h3.82l.652 3.642c.03.178.118.296.326.296h3.286c.178 0 .267-.118.237-.296L79.268 8.29c-.03-.178-.148-.296-.326-.296h-3.494c-.177 0-.266.118-.325.296zm5.093-6.722l1.333-6.988h.089l1.273 6.988zm9.387 6.722c0 .178.118.296.296.296h8.854c.177 0 .296-.118.296-.296v-2.902c0-.178-.119-.296-.296-.296h-5.093c-.119 0-.178-.06-.178-.178V8.291c0-.178-.118-.296-.296-.296h-3.287c-.178 0-.296.118-.296.296zm11.4 0c0 .178.119.296.296.296h2.872c.178 0 .297-.118.297-.296V16.197h.177l2.191 8.054c.06.178.178.296.385.296h1.629c.207 0 .326-.118.385-.296l2.191-8.054h.178v11.637c0 .178.118.296.296.296h2.872c.178 0 .296-.118.296-.296V8.29c0-.178-.118-.296-.296-.296h-3.168c-.267 0-.415.088-.474.296l-2.961 10.57h-.118l-3.08-10.57c-.06-.208-.207-.296-.474-.296h-3.198c-.177 0-.296.118-.296.296zm16.79 0c0 .178.118.296.296.296h8.794c.178 0 .296-.118.296-.296v-2.902c0-.178-.118-.296-.296-.296h-5.034c-.118 0-.178-.06-.178-.178v-4.56c0-.118.06-.177.178-.177h4.353c.178 0 .296-.119.296-.297v-2.901c0-.178-.118-.297-.296-.297h-4.353c-.118 0-.178-.059-.178-.177v-4.383c0-.118.06-.177.178-.177h5.034c.178 0 .296-.119.296-.296V8.29c0-.178-.118-.296-.296-.296h-8.794c-.178 0-.297.118-.297.296zm22.889.296c.148 0 .207-.148.148-.296l-2.754-8.528c1.392-.948 2.25-2.606 2.25-5.152 0-4.472-2.31-6.16-5.892-6.16h-4.797c-.178 0-.296.12-.296.297v19.543c0 .178.118.296.296.296h3.287c.177 0 .296-.118.296-.296V20.43c0-.118.059-.177.177-.177h1.126l2.28 7.64c.059.177.148.236.325.236zm-6.426-11.223h-.859c-.118 0-.177-.059-.177-.177v-5.152c0-.119.059-.178.177-.178h.86c1.51 0 2.16.651 2.16 2.754 0 2.132-.65 2.753-2.16 2.753zm8.528 10.927c0 .178.118.296.296.296h3.287c.178 0 .296-.118.296-.296V8.29c0-.178-.118-.296-.296-.296h-3.287c-.178 0-.296.118-.296.296zm2.843-22.06c.237 0 .385-.089.592-.296l3.08-3.376c.118-.148.029-.296-.149-.296h-2.96c-.238 0-.326.089-.474.296l-2.429 3.376c-.118.148-.03.296.148.296zm2.665 22.06c-.03.178.059.296.237.296h3.286c.208 0 .296-.118.326-.296l.681-3.642h3.82l.651 3.642c.03.178.119.296.326.296h3.287c.178 0 .266-.118.237-.296L152.437 8.29c-.03-.178-.148-.296-.326-.296h-3.494c-.178 0-.267.118-.326.296zm5.093-6.722l1.332-6.988h.09l1.272 6.988z" fill="#fff"/></svg>