<svg width="227.5" height="42" viewBox="0 0 227.5 42" xmlns="http://www.w3.org/2000/svg"><path d="M62.967 27.834c0 .178.119.296.296.296h2.873c.177 0 .296-.118.296-.296V16.197h.178l2.19 8.054c.06.178.178.296.386.296h1.628c.208 0 .326-.118.385-.296l2.191-8.054h.178v11.637c0 .178.119.296.296.296h2.872c.178 0 .297-.118.297-.296V8.29c0-.178-.119-.296-.297-.296h-3.168c-.266 0-.414.088-.474.296l-2.96 10.57h-.12l-3.079-10.57c-.059-.208-.207-.296-.474-.296h-3.198c-.177 0-.296.118-.296.296zm15.694 0c-.03.178.06.296.237.296h3.287c.207 0 .296-.118.326-.296l.68-3.642h3.82l.652 3.642c.03.178.118.296.326.296h3.286c.178 0 .267-.118.237-.296L87.19 8.29c-.03-.178-.148-.296-.326-.296H83.37c-.177 0-.266.118-.325.296zm5.093-6.722l1.333-6.988h.089l1.273 6.988zm9.387 6.722c0 .178.118.296.296.296h8.854c.177 0 .296-.118.296-.296v-2.902c0-.178-.119-.296-.296-.296h-5.093c-.119 0-.178-.06-.178-.178V8.291c0-.178-.119-.296-.296-.296h-3.287c-.178 0-.296.118-.296.296zm11.4 0c0 .178.118.296.296.296h8.854c.177 0 .296-.118.296-.296v-2.902c0-.178-.119-.296-.296-.296h-5.093c-.119 0-.178-.06-.178-.178V8.291c0-.178-.118-.296-.296-.296h-3.287c-.178 0-.296.118-.296.296zm15.96.562c2.636 0 4.412-1.184 5.153-3.405.325-.918.414-1.747.414-6.929s-.089-6.01-.414-6.929c-.74-2.22-2.517-3.405-5.153-3.405-2.635 0-4.412 1.185-5.152 3.405-.326.918-.415 1.747-.415 6.93 0 5.181.09 6.01.415 6.928.74 2.221 2.517 3.405 5.152 3.405zm0-3.494c-.74 0-1.243-.414-1.421-.977-.148-.474-.207-.977-.207-5.863 0-4.885.059-5.389.207-5.863.178-.562.681-.977 1.421-.977s1.244.415 1.422.977c.148.474.207.978.207 5.863 0 4.886-.06 5.39-.207 5.863-.178.563-.681.977-1.422.977zm19.336 3.228c.148 0 .207-.148.148-.296l-2.754-8.528c1.392-.948 2.25-2.606 2.25-5.152 0-4.472-2.309-6.16-5.892-6.16h-4.797c-.177 0-.296.12-.296.297v19.543c0 .178.119.296.296.296h3.287c.178 0 .296-.118.296-.296V20.43c0-.118.06-.177.178-.177h1.125l2.28 7.64c.06.177.148.236.326.236zm-6.425-11.223h-.86c-.118 0-.177-.059-.177-.177v-5.152c0-.119.06-.178.178-.178h.859c1.51 0 2.161.651 2.161 2.754 0 2.132-.651 2.753-2.161 2.753zm8.557 8.143c.71 2.162 2.34 3.346 5.004 3.346 3.228 0 5.123-1.717 5.3-5.093 0-.177-.058-.325-.266-.355l-3.109-.533c-.178-.03-.326.06-.326.267-.059 1.599-.562 2.22-1.54 2.22-.71 0-1.125-.296-1.332-.918-.118-.444-.178-.799-.178-5.922 0-5.122.06-5.478.178-5.922.207-.622.622-.918 1.333-.918.977 0 1.48.622 1.54 2.221 0 .207.147.296.325.267l3.11-.533c.207-.03.266-.178.266-.356-.178-3.375-2.073-5.093-5.3-5.093-2.666 0-4.294 1.185-5.005 3.346-.266.859-.385 1.777-.385 6.988 0 5.212.119 6.13.385 6.988zm10.808 2.784c-.03.178.06.296.237.296h3.287c.207 0 .296-.118.326-.296l.68-3.642h3.82l.652 3.642c.03.178.118.296.326.296h3.286c.178 0 .267-.118.237-.296L161.305 8.29c-.03-.178-.148-.296-.326-.296h-3.494c-.177 0-.266.118-.325.296zm5.093-6.722l1.333-6.988h.089l1.273 6.988z" fill="#fff"/></svg>