<svg width="150" height="45" viewBox="0 0 150 45" xmlns="http://www.w3.org/2000/svg"><path d="M36.492 30.302c-.097.226 0 .388.226.388h3.424c.258 0 .388-.097.485-.323l3.714-8.98c.808-1.938 1.13-3.23 1.13-6.234 0-2.035-.096-2.778-.29-3.424-.678-2.1-2.423-3.295-5.104-3.295-2.68 0-4.425 1.195-5.103 3.295-.194.646-.291 1.389-.291 3.424 0 2.067.13 2.972.355 3.618.646 1.938 1.81 3.068 3.941 3.068.452 0 .808-.064.97-.161 0 .032.064.064.064.064zm3.585-11.951c-.646 0-1.033-.291-1.227-.872-.097-.259-.13-.582-.13-2.326 0-1.744.033-2.035.13-2.294.194-.581.581-.872 1.227-.872.646 0 1.034.291 1.228.872.097.259.129.55.129 2.294s-.032 2.067-.13 2.326c-.193.581-.58.872-1.227.872zm8.076 12.016c0 .194.129.323.323.323h10.046c.193 0 .323-.13.323-.323v-2.972c0-.194-.13-.323-.323-.323h-5.815v-.032l4.587-7.365c1.066-1.712 1.55-3.004 1.55-5.459 0-1.13-.096-1.906-.29-2.52-.71-2.099-2.358-3.262-5.04-3.262-2.712 0-4.392 1.195-5.07 3.263-.194.646-.291 1.389-.291 2.648 0 .226.097.356.323.388l3.198.29c.226.033.387-.064.387-.322 0-1.292.033-1.583.13-1.842.193-.581.58-.872 1.227-.872.678 0 1.066.291 1.26.872.097.259.129.55.129 1.357 0 1.777-.258 2.52-.97 3.65l-5.523 9.012c-.129.259-.161.388-.161.614zm13.47 0c0 .194.129.323.323.323h3.294c.194 0 .323-.13.323-.323V26.62c0-.194-.129-.323-.323-.323h-3.294c-.194 0-.323.13-.323.323zm7.01-2.649c.677 2.068 2.357 3.263 5.038 3.263s4.36-1.163 5.071-3.263c.194-.613.291-1.421.291-4.102 0-3.101-.097-3.876-.355-4.62-.582-1.84-1.874-2.713-3.973-2.713-1.098 0-1.938.356-2.423.84h-.032v-4.587c0-.129.064-.193.194-.193h6.234c.194 0 .323-.13.323-.323V9.048c0-.194-.13-.323-.323-.323h-9.69c-.194 0-.324.13-.324.323v11.596c0 .226.13.323.323.323h2.875c.259 0 .388-.064.452-.29.194-.55.582-.905 1.293-.905.646 0 1.065.29 1.26.872.096.259.128.582.128 2.972s-.032 2.713-.129 2.972c-.194.581-.581.84-1.26.84-.646 0-1.033-.291-1.227-.873-.097-.258-.13-.549-.13-1.389 0-.258-.16-.355-.387-.323l-3.198.323c-.226.033-.323.162-.323.388 0 .775.097 1.518.291 2.164zm13.404-.032c.679 2.132 2.487 3.295 5.072 3.295 2.584 0 4.425-1.13 5.071-3.295.258-.808.355-1.68.355-7.979 0-6.298-.097-7.17-.355-7.978-.646-2.164-2.487-3.295-5.071-3.295-2.585 0-4.361 1.163-5.04 3.295-.258.807-.387 1.68-.387 7.978 0 6.3.097 7.171.355 7.979zm3.844-1.098c-.097-.323-.129-.711-.129-6.88 0-6.17.032-6.558.13-6.88.16-.518.58-.84 1.227-.84.646 0 1.066.322 1.227.84.097.322.13.71.13 6.88 0 6.169-.033 6.557-.13 6.88-.161.517-.549.84-1.227.84-.646 0-1.066-.323-1.228-.84zm9.594 1.098c.678 2.132 2.487 3.295 5.071 3.295 2.584 0 4.425-1.13 5.071-3.295.259-.808.356-1.68.356-7.979 0-6.298-.097-7.17-.356-7.978-.646-2.164-2.487-3.295-5.07-3.295-2.585 0-4.362 1.163-5.04 3.295-.258.807-.388 1.68-.388 7.978 0 6.3.097 7.171.356 7.979zm3.844-1.098c-.097-.323-.13-.711-.13-6.88 0-6.17.033-6.558.13-6.88.161-.518.581-.84 1.227-.84.646 0 1.066.322 1.228.84.096.322.129.71.129 6.88 0 6.169-.033 6.557-.13 6.88-.16.517-.549.84-1.227.84-.646 0-1.066-.323-1.227-.84zm15.73 3.779c0 .194.13.323.324.323h3.585c.194 0 .323-.13.323-.323v-5.944l1.292-2.713 3.23 8.754c.033.161.13.226.323.226h3.844c.162 0 .259-.162.194-.323l-4.942-12.791 4.393-8.528c.097-.162 0-.323-.162-.323h-3.747c-.193 0-.323.064-.42.258l-4.005 8.496V9.048c0-.194-.13-.323-.323-.323h-3.585c-.194 0-.323.13-.323.323zm27.425.323c.161 0 .226-.162.161-.323l-3.004-9.303c1.518-1.034 2.455-2.842 2.455-5.62 0-4.878-2.52-6.72-6.428-6.72h-5.233c-.194 0-.323.13-.323.324v21.319c0 .194.13.323.323.323h3.586c.193 0 .323-.13.323-.323v-8.075c0-.13.064-.194.193-.194h1.228l2.487 8.334c.065.193.162.258.356.258zm-7.01-12.242h-.937c-.129 0-.193-.065-.193-.194v-5.62c0-.13.064-.194.193-.194h.937c1.648 0 2.358.71 2.358 3.004 0 2.325-.71 3.004-2.358 3.004zm9.206 11.919c0 .194.13.323.323.323h3.295c.194 0 .323-.13.323-.323V26.62c0-.194-.13-.323-.323-.323h-3.295c-.194 0-.323.13-.323.323z" fill="#fff"/></svg>