<svg width="227.5" height="42" viewBox="0 0 227.5 42" xmlns="http://www.w3.org/2000/svg"><path d="M54.416 22.14c0-3.403-1.065-4.883-3.818-5.949l-1.214-.474c-1.569-.621-1.894-1.095-1.894-2.604 0-1.362.503-2.013 1.539-2.013 1.066 0 1.569.74 1.598 2.19 0 .178.148.267.326.237l3.02-.474c.177-.03.266-.148.266-.325-.148-3.167-1.806-5.003-5.329-5.003-3.581 0-5.328 1.954-5.328 5.595 0 3.226.977 4.736 3.819 5.831l1.213.474c1.51.592 1.865 1.213 1.865 2.99 0 1.835-.503 2.397-1.598 2.397-1.155 0-1.687-.74-1.747-2.605 0-.177-.118-.266-.325-.237l-3.167.504c-.178.03-.237.148-.237.325.059 3.463 1.805 5.387 5.446 5.387 3.996 0 5.565-2.13 5.565-6.245zm7.46 6.246c3.374 0 5.446-1.924 5.446-5.712V8.288c0-.178-.119-.296-.296-.296H63.74c-.177 0-.296.118-.296.296v14.86c0 1.065-.562 1.746-1.569 1.746-.976 0-1.539-.681-1.539-1.747V8.287c0-.177-.118-.295-.296-.295h-3.285c-.178 0-.296.118-.296.296v14.386c0 3.788 2.072 5.712 5.416 5.712zm8.11-.562c0 .178.118.296.296.296h2.871c.178 0 .296-.118.296-.296V16.191h.178l2.19 8.051c.06.178.178.296.385.296h1.628c.207 0 .326-.118.385-.296l2.19-8.05h.178v11.632c0 .178.118.296.296.296h2.871c.178 0 .296-.118.296-.296V8.288c0-.178-.118-.296-.296-.296h-3.167c-.267 0-.415.089-.474.296l-2.96 10.567h-.118L73.952 8.288c-.059-.207-.207-.296-.473-.296h-3.197c-.178 0-.296.118-.296.296zm15.688 0c-.03.178.06.296.237.296h3.286c.207 0 .296-.118.325-.296l.68-3.64h3.82l.65 3.64c.03.178.119.296.326.296h3.286c.177 0 .266-.118.237-.296L94.199 8.288c-.03-.178-.148-.296-.326-.296h-3.492c-.178 0-.267.118-.326.296zm5.091-6.72l1.332-6.985h.09l1.272 6.986zm20.72 7.016c.149 0 .208-.148.149-.296l-2.753-8.525c1.391-.947 2.25-2.605 2.25-5.15 0-4.47-2.31-6.157-5.891-6.157h-4.795c-.178 0-.296.118-.296.296v19.536c0 .178.118.296.296.296h3.285c.178 0 .296-.118.296-.296v-7.4c0-.118.06-.178.178-.178h1.125l2.279 7.637c.06.178.148.237.326.237zm-6.423-11.219h-.858c-.119 0-.178-.059-.178-.177v-5.15c0-.119.06-.178.178-.178h.858c1.51 0 2.161.651 2.161 2.753 0 2.13-.651 2.752-2.16 2.752zm18.945 5.24c0-3.404-1.066-4.884-3.819-5.95l-1.214-.474c-1.568-.621-1.894-1.095-1.894-2.604 0-1.362.503-2.013 1.54-2.013 1.065 0 1.568.74 1.598 2.19 0 .178.148.267.325.237l3.02-.474c.177-.03.266-.148.266-.325-.148-3.167-1.806-5.003-5.328-5.003-3.582 0-5.328 1.954-5.328 5.595 0 3.226.977 4.736 3.818 5.831l1.214.474c1.51.592 1.865 1.213 1.865 2.99 0 1.835-.504 2.397-1.599 2.397-1.154 0-1.687-.74-1.746-2.605 0-.177-.119-.266-.326-.237l-3.167.504c-.178.03-.237.148-.237.325.06 3.463 1.806 5.387 5.447 5.387 3.996 0 5.565-2.13 5.565-6.245zm8.258-16.37c.237 0 .385-.088.592-.295l3.078-3.375c.119-.148.03-.296-.148-.296h-2.96c-.236 0-.325.09-.473.296l-2.427 3.375c-.119.148-.03.296.148.296zm-.888 22.615c2.634 0 4.41-1.184 5.15-3.404.326-.917.415-1.746.415-6.926s-.089-6.009-.415-6.927c-.74-2.22-2.516-3.404-5.15-3.404-2.634 0-4.41 1.184-5.15 3.404-.326.918-.415 1.747-.415 6.927s.089 6.009.415 6.926c.74 2.22 2.516 3.404 5.15 3.404zm0-3.492c-.74 0-1.243-.415-1.42-.977-.149-.474-.208-.977-.208-5.861 0-4.884.06-5.387.207-5.861.178-.562.681-.977 1.421-.977s1.243.415 1.42.977c.149.474.208.977.208 5.86 0 4.885-.06 5.388-.207 5.862-.178.562-.681.977-1.421.977zm7.992 2.93c0 .178.118.296.296.296h8.85c.178 0 .297-.118.297-.296v-2.9c0-.178-.119-.297-.296-.297h-5.092c-.118 0-.177-.059-.177-.177V8.288c0-.178-.119-.296-.296-.296h-3.286c-.178 0-.296.118-.296.296zm23.148.296c.177 0 .296-.118.296-.296V11.662c0-.118.059-.177.177-.177h3.167c.178 0 .296-.119.296-.296V8.288c0-.178-.118-.296-.296-.296H155.59c-.178 0-.296.118-.296.296v2.9c0 .178.118.297.296.297h3.167c.119 0 .178.059.178.177v16.162c0 .178.118.296.296.296zm5.712-.296c0 .178.119.296.296.296h3.286c.178 0 .296-.118.296-.296V8.288c0-.178-.118-.296-.296-.296h-3.286c-.177 0-.296.118-.296.296zm6.601 0c0 .178.119.296.296.296h8.85c.178 0 .297-.118.297-.296v-2.9c0-.178-.119-.297-.296-.297h-5.091c-.119 0-.178-.059-.178-.177V8.288c0-.178-.118-.296-.296-.296h-3.286c-.177 0-.296.118-.296.296z" fill="#fff"/></svg>