<svg width="227.5" height="42" viewBox="0 0 227.5 42" xmlns="http://www.w3.org/2000/svg"><path d="M41.825 25.05c.71 2.162 2.34 3.346 5.004 3.346 3.228 0 5.123-1.717 5.3-5.093 0-.177-.058-.325-.266-.355l-3.109-.533c-.178-.03-.326.06-.326.267-.059 1.599-.562 2.22-1.54 2.22-.71 0-1.125-.296-1.332-.918-.118-.444-.177-.799-.177-5.922 0-5.122.059-5.478.177-5.922.207-.622.622-.918 1.333-.918.977 0 1.48.622 1.54 2.221 0 .207.147.296.325.267l3.11-.533c.207-.03.266-.178.266-.356-.178-3.375-2.073-5.093-5.3-5.093-2.666 0-4.294 1.185-5.005 3.346-.266.859-.385 1.777-.385 6.988 0 5.212.119 6.13.385 6.988zm17.411 3.346c2.636 0 4.412-1.184 5.153-3.405.325-.918.414-1.747.414-6.929s-.089-6.01-.414-6.929c-.74-2.22-2.517-3.405-5.153-3.405-2.635 0-4.412 1.185-5.152 3.405-.326.918-.414 1.747-.414 6.93 0 5.181.088 6.01.414 6.928.74 2.221 2.517 3.405 5.152 3.405zm0-3.494c-.74 0-1.243-.414-1.42-.977-.149-.474-.208-.977-.208-5.863 0-4.885.059-5.389.207-5.863.178-.562.681-.977 1.421-.977s1.244.415 1.422.977c.148.474.207.978.207 5.863 0 4.886-.06 5.39-.207 5.863-.178.563-.681.977-1.422.977zm18.418-2.753c0-3.406-1.066-4.886-3.82-5.952l-1.213-.474c-1.57-.622-1.896-1.096-1.896-2.606 0-1.362.504-2.013 1.54-2.013 1.066 0 1.57.74 1.6 2.191 0 .178.147.266.325.237l3.02-.474c.178-.03.267-.148.267-.326-.148-3.168-1.807-5.004-5.33-5.004-3.583 0-5.33 1.954-5.33 5.597 0 3.227.977 4.737 3.82 5.833l1.214.474c1.51.592 1.865 1.214 1.865 2.99 0 1.836-.503 2.399-1.599 2.399-1.155 0-1.688-.74-1.747-2.606 0-.178-.118-.266-.326-.237l-3.168.504c-.178.03-.237.148-.237.325.06 3.465 1.806 5.39 5.449 5.39 3.997 0 5.566-2.132 5.566-6.248zm8.025 5.981c.178 0 .296-.118.296-.296V11.666c0-.118.06-.177.178-.177h3.168c.178 0 .296-.119.296-.296V8.29c0-.178-.118-.296-.296-.296H78.75c-.178 0-.296.118-.296.296v2.902c0 .177.118.296.296.296h3.168c.119 0 .178.059.178.177v16.168c0 .178.118.296.296.296zm3.139-.296c-.03.178.059.296.237.296h3.286c.208 0 .296-.118.326-.296l.681-3.642h3.82l.651 3.642c.03.178.119.296.326.296h3.287c.178 0 .266-.118.237-.296L97.346 8.29c-.03-.178-.148-.296-.326-.296h-3.494c-.178 0-.267.118-.326.296zm5.093-6.722l1.332-6.988h.089l1.273 6.988zm15.16 6.722c0 .178.119.296.297.296h5.093c2.783 0 4.412-1.066 5.152-3.346.355-1.125.533-2.487.533-6.722 0-4.234-.178-5.596-.533-6.721-.74-2.28-2.369-3.346-5.152-3.346h-5.093c-.178 0-.297.118-.297.296zm3.88-3.376V11.666c0-.118.059-.177.177-.177h.948c.977 0 1.51.355 1.806 1.243.237.622.326 1.48.326 5.33s-.09 4.708-.326 5.33c-.296.889-.83 1.244-1.806 1.244h-.948c-.118 0-.177-.06-.177-.178zm9.623 3.376c0 .178.118.296.296.296h8.795c.177 0 .296-.118.296-.296v-2.902c0-.178-.119-.296-.296-.296h-5.034c-.119 0-.178-.06-.178-.178v-4.56c0-.118.06-.177.178-.177h4.353c.177 0 .296-.119.296-.297v-2.901c0-.178-.119-.297-.296-.297h-4.353c-.119 0-.178-.059-.178-.177v-4.383c0-.118.06-.177.178-.177h5.034c.177 0 .296-.119.296-.296V8.29c0-.178-.119-.296-.296-.296h-8.795c-.178 0-.296.118-.296.296zm11.548 0c0 .178.119.296.296.296h8.854c.178 0 .296-.118.296-.296v-2.902c0-.178-.118-.296-.296-.296h-5.093c-.118 0-.178-.06-.178-.178V8.291c0-.178-.118-.296-.296-.296h-3.287c-.177 0-.296.118-.296.296zm27.598-5.685c0-3.406-1.066-4.886-3.82-5.952l-1.214-.474c-1.57-.622-1.895-1.096-1.895-2.606 0-1.362.503-2.013 1.54-2.013 1.065 0 1.569.74 1.598 2.191 0 .178.148.266.326.237l3.02-.474c.178-.03.267-.148.267-.326-.148-3.168-1.806-5.004-5.33-5.004-3.583 0-5.33 1.954-5.33 5.597 0 3.227.977 4.737 3.82 5.833l1.214.474c1.51.592 1.865 1.214 1.865 2.99 0 1.836-.503 2.399-1.599 2.399-1.154 0-1.687-.74-1.747-2.606 0-.178-.118-.266-.325-.237l-3.169.504c-.177.03-.237.148-.237.325.06 3.465 1.807 5.39 5.449 5.39 3.997 0 5.567-2.132 5.567-6.248zm7.373 6.247c2.635 0 4.412-1.184 5.152-3.405.326-.918.415-1.747.415-6.929s-.09-6.01-.415-6.929c-.74-2.22-2.517-3.405-5.152-3.405-2.636 0-4.412 1.185-5.153 3.405-.325.918-.414 1.747-.414 6.93 0 5.181.089 6.01.414 6.928.74 2.221 2.517 3.405 5.153 3.405zm0-3.494c-.74 0-1.244-.414-1.422-.977-.148-.474-.207-.977-.207-5.863 0-4.885.06-5.389.207-5.863.178-.562.681-.977 1.422-.977.74 0 1.243.415 1.421.977.148.474.207.978.207 5.863 0 4.886-.059 5.39-.207 5.863-.178.563-.681.977-1.421.977zm7.995 2.932c0 .178.118.296.296.296h8.853c.178 0 .297-.118.297-.296v-2.902c0-.178-.119-.296-.297-.296h-5.093c-.118 0-.177-.06-.177-.178V8.291c0-.178-.119-.296-.296-.296h-3.287c-.178 0-.296.118-.296.296z" fill="#fff"/></svg>