<svg width="227.5" height="41" viewBox="0 0 227.5 41" xmlns="http://www.w3.org/2000/svg"><path d="M30.52 27.636c0 .176.118.294.295.294h2.998c3.528 0 5.028-1.44 5.028-5.527 0-3.146-1.03-4.351-2.529-4.88v-.06c1.53-.587 2.323-1.851 2.323-4.438 0-3.764-1.323-5.086-4.704-5.086h-3.116c-.177 0-.294.117-.294.293zm1.706-10.73c-.118 0-.177-.06-.177-.177V9.555c0-.117.06-.176.177-.176h1.676c2.352 0 3.204.823 3.204 3.793 0 2.822-1.029 3.733-3.116 3.733zm-.177 9.407v-7.85c0-.117.06-.176.177-.176h1.793c2.205 0 3.293.97 3.293 4.087 0 3.233-1 4.115-3.47 4.115h-1.616c-.118 0-.177-.058-.177-.176zm13.377 1.617c.177 0 .294-.118.294-.294v-8.114l3.851-11.29c.06-.176 0-.293-.176-.293h-1.029c-.176 0-.265.117-.323.293l-3.028 9.085h-.06L41.87 8.232c-.059-.176-.147-.293-.324-.293h-1.029c-.176 0-.235.117-.176.293l3.851 11.29v8.114c0 .176.118.294.294.294zm15.14 0c.148 0 .207-.118.148-.294l-2.705-9.114c1.588-.705 2.47-2.264 2.47-5.056 0-4.058-1.588-5.527-5.087-5.527h-2.851c-.177 0-.294.117-.294.293v19.404c0 .176.117.294.294.294h.94c.177 0 .295-.118.295-.294v-8.467c0-.118.058-.176.176-.176h1.382c.44 0 .852-.03 1.234-.089l2.588 8.82c.058.147.147.206.323.206zM55.51 17.581h-1.558c-.118 0-.176-.058-.176-.176v-7.85c0-.117.058-.176.176-.176h1.558c2.44 0 3.44 1 3.44 4.087 0 3.204-1.059 4.115-3.44 4.115zm7.614 9.526c.647.676 1.647 1.058 2.735 1.058 2.41 0 3.91-1.47 3.91-4.468V8.232c0-.176-.118-.293-.294-.293h-.941c-.176 0-.294.117-.294.293v15.582c0 2.058-.882 2.91-2.381 2.91a2.414 2.414 0 01-1.647-.646c-.117-.118-.264-.147-.382-.03l-.676.647c-.118.118-.147.265-.03.412zm9.114.529c-.03.176.118.294.294.294h.941c.176 0 .265-.118.294-.294l1-4.792h4.88l1 4.792c.029.176.117.294.323.294h.94c.177 0 .295-.118.265-.294L78.06 8.232c-.03-.176-.147-.293-.323-.293h-.97c-.177 0-.265.117-.324.293zm2.823-6.174l2.146-10.201h.059l2.087 10.201zM88.79 27.93c2.41 0 3.734-1.058 4.351-2.97.353-1.087.47-2.41.47-7.026 0-4.645-.117-5.938-.47-7.026-.617-1.911-1.94-2.97-4.351-2.97h-3.587c-.176 0-.294.118-.294.294v8.732c0 .118-.058.176-.176.176h-1c-.176 0-.294.118-.294.294v.706c0 .176.118.294.294.294h1c.118 0 .176.059.176.176v9.026c0 .176.118.294.294.294zm-.176-1.44h-2c-.117 0-.176-.06-.176-.177V18.61c0-.117.059-.176.176-.176h2.205c.177 0 .294-.118.294-.294v-.706c0-.176-.117-.294-.294-.294h-2.205c-.117 0-.176-.058-.176-.176V9.555c0-.117.059-.176.176-.176h2c1.675 0 2.587.647 3.057 2.029.294.911.412 2.116.412 6.526s-.118 5.616-.412 6.527c-.47 1.382-1.382 2.028-3.057 2.028zm12.994 1.675c2.587 0 4.322-1.617 4.322-4.939V8.232c0-.176-.118-.293-.294-.293h-.912c-.176 0-.294.117-.294.293v15.112c0 2.322-1.146 3.38-2.822 3.38-1.676 0-2.793-1.058-2.793-3.38V8.232c0-.176-.117-.293-.294-.293h-.94c-.177 0-.295.117-.295.293v14.994c0 3.322 1.735 4.94 4.322 4.94zm12.436-.529c-.03.176.118.294.294.294h.94c.177 0 .265-.118.295-.294l1-4.792h4.88l1 4.792c.029.176.117.294.323.294h.94c.177 0 .294-.118.265-.294l-4.116-19.404c-.03-.176-.147-.293-.323-.293h-.97c-.177 0-.265.117-.324.293zm2.822-6.174l2.146-10.201h.06l2.087 10.201zm13.73 6.468c2.41 0 3.733-1.058 4.35-2.97.354-1.087.471-2.41.471-7.026 0-4.645-.117-5.938-.47-7.026-.618-1.911-1.94-2.97-4.351-2.97h-3.587c-.176 0-.294.118-.294.294v8.732c0 .118-.059.176-.176.176h-1c-.176 0-.294.118-.294.294v.706c0 .176.118.294.294.294h1c.117 0 .176.059.176.176v9.026c0 .176.118.294.294.294zm-.177-1.44h-1.999c-.117 0-.176-.06-.176-.177V18.61c0-.117.059-.176.176-.176h2.205c.177 0 .294-.118.294-.294v-.706c0-.176-.117-.294-.294-.294h-2.205c-.117 0-.176-.058-.176-.176V9.555c0-.117.059-.176.176-.176h2c1.675 0 2.587.647 3.057 2.029.294.911.411 2.116.411 6.526s-.117 5.616-.411 6.527c-.47 1.382-1.382 2.028-3.058 2.028zm15.347 1.44c.176 0 .294-.118.294-.294v-7.908c0-.118.059-.177.176-.177h1.47c3.47 0 5.116-1.676 5.116-5.82 0-4.176-1.617-5.792-5.116-5.792h-2.881c-.176 0-.294.117-.294.293v19.404c0 .176.118.294.294.294zm1.94-9.82h-1.47c-.117 0-.176-.058-.176-.176V9.555c0-.117.059-.176.176-.176h1.47c2.617 0 3.587 1.176 3.587 4.351 0 3.205-.97 4.38-3.587 4.38zm5.674 9.526c-.03.176.118.294.294.294h.941c.176 0 .265-.118.294-.294l1-4.792h4.88l1 4.792c.029.176.117.294.323.294h.94c.177 0 .295-.118.265-.294l-4.116-19.404c-.03-.176-.147-.293-.323-.293h-.97c-.177 0-.265.117-.324.293zm2.823-6.174l2.146-10.201h.058l2.088 10.201zm9.848 6.174c0 .176.118.294.294.294h.941c.176 0 .294-.118.294-.294v-6.38l1.97-3.822 3.822 10.26c.058.177.147.236.323.236h1.117c.147 0 .206-.118.147-.294l-4.498-11.877 3.88-7.556c.06-.147 0-.264-.176-.264h-1.058c-.176 0-.264.058-.353.235l-5.174 10.29V8.231c0-.176-.118-.293-.294-.293h-.94c-.177 0-.295.117-.295.293zm11.76 0c0 .176.118.294.294.294h.94c.177 0 .295-.118.295-.294v-6.38l1.97-3.822 3.821 10.26c.06.177.147.236.324.236h1.117c.147 0 .206-.118.147-.294l-4.498-11.877 3.88-7.556c.06-.147 0-.264-.176-.264h-1.058c-.177 0-.265.058-.353.235l-5.174 10.29V8.231c0-.176-.118-.293-.294-.293h-.941c-.176 0-.294.117-.294.293zm10.496 0c-.03.176.117.294.294.294h.94c.177 0 .265-.118.294-.294l1-4.792h4.88l1 4.792c.03.176.117.294.323.294h.94c.177 0 .295-.118.265-.294l-4.115-19.404c-.03-.176-.147-.293-.324-.293h-.97c-.176 0-.265.117-.323.293zm2.822-6.174l2.146-10.201h.059l2.087 10.201z" fill="#fff"/></svg>