<svg width="295.779" height="49" viewBox="0 0 295.779 49" xmlns="http://www.w3.org/2000/svg"><path d="M19.976 30.184c.738 2.286 2.532 3.553 5.24 3.553 2.71 0 4.538-1.267 5.242-3.553.352-1.055.457-1.935.457-8.337v-1.02c0-.21-.14-.351-.352-.351h-4.96c-.21 0-.351.14-.351.351v1.865c0 .21.14.351.352.351h2.356c.141 0 .212.07.212.211 0 4.89-.106 5.453-.317 6.12-.352 1.091-1.302 1.69-2.568 1.69s-2.216-.599-2.568-1.69c-.246-.703-.316-1.23-.316-7.913 0-6.684.07-7.211.316-7.915.352-1.09 1.267-1.688 2.533-1.688 1.724 0 2.638 1.09 2.884 3.06.036.211.176.317.422.281l1.97-.387c.211-.035.282-.21.246-.422-.386-3.341-2.25-5.206-5.557-5.206-2.709 0-4.503 1.267-5.241 3.553-.352 1.055-.457 1.935-.457 8.724 0 6.788.105 7.668.457 8.723zm14.597 2.884c0 .211.141.352.352.352h2.146c.21 0 .352-.14.352-.352V9.853c0-.211-.141-.352-.352-.352h-2.146c-.21 0-.352.14-.352.352zm17.412-6.402c0-3.974-1.09-5.557-4.15-6.788l-1.443-.563c-1.934-.739-2.497-1.583-2.497-4.045 0-2.427.844-3.483 2.603-3.483 1.829 0 2.603 1.161 2.673 3.518 0 .211.176.352.387.281l1.97-.316c.21-.035.316-.176.316-.387-.176-3.729-1.829-5.699-5.417-5.699s-5.346 2.111-5.346 6.191c0 3.694.914 5.312 4.186 6.578l1.442.563c1.9.738 2.427 1.759 2.427 4.502 0 3.236-.844 4.116-2.674 4.116-1.829 0-2.778-1.056-2.919-4.01 0-.211-.14-.352-.387-.317l-2.075.387c-.211.035-.282.176-.282.387.176 4.115 2.005 6.156 5.628 6.156 4.045 0 5.558-2.252 5.558-7.07zm8.477 6.754c.211 0 .352-.14.352-.352V12.35c0-.14.07-.21.21-.21h3.94c.212 0 .352-.142.352-.353V9.853c0-.211-.14-.352-.352-.352h-11.15c-.211 0-.352.14-.352.352v1.934c0 .211.141.352.352.352h3.94c.14 0 .21.07.21.211v20.718c0 .211.141.352.352.352zm7.528-.352c0 .211.14.352.351.352h2.146c.211 0 .352-.14.352-.352V9.853c0-.211-.141-.352-.352-.352H68.34c-.21 0-.351.14-.351.352zm7.07 0c0 .211.14.352.351.352h1.865c.21 0 .351-.14.351-.352V15.13h.176l5.452 17.94c.07.245.247.351.528.351h2.497c.212 0 .352-.14.352-.352V9.853c0-.211-.14-.352-.352-.352h-1.864c-.21 0-.352.14-.352.352v17.939h-.14l-5.347-17.94c-.07-.245-.246-.35-.527-.35H75.41c-.21 0-.351.14-.351.35zm15.864-2.884c.738 2.286 2.532 3.553 5.24 3.553 2.71 0 4.538-1.267 5.242-3.553.351-1.055.457-1.935.457-8.337v-1.02c0-.21-.14-.351-.352-.351h-4.96c-.21 0-.351.14-.351.351v1.865c0 .21.14.351.352.351h2.356c.141 0 .211.07.211.211 0 4.89-.105 5.453-.316 6.12-.352 1.091-1.302 1.69-2.568 1.69s-2.216-.599-2.568-1.69c-.246-.703-.316-1.23-.316-7.913 0-6.684.07-7.211.316-7.915.352-1.09 1.266-1.688 2.533-1.688 1.723 0 2.638 1.09 2.884 3.06.035.211.176.317.422.281l1.97-.387c.211-.035.281-.21.246-.422-.387-3.341-2.25-5.206-5.557-5.206-2.709 0-4.503 1.267-5.241 3.553-.352 1.055-.458 1.935-.458 8.724 0 6.788.106 7.668.458 8.723zm21.491-1.653c0 3.13 1.865 5.206 5.066 5.206 2.18 0 3.798-.95 5.24-2.955l.74 1.266c.597 1.055 1.055 1.372 2.18 1.372h.774c.211 0 .352-.14.352-.352V31.31c0-.212-.14-.352-.352-.352h-.14c-.423 0-.669-.14-1.091-.915l-.985-1.688 2.216-3.975c.106-.211.07-.387-.105-.492l-1.372-.774c-.211-.14-.352-.07-.458.14l-1.618 2.814-3.06-5.311c2.779-3.236 3.623-4.995 3.623-6.86 0-2.883-1.97-4.713-4.678-4.713-2.709 0-4.643 1.83-4.643 4.714 0 1.653.738 3.271 2.18 5.769l.493.844c-2.955 3.482-4.362 5.663-4.362 8.02zm6.086-10.025c-1.548-2.744-1.865-3.834-1.865-4.678 0-1.548.845-2.427 2.146-2.427 1.302 0 2.146.879 2.146 2.427 0 1.371-.493 2.391-2.427 4.678zm-3.553 9.954c0-1.653.915-3.13 3.13-5.698l3.342 5.804c-1.372 2.11-2.462 2.744-3.799 2.744-1.618 0-2.673-1.02-2.673-2.85zm22.688 4.608c0 .211.14.352.352.352h2.145c.211 0 .352-.14.352-.352v-10.06c0-.14.07-.21.211-.21h5.487c.211 0 .352-.142.352-.353v-1.934c0-.211-.14-.352-.352-.352h-5.487c-.14 0-.211-.07-.211-.211V12.35c0-.14.07-.21.211-.21h6.332c.21 0 .351-.142.351-.353V9.853c0-.211-.14-.352-.351-.352h-9.04c-.211 0-.352.14-.352.352zm10.447 0c-.035.211.105.352.316.352h2.11c.212 0 .317-.14.353-.352l1.055-5.24h5.311l1.055 5.24c.036.211.141.352.387.352h2.11c.212 0 .353-.14.317-.352l-5.03-23.215c-.035-.211-.175-.352-.386-.352h-2.11c-.212 0-.318.14-.388.352zm4.326-7.703l2.181-10.412h.106l2.04 10.412zm22.688 8.055c.176 0 .246-.176.176-.352l-3.342-10.587c1.865-.95 2.92-2.885 2.92-6.086 0-5.065-2.251-6.894-6.472-6.894h-4.186c-.211 0-.352.14-.352.352v23.215c0 .211.14.352.352.352h2.146c.21 0 .351-.14.351-.352V23.43c0-.14.07-.21.211-.21h1.443c.316 0 .668 0 .984-.036l2.99 9.99c.07.176.176.246.387.246zm-6.683-12.768H166.9c-.14 0-.21-.07-.21-.212v-8.09c0-.14.07-.21.21-.21h1.513c2.532 0 3.588 1.02 3.588 4.255 0 3.272-1.126 4.257-3.588 4.257zm8.758 12.416c-.035.211.106.352.317.352h2.11c.212 0 .317-.14.352-.352l1.055-5.24h5.312l1.055 5.24c.035.211.14.352.387.352h2.11c.212 0 .352-.14.317-.352l-5.03-23.215c-.035-.211-.176-.352-.387-.352h-2.11c-.211 0-.317.14-.387.352zm4.327-7.703l2.18-10.412h.106l2.04 10.412zm22.688 8.055c.176 0 .246-.176.176-.352l-3.342-10.587c1.864-.95 2.92-2.885 2.92-6.086 0-5.065-2.252-6.894-6.473-6.894h-4.185c-.212 0-.352.14-.352.352v23.215c0 .211.14.352.352.352h2.145c.211 0 .352-.14.352-.352V23.43c0-.14.07-.21.211-.21h1.442c.317 0 .668 0 .985-.036l2.99 9.99c.07.176.176.246.387.246zm-6.683-12.768h-1.513c-.14 0-.211-.07-.211-.212v-8.09c0-.14.07-.21.211-.21h1.513c2.532 0 3.587 1.02 3.587 4.255 0 3.272-1.125 4.257-3.587 4.257zm20.577 6.014c0-3.974-1.09-5.557-4.15-6.788l-1.443-.563c-1.935-.739-2.497-1.583-2.497-4.045 0-2.427.844-3.483 2.603-3.483 1.829 0 2.602 1.161 2.673 3.518 0 .211.176.352.387.281l1.97-.316c.21-.035.316-.176.316-.387-.176-3.729-1.829-5.699-5.417-5.699s-5.346 2.111-5.346 6.191c0 3.694.914 5.312 4.185 6.578l1.443.563c1.899.738 2.427 1.759 2.427 4.502 0 3.236-.845 4.116-2.674 4.116s-2.778-1.056-2.92-4.01c0-.211-.14-.352-.386-.317l-2.075.387c-.211.035-.282.176-.282.387.176 4.115 2.005 6.156 5.628 6.156 4.045 0 5.558-2.252 5.558-7.07zm8.477 6.754c.211 0 .352-.14.352-.352V12.35c0-.14.07-.21.21-.21h3.94c.211 0 .352-.142.352-.353V9.853c0-.211-.14-.352-.352-.352h-11.15c-.211 0-.352.14-.352.352v1.934c0 .211.14.352.352.352h3.94c.14 0 .21.07.21.211v20.718c0 .211.141.352.352.352zm3.553-1.126c.773.915 2.11 1.443 3.623 1.443 3.27 0 5.452-1.865 5.452-5.98V9.853c0-.211-.14-.352-.352-.352h-2.146c-.21 0-.351.14-.351.352v18.115c0 2.216-.95 3.095-2.568 3.095-.633 0-1.196-.246-1.653-.633-.211-.176-.422-.14-.563 0l-1.407 1.372c-.176.14-.176.317-.035.492zm19.03-25.712c.28 0 .421-.07.668-.352l3.27-3.694c.142-.175.036-.351-.175-.351h-2.04c-.282 0-.387.105-.563.351l-2.708 3.694c-.141.176 0 .352.21.352zm-.458 27.155c2.708 0 4.538-1.267 5.241-3.553.352-1.055.457-1.935.457-8.723 0-6.79-.105-7.669-.457-8.724-.703-2.286-2.533-3.553-5.241-3.553-2.708 0-4.502 1.267-5.241 3.553-.352 1.055-.457 1.935-.457 8.724 0 6.788.105 7.668.457 8.723.739 2.286 2.533 3.553 5.241 3.553zm0-2.674c-1.266 0-2.146-.598-2.497-1.688-.247-.704-.317-1.231-.317-7.914 0-6.684.07-7.211.317-7.915.351-1.09 1.23-1.688 2.497-1.688 1.266 0 2.18.598 2.533 1.688.21.704.281 1.231.281 7.915 0 6.683-.07 7.21-.281 7.914-.352 1.09-1.267 1.688-2.533 1.688zm20.788 2.357c.176 0 .247-.176.176-.352l-3.341-10.587c1.864-.95 2.92-2.885 2.92-6.086 0-5.065-2.252-6.894-6.473-6.894h-4.186c-.21 0-.352.14-.352.352v23.215c0 .211.141.352.352.352h2.146c.21 0 .352-.14.352-.352V23.43c0-.14.07-.21.21-.21h1.443c.316 0 .668 0 .985-.036l2.99 9.99c.07.176.175.246.386.246zm-6.683-12.768h-1.512c-.141 0-.211-.07-.211-.212v-8.09c0-.14.07-.21.21-.21h1.513c2.533 0 3.588 1.02 3.588 4.255 0 3.272-1.126 4.257-3.588 4.257zm10.236 12.416c0 .211.14.352.352.352h2.145c.211 0 .352-.14.352-.352V9.853c0-.211-.14-.352-.352-.352h-2.145c-.211 0-.352.14-.352.352z" fill="#fff"/></svg>