<svg width="168" height="19" viewBox="0 0 168 19" xmlns="http://www.w3.org/2000/svg"><path d="M56.563 3.244h1.82v9.486h-1.956V8.273l-1.821 4.457h-1.21L51.59 8.273v4.457h-1.957V3.244h1.848l2.514 6.333 2.569-6.333zm8.452 3.602q.748.951.748 2.54 0 1.59-.748 2.535-.747.945-2.296.945-1.55 0-2.297-.945-.747-.944-.747-2.534 0-1.59.747-2.541.747-.952 2.297-.952 1.549 0 2.296.952zm-1.372 3.764q.244-.462.244-1.223 0-.761-.244-1.23-.245-.469-.924-.469-.693 0-.931.462-.238.462-.238 1.237 0 .775.238 1.23.238.455.93.455.68 0 .925-.462zm7.746-4.254l-.68 1.427q-.448-.19-.788-.19-.462 0-.713.252-.252.25-.252.686v4.199h-1.834V6.017h1.495l.067.285q.53-.462 1.237-.462.748 0 1.468.516zm5.789 2.08q0 1.141-.734 1.787-.734.645-1.93.645-.38 0-.706-.136-.245.19-.245.449 0 .176.272.176.353 0 1.04-.156.686-.156 1.04-.156.774 0 1.27.476.496.475.496 1.236 0 1.196-.951 1.93-.952.734-2.188.734-1.156 0-2.005-.51-.85-.51-.85-1.583 0-.353.123-.68l1.617.49q-.013.054-.013.15 0 .23.271.353.272.122.666.122.598 0 1.101-.252.503-.251.503-.672 0-.15-.109-.231-.109-.082-.258-.082-.272 0-.795.095t-.781.095q-.761 0-1.346-.34-.584-.34-.584-1.046 0-.598.448-1.182-.57-.666-.57-1.726 0-1.196.7-1.855t1.909-.659q.91 0 1.508.353.082-.19.055-.516h1.522q0 1.25-.612 1.685.136.503.136 1.006zm-1.753-.014q0-.38-.231-.591-.231-.21-.625-.21-.38 0-.619.21-.237.21-.237.591 0 .815.856.815t.856-.815zm7.243-2.405h1.848v6.713h-1.508l-.068-.285q-.584.407-1.223.407-1.386 0-2.1-.774-.713-.775-.713-2.161v-3.9h1.848v3.778q0 .625.204.944.204.32.802.32.394 0 .652-.259.258-.258.258-.666V6.017zm9.228 2.935v3.778h-1.849V8.993q0-.625-.21-.958-.21-.333-.795-.333-.394 0-.653.278-.258.279-.258.687v4.063h-1.848V6.017h1.509l.067.272q.517-.422 1.264-.422 2.773 0 2.773 3.085zm4.824-5.708V4.74q-.584 0-.83.177-.244.177-.244.734v.367h.938v1.549h-.938v5.164h-1.78V7.566h-.544v-1.55h.544v-.855q0-.476.095-.816.095-.34.32-.543.224-.204.428-.327.203-.122.611-.17.408-.047.646-.054.237-.007.754-.007zm3.424 7.937l.014 1.549q-1.128 0-1.671-.421-.544-.422-.544-1.509V3.244h1.753v7.53q0 .23.102.318.102.089.346.089zm5.001-5.164h1.849v6.713h-1.509l-.068-.285q-.584.407-1.223.407-1.386 0-2.1-.774-.713-.775-.713-2.161v-3.9h1.848v3.778q0 .625.204.944.204.32.802.32.394 0 .652-.259.258-.258.258-.666V6.017zm8.59 2.419q0 1.141-.735 1.787-.734.645-1.93.645-.38 0-.706-.136-.245.19-.245.449 0 .176.272.176.353 0 1.04-.156.686-.156 1.04-.156.774 0 1.27.476.496.475.496 1.236 0 1.196-.951 1.93-.952.734-2.188.734-1.155 0-2.005-.51-.85-.51-.85-1.583 0-.353.123-.68l1.617.49q-.013.054-.013.15 0 .23.272.353.271.122.665.122.598 0 1.101-.252.503-.251.503-.672 0-.15-.109-.231-.108-.082-.258-.082-.272 0-.795.095t-.781.095q-.761 0-1.346-.34-.584-.34-.584-1.046 0-.598.448-1.182-.57-.666-.57-1.726 0-1.196.7-1.855t1.909-.659q.91 0 1.508.353.082-.19.055-.516h1.522q0 1.25-.612 1.685.136.503.136 1.006zm-1.754-.014q0-.38-.231-.591-.231-.21-.625-.21-.38 0-.618.21t-.238.591q0 .815.856.815t.856-.815zm4.063-1.277v-3.9h1.821v3.9l-.081 2.745h-1.658l-.082-2.745zm2.052 4.58q0 .461-.333.801-.332.34-.808.34-.476 0-.816-.333-.34-.333-.34-.809 0-.475.34-.815.34-.34.816-.34.476 0 .808.34.333.34.333.815z" fill="#fff"/></svg>