<svg width="168" height="19" viewBox="0 0 168 19" xmlns="http://www.w3.org/2000/svg"><path d="M57.575 3.244h1.821v9.486h-1.957V8.273l-1.821 4.457h-1.21l-1.807-4.457v4.457h-1.957V3.244h1.848l2.515 6.333 2.568-6.333zm6.278 0h1.685l3.67 9.486H67.1l-.856-2.378H63.16l-.856 2.378h-2.093l3.642-9.486zm.843 2.868l-.91 2.541h1.834l-.924-2.541zm7.393 4.743h4.022v1.875H70.16V3.244h1.93v7.61zm7.216 0h4.022v1.875h-5.952V3.244h1.93v7.61zM91.76 6.159q.224.85.224 1.828 0 .979-.224 1.828-.225.85-.68 1.542-.455.694-1.243 1.088-.788.394-1.821.394t-1.821-.394q-.788-.394-1.244-1.088-.455-.693-.68-1.542-.223-.85-.223-1.828 0-.978.224-1.828.224-.849.68-1.542.455-.693 1.243-1.087t1.82-.394q1.034 0 1.822.394t1.243 1.087q.455.693.68 1.542zm-3.744 4.764q2.011 0 2.011-2.936 0-2.935-2.011-2.935-2.012 0-2.012 2.935 0 2.936 2.012 2.936zm12.23-4.798q0 .884-.496 1.584-.496.7-1.338.985.109.095.38.503l2.256 3.533h-2.256L96.89 9.55q-.231-.394-.401-.516-.17-.123-.591-.123h-.476v3.819H93.48V3.244h3.479q1.467 0 2.378.727.91.728.91 2.154zm-1.943.014q0-.584-.353-.802-.354-.217-.979-.217h-1.549v2.079h1.55q.638 0 .985-.231.346-.231.346-.829zm9.2 3.615l1.373 1.332q-.843.992-1.529 1.379-.686.387-1.869.387-1.345 0-2.303-.693t-1.393-1.773q-.435-1.08-.435-2.399 0-1.332.428-2.405.428-1.074 1.38-1.767.95-.693 2.31-.693 1.1 0 1.862.387.76.388 1.48 1.257l-1.372 1.346q-.489-.544-.917-.809-.428-.265-1.053-.265-.585 0-1.02.265-.434.265-.665.707-.231.442-.34.938-.109.496-.109 1.04 0 .543.109 1.039.109.496.34.938.23.441.666.706.434.265 1.019.265.639 0 1.1-.299.463-.299.938-.883zm5.314-6.51h1.685l3.67 9.486h-2.107l-.856-2.378h-3.085l-.856 2.378h-2.093l3.642-9.486zm.842 2.868l-.91 2.541h1.834l-.924-2.541z" fill="#fff"/></svg>