<svg width="139.941" height="38" viewBox="0 0 139.941 38" xmlns="http://www.w3.org/2000/svg"><path d="M20.965 8.775q.756 0 1.512-.257.756-.256 1.39-.661.635-.405 1.08-.85.446-.446.568-.851.121-.405-.149-.661-.27-.257-1.053-.257-1.16 0-2.2.567-1.04.567-1.836 1.431-.797.864-1.283 1.863-.486.999-.54 1.863-.054.864.365 1.431.418.567 1.471.567 2.106 0 3.416.567t1.957 1.498q.648.932.675 2.12.027 1.188-.459 2.39-.486 1.201-1.458 2.335t-2.295 1.985q-1.323.85-2.97 1.296-1.647.445-3.51.283-1.566-.135-2.349-.918-.783-.783-.918-1.876-.135-1.094.27-2.323.405-1.228 1.175-2.268.77-1.039 1.822-1.727 1.053-.689 2.214-.689 1.026 0 1.62.486.594.486.797 1.08.202.594 0 1.08-.203.486-.743.486-.756 0-1.552.378-.797.378-1.499.931-.702.554-1.215 1.215-.513.662-.688 1.215-.176.554.054.932.23.378 1.012.378 1.161 0 2.268-.689 1.107-.688 1.985-1.714.877-1.026 1.458-2.214.58-1.188.702-2.214.121-1.026-.31-1.715-.433-.688-1.54-.688-1.863 0-3.091-.513-1.229-.513-1.877-1.337-.648-.823-.742-1.863-.095-1.039.297-2.106.391-1.066 1.228-2.065.837-.999 2.052-1.741 1.215-.743 2.795-1.121 1.58-.378 3.442-.216 1.566.135 2.376.81.81.675 1.013 1.593.202.918-.122 1.958-.324 1.039-1.04 1.903-.715.864-1.714 1.444-.999.581-2.16.581-1.053 0-1.647-.486-.594-.486-.796-1.08-.203-.594 0-1.08.202-.486.742-.486zm13.176 3.213q.216-.027.392-.027h.554q1.457 0 2.416.418.958.419 1.498 1.148.54.729.675 1.688.135.958-.067 2.011-.203 1.053-.716 2.16-.513 1.107-1.269 2.106 1.026-.216 1.647-.77.621-.553 1.026-1.336.243-.486.608-.675.364-.189.675-.108.31.081.445.405t-.08.837q-.217.54-.703 1.148-.486.607-1.215 1.107-.729.499-1.7.823-.973.324-2.215.27-1.323 1.215-2.956 1.93-1.634.716-3.443.608-1.296-.081-1.984-.864-.689-.783-.85-1.985-.163-1.201.175-2.673.337-1.471 1.093-2.915.756-1.445 1.917-2.728 1.161-1.282 2.62-2.065.62-.378 1.457-.513zm7.425-6.912q.648-.135.81.31.162.446 0 1.094-.162.648-.58 1.296-.419.648-.932.918-.459.216-1.215.337-.756.122-1.66.243-.905.122-1.85.27-.945.149-1.728.419-.35.108-.634-.027-.284-.135-.392-.392-.108-.256-.027-.553.081-.297.46-.54.998-.648 2.16-1.215 1.16-.567 2.24-1.013 1.08-.445 1.971-.742t1.377-.405zm-7.749 15.876q.702-1.161 1.161-2.457.46-1.296.567-2.39.108-1.093-.189-1.795t-1.08-.648q-.594.081-1.026.526-.432.446-.702 1.107-.27.662-.364 1.458-.095.797.054 1.593.148.797.526 1.485.378.689 1.053 1.121zm-3.32-4.428q-.81 1.134-1.324 2.43-.513 1.296-.634 2.39-.122 1.093.216 1.822.337.729 1.228.729.783 0 1.526-.445.742-.446 1.39-1.202-1.404-.945-1.984-2.524-.58-1.58-.419-3.2zM48.207.891q.243-.459.675-.526.432-.068.932.148t.999.648q.5.432.877.972.378.54.567 1.107.19.567.054 1.053-.108.378-.702 1.377T50.14 8.086q-.878 1.418-1.93 3.092-1.054 1.674-2.08 3.388-1.026 1.715-1.917 3.335-.89 1.62-1.444 2.889-.554 1.269-.662 2.079-.108.81.46.918.593.108 1.187-.351.594-.459 1.094-1.174.5-.716.918-1.526.418-.81.661-1.404.27-.594.635-.81.364-.216.661-.108.297.108.405.513.108.405-.162 1.08-.243.675-.77 1.674-.526.999-1.282 1.917t-1.7 1.539q-.946.621-2.08.54-1.377-.081-1.89-1.12-.513-1.04-.391-2.687.121-1.647.729-3.753.607-2.106 1.471-4.307.864-2.2 1.863-4.373 1-2.174 1.89-3.956.891-1.782 1.553-3.01l.85-1.58zm6.912 15.174q.243-.513.864-.594.621-.081 1.256.162.634.243 1.04.756.404.513.215 1.242-.135.486-.486 1.148-.35.661-.77 1.35-.418.688-.823 1.363-.405.675-.648 1.201-.243.527-.23.824.014.297.42.27.62-.054 1.2-.526.581-.473 1.094-1.148.513-.675.918-1.431t.648-1.35q.27-.594.635-.81.364-.216.661-.108.297.108.405.513.108.405-.162 1.08-.243.675-.77 1.647-.526.972-1.268 1.863-.743.891-1.701 1.526-.959.634-2.093.634-1.16 0-1.606-.823-.446-.824-.446-2.039-.756 1.188-1.768 1.998-1.013.81-2.282.702-1.377-.108-2.16-.864-.783-.756-1.04-1.89-.256-1.134 0-2.511.257-1.377.973-2.727.715-1.35 1.863-2.538 1.147-1.188 2.686-1.917 1.54-.729 3.443-.891 1.903-.162 4.117.54.513.162.77.526.256.365.216.689-.04.324-.405.513-.365.189-1.094.027-1.242-.297-2.376-.081-1.134.216-2.12.783-.985.567-1.795 1.404-.81.837-1.43 1.755-.622.918-1 1.836t-.5 1.688q-.12.769.028 1.282t.634.594q.567.108 1.107-.324t1.053-1.161q.513-.729.959-1.66.445-.932.796-1.796.243-.864.5-1.593.256-.729.472-1.134zm13.311 1.215q-.135.486-.5 1.174-.364.689-.796 1.418-.432.729-.85 1.445-.419.715-.675 1.282-.257.567-.257.904 0 .338.405.284.621-.054 1.202-.526.58-.473 1.093-1.148.513-.675.918-1.431t.648-1.35q.27-.594.635-.81.364-.216.661-.108.297.108.405.513.108.405-.162 1.08-.243.675-.77 1.647-.526.972-1.268 1.863-.743.891-1.701 1.526-.959.634-2.093.634-.999 0-1.512-.5-.513-.499-.702-1.296-.189-.796-.094-1.808.094-1.013.337-2.053.243-1.039.58-2.011.338-.972.608-1.674v-.027q.19-.675-.121-1.066-.31-.392-.716-.77-.216.54-.54 1.31-.324.769-.648 1.566-.324.796-.634 1.512-.31.715-.5 1.147-.27.594-.648.756-.378.162-.661 0-.284-.162-.392-.554-.108-.391.162-.877.19-.324.46-.918.27-.594.58-1.283.31-.688.634-1.43l.594-1.364q.27-.621.446-1.066.175-.446.202-.527-.054-.621.27-1.485.216-.621.621-.837.405-.216.743-.108.337.108.486.473.148.364-.095.904-.297.567-.27.931.027.365.324.675.297.311.837.662.54.351 1.323.918.351.162.662.405.31.243.513.567.202.324.283.689.081.364-.027.742zm8.343-9.612q.19-.459.635-.527.445-.067.972.136.526.202 1.08.62.553.419.972.932.418.513.62 1.066.203.554.068 1.04-.108.405-.729 1.417-.62 1.013-1.485 2.336-.864 1.323-1.863 2.835t-1.876 2.93q-.878 1.417-1.499 2.591-.62 1.175-.756 1.823-.08.513-.432.702-.35.189-.715.081t-.621-.486q-.257-.378-.176-.999.216-1.593.689-3.321.472-1.728 1.066-3.443.594-1.714 1.242-3.307t1.215-2.902q.567-1.31 1-2.228.431-.918.593-1.296zm-2.754 3.807q.162.378 0 .742-.162.365-.513.649-.35.283-.81.486-.459.202-.918.27-.459.067-.837-.014-.378-.081-.54-.351-.243-.405-.108-1.282.135-.878.689-1.958.553-1.08 1.525-2.241.972-1.161 2.403-2.12 1.431-.958 3.348-1.566 1.917-.607 4.347-.607 2.565 0 4.131.675 1.566.675 2.295 1.795.73 1.121.716 2.538-.014 1.418-.594 2.917-.58 1.498-1.66 2.915-1.08 1.418-2.471 2.538-1.39 1.121-3.024 1.796-1.634.675-3.335.675-.54 0-.783-.243t-.202-.526q.04-.284.378-.527.337-.243.958-.243.756 0 1.566-.553.81-.554 1.54-1.472.728-.918 1.336-2.079.607-1.161.999-2.363.391-1.201.5-2.362.107-1.161-.163-2.079-.27-.918-.972-1.471-.702-.554-1.944-.554-2.214 0-3.834.742-1.62.743-2.619 1.782-.999 1.04-1.363 2.174-.365 1.134-.04 1.917zM95.323.891q.243-.459.675-.526.432-.068.932.148t.999.648q.5.432.877.972.378.54.567 1.107.19.567.054 1.053-.108.378-.702 1.377t-1.471 2.416q-.878 1.418-1.93 3.092-1.054 1.674-2.08 3.388-1.026 1.715-1.917 3.335-.89 1.62-1.444 2.889-.554 1.269-.662 2.079-.108.81.46.918.593.108 1.187-.351.594-.459 1.094-1.174.5-.716.918-1.526.418-.81.661-1.404.27-.594.635-.81.364-.216.661-.108.297.108.405.513.108.405-.162 1.08-.243.675-.77 1.674-.526.999-1.282 1.917t-1.7 1.539q-.946.621-2.08.54-1.377-.081-1.89-1.12-.513-1.04-.391-2.687.121-1.647.729-3.753.607-2.106 1.471-4.307.864-2.2 1.863-4.373 1-2.174 1.89-3.956.891-1.782 1.553-3.01l.85-1.58zm7.263 12.042q.297-.675 1.013-.716.715-.04 1.43.324.716.365 1.175 1.027.46.661.27 1.39-.135.486-.607 1.336-.473.851-1.053 1.85-.58.999-1.188 2.025-.608 1.026-1.013 1.836-.405.81-.5 1.31-.094.499.311.472.621-.054 1.202-.526.58-.473 1.08-1.148.5-.675.904-1.431.405-.756.675-1.35.27-.594.635-.81.364-.216.661-.108.297.108.405.513.108.405-.162 1.08t-.796 1.647q-.527.972-1.27 1.863-.742.891-1.7 1.526-.959.634-2.093.634-.648 0-1.066-.284-.419-.283-.635-.769-.216-.486-.27-1.161-.054-.675 0-1.458-.459.81-1.012 1.553-.554.742-1.188 1.255-.635.513-1.337.77-.702.256-1.458.094-.972-.189-1.444-.85-.473-.662-.567-1.648-.095-.985.148-2.254.243-1.269.702-2.66.46-1.39 1.107-2.848.648-1.458 1.377-2.862.243-.486.662-.607.418-.122.864.013.445.135.89.486.446.351.743.783.297.432.392.904.094.473-.095.851-.486.864-1.053 1.823-.567.958-1.107 1.903-.54.945-1.012 1.823-.473.877-.756 1.566-.284.688-.31 1.16-.028.473.323.581.46.162.972-.135.513-.297 1.026-.891.513-.594 1-1.404.485-.81.917-1.634.432-.823.77-1.593.337-.769.553-1.309.432-1.35.85-2.416.42-1.067.635-1.526zm4.914-7.857q.648-.135.81.31.162.446 0 1.094-.162.648-.58 1.296-.419.648-.932.918-.459.216-1.215.337-.756.122-1.66.243-.905.122-1.85.27-.945.149-1.728.419-.35.108-.634-.027-.284-.135-.392-.392-.108-.256-.027-.553.081-.297.46-.54.998-.648 2.16-1.215 1.16-.567 2.24-1.013 1.08-.445 1.971-.742t1.377-.405zm-1.215 14.256q.594-1.134 1.283-2.295.688-1.161 1.39-2.281.702-1.121 1.364-2.188.661-1.066 1.228-2.038.378-.648.945-.513t1.053.635q.486.499.756 1.16.27.662.054 1.04-.108.216-.067.553.04.338.175.757.135.418.324.917.19.5.351 1.013.621 1.863.405 3.55-.216 1.688-1.026 3.038.73-.567 1.337-1.39.607-.824 1.201-1.958.297-.567.689-.783.391-.216.688-.095.297.122.392.514.094.391-.23 1.039-.567 1.134-1.485 2.187-.918 1.053-2.092 1.863-1.175.81-2.565 1.256-1.39.445-2.903.337-.054 0-.08.014-.028.013-.082.013-1.16 0-1.944-.607-.783-.608-1.188-1.499-.405-.891-.432-1.917-.027-1.026.297-1.863.027-.162.162-.459zm2.943 2.106q-.648 0-.945.378-.297.378-.324.837-.027.459.23.837.256.378.715.378.702 0 1.296-.445.594-.446 1-1.175.404-.729.607-1.674.202-.945.148-1.93-.054-.986-.378-1.958t-.972-1.755q-.324.513-.62 1.053-.298.459-.622 1.053-.324.594-.675 1.215.621.135 1.04.648.418.513.54 1.08.121.567-.122 1.012-.243.446-.918.446zm12.717 3.186q0 .81-.58 1.39-.58.581-1.39.581-.838 0-1.405-.58-.567-.581-.567-1.391 0-.837.567-1.404t1.404-.567q.81 0 1.39.567.581.567.581 1.404zm4.293-21.222q.19-.459.567-.526.378-.068.81.148.432.216.864.635.432.418.756.945.324.526.473 1.08.148.553.013 1.039-.108.405-.634 1.31-.527.904-1.256 2.092-.729 1.188-1.566 2.524-.837 1.337-1.58 2.606-.742 1.269-1.268 2.349-.527 1.08-.662 1.728-.108.513-.459.688-.35.176-.715.068-.365-.108-.608-.486t-.162-.972q.216-1.593.662-3.24.445-1.647.985-3.213t1.148-2.997q.607-1.431 1.134-2.592.526-1.161.931-1.984.405-.824.567-1.202z"/></svg>