<svg width="273" height="51" viewBox="0 0 273 51" xmlns="http://www.w3.org/2000/svg"><path d="M80.142 34.2c.216 0 .36-.144.36-.36v-8.496c0-.144.072-.216.216-.216h1.188c4.356 0 7.2-2.16 7.2-7.704 0-5.58-2.736-7.704-7.2-7.704h-5.76c-.216 0-.36.144-.36.36v23.76c0 .216.144.36.36.36zm1.62-13.212h-1.044c-.144 0-.216-.072-.216-.216v-6.696c0-.144.072-.216.216-.216h1.044c1.836 0 2.628.792 2.628 3.564 0 2.772-.792 3.564-2.628 3.564zm16.38 13.536c3.204 0 5.364-1.44 6.264-4.14.396-1.116.504-2.124.504-8.424 0-6.3-.108-7.308-.504-8.424-.9-2.7-3.06-4.14-6.264-4.14s-5.364 1.44-6.264 4.14c-.396 1.116-.504 2.124-.504 8.424 0 6.3.108 7.308.504 8.424.9 2.7 3.06 4.14 6.264 4.14zm0-4.248c-.9 0-1.512-.504-1.728-1.188-.18-.576-.252-1.188-.252-7.128s.072-6.552.252-7.128c.216-.684.828-1.188 1.728-1.188s1.512.504 1.728 1.188c.18.576.252 1.188.252 7.128s-.072 6.552-.252 7.128c-.216.684-.828 1.188-1.728 1.188zM121.65 34.2c.18 0 .252-.18.18-.36l-3.348-10.368c1.692-1.152 2.736-3.168 2.736-6.264 0-5.436-2.808-7.488-7.164-7.488h-5.832c-.216 0-.36.144-.36.36v23.76c0 .216.144.36.36.36h3.996c.216 0 .36-.144.36-.36v-9c0-.144.072-.216.216-.216h1.368l2.772 9.288c.072.216.18.288.396.288zm-7.812-13.644h-1.044c-.144 0-.216-.072-.216-.216v-6.264c0-.144.072-.216.216-.216h1.044c1.836 0 2.628.792 2.628 3.348 0 2.592-.792 3.348-2.628 3.348zM131.622 34.2c.216 0 .36-.144.36-.36V14.184c0-.144.072-.216.216-.216h3.852c.216 0 .36-.144.36-.36V10.08c0-.216-.144-.36-.36-.36h-12.852c-.216 0-.36.144-.36.36v3.528c0 .216.144.36.36.36h3.852c.144 0 .216.072.216.216V33.84c0 .216.144.36.36.36zm14.796-27.18c.288 0 .468-.108.72-.36l3.744-4.104c.144-.18.036-.36-.18-.36h-3.6c-.288 0-.396.108-.576.36l-2.952 4.104c-.144.18-.036.36.18.36zm-1.332 27.504c4.104 0 6.624-2.34 6.624-6.948V10.08c0-.216-.144-.36-.36-.36h-3.996c-.216 0-.36.144-.36.36v18.072c0 1.296-.684 2.124-1.908 2.124-1.188 0-1.872-.828-1.872-2.124V10.08c0-.216-.144-.36-.36-.36h-3.996c-.216 0-.36.144-.36.36v17.496c0 4.608 2.52 6.948 6.588 6.948zm9.972-4.104c.9 2.664 3.024 4.104 6.3 4.104 3.204 0 5.328-1.44 6.228-4.14.396-1.116.504-2.124.504-8.424v-1.08c0-.216-.144-.36-.36-.36h-5.94c-.216 0-.36.144-.36.36v3.168c0 .216.144.36.36.36h1.548c.144 0 .216.072.216.216 0 3.6-.072 3.96-.216 4.464-.216.72-.972 1.188-1.872 1.188-.9 0-1.656-.468-1.872-1.188-.18-.54-.216-.864-.216-7.128 0-6.3.036-6.588.216-7.164.216-.684.936-1.152 1.8-1.152 1.224 0 1.944.828 2.052 2.592.036.252.18.36.396.324l3.816-.648c.216-.036.324-.216.288-.432-.324-3.96-2.628-6.084-6.588-6.084-3.276 0-5.4 1.44-6.3 4.104-.36 1.152-.468 2.16-.468 8.46 0 6.3.108 7.308.468 8.46zm14.004 3.42c-.036.216.072.36.288.36h3.996c.252 0 .36-.144.396-.36l.828-4.428h4.644l.792 4.428c.036.216.144.36.396.36h3.996c.216 0 .324-.144.288-.36l-5.256-23.76c-.036-.216-.18-.36-.396-.36h-4.248c-.216 0-.324.144-.396.36zm6.192-8.172l1.62-8.496h.108l1.548 8.496zm11.412 8.172c0 .216.144.36.36.36h10.764c.216 0 .36-.144.36-.36v-3.528c0-.216-.144-.36-.36-.36h-6.192c-.144 0-.216-.072-.216-.216V10.08c0-.216-.144-.36-.36-.36h-3.996c-.216 0-.36.144-.36.36z" fill="#fff"/></svg>