<svg width="1228.984" height="98" viewBox="0 0 1228.984 98" xmlns="http://www.w3.org/2000/svg"><path d="M229.21 65.127c0 .416.277.693.693.693h11.154c9.215 0 13.926-3.464 13.926-13.857 0-6.304-2.494-9.63-5.958-10.67v-.138c3.464-1.524 5.404-4.434 5.404-10.184 0-8.245-3.88-12.263-12.61-12.263h-11.916c-.416 0-.693.277-.693.692zm9.492-27.09c-.278 0-.416-.138-.416-.415V26.814c0-.277.138-.416.416-.416h2.009c3.533 0 4.642 1.247 4.642 5.82 0 4.642-1.109 5.82-4.642 5.82zm-.416 19.677V45.659c0-.277.138-.416.416-.416h2.009c3.81 0 5.127 1.455 5.127 6.374 0 4.988-1.317 6.513-5.127 6.513h-2.01c-.277 0-.415-.139-.415-.416zm36.166-44.203c.554 0 .9-.207 1.385-.692l7.206-7.899c.277-.346.069-.692-.347-.692h-6.928c-.554 0-.762.207-1.109.692l-5.68 7.899c-.278.346-.07.692.346.692zm-2.079 52.933c6.166 0 10.323-2.772 12.055-7.968.762-2.148.97-4.088.97-16.212 0-12.125-.208-14.065-.97-16.212-1.732-5.197-5.889-7.968-12.055-7.968-6.166 0-10.323 2.771-12.055 7.968-.762 2.147-.97 4.087-.97 16.212 0 12.124.208 14.064.97 16.212 1.732 5.196 5.889 7.968 12.055 7.968zm0-8.176c-1.732 0-2.91-.97-3.325-2.286-.347-1.109-.485-2.286-.485-13.718s.138-12.61.485-13.718c.415-1.317 1.593-2.287 3.325-2.287 1.732 0 2.91.97 3.326 2.287.346 1.108.485 2.286.485 13.718s-.139 12.61-.485 13.718c-.416 1.316-1.594 2.286-3.326 2.286zm18.706 6.86c0 .415.278.692.693.692h7.69c.416 0 .694-.277.694-.693V52.38l2.77-5.82 6.93 18.776c.068.346.276.485.692.485h8.245c.346 0 .554-.346.415-.693l-10.6-27.436 9.422-18.29c.208-.347 0-.693-.346-.693h-8.037c-.415 0-.693.138-.9.554l-8.591 18.221V19.4c0-.415-.278-.692-.693-.692h-7.69c-.416 0-.694.277-.694.692zm29.723 0c-.07.415.138.692.554.692h7.69c.485 0 .693-.277.763-.693l1.593-8.522h8.938l1.524 8.522c.07.416.277.693.762.693h7.69c.416 0 .624-.277.555-.693L340.755 19.4c-.069-.415-.346-.692-.762-.692h-8.175c-.416 0-.624.277-.762.692zM332.718 49.4l3.118-16.35h.208l2.98 16.35zm34.573 16.42c6.512 0 10.323-2.494 12.055-7.829.831-2.633 1.247-5.82 1.247-15.727 0-9.908-.416-13.095-1.247-15.727-1.732-5.335-5.543-7.83-12.055-7.83h-11.917c-.416 0-.693.278-.693.693v18.984c0 .277-.138.416-.416.416h-1.87c-.416 0-.693.277-.693.693v5.126c0 .416.277.693.693.693h1.87c.278 0 .416.139.416.416v19.4c0 .415.277.692.693.692zm-.901-8.175h-2.217c-.277 0-.416-.139-.416-.416V45.728c0-.277.139-.416.416-.416h3.048c.416 0 .693-.277.693-.693v-5.057c0-.416-.277-.693-.693-.693h-3.048c-.277 0-.416-.139-.416-.416V27.3c0-.277.139-.416.416-.416h2.217c2.286 0 3.533.831 4.226 2.91.485 1.455.762 3.464.762 12.47 0 9.008-.277 11.017-.762 12.472-.693 2.078-1.94 2.91-4.226 2.91zm32.424 8.799c7.899 0 12.748-4.504 12.748-13.372V19.4c0-.415-.277-.692-.692-.692h-7.69c-.417 0-.694.277-.694.692v34.78c0 2.495-1.316 4.088-3.672 4.088-2.286 0-3.602-1.593-3.602-4.088V19.4c0-.415-.278-.692-.693-.692h-7.69c-.416 0-.693.277-.693.692v33.672c0 8.868 4.85 13.372 12.678 13.372zm40.877-.624c.416 0 .693-.277.693-.693v-8.314c0-.277.139-.415.416-.415h2.286c8.383 0 13.857-4.227 13.857-14.827 0-10.739-5.266-14.827-13.857-14.827H440.8c-.277 0-.416-.138-.416-.415V19.4c0-.415-.277-.692-.693-.692h-7.69c-.416 0-.693.277-.693.692v45.727c0 .416.277.693.693.693zm3.118-17.39h-2.01c-.276 0-.415-.139-.415-.416V35.128c0-.277.139-.416.416-.416h2.009c3.533 0 5.058 1.524 5.058 6.859s-1.525 6.859-5.058 6.859zM462 65.127c0 .416.277.693.693.693h7.69c.416 0 .693-.277.693-.693V19.4c0-.415-.277-.692-.693-.692h-7.69c-.416 0-.693.277-.693.692zm30.138.693c.416 0 .693-.277.693-.693V27.3c0-.277.139-.416.416-.416h7.413c.416 0 .693-.277.693-.693V19.4c0-.415-.277-.692-.693-.692h-24.734c-.416 0-.693.277-.693.692v6.79c0 .416.277.693.693.693h7.413c.278 0 .416.139.416.416v37.828c0 .416.277.693.693.693zm28.753 0c.415 0 .693-.277.693-.693V27.3c0-.277.138-.416.415-.416h7.413c.416 0 .693-.277.693-.693V19.4c0-.415-.277-.692-.693-.692h-24.734c-.415 0-.692.277-.692.692v6.79c0 .416.277.693.692.693h7.414c.277 0 .415.139.415.416v37.828c0 .416.278.693.693.693zm26.189-.693c0 .416.277.693.692.693h7.69c.417 0 .694-.277.694-.693V47.044c0-.277.138-.415.415-.415h10.185c.416 0 .693-.277.693-.693v-6.86c0-.415-.277-.692-.693-.692H556.57c-.277 0-.415-.139-.415-.416v-10.67c0-.276.138-.415.415-.415h11.778c.416 0 .693-.277.693-.693V19.4c0-.415-.277-.692-.693-.692h-20.577c-.415 0-.692.277-.692.692zm26.743 0c0 .416.277.693.693.693h20.715c.416 0 .693-.277.693-.693v-6.79c0-.415-.277-.692-.693-.692h-11.916c-.278 0-.416-.139-.416-.416V19.4c0-.415-.277-.692-.693-.692h-7.69c-.416 0-.693.277-.693.692zm37.551 1.317c7.898 0 12.748-4.504 12.748-13.372V19.4c0-.415-.277-.692-.693-.692h-7.69c-.416 0-.693.277-.693.692v34.78c0 2.495-1.316 4.088-3.672 4.088-2.286 0-3.603-1.593-3.603-4.088V19.4c0-.415-.277-.692-.692-.692h-7.69c-.417 0-.694.277-.694.692v33.672c0 8.868 4.85 13.372 12.68 13.372zm19.191-7.899c1.733 5.127 5.82 7.899 12.125 7.899 6.166 0 10.254-2.772 11.986-7.968.762-2.148.97-4.088.97-16.212v-2.079c0-.415-.277-.692-.693-.692h-11.432c-.415 0-.692.277-.692.692v6.097c0 .416.277.693.692.693h2.98c.277 0 .415.139.415.416 0 6.928-.138 7.62-.416 8.59-.415 1.386-1.87 2.287-3.602 2.287-1.732 0-3.187-.9-3.603-2.286-.346-1.04-.416-1.663-.416-13.718 0-12.125.07-12.679.416-13.787.416-1.317 1.801-2.218 3.464-2.218 2.356 0 3.741 1.594 3.95 4.989.069.485.346.693.761.623l7.344-1.247c.416-.069.624-.415.555-.831-.624-7.621-5.058-11.709-12.68-11.709-6.304 0-10.391 2.771-12.124 7.898-.692 2.217-.9 4.157-.9 16.282 0 12.124.208 14.064.9 16.281zm55.011-6.72c0-7.968-2.494-11.432-8.937-13.926l-2.841-1.109c-3.672-1.454-4.434-2.563-4.434-6.096 0-3.187 1.178-4.712 3.603-4.712 2.494 0 3.672 1.732 3.74 5.127 0 .416.347.624.763.555l7.067-1.109c.415-.07.623-.346.623-.762-.346-7.413-4.226-11.709-12.47-11.709-8.384 0-12.472 4.573-12.472 13.095 0 7.551 2.287 11.085 8.938 13.648l2.84 1.109c3.534 1.385 4.365 2.84 4.365 6.997 0 4.296-1.177 5.612-3.74 5.612-2.703 0-3.95-1.732-4.089-6.097 0-.415-.277-.623-.762-.554l-7.413 1.178c-.416.07-.554.346-.554.762.138 8.106 4.226 12.61 12.748 12.61 9.353 0 13.025-4.989 13.025-14.62zm45.242 13.995c.415 0 .693-.277.693-.693v-6.79c0-.415-.278-.692-.693-.692H719.04c-.277 0-.416-.139-.416-.416v-10.67c0-.277.139-.415.416-.415h10.184c.416 0 .693-.277.693-.693v-6.79c0-.416-.277-.693-.693-.693H719.04c-.277 0-.416-.138-.416-.415V27.299c0-.277.139-.416.416-.416h11.778c.415 0 .693-.277.693-.693V19.4c0-.415-.278-.692-.693-.692h-26.536c-.415 0-.623.277-.762.692L687.24 65.127c-.139.416.07.693.485.693h7.62c.417 0 .763-.277.902-.693l2.91-8.522h9.976c.277 0 .416.139.416.416v8.106c0 .416.277.693.693.693zM709.27 26.883h.277v22.101c0 .277-.139.416-.416.416h-7.552zm41.985 38.937c.416 0 .693-.277.693-.693V27.3c0-.277.139-.416.416-.416h7.413c.416 0 .693-.277.693-.693V19.4c0-.415-.277-.692-.693-.692h-24.734c-.416 0-.693.277-.693.692v6.79c0 .416.277.693.693.693h7.413c.277 0 .416.139.416.416v37.828c0 .416.277.693.693.693zm13.372-.693c0 .416.277.693.693.693h7.69c.416 0 .693-.277.693-.693V19.4c0-.415-.277-.692-.693-.692h-7.69c-.416 0-.693.277-.693.692zm26.397 0c-.07.416.138.693.554.693h7.69c.485 0 .693-.277.762-.693l1.594-8.522h8.937l1.525 8.522c.069.416.277.693.762.693h7.69c.416 0 .624-.277.554-.693L810.978 19.4c-.07-.415-.346-.692-.762-.692h-8.176c-.415 0-.623.277-.762.692zM802.94 49.4l3.118-16.35h.208l2.979 16.35zm5.474-35.889c.554 0 .9-.207 1.385-.692l7.206-7.899c.277-.346.069-.692-.347-.692h-6.928c-.554 0-.762.207-1.109.692l-5.68 7.899c-.278.346-.07.692.346.692zm29.999 51.616c0 .416.277.693.693.693h6.582c.415 0 .693-.277.693-.693V35.543h.346l8.175 29.584c.139.485.416.693.97.693h8.314c.416 0 .693-.277.693-.693V19.4c0-.415-.277-.692-.693-.692h-6.582c-.415 0-.692.277-.692.692v29.584h-.347L848.737 19.4c-.138-.484-.416-.692-.97-.692h-8.66c-.416 0-.693.277-.693.692zm32.84 0c0 .416.277.693.693.693h20.577c.416 0 .693-.277.693-.693v-6.79c0-.415-.277-.692-.693-.692h-11.778c-.277 0-.416-.139-.416-.416v-10.67c0-.277.139-.415.416-.415h10.184c.416 0 .693-.277.693-.693v-6.79c0-.416-.277-.693-.693-.693h-10.184c-.277 0-.416-.138-.416-.415V27.299c0-.277.139-.416.416-.416h11.778c.416 0 .693-.277.693-.693V19.4c0-.415-.277-.692-.693-.692h-20.577c-.416 0-.693.277-.693.692zm41.708.693c.416 0 .693-.277.693-.693V27.3c0-.277.139-.416.416-.416h7.413c.416 0 .693-.277.693-.693V19.4c0-.415-.277-.692-.693-.692H896.75c-.416 0-.693.277-.693.692v6.79c0 .416.277.693.693.693h7.413c.278 0 .416.139.416.416v37.828c0 .416.277.693.693.693zm13.372-.693c0 .416.277.693.693.693h7.69c.416 0 .693-.277.693-.693V19.4c0-.415-.277-.692-.693-.692h-7.69c-.416 0-.693.277-.693.692zm15.45 0c0 .416.277.693.693.693h6.582c.415 0 .693-.277.693-.693V35.543h.346l8.175 29.584c.139.485.416.693.97.693h8.314c.416 0 .693-.277.693-.693V19.4c0-.415-.277-.692-.693-.692h-6.582c-.415 0-.692.277-.692.692v29.584h-.347L952.107 19.4c-.138-.484-.416-.692-.97-.692h-8.66c-.416 0-.693.277-.693.692zm45.38 1.317c7.899 0 12.748-4.504 12.748-13.372V19.4c0-.415-.277-.692-.693-.692h-7.69c-.416 0-.693.277-.693.692v34.78c0 2.495-1.316 4.088-3.672 4.088-2.286 0-3.602-1.593-3.602-4.088V19.4c0-.415-.278-.692-.693-.692h-7.69c-.416 0-.693.277-.693.692v33.672c0 8.868 4.85 13.372 12.678 13.372z" fill="#fff"/></svg>