<svg width="298" height="79" viewBox="0 0 298 79" xmlns="http://www.w3.org/2000/svg"><path d="M11.426 47.92c1.36 4.134 4.474 6.4 9.572 6.4 6.173 0 9.798-3.285 10.138-9.742 0-.34-.113-.623-.51-.68l-5.947-1.02c-.34-.056-.623.114-.623.51-.113 3.059-1.076 4.248-2.945 4.248-1.36 0-2.152-.566-2.549-1.755-.226-.85-.34-1.53-.34-11.328s.114-10.478.34-11.328c.397-1.189 1.19-1.755 2.549-1.755 1.869 0 2.832 1.189 2.945 4.247 0 .397.283.567.623.51l5.947-1.02c.397-.056.51-.34.51-.679-.34-6.457-3.965-9.742-10.138-9.742-5.098 0-8.213 2.266-9.572 6.4-.51 1.643-.737 3.399-.737 13.367s.227 11.724.737 13.367zm33.303 6.4c5.04 0 8.44-2.266 9.855-6.514.623-1.755.793-3.341.793-13.253 0-9.912-.17-11.498-.793-13.253-1.416-4.248-4.814-6.514-9.855-6.514-5.04 0-8.44 2.266-9.855 6.514-.623 1.755-.793 3.341-.793 13.253 0 9.912.17 11.498.793 13.253 1.416 4.248 4.814 6.514 9.855 6.514zm0-6.684c-1.416 0-2.379-.793-2.719-1.869-.283-.906-.396-1.869-.396-11.214s.113-10.308.396-11.214c.34-1.076 1.303-1.87 2.719-1.87s2.379.794 2.719 1.87c.283.906.396 1.869.396 11.214s-.113 10.308-.396 11.214c-.34 1.076-1.303 1.87-2.719 1.87zm35.229-5.267c0-6.513-2.039-9.345-7.306-11.384l-2.323-.906c-3.001-1.19-3.624-2.096-3.624-4.985 0-2.605.962-3.851 2.945-3.851 2.039 0 3.002 1.416 3.058 4.191 0 .34.283.51.623.453l5.777-.906c.34-.056.51-.283.51-.623-.283-6.06-3.455-9.572-10.195-9.572-6.853 0-10.195 3.738-10.195 10.705 0 6.173 1.87 9.062 7.307 11.158l2.322.906c2.888 1.133 3.568 2.322 3.568 5.72 0 3.512-.963 4.588-3.058 4.588-2.21 0-3.229-1.416-3.342-4.984 0-.34-.227-.51-.623-.453l-6.06.963c-.34.056-.453.283-.453.623.113 6.626 3.455 10.308 10.421 10.308 7.646 0 10.648-4.078 10.648-11.95zM95.307 53.81c.34 0 .566-.227.566-.566V22.319c0-.226.114-.34.34-.34h6.06c.34 0 .567-.226.567-.566v-5.55c0-.34-.227-.567-.567-.567h-20.22c-.34 0-.566.227-.566.566v5.55c0 .34.227.567.567.567h6.06c.226 0 .34.114.34.34v30.925c0 .34.226.566.566.566zm6.004-.566c-.057.34.113.566.453.566h6.287c.396 0 .566-.227.623-.566l1.302-6.967h7.307l1.246 6.967c.056.34.226.566.623.566h6.286c.34 0 .51-.227.454-.566l-8.27-37.382c-.056-.34-.283-.566-.623-.566h-6.683c-.34 0-.51.227-.623.566zm9.741-12.857l2.55-13.367h.169l2.435 13.367zm29 12.857c0 .34.226.566.566.566h9.741c5.324 0 8.44-2.039 9.855-6.4.68-2.152 1.02-4.758 1.02-12.857 0-8.1-.34-10.705-1.02-12.857-1.416-4.361-4.53-6.4-9.855-6.4h-9.741c-.34 0-.567.227-.567.566zm7.419-6.457V22.319c0-.226.113-.34.34-.34h1.812c1.87 0 2.889.68 3.455 2.38.453 1.189.623 2.831.623 10.194 0 7.363-.17 9.005-.623 10.195-.566 1.699-1.586 2.379-3.455 2.379h-1.812c-.227 0-.34-.114-.34-.34zm18.407 6.457c0 .34.227.566.567.566h16.821c.34 0 .567-.227.567-.566v-5.55c0-.34-.227-.567-.567-.567h-9.628c-.227 0-.34-.114-.34-.34v-8.722c0-.227.113-.34.34-.34h8.325c.34 0 .567-.227.567-.567v-5.55c0-.34-.227-.567-.567-.567h-8.325c-.227 0-.34-.113-.34-.34V22.32c0-.226.113-.34.34-.34h9.628c.34 0 .567-.226.567-.566v-5.55c0-.34-.227-.567-.567-.567h-16.821c-.34 0-.567.227-.567.566zm22.09 0c0 .34.226.566.565.566h16.935c.34 0 .567-.227.567-.566v-5.55c0-.34-.227-.567-.567-.567h-9.741c-.227 0-.34-.114-.34-.34V15.862c0-.34-.227-.566-.567-.566h-6.287c-.34 0-.566.227-.566.566zm52.786-10.875c0-6.513-2.039-9.345-7.306-11.384l-2.323-.906c-3.001-1.19-3.624-2.096-3.624-4.985 0-2.605.962-3.851 2.945-3.851 2.039 0 3.002 1.416 3.058 4.191 0 .34.283.51.623.453l5.777-.906c.34-.056.51-.283.51-.623-.283-6.06-3.455-9.572-10.195-9.572-6.853 0-10.195 3.738-10.195 10.705 0 6.173 1.87 9.062 7.307 11.158l2.322.906c2.888 1.133 3.568 2.322 3.568 5.72 0 3.512-.963 4.588-3.058 4.588-2.21 0-3.229-1.416-3.342-4.984 0-.34-.227-.51-.623-.453l-6.06.963c-.34.056-.453.283-.453.623.113 6.626 3.454 10.308 10.42 10.308 7.647 0 10.649-4.078 10.649-11.95zm14.103 11.95c5.04 0 8.439-2.265 9.855-6.513.623-1.755.793-3.341.793-13.253 0-9.912-.17-11.498-.793-13.253-1.416-4.248-4.814-6.514-9.855-6.514-5.04 0-8.44 2.266-9.855 6.514-.623 1.755-.793 3.341-.793 13.253 0 9.912.17 11.498.793 13.253 1.416 4.248 4.814 6.514 9.855 6.514zm0-6.683c-1.416 0-2.379-.793-2.719-1.869-.283-.906-.396-1.869-.396-11.214s.113-10.308.396-11.214c.34-1.076 1.303-1.87 2.719-1.87s2.379.794 2.718 1.87c.284.906.397 1.869.397 11.214s-.113 10.308-.397 11.214c-.34 1.076-1.302 1.87-2.718 1.87zm15.292 5.608c0 .34.227.566.567.566h16.934c.34 0 .567-.227.567-.566v-5.55c0-.34-.227-.567-.567-.567h-9.741c-.227 0-.34-.114-.34-.34V15.862c0-.34-.227-.566-.567-.566h-6.286c-.34 0-.567.227-.567.566z" fill="#e22b11"/></svg>