<svg width="298" height="62" viewBox="0 0 298 62" xmlns="http://www.w3.org/2000/svg"><path d="M99.648 42.6c.314 0 .448-.135.538-.448l5.202-20.584c.045-.27-.09-.449-.359-.449h-2.556c-.314 0-.448.18-.493.449L98.66 36.277h-.09l-3.363-14.71c-.045-.268-.18-.448-.448-.448h-2.691c-.269 0-.404.18-.314.449l5.202 20.584c.09.313.224.448.493.448zm14.754.404c3.274 0 5.56-1.884 6.144-4.978.045-.27-.045-.494-.314-.538l-2.377-.494c-.27-.044-.448.045-.538.36-.449 1.658-1.345 2.42-2.87 2.42-1.256 0-2.063-.627-2.512-1.838-.179-.583-.313-1.3-.313-4.753 0-.18.09-.27.269-.27h8.43c.27 0 .449-.179.449-.448 0-5.606-.18-6.772-.493-7.758-.852-2.556-2.78-3.991-5.785-3.991-3.005 0-4.978 1.435-5.83 3.99-.314 1.032-.494 2.153-.494 7.131 0 5.023.18 6.144.494 7.13.852 2.602 2.78 4.037 5.74 4.037zm2.646-13.005h-5.157c-.18 0-.27-.09-.27-.27 0-2.78.135-3.497.314-4.08.36-1.122 1.256-1.794 2.557-1.794 1.255 0 2.152.672 2.511 1.794.18.583.314 1.3.314 4.08 0 .18-.09.27-.27.27zM128.259 42.6c.27 0 .449-.18.449-.448V28.877c0-3.139 1.524-4.619 3.632-4.619h.673c.269 0 .448-.09.538-.403l.628-2.556c.09-.27 0-.449-.27-.494a4.518 4.518 0 00-.851-.09c-2.198 0-3.588 1.211-4.306 2.87h-.044v-2.017c0-.27-.18-.449-.449-.449h-2.556c-.27 0-.449.18-.449.449v20.584c0 .269.18.448.449.448zm19.014-26.01c.314-.09.404-.27.314-.538l-.538-1.615c-.09-.269-.224-.359-.493-.269l-2.825.942-1.3-2.556c-.18-.314-.36-.449-.629-.449h-2.646c-.269 0-.358.18-.224.449l1.839 3.498-2.601.852c-.314.09-.404.269-.314.538l.538 1.57c.09.269.224.358.493.269l3.05-.987 2.018 3.857h-.045c-.404-.27-1.256-.494-2.152-.494-2.557 0-4.35 1.39-5.158 3.857-.358 1.166-.538 2.332-.538 6.816 0 4.395.135 5.382.493 6.548.808 2.646 2.96 4.126 5.92 4.126s5.068-1.48 5.92-4.126c.358-1.166.448-2.153.448-6.727 0-6.189-.404-8.117-2.646-12.422l-1.255-2.377zm-4.798 23.185c-1.345 0-2.242-.673-2.646-1.884-.224-.762-.269-1.345-.269-5.56 0-4.306.045-4.844.27-5.606.403-1.211 1.3-1.884 2.645-1.884 1.3 0 2.197.628 2.601 1.884.224.762.314 1.435.314 5.605 0 4.216-.045 4.799-.27 5.561-.403 1.211-1.3 1.884-2.645 1.884zm23.23 2.825c.269 0 .448-.18.448-.448V24.124c0-.18.09-.27.27-.27h2.69c.27 0 .449-.179.449-.448v-1.838c0-.27-.18-.449-.449-.449h-2.69c-.18 0-.27-.09-.27-.269v-3.453c0-1.48.538-2.018 1.929-2.018h1.031c.27 0 .449-.18.449-.448v-2.377c0-.27-.18-.449-.449-.449h-.807c-4.036 0-5.606 2.198-5.606 5.92v2.825c0 .18-.09.27-.269.27h-1.3c-.27 0-.449.179-.449.448v1.838c0 .27.18.449.449.449h1.3c.18 0 .27.09.27.269v18.028c0 .269.179.448.448.448zm10.225 0c.269 0 .448-.18.448-.448V28.877c0-3.139 1.525-4.619 3.632-4.619h.673c.27 0 .449-.09.538-.403l.628-2.556c.09-.27 0-.449-.269-.494a4.518 4.518 0 00-.852-.09c-2.197 0-3.588 1.211-4.305 2.87h-.045v-2.017c0-.27-.18-.449-.448-.449h-2.557c-.269 0-.448.18-.448.449v20.584c0 .269.18.448.448.448zm19.642 0c.269 0 .448-.18.448-.448v-14.35c0-5.113-1.794-7.086-6.099-7.086-2.287 0-4.26.807-5.516 1.973-.224.224-.224.448-.09.717l.853 1.75c.134.313.448.358.717.179 1.032-.808 2.063-1.435 3.633-1.435 2.332 0 3.184 1.21 3.184 4.08v1.75c0 .179-.09.269-.27.269h-2.556c-3.587 0-6.323 1.793-6.323 6.637 0 4.798 2.512 6.368 5.068 6.368 1.928 0 3.453-1.032 4.036-2.691h.045v1.839c0 .269.179.448.448.448zm-6.01-2.556c-1.704 0-2.69-1.166-2.69-3.498 0-2.377.986-3.633 3.543-3.633h2.018c.179 0 .269.09.269.27v2.96c0 2.331-1.3 3.9-3.14 3.9zm.718-22.423c.359 0 .493-.09.762-.448l3.902-5.516c.134-.224.045-.449-.224-.449h-2.646c-.359 0-.538.135-.718.449l-3.094 5.516c-.135.269-.045.448.224.448zm11.077 8.117h2.96c.269 0 .448-.18.448-.448v-3.722c0-.27-.18-.449-.448-.449h-2.96c-.27 0-.449.18-.449.449v3.722c0 .269.18.448.449.448zm-.449 16.414c0 .269.18.448.449.448h2.96c.269 0 .448-.18.448-.448v-3.767c0-.27-.18-.449-.448-.449h-2.96c-.27 0-.449.18-.449.449z" fill="#FFF"/></svg>