<svg width="169.667" height="59.882" viewBox="0 0 169.667 59.882" xmlns="http://www.w3.org/2000/svg"><path d="M18.753 37.621c0 .192.128.32.32.32h5.152c4.256 0 6.432-1.6 6.432-6.4 0-2.912-1.152-4.448-2.752-4.928v-.064c1.6-.704 2.496-2.048 2.496-4.704 0-3.808-1.792-5.664-5.824-5.664h-5.504c-.192 0-.32.128-.32.32zm4.384-12.512c-.128 0-.192-.064-.192-.192v-4.992c0-.128.064-.192.192-.192h.928c1.632 0 2.144.576 2.144 2.688 0 2.144-.512 2.688-2.144 2.688zm-.192 9.088V28.63c0-.128.064-.192.192-.192h.928c1.76 0 2.368.672 2.368 2.944 0 2.304-.608 3.008-2.368 3.008h-.928c-.128 0-.192-.064-.192-.192zM39.65 13.781c.256 0 .416-.096.64-.32l3.328-3.648c.128-.16.032-.32-.16-.32h-3.2c-.256 0-.352.096-.512.32l-2.624 3.648c-.128.16-.032.32.16.32zm-.96 24.448c2.848 0 4.768-1.28 5.568-3.68.352-.992.448-1.888.448-7.488 0-5.6-.096-6.496-.448-7.488-.8-2.4-2.72-3.68-5.568-3.68-2.848 0-4.768 1.28-5.568 3.68-.352.992-.448 1.888-.448 7.488 0 5.6.096 6.496.448 7.488.8 2.4 2.72 3.68 5.568 3.68zm0-3.776c-.8 0-1.344-.448-1.536-1.056-.16-.512-.224-1.056-.224-6.336s.064-5.824.224-6.336c.192-.608.736-1.056 1.536-1.056s1.344.448 1.536 1.056c.16.512.224 1.056.224 6.336s-.064 5.824-.224 6.336c-.192.608-.736 1.056-1.536 1.056zm8.64 3.168c0 .192.128.32.32.32h3.552c.192 0 .32-.128.32-.32v-5.888l1.28-2.688 3.2 8.672c.032.16.128.224.32.224h3.808c.16 0 .256-.16.192-.32L55.425 24.95l4.352-8.448c.096-.16 0-.32-.16-.32h-3.712c-.192 0-.32.064-.416.256l-3.968 8.416v-8.352c0-.192-.128-.32-.32-.32H47.65c-.192 0-.32.128-.32.32zm13.728 0c-.032.192.064.32.256.32h3.552c.224 0 .32-.128.352-.32l.736-3.936h4.128l.704 3.936c.032.192.128.32.352.32h3.552c.192 0 .288-.128.256-.32l-4.672-21.12c-.032-.192-.16-.32-.352-.32h-3.776c-.192 0-.288.128-.352.32zm5.504-7.264l1.44-7.552h.096l1.376 7.552zm15.968 7.584c3.008 0 4.768-1.152 5.568-3.616.384-1.216.576-2.688.576-7.264 0-4.576-.192-6.048-.576-7.264-.8-2.464-2.56-3.616-5.568-3.616h-5.504c-.192 0-.32.128-.32.32v8.768c0 .128-.064.192-.192.192h-.864c-.192 0-.32.128-.32.32v2.368c0 .192.128.32.32.32h.864c.128 0 .192.064.192.192v8.96c0 .192.128.32.32.32zm-.416-3.776H81.09c-.128 0-.192-.064-.192-.192v-5.312c0-.128.064-.192.192-.192h1.408c.192 0 .32-.128.32-.32v-2.336c0-.192-.128-.32-.32-.32H81.09c-.128 0-.192-.064-.192-.192V20.15c0-.128.064-.192.192-.192h1.024c1.056 0 1.632.384 1.952 1.344.224.672.352 1.6.352 5.76s-.128 5.088-.352 5.76c-.32.96-.896 1.344-1.952 1.344zM97.09 38.23c3.648 0 5.888-2.08 5.888-6.176V16.501c0-.192-.128-.32-.32-.32h-3.552c-.192 0-.32.128-.32.32v16.064c0 1.152-.608 1.888-1.696 1.888-1.056 0-1.664-.736-1.664-1.888V16.501c0-.192-.128-.32-.32-.32h-3.552c-.192 0-.32.128-.32.32v15.552c0 4.096 2.24 6.176 5.856 6.176zm15.008-.608c0 .192.128.32.32.32h3.552c.192 0 .32-.128.32-.32v-8.704c0-.128.064-.192.192-.192h3.04c.128 0 .192.064.192.192v8.704c0 .192.128.32.32.32h3.552c.192 0 .32-.128.32-.32v-21.12c0-.192-.128-.32-.32-.32h-3.552c-.192 0-.32.128-.32.32v8.256c0 .128-.064.192-.192.192h-3.04c-.128 0-.192-.064-.192-.192v-8.256c0-.192-.128-.32-.32-.32h-3.552c-.192 0-.32.128-.32.32zm20.736-23.84c.256 0 .416-.096.64-.32l3.328-3.648c.128-.16.032-.32-.16-.32h-3.2c-.256 0-.352.096-.512.32l-2.624 3.648c-.128.16-.032.32.16.32zm-5.984 23.84c0 .192.128.32.32.32h9.504c.192 0 .32-.128.32-.32v-3.136c0-.192-.128-.32-.32-.32h-5.44c-.128 0-.192-.064-.192-.192v-4.928c0-.128.064-.192.192-.192h4.704c.192 0 .32-.128.32-.32v-3.136c0-.192-.128-.32-.32-.32h-4.704c-.128 0-.192-.064-.192-.192V20.15c0-.128.064-.192.192-.192h5.44c.192 0 .32-.128.32-.32v-3.136c0-.192-.128-.32-.32-.32h-9.504c-.192 0-.32.128-.32.32zm24.736.32c.16 0 .224-.16.16-.32l-2.976-9.216c1.504-1.024 2.432-2.816 2.432-5.568 0-4.832-2.496-6.656-6.368-6.656h-5.184c-.192 0-.32.128-.32.32v21.12c0 .192.128.32.32.32h3.552c.192 0 .32-.128.32-.32v-8c0-.128.064-.192.192-.192h1.216l2.464 8.256c.064.192.16.256.352.256zm-6.944-12.128h-.928c-.128 0-.192-.064-.192-.192v-5.568c0-.128.064-.192.192-.192h.928c1.632 0 2.336.704 2.336 2.976 0 2.304-.704 2.976-2.336 2.976z" fill="#fff"/></svg>