<svg width="140.374" height="24" viewBox="0 0 140.374 24" xmlns="http://www.w3.org/2000/svg"><path d="M4.848 15.218c-.016.097.065.162.162.162h.518c.097 0 .146-.065.162-.162l.55-2.638h2.687l.55 2.638c.016.097.065.162.178.162h.518c.097 0 .162-.065.146-.162L8.053 4.536c-.016-.097-.08-.162-.178-.162h-.534c-.097 0-.146.065-.178.162zm1.554-3.399l1.182-5.616h.032l1.15 5.616zM7.794 3c.113 0 .162-.033.275-.162L9.477 1.17c.065-.081.033-.162-.064-.162h-.535c-.145 0-.194.048-.275.162L7.39 2.837c-.064.08-.032.162.065.162zm7.008 12.22c0 .096.065.161.162.161h.47c.096 0 .161-.065.161-.162V6.77h.049l1.942 6.49c.032.113.08.162.178.162h.324c.097 0 .145-.049.178-.162l1.942-6.49h.048v8.448c0 .097.065.162.162.162h.47c.097 0 .161-.065.161-.162V4.536c0-.097-.064-.162-.161-.162h-.55c-.098 0-.179.049-.211.162l-2.169 7.38h-.032l-2.201-7.38c-.033-.113-.097-.162-.21-.162h-.551c-.097 0-.162.065-.162.162zm7.753 0c-.016.096.064.161.162.161h.517c.098 0 .146-.065.162-.162l.55-2.638h2.687l.55 2.638c.017.097.065.162.179.162h.518c.097 0 .161-.065.145-.162L25.76 4.536c-.016-.097-.08-.162-.178-.162h-.534c-.097 0-.145.065-.178.162zm1.553-3.4l1.182-5.616h.032l1.15 5.616zm5.422 3.4c0 .096.065.161.162.161h.453c.098 0 .162-.065.162-.162V6.203h.049l3.075 9.015c.049.13.113.162.259.162h.615c.097 0 .162-.065.162-.162V4.536c0-.097-.065-.162-.162-.162h-.453c-.097 0-.162.065-.162.162v9.015h-.049L30.6 4.536c-.049-.13-.114-.162-.26-.162h-.647c-.097 0-.162.065-.162.162zm7.138 0c0 .096.065.161.162.161h.453c.097 0 .162-.065.162-.162V6.203h.048l3.076 9.015c.048.13.113.162.258.162h.615c.098 0 .162-.065.162-.162V4.536c0-.097-.064-.162-.162-.162h-.453c-.097 0-.162.065-.162.162v9.015h-.048l-3.043-9.015c-.048-.13-.113-.162-.259-.162h-.647c-.097 0-.162.065-.162.162zm10.116 0c0 .096.064.161.161.161h.47c.097 0 .162-.065.162-.162V6.77h.048l1.942 6.49c.033.113.081.162.178.162h.324c.097 0 .146-.049.178-.162l1.942-6.49h.049v8.448c0 .097.065.162.162.162h.469c.097 0 .162-.065.162-.162V4.536c0-.097-.065-.162-.162-.162h-.55c-.097 0-.178.049-.21.162l-2.17 7.38h-.032l-2.2-7.38c-.033-.113-.098-.162-.211-.162h-.55c-.098 0-.162.065-.162.162zm8.205 0c0 .096.065.161.162.161h.728c.098 0 .162-.065.162-.162v-1.052c0-.097-.064-.162-.162-.162h-.728c-.097 0-.162.065-.162.162zm5.212.161c.097 0 .145-.065.162-.162l2.185-10.682c.016-.097-.017-.162-.13-.162h-.534c-.097 0-.146.065-.162.162l-1.732 8.87h-.048l-1.748-8.87c-.016-.097-.081-.162-.178-.162h-.534c-.114 0-.146.065-.13.162l2.185 10.682c.016.097.065.162.162.162zm2.347-.162c0 .097.064.162.161.162h.729c.097 0 .162-.065.162-.162v-1.052c0-.097-.065-.162-.162-.162h-.729c-.097 0-.161.065-.161.162zm5.535 0c0 .097.065.162.162.162h3.836c.097 0 .161-.065.161-.162v-.437c0-.097-.064-.162-.161-.162h-3.108v-.016l2.638-5.18c.405-.808.631-1.456.631-2.54 0-.712-.032-1.004-.13-1.311-.274-.858-.938-1.327-1.941-1.327-1.004 0-1.667.485-1.942 1.327-.098.307-.146.599-.146 1.424 0 .114.048.178.162.194l.453.049c.113.016.178-.049.178-.162 0-.841.032-1.052.097-1.262.178-.518.583-.81 1.182-.81.615 0 1.02.292 1.181.81.081.21.113.42.113 1.068 0 .906-.194 1.473-.534 2.153l-2.767 5.502a.441.441 0 00-.065.26zm9.177 0c0 .097.064.162.162.162h.517c.098 0 .162-.065.162-.162v-4.855c0-.065.033-.097.097-.097h2.59c.097 0 .162-.065.162-.162v-.47c0-.097-.065-.161-.162-.161h-2.59c-.064 0-.097-.033-.097-.098v-4.11c0-.065.033-.098.097-.098h2.962c.097 0 .162-.064.162-.162v-.469c0-.097-.065-.162-.162-.162h-3.738c-.098 0-.162.065-.162.162zm7.995.291c1.424 0 2.38-.89 2.38-2.719V4.536c0-.097-.065-.162-.163-.162h-.501c-.097 0-.162.065-.162.162v8.32c0 1.278-.631 1.86-1.554 1.86-.922 0-1.537-.582-1.537-1.86v-8.32c0-.097-.065-.162-.162-.162h-.518c-.097 0-.162.065-.162.162v8.254c0 1.83.955 2.72 2.38 2.72zm4.564-.29c0 .096.065.161.162.161h3.723c.097 0 .161-.065.161-.162v-.47c0-.096-.064-.161-.161-.161h-2.946c-.065 0-.097-.032-.097-.097V4.536c0-.097-.065-.162-.162-.162h-.518c-.097 0-.162.065-.162.162zm5.568 0c0 .096.065.161.162.161h3.722c.097 0 .162-.065.162-.162v-.47c0-.096-.065-.161-.162-.161h-2.945c-.065 0-.098-.032-.098-.097V4.536c0-.097-.064-.162-.161-.162h-.518c-.097 0-.162.065-.162.162zm7.429.29c1.133 0 1.893-.517 2.217-1.505.162-.485.21-.906.21-4.127 0-3.22-.048-3.641-.21-4.127-.324-.987-1.084-1.505-2.217-1.505s-1.894.518-2.218 1.505c-.161.486-.21.906-.21 4.127 0 3.22.049 3.642.21 4.127.324.988 1.085 1.505 2.218 1.505zm0-.793c-.696 0-1.182-.323-1.408-.97-.114-.373-.162-.713-.162-3.869s.048-3.496.162-3.868c.226-.664.712-.971 1.408-.971s1.197.307 1.408.97c.113.373.178.713.178 3.87 0 3.155-.065 3.495-.178 3.867-.21.648-.712.971-1.408.971zm9.03.664c.082 0 .114-.065.082-.162l-1.49-5.017c.875-.389 1.36-1.246 1.36-2.784 0-2.233-.874-3.043-2.8-3.043h-1.57c-.097 0-.161.065-.161.162v10.682c0 .097.064.162.161.162h.518c.097 0 .162-.065.162-.162v-4.661c0-.065.033-.097.097-.097h.761c.243 0 .47-.016.68-.049l1.424 4.856c.032.08.08.113.178.113zm-2.783-5.697h-.858c-.064 0-.097-.032-.097-.097V5.264c0-.064.033-.097.097-.097h.858c1.343 0 1.894.55 1.894 2.25 0 1.764-.583 2.266-1.894 2.266zm6.879 5.697c1.327 0 2.055-.583 2.395-1.635.194-.599.259-1.327.259-3.868 0-2.557-.065-3.27-.259-3.868-.34-1.052-1.068-1.635-2.395-1.635h-1.975c-.097 0-.162.065-.162.162v4.807c0 .065-.032.097-.097.097h-.55c-.097 0-.162.065-.162.162v.388c0 .098.065.162.162.162h.55c.065 0 .097.033.097.097v4.97c0 .096.065.161.162.161zm-.097-.793h-1.101c-.065 0-.097-.032-.097-.097v-4.24c0-.065.032-.098.097-.098h1.214c.097 0 .162-.064.162-.162v-.388c0-.097-.065-.162-.162-.162h-1.214c-.065 0-.097-.032-.097-.097V5.264c0-.064.032-.097.097-.097h1.1c.923 0 1.425.356 1.684 1.117.162.502.226 1.165.226 3.593s-.064 3.091-.226 3.593c-.26.76-.76 1.117-1.683 1.117zm4.79.631c0 .097.065.162.162.162h.453c.097 0 .162-.065.162-.162V6.203h.049l3.075 9.015c.048.13.113.162.259.162h.615c.097 0 .162-.065.162-.162V4.536c0-.097-.065-.162-.162-.162h-.453c-.097 0-.162.065-.162.162v9.015h-.049l-3.042-9.015c-.049-.13-.114-.162-.26-.162h-.647c-.097 0-.162.065-.162.162zm6.442 0c-.016.097.065.162.162.162h.518c.097 0 .145-.065.162-.162l.55-2.638h2.687l.55 2.638c.016.097.065.162.178.162h.518c.097 0 .162-.065.145-.162l-2.265-10.682c-.017-.097-.081-.162-.179-.162h-.534c-.097 0-.145.065-.178.162zm1.554-3.399l1.181-5.616h.033l1.149 5.616z" fill="#fff"/></svg>