<svg width="110.296" height="33" viewBox="0 0 110.296 33" xmlns="http://www.w3.org/2000/svg"><path d="M18.666 22.273c0 .142.094.237.237.237h2.488c.142 0 .237-.095.237-.237V6.634c0-.142-.095-.237-.237-.237h-2.346c-.166 0-.26.047-.403.142l-2.085 1.54c-.166.119-.214.214-.214.38v2.559c0 .19.143.237.261.142l2.014-1.398h.048zm9.857 0c0 .142.095.237.237.237h2.488c.142 0 .237-.095.237-.237V6.634c0-.142-.095-.237-.237-.237h-2.346c-.166 0-.26.047-.403.142l-2.085 1.54c-.166.119-.213.214-.213.38v2.559c0 .19.142.237.26.142l2.014-1.398h.048zm7.25-1.943c.498 1.517 1.754 2.393 3.697 2.393 1.99 0 3.223-.853 3.72-2.37.143-.45.214-1.066.214-2.511 0-1.47-.048-1.872-.166-2.251-.213-.687-.616-1.114-1.232-1.47v-.047c.592-.355 1.019-.805 1.232-1.469.118-.379.166-.805.166-1.872 0-1.113-.071-1.73-.214-2.18-.497-1.516-1.706-2.37-3.72-2.37-1.943 0-3.199.878-3.696 2.394-.142.474-.214 1.019-.214 1.754 0 .165.072.26.237.284l2.37.237c.166.024.284-.048.284-.237 0-.782.024-.995.071-1.185.143-.426.427-.64.924-.64.474 0 .759.19.9.616.072.19.096.427.096 1.327 0 1.185-.024 1.398-.095 1.564-.142.427-.474.569-1.019.569h-.38c-.141 0-.236.095-.236.237v2.204c0 .142.095.237.237.237h.355c.569 0 .9.142 1.043.592.071.166.095.403.095 1.682 0 1.256-.024 1.493-.095 1.683-.142.426-.427.616-.9.616-.498 0-.782-.213-.925-.64-.047-.19-.07-.403-.07-1.185 0-.19-.12-.26-.285-.237l-2.37.237c-.165.024-.237.119-.237.285 0 .734.072 1.28.214 1.753zm9.692 1.943c0 .142.095.237.237.237h2.417c.142 0 .237-.095.237-.237v-2.749c0-.142-.095-.237-.237-.237h-2.417c-.142 0-.237.095-.237.237zm6.208-.047c-.07.166 0 .284.166.284h2.512c.19 0 .284-.071.355-.237l2.725-6.587c.593-1.422.83-2.37.83-4.574 0-1.492-.071-2.037-.214-2.511-.497-1.54-1.777-2.417-3.743-2.417-1.967 0-3.247.877-3.744 2.417-.143.474-.214 1.019-.214 2.511 0 1.517.095 2.18.261 2.654.474 1.422 1.327 2.251 2.89 2.251.333 0 .593-.047.712-.118 0 .024.047.047.047.047zm2.63-8.768c-.473 0-.758-.213-.9-.64-.071-.189-.095-.426-.095-1.706s.024-1.492.095-1.682c.142-.426.427-.64.9-.64.474 0 .759.214.901.64.071.19.095.403.095 1.682 0 1.28-.024 1.517-.095 1.707-.142.426-.427.64-.9.64zm6.138 6.848c.497 1.564 1.824 2.417 3.72 2.417 1.895 0 3.246-.83 3.72-2.417.19-.592.26-1.232.26-5.852 0-4.621-.07-5.26-.26-5.853-.474-1.588-1.825-2.417-3.72-2.417-1.896 0-3.199.853-3.697 2.417-.19.592-.284 1.232-.284 5.853 0 4.62.071 5.26.26 5.852zm2.82-.805c-.072-.237-.095-.522-.095-5.047 0-4.526.023-4.81.094-5.048.119-.379.427-.616.9-.616.475 0 .783.237.901.616.071.237.095.522.095 5.048 0 4.525-.024 4.81-.095 5.047-.118.379-.403.616-.9.616-.474 0-.782-.237-.9-.616zm7.037.805c.498 1.564 1.825 2.417 3.72 2.417 1.896 0 3.246-.83 3.72-2.417.19-.592.261-1.232.261-5.852 0-4.621-.071-5.26-.26-5.853-.475-1.588-1.825-2.417-3.72-2.417-1.896 0-3.2.853-3.697 2.417-.19.592-.285 1.232-.285 5.853 0 4.62.071 5.26.261 5.852zm2.82-.805c-.071-.237-.095-.522-.095-5.047 0-4.526.024-4.81.095-5.048.118-.379.426-.616.9-.616.474 0 .782.237.9.616.072.237.095.522.095 5.048 0 4.525-.023 4.81-.094 5.047-.119.379-.403.616-.9.616-.475 0-.783-.237-.901-.616zm11.54 2.772c0 .142.094.237.236.237h2.63c.143 0 .238-.095.238-.237v-4.36l.947-1.99 2.37 6.421c.024.119.095.166.237.166h2.82c.118 0 .19-.118.142-.237l-3.626-9.383 3.223-6.256c.071-.118 0-.237-.119-.237h-2.748c-.142 0-.237.047-.308.19l-2.938 6.232V6.634c0-.142-.095-.237-.237-.237h-2.63c-.143 0-.238.095-.238.237zm20.117.237c.118 0 .166-.118.118-.237l-2.203-6.824c1.113-.758 1.8-2.085 1.8-4.123 0-3.578-1.848-4.929-4.715-4.929h-3.839c-.142 0-.237.095-.237.237v15.639c0 .142.095.237.237.237h2.63c.143 0 .238-.095.238-.237v-5.924c0-.095.047-.142.142-.142h.9l1.825 6.113c.047.143.118.19.26.19zm-5.142-8.98h-.687c-.095 0-.142-.048-.142-.143V9.264c0-.095.047-.142.142-.142h.687c1.208 0 1.73.521 1.73 2.204 0 1.706-.522 2.203-1.73 2.203zm6.753 8.743c0 .142.095.237.237.237h2.417c.142 0 .237-.095.237-.237v-2.749c0-.142-.095-.237-.237-.237h-2.417c-.142 0-.237.095-.237.237z" fill="#fff"/></svg>