<svg width="178" height="20" viewBox="0 0 178 20" xmlns="http://www.w3.org/2000/svg"><path d="M2.9 13.51c.086 0 .128-.057.142-.142l1.92-9.384c.014-.085-.014-.142-.114-.142h-.47c-.084 0-.127.057-.141.142l-1.522 7.791h-.042l-1.536-7.79c-.014-.086-.07-.143-.156-.143h-.47c-.099 0-.127.057-.113.142l1.92 9.384c.014.085.056.142.142.142zm3.427-.142c0 .085.057.142.142.142h3.284c.085 0 .142-.057.142-.142v-.412c0-.086-.057-.143-.142-.143H7.151c-.057 0-.085-.028-.085-.085V9.046c0-.057.028-.086.085-.086h2.275c.085 0 .142-.056.142-.142v-.412c0-.085-.057-.142-.142-.142H7.151c-.057 0-.085-.029-.085-.085V4.624c0-.057.028-.085.085-.085h2.602c.085 0 .142-.057.142-.142v-.413c0-.085-.057-.142-.142-.142H6.469c-.085 0-.142.057-.142.142zm9.013.142c.072 0 .1-.057.072-.142L14.104 8.96c.767-.34 1.194-1.094 1.194-2.445 0-1.962-.768-2.673-2.46-2.673H11.46c-.085 0-.142.057-.142.142v9.384c0 .085.057.142.142.142h.455c.085 0 .142-.057.142-.142V9.273c0-.057.029-.085.086-.085h.668c.213 0 .412-.014.597-.043l1.251 4.265c.028.072.071.1.156.1zm-2.445-5.004h-.753c-.057 0-.086-.029-.086-.086V4.624c0-.057.029-.085.086-.085h.753c1.18 0 1.663.483 1.663 1.976 0 1.55-.511 1.99-1.663 1.99zm6.042 5.004c1.166 0 1.806-.512 2.105-1.436.17-.526.227-1.166.227-3.398 0-2.246-.057-2.872-.227-3.398-.299-.924-.939-1.436-2.105-1.436h-1.734c-.085 0-.142.057-.142.142v4.223c0 .057-.029.085-.086.085h-.483c-.085 0-.142.057-.142.142v.342c0 .085.057.142.142.142h.483c.057 0 .086.028.086.085v4.365c0 .085.057.142.142.142zm-.085-.697h-.967c-.057 0-.085-.028-.085-.085V9.003c0-.057.028-.085.085-.085h1.067c.085 0 .142-.057.142-.142v-.342c0-.085-.057-.142-.142-.142h-1.067c-.057 0-.085-.028-.085-.085V4.624c0-.057.028-.085.085-.085h.967c.81 0 1.251.313 1.479.98.142.442.199 1.025.199 3.157 0 2.133-.057 2.716-.2 3.156-.227.669-.668.981-1.478.981zm6.824.555c0 .085.057.142.143.142h.455c.085 0 .142-.057.142-.142V9.103c0-.057.028-.086.085-.086h2.275c.085 0 .142-.057.142-.142v-.412c0-.085-.057-.142-.142-.142H26.5c-.057 0-.085-.029-.085-.086v-3.61c0-.058.028-.086.085-.086h2.602c.085 0 .142-.057.142-.142v-.413c0-.085-.057-.142-.142-.142h-3.284c-.086 0-.143.057-.143.142zm8.971.142c.072 0 .1-.057.072-.142L33.41 8.96c.767-.34 1.194-1.094 1.194-2.445 0-1.962-.768-2.673-2.46-2.673h-1.379c-.085 0-.142.057-.142.142v9.384c0 .085.057.142.142.142h.455c.085 0 .142-.057.142-.142V9.273c0-.057.029-.085.086-.085h.668c.213 0 .412-.014.597-.043l1.251 4.265c.028.072.071.1.156.1zm-2.445-5.004h-.753c-.057 0-.086-.029-.086-.086V4.624c0-.057.029-.085.086-.085h.753c1.18 0 1.664.483 1.664 1.976 0 1.55-.512 1.99-1.664 1.99zm3.554 4.862c-.014.085.057.142.143.142h.455c.085 0 .128-.057.142-.142l.483-2.318h2.36l.484 2.318c.014.085.056.142.156.142h.455c.085 0 .142-.057.128-.142l-1.99-9.384c-.015-.085-.072-.142-.157-.142h-.47c-.084 0-.127.057-.155.142zm1.365-2.986L38.16 5.45h.029l1.009 4.933zm1.223-7.748c.1 0 .142-.029.242-.142l1.237-1.465c.056-.07.028-.142-.057-.142h-.47c-.127 0-.17.043-.241.142l-1.066 1.465c-.057.07-.029.142.056.142zm3.668 5.303h.64c.085 0 .142-.057.142-.142V6.87c0-.086-.057-.143-.142-.143h-.64c-.085 0-.142.057-.142.143v.924c0 .085.057.142.142.142zm-.142 5.43c0 .086.057.143.142.143h.64c.085 0 .142-.057.142-.142v-.924c0-.086-.057-.142-.142-.142h-.64c-.085 0-.142.056-.142.142z" fill="#fff"/></svg>