<svg width="93.512" height="33" viewBox="0 0 93.512 33" xmlns="http://www.w3.org/2000/svg"><path d="M10.246 22.226c-.071.166 0 .284.166.284h2.511c.19 0 .285-.071.356-.237l2.725-6.587c.592-1.422.83-2.37.83-4.574 0-1.492-.072-2.037-.214-2.511-.498-1.54-1.777-2.417-3.744-2.417-1.967 0-3.246.877-3.744 2.417-.142.474-.213 1.019-.213 2.511 0 1.517.095 2.18.26 2.654.474 1.422 1.327 2.251 2.891 2.251.332 0 .593-.047.711-.118 0 .024.048.047.048.047zm2.63-8.768c-.474 0-.758-.213-.9-.64-.072-.189-.095-.426-.095-1.706s.023-1.492.095-1.682c.142-.426.426-.64.9-.64.474 0 .758.214.9.64.072.19.095.403.095 1.682 0 1.28-.023 1.517-.095 1.707-.142.426-.426.64-.9.64zm6.16 6.872c.498 1.517 1.73 2.393 3.697 2.393s3.2-.853 3.72-2.393c.143-.45.214-1.043.214-3.01 0-2.274-.071-2.843-.26-3.388-.427-1.35-1.375-1.99-2.915-1.99-.806 0-1.422.26-1.778.616h-.023V9.193c0-.095.047-.142.142-.142h4.573c.142 0 .237-.095.237-.237v-2.18c0-.142-.095-.237-.237-.237h-7.109c-.142 0-.236.095-.236.237v8.507c0 .166.094.237.236.237h2.11c.189 0 .284-.048.331-.214.142-.402.427-.663.948-.663.474 0 .782.213.924.64.071.19.095.426.095 2.18 0 1.753-.024 1.99-.095 2.18-.142.426-.426.616-.924.616-.474 0-.758-.213-.9-.64-.072-.19-.095-.403-.095-1.019 0-.19-.119-.26-.285-.237l-2.345.237c-.166.024-.237.119-.237.284 0 .57.07 1.114.213 1.588zm9.645 1.943c0 .142.095.237.237.237h2.417c.142 0 .237-.095.237-.237v-2.749c0-.142-.095-.237-.237-.237h-2.417c-.142 0-.237.095-.237.237zm5.142-1.943c.497 1.517 1.73 2.393 3.696 2.393 1.967 0 3.2-.853 3.72-2.393.143-.45.214-1.043.214-3.01 0-2.274-.071-2.843-.26-3.388-.427-1.35-1.375-1.99-2.915-1.99-.806 0-1.422.26-1.778.616h-.023V9.193c0-.095.047-.142.142-.142h4.573c.142 0 .237-.095.237-.237v-2.18c0-.142-.095-.237-.237-.237h-7.109c-.142 0-.237.095-.237.237v8.507c0 .166.095.237.237.237h2.11c.189 0 .284-.048.331-.214.142-.402.427-.663.948-.663.474 0 .782.213.924.64.071.19.095.426.095 2.18 0 1.753-.024 1.99-.095 2.18-.142.426-.427.616-.924.616-.474 0-.758-.213-.9-.64-.072-.19-.095-.403-.095-1.019 0-.19-.119-.26-.285-.237l-2.346.237c-.165.024-.236.119-.236.284 0 .57.07 1.114.213 1.588zm9.833-.024c.498 1.564 1.825 2.417 3.72 2.417 1.896 0 3.247-.83 3.72-2.417.19-.592.261-1.232.261-5.852 0-4.621-.07-5.26-.26-5.853-.474-1.588-1.825-2.417-3.72-2.417-1.896 0-3.2.853-3.697 2.417-.19.592-.284 1.232-.284 5.853 0 4.62.07 5.26.26 5.852zm2.82-.805c-.07-.237-.095-.522-.095-5.047 0-4.526.024-4.81.095-5.048.119-.379.427-.616.9-.616.474 0 .783.237.901.616.071.237.095.522.095 5.048 0 4.525-.024 4.81-.095 5.047-.118.379-.403.616-.9.616-.474 0-.782-.237-.9-.616zm7.038.805c.497 1.564 1.824 2.417 3.72 2.417 1.896 0 3.246-.83 3.72-2.417.19-.592.26-1.232.26-5.852 0-4.621-.07-5.26-.26-5.853-.474-1.588-1.824-2.417-3.72-2.417-1.896 0-3.199.853-3.697 2.417-.19.592-.284 1.232-.284 5.853 0 4.62.071 5.26.26 5.852zm2.82-.805c-.072-.237-.095-.522-.095-5.047 0-4.526.023-4.81.094-5.048.119-.379.427-.616.9-.616.475 0 .783.237.901.616.071.237.095.522.095 5.048 0 4.525-.024 4.81-.095 5.047-.118.379-.403.616-.9.616-.474 0-.782-.237-.9-.616zm11.54 2.772c0 .142.094.237.236.237h2.63c.142 0 .237-.095.237-.237v-4.36l.948-1.99 2.37 6.421c.023.119.094.166.237.166h2.82c.118 0 .189-.118.141-.237l-3.625-9.383 3.223-6.256c.07-.118 0-.237-.119-.237h-2.748c-.143 0-.237.047-.309.19l-2.938 6.232V6.634c0-.142-.095-.237-.237-.237h-2.63c-.142 0-.237.095-.237.237zm20.117.237c.118 0 .165-.118.118-.237l-2.204-6.824c1.114-.758 1.801-2.085 1.801-4.123 0-3.578-1.848-4.929-4.715-4.929h-3.839c-.142 0-.237.095-.237.237v15.639c0 .142.095.237.237.237h2.63c.143 0 .237-.095.237-.237v-5.924c0-.095.048-.142.142-.142h.9l1.825 6.113c.048.143.119.19.261.19zm-5.142-8.98h-.688c-.094 0-.142-.048-.142-.143V9.264c0-.095.048-.142.142-.142h.688c1.208 0 1.73.521 1.73 2.204 0 1.706-.522 2.203-1.73 2.203zm6.753 8.743c0 .142.095.237.237.237h2.417c.142 0 .237-.095.237-.237v-2.749c0-.142-.095-.237-.237-.237h-2.417c-.142 0-.237.095-.237.237z" fill="#fff"/></svg>