<svg width="101.213" height="33" viewBox="0 0 101.213 33" xmlns="http://www.w3.org/2000/svg"><path d="M16.833 20.306c.498 1.54 1.777 2.417 3.744 2.417 1.967 0 3.246-.876 3.744-2.417.142-.474.213-.995.213-2.488 0-1.208-.047-1.682-.213-2.203-.213-.664-.592-1.185-1.114-1.517v-.047c.545-.332.9-.877 1.114-1.54.142-.474.213-.972.213-1.801 0-1.09-.07-1.635-.213-2.11-.498-1.54-1.777-2.416-3.744-2.416-1.967 0-3.246.877-3.744 2.417-.142.474-.213 1.019-.213 2.109 0 .829.047 1.327.213 1.8.213.664.593 1.209 1.114 1.54v.048c-.498.332-.9.853-1.114 1.517-.166.52-.213.995-.213 2.203 0 1.493.071 2.014.213 2.488zm3.744-7.464c-.474 0-.758-.213-.9-.64-.072-.213-.095-.497-.095-1.398 0-.9.023-1.16.095-1.374.142-.426.426-.64.9-.64.474 0 .758.214.9.64.072.213.095.474.095 1.374 0 .9-.023 1.185-.095 1.398-.142.427-.426.64-.9.64zm-.9 6.635c-.072-.213-.095-.427-.095-1.706 0-1.28.023-1.47.095-1.682.142-.403.426-.64.9-.64.474 0 .758.237.9.64.072.213.095.402.095 1.682 0 1.28-.023 1.493-.095 1.706-.142.403-.426.64-.9.64-.474 0-.758-.237-.9-.64zm7.037.83c.498 1.563 1.825 2.416 3.72 2.416 1.896 0 3.247-.83 3.72-2.417.19-.592.261-1.232.261-5.852 0-4.621-.07-5.26-.26-5.853-.474-1.588-1.825-2.417-3.72-2.417-1.896 0-3.2.853-3.697 2.417-.19.592-.285 1.232-.285 5.853 0 4.62.072 5.26.261 5.852zm2.82-.806c-.071-.237-.095-.522-.095-5.047 0-4.526.024-4.81.095-5.048.118-.379.426-.616.9-.616.474 0 .782.237.9.616.072.237.096.522.096 5.048 0 4.525-.024 4.81-.095 5.047-.119.379-.403.616-.9.616-.475 0-.783-.237-.901-.616zm6.848 2.772c0 .142.095.237.237.237h2.417c.142 0 .237-.095.237-.237v-2.749c0-.142-.095-.237-.237-.237h-2.417c-.142 0-.237.095-.237.237zm6.208-.047c-.071.166 0 .284.166.284h2.512c.19 0 .284-.071.355-.237l2.725-6.587c.592-1.422.83-2.37.83-4.574 0-1.492-.072-2.037-.214-2.511-.497-1.54-1.777-2.417-3.744-2.417-1.966 0-3.246.877-3.744 2.417-.142.474-.213 1.019-.213 2.511 0 1.517.095 2.18.26 2.654.475 1.422 1.328 2.251 2.892 2.251.331 0 .592-.047.71-.118 0 .024.048.047.048.047zm2.63-8.768c-.474 0-.758-.213-.9-.64-.071-.189-.095-.426-.095-1.706s.024-1.492.095-1.682c.142-.426.426-.64.9-.64.474 0 .759.214.9.64.072.19.095.403.095 1.682 0 1.28-.023 1.517-.094 1.707-.142.426-.427.64-.9.64zm6.137 6.848c.498 1.564 1.825 2.417 3.72 2.417 1.896 0 3.247-.83 3.72-2.417.19-.592.261-1.232.261-5.852 0-4.621-.07-5.26-.26-5.853-.474-1.588-1.825-2.417-3.72-2.417-1.896 0-3.2.853-3.697 2.417-.19.592-.284 1.232-.284 5.853 0 4.62.07 5.26.26 5.852zm2.82-.805c-.07-.237-.095-.522-.095-5.047 0-4.526.024-4.81.095-5.048.119-.379.427-.616.9-.616.474 0 .783.237.901.616.071.237.095.522.095 5.048 0 4.525-.024 4.81-.095 5.047-.118.379-.403.616-.9.616-.474 0-.782-.237-.9-.616zm7.038.805c.497 1.564 1.824 2.417 3.72 2.417 1.896 0 3.246-.83 3.72-2.417.19-.592.26-1.232.26-5.852 0-4.621-.07-5.26-.26-5.853-.474-1.588-1.824-2.417-3.72-2.417-1.896 0-3.199.853-3.697 2.417-.19.592-.284 1.232-.284 5.853 0 4.62.071 5.26.26 5.852zm2.82-.805c-.072-.237-.095-.522-.095-5.047 0-4.526.023-4.81.094-5.048.119-.379.427-.616.9-.616.475 0 .783.237.901.616.071.237.095.522.095 5.048 0 4.525-.024 4.81-.095 5.047-.118.379-.403.616-.9.616-.474 0-.782-.237-.9-.616zm11.54 2.772c0 .142.094.237.236.237h2.63c.142 0 .237-.095.237-.237v-4.36l.948-1.99 2.37 6.421c.023.119.094.166.237.166h2.82c.118 0 .189-.118.142-.237l-3.626-9.383 3.223-6.256c.07-.118 0-.237-.119-.237h-2.748c-.143 0-.237.047-.309.19l-2.938 6.232V6.634c0-.142-.095-.237-.237-.237h-2.63c-.142 0-.237.095-.237.237zm20.117.237c.118 0 .165-.118.118-.237l-2.204-6.824c1.114-.758 1.801-2.085 1.801-4.123 0-3.578-1.848-4.929-4.715-4.929h-3.839c-.142 0-.237.095-.237.237v15.639c0 .142.095.237.237.237h2.63c.143 0 .237-.095.237-.237v-5.924c0-.095.048-.142.143-.142h.9l1.824 6.113c.048.143.119.19.261.19zm-5.142-8.98h-.687c-.095 0-.143-.048-.143-.143V9.264c0-.095.048-.142.143-.142h.687c1.208 0 1.73.521 1.73 2.204 0 1.706-.522 2.203-1.73 2.203zm6.753 8.743c0 .142.095.237.237.237h2.417c.142 0 .237-.095.237-.237v-2.749c0-.142-.095-.237-.237-.237H97.54c-.142 0-.237.095-.237.237z" fill="#fff"/></svg>