<svg width="64.581" height="21" viewBox="0 0 64.581 21" xmlns="http://www.w3.org/2000/svg"><path d="M20.008 3.466h2.076V13.6h-1.67l-3.702-5.778V13.6h-2.076V3.466h1.684l3.688 5.779V3.466zm9.393 5.14v3.644l.29 1.089-1.698.435-.145-.464q-.624.479-1.583.479-1.118 0-1.887-.632-.77-.631-.77-1.72 0-1.016.647-1.612.646-.595 1.967-.668h1.089q.247-.014.247-.188v-.204q0-.304-.233-.486-.232-.181-.58-.181-.915 0-1.22.682l-1.67-.58q.581-1.86 2.89-1.86 1.03 0 1.843.632t.813 1.634zm-1.843 3.092v-1.234q-.146.102-.363.102h-.813q-1.002.029-1.002.87 0 .335.297.523.298.19.632.19.682 0 1.249-.45zm-2.512-5.894l1.248-2.367h1.975l-1.873 2.367h-1.35zm12.123 3.76V13.6h-1.975V9.608q0-.668-.225-1.024t-.85-.356q-.42 0-.696.298-.276.298-.276.733V13.6h-1.974V6.428h1.611l.073.29q.551-.45 1.35-.45 2.962 0 2.962 3.296zm7.099-.958v3.644l.29 1.089-1.698.435-.146-.464q-.624.479-1.582.479-1.118 0-1.887-.632-.77-.631-.77-1.72 0-1.016.646-1.612.646-.595 1.967-.668h1.09q.246-.014.246-.188v-.204q0-.304-.232-.486-.232-.181-.58-.181-.916 0-1.22.682l-1.67-.58q.58-1.86 2.89-1.86 1.03 0 1.843.632t.813 1.634zm-1.844 3.092v-1.234q-.145.102-.363.102h-.813q-1.002.029-1.002.87 0 .335.298.523.298.19.632.19.682 0 1.248-.45zm8.174-4.907l-.726 1.524q-.48-.203-.842-.203-.494 0-.762.269-.269.268-.269.733V13.6h-1.96V6.428h1.597l.073.305q.566-.494 1.32-.494.8 0 1.569.552z" fill="#fff"/></svg>