<svg width="168" height="19" viewBox="0 0 168 19" xmlns="http://www.w3.org/2000/svg"><path d="M51.786 9.822q0 1.4-1.06 2.222-1.06.822-2.5.822-3.1 0-3.833-2.881l1.835-.367q.394 1.4 1.997 1.4.612 0 1.115-.313.502-.312.502-.883 0-.394-.38-.652-.38-.259-.951-.374-.571-.116-1.244-.313-.672-.197-1.243-.448-.571-.252-.952-.809-.38-.557-.38-1.359 0-1.29.972-2.011.971-.72 2.303-.72 1.291 0 2.14.516.85.517 1.407 1.658l-1.672.775q-.34-.612-.76-.877-.422-.265-1.115-.265-.49 0-.91.231-.422.231-.422.693 0 .326.38.55.381.225.952.34.57.116 1.244.327.672.21 1.243.489.57.278.951.856.38.577.38 1.393zm6.618-6.578h1.943v5.572q0 1.903-.883 2.963t-2.745 1.06q-1.876 0-2.759-1.06t-.883-2.963V3.244h1.943v5.463q0 .503.061.87t.238.7q.177.333.523.503.347.17.863.17 1.033 0 1.366-.564.333-.564.333-1.679V3.244zm10.505 0h1.82v9.486h-1.956V8.273l-1.821 4.457h-1.21l-1.807-4.457v4.457h-1.957V3.244h1.848l2.514 6.333 2.569-6.333zm6.278 0h1.685l3.67 9.486h-2.107l-.856-2.378h-3.085l-.856 2.378h-2.093l3.642-9.486zm.843 2.868l-.91 2.541h1.834l-.924-2.541zm12.23.013q0 .884-.496 1.584-.496.7-1.338.985.108.095.38.503l2.256 3.533h-2.256l-1.902-3.18q-.231-.394-.401-.516-.17-.123-.591-.123h-.476v3.819h-1.943V3.244h3.479q1.467 0 2.378.727.91.728.91 2.154zm-1.943.014q0-.584-.353-.802-.354-.217-.979-.217h-1.549v2.079h1.55q.638 0 .984-.231.347-.231.347-.829zm9.88 4.756h3.818v1.835H94.01v-1.21q0-.91.407-1.698.408-.788.993-1.318.584-.53 1.161-.972.578-.442.986-.843.407-.4.407-.74 0-.449-.34-.707-.34-.258-.788-.258-.829 0-1.359 1.128l-1.63-.965q.516-1.006 1.216-1.515.7-.51 1.76-.51 1.332 0 2.201.754.87.755.87 2.073 0 .706-.333 1.284-.333.578-.836.992-.502.415-1.019.795-.516.38-.951.863-.435.482-.557 1.012zm12.19-2.935q0 .87-.184 1.692-.183.822-.57 1.556-.388.734-1.095 1.182-.706.449-1.644.449t-1.651-.442q-.714-.442-1.1-1.175-.388-.734-.578-1.55-.19-.815-.19-1.685 0-.693.108-1.359.109-.666.374-1.311.265-.646.659-1.128.394-.483 1.006-.781.611-.3 1.372-.3.938 0 1.644.442.707.442 1.094 1.169.388.727.571 1.542.184.816.184 1.699zm-1.957.027q0-.462-.055-.903-.054-.442-.197-.959-.142-.516-.475-.829-.333-.312-.809-.312-.49 0-.829.312-.34.313-.49.823-.149.51-.203.95-.054.443-.054.918 0 .462.054.904t.204.951q.15.51.49.822.339.313.828.313.394 0 .686-.224.293-.225.456-.537.163-.313.251-.748.088-.434.116-.774.027-.34.027-.707zm5.667 2.908h3.818v1.835h-6.006v-1.21q0-.91.407-1.698.408-.788.992-1.318.585-.53 1.162-.972.578-.442.986-.843.407-.4.407-.74 0-.449-.34-.707-.34-.258-.788-.258-.829 0-1.359 1.128l-1.63-.965q.516-1.006 1.216-1.515.7-.51 1.76-.51 1.331 0 2.201.754.87.755.87 2.073 0 .706-.333 1.284-.333.578-.836.992-.503.415-1.019.795-.516.38-.951.863-.435.482-.557 1.012zm7.528 0h3.819v1.835h-6.007v-1.21q0-.91.408-1.698.408-.788.992-1.318.584-.53 1.162-.972.578-.442.985-.843.408-.4.408-.74 0-.449-.34-.707-.34-.258-.788-.258-.829 0-1.359 1.128l-1.63-.965q.516-1.006 1.216-1.515.7-.51 1.76-.51 1.331 0 2.2.754.87.755.87 2.073 0 .706-.332 1.284-.333.578-.836.992-.503.415-1.02.795-.516.38-.95.863-.435.482-.558 1.012z" fill="#fff"/></svg>