<svg width="168" height="19" viewBox="0 0 168 19" xmlns="http://www.w3.org/2000/svg"><path d="M54.3 9.822q0 1.4-1.06 2.222-1.06.822-2.5.822-3.1 0-3.833-2.881l1.835-.367q.394 1.4 1.997 1.4.612 0 1.115-.313.503-.312.503-.883 0-.394-.381-.652-.38-.259-.951-.374-.571-.116-1.244-.313-.672-.197-1.243-.448-.57-.252-.951-.809-.38-.557-.38-1.359 0-1.29.97-2.011.972-.72 2.304-.72 1.291 0 2.14.516.85.517 1.407 1.658l-1.671.775q-.34-.612-.761-.877-.422-.265-1.115-.265-.49 0-.91.231-.422.231-.422.693 0 .326.38.55.381.225.952.34.57.116 1.244.327.672.21 1.243.489.57.278.951.856.38.577.38 1.393zm8.731-3.663q.224.85.224 1.828 0 .979-.224 1.828-.224.85-.68 1.542-.455.694-1.243 1.088-.788.394-1.82.394-1.034 0-1.822-.394t-1.243-1.088q-.455-.693-.68-1.542-.224-.85-.224-1.828 0-.978.224-1.828.225-.849.68-1.542.455-.693 1.243-1.087t1.821-.394q1.033 0 1.821.394t1.244 1.087q.455.693.68 1.542zm-3.744 4.764q2.012 0 2.012-2.936 0-2.935-2.012-2.935-2.011 0-2.011 2.935 0 2.936 2.011 2.936zM57.78 2.429L58.948.214h1.848l-1.753 2.215h-1.264zm8.901 8.426h4.023v1.875H64.75V3.244h1.93v7.61zm8.52-7.61h1.686l3.669 9.485h-2.106l-.857-2.378h-3.084l-.857 2.378H71.56L75.2 3.244zm.843 2.867l-.91 2.541h1.834l-.924-2.541zm12.23.013q0 .884-.495 1.584-.496.7-1.339.985.11.095.38.503l2.257 3.533H86.82l-1.903-3.18q-.23-.394-.4-.516-.17-.123-.592-.123h-.475v3.819h-1.944V3.244h3.48q1.467 0 2.377.727.91.728.91 2.154zm-1.942.014q0-.584-.354-.802-.353-.217-.978-.217h-1.55v2.079H85q.639 0 .985-.231.347-.231.347-.829zm3.723-2.895h6.387v1.917h-4.457v1.78h3.968v1.834h-3.968v3.955h-1.93V3.244zm14.65 2.881q0 .884-.496 1.584-.496.7-1.339.985.109.095.38.503l2.257 3.533h-2.256l-1.903-3.18q-.23-.394-.4-.516-.17-.123-.592-.123h-.476v3.819h-1.943V3.244h3.48q1.467 0 2.377.727.91.728.91 2.154zm-1.944.014q0-.584-.353-.802-.353-.217-.978-.217h-1.55v2.079h1.55q.638 0 .985-.231.346-.231.346-.829zm3.724-2.895h1.943v9.486h-1.943V3.244zm0-.815l1.169-2.215h1.848l-1.753 2.215h-1.264z" fill="#fff"/></svg>