<svg width="101.006" height="18" viewBox="0 0 101.006 18" xmlns="http://www.w3.org/2000/svg"><path d="M17.55 9.947q0 .95-.753 1.495-.754.545-1.742.545-2.191 0-2.596-1.723l1.494-.405q.24.595 1.077.595.81 0 .81-.43 0-.241-.341-.406-.342-.165-.836-.291-.494-.127-.982-.31-.488-.184-.83-.596-.342-.412-.342-1.02 0-.937.665-1.431t1.64-.494q.887 0 1.42.272.531.273 1 .982l-1.317.735q-.368-.494-.938-.494-.734 0-.734.43 0 .216.342.349.342.133.823.253.481.12.969.298.488.177.83.595.342.418.342 1.051zm4.586-4.344h1.723v6.257h-1.406l-.064-.266q-.544.38-1.14.38-1.292 0-1.957-.722t-.665-2.014V5.603h1.723v3.521q0 .583.19.88.19.298.747.298.368 0 .608-.24.24-.241.24-.621V5.603zM34.03 8.339v3.521h-1.735V8.339q0-.57-.171-.868-.171-.298-.703-.298-.228 0-.393.102-.165.101-.24.221-.077.12-.115.361-.038.241-.044.368-.006.126-.006.392v3.243h-1.736V8.339q0-.558-.17-.862-.172-.304-.691-.304-.355 0-.57.235-.215.234-.215.589v3.863h-1.736V5.603h1.419l.063.253q.507-.393 1.039-.393.583 0 .969.133t.855.5q.722-.633 1.57-.633 1.293 0 1.951.786.659.785.659 2.09zm6.194-.836v3.179l.253.95-1.482.38-.126-.405q-.545.418-1.381.418-.975 0-1.647-.551-.671-.551-.671-1.501 0-.887.564-1.406.563-.52 1.716-.583h.95q.215-.013.215-.165v-.177q0-.266-.202-.424-.203-.159-.507-.159-.798 0-1.064.596l-1.457-.507q.507-1.621 2.52-1.621.9 0 1.61.55.709.552.709 1.426zM38.615 10.2V9.124q-.126.089-.316.089h-.71q-.874.025-.874.76 0 .291.26.456.26.164.55.164.596 0 1.09-.392zm7.132-4.282l-.634 1.33q-.418-.177-.734-.177-.431 0-.665.234-.235.235-.235.64v3.914h-1.71V5.603h1.394l.063.266q.494-.431 1.153-.431.696 0 1.368.481zm4.116-2.9v1.393q-.544 0-.772.165-.228.164-.228.684v.342h.874v1.444h-.874v4.813h-1.66V7.047h-.506V5.603h.506v-.798q0-.444.089-.76.089-.317.298-.507t.399-.304q.19-.114.57-.158.38-.045.601-.051.222-.006.703-.006zm6.22 5.586v.544H52.46q.05.545.36.887.311.342.856.342.71 0 1.28-.595l1.063 1.051q-1.14 1.14-2.356 1.14-1.38 0-2.178-.918-.798-.919-.798-2.312 0-1.406.772-2.324.773-.919 2.14-.919 1.14 0 1.812.855.672.855.672 2.249zm-3.61-.532h2.014q-.14-.976-.963-.976-.887 0-1.051.976zm8.854-2.154l-.634 1.33q-.418-.177-.734-.177-.431 0-.665.234-.235.235-.235.64v3.914h-1.71V5.603h1.394l.063.266q.494-.431 1.153-.431.696 0 1.368.481zm5.915 5.688l-1.507.443-.127-.367q-.52.304-1.241.304-1.381 0-2.02-.912-.64-.912-.64-2.356 0-1.432.64-2.337.639-.906 2.02-.906.468 0 .86.253V3.02h1.724v7.65q0 .013.07.228.069.216.139.45t.082.26zm-2.014-2.103V7.946q0-.367-.24-.583-.241-.215-.609-.215-.266 0-.456.108-.19.107-.285.247-.095.139-.145.38-.051.24-.057.411-.007.171-.007.437t.007.431q.006.165.057.405.05.241.145.38.095.14.285.247.19.108.456.108.368 0 .608-.215.24-.216.24-.583zm4.946-6.555q.285.285.285.69 0 .406-.285.69-.285.286-.69.286-.405 0-.69-.292-.285-.291-.285-.684 0-.405.285-.69.285-.285.69-.285.405 0 .69.285zm-1.539 2.654h1.685v6.257h-1.685V5.603zm7.322.316l-.634 1.33q-.418-.177-.734-.177-.431 0-.665.234-.235.235-.235.64v3.914h-1.71V5.603h1.394l.063.266q.494-.431 1.153-.431.696 0 1.368.481zm2.565 4.206q.323.316.323.772t-.323.773q-.323.317-.78.317-.443 0-.766-.317t-.323-.773q0-.456.323-.772.323-.317.767-.317.456 0 .779.317zm3.572-7.176q.285.285.285.69 0 .406-.285.69-.285.286-.69.286-.406 0-.691-.292-.285-.291-.285-.684 0-.405.285-.69.285-.285.69-.285.406 0 .69.285zm-1.54 2.654h1.685v6.257h-1.684V5.603zm8.082 4.344q0 .95-.754 1.495-.753.545-1.741.545-2.192 0-2.597-1.723l1.495-.405q.24.595 1.076.595.81 0 .81-.43 0-.241-.341-.406-.342-.165-.836-.291-.494-.127-.982-.31-.487-.184-.83-.596-.341-.412-.341-1.02 0-.937.665-1.431t1.64-.494q.887 0 1.419.272.532.273 1 .982l-1.317.735q-.367-.494-.937-.494-.735 0-.735.43 0 .216.342.349.342.133.823.253.482.12.97.298.487.177.829.595.342.418.342 1.051z" fill="#fff"/></svg>