<svg width="282.374" height="96" viewBox="0 0 282.374 96" xmlns="http://www.w3.org/2000/svg"><path d="M37.324 51.583c0-8.499-2.66-12.193-9.533-14.854l-3.03-1.182c-3.916-1.552-4.73-2.734-4.73-6.503 0-3.4 1.257-5.025 3.843-5.025 2.66 0 3.917 1.847 3.99 5.468 0 .444.37.665.814.591l7.537-1.182c.444-.074.665-.37.665-.813-.369-7.907-4.507-12.488-13.301-12.488-8.942 0-13.302 4.877-13.302 13.966 0 8.055 2.439 11.824 9.533 14.558l3.03 1.182c3.769 1.478 4.655 3.03 4.655 7.464 0 4.582-1.256 5.986-3.99 5.986-2.882 0-4.212-1.848-4.36-6.503 0-.444-.296-.665-.813-.591l-7.907 1.256c-.443.074-.591.37-.591.813.148 8.646 4.508 13.45 13.597 13.45 9.976 0 13.893-5.322 13.893-15.593zm18.622 15.592c8.424 0 13.597-4.803 13.597-14.262V16.999c0-.444-.295-.74-.739-.74h-8.202c-.444 0-.74.296-.74.74v37.096c0 2.66-1.403 4.36-3.916 4.36-2.439 0-3.843-1.7-3.843-4.36V17c0-.444-.295-.74-.739-.74h-8.202c-.444 0-.74.296-.74.74v35.914c0 9.459 5.174 14.262 13.524 14.262zm20.248-1.404c0 .443.296.739.739.739h7.168c.443 0 .739-.296.739-.739V36.729h.443l5.469 20.1c.148.444.443.74.96.74h4.065c.517 0 .813-.296.96-.74l5.469-20.1h.443v29.042c0 .443.296.739.74.739h7.167c.444 0 .74-.296.74-.739V16.999c0-.444-.296-.74-.74-.74h-7.907c-.665 0-1.034.222-1.182.74l-7.39 26.381h-.295l-7.686-26.381c-.148-.518-.517-.74-1.182-.74h-7.981c-.443 0-.739.296-.739.74zm39.166 0c-.074.443.148.739.59.739h8.204c.517 0 .739-.296.812-.739l1.7-9.09h9.533l1.626 9.09c.073.443.295.739.812.739h8.203c.443 0 .665-.296.591-.739l-10.789-48.772c-.074-.444-.37-.74-.813-.74h-8.72c-.443 0-.665.296-.812.74zm12.71-16.775l3.326-17.44h.221l3.178 17.44zm51.728 17.514c.37 0 .518-.37.37-.739l-6.873-21.282c3.474-2.365 5.617-6.503 5.617-12.859 0-11.158-5.764-15.37-14.706-15.37h-11.971c-.444 0-.74.295-.74.739V65.77c0 .443.296.739.74.739h8.202c.444 0 .74-.296.74-.739V47.297c0-.296.147-.444.443-.444h2.808l5.69 19.066c.148.443.37.591.813.591zm-16.035-28.007h-2.143c-.296 0-.444-.148-.444-.444V25.201c0-.295.148-.443.444-.443h2.143c3.768 0 5.394 1.626 5.394 6.872 0 5.32-1.626 6.873-5.394 6.873zm47.294 13.08c0-8.499-2.66-12.193-9.533-14.854l-3.03-1.182c-3.916-1.552-4.729-2.734-4.729-6.503 0-3.4 1.256-5.025 3.843-5.025 2.66 0 3.916 1.847 3.99 5.468 0 .444.37.665.813.591l7.538-1.182c.443-.074.665-.37.665-.813-.37-7.907-4.508-12.488-13.302-12.488-8.941 0-13.301 4.877-13.301 13.966 0 8.055 2.438 11.824 9.532 14.558l3.03 1.182c3.769 1.478 4.656 3.03 4.656 7.464 0 4.582-1.256 5.986-3.99 5.986-2.883 0-4.213-1.848-4.36-6.503 0-.444-.296-.665-.814-.591l-7.907 1.256c-.443.074-.59.37-.59.813.147 8.646 4.507 13.45 13.596 13.45 9.977 0 13.893-5.322 13.893-15.593zm20.618-40.866c.59 0 .96-.221 1.478-.739l7.685-8.424c.295-.37.074-.739-.37-.739h-7.39c-.59 0-.812.222-1.182.739l-6.06 8.424c-.295.37-.073.74.37.74zm-2.217 56.458c6.577 0 11.01-2.956 12.858-8.498.813-2.291 1.034-4.36 1.034-17.292 0-12.932-.221-15.001-1.034-17.292-1.848-5.543-6.281-8.498-12.858-8.498-6.577 0-11.011 2.955-12.859 8.498-.812 2.29-1.034 4.36-1.034 17.292 0 12.932.222 15.001 1.034 17.292 1.848 5.542 6.282 8.498 12.859 8.498zm0-8.72c-1.848 0-3.104-1.034-3.547-2.438-.37-1.183-.518-2.44-.518-14.632 0-12.193.148-13.45.518-14.632.443-1.404 1.7-2.439 3.547-2.439 1.847 0 3.103 1.035 3.547 2.44.37 1.181.517 2.438.517 14.63 0 12.194-.148 13.45-.517 14.633-.444 1.404-1.7 2.438-3.547 2.438zm19.952 7.316c0 .443.296.739.739.739h22.095c.444 0 .74-.296.74-.739v-7.242c0-.443-.296-.739-.74-.739h-12.71c-.296 0-.443-.148-.443-.443V16.999c0-.444-.296-.74-.74-.74h-8.202c-.443 0-.739.296-.739.74z" fill="#fff"/></svg>