<svg width="298" height="111" viewBox="0 0 298 111" xmlns="http://www.w3.org/2000/svg"><path d="M5.6 74.389c-.078.474.16.791.634.791h8.784c.554 0 .792-.317.87-.791l1.821-9.734h10.209l1.741 9.734c.08.474.317.791.87.791h8.785c.475 0 .712-.317.633-.791L28.393 22.157c-.08-.475-.396-.791-.87-.791h-9.339c-.475 0-.712.316-.87.791zm13.613-17.965l3.561-18.677h.237l3.403 18.677zM44.3 74.39c0 .474.316.791.791.791h23.663c.474 0 .79-.317.79-.791v-7.756c0-.475-.316-.791-.79-.791H55.142c-.317 0-.475-.159-.475-.475v-43.21c0-.475-.317-.791-.792-.791h-8.784c-.475 0-.791.316-.791.791zm30.468 0c0 .474.317.791.791.791h12.742c10.525 0 15.907-3.957 15.907-15.828 0-7.201-2.85-11-6.806-12.187v-.158c3.957-1.741 6.172-5.065 6.172-11.634 0-9.417-4.431-14.007-14.403-14.007H75.56c-.474 0-.791.316-.791.791zM85.61 43.445c-.317 0-.475-.158-.475-.474V30.625c0-.317.158-.475.475-.475h2.295c4.036 0 5.302 1.425 5.302 6.648 0 5.302-1.266 6.647-5.302 6.647zm-.475 22.476V52.15c0-.317.158-.475.475-.475h2.295c4.353 0 5.856 1.662 5.856 7.28 0 5.699-1.503 7.44-5.856 7.44H85.61c-.317 0-.475-.159-.475-.475zm42.102-50.49c.633 0 1.029-.238 1.583-.792l8.23-9.022c.317-.395.08-.791-.396-.791h-7.913c-.634 0-.871.237-1.267.791l-6.49 9.022c-.316.396-.078.791.397.791zm-2.928 60.461c9.022 0 14.561-5.144 14.561-15.273V22.157c0-.475-.316-.791-.791-.791h-8.785c-.474 0-.79.316-.79.791v39.728c0 2.849-1.505 4.669-4.195 4.669-2.612 0-4.115-1.82-4.115-4.67V22.158c0-.475-.317-.791-.792-.791h-8.784c-.475 0-.792.316-.792.791V60.62c0 10.13 5.54 15.273 14.483 15.273zm21.684-1.503c0 .474.316.791.791.791h8.785c.474 0 .79-.317.79-.791V53.733c0-.316.16-.474.476-.474h11.633c.475 0 .791-.317.791-.792v-7.834c0-.475-.316-.792-.79-.792h-11.634c-.317 0-.475-.158-.475-.475V31.18c0-.317.158-.475.475-.475h13.453c.475 0 .792-.316.792-.791v-7.756c0-.475-.317-.791-.792-.791h-23.504c-.475 0-.791.316-.791.791zm30.547 0c0 .474.317.791.792.791h23.504c.475 0 .791-.317.791-.791v-7.756c0-.475-.316-.791-.791-.791h-13.454c-.316 0-.475-.159-.475-.475V53.179c0-.316.159-.474.475-.474h11.634c.474 0 .791-.317.791-.792v-7.755c0-.475-.317-.792-.791-.792h-11.634c-.316 0-.475-.158-.475-.475V31.18c0-.317.159-.475.475-.475h13.454c.475 0 .791-.316.791-.791v-7.756c0-.475-.316-.791-.791-.791h-23.504c-.475 0-.792.316-.792.791zm30.864 0c0 .474.317.791.792.791h8.784c.475 0 .791-.317.791-.791V22.157c0-.475-.316-.791-.791-.791h-8.784c-.475 0-.792.316-.792.791zm47.958.791c.396 0 .554-.396.396-.791l-7.36-22.792c3.72-2.533 6.015-6.964 6.015-13.77 0-11.95-6.173-16.461-15.749-16.461h-12.82c-.475 0-.792.316-.792.791V74.39c0 .474.317.791.792.791h8.784c.475 0 .791-.317.791-.791V54.604c0-.317.159-.475.475-.475h3.007l6.094 20.418c.158.475.396.633.87.633zM238.19 45.186h-2.295c-.316 0-.475-.158-.475-.474v-13.77c0-.317.159-.475.475-.475h2.295c4.036 0 5.777 1.74 5.777 7.36 0 5.698-1.74 7.36-5.777 7.36zm19.864 29.203c-.08.474.158.791.633.791h8.784c.554 0 .792-.317.87-.791l1.821-9.734h10.209l1.741 9.734c.08.474.317.791.87.791h8.785c.475 0 .712-.317.633-.791l-11.554-52.232c-.08-.475-.396-.791-.87-.791h-9.339c-.475 0-.712.316-.87.791zm13.612-17.965l3.561-18.677h.237l3.403 18.677z" fill="#fff"/></svg>