<svg width="227.5" height="49" viewBox="0 0 227.5 49" xmlns="http://www.w3.org/2000/svg"><path d="M24.23 33.068c0 .211.14.352.352.352h2.145c.211 0 .352-.14.352-.352v-10.06c0-.14.07-.21.211-.21h5.487c.211 0 .352-.142.352-.353v-1.934c0-.211-.14-.352-.352-.352H27.29c-.14 0-.211-.07-.211-.211V12.35c0-.14.07-.21.211-.21h6.332c.21 0 .351-.142.351-.353V9.853c0-.211-.14-.352-.351-.352h-9.04c-.211 0-.352.14-.352.352zm12.804 0c0 .211.14.352.351.352h8.97c.21 0 .352-.14.352-.352v-1.934c0-.211-.141-.352-.352-.352h-6.261c-.14 0-.211-.07-.211-.211V9.853c0-.211-.141-.352-.352-.352h-2.146c-.21 0-.351.14-.351.352zm17.517.669c3.412 0 5.592-2.076 5.592-6.191V9.853c0-.211-.14-.352-.351-.352h-2.146c-.211 0-.352.14-.352.352v18.045c0 2.075-1.055 3.165-2.743 3.165-1.689 0-2.744-1.09-2.744-3.165V9.853c0-.211-.14-.352-.352-.352H49.31c-.211 0-.352.14-.352.352v17.693c0 4.115 2.18 6.19 5.593 6.19zm9.849-3.553c.738 2.286 2.532 3.553 5.24 3.553 2.71 0 4.538-1.267 5.242-3.553.351-1.055.457-1.935.457-8.337v-1.02c0-.21-.14-.351-.352-.351h-4.96c-.21 0-.351.14-.351.351v1.865c0 .21.14.351.352.351h2.356c.141 0 .211.07.211.211 0 4.89-.105 5.453-.316 6.12-.352 1.091-1.302 1.69-2.568 1.69s-2.216-.599-2.568-1.69c-.246-.703-.316-1.23-.316-7.913 0-6.684.07-7.211.316-7.915.352-1.09 1.267-1.688 2.533-1.688 1.723 0 2.638 1.09 2.884 3.06.035.211.176.317.422.281l1.97-.387c.211-.035.281-.21.246-.422-.387-3.341-2.25-5.206-5.557-5.206-2.709 0-4.503 1.267-5.241 3.553-.352 1.055-.458 1.935-.458 8.724 0 6.788.106 7.668.458 8.723zm26.592 3.553c2.708 0 4.537-1.267 5.24-3.553.353-1.055.458-1.935.458-8.723 0-6.79-.105-7.669-.457-8.724-.704-2.286-2.533-3.553-5.241-3.553-2.709 0-4.503 1.267-5.241 3.553-.352 1.055-.457 1.935-.457 8.724 0 6.788.105 7.668.457 8.723.738 2.286 2.532 3.553 5.24 3.553zm0-2.674c-1.266 0-2.146-.598-2.498-1.688-.246-.704-.316-1.231-.316-7.914 0-6.684.07-7.211.316-7.915.352-1.09 1.232-1.688 2.498-1.688 1.266 0 2.18.598 2.532 1.688.211.704.282 1.231.282 7.915 0 6.683-.07 7.21-.282 7.914-.351 1.09-1.266 1.688-2.532 1.688zm9.603-.88c.738 2.287 2.532 3.554 5.24 3.554 2.71 0 4.538-1.267 5.242-3.553.351-1.055.457-1.935.457-8.337v-1.02c0-.21-.14-.351-.352-.351h-4.96c-.21 0-.351.14-.351.351v1.865c0 .21.14.351.352.351h2.356c.141 0 .211.07.211.211 0 4.89-.105 5.453-.316 6.12-.352 1.091-1.302 1.69-2.568 1.69s-2.216-.599-2.568-1.69c-.246-.703-.316-1.23-.316-7.913 0-6.684.07-7.211.316-7.915.352-1.09 1.267-1.688 2.533-1.688 1.723 0 2.638 1.09 2.884 3.06.035.211.176.317.422.281l1.97-.387c.211-.035.281-.21.246-.422-.387-3.341-2.25-5.206-5.557-5.206-2.709 0-4.503 1.267-5.241 3.553-.352 1.055-.458 1.935-.458 8.724 0 6.788.106 7.668.458 8.723zm21.35 0c.74 2.287 2.533 3.554 5.242 3.554 2.708 0 4.537-1.267 5.24-3.553.353-1.055.458-1.935.458-8.337v-1.02c0-.21-.14-.351-.352-.351h-4.96c-.21 0-.351.14-.351.351v1.865c0 .21.14.351.352.351h2.356c.141 0 .212.07.212.211 0 4.89-.106 5.453-.317 6.12-.352 1.091-1.302 1.69-2.568 1.69s-2.216-.599-2.568-1.69c-.246-.703-.316-1.23-.316-7.913 0-6.684.07-7.211.316-7.915.352-1.09 1.267-1.688 2.533-1.688 1.724 0 2.638 1.09 2.884 3.06.036.211.176.317.422.281l1.97-.387c.211-.035.282-.21.246-.422-.386-3.341-2.25-5.206-5.557-5.206-2.709 0-4.503 1.267-5.241 3.553-.352 1.055-.458 1.935-.458 8.724 0 6.788.106 7.668.458 8.723zm14.598 2.885c0 .211.141.352.352.352h2.146c.21 0 .352-.14.352-.352V9.853c0-.211-.141-.352-.352-.352h-2.146c-.211 0-.352.14-.352.352zm17.412-6.402c0-3.974-1.09-5.557-4.15-6.788l-1.443-.563c-1.935-.739-2.497-1.583-2.497-4.045 0-2.427.844-3.483 2.603-3.483 1.829 0 2.603 1.161 2.673 3.518 0 .211.176.352.387.281l1.97-.316c.21-.035.316-.176.316-.387-.176-3.729-1.829-5.699-5.417-5.699s-5.346 2.111-5.346 6.191c0 3.694.914 5.312 4.186 6.578l1.442.563c1.9.738 2.427 1.759 2.427 4.502 0 3.236-.844 4.116-2.674 4.116-1.829 0-2.778-1.056-2.92-4.01 0-.211-.14-.352-.386-.317l-2.075.387c-.211.035-.282.176-.282.387.176 4.115 2.005 6.156 5.628 6.156 4.045 0 5.558-2.252 5.558-7.07zm8.477 6.754c.211 0 .352-.14.352-.352V12.35c0-.14.07-.21.21-.21h3.94c.212 0 .352-.142.352-.353V9.853c0-.211-.14-.352-.352-.352h-11.15c-.211 0-.352.14-.352.352v1.934c0 .211.141.352.352.352h3.94c.14 0 .21.07.21.211v20.718c0 .211.141.352.352.352zm7.527-.352c0 .211.141.352.352.352h2.146c.211 0 .352-.14.352-.352V9.853c0-.211-.141-.352-.352-.352h-2.146c-.21 0-.352.14-.352.352zm7.07 0c0 .211.141.352.352.352h1.865c.21 0 .351-.14.351-.352V15.13h.176l5.452 17.94c.07.245.247.351.528.351h2.497c.211 0 .352-.14.352-.352V9.853c0-.211-.14-.352-.352-.352h-1.864c-.21 0-.352.14-.352.352v17.939h-.14l-5.347-17.94c-.07-.245-.246-.35-.527-.35h-2.639c-.21 0-.351.14-.351.35zm15.865-2.884c.738 2.286 2.532 3.553 5.24 3.553 2.71 0 4.538-1.267 5.242-3.553.351-1.055.457-1.935.457-8.337v-1.02c0-.21-.14-.351-.352-.351h-4.96c-.21 0-.351.14-.351.351v1.865c0 .21.14.351.352.351h2.356c.14 0 .211.07.211.211 0 4.89-.105 5.453-.316 6.12-.352 1.091-1.302 1.69-2.568 1.69s-2.216-.599-2.568-1.69c-.246-.703-.316-1.23-.316-7.913 0-6.684.07-7.211.316-7.915.352-1.09 1.266-1.688 2.533-1.688 1.723 0 2.638 1.09 2.884 3.06.035.211.176.317.422.281l1.97-.387c.211-.035.281-.21.246-.422-.387-3.341-2.251-5.206-5.557-5.206-2.709 0-4.503 1.267-5.241 3.553-.352 1.055-.458 1.935-.458 8.724 0 6.788.106 7.668.458 8.723z" fill="#fff"/></svg>