<svg width="150" height="45" viewBox="0 0 150 45" xmlns="http://www.w3.org/2000/svg"><path d="M36.492 30.302c-.097.226 0 .388.226.388h3.424c.258 0 .388-.097.485-.323l3.714-8.98c.808-1.938 1.13-3.23 1.13-6.234 0-2.035-.096-2.778-.29-3.424-.678-2.1-2.423-3.295-5.104-3.295-2.68 0-4.425 1.195-5.103 3.295-.194.646-.291 1.389-.291 3.424 0 2.067.13 2.972.355 3.618.646 1.938 1.81 3.068 3.941 3.068.452 0 .808-.064.97-.161 0 .032.064.064.064.064zm3.585-11.951c-.646 0-1.033-.291-1.227-.872-.097-.259-.13-.582-.13-2.326 0-1.744.033-2.035.13-2.294.194-.581.581-.872 1.227-.872.646 0 1.034.291 1.228.872.097.259.129.55.129 2.294s-.032 2.067-.13 2.326c-.193.581-.58.872-1.227.872zm8.334 9.367c.679 2.068 2.39 3.263 5.04 3.263 2.713 0 4.392-1.163 5.07-3.23.194-.614.291-1.454.291-3.424 0-2.003-.064-2.552-.226-3.07-.29-.936-.84-1.517-1.68-2.002v-.064c.808-.485 1.39-1.099 1.68-2.003.162-.517.226-1.098.226-2.552 0-1.518-.097-2.358-.29-2.972-.679-2.067-2.326-3.23-5.072-3.23-2.648 0-4.36 1.195-5.039 3.263-.194.646-.29 1.389-.29 2.39 0 .226.096.355.323.388l3.23.323c.226.032.387-.065.387-.323 0-1.066.033-1.357.097-1.616.194-.581.582-.872 1.26-.872.646 0 1.034.259 1.227.84.097.259.13.582.13 1.81 0 1.614-.033 1.905-.13 2.131-.193.581-.646.775-1.389.775h-.516c-.194 0-.323.13-.323.323v3.004c0 .194.129.323.323.323h.484c.775 0 1.228.194 1.421.808.097.226.13.549.13 2.293 0 1.712-.033 2.035-.13 2.294-.193.581-.581.84-1.227.84-.678 0-1.066-.291-1.26-.873-.064-.258-.097-.549-.097-1.615 0-.258-.161-.355-.387-.323l-3.23.323c-.227.033-.324.162-.324.388 0 1.001.097 1.744.291 2.39zm13.212 2.649c0 .194.129.323.323.323h3.294c.194 0 .323-.13.323-.323V26.62c0-.194-.129-.323-.323-.323h-3.294c-.194 0-.323.13-.323.323zm8.463-.065c-.097.226 0 .388.226.388h3.424c.258 0 .387-.097.484-.323l3.715-8.98c.807-1.938 1.13-3.23 1.13-6.234 0-2.035-.096-2.778-.29-3.424-.679-2.1-2.423-3.295-5.104-3.295-2.68 0-4.425 1.195-5.104 3.295-.193.646-.29 1.389-.29 3.424 0 2.067.129 2.972.355 3.618.646 1.938 1.809 3.068 3.94 3.068.453 0 .808-.064.97-.161 0 .032.065.064.065.064zm3.585-11.951c-.646 0-1.034-.291-1.227-.872-.097-.259-.13-.582-.13-2.326 0-1.744.033-2.035.13-2.294.193-.581.581-.872 1.227-.872.646 0 1.034.291 1.228.872.096.259.129.55.129 2.294s-.033 2.067-.13 2.326c-.193.581-.58.872-1.227.872zm8.366 9.335c.679 2.132 2.487 3.295 5.072 3.295 2.584 0 4.425-1.13 5.071-3.295.258-.808.355-1.68.355-7.979 0-6.298-.097-7.17-.355-7.978-.646-2.164-2.487-3.295-5.071-3.295-2.585 0-4.361 1.163-5.04 3.295-.258.807-.387 1.68-.387 7.978 0 6.3.097 7.171.355 7.979zm3.844-1.098c-.097-.323-.129-.711-.129-6.88 0-6.17.032-6.558.13-6.88.16-.518.58-.84 1.227-.84.646 0 1.066.322 1.227.84.097.322.13.71.13 6.88 0 6.169-.033 6.557-.13 6.88-.161.517-.549.84-1.227.84-.646 0-1.066-.323-1.228-.84zm9.594 1.098c.678 2.132 2.487 3.295 5.071 3.295 2.584 0 4.425-1.13 5.071-3.295.259-.808.356-1.68.356-7.979 0-6.298-.097-7.17-.356-7.978-.646-2.164-2.487-3.295-5.07-3.295-2.585 0-4.362 1.163-5.04 3.295-.258.807-.388 1.68-.388 7.978 0 6.3.097 7.171.356 7.979zm3.844-1.098c-.097-.323-.13-.711-.13-6.88 0-6.17.033-6.558.13-6.88.161-.518.581-.84 1.227-.84.646 0 1.066.322 1.228.84.096.322.129.71.129 6.88 0 6.169-.033 6.557-.13 6.88-.16.517-.549.84-1.227.84-.646 0-1.066-.323-1.227-.84zm15.73 3.779c0 .194.13.323.324.323h3.585c.194 0 .323-.13.323-.323v-5.944l1.292-2.713 3.23 8.754c.033.161.13.226.323.226h3.844c.162 0 .259-.162.194-.323l-4.942-12.791 4.393-8.528c.097-.162 0-.323-.162-.323h-3.747c-.193 0-.323.064-.42.258l-4.005 8.496V9.048c0-.194-.13-.323-.323-.323h-3.585c-.194 0-.323.13-.323.323zm27.425.323c.161 0 .226-.162.161-.323l-3.004-9.303c1.518-1.034 2.455-2.842 2.455-5.62 0-4.878-2.52-6.72-6.428-6.72h-5.233c-.194 0-.323.13-.323.324v21.319c0 .194.13.323.323.323h3.586c.193 0 .323-.13.323-.323v-8.075c0-.13.064-.194.193-.194h1.228l2.487 8.334c.065.193.162.258.356.258zm-7.01-12.242h-.937c-.129 0-.193-.065-.193-.194v-5.62c0-.13.064-.194.193-.194h.937c1.648 0 2.358.71 2.358 3.004 0 2.325-.71 3.004-2.358 3.004zm9.206 11.919c0 .194.13.323.323.323h3.295c.194 0 .323-.13.323-.323V26.62c0-.194-.13-.323-.323-.323h-3.295c-.194 0-.323.13-.323.323z" fill="#fff"/></svg>