<svg width="140" height="56" viewBox="0 0 140 56" xmlns="http://www.w3.org/2000/svg"><path d="M16.31 34.24c0 .156.104.26.26.26h4.186c3.458 0 5.226-1.3 5.226-5.2 0-2.366-.936-3.614-2.236-4.004v-.052c1.3-.572 2.028-1.664 2.028-3.822 0-3.094-1.456-4.602-4.732-4.602H16.57c-.156 0-.26.104-.26.26zm3.562-10.166c-.104 0-.156-.052-.156-.156v-4.056c0-.104.052-.156.156-.156h.754c1.326 0 1.742.468 1.742 2.184 0 1.742-.416 2.184-1.742 2.184zm-.156 7.384v-4.524c0-.104.052-.156.156-.156h.754c1.43 0 1.924.546 1.924 2.392 0 1.872-.494 2.444-1.924 2.444h-.754c-.104 0-.156-.052-.156-.156zM33.288 14.87c.208 0 .338-.078.52-.26l2.704-2.964c.104-.13.026-.26-.13-.26h-2.6c-.208 0-.286.078-.416.26l-2.132 2.964c-.104.13-.026.26.13.26zm-.78 19.864c2.314 0 3.874-1.04 4.524-2.99.286-.806.364-1.534.364-6.084s-.078-5.278-.364-6.084c-.65-1.95-2.21-2.99-4.524-2.99s-3.874 1.04-4.524 2.99c-.286.806-.364 1.534-.364 6.084s.078 5.278.364 6.084c.65 1.95 2.21 2.99 4.524 2.99zm0-3.068c-.65 0-1.092-.364-1.248-.858-.13-.416-.182-.858-.182-5.148s.052-4.732.182-5.148c.156-.494.598-.858 1.248-.858s1.092.364 1.248.858c.13.416.182.858.182 5.148s-.052 4.732-.182 5.148c-.156.494-.598.858-1.248.858zm7.02 2.574c0 .156.104.26.26.26h2.886c.156 0 .26-.104.26-.26v-4.784l1.04-2.184 2.6 7.046c.026.13.104.182.26.182h3.094c.13 0 .208-.13.156-.26l-3.978-10.296 3.536-6.864c.078-.13 0-.26-.13-.26h-3.016c-.156 0-.26.052-.338.208l-3.224 6.838V17.08c0-.156-.104-.26-.26-.26h-2.886c-.156 0-.26.104-.26.26zm11.154 0c-.026.156.052.26.208.26h2.886c.182 0 .26-.104.286-.26l.598-3.198h3.354l.572 3.198c.026.156.104.26.286.26h2.886c.156 0 .234-.104.208-.26L58.17 17.08c-.026-.156-.13-.26-.286-.26h-3.068c-.156 0-.234.104-.286.26zm4.472-5.902l1.17-6.136h.078l1.118 6.136zM68.128 34.5c2.444 0 3.874-.936 4.524-2.938.312-.988.468-2.184.468-5.902s-.156-4.914-.468-5.902c-.65-2.002-2.08-2.938-4.524-2.938h-4.472c-.156 0-.26.104-.26.26v7.124c0 .104-.052.156-.156.156h-.702c-.156 0-.26.104-.26.26v1.924c0 .156.104.26.26.26h.702c.104 0 .156.052.156.156v7.28c0 .156.104.26.26.26zm-.338-3.068h-.832c-.104 0-.156-.052-.156-.156V26.96c0-.104.052-.156.156-.156h1.144c.156 0 .26-.104.26-.26v-1.898c0-.156-.104-.26-.26-.26h-1.144c-.104 0-.156-.052-.156-.156v-4.186c0-.104.052-.156.156-.156h.832c.858 0 1.326.312 1.586 1.092.182.546.286 1.3.286 4.68s-.104 4.134-.286 4.68c-.26.78-.728 1.092-1.586 1.092zm12.168 3.302c2.964 0 4.784-1.69 4.784-5.018V17.08c0-.156-.104-.26-.26-.26h-2.886c-.156 0-.26.104-.26.26v13.052c0 .936-.494 1.534-1.378 1.534-.858 0-1.352-.598-1.352-1.534V17.08c0-.156-.104-.26-.26-.26H75.46c-.156 0-.26.104-.26.26v12.636c0 3.328 1.82 5.018 4.758 5.018zm12.194-.494c0 .156.104.26.26.26h2.886c.156 0 .26-.104.26-.26v-7.072c0-.104.052-.156.156-.156h2.47c.104 0 .156.052.156.156v7.072c0 .156.104.26.26.26h2.886c.156 0 .26-.104.26-.26V17.08c0-.156-.104-.26-.26-.26H98.6c-.156 0-.26.104-.26.26v6.708c0 .104-.052.156-.156.156h-2.47c-.104 0-.156-.052-.156-.156V17.08c0-.156-.104-.26-.26-.26h-2.886c-.156 0-.26.104-.26.26zM109 14.87c.208 0 .338-.078.52-.26l2.704-2.964c.104-.13.026-.26-.13-.26h-2.6c-.208 0-.286.078-.416.26l-2.132 2.964c-.104.13-.026.26.13.26zm-4.862 19.37c0 .156.104.26.26.26h7.722c.156 0 .26-.104.26-.26v-2.548c0-.156-.104-.26-.26-.26h-4.42c-.104 0-.156-.052-.156-.156v-4.004c0-.104.052-.156.156-.156h3.822c.156 0 .26-.104.26-.26v-2.548c0-.156-.104-.26-.26-.26H107.7c-.104 0-.156-.052-.156-.156v-3.848c0-.104.052-.156.156-.156h4.42c.156 0 .26-.104.26-.26V17.08c0-.156-.104-.26-.26-.26h-7.722c-.156 0-.26.104-.26.26zm20.098.26c.13 0 .182-.13.13-.26l-2.418-7.488c1.222-.832 1.976-2.288 1.976-4.524 0-3.926-2.028-5.408-5.174-5.408h-4.212c-.156 0-.26.104-.26.26v17.16c0 .156.104.26.26.26h2.886c.156 0 .26-.104.26-.26v-6.5c0-.104.052-.156.156-.156h.988l2.002 6.708c.052.156.13.208.286.208zm-5.642-9.854h-.754c-.104 0-.156-.052-.156-.156v-4.524c0-.104.052-.156.156-.156h.754c1.326 0 1.898.572 1.898 2.418 0 1.872-.572 2.418-1.898 2.418z" fill="#fff"/></svg>