<svg width="168" height="13" viewBox="0 0 168 13" xmlns="http://www.w3.org/2000/svg"><path d="M22.358 2.135h1.197V8.37H22.27V5.44l-1.197 2.93h-.795L19.09 5.44v2.93h-1.286V2.135h1.215l1.652 4.163 1.688-4.163zm4.127 0h1.108l2.411 6.235H28.62l-.563-1.563H26.03l-.562 1.563H24.09l2.394-6.235zm.554 1.885l-.599 1.67h1.206l-.607-1.67zm4.859 3.117h2.644V8.37H30.63V2.135h1.268v5.002zm4.743 0h2.644V8.37h-3.912V2.135h1.268v5.002zm8.186-3.086q.148.559.148 1.202 0 .643-.148 1.201-.147.558-.446 1.014-.3.455-.817.714-.519.26-1.197.26-.68 0-1.197-.26-.518-.259-.818-.714-.299-.456-.446-1.014-.148-.558-.148-1.201t.148-1.202q.147-.558.446-1.014.3-.455.818-.714.518-.26 1.197-.26.678 0 1.197.26.518.259.817.714.3.456.446 1.014zm-2.46 3.131q1.322 0 1.322-1.93 0-1.929-1.322-1.929t-1.322 1.93q0 1.929 1.322 1.929zm8.039-3.153q0 .58-.326 1.04-.326.46-.88.648.071.063.25.33l1.483 2.323H49.45L48.2 6.28q-.152-.26-.264-.34-.112-.08-.389-.08h-.312v2.51h-1.278V2.135h2.287q.965 0 1.563.478.599.478.599 1.416zm-1.278.009q0-.384-.232-.527-.232-.143-.643-.143h-1.018v1.367h1.018q.42 0 .648-.152.227-.152.227-.545zm6.048 2.376l.902.875q-.554.652-1.005.907-.451.254-1.228.254-.885 0-1.514-.455-.63-.456-.916-1.166-.286-.71-.286-1.576 0-.876.282-1.581.28-.706.906-1.162.625-.455 1.519-.455.723 0 1.223.254.5.255.974.827l-.902.884q-.322-.357-.603-.531-.281-.175-.692-.175-.384 0-.67.175-.286.174-.438.464-.152.29-.223.616-.072.326-.072.684 0 .357.072.683.071.326.223.616.152.29.438.465.286.174.67.174.42 0 .723-.197.304-.196.617-.58zm3.492-4.279h1.108l2.411 6.235h-1.384l-.563-1.563h-2.028L57.65 8.37h-1.376l2.394-6.235zm.554 1.885l-.599 1.67h1.206l-.607-1.67zm9.218-2.573h1.09v7.61h-1.09v-7.61zm12.434.688h1.197V8.37h-1.287V5.44l-1.197 2.93h-.795l-1.188-2.93v2.93h-1.286V2.135h1.215l1.652 4.163 1.689-4.163zm5.556 2.367q.49.626.49 1.67 0 1.046-.49 1.667-.492.62-1.51.62t-1.51-.62q-.49-.621-.49-1.666t.49-1.67q.492-.626 1.51-.626t1.51.625zm-.903 2.475q.161-.304.161-.804t-.16-.809q-.161-.308-.608-.308-.456 0-.612.304-.156.304-.156.813 0 .509.156.808.156.3.612.3.447 0 .607-.304zM90.62 4.18l-.447.938q-.295-.125-.518-.125-.304 0-.469.165-.165.165-.165.45V8.37h-1.206V3.957h.983l.044.188q.349-.304.813-.304.491 0 .965.34zm3.805 1.366q0 .75-.482 1.175-.483.424-1.269.424-.25 0-.464-.089-.161.125-.161.295 0 .116.179.116.232 0 .683-.103.451-.103.683-.103.51 0 .835.313.326.313.326.813 0 .786-.625 1.268-.625.483-1.438.483-.76 0-1.317-.335-.559-.335-.559-1.041 0-.232.08-.447l1.064.322q-.01.036-.01.098 0 .152.18.232.178.08.437.08.393 0 .724-.164.33-.166.33-.443 0-.098-.071-.151-.072-.054-.17-.054-.179 0-.523.063-.344.062-.513.062-.5 0-.885-.223-.384-.224-.384-.688 0-.393.295-.777-.375-.438-.375-1.135 0-.786.46-1.219.46-.433 1.255-.433.598 0 .991.232.054-.125.036-.34h1q0 .823-.401 1.108.089.33.089.661zm-1.152-.009q0-.25-.152-.388-.152-.139-.411-.139-.25 0-.406.139-.157.138-.157.388 0 .536.563.536t.563-.536zm4.76-1.58h1.215V8.37h-.991l-.045-.188q-.384.268-.804.268-.91 0-1.38-.509-.469-.509-.469-1.42V3.957h1.215v2.484q0 .41.134.62.134.21.527.21.26 0 .429-.17.17-.17.17-.437V3.957zm6.066 1.929V8.37h-1.215V5.914q0-.411-.139-.63-.138-.219-.522-.219-.26 0-.429.183-.17.183-.17.451V8.37h-1.214V3.957h.991l.045.18q.34-.278.83-.278 1.823 0 1.823 2.028zm3.17-3.752v.983q-.383 0-.544.116-.161.116-.161.482v.241h.616v1.019h-.616V8.37h-1.17V4.976h-.357V3.957h.357v-.562q0-.313.062-.536.063-.224.21-.358.148-.133.282-.214.134-.08.402-.112.268-.03.424-.035.156-.005.496-.005zm2.252 5.217l.008 1.018q-.74 0-1.098-.277-.357-.277-.357-.991V2.135h1.152v4.949q0 .152.067.21.067.058.228.058zm3.287-3.395h1.214V8.37h-.991l-.045-.188q-.384.268-.804.268-.91 0-1.38-.509-.469-.509-.469-1.42V3.957h1.215v2.484q0 .41.134.62.134.21.527.21.26 0 .429-.17.17-.17.17-.437V3.957zm5.645 1.59q0 .75-.483 1.175-.482.424-1.268.424-.25 0-.464-.089-.161.125-.161.295 0 .116.178.116.233 0 .684-.103.45-.103.683-.103.51 0 .835.313.326.313.326.813 0 .786-.625 1.268-.625.483-1.438.483-.76 0-1.318-.335t-.558-1.041q0-.232.08-.447l1.064.322q-.01.036-.01.098 0 .152.18.232.178.08.437.08.393 0 .723-.164.33-.166.33-.443 0-.098-.07-.151-.072-.054-.17-.054-.179 0-.523.063-.344.062-.513.062-.5 0-.885-.223-.384-.224-.384-.688 0-.393.295-.777-.375-.438-.375-1.135 0-.786.46-1.219.46-.433 1.255-.433.598 0 .991.232.054-.125.036-.34h1q0 .823-.401 1.108.089.33.089.661zm-1.152-.009q0-.25-.152-.388-.152-.139-.411-.139-.25 0-.407.139-.156.138-.156.388 0 .536.563.536t.563-.536zm5.01-1.58h1.18V8.37h-1.18V3.957zm.349-.385l.768-1.456h1.215l-1.152 1.456h-.831zm7.968 3.448q0 .67-.532 1.054-.531.384-1.228.384-1.545 0-1.831-1.214l1.054-.286q.17.42.759.42.572 0 .572-.304 0-.17-.241-.286-.242-.116-.59-.205-.348-.09-.692-.22-.344-.129-.585-.42-.242-.29-.242-.718 0-.661.47-1.01.468-.348 1.156-.348.625 0 1 .192.376.192.706.692l-.929.518q-.259-.348-.66-.348-.519 0-.519.304 0 .152.241.245.242.094.581.18.34.084.683.209.344.125.585.42.242.295.242.741zm3.233-3.064h1.215V8.37h-.992l-.044-.188q-.384.268-.804.268-.911 0-1.38-.509-.47-.509-.47-1.42V3.957h1.216v2.484q0 .41.134.62.134.21.527.21.259 0 .428-.17.17-.17.17-.437V3.957zm8.387 1.93V8.37h-1.223V5.887q0-.402-.12-.612-.121-.21-.497-.21-.16 0-.277.072-.116.071-.17.156-.053.085-.08.254-.026.17-.03.26-.005.089-.005.276V8.37h-1.224V5.887q0-.393-.12-.608-.121-.214-.487-.214-.25 0-.402.165-.152.166-.152.416V8.37h-1.224V3.957h1l.045.18q.357-.278.733-.278.41 0 .683.094.272.094.603.353.509-.447 1.107-.447.911 0 1.376.554.464.554.464 1.474zm4.368-.59V7.54l.179.67-1.045.268-.09-.286q-.384.295-.973.295-.688 0-1.161-.388-.474-.389-.474-1.059 0-.625.398-.991.397-.367 1.21-.411h.67q.152-.01.152-.116v-.125q0-.188-.143-.3-.143-.111-.357-.111-.563 0-.75.42l-1.028-.358q.357-1.143 1.778-1.143.634 0 1.134.388.5.389.5 1.005zM145.481 7.2v-.76q-.09.063-.223.063h-.5q-.617.018-.617.536 0 .206.183.322.183.116.389.116.42 0 .768-.277zm5.029-3.02l-.447.939q-.295-.125-.518-.125-.304 0-.469.165-.165.165-.165.45V8.37h-1.206V3.957h.983l.044.188q.349-.304.813-.304.491 0 .965.34z" fill="#fff"/></svg>