<svg width="298" height="70" viewBox="0 0 298 70" xmlns="http://www.w3.org/2000/svg"><path d="M29.11 47.119c0 .3.2.501.502.501h3.057c.3 0 .501-.2.501-.501V32.784c0-.2.1-.3.3-.3h7.82c.3 0 .501-.201.501-.502v-2.756c0-.301-.2-.502-.501-.502h-7.82c-.2 0-.3-.1-.3-.3V17.597c0-.2.1-.3.3-.3h9.023c.3 0 .5-.2.5-.501v-2.757c0-.3-.2-.501-.5-.501H29.612c-.301 0-.502.2-.502.5zm18.244 0c0 .3.2.501.502.501h12.78c.301 0 .502-.2.502-.501v-2.757c0-.3-.2-.501-.501-.501h-8.922c-.2 0-.3-.1-.3-.3V14.038c0-.3-.201-.501-.502-.501h-3.057c-.301 0-.502.2-.502.5zm24.96.952c4.862 0 7.97-2.957 7.97-8.821V14.039c0-.3-.2-.501-.501-.501h-3.058c-.3 0-.5.2-.5.5v25.713c0 2.957-1.504 4.51-3.91 4.51s-3.91-1.553-3.91-4.51V14.039c0-.3-.2-.501-.5-.501h-3.058c-.301 0-.502.2-.502.5V39.25c0 5.864 3.108 8.821 7.97 8.821zM86.35 43.01c1.052 3.258 3.608 5.062 7.468 5.062 3.859 0 6.465-1.804 7.468-5.062.5-1.504.651-2.757.651-11.879v-1.453c0-.301-.2-.502-.5-.502h-7.068c-.3 0-.501.2-.501.502v2.656c0 .3.2.501.501.501h3.358c.2 0 .3.1.3.301 0 6.967-.15 7.769-.45 8.721-.501 1.554-1.855 2.406-3.66 2.406-1.803 0-3.157-.852-3.658-2.406-.35-1.002-.451-1.754-.451-11.277s.1-10.275.451-11.277c.501-1.554 1.804-2.406 3.609-2.406 2.456 0 3.759 1.554 4.11 4.36.05.301.25.451.601.401l2.807-.551c.3-.05.4-.3.35-.602-.55-4.761-3.207-7.417-7.918-7.417-3.86 0-6.416 1.804-7.468 5.062-.502 1.503-.652 2.756-.652 12.43 0 9.673.15 10.926.652 12.43zm30.624-2.356c0 4.46 2.656 7.418 7.217 7.418 3.108 0 5.413-1.353 7.468-4.21l1.053 1.804c.852 1.504 1.503 1.955 3.107 1.955h1.103c.3 0 .501-.2.501-.501v-2.506c0-.301-.2-.501-.501-.501h-.2c-.602 0-.953-.201-1.554-1.304l-1.404-2.405 3.158-5.664c.15-.3.1-.551-.15-.702l-1.955-1.102c-.301-.201-.501-.1-.652.2l-2.305 4.01-4.36-7.569c3.959-4.61 5.162-7.117 5.162-9.773 0-4.11-2.807-6.716-6.667-6.716-3.859 0-6.616 2.606-6.616 6.716 0 2.355 1.053 4.661 3.108 8.22l.702 1.203c-4.21 4.962-6.215 8.07-6.215 11.427zm8.67-14.284c-2.205-3.91-2.656-5.464-2.656-6.666 0-2.206 1.203-3.459 3.058-3.459 1.854 0 3.057 1.253 3.057 3.459 0 1.954-.702 3.408-3.458 6.666zm-5.062 14.184c0-2.356 1.303-4.46 4.461-8.12l4.762 8.27c-1.955 3.008-3.509 3.91-5.413 3.91-2.306 0-3.81-1.454-3.81-4.06zm32.429 2.456c1.052 3.258 3.608 5.062 7.468 5.062s6.465-1.804 7.468-5.062c.501-1.504.651-2.757.651-11.879v-1.453c0-.301-.2-.502-.5-.502h-7.068c-.3 0-.501.2-.501.502v2.656c0 .3.2.501.501.501h3.358c.2 0 .3.1.3.301 0 6.967-.15 7.769-.45 8.721-.501 1.554-1.855 2.406-3.659 2.406-1.804 0-3.158-.852-3.659-2.406-.35-1.002-.451-1.754-.451-11.277s.1-10.275.451-11.277c.501-1.554 1.804-2.406 3.609-2.406 2.456 0 3.759 1.554 4.11 4.36.05.301.25.451.601.401l2.807-.551c.3-.05.401-.3.35-.602-.55-4.761-3.207-7.417-7.918-7.417-3.86 0-6.416 1.804-7.468 5.062-.502 1.503-.652 2.756-.652 12.43 0 9.673.15 10.926.652 12.43zm20.8 4.11c0 .3.2.501.501.501h3.058c.3 0 .5-.2.5-.501v-33.08c0-.3-.2-.501-.5-.501h-3.058c-.3 0-.501.2-.501.5zm24.81-9.122c0-5.664-1.554-7.92-5.914-9.674l-2.055-.802c-2.757-1.052-3.559-2.255-3.559-5.763 0-3.459 1.203-4.962 3.709-4.962 2.606 0 3.709 1.654 3.81 5.012 0 .3.25.5.55.4l2.807-.45c.301-.05.451-.251.451-.552-.25-5.313-2.606-8.12-7.718-8.12-5.113 0-7.619 3.008-7.619 8.822 0 5.263 1.303 7.568 5.965 9.373l2.055.801c2.706 1.053 3.458 2.507 3.458 6.416 0 4.611-1.203 5.864-3.81 5.864-2.605 0-3.959-1.504-4.16-5.714 0-.3-.2-.5-.55-.45l-2.958.55c-.3.05-.4.251-.4.552.25 5.864 2.856 8.771 8.019 8.771 5.764 0 7.919-3.208 7.919-10.074zm12.08 9.623c.3 0 .5-.2.5-.501V17.597c0-.2.1-.3.301-.3h5.614c.3 0 .5-.2.5-.501v-2.757c0-.3-.2-.501-.5-.501h-15.889c-.3 0-.501.2-.501.5v2.758c0 .3.2.5.501.5h5.614c.2 0 .3.101.3.301V47.12c0 .3.2.501.502.501zm10.725-.501c0 .3.2.501.501.501h3.058c.3 0 .5-.2.5-.501v-33.08c0-.3-.2-.501-.5-.501h-3.058c-.3 0-.501.2-.501.5zm10.074 0c0 .3.2.501.502.501h2.656c.3 0 .501-.2.501-.501V21.557h.25l7.77 25.562c.1.35.35.501.751.501h3.559c.3 0 .501-.2.501-.501v-33.08c0-.3-.2-.501-.501-.501h-2.656c-.301 0-.502.2-.502.5v25.563h-.2l-7.619-25.562c-.1-.351-.35-.501-.751-.501H232c-.3 0-.5.2-.5.5zm22.605-4.11c1.052 3.258 3.609 5.062 7.468 5.062 3.86 0 6.466-1.804 7.468-5.062.501-1.504.652-2.757.652-11.879v-1.453c0-.301-.2-.502-.502-.502h-7.067c-.3 0-.5.2-.5.502v2.656c0 .3.2.501.5.501h3.358c.2 0 .301.1.301.301 0 6.967-.15 7.769-.451 8.721-.501 1.554-1.854 2.406-3.659 2.406-1.804 0-3.157-.852-3.659-2.406-.35-1.002-.45-1.754-.45-11.277s.1-10.275.45-11.277c.502-1.554 1.805-2.406 3.61-2.406 2.455 0 3.758 1.554 4.109 4.36.05.301.25.451.601.401l2.807-.551c.301-.05.401-.3.351-.602-.551-4.761-3.208-7.417-7.919-7.417-3.86 0-6.416 1.804-7.468 5.062-.501 1.503-.652 2.756-.652 12.43 0 9.673.15 10.926.652 12.43z" fill="#fff"/></svg>