<svg width="298" height="100" viewBox="0 0 298 100" xmlns="http://www.w3.org/2000/svg"><path d="M19.055 67.413c-.072.43.144.717.574.717h7.96c.502 0 .717-.287.789-.717l1.65-8.82h9.25l1.578 8.82c.072.43.287.717.789.717h7.96c.43 0 .645-.287.574-.717l-10.47-47.331c-.072-.43-.359-.717-.79-.717h-8.461c-.43 0-.646.287-.79.717zm12.335-16.28l3.227-16.923h.215l3.084 16.924zm22.733 16.28c0 .43.287.717.717.717h21.442c.43 0 .718-.287.718-.717v-7.028c0-.43-.287-.717-.718-.717H63.948c-.287 0-.43-.144-.43-.43V20.082c0-.43-.287-.717-.718-.717h-7.96c-.43 0-.717.287-.717.717zm27.61 0c0 .43.287.717.717.717h11.546c9.538 0 14.414-3.586 14.414-14.343 0-6.526-2.582-9.968-6.167-11.044V42.6c3.585-1.578 5.593-4.59 5.593-10.542 0-8.534-4.016-12.693-13.051-12.693H82.45c-.43 0-.717.287-.717.717zm9.824-28.04c-.286 0-.43-.144-.43-.43V27.755c0-.287.144-.43.43-.43h2.08c3.658 0 4.805 1.29 4.805 6.024 0 4.805-1.147 6.024-4.805 6.024zm-.43 20.367V47.26c0-.286.144-.43.43-.43h2.08c3.944 0 5.307 1.506 5.307 6.598 0 5.163-1.363 6.74-5.307 6.74h-2.08c-.286 0-.43-.143-.43-.43zm35.498 9.035c8.176 0 13.196-4.661 13.196-13.84V20.082c0-.43-.287-.717-.717-.717h-7.96c-.43 0-.718.287-.718.717v36c0 2.582-1.362 4.231-3.8 4.231-2.367 0-3.73-1.65-3.73-4.23V20.081c0-.43-.287-.717-.717-.717h-7.96c-.43 0-.717.287-.717.717v34.853c0 9.179 5.02 13.84 13.123 13.84zm19.65-1.362c0 .43.287.717.717.717h7.96c.43 0 .717-.287.717-.717V48.696c0-.287.144-.43.43-.43h10.543c.43 0 .717-.287.717-.718v-7.1c0-.43-.287-.717-.717-.717H156.1c-.287 0-.43-.143-.43-.43V28.257c0-.287.143-.43.43-.43h12.19c.431 0 .718-.287.718-.717v-7.028c0-.43-.287-.717-.717-.717h-21.299c-.43 0-.717.287-.717.717zm27.681 0c0 .43.287.717.717.717h21.3c.43 0 .716-.287.716-.717v-7.028c0-.43-.286-.717-.717-.717h-12.19c-.288 0-.431-.144-.431-.43V48.194c0-.287.143-.43.43-.43h10.542c.43 0 .717-.287.717-.718v-7.028c0-.43-.287-.717-.717-.717H183.78c-.287 0-.43-.143-.43-.43V28.257c0-.287.143-.43.43-.43h12.191c.43 0 .717-.287.717-.717v-7.028c0-.43-.286-.717-.717-.717h-21.299c-.43 0-.717.287-.717.717zm27.969 0c0 .43.286.717.717.717h7.96c.43 0 .717-.287.717-.717V20.082c0-.43-.287-.717-.717-.717h-7.96c-.43 0-.717.287-.717.717zm43.458.717c.359 0 .502-.359.359-.717l-6.67-20.654c3.37-2.294 5.45-6.31 5.45-12.478 0-10.829-5.593-14.916-14.27-14.916h-11.618c-.43 0-.717.287-.717.717v47.33c0 .431.287.718.717.718h7.96c.43 0 .717-.287.717-.717V49.484c0-.286.144-.43.43-.43h2.726l5.521 18.502c.144.43.36.574.79.574zm-15.562-27.18h-2.08c-.286 0-.43-.143-.43-.43V28.042c0-.287.144-.43.43-.43h2.08c3.658 0 5.235 1.578 5.235 6.67 0 5.163-1.577 6.669-5.235 6.669zm18 26.463c-.071.43.144.717.574.717h7.96c.502 0 .717-.287.789-.717l1.65-8.82h9.25l1.578 8.82c.072.43.287.717.789.717h7.96c.43 0 .646-.287.574-.717l-10.47-47.331c-.072-.43-.359-.717-.79-.717h-8.461c-.43 0-.646.287-.79.717zm12.335-16.28l3.227-16.923h.215l3.084 16.924z" fill="#fff"/></svg>