<svg width="212.415" height="45" viewBox="0 0 212.415 45" xmlns="http://www.w3.org/2000/svg"><path d="M.976 13.92c.304.944 1.056 1.424 2.112 1.424s1.808-.48 2.112-1.424c.112-.352.16-.752.16-4.16 0-3.408-.048-3.808-.16-4.16-.304-.944-1.056-1.424-2.112-1.424S1.28 4.656.976 5.6C.864 5.952.8 6.352.8 9.76c0 3.408.064 3.808.176 4.16zm1.168-.384c-.064-.224-.096-.528-.096-3.776 0-3.248.032-3.552.096-3.776.144-.416.448-.64.944-.64.48 0 .8.224.928.64.08.224.112.528.112 3.776 0 3.248-.032 3.552-.112 3.776-.128.416-.448.64-.928.64-.496 0-.8-.224-.944-.64zm4.992.352c.304.912 1.024 1.456 2.128 1.456s1.824-.544 2.128-1.456c.096-.304.128-.624.128-1.808 0-1.168-.048-1.552-.144-1.856-.288-.88-.864-1.392-1.872-1.392-.304 0-.576.064-.688.16L8.8 8.96l1.712-4.464c.048-.112.016-.176-.096-.176h-.96c-.096 0-.16.048-.192.144L7.52 8.976c-.4 1.024-.512 1.52-.512 3.104 0 1.184.032 1.504.128 1.808zm1.184-.352c-.064-.176-.08-.352-.08-1.456 0-1.088.016-1.264.08-1.44.144-.432.464-.656.944-.656.48 0 .8.224.944.656.064.176.08.352.08 1.44 0 1.104-.016 1.28-.08 1.456-.144.416-.464.64-.944.64-.48 0-.8-.224-.944-.64zm4.832 1.504c0 .096.064.16.16.16h1.04c.096 0 .16-.064.16-.16v-1.344c0-.096-.064-.16-.16-.16h-1.04c-.096 0-.16.064-.16.16zm5.76-3.52h3.712c.096 0 .16-.064.16-.16v-.832c0-.096-.064-.16-.16-.16h-3.712c-.096 0-.16.064-.16.16v.832c0 .096.064.16.16.16zm10.432 3.52c0 .096.064.16.16.16h.928c.096 0 .16-.064.16-.16V4.48c0-.096-.064-.16-.16-.16h-.848c-.112 0-.176.032-.272.096L27.92 5.488c-.112.096-.144.16-.144.256v.992c0 .144.096.176.176.112l1.376-1.04h.016zm4.288-1.152c.304.912 1.024 1.456 2.128 1.456s1.824-.544 2.128-1.456c.096-.304.128-.624.128-1.808 0-1.168-.048-1.552-.144-1.856-.288-.88-.864-1.392-1.872-1.392-.304 0-.576.064-.688.16l-.016-.032 1.712-4.464c.048-.112.016-.176-.096-.176h-.96c-.096 0-.16.048-.192.144l-1.744 4.512c-.4 1.024-.512 1.52-.512 3.104 0 1.184.032 1.504.128 1.808zm1.184-.352c-.064-.176-.08-.352-.08-1.456 0-1.088.016-1.264.08-1.44.144-.432.464-.656.944-.656.48 0 .8.224.944.656.064.176.08.352.08 1.44 0 1.104-.016 1.28-.08 1.456-.144.416-.464.64-.944.64-.48 0-.8-.224-.944-.64zm4.832 1.504c0 .096.064.16.16.16h1.04c.096 0 .16-.064.16-.16v-1.344c0-.096-.064-.16-.16-.16h-1.04c-.096 0-.16.064-.16.16zm5.344-.352c.352.416.96.656 1.648.656 1.488 0 2.48-.848 2.48-2.72V4.48c0-.096-.064-.16-.16-.16h-.976c-.096 0-.16.064-.16.16v8.24c0 1.008-.432 1.408-1.168 1.408-.288 0-.544-.112-.752-.288-.096-.08-.192-.064-.256 0l-.64.624c-.08.064-.08.144-.016.224zm8.784-11.696c.128 0 .192-.032.304-.16l1.488-1.68c.064-.08.016-.16-.08-.16h-.928c-.128 0-.176.048-.256.16l-1.232 1.68c-.064.08 0 .16.096.16zm-.224 12.352c1.552 0 2.544-.944 2.544-2.816V4.48c0-.096-.064-.16-.16-.16h-.976c-.096 0-.16.064-.16.16v8.208c0 .944-.48 1.44-1.248 1.44s-1.248-.496-1.248-1.44V4.48c0-.096-.064-.16-.16-.16h-.976c-.096 0-.16.064-.16.16v8.048c0 1.872.992 2.816 2.544 2.816zM58 15.04c0 .096.064.16.16.16h.848c.096 0 .16-.064.16-.16V6.88h.08l2.48 8.16c.032.112.112.16.24.16h1.136c.096 0 .16-.064.16-.16V4.48c0-.096-.064-.16-.16-.16h-.848c-.096 0-.16.064-.16.16v8.16h-.064L59.6 4.48c-.032-.112-.112-.16-.24-.16h-1.2c-.096 0-.16.064-.16.16zm7.184 0c0 .096.064.16.16.16h.976c.096 0 .16-.064.16-.16V4.48c0-.096-.064-.16-.16-.16h-.976c-.096 0-.16.064-.16.16zm.944-12.048c.128 0 .192-.032.304-.16l1.488-1.68c.064-.08.016-.16-.08-.16h-.928c-.128 0-.176.048-.256.16l-1.232 1.68c-.064.08 0 .16.096.16zM.96 37.44c0 .096.064.16.16.16h.976c.096 0 .16-.064.16-.16v-4.576c0-.064.032-.096.096-.096h2.496c.096 0 .16-.064.16-.16v-.88c0-.096-.064-.16-.16-.16H2.352c-.064 0-.096-.032-.096-.096v-3.456c0-.064.032-.096.096-.096h2.88c.096 0 .16-.064.16-.16v-.88c0-.096-.064-.16-.16-.16H1.12c-.096 0-.16.064-.16.16zm5.824 0c0 .096.064.16.16.16h4.08c.096 0 .16-.064.16-.16v-.88c0-.096-.064-.16-.16-.16H8.176c-.064 0-.096-.032-.096-.096V26.88c0-.096-.064-.16-.16-.16h-.976c-.096 0-.16.064-.16.16zm7.968.304c1.552 0 2.544-.944 2.544-2.816V26.88c0-.096-.064-.16-.16-.16h-.976c-.096 0-.16.064-.16.16v8.208c0 .944-.48 1.44-1.248 1.44s-1.248-.496-1.248-1.44V26.88c0-.096-.064-.16-.16-.16h-.976c-.096 0-.16.064-.16.16v8.048c0 1.872.992 2.816 2.544 2.816zm4.48-1.616c.336 1.04 1.152 1.616 2.384 1.616s2.064-.576 2.384-1.616c.16-.48.208-.88.208-3.792v-.464c0-.096-.064-.16-.16-.16h-2.256c-.096 0-.16.064-.16.16v.848c0 .096.064.16.16.16h1.072c.064 0 .096.032.096.096 0 2.224-.048 2.48-.144 2.784-.16.496-.592.768-1.168.768s-1.008-.272-1.168-.768c-.112-.32-.144-.56-.144-3.6s.032-3.28.144-3.6c.16-.496.576-.768 1.152-.768.784 0 1.2.496 1.312 1.392.016.096.08.144.192.128l.896-.176c.096-.016.128-.096.112-.192-.176-1.52-1.024-2.368-2.528-2.368-1.232 0-2.048.576-2.384 1.616-.16.48-.208.88-.208 3.968s.048 3.488.208 3.968zm12.096 1.616c1.232 0 2.064-.576 2.384-1.616.16-.48.208-.88.208-3.968s-.048-3.488-.208-3.968c-.32-1.04-1.152-1.616-2.384-1.616s-2.048.576-2.384 1.616c-.16.48-.208.88-.208 3.968s.048 3.488.208 3.968c.336 1.04 1.152 1.616 2.384 1.616zm0-1.216c-.576 0-.976-.272-1.136-.768-.112-.32-.144-.56-.144-3.6s.032-3.28.144-3.6c.16-.496.56-.768 1.136-.768.576 0 .992.272 1.152.768.096.32.128.56.128 3.6s-.032 3.28-.128 3.6c-.16.496-.576.768-1.152.768zm4.368-.4c.336 1.04 1.152 1.616 2.384 1.616s2.064-.576 2.384-1.616c.16-.48.208-.88.208-3.792v-.464c0-.096-.064-.16-.16-.16h-2.256c-.096 0-.16.064-.16.16v.848c0 .096.064.16.16.16h1.072c.064 0 .096.032.096.096 0 2.224-.048 2.48-.144 2.784-.16.496-.592.768-1.168.768s-1.008-.272-1.168-.768c-.112-.32-.144-.56-.144-3.6s.032-3.28.144-3.6c.16-.496.576-.768 1.152-.768.784 0 1.2.496 1.312 1.392.016.096.08.144.192.128l.896-.176c.096-.016.128-.096.112-.192-.176-1.52-1.024-2.368-2.528-2.368-1.232 0-2.048.576-2.384 1.616-.16.48-.208.88-.208 3.968s.048 3.488.208 3.968zm9.712 0c.336 1.04 1.152 1.616 2.384 1.616s2.064-.576 2.384-1.616c.16-.48.208-.88.208-3.792v-.464c0-.096-.064-.16-.16-.16h-2.256c-.096 0-.16.064-.16.16v.848c0 .096.064.16.16.16h1.072c.064 0 .096.032.096.096 0 2.224-.048 2.48-.144 2.784-.16.496-.592.768-1.168.768s-1.008-.272-1.168-.768c-.112-.32-.144-.56-.144-3.6s.032-3.28.144-3.6c.16-.496.576-.768 1.152-.768.784 0 1.2.496 1.312 1.392.016.096.08.144.192.128l.896-.176c.096-.016.128-.096.112-.192-.176-1.52-1.024-2.368-2.528-2.368-1.232 0-2.048.576-2.384 1.616-.16.48-.208.88-.208 3.968s.048 3.488.208 3.968zm6.64 1.312c0 .096.064.16.16.16h.976c.096 0 .16-.064.16-.16V26.88c0-.096-.064-.16-.16-.16h-.976c-.096 0-.16.064-.16.16zm7.92-2.912c0-1.808-.496-2.528-1.888-3.088l-.656-.256c-.88-.336-1.136-.72-1.136-1.84 0-1.104.384-1.584 1.184-1.584.832 0 1.184.528 1.216 1.6 0 .096.08.16.176.128l.896-.144c.096-.016.144-.08.144-.176-.08-1.696-.832-2.592-2.464-2.592-1.632 0-2.432.96-2.432 2.816 0 1.68.416 2.416 1.904 2.992l.656.256c.864.336 1.104.8 1.104 2.048 0 1.472-.384 1.872-1.216 1.872s-1.264-.48-1.328-1.824c0-.096-.064-.16-.176-.144l-.944.176c-.096.016-.128.08-.128.176.08 1.872.912 2.8 2.56 2.8 1.84 0 2.528-1.024 2.528-3.216zm3.856 3.072c.096 0 .16-.064.16-.16v-9.424c0-.064.032-.096.096-.096h1.792c.096 0 .16-.064.16-.16v-.88c0-.096-.064-.16-.16-.16H60.8c-.096 0-.16.064-.16.16v.88c0 .096.064.16.16.16h1.792c.064 0 .096.032.096.096v9.424c0 .096.064.16.16.16zm3.424-.16c0 .096.064.16.16.16h.976c.096 0 .16-.064.16-.16V26.88c0-.096-.064-.16-.16-.16h-.976c-.096 0-.16.064-.16.16zm3.216 0c0 .096.064.16.16.16h.848c.096 0 .16-.064.16-.16v-8.16h.08l2.48 8.16c.032.112.112.16.24.16h1.136c.096 0 .16-.064.16-.16V26.88c0-.096-.064-.16-.16-.16h-.848c-.096 0-.16.064-.16.16v8.16h-.064l-2.432-8.16c-.032-.112-.112-.16-.24-.16h-1.2c-.096 0-.16.064-.16.16zm7.216-1.312c.336 1.04 1.152 1.616 2.384 1.616s2.064-.576 2.384-1.616c.16-.48.208-.88.208-3.792v-.464c0-.096-.064-.16-.16-.16H80.24c-.096 0-.16.064-.16.16v.848c0 .096.064.16.16.16h1.072c.064 0 .096.032.096.096 0 2.224-.048 2.48-.144 2.784-.16.496-.592.768-1.168.768s-1.008-.272-1.168-.768c-.112-.32-.144-.56-.144-3.6s.032-3.28.144-3.6c.16-.496.576-.768 1.152-.768.784 0 1.2.496 1.312 1.392.016.096.08.144.192.128l.896-.176c.096-.016.128-.096.112-.192-.176-1.52-1.024-2.368-2.528-2.368-1.232 0-2.048.576-2.384 1.616-.16.48-.208.88-.208 3.968s.048 3.488.208 3.968z" fill="#fff"/></svg>