<svg width="95.682" height="22" viewBox="0 0 95.682 22" xmlns="http://www.w3.org/2000/svg"><path d="M3.552 15.2c.096 0 .144-.064.16-.16l2.16-10.56c.016-.096-.016-.16-.128-.16h-.96c-.096 0-.16.048-.176.16l-1.44 8H3.12l-1.488-8c-.016-.112-.064-.16-.16-.16H.48c-.112 0-.144.064-.128.16l2.16 10.56c.016.096.064.16.16.16zm3.632-.16c0 .096.064.16.16.16h4.112c.096 0 .16-.064.16-.16v-.88c0-.096-.064-.16-.16-.16h-2.88c-.064 0-.096-.032-.096-.096V10.4c0-.064.032-.096.096-.096h2.496c.096 0 .16-.064.16-.16v-.88c0-.096-.064-.16-.16-.16H8.576c-.064 0-.096-.032-.096-.096V5.616c0-.064.032-.096.096-.096h2.88c.096 0 .16-.064.16-.16v-.88c0-.096-.064-.16-.16-.16H7.344c-.096 0-.16.064-.16.16zm10.992.16c.08 0 .112-.08.08-.16l-1.52-4.816c.848-.432 1.328-1.312 1.328-2.768 0-2.304-1.024-3.136-2.944-3.136h-1.904c-.096 0-.16.064-.16.16v10.56c0 .096.064.16.16.16h.976c.096 0 .16-.064.16-.16v-4.384c0-.064.032-.096.096-.096h.656c.144 0 .304 0 .448-.016l1.36 4.544c.032.08.08.112.176.112zm-3.04-5.808h-.688c-.064 0-.096-.032-.096-.096v-3.68c0-.064.032-.096.096-.096h.688c1.152 0 1.632.464 1.632 1.936 0 1.488-.512 1.936-1.632 1.936zm7.072 5.808c1.376 0 2.16-.576 2.512-1.696.192-.592.256-1.312.256-3.744 0-2.432-.064-3.152-.256-3.744-.352-1.12-1.136-1.696-2.512-1.696h-2.256c-.096 0-.16.064-.16.16v4.608c0 .064-.032.096-.096.096h-.464c-.096 0-.16.064-.16.16v.704c0 .096.064.16.16.16h.464c.064 0 .096.032.096.096v4.736c0 .096.064.16.16.16zM22.08 14h-.896c-.064 0-.096-.032-.096-.096v-3.6c0-.064.032-.096.096-.096h1.04c.096 0 .16-.064.16-.16v-.704c0-.096-.064-.16-.16-.16h-1.04c-.064 0-.096-.032-.096-.096V5.616c0-.064.032-.096.096-.096h.896c.736 0 1.152.288 1.376.928.144.448.208 1.04.208 3.312s-.064 2.864-.208 3.312c-.224.64-.64.928-1.376.928zm7.68 1.04c0 .096.064.16.16.16h.976c.096 0 .16-.064.16-.16v-4.576c0-.064.032-.096.096-.096h2.496c.096 0 .16-.064.16-.16v-.88c0-.096-.064-.16-.16-.16h-2.496c-.064 0-.096-.032-.096-.096V5.616c0-.064.032-.096.096-.096h2.88c.096 0 .16-.064.16-.16v-.88c0-.096-.064-.16-.16-.16H29.92c-.096 0-.16.064-.16.16zm10.944.16c.08 0 .112-.08.08-.16l-1.52-4.816c.848-.432 1.328-1.312 1.328-2.768 0-2.304-1.024-3.136-2.944-3.136h-1.904c-.096 0-.16.064-.16.16v10.56c0 .096.064.16.16.16h.976c.096 0 .16-.064.16-.16v-4.384c0-.064.032-.096.096-.096h.656c.144 0 .304 0 .448-.016l1.36 4.544c.032.08.08.112.176.112zm-3.04-5.808h-.688c-.064 0-.096-.032-.096-.096v-3.68c0-.064.032-.096.096-.096h.688c1.152 0 1.632.464 1.632 1.936 0 1.488-.512 1.936-1.632 1.936zm3.984 5.648c-.016.096.048.16.144.16h.96c.096 0 .144-.064.16-.16l.48-2.384h2.416l.48 2.384c.016.096.064.16.176.16h.96c.096 0 .16-.064.144-.16L45.28 4.48c-.016-.096-.08-.16-.176-.16h-.96c-.096 0-.144.064-.176.16zm1.968-3.504l.992-4.736h.048l.928 4.736zm1.312-8.544c.128 0 .192-.032.304-.16l1.488-1.68c.064-.08.016-.16-.08-.16h-.928c-.128 0-.176.048-.256.16l-1.232 1.68c-.064.08 0 .16.096.16z" fill="#fff"/></svg>