<svg width="298" height="83" viewBox="0 0 298 83" xmlns="http://www.w3.org/2000/svg"><path d="M47.815 55.46c0 .354.236.59.59.59h5.723c.354 0 .59-.236.59-.59V32.273h.354l4.366 16.048c.118.354.354.59.767.59h3.245c.413 0 .649-.236.767-.59l4.366-16.048h.354V55.46c0 .354.236.59.59.59h5.723c.354 0 .59-.236.59-.59V16.52c0-.354-.236-.59-.59-.59h-6.313c-.531 0-.826.177-.944.59l-5.9 21.063h-.236L55.721 16.52c-.118-.413-.413-.59-.944-.59h-6.372c-.354 0-.59.236-.59.59zm31.27 0c-.059.354.118.59.472.59h6.549c.413 0 .59-.236.649-.59l1.357-7.257h7.611l1.298 7.257c.059.354.236.59.649.59h6.549c.354 0 .531-.236.472-.59l-8.614-38.94c-.059-.354-.295-.59-.649-.59h-6.962c-.354 0-.531.236-.649.59zm10.148-13.393l2.655-13.924h.177l2.537 13.924zm18.703 13.393c0 .354.236.59.59.59h17.641c.354 0 .59-.236.59-.59v-5.782c0-.354-.236-.59-.59-.59h-10.148c-.236 0-.354-.118-.354-.354V16.52c0-.354-.236-.59-.59-.59h-6.549c-.354 0-.59.236-.59.59zm22.715 0c0 .354.236.59.59.59h17.641c.354 0 .59-.236.59-.59v-5.782c0-.354-.236-.59-.59-.59h-10.148c-.236 0-.354-.118-.354-.354V16.52c0-.354-.236-.59-.59-.59h-6.549c-.354 0-.59.236-.59.59zm31.801 1.121c5.251 0 8.791-2.36 10.266-6.785.649-1.829.826-3.481.826-13.806s-.177-11.977-.826-13.806c-1.475-4.425-5.015-6.785-10.266-6.785s-8.791 2.36-10.266 6.785c-.649 1.829-.826 3.481-.826 13.806s.177 11.977.826 13.806c1.475 4.425 5.015 6.785 10.266 6.785zm0-6.962c-1.475 0-2.478-.826-2.832-1.947-.295-.944-.413-1.947-.413-11.682s.118-10.738.413-11.682c.354-1.121 1.357-1.947 2.832-1.947 1.475 0 2.478.826 2.832 1.947.295.944.413 1.947.413 11.682s-.118 10.738-.413 11.682c-.354 1.121-1.357 1.947-2.832 1.947zm38.527 6.431c.295 0 .413-.295.295-.59l-5.487-16.992c2.773-1.888 4.484-5.192 4.484-10.266 0-8.909-4.602-12.272-11.741-12.272h-9.558c-.354 0-.59.236-.59.59v38.94c0 .354.236.59.59.59h6.549c.354 0 .59-.236.59-.59V40.71c0-.236.118-.354.354-.354h2.242l4.543 15.222c.118.354.295.472.649.472zm-12.803-22.361h-1.711c-.236 0-.354-.118-.354-.354V23.069c0-.236.118-.354.354-.354h1.711c3.009 0 4.307 1.298 4.307 5.487 0 4.248-1.298 5.487-4.307 5.487zm17.051 16.225c1.416 4.307 4.661 6.667 9.971 6.667 6.431 0 10.207-3.422 10.561-10.148 0-.354-.118-.649-.531-.708l-6.195-1.062c-.354-.059-.649.118-.649.531-.118 3.186-1.121 4.425-3.068 4.425-1.416 0-2.242-.59-2.655-1.829-.236-.885-.354-1.593-.354-11.8s.118-10.915.354-11.8c.413-1.239 1.239-1.829 2.655-1.829 1.947 0 2.95 1.239 3.068 4.425 0 .413.295.59.649.531l6.195-1.062c.413-.059.531-.354.531-.708-.354-6.726-4.13-10.148-10.561-10.148-5.31 0-8.555 2.36-9.971 6.667-.531 1.711-.767 3.54-.767 13.924s.236 12.213.767 13.924zm21.535 5.546c-.059.354.118.59.472.59h6.549c.413 0 .59-.236.649-.59l1.357-7.257h7.611l1.298 7.257c.059.354.236.59.649.59h6.549c.354 0 .531-.236.472-.59l-8.614-38.94c-.059-.354-.295-.59-.649-.59h-6.962c-.354 0-.531.236-.649.59zm10.148-13.393l2.655-13.924h.177l2.537 13.924z" fill="#e22b11"/></svg>