<svg width="252.932" height="46" viewBox="0 0 252.932 46" xmlns="http://www.w3.org/2000/svg"><path d="M75.374 31c.196 0 .326-.13.326-.326V22.97c0-.13.065-.195.196-.195h1.077c3.949 0 6.527-1.959 6.527-6.985 0-5.058-2.48-6.984-6.527-6.984H71.75c-.196 0-.326.13-.326.327v21.54c0 .195.13.326.326.326zm1.468-11.978h-.946c-.13 0-.196-.065-.196-.195v-6.07c0-.131.065-.197.196-.197h.946c1.665 0 2.383.718 2.383 3.231s-.718 3.231-2.383 3.231zm14.85 12.272c2.905 0 4.863-1.306 5.679-3.753.359-1.012.457-1.926.457-7.637 0-5.712-.098-6.626-.457-7.637-.816-2.448-2.774-3.753-5.68-3.753-2.904 0-4.862 1.305-5.678 3.753-.359 1.011-.457 1.925-.457 7.637 0 5.711.098 6.625.457 7.637.816 2.447 2.774 3.753 5.679 3.753zm0-3.851c-.816 0-1.37-.457-1.567-1.077-.163-.523-.228-1.077-.228-6.462s.065-5.94.228-6.462c.196-.62.751-1.077 1.567-1.077s1.37.457 1.566 1.077c.164.522.229 1.077.229 6.462s-.065 5.94-.229 6.462c-.195.62-.75 1.077-1.566 1.077zM113.003 31c.164 0 .229-.163.164-.326l-3.036-9.4c1.534-1.044 2.48-2.872 2.48-5.678 0-4.928-2.545-6.789-6.494-6.789h-5.287c-.196 0-.326.13-.326.327v21.54c0 .195.13.326.326.326h3.623c.196 0 .326-.13.326-.326v-8.16c0-.13.065-.195.196-.195h1.24l2.513 8.42c.065.196.163.261.36.261zm-7.082-12.37h-.946c-.13 0-.196-.064-.196-.195v-5.679c0-.13.065-.196.196-.196h.946c1.665 0 2.383.718 2.383 3.036 0 2.35-.718 3.035-2.383 3.035zM122.044 31c.196 0 .326-.13.326-.326v-17.82c0-.13.065-.196.196-.196h3.492c.196 0 .326-.13.326-.326V9.134c0-.196-.13-.327-.326-.327h-11.651c-.196 0-.327.13-.327.327v3.198c0 .196.131.326.327.326h3.492c.13 0 .196.066.196.196v17.82c0 .195.13.326.326.326zm13.413-24.64c.261 0 .425-.098.653-.327l3.394-3.72c.13-.164.033-.327-.163-.327h-3.264c-.26 0-.359.098-.522.327l-2.676 3.72c-.13.163-.033.327.163.327zm-1.207 24.934c3.72 0 6.005-2.122 6.005-6.3V9.135c0-.196-.13-.327-.327-.327h-3.622c-.196 0-.327.13-.327.327v16.383c0 1.175-.62 1.926-1.73 1.926-1.076 0-1.696-.751-1.696-1.926V9.134c0-.196-.13-.327-.327-.327h-3.622c-.196 0-.327.13-.327.327v15.86c0 4.178 2.285 6.3 5.973 6.3zm9.04-3.72c.816 2.414 2.741 3.72 5.711 3.72 2.905 0 4.83-1.306 5.646-3.753.36-1.012.457-1.926.457-7.637v-.98c0-.195-.13-.326-.326-.326h-5.385c-.196 0-.326.13-.326.327v2.872c0 .195.13.326.326.326h1.403c.13 0 .196.065.196.196 0 3.263-.065 3.59-.196 4.047-.195.652-.88 1.077-1.697 1.077-.816 0-1.501-.425-1.697-1.077-.163-.49-.196-.784-.196-6.462 0-5.712.033-5.973.196-6.495.196-.62.849-1.044 1.632-1.044 1.11 0 1.762.75 1.86 2.35.033.228.163.326.36.293l3.459-.587c.196-.033.293-.196.26-.392-.293-3.59-2.382-5.515-5.972-5.515-2.97 0-4.895 1.305-5.711 3.72-.326 1.044-.424 1.958-.424 7.67 0 5.711.098 6.625.424 7.67zm12.696 3.1c-.033.195.065.326.26.326h3.623c.229 0 .327-.13.36-.326l.75-4.015h4.21l.718 4.015c.033.195.13.326.359.326h3.623c.195 0 .293-.13.26-.326l-4.764-21.54c-.033-.196-.163-.327-.36-.327h-3.85c-.196 0-.294.13-.36.327zm5.613-7.409l1.469-7.702h.098l1.403 7.702zm10.346 7.409c0 .195.13.326.326.326h9.758c.196 0 .327-.13.327-.326v-3.199c0-.196-.13-.326-.327-.326h-5.613c-.13 0-.196-.065-.196-.196V9.133c0-.195-.13-.326-.326-.326h-3.623c-.196 0-.326.13-.326.327z" fill="#fff"/></svg>