<svg width="252.72" height="46" viewBox="0 0 252.72 46" xmlns="http://www.w3.org/2000/svg"><path d="M20.392 30.95c0 .198.131.33.329.33h5.3c4.38 0 6.619-1.646 6.619-6.585 0-2.996-1.186-4.577-2.832-5.07v-.066c1.646-.725 2.568-2.107 2.568-4.84 0-3.918-1.844-5.828-5.992-5.828H20.72c-.198 0-.33.132-.33.33zm4.51-12.873c-.131 0-.197-.066-.197-.197v-5.137c0-.131.066-.197.197-.197h.955c1.68 0 2.206.592 2.206 2.765 0 2.206-.527 2.766-2.206 2.766zm-.197 9.35V21.7c0-.132.066-.198.197-.198h.955c1.811 0 2.437.692 2.437 3.03 0 2.37-.626 3.094-2.437 3.094h-.955c-.131 0-.197-.066-.197-.197zm16.66 3.853c.197 0 .329-.132.329-.33v-8.56L46.04 9.22c.066-.197 0-.329-.263-.329h-3.59c-.23 0-.328.099-.394.33l-2.107 8.198h-.132L37.348 9.22c-.033-.23-.165-.329-.395-.329h-3.655c-.263 0-.33.132-.263.33l4.346 13.17v8.56c0 .197.131.329.329.329zm19.063 0c.165 0 .23-.165.165-.33l-3.062-9.482c1.547-1.053 2.502-2.897 2.502-5.729 0-4.971-2.568-6.848-6.552-6.848h-5.334c-.197 0-.33.132-.33.33v21.73c0 .197.133.329.33.329h3.655c.197 0 .33-.132.33-.33v-8.23c0-.132.065-.198.197-.198h1.25l2.536 8.495c.066.197.165.263.362.263zm-7.145-12.478h-.954c-.132 0-.198-.066-.198-.198v-5.729c0-.132.066-.198.198-.198h.954c1.68 0 2.404.725 2.404 3.062 0 2.371-.724 3.063-2.404 3.063zM61.68 29.93c.856 1.054 2.404 1.646 4.116 1.646 3.72 0 6.124-1.942 6.124-6.453V9.22c0-.197-.132-.329-.33-.329h-3.654c-.198 0-.33.132-.33.33v16.297c0 1.548-.625 2.173-1.777 2.173-.494 0-.922-.197-1.251-.494-.198-.164-.33-.164-.494-.033l-2.37 2.305c-.165.132-.165.296-.034.461zm11.557 1.02c-.033.198.066.33.263.33h3.655c.23 0 .33-.132.362-.33l.757-4.049h4.248l.724 4.05c.033.197.132.329.362.329h3.655c.197 0 .296-.132.263-.33L82.718 9.22c-.033-.197-.164-.329-.362-.329h-3.885c-.198 0-.296.132-.362.33zm5.663-7.473l1.482-7.77h.098l1.416 7.77zm16.43 7.803c3.094 0 4.905-1.185 5.728-3.72.395-1.252.593-2.766.593-7.474 0-4.709-.198-6.223-.593-7.474-.823-2.536-2.634-3.72-5.729-3.72h-5.663c-.197 0-.329.13-.329.328v9.022c0 .131-.066.197-.197.197h-.89c-.197 0-.329.132-.329.33v2.436c0 .198.132.33.33.33h.889c.131 0 .197.065.197.197v9.219c0 .197.132.329.33.329zm-.429-3.885h-1.053c-.132 0-.198-.066-.198-.198v-5.465c0-.132.066-.198.198-.198h1.448c.198 0 .33-.131.33-.329v-2.403c0-.198-.132-.33-.33-.33h-1.448c-.132 0-.198-.066-.198-.197v-5.301c0-.132.066-.198.198-.198H94.9c1.087 0 1.68.395 2.009 1.383.23.692.362 1.646.362 5.927 0 4.28-.132 5.235-.362 5.926-.33.988-.922 1.383-2.009 1.383zm15.41 4.181c3.753 0 6.057-2.14 6.057-6.354V9.22c0-.197-.131-.329-.329-.329h-3.655c-.197 0-.329.132-.329.33v16.528c0 1.185-.625 1.942-1.745 1.942-1.086 0-1.712-.757-1.712-1.942V9.22c0-.197-.132-.329-.33-.329h-3.654c-.197 0-.329.132-.329.33v16c0 4.215 2.305 6.355 6.025 6.355zm14.223-.625c-.033.197.066.329.263.329h3.655c.23 0 .329-.132.362-.33l.757-4.049h4.247l.725 4.05c.033.197.132.329.362.329h3.655c.197 0 .296-.132.263-.33l-4.807-21.73c-.033-.197-.165-.329-.362-.329h-3.885c-.198 0-.297.132-.362.33zm5.663-7.474l1.481-7.77h.1l1.415 7.77zm16.43 7.803c3.094 0 4.905-1.185 5.728-3.72.395-1.252.593-2.766.593-7.474 0-4.709-.198-6.223-.593-7.474-.823-2.536-2.634-3.72-5.729-3.72h-5.663c-.197 0-.33.13-.33.328v9.022c0 .131-.065.197-.197.197h-.889c-.197 0-.329.132-.329.33v2.436c0 .198.132.33.33.33h.888c.132 0 .198.065.198.197v9.219c0 .197.132.329.33.329zm-.429-3.885h-1.053c-.132 0-.198-.066-.198-.198v-5.465c0-.132.066-.198.198-.198h1.448c.198 0 .33-.131.33-.329v-2.403c0-.198-.132-.33-.33-.33h-1.448c-.132 0-.198-.066-.198-.197v-5.301c0-.132.066-.198.198-.198h1.053c1.087 0 1.68.395 2.009 1.383.23.692.362 1.646.362 5.927 0 4.28-.132 5.235-.362 5.926-.33.988-.922 1.383-2.009 1.383zm19.854 3.885c.197 0 .33-.132.33-.33v-7.77c0-.131.065-.197.197-.197h1.086c3.984 0 6.585-1.976 6.585-7.046 0-5.103-2.502-7.046-6.585-7.046h-5.268c-.197 0-.329.132-.329.33v21.73c0 .197.132.329.33.329zm1.481-12.083h-.954c-.132 0-.198-.066-.198-.198v-6.124c0-.132.066-.198.198-.198h.954c1.68 0 2.404.725 2.404 3.26 0 2.535-.724 3.26-2.404 3.26zm6.157 11.754c-.033.197.066.329.264.329h3.654c.23 0 .33-.132.363-.33l.757-4.049h4.247l.725 4.05c.032.197.131.329.362.329h3.654c.198 0 .297-.132.264-.33l-4.807-21.73c-.033-.197-.165-.329-.362-.329h-3.886c-.197 0-.296.132-.362.33zm5.663-7.474l1.482-7.77h.099l1.416 7.77zm10.438 7.474c0 .197.131.329.329.329h3.655c.197 0 .329-.132.329-.33v-6.057l1.317-2.766 3.292 8.923c.033.164.132.23.33.23h3.918c.164 0 .263-.165.197-.33l-5.037-13.037 4.477-8.693c.1-.164 0-.329-.164-.329h-3.82c-.197 0-.329.066-.428.264l-4.082 8.659V9.22c0-.197-.132-.329-.33-.329h-3.654c-.198 0-.33.132-.33.33zm15.343 0c0 .197.131.329.329.329h3.654c.198 0 .33-.132.33-.33v-6.057l1.317-2.766 3.292 8.923c.033.164.132.23.33.23h3.918c.164 0 .263-.165.197-.33l-5.037-13.037 4.477-8.693c.1-.164 0-.329-.164-.329h-3.82c-.197 0-.329.066-.428.264l-4.082 8.659V9.22c0-.197-.132-.329-.33-.329h-3.654c-.198 0-.33.132-.33.33zm14.124 0c-.033.197.066.329.264.329h3.654c.23 0 .33-.132.363-.33l.757-4.049h4.247l.724 4.05c.033.197.132.329.363.329h3.654c.198 0 .297-.132.264-.33L228.74 9.22c-.033-.197-.165-.329-.362-.329h-3.886c-.197 0-.296.132-.362.33zm5.663-7.474l1.482-7.77h.099l1.416 7.77z" fill="#fff"/></svg>