<svg width="252.298" height="46" viewBox="0 0 252.298 46" xmlns="http://www.w3.org/2000/svg"><path d="M60.06 24.66c0-3.792-1.188-5.44-4.254-6.627l-1.352-.528c-1.747-.692-2.11-1.22-2.11-2.901 0-1.517.56-2.242 1.714-2.242 1.187 0 1.748.824 1.78 2.44 0 .197.166.296.364.263l3.363-.527c.197-.033.296-.165.296-.363-.165-3.528-2.01-5.572-5.934-5.572-3.99 0-5.935 2.176-5.935 6.232 0 3.593 1.088 5.275 4.253 6.495l1.352.527c1.681.66 2.077 1.352 2.077 3.33 0 2.045-.56 2.671-1.78 2.671-1.286 0-1.88-.824-1.946-2.901 0-.198-.132-.297-.362-.264l-3.528.56c-.198.033-.264.165-.264.363.066 3.858 2.011 6 6.067 6 4.45 0 6.198-2.373 6.198-6.956zm8.308 6.957c3.758 0 6.066-2.143 6.066-6.364V9.23c0-.198-.131-.33-.33-.33h-3.66c-.197 0-.329.132-.329.33v16.55c0 1.188-.626 1.946-1.747 1.946-1.088 0-1.715-.758-1.715-1.945V9.23c0-.198-.132-.33-.33-.33h-3.66c-.197 0-.329.132-.329.33v16.023c0 4.22 2.308 6.364 6.034 6.364zm9.034-.627c0 .198.132.33.33.33h3.198c.197 0 .33-.132.33-.33V18.033h.197L83.897 27c.066.198.198.33.429.33h1.813c.23 0 .363-.132.429-.33l2.44-8.968h.197V30.99c0 .198.132.33.33.33h3.198c.198 0 .33-.132.33-.33V9.23c0-.198-.132-.33-.33-.33h-3.528c-.296 0-.461.099-.527.33L85.38 21h-.132l-3.43-11.77c-.065-.231-.23-.33-.527-.33h-3.56c-.198 0-.33.132-.33.33zm17.474 0c-.033.198.066.33.264.33h3.66c.23 0 .33-.132.362-.33l.759-4.055h4.253l.725 4.055c.033.198.132.33.363.33h3.66c.198 0 .297-.132.264-.33l-4.814-21.76c-.033-.198-.165-.33-.363-.33h-3.89c-.198 0-.297.132-.363.33zm5.671-7.484l1.484-7.781h.099l1.418 7.78zm23.08 7.814c.165 0 .23-.165.165-.33l-3.067-9.495c1.55-1.055 2.506-2.902 2.506-5.737 0-4.979-2.572-6.858-6.561-6.858h-5.341c-.198 0-.33.132-.33.33v21.76c0 .198.132.33.33.33h3.66c.197 0 .33-.132.33-.33v-8.242c0-.132.065-.198.197-.198h1.253l2.539 8.506c.066.198.164.264.362.264zm-7.155-12.496h-.956c-.132 0-.198-.066-.198-.198V12.89c0-.132.066-.197.198-.197h.956c1.682 0 2.407.725 2.407 3.066 0 2.374-.725 3.066-2.407 3.066zm21.101 5.836c0-3.792-1.186-5.44-4.253-6.627l-1.352-.528c-1.747-.692-2.11-1.22-2.11-2.901 0-1.517.56-2.242 1.715-2.242 1.187 0 1.747.824 1.78 2.44 0 .197.165.296.363.263l3.363-.527c.198-.033.297-.165.297-.363-.165-3.528-2.012-5.572-5.935-5.572-3.99 0-5.935 2.176-5.935 6.232 0 3.593 1.088 5.275 4.253 6.495l1.352.527c1.682.66 2.077 1.352 2.077 3.33 0 2.045-.56 2.671-1.78 2.671-1.286 0-1.88-.824-1.945-2.901 0-.198-.132-.297-.363-.264l-3.528.56c-.198.033-.264.165-.264.363.066 3.858 2.012 6 6.067 6 4.451 0 6.198-2.373 6.198-6.956zm9.2-18.233c.263 0 .428-.099.659-.33l3.429-3.758c.132-.165.033-.33-.165-.33h-3.297c-.264 0-.363.099-.528.33l-2.703 3.758c-.132.165-.033.33.164.33zm-.99 25.19c2.935 0 4.913-1.32 5.737-3.792.363-1.022.462-1.945.462-7.715s-.1-6.693-.462-7.715c-.824-2.473-2.802-3.792-5.737-3.792-2.934 0-4.912 1.319-5.737 3.792-.362 1.022-.461 1.945-.461 7.715s.099 6.693.461 7.715c.825 2.473 2.803 3.792 5.737 3.792zm0-3.89c-.824 0-1.385-.462-1.582-1.089-.165-.527-.231-1.088-.231-6.528 0-5.44.066-6 .23-6.528.198-.627.759-1.088 1.583-1.088s1.385.461 1.583 1.088c.165.527.23 1.088.23 6.528 0 5.44-.065 6-.23 6.528-.198.627-.759 1.088-1.583 1.088zm8.902 3.263c0 .198.132.33.33.33h9.858c.198 0 .33-.132.33-.33v-3.23c0-.199-.132-.33-.33-.33h-5.67c-.133 0-.199-.066-.199-.198V9.23c0-.198-.131-.33-.33-.33h-3.659c-.198 0-.33.132-.33.33zm25.783.33c.198 0 .33-.132.33-.33V12.988c0-.132.066-.198.198-.198h3.528c.198 0 .33-.131.33-.33V9.23c0-.198-.132-.33-.33-.33h-11.77c-.199 0-.33.132-.33.33v3.23c0 .199.131.33.33.33h3.527c.132 0 .198.066.198.198V30.99c0 .198.132.33.33.33zm6.364-.33c0 .198.132.33.33.33h3.66c.197 0 .329-.132.329-.33V9.23c0-.198-.132-.33-.33-.33h-3.66c-.197 0-.33.132-.33.33zm7.352 0c0 .198.132.33.33.33h9.858c.198 0 .33-.132.33-.33v-3.23c0-.199-.132-.33-.33-.33h-5.67c-.133 0-.199-.066-.199-.198V9.23c0-.198-.131-.33-.33-.33h-3.659c-.198 0-.33.132-.33.33z" fill="#fff"/></svg>