<svg width="148.333" height="29" viewBox="0 0 148.333 29" xmlns="http://www.w3.org/2000/svg"><path d="M4.197 19.55c.124 0 .186-.082.206-.206l2.778-13.58c.02-.123-.02-.205-.165-.205h-.679c-.123 0-.185.082-.205.205L3.93 17.04h-.062L1.646 5.764c-.02-.123-.103-.205-.226-.205H.74c-.143 0-.184.082-.164.205l2.778 13.58c.02.124.082.206.206.206zm4.96-.206c0 .124.081.206.205.206h4.753c.123 0 .206-.082.206-.206v-.596c0-.124-.083-.206-.206-.206H10.35c-.083 0-.124-.041-.124-.124V13.09c0-.082.041-.123.124-.123h3.292c.123 0 .205-.082.205-.206v-.597c0-.123-.082-.205-.205-.205H10.35c-.083 0-.124-.042-.124-.124V6.69c0-.082.041-.123.124-.123h3.765c.123 0 .206-.083.206-.206v-.597c0-.123-.083-.205-.206-.205H9.362c-.124 0-.206.082-.206.205zm13.044.206c.103 0 .144-.082.103-.206l-1.893-6.378c1.111-.494 1.728-1.585 1.728-3.54 0-2.839-1.11-3.867-3.56-3.867h-1.995c-.124 0-.206.082-.206.205v13.58c0 .124.082.206.206.206h.658c.124 0 .206-.082.206-.206v-5.926c0-.082.041-.123.124-.123h.967c.308 0 .596-.02.864-.062l1.81 6.173c.042.103.103.144.227.144zm-3.539-7.243h-1.09c-.083 0-.124-.04-.124-.123V6.69c0-.082.041-.123.124-.123h1.09c1.708 0 2.407.7 2.407 2.86 0 2.243-.74 2.88-2.407 2.88zm8.745 7.243c1.687 0 2.613-.74 3.045-2.078.247-.761.33-1.687.33-4.918 0-3.25-.083-4.156-.33-4.917-.432-1.338-1.358-2.078-3.045-2.078h-2.51c-.124 0-.206.082-.206.205v6.111c0 .083-.041.124-.124.124h-.7c-.123 0-.205.082-.205.206v.493c0 .124.082.206.206.206h.7c.082 0 .123.041.123.124v6.316c0 .124.082.206.205.206zm-.124-1.008h-1.399c-.082 0-.123-.041-.123-.124v-5.39c0-.083.04-.124.123-.124h1.543c.124 0 .206-.082.206-.206v-.493c0-.124-.082-.206-.206-.206h-1.543c-.082 0-.123-.041-.123-.124V6.69c0-.082.04-.123.123-.123h1.4c1.172 0 1.81.452 2.14 1.42.205.637.287 1.481.287 4.567 0 3.087-.082 3.93-.288 4.568-.33.967-.967 1.42-2.14 1.42zm9.877.802c0 .124.082.206.205.206h.659c.123 0 .205-.082.205-.206v-6.172c0-.083.042-.124.124-.124h3.292c.123 0 .206-.082.206-.206v-.596c0-.124-.083-.206-.206-.206h-3.292c-.082 0-.124-.041-.124-.124V6.69c0-.082.042-.123.124-.123h3.765c.124 0 .206-.083.206-.206v-.597c0-.123-.082-.205-.206-.205h-4.753c-.123 0-.205.082-.205.205zm12.983.206c.103 0 .144-.082.103-.206l-1.893-6.378c1.11-.494 1.728-1.585 1.728-3.54 0-2.839-1.111-3.867-3.56-3.867h-1.995c-.124 0-.206.082-.206.205v13.58c0 .124.082.206.206.206h.658c.123 0 .206-.082.206-.206v-5.926c0-.082.04-.123.123-.123h.967c.309 0 .597-.02.864-.062l1.811 6.173c.041.103.103.144.226.144zm-3.54-7.243h-1.09c-.082 0-.123-.04-.123-.123V6.69c0-.082.04-.123.123-.123h1.09c1.708 0 2.408.7 2.408 2.86 0 2.243-.74 2.88-2.407 2.88zm5.145 7.037c-.021.124.082.206.205.206h.659c.123 0 .185-.082.206-.206l.7-3.354h3.415l.7 3.354c.02.124.082.206.226.206h.658c.123 0 .206-.082.185-.206l-2.88-13.58c-.021-.123-.103-.205-.227-.205h-.679c-.123 0-.185.082-.226.205zm1.975-4.32l1.502-7.14h.041l1.46 7.14zm1.77-11.214c.143 0 .205-.041.35-.206l1.79-2.12c.082-.102.04-.205-.083-.205h-.68c-.184 0-.246.062-.349.206l-1.543 2.119c-.082.103-.041.206.082.206zm5.308 7.674h.926c.123 0 .206-.082.206-.205V9.94c0-.123-.083-.206-.206-.206H60.8c-.124 0-.206.083-.206.206v1.338c0 .123.082.205.206.205zm-.206 7.86c0 .124.082.206.206.206h.926c.123 0 .206-.082.206-.206v-1.337c0-.124-.083-.206-.206-.206H60.8c-.124 0-.206.082-.206.206z" fill="#fff"/></svg>