<svg width="273" height="59" viewBox="0 0 273 59" xmlns="http://www.w3.org/2000/svg"><path d="M28.991 39.708c0 .253.17.422.423.422h2.576c.254 0 .423-.169.423-.422V27.626c0-.169.084-.253.253-.253h6.59c.254 0 .423-.17.423-.423v-2.323c0-.254-.17-.423-.423-.423h-6.59c-.169 0-.253-.084-.253-.253v-9.125c0-.169.084-.253.253-.253h7.604c.254 0 .423-.17.423-.423v-2.323c0-.253-.17-.422-.423-.422H29.414c-.254 0-.423.169-.423.422zm15.377 0c0 .253.169.422.422.422h10.772c.254 0 .423-.169.423-.422v-2.324c0-.253-.17-.422-.423-.422h-7.52c-.168 0-.253-.085-.253-.254v-24.88c0-.254-.169-.423-.422-.423H44.79c-.253 0-.422.169-.422.422zm21.037.802c4.097 0 6.716-2.492 6.716-7.435V11.827c0-.253-.169-.422-.422-.422h-2.577c-.253 0-.422.169-.422.422v21.67c0 2.493-1.268 3.803-3.295 3.803-2.028 0-3.295-1.31-3.295-3.802v-21.67c0-.254-.17-.423-.423-.423h-2.576c-.254 0-.423.169-.423.422v21.248c0 4.943 2.62 7.435 6.717 7.435zm11.828-4.266c.887 2.745 3.041 4.266 6.294 4.266 3.253 0 5.45-1.52 6.294-4.266.423-1.268.55-2.324.55-10.012v-1.225c0-.254-.17-.422-.423-.422h-5.956c-.254 0-.423.168-.423.422v2.239c0 .253.17.422.423.422h2.83c.169 0 .254.085.254.254 0 5.872-.127 6.547-.38 7.35-.423 1.31-1.564 2.028-3.084 2.028-1.521 0-2.662-.718-3.084-2.028-.296-.845-.38-1.478-.38-9.505 0-8.026.084-8.66.38-9.504.422-1.31 1.52-2.028 3.041-2.028 2.07 0 3.169 1.31 3.464 3.675.043.254.212.38.507.338l2.366-.465c.253-.042.338-.253.296-.507-.465-4.013-2.704-6.252-6.675-6.252-3.253 0-5.407 1.521-6.294 4.267-.423 1.267-.55 2.323-.55 10.476s.127 9.21.55 10.477zm31.936 4.266c3.252 0 5.45-1.52 6.294-4.266.422-1.268.55-2.324.55-10.477s-.128-9.209-.55-10.476c-.845-2.746-3.042-4.267-6.294-4.267-3.253 0-5.407 1.521-6.295 4.267-.422 1.267-.549 2.323-.549 10.476s.127 9.21.55 10.477c.887 2.745 3.041 4.266 6.294 4.266zm0-3.21c-1.521 0-2.577-.718-3-2.028-.295-.845-.38-1.478-.38-9.505 0-8.026.085-8.66.38-9.504.423-1.31 1.479-2.028 3-2.028 1.52 0 2.619.718 3.041 2.028.254.844.338 1.478.338 9.504 0 8.027-.084 8.66-.338 9.505-.422 1.31-1.52 2.028-3.041 2.028zm11.532-1.056c.887 2.745 3.042 4.266 6.294 4.266 3.253 0 5.45-1.52 6.295-4.266.422-1.268.549-2.324.549-10.012v-1.225c0-.254-.17-.422-.423-.422h-5.956c-.253 0-.422.168-.422.422v2.239c0 .253.169.422.422.422h2.83c.17 0 .254.085.254.254 0 5.872-.127 6.547-.38 7.35-.423 1.31-1.563 2.028-3.084 2.028-1.521 0-2.662-.718-3.084-2.028-.296-.845-.38-1.478-.38-9.505 0-8.026.084-8.66.38-9.504.422-1.31 1.52-2.028 3.042-2.028 2.07 0 3.168 1.31 3.463 3.675.043.254.212.38.507.338l2.366-.465c.253-.042.338-.253.296-.507-.465-4.013-2.704-6.252-6.675-6.252-3.252 0-5.407 1.521-6.294 4.267-.422 1.267-.55 2.323-.55 10.476s.128 9.21.55 10.477zm25.642 0c.887 2.745 3.041 4.266 6.294 4.266 3.253 0 5.45-1.52 6.294-4.266.423-1.268.55-2.324.55-10.012v-1.225c0-.254-.17-.422-.423-.422h-5.956c-.254 0-.423.168-.423.422v2.239c0 .253.17.422.423.422h2.83c.169 0 .253.085.253.254 0 5.872-.126 6.547-.38 7.35-.422 1.31-1.563 2.028-3.084 2.028-1.52 0-2.661-.718-3.083-2.028-.296-.845-.38-1.478-.38-9.505 0-8.026.084-8.66.38-9.504.422-1.31 1.52-2.028 3.041-2.028 2.07 0 3.168 1.31 3.464 3.675.042.254.211.38.507.338l2.366-.465c.253-.042.338-.253.295-.507-.464-4.013-2.703-6.252-6.674-6.252-3.253 0-5.407 1.521-6.294 4.267-.423 1.267-.55 2.323-.55 10.476s.127 9.21.55 10.477zm17.53 3.464c0 .253.17.422.423.422h2.577c.253 0 .422-.169.422-.422v-27.88c0-.254-.169-.423-.422-.423h-2.577c-.253 0-.422.169-.422.422zm20.91-7.689c0-4.773-1.309-6.674-4.984-8.153l-1.732-.675c-2.323-.888-2.999-1.901-2.999-4.858 0-2.915 1.014-4.183 3.126-4.183 2.197 0 3.126 1.394 3.21 4.225 0 .253.212.422.465.338l2.366-.38c.253-.043.38-.212.38-.465-.211-4.478-2.197-6.844-6.506-6.844-4.308 0-6.42 2.535-6.42 7.435 0 4.436 1.098 6.379 5.026 7.9l1.732.676c2.282.887 2.915 2.112 2.915 5.407 0 3.886-1.014 4.942-3.21 4.942-2.197 0-3.337-1.267-3.506-4.816 0-.253-.17-.422-.465-.38l-2.492.465c-.254.042-.338.211-.338.465.21 4.942 2.407 7.392 6.758 7.392 4.858 0 6.675-2.703 6.675-8.49zm10.181 8.111c.254 0 .423-.169.423-.422V14.826c0-.169.084-.253.253-.253h4.732c.253 0 .422-.17.422-.423v-2.323c0-.253-.169-.422-.422-.422H186.98c-.254 0-.423.169-.423.422v2.323c0 .254.17.423.423.423h4.73c.17 0 .254.084.254.253v24.882c0 .253.17.422.423.422zm9.04-.422c0 .253.17.422.423.422h2.577c.253 0 .422-.169.422-.422v-27.88c0-.254-.169-.423-.422-.423h-2.577c-.253 0-.422.169-.422.422zm8.491 0c0 .253.17.422.423.422h2.239c.253 0 .422-.169.422-.422V18.164h.211l6.548 21.544c.085.295.296.422.634.422h2.999c.253 0 .422-.169.422-.422v-27.88c0-.254-.169-.423-.422-.423h-2.239c-.253 0-.422.169-.422.422v21.544h-.17l-6.42-21.544c-.085-.296-.296-.422-.634-.422h-3.168c-.254 0-.423.169-.423.422zm19.052-3.464c.887 2.745 3.042 4.266 6.294 4.266 3.253 0 5.45-1.52 6.295-4.266.422-1.268.549-2.324.549-10.012v-1.225c0-.254-.17-.422-.423-.422h-5.956c-.254 0-.422.168-.422.422v2.239c0 .253.168.422.422.422h2.83c.17 0 .254.085.254.254 0 5.872-.127 6.547-.38 7.35-.423 1.31-1.563 2.028-3.084 2.028-1.521 0-2.662-.718-3.084-2.028-.296-.845-.38-1.478-.38-9.505 0-8.026.084-8.66.38-9.504.422-1.31 1.52-2.028 3.042-2.028 2.07 0 3.168 1.31 3.463 3.675.043.254.212.38.507.338l2.366-.465c.253-.042.338-.253.296-.507-.465-4.013-2.704-6.252-6.675-6.252-3.252 0-5.407 1.521-6.294 4.267-.422 1.267-.55 2.323-.55 10.476s.128 9.21.55 10.477z" fill="#fff"/></svg>