<svg width="273" height="50" viewBox="0 0 273 50" xmlns="http://www.w3.org/2000/svg"><path d="M64.338 26.928c0-4.14-1.296-5.94-4.644-7.236l-1.476-.576c-1.908-.756-2.304-1.332-2.304-3.168 0-1.656.612-2.448 1.872-2.448 1.296 0 1.908.9 1.944 2.664 0 .216.18.324.396.288l3.672-.576c.216-.036.324-.18.324-.396-.18-3.852-2.196-6.084-6.48-6.084-4.356 0-6.48 2.376-6.48 6.804 0 3.924 1.188 5.76 4.644 7.092l1.476.576c1.836.72 2.268 1.476 2.268 3.636 0 2.232-.612 2.916-1.944 2.916-1.404 0-2.052-.9-2.124-3.168 0-.216-.144-.324-.396-.288l-3.852.612c-.216.036-.288.18-.288.396.072 4.212 2.196 6.552 6.624 6.552 4.86 0 6.768-2.592 6.768-7.596zm9.072 7.596c4.104 0 6.624-2.34 6.624-6.948V10.08c0-.216-.144-.36-.36-.36h-3.996c-.216 0-.36.144-.36.36v18.072c0 1.296-.684 2.124-1.908 2.124-1.188 0-1.872-.828-1.872-2.124V10.08c0-.216-.144-.36-.36-.36h-3.996c-.216 0-.36.144-.36.36v17.496c0 4.608 2.52 6.948 6.588 6.948zm9.864-.684c0 .216.144.36.36.36h3.492c.216 0 .36-.144.36-.36V19.692h.216l2.664 9.792c.072.216.216.36.468.36h1.98c.252 0 .396-.144.468-.36l2.664-9.792h.216V33.84c0 .216.144.36.36.36h3.492c.216 0 .36-.144.36-.36V10.08c0-.216-.144-.36-.36-.36h-3.852c-.324 0-.504.108-.576.36l-3.6 12.852h-.144L88.098 10.08c-.072-.252-.252-.36-.576-.36h-3.888c-.216 0-.36.144-.36.36zm19.08 0c-.036.216.072.36.288.36h3.996c.252 0 .36-.144.396-.36l.828-4.428h4.644l.792 4.428c.036.216.144.36.396.36h3.996c.216 0 .324-.144.288-.36l-5.256-23.76c-.036-.216-.18-.36-.396-.36h-4.248c-.216 0-.324.144-.396.36zm6.192-8.172l1.62-8.496h.108l1.548 8.496zm25.2 8.532c.18 0 .252-.18.18-.36l-3.348-10.368c1.692-1.152 2.736-3.168 2.736-6.264 0-5.436-2.808-7.488-7.164-7.488h-5.832c-.216 0-.36.144-.36.36v23.76c0 .216.144.36.36.36h3.996c.216 0 .36-.144.36-.36v-9c0-.144.072-.216.216-.216h1.368l2.772 9.288c.072.216.18.288.396.288zm-7.812-13.644h-1.044c-.144 0-.216-.072-.216-.216v-6.264c0-.144.072-.216.216-.216h1.044c1.836 0 2.628.792 2.628 3.348 0 2.592-.792 3.348-2.628 3.348zm23.04 6.372c0-4.14-1.296-5.94-4.644-7.236l-1.476-.576c-1.908-.756-2.304-1.332-2.304-3.168 0-1.656.612-2.448 1.872-2.448 1.296 0 1.908.9 1.944 2.664 0 .216.18.324.396.288l3.672-.576c.216-.036.324-.18.324-.396-.18-3.852-2.196-6.084-6.48-6.084-4.356 0-6.48 2.376-6.48 6.804 0 3.924 1.188 5.76 4.644 7.092l1.476.576c1.836.72 2.268 1.476 2.268 3.636 0 2.232-.612 2.916-1.944 2.916-1.404 0-2.052-.9-2.124-3.168 0-.216-.144-.324-.396-.288l-3.852.612c-.216.036-.288.18-.288.396.072 4.212 2.196 6.552 6.624 6.552 4.86 0 6.768-2.592 6.768-7.596zM159.018 7.02c.288 0 .468-.108.72-.36l3.744-4.104c.144-.18.036-.36-.18-.36h-3.6c-.288 0-.396.108-.576.36l-2.952 4.104c-.144.18-.036.36.18.36zm-1.08 27.504c3.204 0 5.364-1.44 6.264-4.14.396-1.116.504-2.124.504-8.424 0-6.3-.108-7.308-.504-8.424-.9-2.7-3.06-4.14-6.264-4.14s-5.364 1.44-6.264 4.14c-.396 1.116-.504 2.124-.504 8.424 0 6.3.108 7.308.504 8.424.9 2.7 3.06 4.14 6.264 4.14zm0-4.248c-.9 0-1.512-.504-1.728-1.188-.18-.576-.252-1.188-.252-7.128s.072-6.552.252-7.128c.216-.684.828-1.188 1.728-1.188s1.512.504 1.728 1.188c.18.576.252 1.188.252 7.128s-.072 6.552-.252 7.128c-.216.684-.828 1.188-1.728 1.188zm9.72 3.564c0 .216.144.36.36.36h10.764c.216 0 .36-.144.36-.36v-3.528c0-.216-.144-.36-.36-.36h-6.192c-.144 0-.216-.072-.216-.216V10.08c0-.216-.144-.36-.36-.36h-3.996c-.216 0-.36.144-.36.36zm28.152.36c.216 0 .36-.144.36-.36V14.184c0-.144.072-.216.216-.216h3.852c.216 0 .36-.144.36-.36V10.08c0-.216-.144-.36-.36-.36h-12.852c-.216 0-.36.144-.36.36v3.528c0 .216.144.36.36.36h3.852c.144 0 .216.072.216.216V33.84c0 .216.144.36.36.36zm6.948-.36c0 .216.144.36.36.36h3.996c.216 0 .36-.144.36-.36V10.08c0-.216-.144-.36-.36-.36h-3.996c-.216 0-.36.144-.36.36zm8.028 0c0 .216.144.36.36.36h10.764c.216 0 .36-.144.36-.36v-3.528c0-.216-.144-.36-.36-.36h-6.192c-.144 0-.216-.072-.216-.216V10.08c0-.216-.144-.36-.36-.36h-3.996c-.216 0-.36.144-.36.36z" fill="#fff"/></svg>