<svg width="273" height="50" viewBox="0 0 273 50" xmlns="http://www.w3.org/2000/svg"><path d="M74.76 33.84c0 .216.144.36.36.36h3.492c.216 0 .36-.144.36-.36V19.692h.216l2.664 9.792c.072.216.216.36.468.36h1.98c.252 0 .396-.144.468-.36l2.664-9.792h.216V33.84c0 .216.144.36.36.36H91.5c.216 0 .36-.144.36-.36V10.08c0-.216-.144-.36-.36-.36h-3.852c-.324 0-.504.108-.576.36l-3.6 12.852h-.144L79.584 10.08c-.072-.252-.252-.36-.576-.36H75.12c-.216 0-.36.144-.36.36zm19.08 0c-.036.216.072.36.288.36h3.996c.252 0 .36-.144.396-.36l.828-4.428h4.644l.792 4.428c.036.216.144.36.396.36h3.996c.216 0 .324-.144.288-.36l-5.256-23.76c-.036-.216-.18-.36-.396-.36h-4.248c-.216 0-.324.144-.396.36zm6.192-8.172l1.62-8.496h.108l1.548 8.496zm11.412 8.172c0 .216.144.36.36.36h10.764c.216 0 .36-.144.36-.36v-3.528c0-.216-.144-.36-.36-.36h-6.192c-.144 0-.216-.072-.216-.216V10.08c0-.216-.144-.36-.36-.36h-3.996c-.216 0-.36.144-.36.36zm13.86 0c0 .216.144.36.36.36h10.764c.216 0 .36-.144.36-.36v-3.528c0-.216-.144-.36-.36-.36h-6.192c-.144 0-.216-.072-.216-.216V10.08c0-.216-.144-.36-.36-.36h-3.996c-.216 0-.36.144-.36.36zm19.404.684c3.204 0 5.364-1.44 6.264-4.14.396-1.116.504-2.124.504-8.424 0-6.3-.108-7.308-.504-8.424-.9-2.7-3.06-4.14-6.264-4.14s-5.364 1.44-6.264 4.14c-.396 1.116-.504 2.124-.504 8.424 0 6.3.108 7.308.504 8.424.9 2.7 3.06 4.14 6.264 4.14zm0-4.248c-.9 0-1.512-.504-1.728-1.188-.18-.576-.252-1.188-.252-7.128s.072-6.552.252-7.128c.216-.684.828-1.188 1.728-1.188s1.512.504 1.728 1.188c.18.576.252 1.188.252 7.128s-.072 6.552-.252 7.128c-.216.684-.828 1.188-1.728 1.188zm23.508 3.924c.18 0 .252-.18.18-.36l-3.348-10.368c1.692-1.152 2.736-3.168 2.736-6.264 0-5.436-2.808-7.488-7.164-7.488h-5.832c-.216 0-.36.144-.36.36v23.76c0 .216.144.36.36.36h3.996c.216 0 .36-.144.36-.36v-9c0-.144.072-.216.216-.216h1.368l2.772 9.288c.072.216.18.288.396.288zm-7.812-13.644h-1.044c-.144 0-.216-.072-.216-.216v-6.264c0-.144.072-.216.216-.216h1.044c1.836 0 2.628.792 2.628 3.348 0 2.592-.792 3.348-2.628 3.348zm10.404 9.9c.864 2.628 2.844 4.068 6.084 4.068 3.924 0 6.228-2.088 6.444-6.192 0-.216-.072-.396-.324-.432l-3.78-.648c-.216-.036-.396.072-.396.324-.072 1.944-.684 2.7-1.872 2.7-.864 0-1.368-.36-1.62-1.116-.144-.54-.216-.972-.216-7.2s.072-6.66.216-7.2c.252-.756.756-1.116 1.62-1.116 1.188 0 1.8.756 1.872 2.7 0 .252.18.36.396.324l3.78-.648c.252-.036.324-.216.324-.432-.216-4.104-2.52-6.192-6.444-6.192-3.24 0-5.22 1.44-6.084 4.068-.324 1.044-.468 2.16-.468 8.496s.144 7.452.468 8.496zm13.14 3.384c-.036.216.072.36.288.36h3.996c.252 0 .36-.144.396-.36l.828-4.428h4.644l.792 4.428c.036.216.144.36.396.36h3.996c.216 0 .324-.144.288-.36l-5.256-23.76c-.036-.216-.18-.36-.396-.36h-4.248c-.216 0-.324.144-.396.36zm6.192-8.172l1.62-8.496h.108l1.548 8.496z" fill="#fff"/></svg>