<svg width="273" height="50" viewBox="0 0 273 50" xmlns="http://www.w3.org/2000/svg"><path d="M89.772 34.2c.216 0 .36-.144.36-.36V14.184c0-.144.072-.216.216-.216H94.2c.216 0 .36-.144.36-.36V10.08c0-.216-.144-.36-.36-.36H81.348c-.216 0-.36.144-.36.36v3.528c0 .216.144.36.36.36H85.2c.144 0 .216.072.216.216V33.84c0 .216.144.36.36.36zm6.948-.36c0 .216.144.36.36.36h10.692c.216 0 .36-.144.36-.36v-3.528c0-.216-.144-.36-.36-.36h-6.12c-.144 0-.216-.072-.216-.216v-5.544c0-.144.072-.216.216-.216h5.292c.216 0 .36-.144.36-.36v-3.528c0-.216-.144-.36-.36-.36h-5.292c-.144 0-.216-.072-.216-.216v-5.328c0-.144.072-.216.216-.216h6.12c.216 0 .36-.144.36-.36V10.08c0-.216-.144-.36-.36-.36H97.08c-.216 0-.36.144-.36.36zm14.04 0c0 .216.144.36.36.36h3.42c.216 0 .36-.144.36-.36V18.468h.18l4.248 15.372c.072.252.216.36.504.36h4.32c.216 0 .36-.144.36-.36V10.08c0-.216-.144-.36-.36-.36h-3.42c-.216 0-.36.144-.36.36v15.372h-.18l-4.068-15.372c-.072-.252-.216-.36-.504-.36h-4.5c-.216 0-.36.144-.36.36zm17.064 0c0 .216.144.36.36.36h10.692c.216 0 .36-.144.36-.36v-3.528c0-.216-.144-.36-.36-.36h-6.12c-.144 0-.216-.072-.216-.216v-5.544c0-.144.072-.216.216-.216h5.292c.216 0 .36-.144.36-.36v-3.528c0-.216-.144-.36-.36-.36h-5.292c-.144 0-.216-.072-.216-.216v-5.328c0-.144.072-.216.216-.216h6.12c.216 0 .36-.144.36-.36V10.08c0-.216-.144-.36-.36-.36h-10.692c-.216 0-.36.144-.36.36zm27.828.36c.18 0 .252-.18.18-.36l-3.348-10.368c1.692-1.152 2.736-3.168 2.736-6.264 0-5.436-2.808-7.488-7.164-7.488h-5.832c-.216 0-.36.144-.36.36v23.76c0 .216.144.36.36.36h3.996c.216 0 .36-.144.36-.36v-9c0-.144.072-.216.216-.216h1.368l2.772 9.288c.072.216.18.288.396.288zm-7.812-13.644h-1.044c-.144 0-.216-.072-.216-.216v-6.264c0-.144.072-.216.216-.216h1.044c1.836 0 2.628.792 2.628 3.348 0 2.592-.792 3.348-2.628 3.348zm10.368 13.284c0 .216.144.36.36.36h3.996c.216 0 .36-.144.36-.36V10.08c0-.216-.144-.36-.36-.36h-3.996c-.216 0-.36.144-.36.36zm8.028 0c0 .216.144.36.36.36h3.996c.216 0 .36-.144.36-.36v-9.396c0-.144.072-.216.216-.216h5.292c.216 0 .36-.144.36-.36v-3.564c0-.216-.144-.36-.36-.36h-5.292c-.144 0-.216-.072-.216-.216v-5.544c0-.144.072-.216.216-.216h6.12c.216 0 .36-.144.36-.36V10.08c0-.216-.144-.36-.36-.36h-10.692c-.216 0-.36.144-.36.36zm13.896 0c0 .216.144.36.36.36h10.692c.216 0 .36-.144.36-.36v-3.528c0-.216-.144-.36-.36-.36h-6.12c-.144 0-.216-.072-.216-.216v-5.544c0-.144.072-.216.216-.216h5.292c.216 0 .36-.144.36-.36v-3.528c0-.216-.144-.36-.36-.36h-5.292c-.144 0-.216-.072-.216-.216v-5.328c0-.144.072-.216.216-.216h6.12c.216 0 .36-.144.36-.36V10.08c0-.216-.144-.36-.36-.36h-10.692c-.216 0-.36.144-.36.36z" fill="#fff"/></svg>