<svg width="180" height="56" viewBox="0 0 180 56" xmlns="http://www.w3.org/2000/svg"><path d="M39.44 37.52c-.12.28 0 .48.28.48h4.24c.32 0 .48-.12.6-.4l4.6-11.12c1-2.4 1.4-4 1.4-7.72 0-2.52-.12-3.44-.36-4.24-.84-2.6-3-4.08-6.32-4.08-3.32 0-5.48 1.48-6.32 4.08-.24.8-.36 1.72-.36 4.24 0 2.56.16 3.68.44 4.48.8 2.4 2.24 3.8 4.88 3.8.56 0 1-.08 1.2-.2 0 .04.08.08.08.08zm4.44-14.8c-.8 0-1.28-.36-1.52-1.08-.12-.32-.16-.72-.16-2.88s.04-2.52.16-2.84c.24-.72.72-1.08 1.52-1.08s1.28.36 1.52 1.08c.12.32.16.68.16 2.84 0 2.16-.04 2.56-.16 2.88-.24.72-.72 1.08-1.52 1.08zm10.32 11.6c.84 2.56 2.96 4.04 6.24 4.04 3.36 0 5.44-1.44 6.28-4 .24-.76.36-1.8.36-4.24 0-2.48-.08-3.16-.28-3.8-.36-1.16-1.04-1.88-2.08-2.48v-.08c1-.6 1.72-1.36 2.08-2.48.2-.64.28-1.36.28-3.16 0-1.88-.12-2.92-.36-3.68-.84-2.56-2.88-4-6.28-4-3.28 0-5.4 1.48-6.24 4.04-.24.8-.36 1.72-.36 2.96 0 .28.12.44.4.48l4 .4c.28.04.48-.08.48-.4 0-1.32.04-1.68.12-2 .24-.72.72-1.08 1.56-1.08.8 0 1.28.32 1.52 1.04.12.32.16.72.16 2.24 0 2-.04 2.36-.16 2.64-.24.72-.8.96-1.72.96h-.64c-.24 0-.4.16-.4.4v3.72c0 .24.16.4.4.4h.6c.96 0 1.52.24 1.76 1 .12.28.16.68.16 2.84 0 2.12-.04 2.52-.16 2.84-.24.72-.72 1.04-1.52 1.04-.84 0-1.32-.36-1.56-1.08-.08-.32-.12-.68-.12-2 0-.32-.2-.44-.48-.4l-4 .4c-.28.04-.4.2-.4.48 0 1.24.12 2.16.36 2.96zm16.36 3.28c0 .24.16.4.4.4h4.08c.24 0 .4-.16.4-.4v-4.64c0-.24-.16-.4-.4-.4h-4.08c-.24 0-.4.16-.4.4zm10.48-.08c-.12.28 0 .48.28.48h4.24c.32 0 .48-.12.6-.4l4.6-11.12c1-2.4 1.4-4 1.4-7.72 0-2.52-.12-3.44-.36-4.24-.84-2.6-3-4.08-6.32-4.08-3.32 0-5.48 1.48-6.32 4.08-.24.8-.36 1.72-.36 4.24 0 2.56.16 3.68.44 4.48.8 2.4 2.24 3.8 4.88 3.8.56 0 1-.08 1.2-.2 0 .04.08.08.08.08zm4.44-14.8c-.8 0-1.28-.36-1.52-1.08-.12-.32-.16-.72-.16-2.88s.04-2.52.16-2.84c.24-.72.72-1.08 1.52-1.08s1.28.36 1.52 1.08c.12.32.16.68.16 2.84 0 2.16-.04 2.56-.16 2.88-.24.72-.72 1.08-1.52 1.08zm10.36 11.56c.84 2.64 3.08 4.08 6.28 4.08s5.48-1.4 6.28-4.08c.32-1 .44-2.08.44-9.88 0-7.8-.12-8.88-.44-9.88-.8-2.68-3.08-4.08-6.28-4.08s-5.4 1.44-6.24 4.08c-.32 1-.48 2.08-.48 9.88 0 7.8.12 8.88.44 9.88zm4.76-1.36c-.12-.4-.16-.88-.16-8.52s.04-8.12.16-8.52c.2-.64.72-1.04 1.52-1.04s1.32.4 1.52 1.04c.12.4.16.88.16 8.52s-.04 8.12-.16 8.52c-.2.64-.68 1.04-1.52 1.04-.8 0-1.32-.4-1.52-1.04zm11.88 1.36c.84 2.64 3.08 4.08 6.28 4.08s5.48-1.4 6.28-4.08c.32-1 .44-2.08.44-9.88 0-7.8-.12-8.88-.44-9.88-.8-2.68-3.08-4.08-6.28-4.08s-5.4 1.44-6.24 4.08c-.32 1-.48 2.08-.48 9.88 0 7.8.12 8.88.44 9.88zm4.76-1.36c-.12-.4-.16-.88-.16-8.52s.04-8.12.16-8.52c.2-.64.72-1.04 1.52-1.04s1.32.4 1.52 1.04c.12.4.16.88.16 8.52s-.04 8.12-.16 8.52c-.2.64-.68 1.04-1.52 1.04-.8 0-1.32-.4-1.52-1.04zm19.48 4.68c0 .24.16.4.4.4h4.44c.24 0 .4-.16.4-.4v-7.36l1.6-3.36 4 10.84c.04.2.16.28.4.28h4.76c.2 0 .32-.2.24-.4l-6.12-15.84 5.44-10.56c.12-.2 0-.4-.2-.4h-4.64c-.24 0-.4.08-.52.32l-4.96 10.52V11.2c0-.24-.16-.4-.4-.4h-4.44c-.24 0-.4.16-.4.4zm33.96.4c.2 0 .28-.2.2-.4l-3.72-11.52c1.88-1.28 3.04-3.52 3.04-6.96 0-6.04-3.12-8.32-7.96-8.32h-6.48c-.24 0-.4.16-.4.4v26.4c0 .24.16.4.4.4h4.44c.24 0 .4-.16.4-.4v-10c0-.16.08-.24.24-.24h1.52l3.08 10.32c.08.24.2.32.44.32zM162 22.84h-1.16c-.16 0-.24-.08-.24-.24v-6.96c0-.16.08-.24.24-.24H162c2.04 0 2.92.88 2.92 3.72 0 2.88-.88 3.72-2.92 3.72zm11.4 14.76c0 .24.16.4.4.4h4.08c.24 0 .4-.16.4-.4v-4.64c0-.24-.16-.4-.4-.4h-4.08c-.24 0-.4.16-.4.4z" fill="#fff"/></svg>