<svg width="273" height="50" viewBox="0 0 273 50" xmlns="http://www.w3.org/2000/svg"><path d="M49.056 30.456c.864 2.628 2.844 4.068 6.084 4.068 3.924 0 6.228-2.088 6.444-6.192 0-.216-.072-.396-.324-.432l-3.78-.648c-.216-.036-.396.072-.396.324-.072 1.944-.684 2.7-1.872 2.7-.864 0-1.368-.36-1.62-1.116-.144-.54-.216-.972-.216-7.2s.072-6.66.216-7.2c.252-.756.756-1.116 1.62-1.116 1.188 0 1.8.756 1.872 2.7 0 .252.18.36.396.324l3.78-.648c.252-.036.324-.216.324-.432-.216-4.104-2.52-6.192-6.444-6.192-3.24 0-5.22 1.44-6.084 4.068-.324 1.044-.468 2.16-.468 8.496s.144 7.452.468 8.496zm21.168 4.068c3.204 0 5.364-1.44 6.264-4.14.396-1.116.504-2.124.504-8.424 0-6.3-.108-7.308-.504-8.424-.9-2.7-3.06-4.14-6.264-4.14s-5.364 1.44-6.264 4.14c-.396 1.116-.504 2.124-.504 8.424 0 6.3.108 7.308.504 8.424.9 2.7 3.06 4.14 6.264 4.14zm0-4.248c-.9 0-1.512-.504-1.728-1.188-.18-.576-.252-1.188-.252-7.128s.072-6.552.252-7.128c.216-.684.828-1.188 1.728-1.188s1.512.504 1.728 1.188c.18.576.252 1.188.252 7.128s-.072 6.552-.252 7.128c-.216.684-.828 1.188-1.728 1.188zm22.392-3.348c0-4.14-1.296-5.94-4.644-7.236l-1.476-.576c-1.908-.756-2.304-1.332-2.304-3.168 0-1.656.612-2.448 1.872-2.448 1.296 0 1.908.9 1.944 2.664 0 .216.18.324.396.288l3.672-.576c.216-.036.324-.18.324-.396-.18-3.852-2.196-6.084-6.48-6.084-4.356 0-6.48 2.376-6.48 6.804 0 3.924 1.188 5.76 4.644 7.092l1.476.576c1.836.72 2.268 1.476 2.268 3.636 0 2.232-.612 2.916-1.944 2.916-1.404 0-2.052-.9-2.124-3.168 0-.216-.144-.324-.396-.288l-3.852.612c-.216.036-.288.18-.288.396.072 4.212 2.196 6.552 6.624 6.552 4.86 0 6.768-2.592 6.768-7.596zm9.756 7.272c.216 0 .36-.144.36-.36V14.184c0-.144.072-.216.216-.216h3.852c.216 0 .36-.144.36-.36V10.08c0-.216-.144-.36-.36-.36H93.948c-.216 0-.36.144-.36.36v3.528c0 .216.144.36.36.36H97.8c.144 0 .216.072.216.216V33.84c0 .216.144.36.36.36zm3.816-.36c-.036.216.072.36.288.36h3.996c.252 0 .36-.144.396-.36l.828-4.428h4.644l.792 4.428c.036.216.144.36.396.36h3.996c.216 0 .324-.144.288-.36l-5.256-23.76c-.036-.216-.18-.36-.396-.36h-4.248c-.216 0-.324.144-.396.36zm6.192-8.172l1.62-8.496h.108l1.548 8.496zm18.432 8.172c0 .216.144.36.36.36h6.192c3.384 0 5.364-1.296 6.264-4.068.432-1.368.648-3.024.648-8.172 0-5.148-.216-6.804-.648-8.172-.9-2.772-2.88-4.068-6.264-4.068h-6.192c-.216 0-.36.144-.36.36zm4.716-4.104V14.184c0-.144.072-.216.216-.216h1.152c1.188 0 1.836.432 2.196 1.512.288.756.396 1.8.396 6.48 0 4.68-.108 5.724-.396 6.48-.36 1.08-1.008 1.512-2.196 1.512h-1.152c-.144 0-.216-.072-.216-.216zm11.7 4.104c0 .216.144.36.36.36h10.692c.216 0 .36-.144.36-.36v-3.528c0-.216-.144-.36-.36-.36h-6.12c-.144 0-.216-.072-.216-.216v-5.544c0-.144.072-.216.216-.216h5.292c.216 0 .36-.144.36-.36v-3.528c0-.216-.144-.36-.36-.36h-5.292c-.144 0-.216-.072-.216-.216v-5.328c0-.144.072-.216.216-.216h6.12c.216 0 .36-.144.36-.36V10.08c0-.216-.144-.36-.36-.36h-10.692c-.216 0-.36.144-.36.36zm14.04 0c0 .216.144.36.36.36h10.764c.216 0 .36-.144.36-.36v-3.528c0-.216-.144-.36-.36-.36H166.2c-.144 0-.216-.072-.216-.216V10.08c0-.216-.144-.36-.36-.36h-3.996c-.216 0-.36.144-.36.36zm33.552-6.912c0-4.14-1.296-5.94-4.644-7.236l-1.476-.576c-1.908-.756-2.304-1.332-2.304-3.168 0-1.656.612-2.448 1.872-2.448 1.296 0 1.908.9 1.944 2.664 0 .216.18.324.396.288l3.672-.576c.216-.036.324-.18.324-.396-.18-3.852-2.196-6.084-6.48-6.084-4.356 0-6.48 2.376-6.48 6.804 0 3.924 1.188 5.76 4.644 7.092l1.476.576c1.836.72 2.268 1.476 2.268 3.636 0 2.232-.612 2.916-1.944 2.916-1.404 0-2.052-.9-2.124-3.168 0-.216-.144-.324-.396-.288l-3.852.612c-.216.036-.288.18-.288.396.072 4.212 2.196 6.552 6.624 6.552 4.86 0 6.768-2.592 6.768-7.596zm8.964 7.596c3.204 0 5.364-1.44 6.264-4.14.396-1.116.504-2.124.504-8.424 0-6.3-.108-7.308-.504-8.424-.9-2.7-3.06-4.14-6.264-4.14s-5.364 1.44-6.264 4.14c-.396 1.116-.504 2.124-.504 8.424 0 6.3.108 7.308.504 8.424.9 2.7 3.06 4.14 6.264 4.14zm0-4.248c-.9 0-1.512-.504-1.728-1.188-.18-.576-.252-1.188-.252-7.128s.072-6.552.252-7.128c.216-.684.828-1.188 1.728-1.188s1.512.504 1.728 1.188c.18.576.252 1.188.252 7.128s-.072 6.552-.252 7.128c-.216.684-.828 1.188-1.728 1.188zm9.72 3.564c0 .216.144.36.36.36h10.764c.216 0 .36-.144.36-.36v-3.528c0-.216-.144-.36-.36-.36h-6.192c-.144 0-.216-.072-.216-.216V10.08c0-.216-.144-.36-.36-.36h-3.996c-.216 0-.36.144-.36.36z" fill="#fff"/></svg>