<svg width="89.333" height="34" viewBox="0 0 89.333 34" xmlns="http://www.w3.org/2000/svg"><path d="M17.57 14.224v6.024l.48 1.8-2.807.72-.24-.768q-1.032.792-2.616.792-1.848 0-3.12-1.044t-1.272-2.844q0-1.68 1.068-2.664 1.068-.984 3.252-1.104h1.8q.408-.024.408-.312v-.336q0-.504-.384-.804-.384-.3-.96-.3-1.512 0-2.016 1.128l-2.76-.96q.96-3.072 4.776-3.072 1.704 0 3.048 1.044t1.344 2.7zm-3.047 5.112v-2.04q-.24.168-.6.168h-1.344q-1.656.048-1.656 1.44 0 .552.492.864.492.312 1.044.312 1.128 0 2.064-.744zM10.37 9.592l2.064-3.912h3.264l-3.096 3.912H10.37zm33.48 6.216v6.672h-3.288v-6.672q0-1.08-.324-1.644-.324-.564-1.332-.564-.432 0-.744.192t-.456.42q-.144.228-.216.684-.072.456-.084.696-.012.24-.012.744v6.144h-3.288v-6.672q0-1.056-.324-1.632-.324-.576-1.308-.576-.672 0-1.08.444-.408.444-.408 1.116v7.32h-3.288V10.624h2.688l.12.48q.96-.744 1.968-.744 1.104 0 1.836.252t1.62.948q1.368-1.2 2.976-1.2 2.448 0 3.696 1.488 1.248 1.488 1.248 3.96zm11.736-1.584v6.024l.48 1.8-2.808.72-.24-.768q-1.032.792-2.616.792-1.848 0-3.12-1.044t-1.272-2.844q0-1.68 1.068-2.664 1.068-.984 3.252-1.104h1.8q.408-.024.408-.312v-.336q0-.504-.384-.804-.384-.3-.96-.3-1.512 0-2.016 1.128l-2.76-.96q.96-3.072 4.776-3.072 1.704 0 3.048 1.044t1.344 2.7zm-3.048 5.112v-2.04q-.24.168-.6.168h-1.344q-1.656.048-1.656 1.44 0 .552.492.864.492.312 1.044.312 1.128 0 2.064-.744zm15.888-3.528v6.672h-3.264v-6.6q0-1.104-.372-1.692-.372-.588-1.404-.588-.696 0-1.152.492-.456.492-.456 1.212v7.176h-3.264V10.624h2.664l.12.48q.912-.744 2.232-.744 4.896 0 4.896 5.448zm12.432 0v6.672h-3.264v-6.6q0-1.104-.372-1.692-.372-.588-1.404-.588-.696 0-1.152.492-.456.492-.456 1.212v7.176h-3.264V10.624h2.664l.12.48q.912-.744 2.232-.744 4.896 0 4.896 5.448z" fill="#fff"/></svg>