<svg width="353.304" height="39" viewBox="0 0 353.304 39" xmlns="http://www.w3.org/2000/svg"><path d="M15.88 6.515h12.844v3.853H19.76v3.58h7.98v3.69h-7.98v7.952h-3.88V6.515zm24.977 9.674v6.86l.547 2.05-3.197.819-.274-.875q-1.175.902-2.978.902-2.105 0-3.553-1.189-1.449-1.188-1.449-3.238 0-1.913 1.217-3.033 1.216-1.12 3.703-1.257h2.05q.464-.028.464-.356v-.382q0-.574-.437-.916-.438-.341-1.094-.341-1.721 0-2.295 1.284l-3.143-1.093q1.093-3.498 5.438-3.498 1.94 0 3.471 1.189 1.53 1.188 1.53 3.074zm-3.47 5.821v-2.323q-.273.191-.683.191h-1.53q-1.886.055-1.886 1.64 0 .629.56.984t1.189.355q1.284 0 2.35-.847zm15.386-9.237l-1.367 2.87q-.902-.383-1.585-.383-.929 0-1.435.505-.505.506-.505 1.38v8.445h-3.69v-13.5h3.007l.136.574q1.066-.93 2.487-.93 1.503 0 2.952 1.039zm11.45 3.416v6.86l.547 2.05-3.198.819-.273-.875q-1.175.902-2.979.902-2.104 0-3.552-1.189-1.449-1.188-1.449-3.238 0-1.913 1.216-3.033 1.216-1.12 3.703-1.257h2.05q.465-.028.465-.356v-.382q0-.574-.438-.916-.437-.341-1.093-.341-1.722 0-2.295 1.284l-3.143-1.093q1.093-3.498 5.438-3.498 1.94 0 3.47 1.189 1.531 1.188 1.531 3.074zm-3.47 5.821v-2.323q-.274.191-.684.191h-1.53q-1.886.055-1.886 1.64 0 .629.56.984t1.19.355q1.284 0 2.35-.847zm15.385-9.237l-1.366 2.87q-.902-.383-1.585-.383-.93 0-1.435.505-.505.506-.505 1.38v8.445h-3.69v-13.5h3.006l.137.574q1.066-.93 2.487-.93 1.503 0 2.951 1.039zm11.997 8.69q0 2.05-1.626 3.225-1.626 1.175-3.757 1.175-4.728 0-5.603-3.716l3.225-.875q.52 1.285 2.323 1.285 1.75 0 1.75-.93 0-.519-.739-.874-.738-.355-1.803-.629-1.066-.273-2.118-.67-1.052-.395-1.79-1.284-.738-.888-.738-2.2 0-2.022 1.435-3.088 1.434-1.065 3.539-1.065 1.913 0 3.06.587 1.148.588 2.16 2.118l-2.843 1.585q-.792-1.066-2.022-1.066-1.585 0-1.585.93 0 .464.738.751t1.776.547q1.038.26 2.09.642 1.053.382 1.79 1.284.738.902.738 2.268zm6.887-9.373h1.722v3.115h-1.722v6.231q0 1.039 1.203 1.039v3.115h-1.449q-1.64 0-2.5-1.08-.861-1.079-.861-2.746v-6.559h-1.503V12.09h1.503V8.482h3.607v3.608zm8.335-5.725q.629.614.629 1.489 0 .874-.629 1.49-.628.614-1.503.614-.874 0-1.49-.628-.614-.629-.614-1.476 0-.875.615-1.49.615-.614 1.49-.614.874 0 1.502.615zm-3.306 5.725h3.58v14.347q0 2.077-1.148 3.362-1.148 1.284-3.225 1.557l-1.175-3.142q1.968-.465 1.968-2.132V12.09zm17.134 1.667q1.504 1.913 1.504 5.11 0 3.198-1.504 5.097-1.503 1.9-4.618 1.9t-4.619-1.9q-1.503-1.9-1.503-5.097 0-3.197 1.503-5.11 1.504-1.913 4.619-1.913 3.115 0 4.618 1.913zm-2.76 7.57q.492-.93.492-2.46 0-1.53-.492-2.473-.492-.943-1.858-.943-1.394 0-1.872.93-.478.929-.478 2.486 0 1.558.478 2.473.478.916 1.872.916 1.366 0 1.858-.93zm-4.891-10.412l2.35-4.455h3.716l-3.525 4.455h-2.541zm20.468 1.858l-1.366 2.87q-.902-.383-1.585-.383-.93 0-1.435.505-.505.506-.505 1.38v8.445h-3.69v-13.5h3.006l.137.574q1.066-.93 2.487-.93 1.503 0 2.951 1.039zm13.747 5.22v7.597h-3.717v-7.515q0-1.257-.424-1.927-.423-.67-1.598-.67-.793 0-1.312.56-.52.561-.52 1.38v8.172h-3.716v-13.5h3.033l.137.546q1.039-.847 2.542-.847 5.575 0 5.575 6.204zm21.398-4.236q1.503 1.913 1.503 5.11 0 3.198-1.503 5.097-1.503 1.9-4.619 1.9-3.115 0-4.618-1.9-1.503-1.9-1.503-5.097 0-3.197 1.503-5.11 1.503-1.913 4.618-1.913 3.116 0 4.619 1.913zm-2.76 7.57q.491-.93.491-2.46 0-1.53-.492-2.473-.491-.943-1.858-.943-1.394 0-1.872.93-.478.929-.478 2.486 0 1.558.478 2.473.478.916 1.872.916 1.367 0 1.858-.93zm16.724-4.373q0 2.296-1.475 3.594-1.476 1.298-3.88 1.298-.766 0-1.422-.273-.492.382-.492.902 0 .355.547.355.71 0 2.09-.314 1.38-.315 2.09-.315 1.559 0 2.556.957.998.956.998 2.487 0 2.405-1.913 3.88-1.913 1.476-4.4 1.476-2.323 0-4.031-1.025-1.708-1.025-1.708-3.184 0-.71.246-1.366l3.252.984q-.028.11-.028.3 0 .465.547.711.547.246 1.34.246 1.202 0 2.213-.506 1.01-.505 1.01-1.352 0-.301-.218-.465-.218-.164-.519-.164-.547 0-1.599.191-1.052.192-1.571.192-1.53 0-2.706-.684-1.175-.683-1.175-2.104 0-1.202.902-2.377-1.148-1.34-1.148-3.471 0-2.405 1.408-3.73 1.407-1.326 3.84-1.326 1.83 0 3.033.71.164-.382.11-1.038h3.06q0 2.514-1.23 3.389.273 1.011.273 2.022zm-3.525-.027q0-.765-.465-1.189-.464-.423-1.257-.423-.765 0-1.243.423-.478.424-.478 1.189 0 1.64 1.721 1.64 1.722 0 1.722-1.64zm27 1.749q0 3.197-1.462 5.233-1.462 2.036-4.413 2.036-1.039 0-1.858-.355v5.63h-3.8V6.515h3.8v5.247q.929-.355 1.858-.355 1.558 0 2.733.614 1.175.615 1.844 1.668.67 1.052.984 2.309.314 1.257.314 2.678zm-3.826 0q0-1.558-.41-2.487-.41-.93-1.64-.93-.874 0-1.366.465-.491.465-.491 1.23v3.47q0 .82.532 1.258.533.437 1.326.437.683 0 1.134-.314.45-.314.629-.902.177-.587.232-1.066.054-.478.054-1.161zm10.167-12.311q.628.614.628 1.489 0 .874-.628 1.49-.629.614-1.503.614-.875 0-1.49-.628-.615-.629-.615-1.476 0-.875.615-1.49.615-.614 1.49-.614.874 0 1.503.615zm-3.307 5.725h3.58v14.347q0 2.077-1.148 3.362-1.148 1.284-3.225 1.557l-1.175-3.142q1.968-.465 1.968-2.132V12.09zm17.135 1.667q1.503 1.913 1.503 5.11 0 3.198-1.503 5.097-1.503 1.9-4.619 1.9-3.115 0-4.618-1.9-1.503-1.9-1.503-5.097 0-3.197 1.503-5.11 1.503-1.913 4.618-1.913 3.116 0 4.619 1.913zm-2.76 7.57q.491-.93.491-2.46 0-1.53-.491-2.473-.492-.943-1.859-.943-1.393 0-1.872.93-.478.929-.478 2.486 0 1.558.478 2.473.479.916 1.872.916 1.367 0 1.859-.93zm-4.892-10.412l2.35-4.455h3.717l-3.526 4.455h-2.541zm23.174 7.078v7.597h-3.716v-7.515q0-1.257-.424-1.927-.424-.67-1.599-.67-.792 0-1.311.56-.52.561-.52 1.38v8.172h-3.716v-13.5h3.033l.137.546q1.038-.847 2.541-.847 5.575 0 5.575 6.204zm10.576-5.903h3.717v13.5h-3.034l-.136-.574q-1.175.82-2.46.82-2.787 0-4.222-1.558-1.435-1.557-1.435-4.345V12.09H245v7.597q0 1.257.41 1.9.41.642 1.612.642.793 0 1.312-.52.52-.519.52-1.339v-8.28zm17.49 9.373q0 2.05-1.626 3.225-1.626 1.175-3.757 1.175-4.728 0-5.603-3.716l3.225-.875q.52 1.285 2.323 1.285 1.75 0 1.75-.93 0-.519-.739-.874-.738-.355-1.803-.629-1.066-.273-2.118-.67-1.053-.395-1.79-1.284-.738-.888-.738-2.2 0-2.022 1.434-3.088 1.435-1.065 3.54-1.065 1.912 0 3.06.587 1.148.588 2.16 2.118l-2.843 1.585q-.792-1.066-2.022-1.066-1.585 0-1.585.93 0 .464.738.751.737.287 1.776.547 1.038.26 2.09.642 1.053.382 1.79 1.284.738.902.738 2.268zm6.887-9.373h1.722v3.115h-1.722v6.231q0 1.039 1.203 1.039v3.115h-1.449q-1.64 0-2.5-1.08-.861-1.079-.861-2.746v-6.559h-1.503V12.09h1.503V8.482h3.607v3.608zm12.025 0h3.716v13.5h-3.033l-.137-.574q-1.175.82-2.46.82-2.787 0-4.222-1.558-1.434-1.557-1.434-4.345V12.09h3.716v7.597q0 1.257.41 1.9.41.642 1.613.642.792 0 1.311-.52.52-.519.52-1.339v-8.28zm17.49 9.373q0 2.05-1.626 3.225-1.626 1.175-3.758 1.175-4.728 0-5.602-3.716l3.224-.875q.52 1.285 2.323 1.285 1.75 0 1.75-.93 0-.519-.738-.874t-1.804-.629q-1.066-.273-2.118-.67-1.052-.395-1.79-1.284-.738-.888-.738-2.2 0-2.022 1.435-3.088 1.435-1.065 3.539-1.065 1.913 0 3.06.587 1.148.588 2.16 2.118l-2.843 1.585q-.792-1.066-2.022-1.066-1.585 0-1.585.93 0 .464.738.751t1.776.547q1.039.26 2.09.642 1.053.382 1.79 1.284.739.902.739 2.268zm2.46-9.373h3.607v13.5h-3.608v-13.5zm1.065-1.175l2.35-4.455h3.717l-3.525 4.455h-2.542zm24.35 7.078v7.597h-3.744v-7.597q0-1.23-.37-1.872-.368-.642-1.516-.642-.492 0-.847.218-.355.219-.52.478-.163.26-.245.78-.082.518-.096.792-.014.273-.014.847v6.996h-3.744v-7.597q0-1.203-.369-1.859-.369-.655-1.489-.655-.765 0-1.23.505-.464.506-.464 1.27v8.336h-3.744v-13.5h3.06l.137.546q1.093-.847 2.241-.847 1.257 0 2.09.287.834.287 1.845 1.08 1.558-1.367 3.389-1.367 2.787 0 4.209 1.695 1.42 1.694 1.42 4.509zm6.6-11.628q.614.614.614 1.489 0 .874-.615 1.49-.615.614-1.489.614-.875 0-1.49-.628-.614-.629-.614-1.476 0-.875.615-1.49.614-.614 1.489-.614.874 0 1.49.615zm-3.321 5.725h3.635v13.5h-3.635v-13.5z" fill="#fff"/></svg>