<svg width="197.333" height="49" viewBox="0 0 197.333 49" xmlns="http://www.w3.org/2000/svg"><path d="M50.515 24.878q0 3.57-2.34 5.755-2.34 2.184-5.946 2.184-3.57 0-5.876-2.184-2.305-2.184-2.305-5.72 0-1.734.901-3.242.902-1.508 2.392-2.582-1.005-.659-1.681-1.942-.676-1.282-.676-2.496 0-2.912 2.15-4.818 2.149-1.907 5.095-1.907 2.982 0 5.131 1.907 2.15 1.906 2.15 4.818 0 1.248-.66 2.531-.658 1.283-1.698 1.907 3.363 2.392 3.363 5.789zM44.76 14.825q0-1.04-.745-1.734-.746-.693-1.786-.693t-1.785.693q-.745.694-.745 1.734t.745 1.768q.745.728 1.785.728 1.006 0 1.768-.746.763-.745.763-1.75zm.797 9.88q0-1.387-.97-2.375-.971-.988-2.358-.988-1.352 0-2.305 1.023-.953 1.022-.953 2.374 0 1.318.988 2.271.988.953 2.305.953 1.421 0 2.357-.918.936-.919.936-2.34zm23.816-7.558q0 10.019-6.794 15.323h-6.31q2.011-1.664 3.086-2.635 1.074-.97 2.392-2.721 1.317-1.75 1.941-3.519-.97.694-2.739.694-3.397 0-5.529-2.236t-2.132-5.634q0-3.709 2.167-6.084 2.166-2.374 5.841-2.374 3.71 0 5.893 2.704 2.184 2.704 2.184 6.482zm-5.165-1.109q0-1.352-.867-2.323-.866-.97-2.218-.97-1.352 0-2.219 1.005-.867 1.005-.867 2.357 0 1.422.884 2.41.884.988 2.271.988t2.201-1.023q.815-1.023.815-2.444zM75.7 27.721q.884.866.884 2.114 0 1.248-.884 2.115-.884.867-2.132.867-1.213 0-2.097-.867-.884-.867-.884-2.115 0-1.248.884-2.114.884-.867 2.097-.867 1.248 0 2.132.867zm19.396-10.574q0 10.019-6.795 15.323h-6.309q2.01-1.664 3.085-2.635 1.075-.97 2.392-2.721 1.318-1.75 1.942-3.519-.971.694-2.739.694-3.397 0-5.53-2.236-2.131-2.236-2.131-5.634 0-3.709 2.166-6.084 2.167-2.374 5.842-2.374 3.709 0 5.893 2.704 2.184 2.704 2.184 6.482zm-5.165-1.109q0-1.352-.867-2.323-.867-.97-2.219-.97-1.352 0-2.218 1.005-.867 1.005-.867 2.357 0 1.422.884 2.41.884.988 2.27.988 1.387 0 2.202-1.023t.815-2.444zm26.346 4.264q0 2.219-.468 4.316t-1.456 3.97q-.988 1.871-2.79 3.015-1.803 1.144-4.195 1.144-2.392 0-4.212-1.126-1.82-1.127-2.808-2.999-.988-1.872-1.473-3.952-.486-2.08-.486-4.299 0-1.768.278-3.466.277-1.699.953-3.346.676-1.646 1.681-2.877 1.006-1.23 2.566-1.993 1.56-.763 3.501-.763 2.392 0 4.195 1.127 1.802 1.126 2.79 2.981t1.456 3.935q.468 2.08.468 4.333zm-4.992.07q0-1.18-.138-2.306-.139-1.127-.503-2.444t-1.213-2.115q-.85-.797-2.063-.797-1.248 0-2.115.797-.866.798-1.248 2.098-.381 1.3-.52 2.426-.138 1.127-.138 2.34 0 1.179.138 2.306.139 1.126.52 2.426.382 1.3 1.248 2.098.867.797 2.115.797 1.005 0 1.75-.572.746-.572 1.162-1.37.416-.797.641-1.906.226-1.11.295-1.976.07-.867.07-1.803zm26.347-.07q0 2.219-.468 4.316t-1.456 3.97q-.988 1.871-2.79 3.015-1.803 1.144-4.195 1.144-2.392 0-4.212-1.126-1.82-1.127-2.808-2.999-.988-1.872-1.474-3.952-.485-2.08-.485-4.299 0-1.768.277-3.466.278-1.699.954-3.346.676-1.646 1.681-2.877 1.005-1.23 2.565-1.993 1.56-.763 3.502-.763 2.392 0 4.194 1.127 1.803 1.126 2.791 2.981t1.456 3.935q.468 2.08.468 4.333zm-4.992.07q0-1.18-.139-2.306-.138-1.127-.502-2.444t-1.214-2.115q-.849-.797-2.062-.797-1.248 0-2.115.797-.867.798-1.248 2.098-.381 1.3-.52 2.426-.139 1.127-.139 2.34 0 1.179.139 2.306.139 1.126.52 2.426.381 1.3 1.248 2.098.867.797 2.115.797 1.005 0 1.75-.572.746-.572 1.162-1.37.416-.797.641-1.906.225-1.11.295-1.976.069-.867.069-1.803zm14.265 7.349q.884.866.884 2.114 0 1.248-.884 2.115-.884.867-2.132.867-1.213 0-2.097-.867-.884-.867-.884-2.115 0-1.248.884-2.114.884-.867 2.097-.867 1.248 0 2.132.867zm5.391-6.379h10.296v3.64h-10.296v-3.64z" fill="#fff"/></svg>