<svg width="197.71" height="33" viewBox="0 0 197.71 33" xmlns="http://www.w3.org/2000/svg"><path d="M32.507 22.54c.143 0 .214-.095.238-.237L35.97 6.644c.048-.142-.023-.237-.19-.237h-2.633c-.142 0-.237.071-.261.237l-1.566 10.202h-.071L29.613 6.644c-.024-.166-.119-.237-.261-.237h-2.681c-.166 0-.237.095-.19.237l3.203 15.659c.048.142.119.237.261.237zm4.888-.237c0 .142.095.237.237.237h7.046c.143 0 .238-.095.238-.237v-2.325c0-.143-.095-.238-.238-.238h-4.033c-.095 0-.142-.047-.142-.142v-3.654c0-.094.047-.142.142-.142h3.488c.142 0 .237-.095.237-.237V13.24c0-.143-.095-.238-.237-.238h-3.488c-.095 0-.142-.047-.142-.142V9.35c0-.095.047-.143.142-.143h4.033c.143 0 .238-.094.238-.237V6.644c0-.142-.095-.237-.238-.237h-7.046c-.142 0-.237.095-.237.237zm18.34.237c.118 0 .165-.119.118-.237l-2.206-6.833c1.115-.76 1.803-2.088 1.803-4.128 0-3.583-1.85-4.935-4.722-4.935h-3.843c-.142 0-.237.095-.237.237v15.659c0 .142.095.237.237.237h2.633c.143 0 .238-.095.238-.237V16.37c0-.094.047-.142.142-.142h.902l1.826 6.121c.048.143.119.19.261.19zm-5.149-8.992h-.688c-.095 0-.142-.047-.142-.142V9.278c0-.095.047-.143.142-.143h.688c1.21 0 1.732.522 1.732 2.207 0 1.708-.522 2.206-1.732 2.206zm11.15 8.992c2.231 0 3.536-.854 4.129-2.68.285-.902.427-1.994.427-5.387 0-3.392-.142-4.484-.427-5.385-.593-1.827-1.898-2.681-4.128-2.681h-4.08c-.143 0-.238.095-.238.237v6.5c0 .096-.048.143-.143.143h-.64c-.142 0-.237.095-.237.237v1.756c0 .142.095.237.237.237h.64c.095 0 .143.048.143.143v6.643c0 .142.095.237.237.237zm-.308-2.8h-.759c-.095 0-.142-.047-.142-.142V15.66c0-.095.047-.143.142-.143h1.044c.142 0 .237-.095.237-.237v-1.732c0-.142-.095-.237-.237-.237H60.67c-.095 0-.142-.048-.142-.142v-3.82c0-.095.047-.143.142-.143h.76c.782 0 1.21.285 1.447.997.166.498.26 1.186.26 4.27 0 3.085-.094 3.773-.26 4.271-.238.712-.665.996-1.448.996zm14.14 2.563c0 .142.095.237.238.237h2.491c.142 0 .237-.095.237-.237V6.644c0-.142-.095-.237-.237-.237h-2.349c-.166 0-.26.047-.403.142l-2.088 1.542c-.166.119-.213.214-.213.38v2.562c0 .19.142.238.26.143l2.017-1.4h.048zm9.87 0c0 .142.095.237.238.237h2.49c.143 0 .238-.095.238-.237V6.644c0-.142-.095-.237-.237-.237h-2.35c-.165 0-.26.047-.402.142l-2.088 1.542c-.166.119-.214.214-.214.38v2.562c0 .19.143.238.261.143l2.017-1.4h.047zm7.26-1.97c.498 1.543 1.78 2.42 3.749 2.42s3.25-.877 3.748-2.42c.143-.474.214-1.02.214-2.514 0-1.519-.095-2.183-.261-2.658-.475-1.423-1.329-2.253-2.895-2.253-.332 0-.593.047-.711.118 0-.024-.048-.047-.048-.047l2.586-6.287c.071-.166 0-.285-.166-.285H96.4c-.19 0-.284.071-.356.237l-2.728 6.596c-.593 1.423-.83 2.372-.83 4.579 0 1.494.07 2.04.213 2.515zm2.847-.83c-.071-.19-.095-.403-.095-1.684s.024-1.519.095-1.709c.143-.427.427-.64.902-.64.474 0 .759.213.901.64.071.19.095.428.095 1.709 0 1.28-.024 1.494-.095 1.684-.142.427-.427.64-.901.64-.475 0-.76-.213-.902-.64zm6.857 2.8c0 .142.095.237.237.237h2.42c.142 0 .237-.095.237-.237V19.55c0-.143-.095-.238-.237-.238h-2.42c-.142 0-.237.095-.237.238zm6.216-.048c-.071.166 0 .285.166.285h2.515c.19 0 .284-.071.356-.237l2.728-6.596c.593-1.423.83-2.372.83-4.579 0-1.494-.07-2.04-.213-2.515-.498-1.542-1.78-2.42-3.749-2.42s-3.25.878-3.748 2.42c-.143.475-.214 1.02-.214 2.515 0 1.519.095 2.183.261 2.657.475 1.424 1.329 2.254 2.895 2.254.332 0 .593-.047.711-.118 0 .023.048.047.048.047zm2.633-8.778c-.474 0-.759-.214-.901-.64-.072-.19-.095-.428-.095-1.709 0-1.281.023-1.494.095-1.684.142-.427.427-.64.901-.64.475 0 .76.213.902.64.071.19.095.403.095 1.684s-.024 1.519-.095 1.708c-.143.427-.427.641-.902.641zm6.145 6.857c.498 1.565 1.827 2.42 3.725 2.42 1.898 0 3.25-.83 3.725-2.42.19-.594.26-1.234.26-5.86 0-4.627-.07-5.268-.26-5.86-.475-1.59-1.827-2.42-3.725-2.42-1.898 0-3.203.853-3.701 2.42-.19.592-.285 1.233-.285 5.86 0 4.626.071 5.266.261 5.86zm2.823-.807c-.07-.237-.095-.522-.095-5.054 0-4.531.024-4.816.095-5.053.119-.38.427-.617.902-.617.474 0 .783.237.901.617.072.237.095.522.095 5.053 0 4.532-.023 4.817-.095 5.054-.118.38-.403.617-.901.617-.475 0-.783-.237-.902-.617zm7.047.807c.498 1.565 1.827 2.42 3.725 2.42 1.898 0 3.25-.83 3.724-2.42.19-.594.261-1.234.261-5.86 0-4.627-.07-5.268-.26-5.86-.475-1.59-1.827-2.42-3.725-2.42-1.898 0-3.203.853-3.702 2.42-.19.592-.284 1.233-.284 5.86 0 4.626.07 5.266.26 5.86zm2.823-.807c-.071-.237-.095-.522-.095-5.054 0-4.531.024-4.816.095-5.053.119-.38.427-.617.902-.617.474 0 .782.237.901.617.071.237.095.522.095 5.053 0 4.532-.024 4.817-.095 5.054-.119.38-.403.617-.901.617-.475 0-.783-.237-.902-.617zm11.554 2.776c0 .142.095.237.237.237h2.634c.142 0 .237-.095.237-.237v-4.366l.95-1.993 2.372 6.43c.023.119.095.166.237.166h2.823c.119 0 .19-.119.143-.237l-3.63-9.395 3.226-6.264c.071-.118 0-.237-.118-.237H148c-.142 0-.237.047-.308.19l-2.942 6.24V6.643c0-.142-.095-.237-.237-.237h-2.634c-.142 0-.237.095-.237.237zm20.143.237c.118 0 .166-.119.118-.237l-2.206-6.833c1.115-.76 1.803-2.088 1.803-4.128 0-3.583-1.85-4.935-4.721-4.935h-3.844c-.142 0-.237.095-.237.237v15.659c0 .142.095.237.237.237h2.634c.142 0 .237-.095.237-.237V16.37c0-.094.048-.142.142-.142h.902l1.827 6.121c.047.143.118.19.26.19zm-5.149-8.992h-.688c-.094 0-.142-.047-.142-.142V9.278c0-.095.048-.143.142-.143h.688c1.21 0 1.732.522 1.732 2.207 0 1.708-.522 2.206-1.732 2.206zm6.762 8.755c0 .142.095.237.237.237h2.42c.143 0 .238-.095.238-.237V19.55c0-.143-.095-.238-.238-.238h-2.42c-.142 0-.237.095-.237.238z" fill="#fff"/></svg>