<svg width="259.131" height="31" viewBox="0 0 259.131 31" xmlns="http://www.w3.org/2000/svg"><path d="M23.524 21.066c0 .134.09.224.224.224h2.487c.134 0 .224-.09.224-.224v-5.848c0-.09.045-.135.134-.135h3.294c.135 0 .224-.09.224-.224v-2.218c0-.135-.09-.224-.224-.224h-3.294c-.09 0-.134-.045-.134-.135v-3.45c0-.09.045-.135.134-.135h3.81c.134 0 .224-.09.224-.224V6.277c0-.134-.09-.224-.224-.224h-6.655c-.135 0-.224.09-.224.224zm8.649 0c0 .134.09.224.224.224h6.7c.134 0 .224-.09.224-.224V18.87c0-.134-.09-.224-.224-.224h-3.854c-.09 0-.135-.045-.135-.134V6.277c0-.134-.09-.224-.224-.224h-2.487c-.135 0-.224.09-.224.224zm12.145.426c2.554 0 4.122-1.457 4.122-4.325V6.277c0-.134-.09-.224-.224-.224H45.73c-.134 0-.224.09-.224.224v11.249c0 .806-.426 1.322-1.187 1.322-.74 0-1.166-.516-1.166-1.322V6.277c0-.134-.09-.224-.224-.224h-2.487c-.134 0-.224.09-.224.224v10.89c0 2.868 1.569 4.325 4.1 4.325zm6.206-2.555c.56 1.658 1.882 2.555 3.922 2.555 1.994 0 3.316-.897 3.876-2.577.246-.695.314-1.322.314-5.243v-.673c0-.134-.09-.224-.224-.224h-3.698c-.134 0-.224.09-.224.224v1.972c0 .135.09.224.224.224h.964c.09 0 .134.045.134.135 0 2.24-.044 2.464-.134 2.778-.135.448-.605.74-1.165.74s-1.031-.292-1.165-.74c-.112-.336-.135-.538-.135-4.436 0-3.922.023-4.1.135-4.46.134-.425.582-.716 1.12-.716.762 0 1.21.515 1.277 1.613.023.157.112.224.247.202l2.375-.404c.134-.022.201-.134.179-.269-.202-2.464-1.636-3.786-4.1-3.786-2.04 0-3.362.896-3.922 2.554-.224.717-.291 1.344-.291 5.266 0 3.92.067 4.548.291 5.265zm9.837 4.414c0 .135.09.225.224.225.112 0 .18-.045.247-.135l1.927-2.218c.134-.157.179-.314.179-.605v-2.151c0-.135-.09-.224-.224-.224h-2.129c-.134 0-.224.09-.224.224zm8.582-2.285c0 .134.09.224.224.224h2.487c.135 0 .224-.09.224-.224v-5.848c0-.09.045-.135.135-.135h3.294c.134 0 .224-.09.224-.224v-2.218c0-.135-.09-.224-.224-.224h-3.294c-.09 0-.135-.045-.135-.135v-3.45c0-.09.045-.135.135-.135h3.809c.134 0 .224-.09.224-.224V6.277c0-.134-.09-.224-.224-.224h-6.655c-.134 0-.224.09-.224.224zm6.879 0c-.023.134.045.224.18.224h2.486c.157 0 .224-.09.247-.224l.515-2.756h2.89l.494 2.756c.022.134.09.224.246.224h2.487c.135 0 .202-.09.18-.224L82.275 6.277c-.022-.134-.112-.224-.246-.224h-2.644c-.135 0-.202.09-.247.224zm3.854-5.086l1.008-5.289h.067l.964 5.289zm15.685 5.31c.112 0 .157-.112.112-.224l-2.084-6.453c1.053-.717 1.703-1.972 1.703-3.9 0-3.383-1.748-4.66-4.459-4.66h-3.63c-.134 0-.224.09-.224.224v14.789c0 .134.09.224.224.224h2.487c.135 0 .224-.09.224-.224v-5.602c0-.09.045-.134.135-.134h.851l1.726 5.78c.044.135.112.18.246.18zm-4.862-8.492h-.65c-.09 0-.135-.045-.135-.135V8.764c0-.09.045-.134.135-.134h.65c1.142 0 1.635.493 1.635 2.084 0 1.613-.493 2.084-1.635 2.084zm5.624 8.268c-.023.134.045.224.179.224h2.487c.157 0 .224-.09.247-.224l.515-2.756h2.89l.493 2.756c.023.134.09.224.247.224h2.487c.135 0 .202-.09.18-.224l-3.272-14.789c-.022-.134-.112-.224-.247-.224h-2.644c-.134 0-.201.09-.246.224zm3.854-5.086l1.008-5.289h.067l.964 5.289zm6.811 2.957c.56 1.658 1.883 2.555 3.922 2.555 1.994 0 3.316-.897 3.876-2.577.247-.695.314-1.322.314-5.243v-.673c0-.134-.09-.224-.224-.224h-3.697c-.135 0-.224.09-.224.224v1.972c0 .135.09.224.224.224h.963c.09 0 .135.045.135.135 0 2.24-.045 2.464-.135 2.778-.134.448-.605.74-1.165.74s-1.03-.292-1.165-.74c-.112-.336-.135-.538-.135-4.436 0-3.922.023-4.1.135-4.46.134-.425.582-.716 1.12-.716.762 0 1.21.515 1.277 1.613.023.157.112.224.247.202l2.375-.404c.134-.022.202-.134.18-.269-.202-2.464-1.636-3.786-4.101-3.786-2.04 0-3.361.896-3.922 2.554-.224.717-.29 1.344-.29 5.266 0 3.92.066 4.548.29 5.265zm9.904 2.129c0 .134.09.224.224.224h2.13c.134 0 .223-.09.223-.224v-9.568h.112l2.644 9.568c.045.157.135.224.314.224h2.689c.134 0 .224-.09.224-.224V6.277c0-.134-.09-.224-.224-.224h-2.129c-.134 0-.224.09-.224.224v9.568h-.112l-2.532-9.568c-.045-.157-.134-.224-.314-.224h-2.8c-.135 0-.225.09-.225.224zm10.689-2.129c.56 1.658 1.882 2.555 3.92 2.555 1.995 0 3.317-.897 3.877-2.577.247-.695.314-1.322.314-5.243v-.673c0-.134-.09-.224-.224-.224h-3.697c-.135 0-.224.09-.224.224v1.972c0 .135.09.224.224.224h.963c.09 0 .135.045.135.135 0 2.24-.045 2.464-.135 2.778-.134.448-.605.74-1.165.74s-1.03-.292-1.165-.74c-.112-.336-.135-.538-.135-4.436 0-3.922.023-4.1.135-4.46.134-.425.582-.716 1.12-.716.762 0 1.21.515 1.277 1.613.023.157.112.224.247.202l2.375-.404c.135-.022.202-.134.18-.269-.202-2.464-1.636-3.786-4.101-3.786-2.04 0-3.361.896-3.921 2.554-.224.717-.292 1.344-.292 5.266 0 3.92.068 4.548.292 5.265zm13.96 2.555c2.554 0 4.122-1.457 4.122-4.325V6.277c0-.134-.09-.224-.224-.224h-2.487c-.135 0-.224.09-.224.224v11.249c0 .806-.426 1.322-1.188 1.322-.74 0-1.165-.516-1.165-1.322V6.277c0-.134-.09-.224-.224-.224h-2.487c-.135 0-.224.09-.224.224v10.89c0 2.868 1.568 4.325 4.1 4.325zm14.72-.202c.113 0 .158-.112.113-.224l-2.084-6.453c1.053-.717 1.703-1.972 1.703-3.9 0-3.383-1.748-4.66-4.46-4.66h-3.63c-.134 0-.223.09-.223.224v14.789c0 .134.09.224.224.224h2.487c.134 0 .224-.09.224-.224v-5.602c0-.09.045-.134.135-.134h.851l1.725 5.78c.045.135.112.18.247.18zm-4.862-8.492h-.65c-.09 0-.134-.045-.134-.135V8.764c0-.09.045-.134.135-.134h.65c1.142 0 1.635.493 1.635 2.084 0 1.613-.493 2.084-1.636 2.084zm11.025 5.176c0 2.15 1.411 3.518 3.562 3.518 1.345 0 2.353-.404 3.272-1.48l.201.314c.471.74.852.964 1.748.964h.852c.134 0 .224-.09.224-.224V19.16c0-.134-.09-.224-.224-.224h-.09c-.314 0-.515-.09-.762-.515l-.426-.672 1.502-2.398c.067-.134.045-.246-.067-.314l-1.502-.985c-.134-.09-.246-.045-.313.067l-.942 1.501-1.366-2.173c1.747-1.972 2.285-3.115 2.285-4.258 0-2.039-1.456-3.338-3.518-3.338-2.061 0-3.518 1.322-3.518 3.338 0 1.188.538 2.263 1.457 3.697l.179.314c-1.725 1.905-2.554 3.25-2.554 4.773zm4.347-6.678c-.74-1.254-.897-1.837-.897-2.218 0-.717.359-1.143.986-1.143.628 0 1.009.426 1.009 1.143 0 .672-.202 1.188-1.098 2.218zm-1.726 6.52c0-.739.359-1.41 1.277-2.486l1.636 2.621c-.694.919-1.165 1.143-1.725 1.143-.695 0-1.188-.47-1.188-1.277zm14.05 1.121c.56 1.658 1.882 2.555 3.92 2.555 1.995 0 3.317-.897 3.877-2.577.247-.695.314-1.322.314-5.243v-.673c0-.134-.09-.224-.224-.224h-3.697c-.135 0-.224.09-.224.224v1.972c0 .135.09.224.224.224h.963c.09 0 .135.045.135.135 0 2.24-.045 2.464-.135 2.778-.134.448-.605.74-1.165.74s-1.03-.292-1.165-.74c-.112-.336-.135-.538-.135-4.436 0-3.922.023-4.1.135-4.46.134-.425.582-.716 1.12-.716.762 0 1.21.515 1.277 1.613.023.157.112.224.247.202l2.375-.404c.134-.022.202-.134.18-.269-.202-2.464-1.636-3.786-4.101-3.786-2.04 0-3.361.896-3.921 2.554-.225.717-.292 1.344-.292 5.266 0 3.92.067 4.548.292 5.265zm9.903 2.129c0 .134.09.224.225.224h2.487c.134 0 .224-.09.224-.224V6.277c0-.134-.09-.224-.224-.224h-2.487c-.135 0-.225.09-.225.224zm12.885-4.302c0-2.577-.807-3.697-2.891-4.504l-.919-.359c-1.187-.47-1.434-.829-1.434-1.971 0-1.031.381-1.524 1.165-1.524.807 0 1.188.56 1.21 1.658 0 .134.112.202.247.18l2.285-.36c.135-.022.202-.111.202-.246-.112-2.397-1.367-3.786-4.033-3.786-2.711 0-4.033 1.478-4.033 4.234 0 2.443.739 3.586 2.89 4.415l.919.358c1.143.448 1.411.919 1.411 2.263 0 1.39-.38 1.815-1.21 1.815-.873 0-1.277-.56-1.322-1.972 0-.134-.09-.201-.246-.179l-2.398.381c-.134.023-.179.112-.179.247.045 2.621 1.367 4.078 4.123 4.078 3.025 0 4.213-1.614 4.213-4.728zm6.072 4.526c.134 0 .224-.09.224-.224V8.832c0-.09.045-.135.134-.135h2.398c.134 0 .224-.09.224-.224V6.277c0-.134-.09-.224-.224-.224h-8c-.134 0-.223.09-.223.224v2.196c0 .135.09.224.224.224h2.397c.09 0 .135.045.135.135v12.234c0 .134.09.224.224.224zm4.324-.224c0 .134.09.224.224.224h2.488c.134 0 .224-.09.224-.224V6.277c0-.134-.09-.224-.224-.224h-2.488c-.134 0-.224.09-.224.224zm4.997 0c0 .134.09.224.224.224h2.129c.134 0 .224-.09.224-.224v-9.568h.112l2.644 9.568c.045.157.135.224.314.224h2.689c.134 0 .224-.09.224-.224V6.277c0-.134-.09-.224-.224-.224h-2.129c-.134 0-.224.09-.224.224v9.568h-.112l-2.532-9.568c-.045-.157-.135-.224-.314-.224h-2.8c-.135 0-.225.09-.225.224zm10.688-2.129c.56 1.658 1.883 2.555 3.922 2.555 1.994 0 3.316-.897 3.876-2.577.247-.695.314-1.322.314-5.243v-.673c0-.134-.09-.224-.224-.224h-3.697c-.135 0-.225.09-.225.224v1.972c0 .135.09.224.225.224h.963c.09 0 .134.045.134.135 0 2.24-.044 2.464-.134 2.778-.134.448-.605.74-1.165.74s-1.03-.292-1.165-.74c-.112-.336-.135-.538-.135-4.436 0-3.922.023-4.1.135-4.46.134-.425.582-.716 1.12-.716.762 0 1.21.515 1.277 1.613.023.157.112.224.247.202l2.375-.404c.134-.022.202-.134.18-.269-.203-2.464-1.637-3.786-4.101-3.786-2.04 0-3.361.896-3.922 2.554-.224.717-.29 1.344-.29 5.266 0 3.92.066 4.548.29 5.265z" fill="#fff"/></svg>