<svg width="135.761" height="38" viewBox="0 0 135.761 38" xmlns="http://www.w3.org/2000/svg"><path d="M20.352 25.4c0 .162.108.27.27.27h2.999c.162 0 .27-.108.27-.27v-7.35c0-.108.054-.162.162-.162h2.567c.108 0 .162.054.162.162v7.35c0 .162.108.27.27.27h3c.162 0 .27-.108.27-.27V7.566c0-.162-.108-.27-.27-.27h-3c-.162 0-.27.108-.27.27v6.972c0 .108-.054.162-.162.162h-2.567c-.108 0-.162-.054-.162-.162V7.566c0-.162-.108-.27-.27-.27h-3c-.161 0-.27.108-.27.27zm12.456 0c0 .162.108.27.27.27h8.025c.162 0 .27-.108.27-.27v-2.648c0-.162-.108-.27-.27-.27H36.51c-.108 0-.162-.054-.162-.163v-4.16c0-.109.054-.163.162-.163h3.972c.162 0 .27-.108.27-.27v-2.648c0-.162-.108-.27-.27-.27H36.51c-.108 0-.162-.054-.162-.162v-4c0-.107.054-.161.162-.161h4.593c.162 0 .27-.109.27-.27V7.565c0-.162-.108-.27-.27-.27h-8.025c-.162 0-.27.108-.27.27zm10.538 0c0 .162.108.27.27.27h8.08c.161 0 .27-.108.27-.27v-2.648c0-.162-.109-.27-.27-.27h-4.648c-.108 0-.162-.054-.162-.163V7.566c0-.162-.109-.27-.27-.27h-3c-.162 0-.27.108-.27.27zm9.835-2.567c.676 2 2.27 3.08 4.729 3.08 2.405 0 3.999-1.08 4.674-3.107.298-.838.379-1.594.379-6.323v-.81c0-.163-.108-.27-.27-.27h-4.459c-.162 0-.27.107-.27.27v2.377c0 .162.108.27.27.27h1.162c.108 0 .162.055.162.163 0 2.702-.054 2.972-.162 3.35-.162.54-.73.892-1.405.892-.676 0-1.243-.351-1.405-.892-.135-.405-.162-.648-.162-5.35 0-4.728.027-4.945.162-5.377.162-.513.702-.865 1.35-.865.92 0 1.46.622 1.541 1.946.027.189.135.27.297.243l2.864-.486c.162-.027.244-.162.217-.325-.244-2.972-1.973-4.566-4.945-4.566-2.459 0-4.053 1.08-4.729 3.08-.27.865-.351 1.622-.351 6.35 0 4.729.081 5.485.351 6.35zM63.692 25.4c-.027.162.054.27.216.27h3c.189 0 .27-.108.297-.27l.621-3.324h3.486l.594 3.324c.027.162.108.27.298.27h2.999c.162 0 .243-.108.216-.27L71.474 7.566c-.027-.162-.135-.27-.297-.27h-3.189c-.162 0-.243.108-.297.27zm4.648-6.134l1.216-6.377h.08l1.163 6.377zm18.914 6.404c.135 0 .189-.135.135-.27l-2.513-7.782c1.27-.865 2.054-2.378 2.054-4.702 0-4.08-2.108-5.62-5.377-5.62h-4.378c-.162 0-.27.108-.27.27V25.4c0 .162.108.27.27.27h3c.162 0 .27-.108.27-.27v-6.755c0-.108.054-.162.162-.162h1.027l2.08 6.97c.054.163.135.217.297.217zM81.39 15.43h-.783c-.108 0-.162-.055-.162-.163v-4.701c0-.108.054-.162.162-.162h.783c1.379 0 1.973.594 1.973 2.512 0 1.946-.594 2.513-1.973 2.513zm7.782 9.97c0 .162.108.27.27.27h3c.162 0 .27-.108.27-.27v-7.053c0-.108.054-.162.162-.162h3.972c.162 0 .27-.108.27-.27V15.24c0-.162-.108-.27-.27-.27h-3.972c-.108 0-.162-.054-.162-.162v-4.161c0-.108.054-.162.162-.162h4.594c.162 0 .27-.109.27-.27V7.565c0-.162-.108-.27-.27-.27h-8.025c-.163 0-.27.108-.27.27zm20.779.27c.135 0 .19-.135.135-.27l-2.513-7.782c1.27-.865 2.054-2.378 2.054-4.702 0-4.08-2.108-5.62-5.377-5.62h-4.378c-.162 0-.27.108-.27.27V25.4c0 .162.108.27.27.27h3c.162 0 .27-.108.27-.27v-6.755c0-.108.054-.162.162-.162h1.027l2.08 6.97c.054.163.135.217.298.217zm-5.863-10.24h-.784c-.108 0-.162-.055-.162-.163v-4.701c0-.108.054-.162.162-.162h.784c1.378 0 1.972.594 1.972 2.512 0 1.946-.594 2.513-1.972 2.513zm7.781 9.97c0 .162.108.27.27.27h3c.162 0 .27-.108.27-.27V7.566c0-.162-.108-.27-.27-.27h-3c-.162 0-.27.108-.27.27zm2.594-20.13c.217 0 .352-.081.54-.27l2.81-3.08c.109-.136.028-.271-.134-.271h-2.702c-.216 0-.297.081-.433.27L112.33 5c-.108.136-.027.27.135.27z" fill="#fff"/></svg>