<svg width="119.053" height="33" viewBox="0 0 119.053 33" xmlns="http://www.w3.org/2000/svg"><path d="M26.223 17.724c0-2.725-.853-3.91-3.057-4.763l-.972-.38c-1.255-.497-1.516-.876-1.516-2.085 0-1.09.403-1.61 1.232-1.61.853 0 1.256.592 1.28 1.753 0 .142.118.213.26.19l2.417-.38c.142-.024.213-.118.213-.26-.118-2.536-1.445-4.005-4.265-4.005-2.867 0-4.265 1.564-4.265 4.478 0 2.583.782 3.792 3.057 4.668l.971.38c1.209.473 1.493.97 1.493 2.393 0 1.469-.403 1.919-1.28 1.919-.924 0-1.35-.592-1.397-2.085 0-.142-.095-.213-.261-.19l-2.536.403c-.142.024-.19.119-.19.26.048 2.773 1.446 4.313 4.36 4.313 3.2 0 4.456-1.706 4.456-5zm5.97 5c2.702 0 4.36-1.54 4.36-4.574V6.634c0-.142-.094-.237-.236-.237h-2.63c-.142 0-.237.095-.237.237v11.895c0 .853-.45 1.398-1.256 1.398-.782 0-1.232-.545-1.232-1.398V6.634c0-.142-.095-.237-.237-.237h-2.63c-.143 0-.237.095-.237.237V18.15c0 3.033 1.658 4.573 4.336 4.573zm6.493-.451c0 .142.095.237.237.237h2.299c.142 0 .237-.095.237-.237v-9.312h.142l1.753 6.445c.048.142.143.237.308.237h1.304c.166 0 .26-.095.308-.237l1.753-6.445h.142v9.312c0 .142.095.237.237.237h2.299c.142 0 .237-.095.237-.237V6.634c0-.142-.095-.237-.237-.237h-2.536c-.213 0-.331.071-.379.237l-2.37 8.46h-.094l-2.464-8.46c-.048-.166-.166-.237-.38-.237h-2.559c-.142 0-.237.095-.237.237zm12.559 0c-.024.142.047.237.19.237h2.63c.166 0 .237-.095.26-.237l.545-2.914h3.057l.521 2.914c.024.142.095.237.261.237h2.63c.142 0 .214-.095.19-.237l-3.46-15.639c-.023-.142-.118-.237-.26-.237h-2.796c-.143 0-.214.095-.261.237zm4.076-5.379l1.066-5.592h.071l1.019 5.592zm16.586 5.616c.119 0 .166-.118.119-.237l-2.204-6.824c1.114-.758 1.801-2.085 1.801-4.123 0-3.578-1.848-4.929-4.715-4.929h-3.839c-.142 0-.237.095-.237.237v15.639c0 .142.095.237.237.237h2.63c.142 0 .237-.095.237-.237v-5.924c0-.095.048-.142.142-.142h.9l1.825 6.113c.048.143.119.19.261.19zm-5.141-8.98h-.688c-.094 0-.142-.048-.142-.143V9.264c0-.095.048-.142.142-.142h.688c1.208 0 1.73.521 1.73 2.204 0 1.706-.522 2.203-1.73 2.203zm15.165 4.194c0-2.725-.853-3.91-3.057-4.763l-.972-.38c-1.255-.497-1.516-.876-1.516-2.085 0-1.09.403-1.61 1.232-1.61.853 0 1.256.592 1.28 1.753 0 .142.118.213.26.19l2.417-.38c.142-.024.213-.118.213-.26-.118-2.536-1.445-4.005-4.265-4.005-2.867 0-4.265 1.564-4.265 4.478 0 2.583.782 3.792 3.057 4.668l.971.38c1.209.473 1.493.97 1.493 2.393 0 1.469-.403 1.919-1.28 1.919-.924 0-1.35-.592-1.397-2.085 0-.142-.095-.213-.261-.19l-2.536.403c-.142.024-.19.119-.19.26.048 2.773 1.446 4.313 4.36 4.313 3.2 0 4.456-1.706 4.456-5zM88.54 4.62c.19 0 .309-.071.475-.237l2.464-2.701c.095-.119.024-.237-.119-.237h-2.37c-.189 0-.26.07-.378.237L86.67 4.383c-.095.118-.024.237.118.237zm-.71 18.103c2.109 0 3.53-.948 4.123-2.725.26-.734.332-1.398.332-5.544 0-4.147-.072-4.81-.332-5.545-.593-1.777-2.014-2.725-4.123-2.725-2.11 0-3.53.948-4.123 2.725-.26.734-.332 1.398-.332 5.545 0 4.146.071 4.81.332 5.544.592 1.777 2.014 2.725 4.123 2.725zm0-2.796c-.593 0-.995-.332-1.138-.782-.118-.379-.165-.782-.165-4.691 0-3.91.047-4.313.165-4.692.143-.45.545-.782 1.138-.782.592 0 .995.332 1.137.782.119.379.166.782.166 4.692s-.047 4.312-.166 4.691c-.142.45-.545.782-1.137.782zm6.398 2.346c0 .142.094.237.237.237h7.084c.143 0 .237-.095.237-.237v-2.322c0-.142-.094-.237-.237-.237h-4.075c-.095 0-.142-.047-.142-.142V6.634c0-.142-.095-.237-.237-.237h-2.63c-.143 0-.237.095-.237.237z" fill="#fff"/></svg>