<svg width="273" height="41" viewBox="0 0 273 41" xmlns="http://www.w3.org/2000/svg"><path d="M65.044 27.26c0 .174.116.29.29.29h.928c.174 0 .29-.116.29-.29v-8.7c0-.116.058-.174.174-.174h4.64c.174 0 .29-.116.29-.29v-.841c0-.174-.116-.29-.29-.29h-4.64c-.116 0-.174-.058-.174-.174V9.425c0-.116.058-.174.174-.174h5.307c.174 0 .29-.116.29-.29V8.12c0-.174-.116-.29-.29-.29h-6.699c-.174 0-.29.116-.29.29zm10.092 0c0 .174.116.29.29.29h6.67c.174 0 .29-.116.29-.29v-.841c0-.174-.116-.29-.29-.29h-5.278c-.116 0-.174-.058-.174-.174V8.12c0-.174-.116-.29-.29-.29h-.928c-.174 0-.29.116-.29.29zm13.514.522c2.552 0 4.263-1.595 4.263-4.872V8.12c0-.174-.116-.29-.29-.29h-.899c-.174 0-.29.116-.29.29v14.906c0 2.291-1.131 3.335-2.784 3.335-1.653 0-2.755-1.044-2.755-3.335V8.12c0-.174-.116-.29-.29-.29h-.928c-.174 0-.29.116-.29.29v14.79c0 3.277 1.711 4.872 4.263 4.872zm8.236-2.697c.58 1.769 1.943 2.697 3.973 2.697s3.393-.928 3.973-2.697c.29-.87.377-1.624.377-6.728v-.783c0-.174-.116-.29-.29-.29h-3.712c-.174 0-.29.116-.29.29v.812c0 .174.116.29.29.29h2.349c.116 0 .174.058.174.174 0 4.495-.087 5.104-.29 5.771-.406 1.16-1.305 1.74-2.552 1.74s-2.146-.58-2.552-1.74c-.203-.667-.29-1.276-.29-6.931s.087-6.264.29-6.931c.406-1.189 1.276-1.74 2.523-1.74 1.74 0 2.581 1.073 2.842 2.813.029.174.145.261.348.203l.841-.174c.174-.058.232-.174.203-.377-.319-2.378-1.682-3.886-4.234-3.886-2.03 0-3.393.928-3.973 2.697-.29.87-.377 1.624-.377 7.395 0 5.771.087 6.525.377 7.395zm21.228 2.697c2.03 0 3.393-.928 3.973-2.697.29-.87.377-1.624.377-7.395 0-5.771-.087-6.525-.377-7.395-.58-1.769-1.943-2.697-3.973-2.697s-3.393.928-3.973 2.697c-.29.87-.377 1.624-.377 7.395 0 5.771.087 6.525.377 7.395.58 1.769 1.943 2.697 3.973 2.697zm0-1.421c-1.247 0-2.117-.58-2.523-1.74-.203-.667-.29-1.276-.29-6.931s.087-6.264.29-6.931c.406-1.189 1.276-1.74 2.523-1.74s2.146.551 2.523 1.74c.203.667.319 1.276.319 6.931s-.116 6.264-.319 6.931c-.377 1.16-1.276 1.74-2.523 1.74zm8.033-1.276c.58 1.769 1.943 2.697 3.973 2.697s3.393-.928 3.973-2.697c.29-.87.377-1.624.377-6.728v-.783c0-.174-.116-.29-.29-.29h-3.712c-.174 0-.29.116-.29.29v.812c0 .174.116.29.29.29h2.349c.116 0 .174.058.174.174 0 4.495-.087 5.104-.29 5.771-.406 1.16-1.305 1.74-2.552 1.74s-2.146-.58-2.552-1.74c-.203-.667-.29-1.276-.29-6.931s.087-6.264.29-6.931c.406-1.189 1.276-1.74 2.523-1.74 1.74 0 2.581 1.073 2.842 2.813.029.174.145.261.348.203l.841-.174c.174-.058.232-.174.203-.377-.319-2.378-1.682-3.886-4.234-3.886-2.03 0-3.393.928-3.973 2.697-.29.87-.377 1.624-.377 7.395 0 5.771.087 6.525.377 7.395zm17.255 0c.58 1.769 1.943 2.697 3.973 2.697s3.393-.928 3.973-2.697c.29-.87.377-1.624.377-6.728v-.783c0-.174-.116-.29-.29-.29h-3.712c-.174 0-.29.116-.29.29v.812c0 .174.116.29.29.29h2.349c.116 0 .174.058.174.174 0 4.495-.087 5.104-.29 5.771-.406 1.16-1.305 1.74-2.552 1.74s-2.146-.58-2.552-1.74c-.203-.667-.29-1.276-.29-6.931s.087-6.264.29-6.931c.406-1.189 1.276-1.74 2.523-1.74 1.74 0 2.581 1.073 2.842 2.813.029.174.145.261.348.203l.841-.174c.174-.058.232-.174.203-.377-.319-2.378-1.682-3.886-4.234-3.886-2.03 0-3.393.928-3.973 2.697-.29.87-.377 1.624-.377 7.395 0 5.771.087 6.525.377 7.395zm11.861 2.175c0 .174.116.29.29.29h.928c.174 0 .29-.116.29-.29V8.12c0-.174-.116-.29-.29-.29h-.928c-.174 0-.29.116-.29.29zm13.137-5.133c0-3.19-.841-4.437-3.306-5.423l-1.189-.464c-1.624-.638-2.204-1.508-2.204-3.799 0-2.436.783-3.451 2.552-3.451 1.74 0 2.523 1.073 2.61 3.393 0 .174.116.29.319.232l.841-.145c.174-.058.203-.145.203-.319-.087-3.074-1.392-4.553-4.002-4.553-2.668 0-4.002 1.595-4.002 4.901 0 2.987.725 4.263 3.335 5.278l1.189.464c1.566.609 2.175 1.566 2.175 4.06 0 3.248-.899 4.089-2.668 4.089-1.74 0-2.668-.957-2.871-3.828 0-.174-.087-.29-.319-.232l-.87.174c-.174.029-.203.145-.203.319.145 3.335 1.508 4.959 4.234 4.959 2.929 0 4.176-1.595 4.176-5.655zm6.612 5.423c.174 0 .29-.116.29-.29V9.425c0-.116.058-.174.174-.174h3.48c.174 0 .29-.116.29-.29V8.12c0-.174-.116-.29-.29-.29h-8.816c-.174 0-.29.116-.29.29v.841c0 .174.116.29.29.29h3.48c.116 0 .174.058.174.174V27.26c0 .174.116.29.29.29zm6.728-.29c0 .174.116.29.29.29h.928c.174 0 .29-.116.29-.29V8.12c0-.174-.116-.29-.29-.29h-.928c-.174 0-.29.116-.29.29zm5.452 0c0 .174.116.29.29.29h.812c.174 0 .29-.116.29-.29V11.107h.087l5.51 16.153c.087.232.203.29.464.29h1.102c.174 0 .29-.116.29-.29V8.12c0-.174-.116-.29-.29-.29h-.812c-.174 0-.29.116-.29.29v16.153h-.087L189.106 8.12c-.087-.232-.203-.29-.464-.29h-1.16c-.174 0-.29.116-.29.29zm12.847-2.175c.58 1.769 1.943 2.697 3.973 2.697s3.393-.928 3.973-2.697c.29-.87.377-1.624.377-6.728v-.783c0-.174-.116-.29-.29-.29h-3.712c-.174 0-.29.116-.29.29v.812c0 .174.116.29.29.29h2.349c.116 0 .174.058.174.174 0 4.495-.087 5.104-.29 5.771-.406 1.16-1.305 1.74-2.552 1.74s-2.146-.58-2.552-1.74c-.203-.667-.29-1.276-.29-6.931s.087-6.264.29-6.931c.406-1.189 1.276-1.74 2.523-1.74 1.74 0 2.581 1.073 2.842 2.813.029.174.145.261.348.203l.841-.174c.174-.058.232-.174.203-.377-.319-2.378-1.682-3.886-4.234-3.886-2.03 0-3.393.928-3.973 2.697-.29.87-.377 1.624-.377 7.395 0 5.771.087 6.525.377 7.395z" fill="#fff"/></svg>