<svg width="273" height="40" viewBox="0 0 273 40" xmlns="http://www.w3.org/2000/svg"><path d="M94.86 26.943c-.029.172.057.287.23.287h3.181c.201 0 .287-.115.316-.287l.659-3.526h3.698l.63 3.526c.03.172.116.287.316.287h3.182c.172 0 .258-.115.23-.287l-4.186-18.92c-.028-.173-.143-.287-.315-.287h-3.383c-.172 0-.258.114-.315.286zm4.93-6.507l1.29-6.766h.087l1.232 6.766zm9.088 6.507c0 .172.115.287.287.287h8.572c.172 0 .287-.115.287-.287v-2.81c0-.171-.115-.286-.287-.286h-4.931c-.115 0-.172-.057-.172-.172V8.022c0-.172-.115-.286-.287-.286h-3.182c-.172 0-.287.114-.287.286zm11.038 0c0 .172.114.287.286.287h2.781c.172 0 .287-.115.287-.287V15.677h.172l2.121 7.797c.058.173.172.287.373.287h1.577c.2 0 .315-.114.372-.287l2.122-7.797h.172v11.266c0 .172.114.287.286.287h2.781c.172 0 .287-.115.287-.287V8.023c0-.173-.115-.287-.287-.287h-3.067c-.258 0-.402.086-.459.286l-2.867 10.235h-.114l-2.982-10.235c-.057-.2-.2-.286-.459-.286h-3.096c-.172 0-.286.114-.286.286zm16.254 0c0 .172.115.287.287.287h8.514c.172 0 .287-.115.287-.287v-2.81c0-.171-.115-.286-.287-.286h-4.873c-.115 0-.172-.057-.172-.172V19.26c0-.114.057-.172.172-.172h4.214c.172 0 .287-.114.287-.286v-2.81c0-.172-.115-.287-.287-.287h-4.214c-.115 0-.172-.057-.172-.172v-4.242c0-.115.057-.172.172-.172h4.873c.172 0 .287-.115.287-.287v-2.81c0-.172-.115-.286-.287-.286h-8.514c-.172 0-.287.114-.287.286zm22.16.287c.144 0 .201-.143.144-.287l-2.666-8.256c1.347-.917 2.179-2.523 2.179-4.988 0-4.33-2.236-5.963-5.705-5.963h-4.645c-.172 0-.286.114-.286.286v18.921c0 .172.114.287.286.287h3.183c.172 0 .286-.115.286-.287v-7.167c0-.114.058-.172.172-.172h1.09l2.207 7.397c.057.172.143.229.315.229zm-6.22-10.865h-.832c-.114 0-.172-.057-.172-.172v-4.988c0-.115.058-.172.172-.172h.832c1.462 0 2.092.63 2.092 2.666 0 2.064-.63 2.666-2.092 2.666zm8.256 10.578c0 .172.115.287.287.287h3.182c.172 0 .287-.115.287-.287V8.023c0-.173-.115-.287-.287-.287h-3.182c-.172 0-.287.114-.287.286zm2.752-21.357c.23 0 .373-.086.574-.287l2.981-3.268c.115-.143.029-.287-.143-.287h-2.867c-.23 0-.315.086-.459.287l-2.35 3.268c-.115.143-.03.287.143.287zm2.58 21.357c-.028.172.058.287.23.287h3.182c.2 0 .286-.115.315-.287l.66-3.526h3.698l.63 3.526c.029.172.115.287.316.287h3.182c.172 0 .258-.115.23-.287l-4.186-18.92c-.029-.173-.144-.287-.316-.287h-3.383c-.172 0-.258.114-.315.286zm4.931-6.507l1.29-6.766h.086l1.233 6.766z" fill="#fff"/></svg>