<svg width="172.518" height="33" viewBox="0 0 172.518 33" xmlns="http://www.w3.org/2000/svg"><path d="M4.843 22.55c.143 0 .214-.095.238-.237l3.205-15.67c.023-.142-.024-.237-.19-.237h-.784c-.142 0-.213.095-.237.237l-2.54 13.01h-.072L1.9 6.644c-.023-.142-.118-.237-.26-.237H.854c-.167 0-.214.095-.19.237l3.205 15.67c.024.142.095.237.237.237zm5.722-.237c0 .142.095.237.237.237h5.484c.143 0 .238-.095.238-.237v-.689c0-.142-.095-.237-.238-.237h-4.344c-.095 0-.143-.048-.143-.143v-6.149c0-.095.048-.142.143-.142h3.798c.143 0 .238-.095.238-.238v-.688c0-.142-.095-.237-.238-.237h-3.798c-.095 0-.143-.048-.143-.143V7.712c0-.095.048-.143.143-.143h4.344c.143 0 .238-.095.238-.237v-.689c0-.142-.095-.237-.238-.237h-5.484c-.142 0-.237.095-.237.237zm15.052.237c.118 0 .166-.095.118-.237l-2.184-7.36c1.282-.57 1.994-1.828 1.994-4.084 0-3.276-1.282-4.463-4.107-4.463h-2.303c-.142 0-.237.095-.237.237v15.67c0 .142.095.237.237.237h.76c.142 0 .237-.095.237-.237v-6.838c0-.095.048-.142.143-.142h1.116c.356 0 .688-.024.997-.072l2.089 7.123c.048.119.119.166.261.166zm-4.084-8.357h-1.258c-.095 0-.143-.047-.143-.142V7.71c0-.094.048-.142.143-.142h1.258c1.97 0 2.778.808 2.778 3.3 0 2.588-.855 3.324-2.778 3.324zm10.09 8.357c1.947 0 3.015-.855 3.514-2.398.285-.878.38-1.947.38-5.674 0-3.751-.095-4.796-.38-5.674-.499-1.543-1.567-2.398-3.514-2.398h-2.896c-.143 0-.238.095-.238.237v7.052c0 .095-.047.142-.142.142h-.807c-.143 0-.238.095-.238.237v.57c0 .143.095.238.238.238h.807c.095 0 .142.047.142.142v7.289c0 .142.095.237.238.237zm-.142-1.163h-1.615c-.095 0-.142-.048-.142-.143v-6.22c0-.095.047-.142.142-.142h1.78c.143 0 .238-.095.238-.238v-.57c0-.142-.095-.237-.237-.237h-1.78c-.096 0-.143-.047-.143-.142V7.712c0-.095.047-.143.142-.143h1.615c1.353 0 2.089.523 2.469 1.639.237.735.332 1.709.332 5.27 0 3.561-.095 4.535-.332 5.27-.38 1.116-1.116 1.639-2.47 1.639zm11.395.926c0 .142.095.237.238.237h.76c.142 0 .237-.095.237-.237V15.19c0-.095.047-.142.142-.142h3.799c.142 0 .237-.095.237-.238v-.688c0-.143-.095-.237-.237-.237h-3.799c-.095 0-.142-.048-.142-.143v-6.03c0-.095.047-.143.142-.143h4.345c.142 0 .237-.095.237-.237v-.689c0-.142-.095-.237-.237-.237h-5.484c-.143 0-.238.095-.238.237zm14.981.237c.119 0 .166-.095.119-.237l-2.184-7.36c1.282-.57 1.994-1.828 1.994-4.084 0-3.276-1.282-4.463-4.107-4.463h-2.303c-.143 0-.238.095-.238.237v15.67c0 .142.095.237.238.237h.76c.142 0 .237-.095.237-.237v-6.838c0-.095.047-.142.142-.142h1.116c.356 0 .689-.024.997-.072l2.09 7.123c.047.119.118.166.26.166zm-4.083-8.357h-1.259c-.095 0-.142-.047-.142-.142V7.71c0-.094.047-.142.142-.142h1.259c1.97 0 2.777.808 2.777 3.3 0 2.588-.854 3.324-2.777 3.324zm5.935 8.12c-.024.142.095.237.237.237h.76c.142 0 .214-.095.237-.237l.808-3.87h3.94l.808 3.87c.023.142.095.237.26.237h.76c.143 0 .238-.095.214-.237L64.41 6.643c-.024-.142-.12-.237-.262-.237h-.783c-.143 0-.214.095-.261.237zm2.279-4.986l1.733-8.238h.048l1.685 8.238zM64.03 4.388c.166 0 .237-.047.403-.237L66.5 1.705c.095-.118.047-.237-.095-.237h-.784c-.213 0-.285.071-.403.237l-1.78 2.446c-.096.118-.048.237.094.237zm6.125 8.856h1.068c.143 0 .238-.095.238-.238v-1.543c0-.143-.095-.237-.238-.237h-1.068c-.143 0-.238.094-.238.237v1.543c0 .143.095.238.238.238zm-.238 9.069c0 .142.095.237.238.237h1.068c.143 0 .238-.095.238-.237v-1.544c0-.142-.095-.237-.238-.237h-1.068c-.143 0-.238.095-.238.237z" fill="#fff"/></svg>