<svg width="174.668" height="54" viewBox="0 0 174.668 54" xmlns="http://www.w3.org/2000/svg"><path d="M40.14 35.91c-.115.269 0 .46.268.46h4.058c.307 0 .46-.115.575-.383l4.402-10.643c.957-2.297 1.34-3.828 1.34-7.388 0-2.412-.115-3.293-.345-4.058-.803-2.489-2.87-3.905-6.048-3.905s-5.245 1.416-6.05 3.905c-.229.765-.344 1.646-.344 4.058 0 2.45.153 3.522.421 4.287.766 2.297 2.144 3.637 4.671 3.637.536 0 .957-.076 1.149-.191 0 .038.076.076.076.076zm4.25-14.164c-.766 0-1.225-.345-1.455-1.034-.115-.306-.153-.689-.153-2.756 0-2.068.038-2.412.153-2.718.23-.69.689-1.034 1.455-1.034.765 0 1.225.344 1.454 1.034.115.306.154.65.154 2.718 0 2.067-.039 2.45-.154 2.756-.23.69-.689 1.034-1.454 1.034zm9.877 11.102c.804 2.45 2.833 3.867 5.972 3.867 3.216 0 5.207-1.379 6.01-3.829.23-.727.345-1.723.345-4.058 0-2.373-.076-3.024-.268-3.637-.344-1.11-.995-1.8-1.99-2.373v-.077c.956-.574 1.646-1.302 1.99-2.373.192-.613.268-1.302.268-3.025 0-1.8-.115-2.795-.344-3.522-.804-2.45-2.757-3.828-6.011-3.828-3.14 0-5.168 1.416-5.972 3.866-.23.766-.345 1.647-.345 2.833 0 .268.115.421.383.46l3.828.383c.268.038.46-.077.46-.383 0-1.264.038-1.608.115-1.914.23-.69.689-1.034 1.493-1.034.765 0 1.225.306 1.455.995.114.307.153.69.153 2.144 0 1.914-.039 2.259-.153 2.527-.23.689-.766.919-1.647.919h-.612c-.23 0-.383.153-.383.382v3.56c0 .23.153.384.383.384h.574c.919 0 1.455.23 1.685.957.114.268.153.65.153 2.718 0 2.029-.039 2.412-.153 2.718-.23.69-.69.995-1.455.995-.804 0-1.264-.344-1.493-1.033-.077-.307-.115-.651-.115-1.914 0-.307-.192-.422-.46-.383l-3.828.383c-.268.038-.383.191-.383.459 0 1.187.115 2.067.345 2.833zm15.658 3.14c0 .229.153.382.383.382h3.905c.23 0 .382-.153.382-.383v-4.44c0-.23-.153-.384-.382-.384h-3.905c-.23 0-.383.154-.383.383zm10.03-.077c-.115.268 0 .459.268.459h4.058c.306 0 .46-.115.574-.383l4.403-10.643c.957-2.297 1.34-3.828 1.34-7.388 0-2.412-.115-3.293-.345-4.058-.804-2.489-2.871-3.905-6.048-3.905-3.178 0-5.245 1.416-6.05 3.905-.229.765-.344 1.646-.344 4.058 0 2.45.153 3.522.421 4.287.766 2.297 2.144 3.637 4.67 3.637.537 0 .958-.076 1.15-.191 0 .038.076.076.076.076zm4.25-14.165c-.766 0-1.226-.345-1.455-1.034-.115-.306-.153-.689-.153-2.756 0-2.068.038-2.412.153-2.718.23-.69.689-1.034 1.455-1.034.765 0 1.225.344 1.454 1.034.115.306.153.65.153 2.718 0 2.067-.038 2.45-.153 2.756-.23.69-.689 1.034-1.454 1.034zM94.12 32.81c.804 2.526 2.948 3.905 6.01 3.905 3.063 0 5.245-1.34 6.01-3.905.307-.957.422-1.991.422-9.456 0-7.466-.115-8.5-.421-9.456-.766-2.565-2.948-3.905-6.01-3.905-3.063 0-5.169 1.378-5.973 3.905-.306.957-.46 1.99-.46 9.456 0 7.465.116 8.499.422 9.456zm4.556-1.302c-.115-.383-.153-.842-.153-8.154 0-7.313.038-7.772.153-8.155.191-.612.689-.995 1.454-.995.766 0 1.264.383 1.455.995.115.383.153.842.153 8.155 0 7.312-.038 7.771-.153 8.154-.191.613-.65.995-1.455.995-.765 0-1.263-.382-1.454-.995zm11.37 1.302c.804 2.526 2.948 3.905 6.01 3.905 3.063 0 5.245-1.34 6.01-3.905.307-.957.422-1.991.422-9.456 0-7.466-.115-8.5-.421-9.456-.766-2.565-2.948-3.905-6.01-3.905-3.063 0-5.169 1.378-5.973 3.905-.306.957-.46 1.99-.46 9.456 0 7.465.116 8.499.422 9.456zm4.556-1.302c-.115-.383-.154-.842-.154-8.154 0-7.313.039-7.772.154-8.155.191-.612.689-.995 1.454-.995.766 0 1.264.383 1.455.995.115.383.153.842.153 8.155 0 7.312-.038 7.771-.153 8.154-.191.613-.65.995-1.455.995-.765 0-1.263-.382-1.454-.995zm18.644 4.48c0 .229.153.382.382.382h4.25c.23 0 .383-.153.383-.383v-7.044l1.531-3.216 3.828 10.375c.039.191.154.268.383.268h4.556c.191 0 .306-.191.23-.383l-5.858-15.16 5.207-10.107c.115-.191 0-.383-.192-.383h-4.44c-.23 0-.383.077-.498.307l-4.747 10.068V10.72c0-.23-.153-.383-.383-.383h-4.25c-.23 0-.382.153-.382.383zm32.502.382c.192 0 .268-.191.192-.383l-3.56-11.025c1.799-1.226 2.909-3.37 2.909-6.662 0-5.78-2.986-7.963-7.619-7.963h-6.201c-.23 0-.383.153-.383.383v25.267c0 .23.153.383.383.383h4.249c.23 0 .383-.153.383-.383v-9.57c0-.154.076-.23.23-.23h1.454l2.948 9.877c.077.23.192.306.421.306zm-8.307-14.51h-1.11c-.154 0-.23-.076-.23-.23v-6.66c0-.154.076-.23.23-.23h1.11c1.952 0 2.794.842 2.794 3.56 0 2.757-.842 3.56-2.794 3.56zm10.91 14.127c0 .23.154.383.383.383h3.905c.23 0 .383-.153.383-.383v-4.44c0-.23-.153-.384-.383-.384h-3.905c-.23 0-.382.154-.382.383z" fill="#fff"/></svg>