<svg width="264.43" height="49" viewBox="0 0 264.43 49" xmlns="http://www.w3.org/2000/svg"><path d="M62.992 25.834c0-3.971-1.243-5.698-4.455-6.941l-1.416-.553c-1.83-.725-2.21-1.277-2.21-3.039 0-1.588.587-2.348 1.796-2.348 1.243 0 1.83.863 1.865 2.556 0 .207.172.31.38.276l3.522-.553c.207-.034.31-.172.31-.38-.172-3.695-2.106-5.836-6.215-5.836-4.179 0-6.216 2.28-6.216 6.527 0 3.764 1.14 5.526 4.454 6.803l1.416.553c1.762.69 2.176 1.416 2.176 3.488 0 2.14-.587 2.797-1.865 2.797-1.347 0-1.968-.863-2.037-3.039 0-.207-.138-.31-.38-.276l-3.695.587c-.208.034-.277.172-.277.38.07 4.04 2.107 6.285 6.355 6.285 4.662 0 6.492-2.487 6.492-7.287zm8.702 7.287c3.937 0 6.355-2.245 6.355-6.665V9.672c0-.207-.138-.345-.346-.345H73.87c-.207 0-.345.138-.345.345v17.336c0 1.244-.656 2.038-1.83 2.038-1.14 0-1.796-.794-1.796-2.038V9.672c0-.207-.138-.345-.346-.345H65.72c-.207 0-.345.138-.345.345v16.784c0 4.42 2.417 6.665 6.32 6.665zm9.463-.656c0 .207.138.345.345.345h3.35c.207 0 .345-.138.345-.345V18.893h.207l2.556 9.393c.069.207.207.345.449.345h1.9c.24 0 .379-.138.448-.345l2.556-9.393h.207v13.572c0 .207.138.345.345.345h3.35c.207 0 .345-.138.345-.345V9.672c0-.207-.138-.345-.345-.345H93.52c-.311 0-.484.104-.553.345l-3.453 12.329h-.138L85.784 9.672c-.069-.241-.242-.345-.552-.345h-3.73c-.207 0-.345.138-.345.345zm18.303 0c-.035.207.069.345.276.345h3.833c.242 0 .345-.138.38-.345l.794-4.248h4.455l.76 4.248c.034.207.138.345.38.345h3.833c.207 0 .31-.138.276-.345l-5.042-22.793c-.034-.207-.172-.345-.38-.345h-4.075c-.207 0-.31.138-.38.345zm5.94-7.84l1.553-8.15h.104l1.485 8.15zm24.173 8.185c.173 0 .242-.173.173-.345l-3.212-9.946c1.623-1.105 2.625-3.039 2.625-6.009 0-5.215-2.694-7.183-6.873-7.183h-5.594c-.207 0-.345.138-.345.345v22.793c0 .207.138.345.345.345h3.833c.207 0 .345-.138.345-.345V23.83c0-.138.07-.207.208-.207h1.312l2.659 8.91c.07.207.173.276.38.276zm-7.494-13.088h-1.001c-.138 0-.208-.07-.208-.207v-6.01c0-.137.07-.207.208-.207h1.001c1.761 0 2.521.76 2.521 3.212 0 2.487-.76 3.212-2.52 3.212zm22.102 6.112c0-3.971-1.244-5.698-4.455-6.941l-1.416-.553c-1.83-.725-2.21-1.277-2.21-3.039 0-1.588.587-2.348 1.796-2.348 1.243 0 1.83.863 1.864 2.556 0 .207.173.31.38.276l3.523-.553c.207-.034.31-.172.31-.38-.172-3.695-2.106-5.836-6.216-5.836-4.178 0-6.216 2.28-6.216 6.527 0 3.764 1.14 5.526 4.455 6.803l1.416.553c1.761.69 2.176 1.416 2.176 3.488 0 2.14-.587 2.797-1.865 2.797-1.347 0-1.969-.863-2.038-3.039 0-.207-.138-.31-.38-.276l-3.695.587c-.207.034-.276.172-.276.38.07 4.04 2.107 6.285 6.354 6.285 4.662 0 6.493-2.487 6.493-7.287zm9.635-19.097c.276 0 .449-.104.69-.345l3.592-3.937c.138-.173.034-.345-.173-.345h-3.453c-.277 0-.38.103-.553.345l-2.832 3.937c-.138.172-.034.345.173.345zm-1.036 26.384c3.073 0 5.145-1.382 6.008-3.972.38-1.07.484-2.037.484-8.08 0-6.044-.104-7.01-.484-8.081-.863-2.59-2.935-3.972-6.008-3.972-3.074 0-5.146 1.382-6.01 3.972-.38 1.07-.483 2.037-.483 8.08 0 6.044.104 7.01.484 8.081.863 2.59 2.935 3.972 6.009 3.972zm0-4.075c-.864 0-1.45-.484-1.658-1.14-.173-.552-.242-1.14-.242-6.837 0-5.699.07-6.286.242-6.838.207-.656.794-1.14 1.658-1.14.863 0 1.45.484 1.657 1.14.173.552.242 1.14.242 6.838s-.07 6.285-.242 6.837c-.207.656-.794 1.14-1.657 1.14zm9.324 3.419c0 .207.138.345.345.345h10.326c.207 0 .345-.138.345-.345V29.08c0-.207-.138-.345-.345-.345h-5.94c-.138 0-.207-.069-.207-.207V9.672c0-.207-.139-.345-.346-.345h-3.833c-.207 0-.345.138-.345.345zm27.005.345c.207 0 .345-.138.345-.345V13.609c0-.138.07-.207.208-.207h3.695c.207 0 .345-.138.345-.345V9.672c0-.207-.138-.345-.345-.345h-12.329c-.207 0-.345.138-.345.345v3.385c0 .207.138.345.345.345h3.695c.138 0 .207.07.207.207v18.856c0 .207.139.345.346.345zm6.665-.345c0 .207.138.345.345.345h3.834c.207 0 .345-.138.345-.345V9.672c0-.207-.138-.345-.345-.345h-3.834c-.207 0-.345.138-.345.345zm7.701 0c0 .207.138.345.345.345h10.326c.207 0 .345-.138.345-.345V29.08c0-.207-.138-.345-.345-.345h-5.94c-.138 0-.207-.069-.207-.207V9.672c0-.207-.138-.345-.345-.345h-3.834c-.207 0-.345.138-.345.345z" fill="#fff"/></svg>