<svg width="264.456" height="47" viewBox="0 0 264.456 47" xmlns="http://www.w3.org/2000/svg"><path d="M83.286 31.673c-.034.202.067.337.27.337h3.74c.235 0 .336-.135.37-.337l.775-4.144h4.347l.741 4.144c.034.202.135.337.37.337h3.74c.203 0 .304-.135.27-.337L92.99 9.434c-.033-.202-.168-.337-.37-.337h-3.976c-.202 0-.303.135-.37.337zm5.795-7.649l1.516-7.952h.102l1.448 7.952zm10.682 7.649c0 .202.134.337.337.337h10.074c.203 0 .337-.135.337-.337v-3.302c0-.202-.134-.337-.337-.337h-5.795c-.135 0-.202-.067-.202-.202V9.434c0-.202-.135-.337-.337-.337h-3.74c-.203 0-.337.135-.337.337zm12.972 0c0 .202.135.337.337.337h3.269c.202 0 .337-.135.337-.337V18.431h.202l2.493 9.165c.068.202.202.337.438.337h1.853c.236 0 .371-.135.438-.337l2.494-9.165h.202v13.242c0 .202.135.337.337.337h3.268c.203 0 .337-.135.337-.337V9.434c0-.202-.134-.337-.337-.337h-3.605c-.303 0-.472.101-.54.337l-3.369 12.03h-.134l-3.505-12.03c-.067-.236-.236-.337-.539-.337h-3.639c-.202 0-.337.135-.337.337zm19.105 0c0 .202.135.337.337.337h10.008c.202 0 .337-.135.337-.337v-3.302c0-.202-.135-.337-.337-.337h-5.728c-.135 0-.203-.067-.203-.202v-5.19c0-.134.068-.201.203-.201h4.953c.202 0 .337-.135.337-.337v-3.302c0-.203-.135-.337-.337-.337h-4.953c-.135 0-.203-.068-.203-.203v-4.986c0-.135.068-.203.203-.203h5.728c.202 0 .337-.134.337-.337V9.434c0-.202-.135-.337-.337-.337h-10.008c-.202 0-.337.135-.337.337zm26.047.337c.168 0 .236-.168.168-.337l-3.134-9.704c1.584-1.078 2.561-2.965 2.561-5.863 0-5.088-2.628-7.009-6.705-7.009h-5.459c-.202 0-.337.135-.337.337v22.239c0 .202.135.337.337.337h3.74c.203 0 .337-.135.337-.337v-8.424c0-.135.068-.202.203-.202h1.28l2.595 8.693c.067.203.168.27.37.27zm-7.312-12.77h-.977c-.135 0-.203-.068-.203-.203v-5.863c0-.134.068-.202.203-.202h.977c1.718 0 2.46.742 2.46 3.134 0 2.426-.742 3.134-2.46 3.134zm9.704 12.433c0 .202.135.337.337.337h3.74c.202 0 .337-.135.337-.337V9.434c0-.202-.135-.337-.337-.337h-3.74c-.202 0-.337.135-.337.337zm3.235-25.103c.27 0 .438-.1.674-.337l3.504-3.841c.135-.168.034-.337-.169-.337h-3.37c-.269 0-.37.101-.538.337l-2.763 3.841c-.135.169-.034.337.168.337zm3.032 25.103c-.033.202.068.337.27.337h3.74c.236 0 .337-.135.37-.337l.776-4.144h4.346l.742 4.144c.033.202.134.337.37.337h3.74c.203 0 .304-.135.27-.337l-4.92-22.239c-.033-.202-.168-.337-.37-.337h-3.976c-.202 0-.303.135-.37.337zm5.796-7.649l1.516-7.952h.101l1.45 7.952z" fill="#fff"/></svg>