<svg width="264.456" height="47" viewBox="0 0 264.456 47" xmlns="http://www.w3.org/2000/svg"><path d="M88.492 32.01c.202 0 .337-.135.337-.337V13.276c0-.135.067-.203.202-.203h3.605c.202 0 .337-.134.337-.337V9.434c0-.202-.135-.337-.337-.337h-12.03c-.201 0-.336.135-.336.337v3.302c0 .203.135.337.337.337h3.605c.135 0 .202.068.202.203v18.397c0 .202.135.337.337.337zm6.503-.337c0 .202.134.337.337.337h10.007c.202 0 .337-.135.337-.337v-3.302c0-.202-.135-.337-.337-.337h-5.728c-.135 0-.202-.067-.202-.202v-5.19c0-.134.067-.201.202-.201h4.953c.202 0 .337-.135.337-.337v-3.302c0-.203-.135-.337-.337-.337h-4.953c-.135 0-.202-.068-.202-.203v-4.986c0-.135.067-.203.202-.203h5.728c.202 0 .337-.134.337-.337V9.434c0-.202-.135-.337-.337-.337H95.332c-.203 0-.337.135-.337.337zm13.14 0c0 .202.136.337.338.337h3.2c.203 0 .338-.135.338-.337V17.285h.168l3.976 14.388c.068.236.202.337.472.337h4.043c.203 0 .337-.135.337-.337V9.434c0-.202-.134-.337-.337-.337h-3.2c-.203 0-.338.135-.338.337v14.388h-.168l-3.808-14.388c-.067-.236-.202-.337-.471-.337h-4.212c-.202 0-.337.135-.337.337zm15.972 0c0 .202.135.337.337.337h10.008c.202 0 .337-.135.337-.337v-3.302c0-.202-.135-.337-.337-.337h-5.728c-.135 0-.203-.067-.203-.202v-5.19c0-.134.068-.201.203-.201h4.953c.202 0 .337-.135.337-.337v-3.302c0-.203-.135-.337-.337-.337h-4.953c-.135 0-.203-.068-.203-.203v-4.986c0-.135.068-.203.203-.203h5.728c.202 0 .337-.134.337-.337V9.434c0-.202-.135-.337-.337-.337h-10.008c-.202 0-.337.135-.337.337zm26.047.337c.168 0 .235-.168.168-.337l-3.134-9.704c1.584-1.078 2.561-2.965 2.561-5.863 0-5.088-2.628-7.009-6.705-7.009h-5.459c-.202 0-.337.135-.337.337v22.239c0 .202.135.337.337.337h3.74c.203 0 .337-.135.337-.337v-8.424c0-.135.068-.202.203-.202h1.28l2.595 8.693c.067.203.168.27.37.27zm-7.312-12.77h-.977c-.135 0-.203-.068-.203-.203v-5.863c0-.134.068-.202.203-.202h.977c1.718 0 2.46.742 2.46 3.134 0 2.426-.742 3.134-2.46 3.134zm9.704 12.433c0 .202.135.337.337.337h3.74c.202 0 .337-.135.337-.337V9.434c0-.202-.135-.337-.337-.337h-3.74c-.202 0-.337.135-.337.337zm7.514 0c0 .202.135.337.337.337h3.74c.202 0 .337-.135.337-.337v-8.794c0-.135.067-.203.202-.203h4.953c.203 0 .337-.134.337-.336v-3.336c0-.202-.134-.337-.337-.337h-4.953c-.135 0-.202-.068-.202-.202v-5.19c0-.134.067-.202.202-.202h5.728c.203 0 .337-.134.337-.337V9.434c0-.202-.134-.337-.337-.337h-10.007c-.202 0-.337.135-.337.337zm13.006 0c0 .202.135.337.337.337h10.008c.202 0 .337-.135.337-.337v-3.302c0-.202-.135-.337-.337-.337h-5.728c-.135 0-.203-.067-.203-.202v-5.19c0-.134.068-.201.203-.201h4.953c.202 0 .337-.135.337-.337v-3.302c0-.203-.135-.337-.337-.337h-4.953c-.135 0-.203-.068-.203-.203v-4.986c0-.135.068-.203.203-.203h5.728c.202 0 .337-.134.337-.337V9.434c0-.202-.135-.337-.337-.337h-10.008c-.202 0-.337.135-.337.337z" fill="#fff"/></svg>