<svg width="264.456" height="47" viewBox="0 0 264.456 47" xmlns="http://www.w3.org/2000/svg"><path d="M74.44 31.673c0 .202.135.337.338.337h3.268c.202 0 .337-.135.337-.337V18.431h.202l2.494 9.165c.067.202.202.337.438.337h1.853c.236 0 .37-.135.438-.337L86.3 18.43h.203v13.242c0 .202.134.337.336.337h3.269c.202 0 .337-.135.337-.337V9.434c0-.202-.135-.337-.337-.337h-3.605c-.304 0-.472.101-.54.337l-3.37 12.03h-.134l-3.504-12.03c-.068-.236-.236-.337-.54-.337h-3.638c-.203 0-.337.135-.337.337zm17.86 0c-.035.202.066.337.269.337h3.74c.236 0 .337-.135.37-.337l.775-4.144h4.347l.741 4.144c.034.202.135.337.371.337h3.74c.202 0 .303-.135.27-.337l-4.92-22.239c-.033-.202-.168-.337-.37-.337h-3.976c-.203 0-.304.135-.371.337zm5.795-7.649l1.516-7.952h.101l1.449 7.952zm10.681 7.649c0 .202.135.337.337.337h10.075c.202 0 .337-.135.337-.337v-3.302c0-.202-.135-.337-.337-.337h-5.796c-.135 0-.202-.067-.202-.202V9.434c0-.202-.135-.337-.337-.337h-3.74c-.202 0-.337.135-.337.337zm12.973 0c0 .202.134.337.337.337h10.074c.203 0 .337-.135.337-.337v-3.302c0-.202-.134-.337-.337-.337h-5.795c-.135 0-.202-.067-.202-.202V9.434c0-.202-.135-.337-.337-.337h-3.74c-.203 0-.337.135-.337.337zm18.161.64c3 0 5.02-1.348 5.863-3.875.37-1.044.472-1.988.472-7.884 0-5.897-.101-6.84-.472-7.885-.842-2.527-2.864-3.875-5.863-3.875-2.999 0-5.02 1.348-5.863 3.875-.37 1.045-.471 1.988-.471 7.885 0 5.896.1 6.84.471 7.884.843 2.527 2.864 3.875 5.863 3.875zm0-3.976c-.842 0-1.415-.471-1.617-1.112-.169-.539-.236-1.112-.236-6.671 0-5.56.067-6.133.236-6.672.202-.64.775-1.112 1.617-1.112.843 0 1.416.472 1.618 1.112.168.54.236 1.112.236 6.672s-.068 6.132-.236 6.671c-.202.64-.775 1.112-1.618 1.112zm22.003 3.673c.169 0 .236-.168.169-.337l-3.134-9.704c1.584-1.078 2.56-2.965 2.56-5.863 0-5.088-2.627-7.009-6.704-7.009h-5.46c-.201 0-.336.135-.336.337v22.239c0 .202.135.337.337.337h3.74c.202 0 .337-.135.337-.337v-8.424c0-.135.067-.202.202-.202h1.28l2.595 8.693c.068.203.169.27.37.27zm-7.312-12.77h-.977c-.135 0-.202-.068-.202-.203v-5.863c0-.134.067-.202.202-.202h.977c1.719 0 2.46.742 2.46 3.134 0 2.426-.741 3.134-2.46 3.134zm9.738 9.266c.809 2.46 2.662 3.807 5.695 3.807 3.673 0 5.829-1.954 6.031-5.795 0-.202-.067-.371-.303-.405l-3.538-.606c-.202-.034-.37.067-.37.303-.068 1.82-.64 2.527-1.753 2.527-.809 0-1.28-.337-1.516-1.044-.135-.506-.202-.91-.202-6.74 0-5.829.067-6.233.202-6.738.236-.708.707-1.045 1.516-1.045 1.112 0 1.685.708 1.752 2.527 0 .236.169.337.37.303l3.539-.606c.236-.034.303-.202.303-.404-.202-3.842-2.358-5.796-6.031-5.796-3.033 0-4.886 1.348-5.695 3.808-.303.977-.438 2.021-.438 7.952 0 5.93.135 6.975.438 7.952zm12.299 3.167c-.034.202.067.337.27.337h3.74c.236 0 .337-.135.37-.337l.775-4.144h4.347l.741 4.144c.034.202.135.337.371.337h3.74c.202 0 .303-.135.27-.337l-4.92-22.239c-.034-.202-.168-.337-.37-.337h-3.976c-.203 0-.304.135-.371.337zm5.796-7.649l1.516-7.952h.1l1.45 7.952z" fill="#fff"/></svg>