<svg width="174.668" height="54" viewBox="0 0 174.668 54" xmlns="http://www.w3.org/2000/svg"><path d="M38.34 32.81c.805 2.488 2.872 3.905 6.05 3.905 3.177 0 5.245-1.417 6.048-3.905.23-.766.345-1.608.345-4.02 0-1.953-.077-2.718-.345-3.56-.344-1.072-.957-1.915-1.799-2.45v-.077c.88-.536 1.455-1.417 1.8-2.489.23-.765.344-1.57.344-2.91 0-1.76-.115-2.64-.345-3.406-.803-2.489-2.87-3.905-6.048-3.905s-5.245 1.416-6.05 3.905c-.229.765-.344 1.646-.344 3.407 0 1.34.077 2.144.345 2.91.344 1.071.957 1.952 1.8 2.488v.076c-.805.536-1.456 1.379-1.8 2.45-.268.843-.345 1.608-.345 3.56 0 2.413.115 3.255.345 4.02zm6.05-12.06c-.766 0-1.225-.344-1.455-1.033-.115-.345-.153-.804-.153-2.259 0-1.455.038-1.876.153-2.22.23-.69.689-1.034 1.455-1.034.765 0 1.225.344 1.454 1.034.115.344.154.765.154 2.22s-.039 1.914-.154 2.259c-.23.689-.689 1.033-1.454 1.033zm-1.455 10.72c-.115-.345-.153-.69-.153-2.757s.038-2.373.153-2.718c.23-.65.689-1.033 1.455-1.033.765 0 1.225.382 1.454 1.033.115.345.154.651.154 2.718 0 2.068-.039 2.412-.154 2.757-.23.65-.689 1.033-1.454 1.033-.766 0-1.225-.382-1.455-1.033zm15.543 4.517c0 .23.153.383.383.383h4.02c.23 0 .382-.153.382-.383V10.72c0-.23-.153-.383-.382-.383h-3.79c-.268 0-.422.077-.651.23l-3.37 2.488c-.267.192-.344.345-.344.613v4.135c0 .306.23.382.421.23l3.254-2.26h.077zm11.447 0c0 .23.153.383.383.383h3.905c.23 0 .382-.153.382-.383v-4.44c0-.23-.153-.384-.382-.384h-3.905c-.23 0-.383.154-.383.383zm10.03-.076c-.115.268 0 .459.268.459h4.058c.306 0 .46-.115.574-.383l4.403-10.643c.957-2.297 1.34-3.828 1.34-7.388 0-2.412-.115-3.293-.345-4.058-.804-2.489-2.871-3.905-6.048-3.905-3.178 0-5.245 1.416-6.05 3.905-.229.765-.344 1.646-.344 4.058 0 2.45.153 3.522.421 4.287.766 2.297 2.144 3.637 4.67 3.637.537 0 .958-.076 1.15-.191 0 .038.076.076.076.076zm4.25-14.165c-.766 0-1.226-.345-1.455-1.034-.115-.306-.153-.689-.153-2.756 0-2.068.038-2.412.153-2.718.23-.69.689-1.034 1.455-1.034.765 0 1.225.344 1.454 1.034.115.306.153.65.153 2.718 0 2.067-.038 2.45-.153 2.756-.23.69-.689 1.034-1.454 1.034zM94.12 32.81c.804 2.526 2.948 3.905 6.01 3.905 3.063 0 5.245-1.34 6.01-3.905.307-.957.422-1.991.422-9.456 0-7.466-.115-8.5-.421-9.456-.766-2.565-2.948-3.905-6.01-3.905-3.063 0-5.169 1.378-5.973 3.905-.306.957-.46 1.99-.46 9.456 0 7.465.116 8.499.422 9.456zm4.556-1.302c-.115-.383-.153-.842-.153-8.154 0-7.313.038-7.772.153-8.155.191-.612.689-.995 1.454-.995.766 0 1.264.383 1.455.995.115.383.153.842.153 8.155 0 7.312-.038 7.771-.153 8.154-.191.613-.65.995-1.455.995-.765 0-1.263-.382-1.454-.995zm11.37 1.302c.804 2.526 2.948 3.905 6.01 3.905 3.063 0 5.245-1.34 6.01-3.905.307-.957.422-1.991.422-9.456 0-7.466-.115-8.5-.421-9.456-.766-2.565-2.948-3.905-6.01-3.905-3.063 0-5.169 1.378-5.973 3.905-.306.957-.46 1.99-.46 9.456 0 7.465.116 8.499.422 9.456zm4.556-1.302c-.115-.383-.154-.842-.154-8.154 0-7.313.039-7.772.154-8.155.191-.612.689-.995 1.454-.995.766 0 1.264.383 1.455.995.115.383.153.842.153 8.155 0 7.312-.038 7.771-.153 8.154-.191.613-.65.995-1.455.995-.765 0-1.263-.382-1.454-.995zm18.644 4.48c0 .229.153.382.382.382h4.25c.23 0 .383-.153.383-.383v-7.044l1.531-3.216 3.828 10.375c.039.191.154.268.383.268h4.556c.191 0 .306-.191.23-.383l-5.858-15.16 5.207-10.107c.115-.191 0-.383-.192-.383h-4.44c-.23 0-.383.077-.498.307l-4.747 10.068V10.72c0-.23-.153-.383-.383-.383h-4.25c-.23 0-.382.153-.382.383zm32.502.382c.192 0 .268-.191.192-.383l-3.56-11.025c1.799-1.226 2.909-3.37 2.909-6.662 0-5.78-2.986-7.963-7.619-7.963h-6.201c-.23 0-.383.153-.383.383v25.267c0 .23.153.383.383.383h4.249c.23 0 .383-.153.383-.383v-9.57c0-.154.076-.23.23-.23h1.454l2.948 9.877c.077.23.192.306.421.306zm-8.307-14.51h-1.11c-.154 0-.23-.076-.23-.23v-6.66c0-.154.076-.23.23-.23h1.11c1.952 0 2.794.842 2.794 3.56 0 2.757-.842 3.56-2.794 3.56zm10.91 14.127c0 .23.154.383.383.383h3.905c.23 0 .383-.153.383-.383v-4.44c0-.23-.153-.384-.383-.384h-3.905c-.23 0-.382.154-.382.383z" fill="#fff"/></svg>