<svg width="264.463" height="57" viewBox="0 0 264.463 57" xmlns="http://www.w3.org/2000/svg"><path d="M29.45 37.966c0 .242.16.404.403.404h2.464c.242 0 .403-.162.403-.404v-11.55c0-.162.081-.243.243-.243h6.3c.242 0 .404-.161.404-.403v-2.222c0-.242-.162-.404-.404-.404h-6.3c-.162 0-.243-.08-.243-.242V14.18c0-.162.081-.243.243-.243h7.27c.242 0 .403-.161.403-.403V11.31c0-.242-.161-.403-.404-.403H29.853c-.242 0-.404.161-.404.403zm14.7 0c0 .242.161.404.404.404h10.298c.242 0 .404-.162.404-.404v-2.221c0-.242-.162-.404-.404-.404h-7.189c-.161 0-.242-.08-.242-.242V11.31c0-.242-.162-.403-.404-.403h-2.463c-.243 0-.404.161-.404.403zm20.112.767c3.917 0 6.421-2.382 6.421-7.107V11.31c0-.242-.161-.403-.404-.403h-2.463c-.242 0-.404.161-.404.403V32.03c0 2.383-1.212 3.635-3.15 3.635-1.939 0-3.15-1.252-3.15-3.635V11.311c0-.242-.162-.403-.404-.403h-2.464c-.242 0-.403.161-.403.403v20.315c0 4.725 2.503 7.107 6.42 7.107zm11.308-4.079c.848 2.626 2.908 4.08 6.018 4.08s5.21-1.454 6.017-4.08c.404-1.211.525-2.22.525-9.571v-1.171c0-.243-.161-.404-.404-.404h-5.694c-.243 0-.404.161-.404.404v2.14c0 .243.161.404.404.404h2.706c.161 0 .242.08.242.242 0 5.614-.121 6.26-.364 7.028-.403 1.252-1.494 1.938-2.948 1.938s-2.544-.686-2.948-1.938c-.283-.808-.363-1.414-.363-9.087 0-7.674.08-8.28.363-9.087.404-1.252 1.454-1.939 2.908-1.939 1.979 0 3.029 1.252 3.312 3.514.04.242.201.363.484.323l2.262-.444c.242-.04.323-.243.283-.485-.445-3.836-2.585-5.977-6.381-5.977-3.11 0-5.17 1.454-6.018 4.079-.404 1.212-.525 2.221-.525 10.016 0 7.794.121 8.804.525 10.015zm30.532 4.08c3.11 0 5.21-1.454 6.017-4.08.404-1.211.525-2.22.525-10.015s-.12-8.804-.525-10.016c-.807-2.625-2.907-4.079-6.017-4.079-3.11 0-5.17 1.454-6.018 4.079-.404 1.212-.525 2.221-.525 10.016 0 7.794.121 8.804.525 10.015.848 2.626 2.908 4.08 6.018 4.08zm0-3.07c-1.454 0-2.464-.686-2.868-1.938-.282-.808-.363-1.414-.363-9.087 0-7.674.08-8.28.363-9.087.404-1.252 1.414-1.939 2.868-1.939s2.504.687 2.908 1.939c.242.808.323 1.413.323 9.087 0 7.673-.081 8.279-.323 9.087-.404 1.252-1.454 1.938-2.908 1.938zm11.025-1.01c.848 2.626 2.908 4.08 6.018 4.08s5.21-1.454 6.017-4.08c.404-1.211.525-2.22.525-9.571v-1.171c0-.243-.161-.404-.404-.404h-5.694c-.242 0-.404.161-.404.404v2.14c0 .243.162.404.404.404h2.706c.161 0 .242.08.242.242 0 5.614-.121 6.26-.363 7.028-.404 1.252-1.495 1.938-2.949 1.938-1.453 0-2.544-.686-2.948-1.938-.282-.808-.363-1.414-.363-9.087 0-7.674.08-8.28.363-9.087.404-1.252 1.454-1.939 2.908-1.939 1.979 0 3.03 1.252 3.312 3.514.04.242.202.363.484.323l2.262-.444c.242-.04.323-.243.283-.485-.445-3.836-2.585-5.977-6.381-5.977-3.11 0-5.17 1.454-6.018 4.079-.404 1.212-.525 2.221-.525 10.016 0 7.794.121 8.804.525 10.015zm24.515 0c.848 2.626 2.907 4.08 6.017 4.08 3.11 0 5.21-1.454 6.018-4.08.403-1.211.525-2.22.525-9.571v-1.171c0-.243-.162-.404-.404-.404h-5.695c-.242 0-.404.161-.404.404v2.14c0 .243.162.404.404.404h2.706c.162 0 .242.08.242.242 0 5.614-.12 6.26-.363 7.028-.404 1.252-1.494 1.938-2.948 1.938s-2.545-.686-2.948-1.938c-.283-.808-.364-1.414-.364-9.087 0-7.674.08-8.28.364-9.087.403-1.252 1.454-1.939 2.907-1.939 1.98 0 3.03 1.252 3.312 3.514.04.242.202.363.485.323l2.261-.444c.243-.04.323-.243.283-.485-.444-3.836-2.585-5.977-6.381-5.977-3.11 0-5.17 1.454-6.017 4.079-.404 1.212-.526 2.221-.526 10.016 0 7.794.122 8.804.526 10.015zm16.76 3.312c0 .242.161.404.404.404h2.463c.242 0 .404-.162.404-.404V11.311c0-.242-.162-.403-.404-.403h-2.463c-.243 0-.404.161-.404.403zm19.99-7.35c0-4.564-1.251-6.381-4.765-7.795l-1.656-.646c-2.22-.848-2.867-1.817-2.867-4.644 0-2.787.97-3.998 2.989-3.998 2.1 0 2.988 1.332 3.069 4.038 0 .243.202.404.444.323l2.262-.363c.242-.04.363-.202.363-.444-.202-4.281-2.1-6.543-6.22-6.543-4.119 0-6.138 2.423-6.138 7.108 0 4.24 1.05 6.098 4.806 7.552l1.656.646c2.18.848 2.787 2.02 2.787 5.17 0 3.715-.97 4.725-3.07 4.725-2.1 0-3.19-1.212-3.352-4.604 0-.242-.161-.404-.444-.364l-2.383.445c-.242.04-.323.202-.323.444.202 4.725 2.302 7.067 6.462 7.067 4.644 0 6.38-2.584 6.38-8.117zm9.734 7.754c.242 0 .404-.162.404-.404V14.18c0-.162.08-.243.242-.243h4.523c.243 0 .404-.161.404-.403V11.31c0-.242-.161-.403-.404-.403h-12.802c-.242 0-.404.161-.404.403v2.222c0 .242.162.403.404.403h4.523c.162 0 .242.081.242.243v23.787c0 .242.162.404.404.404zm8.642-.404c0 .242.162.404.404.404h2.464c.242 0 .404-.162.404-.404V11.311c0-.242-.162-.403-.404-.403h-2.464c-.242 0-.404.161-.404.403zm8.118 0c0 .242.162.404.404.404h2.14c.243 0 .404-.162.404-.404V17.37h.202l6.26 20.597c.08.283.283.404.606.404h2.867c.242 0 .404-.162.404-.404V11.311c0-.242-.162-.403-.404-.403h-2.14c-.243 0-.404.161-.404.403v20.597h-.162l-6.138-20.597c-.081-.282-.283-.403-.606-.403h-3.03c-.241 0-.403.161-.403.403zm18.214-3.312c.848 2.626 2.908 4.08 6.018 4.08s5.21-1.454 6.017-4.08c.404-1.211.525-2.22.525-9.571v-1.171c0-.243-.161-.404-.404-.404h-5.694c-.242 0-.404.161-.404.404v2.14c0 .243.162.404.404.404h2.706c.161 0 .242.08.242.242 0 5.614-.121 6.26-.363 7.028-.404 1.252-1.495 1.938-2.949 1.938-1.454 0-2.544-.686-2.948-1.938-.283-.808-.363-1.414-.363-9.087 0-7.674.08-8.28.363-9.087.404-1.252 1.454-1.939 2.908-1.939 1.979 0 3.029 1.252 3.312 3.514.04.242.202.363.484.323l2.262-.444c.242-.04.323-.243.283-.485-.445-3.836-2.585-5.977-6.381-5.977-3.11 0-5.17 1.454-6.018 4.079-.404 1.212-.525 2.221-.525 10.016 0 7.794.121 8.804.525 10.015z" fill="#fff"/></svg>