<svg width="227.5" height="42" viewBox="0 0 227.5 42" xmlns="http://www.w3.org/2000/svg"><path d="M35.327 27.636c0 .176.118.294.294.294h.941c.177 0 .294-.118.294-.294v-9.084c0-.118.059-.177.177-.177h5.262c.118 0 .176.059.176.177v9.084c0 .176.118.294.294.294h.941c.177 0 .294-.118.294-.294V8.232c0-.176-.117-.293-.294-.293h-.94c-.177 0-.295.117-.295.293v8.526c0 .118-.058.177-.176.177h-5.262c-.118 0-.177-.06-.177-.177V8.232c0-.176-.117-.293-.294-.293h-.94c-.177 0-.295.117-.295.293zm12.672 0c0 .176.117.294.294.294h6.79c.177 0 .295-.118.295-.294v-.853c0-.176-.118-.294-.294-.294h-5.38c-.118 0-.177-.058-.177-.176v-7.614c0-.118.06-.177.177-.177h4.704c.176 0 .294-.117.294-.294v-.852c0-.177-.118-.294-.294-.294h-4.704c-.118 0-.177-.06-.177-.177v-7.35c0-.117.06-.176.177-.176h5.38c.176 0 .294-.118.294-.294v-.853c0-.176-.118-.293-.294-.293h-6.791c-.177 0-.294.117-.294.293zm10.319 0c0 .176.117.294.294.294h6.762c.176 0 .294-.118.294-.294v-.853c0-.176-.118-.294-.294-.294h-5.351c-.118 0-.177-.058-.177-.176V8.233c0-.177-.117-.294-.294-.294h-.94c-.177 0-.294.117-.294.293zm9.466-2.205c.588 1.793 1.97 2.734 4.028 2.734s3.44-.94 4.028-2.734c.294-.882.382-1.646.382-6.82v-.794c0-.177-.118-.294-.294-.294h-3.763c-.177 0-.294.117-.294.294v.823c0 .176.117.294.294.294h2.381c.118 0 .176.059.176.176 0 4.557-.088 5.174-.294 5.85-.411 1.177-1.322 1.765-2.587 1.765-1.264 0-2.175-.588-2.587-1.764-.206-.677-.294-1.294-.294-7.027 0-5.733.088-6.35.294-7.026.412-1.206 1.294-1.764 2.558-1.764 1.764 0 2.616 1.088 2.881 2.852.03.176.147.264.353.205l.852-.176c.177-.059.236-.176.206-.382-.323-2.41-1.705-3.94-4.292-3.94-2.058 0-3.44.941-4.028 2.734-.294.882-.382 1.647-.382 7.497s.088 6.615.382 7.497zm10.378 2.205c-.03.176.118.294.294.294h.941c.176 0 .265-.118.294-.294l1-4.792h4.88l1 4.792c.029.176.117.294.323.294h.94c.177 0 .295-.118.265-.294L83.983 8.232c-.03-.176-.147-.293-.323-.293h-.97c-.177 0-.265.117-.324.293zm2.823-6.174l2.146-10.201h.058l2.088 10.201zm18.168 6.468c.147 0 .206-.118.147-.294l-2.704-9.114c1.587-.705 2.47-2.264 2.47-5.056 0-4.058-1.588-5.527-5.087-5.527h-2.852c-.176 0-.294.117-.294.293v19.404c0 .176.118.294.294.294h.941c.176 0 .294-.118.294-.294v-8.467c0-.118.059-.176.176-.176h1.382c.441 0 .853-.03 1.235-.089l2.587 8.82c.059.147.147.206.323.206zm-5.056-10.349h-1.559c-.117 0-.176-.058-.176-.176v-7.85c0-.117.059-.176.176-.176h1.559c2.44 0 3.44 1 3.44 4.087 0 3.204-1.06 4.115-3.44 4.115zm8.614 10.055c0 .176.117.294.294.294h.94c.177 0 .294-.118.294-.294v-8.82c0-.117.06-.176.177-.176h4.704c.176 0 .294-.118.294-.294v-.853c0-.176-.118-.294-.294-.294h-4.704c-.118 0-.177-.059-.177-.176V9.555c0-.117.06-.176.177-.176h5.38c.176 0 .294-.118.294-.294v-.853c0-.176-.118-.293-.294-.293h-6.791c-.177 0-.294.117-.294.293zm10.23 0c0 .176.118.294.295.294h6.79c.177 0 .295-.118.295-.294v-.853c0-.176-.118-.294-.294-.294h-5.38c-.118 0-.177-.058-.177-.176v-7.614c0-.118.06-.177.177-.177h4.704c.176 0 .294-.117.294-.294v-.852c0-.177-.118-.294-.294-.294h-4.704c-.118 0-.177-.06-.177-.177v-7.35c0-.117.06-.176.177-.176h5.38c.176 0 .294-.118.294-.294v-.853c0-.176-.118-.293-.294-.293h-6.791c-.177 0-.294.117-.294.293zm18.64.294c.147 0 .205-.118.147-.294l-2.705-9.114c1.587-.705 2.47-2.264 2.47-5.056 0-4.058-1.588-5.527-5.087-5.527h-2.851c-.177 0-.294.117-.294.293v19.404c0 .176.117.294.294.294h.94c.177 0 .294-.118.294-.294v-8.467c0-.118.06-.176.177-.176h1.382c.44 0 .852-.03 1.234-.089l2.587 8.82c.06.147.147.206.324.206zm-5.057-10.349h-1.558c-.118 0-.177-.058-.177-.176v-7.85c0-.117.06-.176.177-.176h1.558c2.44 0 3.44 1 3.44 4.087 0 3.204-1.059 4.115-3.44 4.115zm12.495 10.349c2.41 0 3.733-1.058 4.35-2.97.354-1.087.471-2.41.471-7.026 0-4.645-.117-5.938-.47-7.026-.618-1.911-1.94-2.97-4.351-2.97h-3.587c-.176 0-.294.118-.294.294v8.732c0 .118-.059.176-.176.176h-1c-.176 0-.294.118-.294.294v.706c0 .176.118.294.294.294h1c.117 0 .176.059.176.176v9.026c0 .176.118.294.294.294zm-.177-1.44h-1.999c-.117 0-.176-.06-.176-.177V18.61c0-.117.059-.176.176-.176h2.205c.176 0 .294-.118.294-.294v-.706c0-.176-.118-.294-.294-.294h-2.205c-.117 0-.176-.058-.176-.176V9.555c0-.117.059-.176.176-.176h2c1.675 0 2.586.647 3.057 2.029.294.911.411 2.116.411 6.526s-.117 5.616-.411 6.527c-.47 1.382-1.382 2.028-3.058 2.028zm14.112 1.146c0 .176.118.294.294.294h.94c.177 0 .295-.118.295-.294V8.232c0-.176-.118-.293-.294-.293h-.941c-.176 0-.294.117-.294.293zM154.07 5.44c.206 0 .294-.06.5-.294l2.558-3.029c.117-.147.058-.294-.118-.294h-.97c-.265 0-.353.089-.5.294l-2.205 3.029c-.117.147-.059.294.118.294zm9.82 22.196c0 .176.117.294.293.294h.853c.176 0 .294-.118.294-.294V12.29h.088l3.528 11.789c.059.205.147.294.324.294h.587c.177 0 .265-.089.324-.294l3.528-11.79h.088v15.347c0 .176.118.294.294.294h.853c.176 0 .294-.118.294-.294V8.232c0-.176-.118-.293-.294-.293h-1c-.176 0-.323.088-.382.293l-3.94 13.407h-.059l-3.998-13.407c-.059-.205-.176-.293-.382-.293h-1c-.176 0-.294.117-.294.293zm14.082 0c-.03.176.117.294.294.294h.94c.177 0 .265-.118.294-.294l1-4.792h4.88l1 4.792c.03.176.117.294.323.294h.941c.176 0 .294-.118.265-.294l-4.116-19.404c-.03-.176-.147-.293-.324-.293h-.97c-.176 0-.264.117-.323.293zm2.822-6.174l2.146-10.201H183l2.087 10.201zm9.849 6.174c0 .176.117.294.294.294h.94c.177 0 .295-.118.295-.294V8.232c0-.176-.118-.293-.294-.293h-.941c-.177 0-.294.117-.294.293zM191.76 5.44c.206 0 .294-.06.5-.294l2.557-3.029c.118-.147.06-.294-.117-.294h-.97c-.265 0-.353.089-.5.294l-2.205 3.029c-.118.147-.059.294.118.294z" fill="#fff"/></svg>