<svg width="259.262" height="50" viewBox="0 0 259.262 50" xmlns="http://www.w3.org/2000/svg"><path d="M30.35 33.068c0 .211.14.352.351.352h2.146c.211 0 .352-.14.352-.352v-10.06c0-.14.07-.21.21-.21h5.488c.211 0 .352-.142.352-.353v-1.934c0-.211-.14-.352-.352-.352H33.41c-.14 0-.211-.07-.211-.211V12.35c0-.14.07-.21.21-.21h6.332c.211 0 .352-.142.352-.353V9.853c0-.211-.14-.352-.352-.352h-9.04c-.21 0-.351.14-.351.352zm12.803 0c0 .211.141.352.352.352h8.97c.21 0 .351-.14.351-.352v-1.934c0-.211-.14-.352-.351-.352h-6.261c-.141 0-.211-.07-.211-.211V9.853c0-.211-.141-.352-.352-.352h-2.146c-.21 0-.352.14-.352.352zm17.517.669c3.412 0 5.593-2.076 5.593-6.191V9.853c0-.211-.14-.352-.351-.352h-2.146c-.211 0-.352.14-.352.352v18.045c0 2.075-1.055 3.165-2.744 3.165-1.688 0-2.743-1.09-2.743-3.165V9.853c0-.211-.14-.352-.352-.352H55.43c-.21 0-.351.14-.351.352v17.693c0 4.115 2.18 6.19 5.592 6.19zm9.85-3.553c.738 2.286 2.532 3.553 5.24 3.553 2.709 0 4.538-1.267 5.242-3.553.351-1.055.457-1.935.457-8.337v-1.02c0-.21-.14-.351-.352-.351h-4.96c-.21 0-.351.14-.351.351v1.865c0 .21.14.351.351.351h2.357c.14 0 .211.07.211.211 0 4.89-.105 5.453-.316 6.12-.352 1.091-1.302 1.69-2.568 1.69s-2.216-.599-2.568-1.69c-.246-.703-.316-1.23-.316-7.913 0-6.684.07-7.211.316-7.915.352-1.09 1.266-1.688 2.533-1.688 1.723 0 2.638 1.09 2.884 3.06.035.211.176.317.422.281l1.97-.387c.211-.035.281-.21.246-.422-.387-3.341-2.251-5.206-5.557-5.206-2.709 0-4.503 1.267-5.242 3.553-.351 1.055-.457 1.935-.457 8.724 0 6.788.106 7.668.457 8.723zM92.01 28.53c0 3.13 1.865 5.206 5.066 5.206 2.18 0 3.798-.95 5.24-2.955l.74 1.266c.597 1.055 1.054 1.372 2.18 1.372h.774c.211 0 .352-.14.352-.352V31.31c0-.212-.141-.352-.352-.352h-.14c-.423 0-.67-.14-1.091-.915l-.985-1.688 2.216-3.975c.105-.211.07-.387-.106-.492l-1.371-.774c-.211-.14-.352-.07-.458.14l-1.618 2.814-3.06-5.311c2.779-3.236 3.623-4.995 3.623-6.86 0-2.883-1.97-4.713-4.678-4.713-2.709 0-4.643 1.83-4.643 4.714 0 1.653.738 3.271 2.18 5.769l.493.844c-2.955 3.482-4.362 5.663-4.362 8.02zm6.086-10.025c-1.548-2.744-1.865-3.834-1.865-4.678 0-1.548.845-2.427 2.146-2.427s2.146.879 2.146 2.427c0 1.371-.493 2.391-2.427 4.678zm-3.553 9.954c0-1.653.914-3.13 3.13-5.698l3.342 5.804c-1.372 2.11-2.462 2.744-3.799 2.744-1.618 0-2.673-1.02-2.673-2.85zm22.688 4.608c0 .211.14.352.351.352h2.146c.211 0 .352-.14.352-.352v-10.06c0-.14.07-.21.211-.21h5.487c.211 0 .352-.142.352-.353v-1.934c0-.211-.14-.352-.352-.352h-5.487c-.14 0-.211-.07-.211-.211V12.35c0-.14.07-.21.211-.21h6.331c.211 0 .352-.142.352-.353V9.853c0-.211-.14-.352-.352-.352h-9.04c-.21 0-.351.14-.351.352zm10.447 0c-.035.211.105.352.316.352h2.11c.212 0 .317-.14.352-.352l1.056-5.24h5.311l1.055 5.24c.036.211.141.352.387.352h2.11c.212 0 .353-.14.317-.352l-5.03-23.215c-.035-.211-.175-.352-.387-.352h-2.11c-.211 0-.317.14-.387.352zm4.326-7.703l2.181-10.412h.106l2.04 10.412zm22.688 8.055c.176 0 .246-.176.176-.352l-3.342-10.587c1.865-.95 2.92-2.885 2.92-6.086 0-5.065-2.251-6.894-6.472-6.894h-4.186c-.211 0-.352.14-.352.352v23.215c0 .211.14.352.352.352h2.145c.212 0 .352-.14.352-.352V23.43c0-.14.07-.21.211-.21h1.442c.317 0 .669 0 .985-.036l2.99 9.99c.07.176.176.246.387.246zm-6.683-12.768h-1.513c-.14 0-.21-.07-.21-.212v-8.09c0-.14.07-.21.21-.21h1.513c2.532 0 3.588 1.02 3.588 4.255 0 3.272-1.126 4.257-3.588 4.257zm8.758 12.416c-.035.211.106.352.317.352h2.11c.211 0 .317-.14.352-.352l1.055-5.24h5.312l1.055 5.24c.035.211.14.352.387.352h2.11c.212 0 .352-.14.317-.352l-5.03-23.215c-.035-.211-.176-.352-.387-.352h-2.11c-.211 0-.317.14-.387.352zm4.327-7.703l2.18-10.412h.106l2.04 10.412zm11.432 7.703c0 .211.14.352.351.352h1.865c.21 0 .351-.14.351-.352V15.13h.176l5.452 17.94c.07.245.247.351.528.351h2.497c.212 0 .352-.14.352-.352V9.853c0-.211-.14-.352-.352-.352h-1.864c-.21 0-.352.14-.352.352v17.939h-.14l-5.347-17.94c-.07-.245-.246-.35-.527-.35h-2.639c-.21 0-.351.14-.351.35zm15.864-2.884c.738 2.286 2.532 3.553 5.24 3.553 2.71 0 4.538-1.267 5.242-3.553.351-1.055.457-1.935.457-8.337v-1.02c0-.21-.14-.351-.352-.351h-4.96c-.21 0-.351.14-.351.351v1.865c0 .21.14.351.352.351h2.356c.141 0 .211.07.211.211 0 4.89-.105 5.453-.316 6.12-.352 1.091-1.302 1.69-2.568 1.69s-2.216-.599-2.568-1.69c-.246-.703-.316-1.23-.316-7.913 0-6.684.07-7.211.316-7.915.352-1.09 1.266-1.688 2.533-1.688 1.723 0 2.638 1.09 2.884 3.06.035.211.176.317.422.281l1.97-.387c.211-.035.281-.21.246-.422-.387-3.341-2.25-5.206-5.557-5.206-2.709 0-4.503 1.267-5.241 3.553-.352 1.055-.458 1.935-.458 8.724 0 6.788.106 7.668.458 8.723zm20.155 3.553c3.412 0 5.593-2.076 5.593-6.191V9.853c0-.211-.141-.352-.352-.352h-2.146c-.21 0-.352.14-.352.352v18.045c0 2.075-1.055 3.165-2.743 3.165-1.689 0-2.744-1.09-2.744-3.165V9.853c0-.211-.14-.352-.352-.352h-2.145c-.211 0-.352.14-.352.352v17.693c0 4.115 2.18 6.19 5.593 6.19zm21.034-.317c.176 0 .247-.176.176-.352l-3.341-10.587c1.864-.95 2.92-2.885 2.92-6.086 0-5.065-2.252-6.894-6.473-6.894h-4.186c-.21 0-.352.14-.352.352v23.215c0 .211.141.352.352.352h2.146c.21 0 .352-.14.352-.352V23.43c0-.14.07-.21.21-.21h1.443c.316 0 .668 0 .985-.036l2.99 9.99c.07.176.175.246.386.246zm-6.683-12.768h-1.512c-.141 0-.211-.07-.211-.212v-8.09c0-.14.07-.21.21-.21h1.513c2.533 0 3.588 1.02 3.588 4.255 0 3.272-1.126 4.257-3.588 4.257z" fill="#fff"/></svg>