<svg width="227.5" height="34" viewBox="0 0 227.5 34" xmlns="http://www.w3.org/2000/svg"><path d="M60.44 21.082c.518 1.624 1.895 2.51 3.863 2.51s3.37-.862 3.862-2.51c.197-.615.271-1.28.271-6.076 0-4.797-.074-5.461-.27-6.076-.493-1.649-1.895-2.51-3.863-2.51s-3.32.886-3.837 2.51c-.197.615-.296 1.279-.296 6.076s.074 5.461.27 6.076zm2.928-.836c-.073-.246-.098-.541-.098-5.24s.025-4.994.098-5.24c.123-.394.443-.64.935-.64.492 0 .812.246.935.64.074.246.098.541.098 5.24s-.024 4.994-.098 5.24c-.123.393-.418.64-.935.64-.492 0-.812-.247-.935-.64zm7.331.86c.517 1.575 1.796 2.485 3.838 2.485s3.321-.885 3.862-2.484c.148-.468.222-1.083.222-3.124 0-2.362-.074-2.953-.271-3.518-.443-1.403-1.427-2.067-3.026-2.067-.836 0-1.476.27-1.845.64h-.024V9.545c0-.099.049-.148.147-.148h4.748c.148 0 .246-.098.246-.246V6.888c0-.148-.098-.246-.246-.246h-7.38c-.148 0-.246.098-.246.246v8.831c0 .172.098.246.246.246h2.19c.196 0 .295-.049.344-.221.147-.418.443-.689.984-.689.492 0 .812.221.96.664.073.197.098.443.098 2.264 0 1.82-.025 2.066-.099 2.263-.147.443-.443.64-.96.64-.491 0-.786-.222-.934-.665-.074-.197-.098-.418-.098-1.058 0-.196-.123-.27-.296-.246l-2.435.246c-.172.025-.246.123-.246.296 0 .59.074 1.156.221 1.648zm10.013 2.018c0 .148.098.246.246.246h2.509c.147 0 .246-.098.246-.246V20.27c0-.147-.099-.246-.246-.246h-2.51c-.147 0-.245.099-.245.246zm9.668-4.87h6.593c.147 0 .246-.1.246-.247v-2.312c0-.148-.099-.246-.246-.246H90.38c-.148 0-.246.098-.246.246v2.312c0 .148.098.246.246.246zm13.85 2.828c.516 1.624 1.894 2.51 3.862 2.51 1.968 0 3.37-.862 3.862-2.51.197-.615.27-1.28.27-6.076 0-4.797-.073-5.461-.27-6.076-.492-1.649-1.894-2.51-3.862-2.51-1.968 0-3.321.886-3.838 2.51-.197.615-.295 1.279-.295 6.076s.074 5.461.27 6.076zm2.927-.836c-.074-.246-.098-.541-.098-5.24s.024-4.994.098-5.24c.123-.394.443-.64.935-.64.492 0 .812.246.935.64.074.246.098.541.098 5.24s-.024 4.994-.098 5.24c-.123.393-.418.64-.935.64-.492 0-.812-.247-.935-.64zm7.282.836c.516 1.6 1.845 2.51 3.887 2.51s3.37-.91 3.887-2.51c.147-.492.22-1.033.22-2.583 0-1.255-.048-1.747-.22-2.288-.222-.689-.615-1.23-1.157-1.574v-.05c.566-.344.935-.91 1.157-1.598.147-.492.22-1.009.22-1.87 0-1.132-.073-1.697-.22-2.19-.517-1.598-1.845-2.509-3.887-2.509s-3.37.91-3.887 2.51c-.148.492-.222 1.057-.222 2.189 0 .861.05 1.378.222 1.87.221.688.615 1.254 1.156 1.599v.049c-.517.344-.935.885-1.156 1.574-.172.541-.222 1.033-.222 2.288 0 1.55.074 2.091.222 2.583zm3.887-7.749c-.492 0-.788-.221-.935-.664-.074-.222-.099-.517-.099-1.452 0-.934.025-1.205.099-1.426.147-.443.443-.665.935-.665.492 0 .787.222.934.665.074.221.099.492.099 1.426 0 .935-.025 1.23-.099 1.452-.147.443-.442.664-.934.664zm-.935 6.888c-.074-.221-.099-.443-.099-1.771 0-1.329.025-1.525.099-1.747.147-.418.443-.664.935-.664.492 0 .787.246.934.664.074.222.099.418.099 1.747 0 1.328-.025 1.55-.099 1.771-.147.418-.442.664-.934.664-.492 0-.788-.246-.935-.664zm7.11 2.903c0 .148.098.246.245.246h2.51c.147 0 .246-.098.246-.246V20.27c0-.147-.099-.246-.246-.246h-2.51c-.147 0-.246.099-.246.246zm9.594 0c0 .148.098.246.246.246h2.386c.147 0 .246-.098.246-.246v-9.668h.147l1.82 6.691c.05.148.148.246.32.246h1.354c.172 0 .27-.098.32-.246l1.82-6.691h.147v9.668c0 .148.099.246.246.246h2.387c.147 0 .246-.098.246-.246V6.888c0-.148-.099-.246-.246-.246H142.9c-.22 0-.344.074-.393.246l-2.46 8.782h-.099l-2.558-8.782c-.05-.172-.172-.246-.394-.246h-2.656c-.148 0-.246.098-.246.246zm13.038 0c-.025.148.049.246.197.246h2.73c.172 0 .246-.098.27-.246l.567-3.026h3.173l.541 3.026c.025.148.099.246.27.246h2.732c.147 0 .22-.098.196-.246l-3.591-16.236c-.025-.148-.123-.246-.27-.246h-2.904c-.147 0-.221.098-.27.246zm4.231-5.584l1.107-5.806h.074l1.058 5.806zm7.798 5.584c0 .148.099.246.246.246h2.731c.148 0 .246-.098.246-.246V6.888c0-.148-.098-.246-.246-.246h-2.73c-.148 0-.247.098-.247.246zm2.362-18.327c.197 0 .32-.074.492-.246l2.558-2.805c.099-.123.025-.246-.123-.246h-2.46c-.196 0-.27.074-.393.246l-2.017 2.805c-.099.123-.025.246.123.246z" fill="#fff"/></svg>