<svg width="342.054" height="49" viewBox="0 0 342.054 49" xmlns="http://www.w3.org/2000/svg"><path d="M71.746 33.068c0 .211.14.352.352.352h2.145c.212 0 .352-.14.352-.352v-10.06c0-.14.07-.21.211-.21h5.488c.21 0 .351-.142.351-.353v-1.934c0-.211-.14-.352-.351-.352h-5.488c-.14 0-.21-.07-.21-.211V12.35c0-.14.07-.21.21-.21h6.332c.21 0 .352-.142.352-.353V9.853c0-.211-.141-.352-.352-.352h-9.04c-.211 0-.352.14-.352.352zm12.804 0c0 .211.14.352.351.352h8.97c.211 0 .352-.14.352-.352v-1.934c0-.211-.14-.352-.352-.352H87.61c-.14 0-.211-.07-.211-.211V9.853c0-.211-.14-.352-.352-.352h-2.146c-.21 0-.351.14-.351.352zm17.517.669c3.412 0 5.593-2.076 5.593-6.191V9.853c0-.211-.141-.352-.352-.352h-2.146c-.21 0-.352.14-.352.352v18.045c0 2.075-1.055 3.165-2.743 3.165-1.689 0-2.744-1.09-2.744-3.165V9.853c0-.211-.14-.352-.352-.352h-2.145c-.211 0-.352.14-.352.352v17.693c0 4.115 2.18 6.19 5.593 6.19zm9.849-3.553c.738 2.286 2.532 3.553 5.24 3.553 2.71 0 4.538-1.267 5.242-3.553.352-1.055.457-1.935.457-8.337v-1.02c0-.21-.14-.351-.352-.351h-4.96c-.21 0-.351.14-.351.351v1.865c0 .21.14.351.352.351h2.357c.14 0 .21.07.21.211 0 4.89-.105 5.453-.316 6.12-.352 1.091-1.301 1.69-2.568 1.69-1.266 0-2.216-.599-2.568-1.69-.246-.703-.316-1.23-.316-7.913 0-6.684.07-7.211.316-7.915.352-1.09 1.267-1.688 2.533-1.688 1.724 0 2.638 1.09 2.884 3.06.036.211.176.317.422.281l1.97-.387c.211-.035.282-.21.246-.422-.386-3.341-2.25-5.206-5.557-5.206-2.709 0-4.503 1.267-5.241 3.553-.352 1.055-.457 1.935-.457 8.724 0 6.788.105 7.668.457 8.723zm21.492-1.653c0 3.13 1.864 5.206 5.065 5.206 2.18 0 3.799-.95 5.24-2.955l.74 1.266c.598 1.055 1.055 1.372 2.18 1.372h.774c.211 0 .352-.14.352-.352V31.31c0-.212-.14-.352-.352-.352h-.14c-.423 0-.669-.14-1.09-.915l-.986-1.688 2.216-3.975c.106-.211.07-.387-.105-.492l-1.372-.774c-.211-.14-.352-.07-.457.14l-1.618 2.814-3.06-5.311c2.778-3.236 3.622-4.995 3.622-6.86 0-2.883-1.97-4.713-4.678-4.713s-4.643 1.83-4.643 4.714c0 1.653.739 3.271 2.18 5.769l.493.844c-2.954 3.482-4.361 5.663-4.361 8.02zm6.085-10.025c-1.548-2.744-1.864-3.834-1.864-4.678 0-1.548.844-2.427 2.145-2.427 1.302 0 2.146.879 2.146 2.427 0 1.371-.492 2.391-2.427 4.678zm-3.553 9.954c0-1.653.915-3.13 3.13-5.698l3.342 5.804c-1.371 2.11-2.462 2.744-3.798 2.744-1.618 0-2.674-1.02-2.674-2.85zm22.688 4.608c0 .211.14.352.352.352h2.145c.212 0 .352-.14.352-.352v-10.06c0-.14.07-.21.211-.21h5.488c.21 0 .351-.142.351-.353v-1.934c0-.211-.14-.352-.351-.352h-5.488c-.14 0-.21-.07-.21-.211V12.35c0-.14.07-.21.21-.21h6.332c.21 0 .352-.142.352-.353V9.853c0-.211-.141-.352-.352-.352h-9.04c-.211 0-.352.14-.352.352zm10.447 0c-.035.211.106.352.317.352h2.11c.211 0 .317-.14.352-.352l1.055-5.24h5.311l1.056 5.24c.035.211.14.352.387.352h2.11c.211 0 .352-.14.317-.352l-5.03-23.215c-.035-.211-.176-.352-.387-.352h-2.11c-.212 0-.317.14-.388.352zm4.327-7.703l2.18-10.412h.106l2.04 10.412zm22.687 8.055c.176 0 .247-.176.176-.352l-3.341-10.587c1.864-.95 2.92-2.885 2.92-6.086 0-5.065-2.252-6.894-6.473-6.894h-4.186c-.21 0-.352.14-.352.352v23.215c0 .211.141.352.352.352h2.146c.21 0 .352-.14.352-.352V23.43c0-.14.07-.21.21-.21h1.443c.316 0 .668 0 .985-.036l2.99 9.99c.07.176.175.246.386.246zm-6.683-12.768h-1.512c-.141 0-.211-.07-.211-.212v-8.09c0-.14.07-.21.21-.21h1.513c2.533 0 3.588 1.02 3.588 4.255 0 3.272-1.126 4.257-3.588 4.257zm8.759 12.416c-.036.211.105.352.316.352h2.11c.212 0 .317-.14.352-.352l1.056-5.24h5.311l1.055 5.24c.036.211.141.352.387.352h2.11c.212 0 .353-.14.317-.352l-5.03-23.215c-.035-.211-.176-.352-.387-.352h-2.11c-.211 0-.317.14-.387.352zm4.326-7.703l2.181-10.412h.106l2.04 10.412zm11.432 7.703c0 .211.14.352.352.352h1.864c.211 0 .352-.14.352-.352V15.13h.176l5.452 17.94c.07.245.246.351.527.351h2.498c.21 0 .352-.14.352-.352V9.853c0-.211-.141-.352-.352-.352h-1.864c-.212 0-.352.14-.352.352v17.939h-.14l-5.347-17.94c-.07-.245-.247-.35-.528-.35h-2.638c-.211 0-.352.14-.352.35zm15.864-2.884c.739 2.286 2.532 3.553 5.241 3.553 2.708 0 4.538-1.267 5.241-3.553.352-1.055.457-1.935.457-8.337v-1.02c0-.21-.14-.351-.351-.351h-4.96c-.211 0-.352.14-.352.351v1.865c0 .21.14.351.352.351h2.357c.14 0 .21.07.21.211 0 4.89-.105 5.453-.316 6.12-.352 1.091-1.301 1.69-2.568 1.69-1.266 0-2.216-.599-2.567-1.69-.247-.703-.317-1.23-.317-7.913 0-6.684.07-7.211.317-7.915.351-1.09 1.266-1.688 2.532-1.688 1.724 0 2.638 1.09 2.884 3.06.036.211.176.317.423.281l1.97-.387c.21-.035.28-.21.246-.422-.387-3.341-2.252-5.206-5.558-5.206-2.709 0-4.502 1.267-5.241 3.553-.352 1.055-.457 1.935-.457 8.724 0 6.788.105 7.668.457 8.723zm20.155 3.553c3.412 0 5.593-2.076 5.593-6.191V9.853c0-.211-.14-.352-.352-.352h-2.145c-.212 0-.352.14-.352.352v18.045c0 2.075-1.055 3.165-2.744 3.165-1.688 0-2.744-1.09-2.744-3.165V9.853c0-.211-.14-.352-.351-.352H244.7c-.211 0-.352.14-.352.352v17.693c0 4.115 2.181 6.19 5.593 6.19zm21.035-.317c.176 0 .246-.176.176-.352l-3.342-10.587c1.864-.95 2.92-2.885 2.92-6.086 0-5.065-2.252-6.894-6.473-6.894h-4.186c-.21 0-.351.14-.351.352v23.215c0 .211.14.352.351.352h2.146c.211 0 .352-.14.352-.352V23.43c0-.14.07-.21.211-.21h1.442c.317 0 .668 0 .985-.036l2.99 9.99c.07.176.176.246.387.246zm-6.684-12.768h-1.512c-.14 0-.211-.07-.211-.212v-8.09c0-.14.07-.21.211-.21h1.512c2.533 0 3.588 1.02 3.588 4.255 0 3.272-1.125 4.257-3.588 4.257z" fill="#fff"/></svg>