<svg width="144.273" height="13" viewBox="0 0 144.273 13" xmlns="http://www.w3.org/2000/svg"><path d="M38.44 6.838q0 1.04-.639 1.526-.637.486-1.714.486h-2.57V2.257h2.419q1.02 0 1.648.477.628.477.628 1.469 0 .727-.472 1.18.7.463.7 1.455zm-1.55-2.626q0-.406-.24-.538-.242-.132-.695-.132h-1.086V4.92h1.086q.453 0 .694-.142.241-.142.241-.567zm-.061 3.221q.26-.142.26-.585 0-.444-.26-.59-.26-.147-.742-.147H34.87v1.464h1.218q.482 0 .742-.142zm5.898-2.673q.52.661.52 1.766 0 1.106-.52 1.762-.52.656-1.596.656-1.077 0-1.596-.656-.52-.656-.52-1.762 0-1.105.52-1.766t1.596-.661q1.077 0 1.596.661zm-.954 2.616q.17-.32.17-.85 0-.529-.17-.854-.17-.326-.642-.326-.482 0-.647.32-.165.322-.165.86 0 .539.165.855.165.317.647.317.472 0 .642-.322zm-1.69-3.598l.812-1.54h1.285l-1.219 1.54h-.878zm7.877.406l-1.246 2.078 1.52 2.588h-1.37L45.43 6.262l1.2-2.078h1.331zm-3.816-1.927h1.238V8.85h-1.238V2.257zM52.286 5.6v2.37l.19.709-1.106.283-.094-.302q-.406.312-1.03.312-.727 0-1.228-.411-.5-.411-.5-1.12 0-.66.42-1.048.42-.387 1.28-.434h.708q.16-.01.16-.123v-.132q0-.199-.15-.317-.151-.118-.378-.118-.595 0-.794.444l-1.086-.378q.378-1.209 1.88-1.209.67 0 1.2.411.528.41.528 1.063zm-1.2 2.012V6.81q-.094.066-.235.066h-.53q-.651.019-.651.567 0 .217.194.34.193.122.41.122.444 0 .813-.292zm6.547-1.134q0 1.134-.506 1.79-.505.657-1.544.657-1.077 0-1.568-.685-.491-.685-.491-1.762 0-1.114.5-1.762.501-.647 1.55-.647.132 0 .18.01l-.086-.198h-1.133V2.87h.68l-.492-1.096h1.172l.49 1.096h.87v1.01h-.406l.49 1.011q.294.539.294 1.587zm-1.105.01q0-.652-.199-1.002-.198-.35-.755-.35-.303 0-.501.114t-.293.321q-.094.208-.123.416-.028.208-.028.5 0 .643.198.992.199.35.747.35.302 0 .505-.109.203-.108.293-.316.09-.208.123-.416t.033-.5zm4.94-2.305h1.284V8.85h-1.048l-.047-.198q-.407.283-.85.283-.964 0-1.46-.538-.496-.539-.496-1.502V4.184h1.285V6.81q0 .434.142.656.141.222.557.222.274 0 .453-.18.18-.179.18-.462V4.184zm8.879 3.24q0 .708-.562 1.114-.562.406-1.3.406-1.633 0-1.935-1.284l1.114-.302q.18.444.803.444.605 0 .605-.322 0-.18-.255-.302-.256-.123-.624-.217-.368-.095-.732-.232t-.619-.444q-.255-.306-.255-.76 0-.699.496-1.067.496-.369 1.223-.369.662 0 1.058.203.397.204.747.732l-.983.548q-.274-.368-.699-.368-.548 0-.548.321 0 .16.255.26.255.099.614.189.36.09.723.222.364.132.619.444.255.311.255.784zm4.326-2.664q.52.661.52 1.766 0 1.106-.52 1.762-.52.656-1.596.656-1.077 0-1.597-.656t-.52-1.762q0-1.105.52-1.766t1.597-.661q1.076 0 1.596.661zm-.954 2.616q.17-.32.17-.85 0-.529-.17-.854-.17-.326-.642-.326-.482 0-.648.32-.165.322-.165.86 0 .539.165.855.166.317.648.317.472 0 .642-.322zm-1.691-3.598l.812-1.54h1.285l-1.219 1.54h-.878zm5.592 3.995l.01 1.077q-.785 0-1.162-.293-.378-.293-.378-1.048V2.257h1.218V7.49q0 .16.071.222.07.061.24.061zm3.74-3.59h1.247V8.85H81.36V4.184zm.369-.405l.812-1.54h1.285l-1.219 1.54h-.878zm8.425 3.646q0 .708-.562 1.114-.562.406-1.298.406-1.635 0-1.937-1.284l1.115-.302q.18.444.803.444.604 0 .604-.322 0-.18-.255-.302-.255-.123-.623-.217-.369-.095-.732-.232-.364-.137-.619-.444-.255-.306-.255-.76 0-.699.496-1.067.496-.369 1.223-.369.661 0 1.058.203.397.204.746.732l-.982.548q-.274-.368-.7-.368-.547 0-.547.321 0 .16.255.26.255.099.614.189t.723.222q.363.132.618.444.255.311.255.784zm3.42-3.24h1.284V8.85H93.81l-.047-.198q-.407.283-.85.283-.964 0-1.46-.538-.496-.539-.496-1.502V4.184h1.285V6.81q0 .434.142.656.141.222.557.222.274 0 .453-.18.18-.179.18-.462V4.184zm8.87 2.04V8.85h-1.295V6.224q0-.425-.127-.647-.128-.222-.525-.222-.17 0-.292.076-.123.075-.18.165-.056.09-.085.27-.028.179-.033.273-.005.095-.005.293V8.85h-1.294V6.224q0-.416-.127-.642-.128-.227-.515-.227-.264 0-.425.175-.16.175-.16.44v2.88h-1.295V4.184h1.058l.047.189q.378-.293.775-.293.435 0 .723.1.288.098.637.372.539-.472 1.171-.472.964 0 1.455.586.491.585.491 1.558zm4.618-.623v2.37l.19.709-1.106.283-.094-.302q-.407.312-1.03.312-.727 0-1.228-.411-.5-.411-.5-1.12 0-.66.42-1.048.42-.387 1.28-.434h.708q.16-.01.16-.123v-.132q0-.199-.15-.317-.152-.118-.378-.118-.595 0-.794.444l-1.086-.378q.378-1.209 1.88-1.209.67 0 1.2.411.528.41.528 1.063zm-1.2 2.012V6.81q-.094.066-.236.066h-.528q-.652.019-.652.567 0 .217.193.34.194.122.411.122.444 0 .813-.292zm5.319-3.193l-.473.992q-.311-.132-.548-.132-.32 0-.495.174-.175.175-.175.477V8.85h-1.275V4.184h1.039l.047.198q.368-.321.86-.321.519 0 1.02.359z" fill="#fff"/></svg>