<svg width="168" height="13" viewBox="0 0 168 13" xmlns="http://www.w3.org/2000/svg"><path d="M32.519 6.423l1.357-4.288h1.34L33.117 8.37h-1.206l-2.099-6.235h1.349l1.358 4.288zm4.453-4.337q.2.201.2.487t-.2.487q-.201.2-.487.2t-.487-.205q-.201-.205-.201-.482 0-.286.2-.487.202-.2.488-.2t.487.2zm-1.086 1.871h1.188V8.37h-1.188V3.957zm5.922 0L40.63 5.923l1.438 2.447h-1.295l-1.358-2.447 1.135-1.966h1.26zM38.2 2.135h1.17V8.37H38.2V2.135zm6.788 1.822h1.215V8.37h-.991l-.045-.188q-.384.268-.804.268-.911 0-1.38-.509-.469-.509-.469-1.42V3.957h1.215v2.484q0 .41.134.62.134.21.527.21.259 0 .429-.17.17-.17.17-.437V3.957zm4.475-1.822v.983q-.384 0-.545.116-.16.116-.16.482v.241h.616v1.019h-.616V8.37h-1.17V4.976h-.358V3.957h.358v-.562q0-.313.062-.536.063-.224.21-.358.147-.133.281-.214.134-.08.402-.112.268-.03.425-.035.156-.005.495-.005zm4.386 3.94v.383h-2.555q.036.385.255.626.219.24.603.24.5 0 .902-.419l.75.741q-.804.804-1.661.804-.974 0-1.536-.647-.563-.648-.563-1.63 0-.992.545-1.64.545-.647 1.51-.647.803 0 1.277.603.473.603.473 1.585zm-2.546-.376h1.42q-.098-.688-.678-.688-.626 0-.742.688zm6.244-1.518l-.447.938q-.294-.125-.518-.125-.303 0-.469.165-.165.165-.165.45V8.37h-1.206V3.957h.983l.045.188q.348-.304.812-.304.492 0 .965.34zm4.77 1.947q0 1.072-.478 1.693-.478.62-1.46.62-1.019 0-1.483-.647-.465-.648-.465-1.666 0-1.054.474-1.666.473-.612 1.465-.612.125 0 .17.01l-.081-.188h-1.072v-.956h.643l-.464-1.036h1.107l.465 1.036h.822v.956h-.385l.465.955q.277.51.277 1.501zm-1.045.009q0-.616-.188-.947-.187-.33-.714-.33-.286 0-.474.107-.187.107-.277.303-.089.197-.116.394-.027.196-.027.473 0 .607.188.938.188.33.706.33.285 0 .478-.102.192-.103.276-.3.085-.196.117-.393.03-.196.03-.473zm3.372-4.05q.2.2.2.486t-.2.487q-.201.2-.487.2t-.487-.205q-.2-.205-.2-.482 0-.286.2-.487.201-.2.487-.2t.487.2zm-1.086 1.87h1.188V8.37h-1.188V3.957zm5.163.224l-.446.938q-.295-.125-.518-.125-.304 0-.47.165-.165.165-.165.45V8.37h-1.205V3.957h.982l.045.188q.348-.304.813-.304.49 0 .964.34zm8.977-2.734h1.09v7.61h-1.09v-7.61zm10.648.688h4.198v1.26h-2.93v1.17h2.608V5.77h-2.608V8.37h-1.268V2.135zm7.762 2.046l-.447.938q-.295-.125-.518-.125-.304 0-.469.165-.165.165-.165.45V8.37h-1.206V3.957h.983l.044.188q.349-.304.813-.304.491 0 .965.34zm3.742 1.116V7.54l.179.67-1.045.268-.09-.286q-.383.295-.973.295-.688 0-1.161-.388-.474-.389-.474-1.059 0-.625.398-.991.397-.367 1.21-.411h.67q.152-.01.152-.116v-.125q0-.188-.143-.3-.143-.111-.357-.111-.563 0-.75.42l-1.028-.358q.358-1.143 1.778-1.143.634 0 1.134.388.5.389.5 1.005zM98.716 7.2v-.76q-.09.063-.223.063h-.5q-.617.018-.617.536 0 .206.183.322.183.116.389.116.42 0 .768-.277zM97.17 3.573l.768-1.456h1.215L98 3.573h-.83zm7.458 2.582q0 .652-.17 1.148-.17.495-.603.826-.433.33-1.103.33-.205 0-.442-.08-.237-.08-.344-.206l-.053.197h-.974V2.135h1.215v1.912q.295-.17.706-.17.91 0 1.34.643.428.643.428 1.635zm-1.233.393q.018-.152.018-.384 0-.233-.018-.384-.017-.152-.075-.344-.059-.192-.201-.29-.143-.099-.367-.099-.277 0-.437.152-.161.152-.161.42v1.09q0 .268.165.415.165.147.433.147.224 0 .367-.098.142-.098.2-.286.059-.187.076-.34zm1.858.491q0-.66.425-1.023.424-.361 1.246-.361h.554q.205 0 .205-.072v-.187q0-.143-.112-.277-.111-.134-.388-.134-.554 0-.75.42l-1.055-.313q.43-1.188 1.805-1.188.634 0 1.17.41.5-.428 1.277-.428.465 0 .818.201.352.2.549.531.196.33.295.72.098.388.098.808v.312h-2.564q.045.456.3.653.254.196.558.196.42 0 .83-.473l.831.812q-.366.394-.755.599-.388.205-.915.205-.893 0-1.313-.49-.491.526-1.474.526-.67 0-1.152-.375-.483-.375-.483-1.072zm2.448.072q-.018-.18-.018-.644-.125.045-.214.045l-.51.009q-.232 0-.424.098-.192.099-.192.34 0 .16.143.294.143.134.429.134.393 0 .786-.276zm1.143-1.412h1.42q-.026-.33-.214-.509t-.464-.179q-.349 0-.532.201-.183.201-.21.487zm6.244-1.518l-.447.938q-.295-.125-.518-.125-.304 0-.469.165-.165.165-.165.45V8.37h-1.206V3.957h.983l.044.188q.349-.304.813-.304.491 0 .965.34zm4.832 2.447l.902-2.67h1.313L120.44 8.37h-.982l-1.688-4.413h1.304l.848 2.671zm6.289-.554v.384h-2.555q.036.385.254.626.22.24.603.24.5 0 .903-.419l.75.741q-.804.804-1.662.804-.973 0-1.536-.647-.563-.648-.563-1.63 0-.992.545-1.64.545-.647 1.51-.647.804 0 1.277.603.474.603.474 1.585zm-2.546-.375h1.42q-.098-.688-.679-.688-.625 0-.741.688zm6.243-1.518l-.446.938q-.295-.125-.518-.125-.304 0-.47.165-.164.165-.164.45V8.37h-1.206V3.957h.982l.045.188q.348-.304.813-.304.491 0 .964.34zm4.77 1.947q0 1.072-.478 1.693-.477.62-1.46.62-1.018 0-1.483-.647-.464-.648-.464-1.666 0-1.054.473-1.666.474-.612 1.465-.612.125 0 .17.01l-.08-.188h-1.072v-.956h.643l-.465-1.036h1.108l.464 1.036h.822v.956h-.384l.464.955q.277.51.277 1.501zm-1.045.009q0-.616-.187-.947-.188-.33-.715-.33-.286 0-.473.107-.188.107-.277.303-.09.197-.116.394-.027.196-.027.473 0 .607.187.938.188.33.706.33.286 0 .478-.102.192-.103.277-.3.085-.196.116-.393.031-.196.031-.473zm2.582-1.438V2.135h1.197V4.7l-.054 1.804h-1.09l-.053-1.804zm1.348 3.01q0 .304-.218.527-.22.223-.532.223-.312 0-.536-.219-.223-.218-.223-.531 0-.313.223-.536.224-.223.536-.223.313 0 .532.223.218.223.218.536z" fill="#fff"/></svg>