<svg width="273" height="51" viewBox="0 0 273 51" xmlns="http://www.w3.org/2000/svg"><path d="M34.584 33.84c0 .216.144.36.36.36h3.672c4.32 0 6.156-1.764 6.156-6.768 0-3.852-1.26-5.328-3.096-5.976v-.072c1.872-.72 2.844-2.268 2.844-5.436 0-4.608-1.62-6.228-5.76-6.228h-3.816c-.216 0-.36.144-.36.36zm2.088-13.14c-.144 0-.216-.072-.216-.216V11.7c0-.144.072-.216.216-.216h2.052c2.88 0 3.924 1.008 3.924 4.644 0 3.456-1.26 4.572-3.816 4.572zm-.216 11.52v-9.612c0-.144.072-.216.216-.216h2.196c2.7 0 4.032 1.188 4.032 5.004 0 3.96-1.224 5.04-4.248 5.04h-1.98c-.144 0-.216-.072-.216-.216zm16.38 1.98c.216 0 .36-.144.36-.36v-9.936l4.716-13.824c.072-.216 0-.36-.216-.36h-1.26c-.216 0-.324.144-.396.36l-3.708 11.124h-.072L48.48 10.08c-.072-.216-.18-.36-.396-.36h-1.26c-.216 0-.288.144-.216.36l4.716 13.824v9.936c0 .216.144.36.36.36zm18.54 0c.18 0 .252-.144.18-.36l-3.312-11.16c1.944-.864 3.024-2.772 3.024-6.192 0-4.968-1.944-6.768-6.228-6.768h-3.492c-.216 0-.36.144-.36.36v23.76c0 .216.144.36.36.36H62.7c.216 0 .36-.144.36-.36V23.472c0-.144.072-.216.216-.216h1.692c.54 0 1.044-.036 1.512-.108l3.168 10.8c.072.18.18.252.396.252zm-6.192-12.672h-1.908c-.144 0-.216-.072-.216-.216V11.7c0-.144.072-.216.216-.216h1.908c2.988 0 4.212 1.224 4.212 5.004 0 3.924-1.296 5.04-4.212 5.04zm9.324 11.664c.792.828 2.016 1.296 3.348 1.296 2.952 0 4.788-1.8 4.788-5.472V10.08c0-.216-.144-.36-.36-.36h-1.152c-.216 0-.36.144-.36.36v19.08c0 2.52-1.08 3.564-2.916 3.564a2.956 2.956 0 01-2.016-.792c-.144-.144-.324-.18-.468-.036l-.828.792c-.144.144-.18.324-.036.504zm11.16.648c-.036.216.144.36.36.36h1.152c.216 0 .324-.144.36-.36l1.224-5.868h5.976l1.224 5.868c.036.216.144.36.396.36h1.152c.216 0 .36-.144.324-.36l-5.04-23.76c-.036-.216-.18-.36-.396-.36h-1.188c-.216 0-.324.144-.396.36zm3.456-7.56l2.628-12.492h.072L94.38 26.28zm16.812 7.92c2.952 0 4.572-1.296 5.328-3.636.432-1.332.576-2.952.576-8.604 0-5.688-.144-7.272-.576-8.604-.756-2.34-2.376-3.636-5.328-3.636h-4.392c-.216 0-.36.144-.36.36v10.692c0 .144-.072.216-.216.216h-1.224c-.216 0-.36.144-.36.36v.864c0 .216.144.36.36.36h1.224c.144 0 .216.072.216.216V33.84c0 .216.144.36.36.36zm-.216-1.764h-2.448c-.144 0-.216-.072-.216-.216v-9.432c0-.144.072-.216.216-.216h2.7c.216 0 .36-.144.36-.36v-.864c0-.216-.144-.36-.36-.36h-2.7c-.144 0-.216-.072-.216-.216V11.7c0-.144.072-.216.216-.216h2.448c2.052 0 3.168.792 3.744 2.484.36 1.116.504 2.592.504 7.992s-.144 6.876-.504 7.992c-.576 1.692-1.692 2.484-3.744 2.484zm15.912 2.052c3.168 0 5.292-1.98 5.292-6.048V10.08c0-.216-.144-.36-.36-.36h-1.116c-.216 0-.36.144-.36.36v18.504c0 2.844-1.404 4.14-3.456 4.14s-3.42-1.296-3.42-4.14V10.08c0-.216-.144-.36-.36-.36H116.7c-.216 0-.36.144-.36.36v18.36c0 4.068 2.124 6.048 5.292 6.048zm15.228-.648c-.036.216.144.36.36.36h1.152c.216 0 .324-.144.36-.36l1.224-5.868h5.976l1.224 5.868c.036.216.144.36.396.36h1.152c.216 0 .36-.144.324-.36l-5.04-23.76c-.036-.216-.18-.36-.396-.36h-1.188c-.216 0-.324.144-.396.36zm3.456-7.56l2.628-12.492h.072l2.556 12.492zm16.812 7.92c2.952 0 4.572-1.296 5.328-3.636.432-1.332.576-2.952.576-8.604 0-5.688-.144-7.272-.576-8.604-.756-2.34-2.376-3.636-5.328-3.636h-4.392c-.216 0-.36.144-.36.36v10.692c0 .144-.072.216-.216.216h-1.224c-.216 0-.36.144-.36.36v.864c0 .216.144.36.36.36h1.224c.144 0 .216.072.216.216V33.84c0 .216.144.36.36.36zm-.216-1.764h-2.448c-.144 0-.216-.072-.216-.216v-9.432c0-.144.072-.216.216-.216h2.7c.216 0 .36-.144.36-.36v-.864c0-.216-.144-.36-.36-.36h-2.7c-.144 0-.216-.072-.216-.216V11.7c0-.144.072-.216.216-.216h2.448c2.052 0 3.168.792 3.744 2.484.36 1.116.504 2.592.504 7.992s-.144 6.876-.504 7.992c-.576 1.692-1.692 2.484-3.744 2.484zm18.792 1.764c.216 0 .36-.144.36-.36v-9.684c0-.144.072-.216.216-.216h1.8c4.248 0 6.264-2.052 6.264-7.128 0-5.112-1.98-7.092-6.264-7.092h-3.528c-.216 0-.36.144-.36.36v23.76c0 .216.144.36.36.36zm2.376-12.024h-1.8c-.144 0-.216-.072-.216-.216V11.7c0-.144.072-.216.216-.216h1.8c3.204 0 4.392 1.44 4.392 5.328 0 3.924-1.188 5.364-4.392 5.364zm6.948 11.664c-.036.216.144.36.36.36h1.152c.216 0 .324-.144.36-.36l1.224-5.868h5.976l1.224 5.868c.036.216.144.36.396.36h1.152c.216 0 .36-.144.324-.36l-5.04-23.76c-.036-.216-.18-.36-.396-.36h-1.188c-.216 0-.324.144-.396.36zm3.456-7.56l2.628-12.492h.072l2.556 12.492zm12.06 7.56c0 .216.144.36.36.36h1.152c.216 0 .36-.144.36-.36v-7.812l2.412-4.68 4.68 12.564c.072.216.18.288.396.288h1.368c.18 0 .252-.144.18-.36l-5.508-14.544 4.752-9.252c.072-.18 0-.324-.216-.324h-1.296c-.216 0-.324.072-.432.288l-6.336 12.6V10.08c0-.216-.144-.36-.36-.36h-1.152c-.216 0-.36.144-.36.36zm14.4 0c0 .216.144.36.36.36h1.152c.216 0 .36-.144.36-.36v-7.812l2.412-4.68 4.68 12.564c.072.216.18.288.396.288h1.368c.18 0 .252-.144.18-.36l-5.508-14.544 4.752-9.252c.072-.18 0-.324-.216-.324h-1.296c-.216 0-.324.072-.432.288l-6.336 12.6V10.08c0-.216-.144-.36-.36-.36h-1.152c-.216 0-.36.144-.36.36zm12.852 0c-.036.216.144.36.36.36h1.152c.216 0 .324-.144.36-.36l1.224-5.868h5.976l1.224 5.868c.036.216.144.36.396.36h1.152c.216 0 .36-.144.324-.36l-5.04-23.76c-.036-.216-.18-.36-.396-.36h-1.188c-.216 0-.324.144-.396.36zm3.456-7.56l2.628-12.492h.072l2.556 12.492z" fill="#fff"/></svg>