<svg width="289.552" height="19" viewBox="0 0 289.552 19" xmlns="http://www.w3.org/2000/svg"><path d="M52.883 9.822q0 1.4-1.06 2.222-1.06.822-2.5.822-3.1 0-3.833-2.881l1.835-.367q.394 1.4 1.997 1.4.612 0 1.115-.313.502-.312.502-.883 0-.394-.38-.652-.38-.259-.951-.374-.571-.116-1.244-.313-.672-.197-1.243-.448-.571-.252-.952-.809-.38-.557-.38-1.359 0-1.29.972-2.011.971-.72 2.303-.72 1.291 0 2.14.516.85.517 1.407 1.658l-1.672.775q-.34-.612-.76-.877-.422-.265-1.115-.265-.49 0-.91.231-.422.231-.422.693 0 .326.38.55.381.225.952.34.57.116 1.244.327.672.21 1.243.489.57.278.951.856.38.577.38 1.393zm4.987-3.805h1.848v6.713H58.21l-.068-.285q-.584.407-1.223.407-1.386 0-2.1-.774-.713-.775-.713-2.161v-3.9h1.848v3.778q0 .625.204.944.204.32.802.32.394 0 .652-.259.258-.258.258-.666V6.017zm12.76 2.935v3.778H68.77V8.952q0-.611-.183-.93-.184-.32-.755-.32-.244 0-.42.109-.178.108-.26.237-.08.13-.121.388-.041.258-.048.394-.007.136-.007.421v3.479h-1.862V8.952q0-.598-.183-.924-.183-.326-.74-.326-.381 0-.612.251-.231.252-.231.632v4.145h-1.862V6.017h1.522l.068.272q.544-.422 1.114-.422.625 0 1.04.143.414.143.917.537.775-.68 1.685-.68 1.386 0 2.093.843.707.842.707 2.242zm6.646-.897v3.411l.272 1.02-1.59.407-.136-.435q-.584.449-1.481.449-1.047 0-1.767-.591-.72-.592-.72-1.61 0-.952.605-1.51.604-.556 1.841-.624h1.02q.23-.014.23-.177v-.19q0-.286-.217-.456-.218-.17-.544-.17-.856 0-1.141.64l-1.563-.544q.543-1.74 2.704-1.74.965 0 1.726.591t.761 1.53zM75.55 10.95V9.795q-.136.095-.34.095h-.76q-.938.027-.938.815 0 .313.278.49.279.176.592.176.638 0 1.168-.421zm7.651-4.594l-.68 1.427q-.448-.19-.787-.19-.462 0-.714.252-.251.25-.251.686v4.199h-1.835V6.017h1.495l.068.285q.53-.462 1.237-.462.747 0 1.467.516zm4.417-3.112V4.74q-.584 0-.83.177-.244.177-.244.734v.367h.938v1.549h-.938v5.164h-1.78V7.566h-.544v-1.55h.544v-.855q0-.476.095-.816.095-.34.32-.543.224-.204.428-.327.203-.122.611-.17.408-.047.646-.054.237-.007.754-.007zm5.558 3.112l-.68 1.427q-.448-.19-.788-.19-.462 0-.713.252-.252.25-.252.686v4.199H88.91V6.017h1.495l.068.285q.53-.462 1.236-.462.748 0 1.468.516zm1.155-.34h1.794v6.714h-1.794V6.017zm.53-.584l1.169-2.215h1.848l-1.753 2.215h-1.264zm4.614-2.262q.306.305.306.74t-.306.741q-.306.306-.74.306-.436 0-.741-.313-.306-.312-.306-.734 0-.435.306-.74.305-.306.74-.306t.74.306zm-1.651 2.847h1.807v6.713h-1.807V6.017zm9.621 3.302q0 1.63-.727 2.575-.727.945-2.222.945-1.549 0-2.256-.986-.706-.985-.706-2.534 0-1.604.72-2.534.72-.931 2.229-.931.19 0 .258.013l-.122-.285h-1.631V4.128h.978l-.706-1.577h1.685l.706 1.577h1.25v1.454h-.584l.707 1.454q.421.775.421 2.283zm-1.59.014q0-.938-.285-1.44-.286-.504-1.087-.504-.435 0-.72.163-.286.163-.422.462-.136.3-.177.598-.04.3-.04.72 0 .925.285 1.428.285.502 1.074.502.434 0 .727-.156.292-.156.42-.455.13-.3.178-.598.047-.3.047-.72zm13.29-.041q0 1.59-.726 2.602-.727 1.013-2.195 1.013-.516 0-.924-.177v2.8h-1.889V3.243h1.889v2.61q.462-.177.924-.177.775 0 1.359.306t.917.829q.333.523.49 1.148.156.625.156 1.332zm-1.902 0q0-.775-.204-1.237-.203-.462-.815-.462-.435 0-.68.231-.244.231-.244.612v1.726q0 .407.265.625.265.217.66.217.339 0 .563-.156.224-.156.313-.449.088-.292.115-.53.027-.237.027-.577zm4.913-6.122q.306.305.306.74t-.306.741q-.306.306-.74.306-.436 0-.741-.313-.306-.312-.306-.734 0-.435.306-.74.305-.306.74-.306t.74.306zm-1.651 2.847h1.807v6.713h-1.807V6.017zm5.721 0h.856v1.549h-.856v3.098q0 .517.598.517v1.549h-.72q-.816 0-1.244-.537-.428-.537-.428-1.366V7.566h-.747v-1.55h.747V4.224h1.794v1.794zm4.213 0h.856v1.549h-.856v3.098q0 .517.598.517v1.549h-.72q-.816 0-1.244-.537-.428-.537-.428-1.366V7.566h-.747v-1.55h.747V4.224h1.794v1.794zm24.053-2.773h1.944v9.486h-1.944V8.775h-3.383v3.955h-1.944V3.244h1.944v3.697h3.383V3.244zm6.374 6.836l1.373-4.063h1.997l-2.582 6.713h-1.495l-2.568-6.713h1.984l1.291 4.063zm9.567-.843v.585h-3.887q.055.584.388.951t.917.367q.761 0 1.373-.639l1.141 1.128q-1.223 1.223-2.528 1.223-1.48 0-2.337-.985-.856-.985-.856-2.48 0-1.509.829-2.494.829-.985 2.297-.985 1.223 0 1.943.917.72.918.72 2.412zm-3.873-.57h2.16q-.149-1.047-1.032-1.047-.951 0-1.128 1.047zm9.5-2.31l-.68 1.426q-.449-.19-.788-.19-.463 0-.714.252-.251.25-.251.686v4.199h-1.835V6.017h1.495l.068.285q.53-.462 1.237-.462.747 0 1.467.516zm3.356-.34h.856v1.549h-.856v3.098q0 .517.598.517v1.549h-.72q-.816 0-1.244-.537-.428-.537-.428-1.366V7.566h-.747v-1.55h.747V4.224h1.794v1.794zm8.752 4.063l1.372-4.063h1.998l-2.582 6.713h-1.495l-2.569-6.713h1.985l1.29 4.063zm6.108-6.91q.306.305.306.74t-.306.741q-.306.306-.74.306-.435 0-.741-.313-.306-.312-.306-.734 0-.435.306-.74.306-.306.74-.306.435 0 .741.306zm-1.651 2.847h1.807v6.713h-1.807V6.017zm5.721 5.164l.014 1.549q-1.128 0-1.672-.421-.543-.422-.543-1.509V3.244h1.753v7.53q0 .23.102.318.102.089.346.089zm3.506-5.164h.857v1.549h-.857v3.098q0 .517.598.517v1.549h-.72q-.815 0-1.243-.537-.428-.537-.428-1.366V7.566h-.748v-1.55h.748V4.224h1.793v1.794zm5.98 0h1.848v6.713h-1.508l-.068-.285q-.585.407-1.223.407-1.387 0-2.1-.774-.714-.775-.714-2.161v-3.9h1.849v3.778q0 .625.204.944.203.32.801.32.394 0 .653-.259.258-.258.258-.666V6.017zm10.885-2.773V4.74q-.584 0-.829.177-.244.177-.244.734v.367h.937v1.549h-.937v5.164h-1.78V7.566h-.544v-1.55h.543v-.855q0-.476.095-.816.096-.34.32-.543.224-.204.428-.327.204-.122.611-.17.408-.047.646-.054.238-.007.754-.007zm6.034 4.811v3.411l.272 1.02-1.59.407-.136-.435q-.585.449-1.481.449-1.047 0-1.767-.591-.72-.592-.72-1.61 0-.952.604-1.51.605-.556 1.842-.624h1.019q.231-.014.231-.177v-.19q0-.286-.217-.456-.218-.17-.544-.17-.856 0-1.142.64l-1.562-.544q.543-1.74 2.704-1.74.965 0 1.726.591.76.591.76 1.53zm-1.726 2.895V9.795q-.136.095-.34.095h-.76q-.938.027-.938.815 0 .313.278.49.279.176.591.176.639 0 1.169-.421zm7.651-4.594l-.68 1.427q-.448-.19-.788-.19-.462 0-.713.252-.252.25-.252.686v4.199h-1.834V6.017h1.495l.068.285q.53-.462 1.236-.462.748 0 1.468.516zm5.694 1.7v3.41l.272 1.02-1.59.407-.136-.435q-.584.449-1.481.449-1.047 0-1.767-.591-.72-.592-.72-1.61 0-.952.605-1.51.604-.556 1.84-.624h1.02q.231-.014.231-.177v-.19q0-.286-.217-.456-.218-.17-.544-.17-.856 0-1.141.64l-1.563-.544q.543-1.74 2.704-1.74.965 0 1.726.591t.761 1.53zm-1.726 2.894V9.795q-.136.095-.34.095h-.76q-.938.027-.938.815 0 .313.278.49.279.176.591.176.64 0 1.17-.421zm9.119-5.164q0 1.236-1.278 1.997-.462.272-.632.462-.17.19-.197.517l-.095 1.318h-1.4q-.122-1.006-.122-1.345 0-.49.102-.843t.333-.598q.231-.244.38-.353.15-.109.476-.3.041-.026.177-.101.136-.075.177-.109.04-.034.142-.115.102-.082.136-.143.034-.061.068-.163.034-.102.034-.224 0-.462-.32-.734-.319-.272-.862-.272-1.25 0-1.25 1.237h-1.672q0-1.468.856-2.175.856-.706 2.066-.706 1.264 0 2.072.693.809.693.809 1.957zm-2.12 5.198q.326.32.326.781 0 .462-.326.782-.326.319-.788.319-.449 0-.775-.32-.326-.319-.326-.78 0-.463.326-.782.326-.32.775-.32.462 0 .788.32z" fill="#fff"/></svg>