<svg width="132.578" height="9" viewBox="0 0 132.578 9" xmlns="http://www.w3.org/2000/svg"><path d="M6.092 4.383q0 .624-.473.99-.472.368-1.115.368-1.382 0-1.71-1.286l.819-.163q.176.624.891.624.273 0 .497-.14.224-.139.224-.393 0-.176-.17-.291-.169-.115-.424-.167-.254-.052-.554-.14-.3-.087-.555-.2-.255-.112-.424-.36-.17-.249-.17-.606 0-.576.433-.898.434-.32 1.028-.32.576 0 .955.23t.627.74l-.746.345q-.151-.273-.339-.391-.188-.119-.497-.119-.218 0-.406.103-.188.104-.188.31 0 .145.17.245t.424.152q.254.051.555.145.3.094.554.218.255.125.425.382.17.258.17.622zM8.9 3.055q.333.424.333 1.134 0 .709-.333 1.13-.333.422-1.024.422-.691 0-1.025-.422-.333-.421-.333-1.13 0-.71.333-1.134.334-.424 1.025-.424.69 0 1.024.424zm-.612 1.68q.109-.207.109-.546 0-.34-.11-.549-.108-.209-.411-.209-.31 0-.416.206-.106.206-.106.552 0 .345.106.548.106.203.416.203.303 0 .412-.206zm-1.085-2.31l.521-.988h.824l-.782.988h-.563zm3.588 2.564l.007.691q-.504 0-.746-.188-.243-.188-.243-.673V1.45h.782v3.358q0 .103.046.143.045.039.154.039zm2.85-1.394v1.521l.12.455-.708.182-.061-.194q-.26.2-.66.2-.468 0-.789-.264t-.321-.718q0-.425.27-.673.27-.249.821-.279h.455q.103-.006.103-.079v-.085q0-.127-.097-.203-.097-.076-.243-.076-.382 0-.509.285l-.697-.242q.242-.776 1.206-.776.43 0 .77.264.34.263.34.682zm-.77 1.29v-.514q-.06.042-.152.042h-.34q-.418.012-.418.364 0 .14.125.218.124.079.263.079.285 0 .522-.188zm3.413-2.048l-.303.636q-.2-.084-.352-.084-.206 0-.318.112-.112.112-.112.306V5.68h-.819V2.685h.667l.03.128q.237-.206.552-.206.333 0 .655.23zm3.049 1.37q0 .685-.306 1.112-.306.428-.967.428-.23 0-.406-.115v1.382h-.825V2.685h.673l.03.122q.25-.188.534-.188.449 0 .743.23t.409.573q.115.342.115.785zm-.837.258q.013-.1.013-.258t-.013-.258q-.012-.1-.051-.227-.04-.127-.137-.194t-.248-.067q-.182 0-.294.103-.112.103-.112.28v.72q0 .182.109.282.109.1.297.1.151 0 .248-.063.097-.064.137-.191.04-.127.051-.227zm3.68-.87v1.521l.121.455-.709.182-.06-.194q-.261.2-.661.2-.467 0-.788-.264-.322-.264-.322-.718 0-.425.27-.673.27-.249.821-.279h.455q.103-.006.103-.079v-.085q0-.127-.097-.203-.097-.076-.242-.076-.382 0-.51.285l-.697-.242q.243-.776 1.207-.776.43 0 .77.264.34.263.34.682zm-.77 1.29v-.514q-.06.042-.151.042h-.34q-.418.012-.418.364 0 .14.124.218.124.079.264.079.285 0 .521-.188zm3.928-2.2l-.8 1.334.976 1.661h-.879l-.921-1.661.77-1.334h.854zM22.884 1.45h.794V5.68h-.794V1.449zm5.408 1.236l-.8 1.334.976 1.661h-.88l-.92-1.661.769-1.334h.855zm-2.45-1.236h.795V5.68h-.794V1.449zm3.726-.034q.136.137.136.33 0 .195-.136.331-.137.136-.33.136-.195 0-.331-.139-.136-.14-.136-.327 0-.194.136-.33.136-.137.33-.137t.33.136zm-.737 1.27h.807V5.68h-.807V2.685zm4.104 1.31V5.68h-.824V4.013q0-.279-.094-.427-.094-.149-.355-.149-.176 0-.29.124-.116.125-.116.306V5.68h-.824V2.685h.673l.03.122q.23-.188.564-.188 1.236 0 1.236 1.376zm3.14 0V5.68h-.824V4.013q0-.279-.094-.427-.094-.149-.355-.149-.175 0-.29.124-.116.125-.116.306V5.68h-.824V2.685h.673l.03.122q.23-.188.564-.188 1.236 0 1.236 1.376zm5.105.151q0 .71-.325 1.161-.324.452-.979.452-.23 0-.412-.079v1.249h-.842v-5.48h.842v1.164q.206-.08.412-.08.346 0 .607.137.26.137.409.37.148.233.218.512.07.28.07.594zm-.849 0q0-.345-.09-.551-.092-.206-.365-.206-.194 0-.303.103-.109.103-.109.272v.77q0 .182.118.28.119.096.294.096.152 0 .252-.07t.14-.2q.039-.13.051-.236.012-.106.012-.258zm2.192-2.73q.136.136.136.33t-.136.33q-.137.136-.33.136-.195 0-.331-.139-.137-.14-.137-.327 0-.194.137-.33.136-.137.33-.137t.33.136zm-.737 1.27h.806V5.68h-.806V2.685zm4.104 1.309V5.68h-.824V4.013q0-.279-.094-.427-.094-.149-.355-.149-.176 0-.291.124-.115.125-.115.306V5.68h-.825V2.685h.673l.03.122q.23-.188.564-.188 1.237 0 1.237 1.376zm3.14 0V5.68h-.824V4.013q0-.279-.094-.427-.094-.149-.355-.149-.176 0-.29.124-.116.125-.116.306V5.68h-.824V2.685h.672l.03.122q.231-.188.565-.188 1.236 0 1.236 1.376zm4.947.127v.26h-1.734q.024.261.173.425.148.164.41.164.339 0 .611-.285l.51.503q-.546.546-1.128.546-.66 0-1.043-.44-.382-.44-.382-1.106 0-.673.37-1.113.37-.44 1.025-.44.545 0 .867.41.32.41.32 1.076zm-1.728-.255h.964q-.067-.466-.46-.466-.425 0-.504.466zm4.238-1.03l-.304.636q-.2-.084-.351-.084-.206 0-.318.112-.113.112-.113.306V5.68h-.818V2.685h.667l.03.128q.237-.206.552-.206.333 0 .655.23zm3.667-1.388v.666q-.26 0-.37.08-.109.078-.109.327v.163h.419v.691h-.419V5.68h-.794V3.376h-.242v-.69h.242v-.383q0-.212.043-.363.042-.152.142-.243.1-.09.191-.145.09-.055.273-.076.182-.021.288-.024.106-.003.336-.003zm2.48 1.388l-.304.636q-.2-.084-.351-.084-.206 0-.318.112-.113.112-.113.306V5.68h-.818V2.685h.667l.03.128q.237-.206.552-.206.333 0 .655.23zm2.54.758v1.521l.12.455-.708.182-.061-.194q-.26.2-.66.2-.468 0-.789-.264t-.321-.718q0-.425.27-.673.27-.249.821-.279h.455q.103-.006.103-.079v-.085q0-.127-.097-.203-.097-.076-.243-.076-.382 0-.509.285l-.697-.242q.242-.776 1.206-.776.43 0 .77.264.34.263.34.682zm-.77 1.29v-.514q-.06.042-.152.042h-.34q-.418.012-.418.364 0 .14.125.218.124.079.263.079.285 0 .522-.188zm-1.049-2.46l.521-.988h.825l-.782.988h-.564zm7.105 1.927q0 .625-.41 1.007-.409.382-1.04.382-.624 0-1.027-.382-.403-.382-.403-1 0-.304.158-.567.157-.264.418-.452-.176-.115-.294-.34-.118-.224-.118-.436 0-.51.376-.843.376-.333.89-.333.522 0 .898.333.376.334.376.843 0 .218-.115.443-.115.224-.297.333.588.418.588 1.012zm-1.007-1.758q0-.181-.13-.303-.13-.121-.312-.121t-.312.121q-.13.122-.13.303 0 .182.13.31.13.127.312.127.176 0 .31-.13.132-.13.132-.307zm.14 1.728q0-.242-.17-.415t-.412-.173q-.237 0-.403.179-.167.179-.167.415 0 .23.173.397t.403.167q.249 0 .412-.16.164-.161.164-.41zm3.94-.34h.31v.795h-.31v.903h-.8v-.903h-1.849v-.703l1.6-2.625h.91l-1.522 2.534h.861V2.91l.8.097v.976zm1.87.867q.155.152.155.37 0 .219-.155.37-.154.152-.372.152-.213 0-.367-.152-.155-.151-.155-.37 0-.218.155-.37.154-.151.367-.151.218 0 .372.151zm3.392-1.848q0 1.751-1.188 2.679h-1.103q.351-.291.54-.46.187-.17.417-.477.23-.306.34-.615-.17.121-.479.121-.594 0-.967-.39-.373-.392-.373-.986 0-.648.38-1.064.378-.415 1.02-.415.65 0 1.031.473.382.473.382 1.134zm-.903-.194q0-.237-.152-.407-.151-.17-.388-.17-.236 0-.388.176-.151.176-.151.413 0 .248.154.421.155.173.397.173.243 0 .385-.18.143-.178.143-.426zm4.607.745q0 .388-.082.755T82.163 5q-.173.327-.488.527-.316.2-.734.2t-.736-.197q-.319-.197-.491-.524-.173-.327-.258-.691-.085-.364-.085-.752 0-.309.049-.606.048-.297.166-.585.118-.288.294-.503.176-.215.449-.349.273-.133.612-.133.418 0 .734.197.315.197.488.521.172.325.254.688.082.364.082.758zm-.873.012q0-.206-.024-.403-.024-.197-.088-.427-.064-.23-.212-.37-.149-.14-.36-.14-.22 0-.37.14-.152.14-.219.367-.067.227-.09.424-.025.197-.025.41 0 .205.024.402.024.197.091.425.067.227.218.367.152.139.37.139.176 0 .306-.1t.203-.24q.073-.139.112-.333.04-.194.052-.345.012-.152.012-.316zm4.607-.012q0 .388-.082.755-.081.367-.254.694-.173.327-.488.527t-.734.2q-.418 0-.736-.197t-.491-.524q-.173-.327-.258-.691-.085-.364-.085-.752 0-.309.049-.606.048-.297.166-.585.119-.288.295-.503.175-.215.448-.349.273-.133.612-.133.419 0 .734.197t.488.521q.173.325.254.688.082.364.082.758zm-.873.012q0-.206-.024-.403-.024-.197-.088-.427-.063-.23-.212-.37-.148-.14-.36-.14-.219 0-.37.14-.152.14-.219.367-.066.227-.09.424-.025.197-.025.41 0 .205.024.402.025.197.091.425.067.227.219.367.151.139.37.139.175 0 .306-.1.13-.1.203-.24.072-.139.112-.333.04-.194.051-.345.012-.152.012-.316zm5.626.03v1.522l.121.455-.709.182-.06-.194q-.261.2-.661.2-.467 0-.788-.264-.322-.264-.322-.718 0-.425.27-.673.27-.249.821-.279h.455q.103-.006.103-.079v-.085q0-.127-.097-.203-.097-.076-.242-.076-.382 0-.51.285l-.697-.242q.243-.776 1.207-.776.43 0 .77.264.339.263.339.682zm-.77 1.292V4.37q-.06.042-.151.042h-.34q-.418.012-.418.364 0 .14.124.218.124.079.264.079.285 0 .521-.188zm-1.049-2.461l.522-.988h.824l-.782.988h-.564zm6.644 2.34q0 .454-.36.715-.36.26-.834.26-1.049 0-1.243-.824l.716-.194q.115.285.515.285.388 0 .388-.206 0-.115-.164-.194-.163-.079-.4-.14-.236-.06-.47-.148-.233-.088-.397-.285-.163-.197-.163-.488 0-.448.318-.685.318-.236.785-.236.424 0 .679.13.255.13.479.47l-.63.351q-.176-.236-.45-.236-.35 0-.35.206 0 .103.163.167.164.063.394.121.23.058.464.143.233.084.397.284.163.2.163.504zm2.195-2.08h.824V5.68h-.673l-.03-.127q-.26.182-.545.182-.619 0-.937-.346-.318-.346-.318-.964v-1.74h.824v1.686q0 .278.091.42.091.143.358.143.176 0 .29-.115.116-.115.116-.297V2.685zm5.692 1.31V5.68h-.83V3.995q0-.273-.082-.416-.082-.142-.337-.142-.109 0-.187.049-.08.048-.116.106-.036.057-.054.172-.018.116-.021.176-.003.06-.003.188V5.68h-.831V3.995q0-.267-.082-.412-.082-.146-.33-.146-.17 0-.273.112-.103.112-.103.282V5.68h-.83V2.685h.678l.03.122q.243-.188.498-.188.279 0 .464.063.184.064.409.24.345-.303.751-.303.619 0 .934.375.315.376.315 1zm2.965-.4v1.521l.12.455-.708.182-.061-.194q-.26.2-.66.2-.468 0-.789-.264t-.321-.718q0-.425.27-.673.27-.249.821-.279h.455q.103-.006.103-.079v-.085q0-.127-.097-.203-.097-.076-.243-.076-.382 0-.509.285l-.697-.242q.242-.776 1.206-.776.43 0 .77.264.34.263.34.682zm-.77 1.29v-.514q-.06.042-.152.042h-.34q-.418.012-.418.364 0 .14.125.218.124.079.263.079.285 0 .522-.188zm3.413-2.048l-.303.636q-.2-.084-.352-.084-.206 0-.318.112-.112.112-.112.306V5.68h-.819V2.685h.667l.03.128q.237-.206.552-.206.333 0 .655.23zm1.97-1.388v.666q-.26 0-.37.08-.109.078-.109.327v.163h.418v.691h-.418V5.68h-.794V3.376h-.243v-.69h.243v-.383q0-.212.042-.363.043-.152.143-.243.1-.09.19-.145.092-.055.273-.076.182-.021.288-.024.107-.003.337-.003zm2.976 2.673v.26h-1.733q.024.261.172.425.149.164.41.164.34 0 .612-.285l.51.503q-.547.546-1.128.546-.661 0-1.043-.44-.382-.44-.382-1.106 0-.673.37-1.113.37-.44 1.024-.44.546 0 .867.41.321.41.321 1.076zm-1.727-.255h.964q-.067-.466-.461-.466-.425 0-.503.466zm4.237-1.03l-.303.636q-.2-.084-.352-.084-.206 0-.318.112-.112.112-.112.306V5.68h-.818V2.685h.666l.03.128q.237-.206.552-.206.334 0 .655.23zm2.831 2.722l-.721.212-.06-.176q-.25.146-.595.146-.66 0-.967-.437-.306-.436-.306-1.127 0-.685.306-1.119.306-.433.967-.433.224 0 .412.12V1.45h.825V5.11q0 .006.033.11.033.102.067.214.033.113.04.125zm-.964-1.007v-.745q0-.176-.115-.279-.115-.103-.29-.103-.128 0-.22.051-.09.052-.136.119-.045.066-.07.181-.024.116-.027.198-.003.081-.003.209 0 .127.003.206.003.079.028.194.024.115.07.182.045.066.136.118.09.051.218.051.176 0 .291-.103.115-.103.115-.279zm2.367-3.137q.137.137.137.33 0 .195-.137.331-.136.136-.33.136t-.33-.139q-.137-.14-.137-.327 0-.194.137-.33.136-.137.33-.137t.33.136zm-.736 1.27h.806V5.68h-.806V2.685zm3.504.152l-.303.636q-.2-.084-.352-.084-.206 0-.318.112-.112.112-.112.306V5.68h-.819V2.685h.667l.03.128q.237-.206.552-.206.334 0 .655.23zm1.227 2.012q.155.152.155.37 0 .219-.155.37-.154.152-.372.152-.213 0-.367-.152-.155-.151-.155-.37 0-.218.155-.37.154-.151.367-.151.218 0 .372.151zm1.71-3.434q.136.137.136.33 0 .195-.136.331t-.33.136q-.194 0-.33-.139-.137-.14-.137-.327 0-.194.136-.33.137-.137.33-.137.195 0 .33.136zm-.737 1.27h.807V5.68h-.807V2.685zm3.868 2.08q0 .454-.36.715-.361.26-.834.26-1.049 0-1.243-.824l.715-.194q.116.285.516.285.388 0 .388-.206 0-.115-.164-.194t-.4-.14q-.237-.06-.47-.148-.233-.088-.397-.285-.164-.197-.164-.488 0-.448.319-.685.318-.236.785-.236.424 0 .679.13.254.13.478.47l-.63.351q-.176-.236-.449-.236-.351 0-.351.206 0 .103.163.167.164.063.394.121.23.058.464.143.234.084.397.284.164.2.164.504z" fill="#fff"/></svg>