<svg width="294.082" height="19" viewBox="0 0 294.082 19" xmlns="http://www.w3.org/2000/svg"><path d="M42.516 3.244h1.943v9.486h-1.943V3.244zm0-.815L43.685.214h1.848L43.78 2.429h-1.264zm5.912 3.588h.856v1.549h-.856v3.098q0 .517.598.517v1.549h-.72q-.816 0-1.244-.537-.428-.537-.428-1.366V7.566h-.748v-1.55h.748V4.224h1.794v1.794zm7.365 2.038v3.411l.272 1.02-1.59.407-.136-.435q-.584.449-1.481.449-1.047 0-1.767-.591-.72-.592-.72-1.61 0-.952.605-1.51.604-.556 1.841-.624h1.02q.23-.014.23-.177v-.19q0-.286-.217-.456-.218-.17-.544-.17-.856 0-1.141.64l-1.563-.544q.544-1.74 2.704-1.74.965 0 1.726.591t.761 1.53zm-1.726 2.895V9.795q-.136.095-.34.095h-.76q-.938.027-.938.815 0 .313.278.49.279.176.592.176.638 0 1.168-.421zm5.518.23l.013 1.55q-1.128 0-1.671-.421-.544-.422-.544-1.509V3.244h1.753v7.53q0 .23.102.318.102.089.347.089zm1.304-5.163h1.794v6.713H60.89V6.017zm.53-.585l1.169-2.215h1.848l-1.753 2.215H61.42zm7.977 2.623v3.411l.272 1.02-1.59.407-.136-.435q-.584.449-1.48.449-1.047 0-1.768-.591-.72-.592-.72-1.61 0-.952.605-1.51.605-.556 1.841-.624h1.02q.23-.014.23-.177v-.19q0-.286-.217-.456-.217-.17-.543-.17-.857 0-1.142.64l-1.563-.544q.544-1.74 2.705-1.74.964 0 1.725.591.761.591.761 1.53zm-1.725 2.895V9.795q-.136.095-.34.095h-.761q-.938.027-.938.815 0 .313.279.49.278.176.59.176.64 0 1.17-.421zm7.392-2.582H79.1v1.427h-4.036V8.368zm13.264.706V7.416h3.601v5.314h-1.63v-.693q-.626.802-1.862.802-.816 0-1.482-.265t-1.107-.72q-.442-.456-.741-1.08-.299-.626-.435-1.32-.136-.692-.136-1.467 0-.774.136-1.474t.442-1.325q.306-.625.754-1.074.449-.448 1.121-.713.673-.265 1.502-.265 1.1 0 1.841.428.74.428 1.448 1.38l-1.36 1.236q-.42-.571-.856-.85-.434-.278-1.073-.278-2.011 0-2.011 2.935 0 2.936 2.024 2.936.761 0 1.135-.524.374-.523.374-1.325h-1.685zm9.431-2.718l-.68 1.427q-.448-.19-.788-.19-.462 0-.713.252-.252.25-.252.686v4.199h-1.834V6.017h1.495l.068.285q.53-.462 1.236-.462.748 0 1.468.516zm2.874-3.186q.306.305.306.74t-.306.741q-.306.306-.74.306-.435 0-.741-.313-.306-.312-.306-.734 0-.435.306-.74.306-.306.74-.306.435 0 .741.306zm-1.65 2.847h1.806v6.713h-1.807V6.017zm9.009 0l-1.794 2.99 2.188 3.723h-1.97l-2.066-3.724 1.726-2.99h1.916zm-5.49-2.773h1.78v9.486h-1.78V3.244zm12.122 2.773l-1.794 2.99 2.188 3.723h-1.97l-2.066-3.724 1.726-2.99h1.916zm-5.49-2.773h1.78v9.486h-1.78V3.244zm8.697 7.937l.013 1.549q-1.127 0-1.671-.421-.544-.422-.544-1.509V3.244h1.753v7.53q0 .23.102.318.102.089.347.089zm6.387-3.126v3.411l.272 1.02-1.59.407-.136-.435q-.584.449-1.481.449-1.047 0-1.767-.591-.72-.592-.72-1.61 0-.952.604-1.51.605-.556 1.842-.624h1.02q.23-.014.23-.177v-.19q0-.286-.217-.456-.218-.17-.544-.17-.856 0-1.141.64l-1.563-.544q.543-1.74 2.704-1.74.965 0 1.726.591t.761 1.53zm-1.726 2.895V9.795q-.136.095-.34.095h-.76q-.938.027-.938.815 0 .313.278.49.279.176.591.176.64 0 1.17-.421zm8.996-1.998v3.778h-1.848V8.993q0-.625-.21-.958-.211-.333-.795-.333-.394 0-.653.278-.258.279-.258.687v4.063h-1.848V6.017h1.508l.068.272q.517-.422 1.264-.422 2.772 0 2.772 3.085zm7.162 3.506l-1.617.476-.136-.394q-.557.326-1.332.326-1.48 0-2.167-.979-.686-.978-.686-2.527 0-1.536.686-2.508.686-.971 2.167-.971.503 0 .924.272V3.244h1.849v8.209q0 .013.074.244.075.231.15.483.075.251.088.278zm-2.16-2.256V8.531q0-.394-.259-.625-.258-.231-.652-.231-.285 0-.49.115-.203.116-.305.265-.102.15-.156.408-.055.258-.061.442-.007.183-.007.468 0 .286.007.462.006.177.06.435.055.258.157.408.102.15.306.265.204.115.489.115.394 0 .652-.23.258-.232.258-.626zm7.664-1.834h4.036v1.427h-4.036V8.368zm16.824-2.229q0 2.895-3.166 2.895h-1.835v3.696h-1.943V3.244h3.71q1.48 0 2.357.72.877.72.877 2.175zm-1.943 0q0-.598-.36-.822-.36-.224-1-.224h-1.698v2.106h1.699q.666 0 1.012-.217.347-.218.347-.843zm7.895.707q.748.951.748 2.54 0 1.59-.748 2.535-.747.945-2.296.945-1.55 0-2.297-.945-.747-.944-.747-2.534 0-1.59.747-2.541.747-.952 2.297-.952 1.549 0 2.296.952zm-1.372 3.764q.244-.462.244-1.223 0-.761-.244-1.23-.245-.469-.924-.469-.693 0-.931.462-.238.462-.238 1.237 0 .775.238 1.23.238.455.93.455.68 0 .925-.462zm7.746-4.254l-.68 1.427q-.448-.19-.788-.19-.462 0-.713.252-.252.25-.252.686v4.199h-1.834V6.017h1.495l.067.285q.53-.462 1.237-.462.748 0 1.468.516zm3.356-.34h.857v1.55h-.857v3.098q0 .517.598.517v1.549h-.72q-.815 0-1.243-.537-.428-.537-.428-1.366V7.566h-.748v-1.55h.748V4.224h1.793v1.794zm5.98 0h1.848v6.714h-1.508l-.068-.285q-.585.407-1.223.407-1.387 0-2.1-.774-.713-.775-.713-2.161v-3.9h1.848v3.778q0 .625.204.944.203.32.801.32.394 0 .653-.259.258-.258.258-.666V6.017zm-2.405-.584l1.168-2.215h1.848l-1.753 2.215h-1.263zm10.994 3.004q0 1.141-.734 1.787-.734.645-1.93.645-.38 0-.707-.136-.244.19-.244.449 0 .176.271.176.354 0 1.04-.156t1.04-.156q.774 0 1.27.476.496.475.496 1.236 0 1.196-.95 1.93-.952.734-2.189.734-1.155 0-2.004-.51-.85-.51-.85-1.583 0-.353.123-.68l1.617.49q-.014.054-.014.15 0 .23.272.353.272.122.666.122.598 0 1.1-.252.503-.251.503-.672 0-.15-.108-.231-.109-.082-.258-.082-.272 0-.795.095-.524.095-.782.095-.76 0-1.345-.34t-.585-1.046q0-.598.449-1.182-.57-.666-.57-1.726 0-1.196.699-1.855.7-.659 1.91-.659.91 0 1.508.353.081-.19.054-.516h1.522q0 1.25-.611 1.685.136.503.136 1.006zm-1.754-.014q0-.38-.23-.591-.232-.21-.626-.21-.38 0-.618.21t-.238.591q0 .815.856.815t.856-.815zm8.63-.367v3.411l.272 1.02-1.59.407-.136-.435q-.585.449-1.481.449-1.047 0-1.767-.591-.72-.592-.72-1.61 0-.952.604-1.51.605-.556 1.842-.624h1.019q.231-.014.231-.177v-.19q0-.286-.217-.456-.218-.17-.544-.17-.856 0-1.142.64l-1.562-.544q.543-1.74 2.704-1.74.965 0 1.726.591.76.591.76 1.53zm-1.726 2.895V9.795q-.136.095-.34.095h-.76q-.938.027-.938.815 0 .313.278.49.279.176.591.176.639 0 1.169-.421zm5.517.23l.014 1.55q-1.128 0-1.672-.421-.543-.422-.543-1.509V3.244h1.753v7.53q0 .23.102.318.102.089.346.089zm5.382-2.812h4.036v1.427h-4.036V8.368zm16.837 1.454q0 1.4-1.06 2.222-1.06.822-2.5.822-3.098 0-3.832-2.881l1.834-.367q.394 1.4 1.998 1.4.612 0 1.114-.313.503-.312.503-.883 0-.394-.38-.652-.38-.259-.952-.374-.57-.116-1.243-.313-.673-.197-1.244-.448-.57-.252-.95-.809-.381-.557-.381-1.359 0-1.29.971-2.011.972-.72 2.304-.72 1.29 0 2.14.516.85.517 1.407 1.658l-1.672.775q-.34-.612-.76-.877-.422-.265-1.115-.265-.49 0-.91.231-.422.231-.422.693 0 .326.38.55.381.225.952.34.57.116 1.243.327.673.21 1.244.489.57.278.95.856.381.577.381 1.393zm6.972-.394q0 1.535-.686 2.493-.687.958-2.168.958-.516 0-.91-.258v3.099h-1.849V6.017h1.509l.068.272q.557-.422 1.196-.422 1.005 0 1.664.517.66.516.918 1.284t.258 1.76zm-1.875.577q.027-.224.027-.577 0-.354-.027-.578-.028-.224-.116-.51-.088-.285-.306-.434-.217-.15-.557-.15-.408 0-.659.231-.251.231-.251.625v1.618q0 .407.244.631.245.225.666.225.34 0 .557-.143.218-.143.306-.428.088-.285.116-.51zm8.248-1.95v3.411l.272 1.02-1.59.407-.136-.435q-.584.449-1.48.449-1.047 0-1.768-.591-.72-.592-.72-1.61 0-.952.605-1.51.605-.556 1.841-.624h1.02q.23-.014.23-.177v-.19q0-.286-.217-.456-.217-.17-.543-.17-.857 0-1.142.64l-1.563-.544q.544-1.74 2.705-1.74.964 0 1.725.591.761.591.761 1.53zm-1.725 2.895V9.795q-.136.095-.34.095h-.761q-.938.027-.938.815 0 .313.279.49.278.176.59.176.64 0 1.17-.421zm-2.351-5.518l1.168-2.215h1.848l-1.753 2.215h-1.263zm11.347 3.52v3.778h-1.848V8.993q0-.625-.21-.958-.212-.333-.796-.333-.394 0-.652.278-.258.279-.258.687v4.063h-1.849V6.017h1.509l.068.272q.516-.422 1.264-.422 2.772 0 2.772 3.085zm7.04 0v3.778h-1.849V8.993q0-.625-.21-.958-.211-.333-.795-.333-.395 0-.653.278-.258.279-.258.687v4.063h-1.848V6.017h1.508l.068.272q.517-.422 1.264-.422 2.772 0 2.772 3.085z" fill="#fff"/></svg>