<svg width="89.568" height="16" viewBox="0 0 89.568 16" xmlns="http://www.w3.org/2000/svg"><path d="M21.373 8.308q0 1.185-.897 1.881-.898.696-2.117.696-2.623 0-3.244-2.439l1.553-.31Q17 9.32 18.359 9.32q.518 0 .943-.264.426-.265.426-.748 0-.334-.322-.552-.322-.219-.805-.316-.484-.098-1.053-.265-.57-.167-1.053-.38t-.805-.684q-.322-.472-.322-1.15 0-1.093.822-1.703.823-.61 1.95-.61 1.093 0 1.812.437.72.437 1.191 1.404l-1.415.655q-.288-.517-.644-.742-.357-.224-.944-.224-.414 0-.77.196-.357.195-.357.586 0 .277.322.466.322.19.805.288.484.098 1.053.276.57.178 1.053.414t.805.725q.322.489.322 1.18zm5.74-3.221l-1.518 2.53 1.852 3.153H25.78l-1.748-3.152 1.46-2.531h1.623zM22.467 2.74h1.507v8.03h-1.507V2.74zm9.56 3.049q.633.805.633 2.151 0 1.346-.633 2.146-.633.799-1.944.799-1.312 0-1.945-.8-.632-.799-.632-2.145t.632-2.151q.633-.806 1.945-.806 1.311 0 1.944.806zm-1.162 3.186q.207-.39.207-1.035 0-.644-.207-1.041-.207-.397-.782-.397-.587 0-.788.391-.202.391-.202 1.047 0 .656.202 1.041.201.385.788.385.575 0 .782-.39zm8.053-1.093q0 1.381-.616 2.18-.615.8-1.88.8-1.312 0-1.91-.834-.598-.834-.598-2.146 0-1.357.61-2.145.609-.788 1.886-.788.161 0 .219.011l-.104-.241h-1.38V3.488h.828l-.598-1.335H36.8l.598 1.335h1.059v1.23h-.495l.598 1.232q.357.655.357 1.932zm-1.346.012q0-.794-.242-1.22-.241-.425-.92-.425-.368 0-.61.138-.241.138-.356.391-.115.253-.15.506-.034.253-.034.61 0 .782.241 1.208.242.426.909.426.368 0 .615-.133.248-.132.357-.385.11-.253.15-.506.04-.253.04-.61zm7.19-1.081V9.7l.23.863-1.346.345-.115-.368q-.495.38-1.254.38-.886 0-1.495-.5-.61-.501-.61-1.364 0-.805.512-1.277.512-.472 1.559-.53h.862q.196-.01.196-.149v-.16q0-.242-.184-.386-.184-.144-.46-.144-.725 0-.967.54l-1.323-.46q.46-1.472 2.29-1.472.817 0 1.46.5.645.5.645 1.295zM43.3 9.263v-.978q-.115.08-.288.08h-.644q-.794.024-.794.69 0 .265.236.415.236.15.5.15.541 0 .99-.357zm8.283-.736l1.162-3.44h1.691L52.25 10.77h-1.265L48.81 5.087h1.68l1.093 3.44zm8.099-.714v.495h-3.29q.046.495.328.805.281.311.776.311.644 0 1.162-.54l.966.954q-1.035 1.036-2.14 1.036-1.253 0-1.978-.835-.725-.834-.725-2.099 0-1.277.702-2.111.702-.834 1.944-.834 1.035 0 1.645.776.61.777.61 2.042zm-3.279-.483h1.83q-.127-.886-.875-.886-.805 0-.955.886zm8.042-1.955l-.576 1.207q-.38-.16-.667-.16-.391 0-.604.212-.213.213-.213.581v3.555h-1.553V5.087h1.266l.057.242q.449-.392 1.047-.392.633 0 1.243.438zm6.143 2.507q0 1.381-.616 2.18-.615.8-1.88.8-1.312 0-1.91-.834-.599-.834-.599-2.146 0-1.357.61-2.145t1.887-.788q.161 0 .218.011l-.103-.241h-1.38V3.488h.828l-.598-1.335h1.426l.598 1.335h1.059v1.23h-.495l.598 1.232q.357.655.357 1.932zm-1.346.012q0-.794-.242-1.22-.241-.425-.92-.425-.368 0-.61.138-.241.138-.356.391-.115.253-.15.506-.035.253-.035.61 0 .782.242 1.208.242.426.909.426.368 0 .615-.133.248-.132.357-.385.11-.253.15-.506.04-.253.04-.61z" fill="#fff"/></svg>