<svg width="273" height="40" viewBox="0 0 273 40" xmlns="http://www.w3.org/2000/svg"><path d="M91.62 27.23c.172 0 .287-.115.287-.287v-6.765c0-.115.057-.172.172-.172h.946c3.469 0 5.734-1.72 5.734-6.135 0-4.444-2.18-6.135-5.734-6.135h-4.587c-.172 0-.286.114-.286.286v18.921c0 .172.114.287.286.287zm1.29-10.521h-.831c-.115 0-.172-.057-.172-.172v-5.332c0-.115.057-.172.172-.172h.831c1.462 0 2.093.63 2.093 2.838 0 2.207-.63 2.838-2.093 2.838zm13.044 10.779c2.552 0 4.272-1.147 4.989-3.297.315-.889.4-1.691.4-6.708s-.085-5.82-.4-6.708c-.717-2.15-2.437-3.297-4.989-3.297-2.551 0-4.271 1.147-4.988 3.297-.315.888-.401 1.691-.401 6.708s.086 5.82.401 6.708c.717 2.15 2.437 3.297 4.988 3.297zm0-3.383c-.716 0-1.204-.401-1.376-.946-.143-.459-.2-.946-.2-5.676s.057-5.218.2-5.676c.172-.545.66-.946 1.376-.946.717 0 1.204.401 1.376.946.144.458.201.946.201 5.676s-.057 5.217-.2 5.676c-.173.545-.66.946-1.377.946zm18.72 3.125c.144 0 .201-.143.144-.287l-2.666-8.256c1.347-.917 2.178-2.523 2.178-4.988 0-4.33-2.236-5.963-5.704-5.963h-4.645c-.172 0-.286.114-.286.286v18.921c0 .172.114.287.286.287h3.182c.172 0 .287-.115.287-.287v-7.167c0-.114.057-.172.172-.172h1.09l2.207 7.397c.057.172.143.229.315.229zm-6.22-10.865h-.832c-.115 0-.172-.057-.172-.172v-4.988c0-.115.057-.172.172-.172h.832c1.462 0 2.092.63 2.092 2.666 0 2.064-.63 2.666-2.092 2.666zm14.161 10.865c.173 0 .287-.115.287-.287V11.291c0-.115.058-.172.172-.172h3.068c.172 0 .286-.115.286-.287v-2.81c0-.172-.114-.286-.286-.286h-10.235c-.172 0-.286.114-.286.286v2.81c0 .172.114.287.286.287h3.068c.114 0 .172.057.172.172v15.652c0 .172.114.287.286.287zm11.783-21.644c.23 0 .373-.086.573-.287l2.982-3.268c.115-.143.029-.287-.143-.287h-2.867c-.23 0-.316.086-.459.287l-2.35 3.268c-.115.143-.03.287.143.287zm-1.06 21.902c3.267 0 5.274-1.863 5.274-5.533V8.022c0-.172-.114-.286-.286-.286h-3.183c-.172 0-.286.114-.286.286v14.392c0 1.032-.545 1.691-1.52 1.691-.946 0-1.49-.66-1.49-1.691V8.022c0-.172-.115-.286-.287-.286h-3.182c-.172 0-.287.114-.287.286v13.933c0 3.67 2.007 5.533 5.246 5.533zm7.94-3.268c.717 2.121 2.408 3.268 5.017 3.268 2.552 0 4.243-1.147 4.96-3.297.315-.889.401-1.691.401-6.708v-.86c0-.172-.115-.287-.287-.287h-4.73c-.172 0-.286.115-.286.287v2.523c0 .172.114.286.286.286h1.233c.115 0 .172.058.172.172 0 2.867-.057 3.154-.172 3.555-.172.574-.774.946-1.49.946-.717 0-1.32-.372-1.492-.946-.143-.43-.172-.688-.172-5.676 0-5.017.03-5.246.172-5.705.172-.545.746-.917 1.434-.917.975 0 1.548.659 1.634 2.064.029.2.143.286.315.258l3.04-.516c.171-.029.257-.172.228-.344-.258-3.154-2.092-4.845-5.246-4.845-2.609 0-4.3 1.147-5.017 3.268-.286.917-.372 1.72-.372 6.737s.086 5.82.372 6.737zm11.152 2.723c-.029.172.057.287.23.287h3.182c.2 0 .286-.115.315-.287l.66-3.526h3.698l.63 3.526c.029.172.115.287.316.287h3.182c.172 0 .258-.115.229-.287l-4.185-18.92c-.03-.173-.144-.287-.316-.287h-3.383c-.172 0-.258.114-.315.286zm4.931-6.507l1.29-6.766h.086l1.233 6.766zm9.088 6.507c0 .172.114.287.286.287h8.572c.172 0 .287-.115.287-.287v-2.81c0-.171-.115-.286-.287-.286h-4.93c-.115 0-.173-.057-.173-.172V8.022c0-.172-.114-.286-.286-.286h-3.183c-.172 0-.286.114-.286.286z" fill="#fff"/></svg>