<svg width="166.863" height="51" viewBox="0 0 166.863 51" xmlns="http://www.w3.org/2000/svg"><path d="M38.597 34.242c-.11.255 0 .438.256.438h3.869c.292 0 .438-.11.548-.365l4.197-10.147c.913-2.19 1.278-3.65 1.278-7.045 0-2.3-.11-3.14-.329-3.87-.766-2.372-2.737-3.722-5.767-3.722-3.03 0-5 1.35-5.767 3.723-.22.73-.329 1.57-.329 3.869 0 2.336.146 3.358.402 4.088.73 2.19 2.044 3.468 4.453 3.468.511 0 .913-.073 1.095-.183 0 .037.073.073.073.073zm4.052-13.505c-.73 0-1.168-.329-1.387-.986-.11-.292-.146-.657-.146-2.628s.036-2.3.146-2.592c.219-.657.657-.985 1.387-.985s1.168.328 1.387.985c.11.292.146.62.146 2.592 0 1.971-.036 2.336-.146 2.628-.219.657-.657.986-1.387.986zm9.417 10.585c.767 2.336 2.701 3.687 5.695 3.687 3.066 0 4.964-1.315 5.73-3.65.22-.694.329-1.643.329-3.87 0-2.263-.073-2.883-.256-3.467-.328-1.059-.949-1.716-1.898-2.263v-.073c.913-.548 1.57-1.241 1.898-2.263.183-.585.256-1.242.256-2.884 0-1.716-.11-2.665-.329-3.358-.766-2.336-2.628-3.65-5.73-3.65-2.994 0-4.928 1.35-5.695 3.686-.219.73-.328 1.57-.328 2.701 0 .256.11.402.365.438l3.65.365c.255.037.438-.073.438-.365 0-1.204.036-1.533.11-1.825.218-.657.656-.985 1.423-.985.73 0 1.168.292 1.387.949.11.292.146.657.146 2.044 0 1.825-.036 2.153-.146 2.409-.219.657-.73.876-1.57.876h-.584c-.219 0-.365.146-.365.365v3.395c0 .219.146.365.365.365h.548c.876 0 1.387.219 1.606.912.11.256.146.62.146 2.592 0 1.934-.036 2.3-.146 2.591-.219.657-.657.95-1.387.95-.767 0-1.205-.33-1.424-.986-.073-.292-.109-.62-.109-1.825 0-.292-.183-.402-.438-.365l-3.65.365c-.256.036-.365.182-.365.438 0 1.131.11 1.97.328 2.7zm14.93 2.993c0 .219.145.365.364.365h3.723c.22 0 .365-.146.365-.365v-4.234c0-.22-.146-.365-.365-.365H67.36c-.219 0-.365.146-.365.365zm9.563-.073c-.11.255 0 .438.255.438h3.87c.291 0 .437-.11.547-.365l4.197-10.147c.913-2.19 1.278-3.65 1.278-7.045 0-2.3-.11-3.14-.329-3.87-.766-2.372-2.737-3.722-5.767-3.722-3.03 0-5 1.35-5.767 3.723-.219.73-.328 1.57-.328 3.869 0 2.336.146 3.358.401 4.088.73 2.19 2.044 3.468 4.453 3.468.511 0 .913-.073 1.095-.183 0 .037.073.073.073.073zm4.051-13.505c-.73 0-1.168-.329-1.387-.986-.11-.292-.146-.657-.146-2.628s.037-2.3.146-2.592c.22-.657.657-.985 1.387-.985s1.168.328 1.387.985c.11.292.146.62.146 2.592 0 1.971-.036 2.336-.146 2.628-.219.657-.657.986-1.387.986zm9.454 10.548c.767 2.41 2.81 3.724 5.73 3.724 2.92 0 5.001-1.278 5.731-3.724.292-.912.402-1.898.402-9.015 0-7.118-.11-8.104-.402-9.016-.73-2.446-2.81-3.723-5.73-3.723-2.92 0-4.928 1.314-5.694 3.723-.292.912-.438 1.898-.438 9.016 0 7.117.109 8.103.401 9.015zm4.344-1.24c-.11-.366-.146-.804-.146-7.775 0-6.972.036-7.41.146-7.775.182-.584.657-.95 1.387-.95s1.204.366 1.387.95c.11.365.146.803.146 7.775 0 6.971-.037 7.41-.146 7.774-.183.584-.62.95-1.387.95-.73 0-1.205-.366-1.387-.95zm10.84 1.24c.767 2.41 2.811 3.724 5.731 3.724s5-1.278 5.73-3.724c.293-.912.402-1.898.402-9.015 0-7.118-.11-8.104-.401-9.016-.73-2.446-2.81-3.723-5.73-3.723-2.92 0-4.928 1.314-5.695 3.723-.292.912-.438 1.898-.438 9.016 0 7.117.11 8.103.402 9.015zm4.344-1.24c-.11-.366-.146-.804-.146-7.775 0-6.972.037-7.41.146-7.775.183-.584.657-.95 1.387-.95s1.205.366 1.387.95c.11.365.146.803.146 7.775 0 6.971-.036 7.41-.146 7.774-.182.584-.62.95-1.387.95-.73 0-1.204-.366-1.387-.95zm17.776 4.27c0 .219.146.365.365.365h4.052c.219 0 .365-.146.365-.365v-6.716l1.46-3.066 3.65 9.891c.037.183.146.256.365.256h4.344c.182 0 .292-.183.219-.365l-5.585-14.454 4.964-9.637c.11-.182 0-.365-.182-.365h-4.234c-.22 0-.365.073-.475.292l-4.526 9.6v-9.527c0-.219-.146-.365-.365-.365h-4.052c-.219 0-.365.146-.365.365zm30.99.365c.182 0 .255-.183.182-.365l-3.394-10.512c1.715-1.168 2.774-3.212 2.774-6.352 0-5.511-2.847-7.592-7.264-7.592h-5.913c-.22 0-.365.146-.365.365v24.091c0 .219.146.365.365.365h4.051c.22 0 .365-.146.365-.365V25.19c0-.146.073-.22.22-.22h1.386l2.811 9.418c.073.219.183.292.402.292zm-7.921-13.834h-1.059c-.146 0-.219-.073-.219-.219v-6.351c0-.146.073-.22.22-.22h1.058c1.862 0 2.665.804 2.665 3.395 0 2.629-.803 3.395-2.665 3.395zm10.403 13.469c0 .219.146.365.365.365h3.723c.219 0 .365-.146.365-.365v-4.234c0-.22-.146-.365-.365-.365h-3.723c-.22 0-.365.146-.365.365z" fill="#fff"/></svg>