<svg width="252.932" height="46" viewBox="0 0 252.932 46" xmlns="http://www.w3.org/2000/svg"><path d="M70.495 30.674c0 .195.13.326.326.326h3.166c.195 0 .326-.13.326-.326V17.848h.196l2.415 8.877c.065.195.196.326.424.326h1.795c.229 0 .36-.13.424-.326l2.416-8.877h.195v12.826c0 .195.13.326.327.326h3.165c.196 0 .327-.13.327-.326V9.134c0-.196-.13-.327-.327-.327h-3.492c-.293 0-.457.098-.522.327l-3.263 11.65h-.131l-3.394-11.65c-.065-.229-.229-.327-.522-.327H70.82c-.196 0-.326.13-.326.327zm17.297 0c-.033.195.065.326.26.326h3.624c.228 0 .326-.13.359-.326l.75-4.015h4.21l.718 4.015c.033.195.13.326.36.326h3.622c.196 0 .294-.13.261-.326l-4.765-21.54c-.033-.196-.163-.327-.359-.327h-3.851c-.196 0-.294.13-.359.327zm5.613-7.409l1.469-7.702h.098l1.403 7.702zm10.346 7.409c0 .195.13.326.326.326h9.759c.196 0 .326-.13.326-.326v-3.199c0-.196-.13-.326-.326-.326h-5.614c-.13 0-.196-.065-.196-.196V9.133c0-.195-.13-.326-.326-.326h-3.623c-.195 0-.326.13-.326.327zm12.565 0c0 .195.13.326.326.326h9.759c.196 0 .326-.13.326-.326v-3.199c0-.196-.13-.326-.326-.326h-5.614c-.13 0-.196-.065-.196-.196V9.133c0-.195-.13-.326-.326-.326h-3.623c-.195 0-.326.13-.326.327zm17.591.62c2.905 0 4.863-1.306 5.679-3.753.359-1.012.457-1.926.457-7.637 0-5.712-.098-6.626-.457-7.637-.816-2.448-2.774-3.753-5.679-3.753-2.905 0-4.863 1.305-5.679 3.753-.359 1.011-.457 1.925-.457 7.637 0 5.711.098 6.625.457 7.637.816 2.447 2.774 3.753 5.68 3.753zm0-3.851c-.816 0-1.37-.457-1.566-1.077-.164-.523-.229-1.077-.229-6.462s.065-5.94.229-6.462c.195-.62.75-1.077 1.566-1.077.816 0 1.37.457 1.567 1.077.163.522.228 1.077.228 6.462s-.065 5.94-.228 6.462c-.196.62-.751 1.077-1.567 1.077zM155.22 31c.163 0 .228-.163.163-.326l-3.035-9.4c1.534-1.044 2.48-2.872 2.48-5.678 0-4.928-2.546-6.789-6.495-6.789h-5.287c-.196 0-.326.13-.326.327v21.54c0 .195.13.326.326.326h3.623c.196 0 .326-.13.326-.326v-8.16c0-.13.066-.195.196-.195h1.24l2.513 8.42c.066.196.163.261.36.261zm-7.082-12.37h-.947c-.13 0-.196-.064-.196-.195v-5.679c0-.13.066-.196.196-.196h.947c1.664 0 2.382.718 2.382 3.036 0 2.35-.718 3.035-2.382 3.035zm9.431 8.976c.784 2.382 2.579 3.688 5.516 3.688 3.557 0 5.646-1.893 5.842-5.614 0-.196-.065-.359-.294-.391l-3.427-.588c-.195-.032-.359.065-.359.294-.065 1.762-.62 2.448-1.697 2.448-.783 0-1.24-.327-1.468-1.012-.13-.49-.196-.881-.196-6.527s.065-6.038.196-6.528c.228-.685.685-1.011 1.468-1.011 1.077 0 1.632.685 1.697 2.447 0 .229.164.327.36.294l3.426-.587c.229-.033.294-.196.294-.392-.196-3.72-2.285-5.613-5.842-5.613-2.937 0-4.732 1.305-5.516 3.687-.293.947-.424 1.959-.424 7.703s.13 6.755.424 7.702zm11.913 3.068c-.033.195.065.326.26.326h3.623c.229 0 .327-.13.36-.326l.75-4.015h4.21l.718 4.015c.033.195.13.326.36.326h3.622c.196 0 .294-.13.26-.326l-4.764-21.54c-.033-.196-.163-.327-.359-.327h-3.851c-.196 0-.294.13-.36.327zm5.613-7.409l1.469-7.702h.098l1.403 7.702z" fill="#fff"/></svg>