<svg width="164.415" height="32" viewBox="0 0 164.415 32" xmlns="http://www.w3.org/2000/svg"><path d="M4.691 21.85c.138 0 .207-.092.23-.23L8.025 6.443c.023-.138-.023-.23-.184-.23h-.759c-.137 0-.206.092-.23.23l-2.46 12.602h-.069L1.84 6.443c-.023-.138-.115-.23-.253-.23h-.76c-.16 0-.206.092-.183.23L3.748 21.62c.023.138.092.23.23.23zm5.542-.23c0 .138.092.23.23.23h5.312c.138 0 .23-.092.23-.23v-.667c0-.138-.092-.23-.23-.23h-4.208c-.092 0-.138-.046-.138-.138V14.63c0-.092.046-.138.138-.138h3.679c.138 0 .23-.092.23-.23v-.667c0-.138-.092-.23-.23-.23h-3.68c-.091 0-.137-.046-.137-.138V7.478c0-.092.046-.138.138-.138h4.208c.138 0 .23-.092.23-.23v-.667c0-.138-.092-.23-.23-.23h-5.312c-.138 0-.23.092-.23.23zm14.579.23c.115 0 .16-.092.115-.23l-2.116-7.128c1.242-.552 1.932-1.771 1.932-3.956 0-3.173-1.242-4.323-3.978-4.323h-2.231c-.138 0-.23.092-.23.23V21.62c0 .138.092.23.23.23h.736c.138 0 .23-.092.23-.23v-6.623c0-.092.046-.138.138-.138h1.08c.346 0 .667-.023.966-.068l2.024 6.898c.046.115.115.161.253.161zm-3.955-8.094h-1.22c-.091 0-.137-.046-.137-.138v-6.14c0-.092.046-.138.138-.138h1.219c1.908 0 2.69.782 2.69 3.196 0 2.507-.828 3.22-2.69 3.22zm9.772 8.094c1.886 0 2.92-.828 3.404-2.323.276-.85.368-1.885.368-5.495 0-3.634-.092-4.645-.368-5.496-.483-1.495-1.518-2.323-3.404-2.323h-2.805c-.138 0-.23.092-.23.23v6.83c0 .092-.046.138-.138.138h-.782c-.138 0-.23.092-.23.23v.552c0 .138.092.23.23.23h.782c.092 0 .138.046.138.138v7.059c0 .138.092.23.23.23zm-.138-1.127h-1.563c-.092 0-.138-.046-.138-.138v-6.024c0-.092.046-.138.138-.138h1.724c.138 0 .23-.092.23-.23v-.552c0-.138-.092-.23-.23-.23h-1.724c-.092 0-.138-.046-.138-.138V7.478c0-.092.046-.138.138-.138h1.563c1.311 0 2.024.506 2.392 1.587.23.713.322 1.655.322 5.105 0 3.449-.092 4.392-.322 5.105-.368 1.08-1.08 1.586-2.392 1.586zm11.038.897c0 .138.092.23.23.23h.736c.138 0 .23-.092.23-.23v-6.898c0-.092.046-.138.138-.138h3.68c.137 0 .229-.092.229-.23v-.667c0-.138-.092-.23-.23-.23h-3.68c-.091 0-.137-.046-.137-.138v-5.84c0-.093.046-.139.138-.139h4.208c.138 0 .23-.092.23-.23v-.667c0-.138-.092-.23-.23-.23h-5.312c-.138 0-.23.092-.23.23zm14.51.23c.115 0 .161-.092.115-.23l-2.116-7.128c1.242-.552 1.932-1.771 1.932-3.956 0-3.173-1.242-4.323-3.978-4.323h-2.23c-.139 0-.23.092-.23.23V21.62c0 .138.091.23.23.23h.735c.138 0 .23-.092.23-.23v-6.623c0-.092.046-.138.138-.138h1.08c.346 0 .668-.023.967-.068l2.023 6.898c.046.115.115.161.253.161zm-3.955-8.094h-1.219c-.092 0-.138-.046-.138-.138v-6.14c0-.092.046-.138.138-.138h1.219c1.908 0 2.69.782 2.69 3.196 0 2.507-.828 3.22-2.69 3.22zm5.749 7.864c-.023.138.092.23.23.23h.735c.138 0 .207-.092.23-.23l.782-3.748h3.817l.782 3.748c.023.138.092.23.253.23h.736c.138 0 .23-.092.207-.23l-3.22-15.177c-.022-.138-.114-.23-.252-.23h-.76c-.137 0-.206.092-.252.23zm2.207-4.829l1.679-7.98h.046l1.632 7.98zM62.018 4.26c.16 0 .23-.046.39-.23L64.41 1.66c.092-.115.046-.23-.092-.23h-.759c-.207 0-.276.07-.39.23L61.443 4.03c-.092.115-.046.23.092.23zm5.932 8.577h1.035c.138 0 .23-.092.23-.23v-1.495c0-.138-.092-.23-.23-.23H67.95c-.137 0-.23.092-.23.23v1.495c0 .138.093.23.23.23zm-.23 8.784c0 .138.093.23.23.23h1.035c.138 0 .23-.092.23-.23v-1.495c0-.138-.092-.23-.23-.23H67.95c-.137 0-.23.092-.23.23z" fill="#fff"/></svg>