<svg width="166.863" height="51" viewBox="0 0 166.863 51" xmlns="http://www.w3.org/2000/svg"><path d="M38.597 34.242c-.11.255 0 .438.256.438h3.869c.292 0 .438-.11.548-.365l4.197-10.147c.913-2.19 1.278-3.65 1.278-7.045 0-2.3-.11-3.14-.329-3.87-.766-2.372-2.737-3.722-5.767-3.722-3.03 0-5 1.35-5.767 3.723-.22.73-.329 1.57-.329 3.869 0 2.336.146 3.358.402 4.088.73 2.19 2.044 3.468 4.453 3.468.511 0 .913-.073 1.095-.183 0 .037.073.073.073.073zm4.052-13.505c-.73 0-1.168-.329-1.387-.986-.11-.292-.146-.657-.146-2.628s.036-2.3.146-2.592c.219-.657.657-.985 1.387-.985s1.168.328 1.387.985c.11.292.146.62.146 2.592 0 1.971-.036 2.336-.146 2.628-.219.657-.657.986-1.387.986zm9.125 13.578c0 .219.146.365.365.365h11.352c.22 0 .365-.146.365-.365v-3.358c0-.22-.146-.365-.365-.365h-6.57v-.037l5.183-8.322c1.205-1.934 1.752-3.395 1.752-6.169 0-1.277-.11-2.153-.328-2.847-.803-2.372-2.665-3.686-5.694-3.686-3.067 0-4.965 1.35-5.731 3.686-.22.73-.329 1.57-.329 2.993 0 .256.11.402.365.438l3.614.329c.255.036.438-.073.438-.365 0-1.46.036-1.789.146-2.08.219-.658.657-.986 1.387-.986.767 0 1.205.328 1.424.985.109.292.146.62.146 1.533 0 2.008-.292 2.847-1.095 4.125l-6.242 10.184c-.146.292-.183.438-.183.693zm15.221 0c0 .219.146.365.365.365h3.723c.22 0 .365-.146.365-.365v-4.234c0-.22-.146-.365-.365-.365H67.36c-.219 0-.365.146-.365.365zm7.921-2.993c.767 2.336 2.665 3.687 5.694 3.687 3.03 0 4.928-1.315 5.73-3.687.22-.694.33-1.606.33-4.636 0-3.504-.11-4.38-.402-5.22-.657-2.08-2.117-3.066-4.49-3.066-1.24 0-2.19.402-2.737.95h-.037v-5.184c0-.146.073-.219.22-.219h7.044c.219 0 .365-.146.365-.365v-3.358c0-.219-.146-.365-.365-.365h-10.95c-.22 0-.365.146-.365.365v13.104c0 .256.146.365.365.365h3.248c.292 0 .438-.073.511-.328.22-.62.657-1.022 1.46-1.022.73 0 1.205.328 1.424.985.11.292.146.657.146 3.358s-.037 3.066-.146 3.358c-.22.657-.657.95-1.424.95-.73 0-1.168-.33-1.387-.986-.11-.292-.146-.62-.146-1.57 0-.292-.182-.401-.438-.365l-3.613.365c-.256.037-.365.183-.365.438 0 .876.109 1.716.328 2.446zm15.148-.037c.767 2.41 2.81 3.724 5.73 3.724 2.92 0 5.001-1.278 5.731-3.724.292-.912.402-1.898.402-9.015 0-7.118-.11-8.104-.402-9.016-.73-2.446-2.81-3.723-5.73-3.723-2.92 0-4.928 1.314-5.694 3.723-.292.912-.438 1.898-.438 9.016 0 7.117.109 8.103.401 9.015zm4.344-1.24c-.11-.366-.146-.804-.146-7.775 0-6.972.036-7.41.146-7.775.182-.584.657-.95 1.387-.95s1.204.366 1.387.95c.11.365.146.803.146 7.775 0 6.971-.037 7.41-.146 7.774-.183.584-.62.95-1.387.95-.73 0-1.205-.366-1.387-.95zm10.84 1.24c.767 2.41 2.811 3.724 5.731 3.724s5-1.278 5.73-3.724c.293-.912.402-1.898.402-9.015 0-7.118-.11-8.104-.401-9.016-.73-2.446-2.81-3.723-5.73-3.723-2.92 0-4.928 1.314-5.695 3.723-.292.912-.438 1.898-.438 9.016 0 7.117.11 8.103.402 9.015zm4.344-1.24c-.11-.366-.146-.804-.146-7.775 0-6.972.037-7.41.146-7.775.183-.584.657-.95 1.387-.95s1.205.366 1.387.95c.11.365.146.803.146 7.775 0 6.971-.036 7.41-.146 7.774-.182.584-.62.95-1.387.95-.73 0-1.204-.366-1.387-.95zm17.776 4.27c0 .219.146.365.365.365h4.052c.219 0 .365-.146.365-.365v-6.716l1.46-3.066 3.65 9.891c.037.183.146.256.365.256h4.344c.182 0 .292-.183.219-.365l-5.585-14.454 4.964-9.637c.11-.182 0-.365-.182-.365h-4.234c-.22 0-.365.073-.475.292l-4.526 9.6v-9.527c0-.219-.146-.365-.365-.365h-4.052c-.219 0-.365.146-.365.365zm30.99.365c.182 0 .255-.183.182-.365l-3.394-10.512c1.715-1.168 2.774-3.212 2.774-6.352 0-5.511-2.847-7.592-7.264-7.592h-5.913c-.22 0-.365.146-.365.365v24.091c0 .219.146.365.365.365h4.051c.22 0 .365-.146.365-.365V25.19c0-.146.073-.22.22-.22h1.386l2.811 9.418c.073.219.183.292.402.292zm-7.921-13.834h-1.059c-.146 0-.219-.073-.219-.219v-6.351c0-.146.073-.22.22-.22h1.058c1.862 0 2.665.804 2.665 3.395 0 2.629-.803 3.395-2.665 3.395zm10.403 13.469c0 .219.146.365.365.365h3.723c.219 0 .365-.146.365-.365v-4.234c0-.22-.146-.365-.365-.365h-3.723c-.22 0-.365.146-.365.365z" fill="#fff"/></svg>