<svg width="252.932" height="46" viewBox="0 0 252.932 46" xmlns="http://www.w3.org/2000/svg"><path d="M79.062 30.674c-.033.195.065.326.26.326h3.623c.229 0 .327-.13.36-.326l.75-4.015h4.21l.718 4.015c.033.195.13.326.36.326h3.622c.196 0 .293-.13.26-.326l-4.764-21.54c-.033-.196-.163-.327-.36-.327h-3.85c-.196 0-.294.13-.36.327zm5.613-7.409l1.469-7.702h.098l1.403 7.702zm10.346 7.409c0 .195.13.326.326.326h9.758c.196 0 .327-.13.327-.326v-3.199c0-.196-.13-.326-.327-.326h-5.613c-.13 0-.196-.065-.196-.196V9.133c0-.195-.13-.326-.326-.326h-3.623c-.196 0-.326.13-.326.327zm12.565 0c0 .195.13.326.326.326h3.166c.196 0 .326-.13.326-.326V17.848h.196l2.415 8.877c.065.195.196.326.424.326h1.795c.229 0 .36-.13.425-.326l2.415-8.877h.196v12.826c0 .195.13.326.326.326h3.166c.196 0 .326-.13.326-.326V9.134c0-.196-.13-.327-.326-.327h-3.492c-.294 0-.457.098-.523.327l-3.263 11.65h-.13l-3.395-11.65c-.065-.229-.228-.327-.522-.327h-3.525c-.196 0-.326.13-.326.327zm18.505 0c0 .195.13.326.326.326h9.693c.196 0 .326-.13.326-.326v-3.199c0-.196-.13-.326-.326-.326h-5.548c-.13 0-.196-.065-.196-.196v-5.026c0-.13.065-.196.196-.196h4.797c.196 0 .327-.13.327-.326v-3.198c0-.196-.13-.327-.327-.327h-4.797c-.13 0-.196-.065-.196-.196v-4.83c0-.13.065-.196.196-.196h5.548c.196 0 .326-.13.326-.326V9.134c0-.196-.13-.327-.326-.327h-9.693c-.196 0-.326.13-.326.327zm25.228.326c.163 0 .228-.163.163-.326l-3.035-9.4c1.533-1.044 2.48-2.872 2.48-5.678 0-4.928-2.546-6.789-6.495-6.789h-5.287c-.196 0-.326.13-.326.327v21.54c0 .195.13.326.326.326h3.623c.196 0 .326-.13.326-.326v-8.16c0-.13.065-.195.196-.195h1.24l2.513 8.42c.065.196.163.261.36.261zm-7.083-12.37h-.946c-.13 0-.196-.064-.196-.195v-5.679c0-.13.065-.196.196-.196h.946c1.665 0 2.383.718 2.383 3.036 0 2.35-.718 3.035-2.383 3.035zm9.4 12.044c0 .195.13.326.326.326h3.623c.196 0 .326-.13.326-.326V9.134c0-.196-.13-.327-.326-.327h-3.623c-.196 0-.326.13-.326.327zm3.133-24.314c.26 0 .424-.098.653-.327l3.394-3.72c.13-.164.032-.327-.163-.327h-3.264c-.261 0-.36.098-.522.327l-2.676 3.72c-.131.163-.033.327.163.327zm2.937 24.314c-.033.195.065.326.261.326h3.623c.228 0 .326-.13.359-.326l.75-4.015h4.21l.719 4.015c.032.195.13.326.359.326h3.622c.196 0 .294-.13.261-.326l-4.765-21.54c-.032-.196-.163-.327-.359-.327h-3.85c-.197 0-.294.13-.36.327zm5.614-7.409l1.468-7.702h.098l1.403 7.702z" fill="#fff"/></svg>