<svg width="166.863" height="51" viewBox="0 0 166.863 51" xmlns="http://www.w3.org/2000/svg"><path d="M36.882 31.285c.766 2.373 2.737 3.724 5.767 3.724 3.03 0 5-1.351 5.767-3.724.22-.73.329-1.533.329-3.832 0-1.862-.073-2.592-.329-3.395-.328-1.022-.912-1.825-1.715-2.336v-.073c.84-.51 1.387-1.35 1.715-2.372.22-.73.329-1.497.329-2.775 0-1.679-.11-2.518-.329-3.248C47.65 10.88 45.68 9.53 42.65 9.53c-3.03 0-5 1.35-5.767 3.723-.22.73-.329 1.57-.329 3.248 0 1.278.073 2.044.329 2.775.328 1.022.912 1.861 1.715 2.372v.073c-.766.511-1.387 1.314-1.715 2.336-.256.803-.329 1.533-.329 3.395 0 2.3.11 3.102.329 3.832zm5.767-11.497c-.73 0-1.168-.329-1.387-.986-.11-.329-.146-.767-.146-2.154s.036-1.788.146-2.117c.219-.657.657-.985 1.387-.985s1.168.328 1.387.985c.11.329.146.73.146 2.117s-.036 1.825-.146 2.154c-.219.657-.657.986-1.387.986zm-1.387 10.22c-.11-.329-.146-.657-.146-2.628s.036-2.263.146-2.592c.219-.62.657-.985 1.387-.985s1.168.365 1.387.985c.11.329.146.62.146 2.592 0 1.97-.036 2.3-.146 2.628-.219.62-.657.985-1.387.985s-1.168-.365-1.387-.985zm14.82 4.307c0 .219.145.365.364.365h3.833c.22 0 .365-.146.365-.365v-24.09c0-.22-.146-.366-.365-.366h-3.614c-.255 0-.401.073-.62.22l-3.212 2.372c-.256.182-.329.328-.329.584v3.942c0 .292.22.365.402.219l3.102-2.154h.073zm10.913 0c0 .219.146.365.365.365h3.723c.22 0 .365-.146.365-.365v-4.234c0-.22-.146-.365-.365-.365H67.36c-.219 0-.365.146-.365.365zm9.564-.073c-.11.255 0 .438.255.438h3.87c.291 0 .437-.11.547-.365l4.197-10.147c.913-2.19 1.278-3.65 1.278-7.045 0-2.3-.11-3.14-.329-3.87-.766-2.372-2.737-3.722-5.767-3.722-3.03 0-5 1.35-5.767 3.723-.219.73-.328 1.57-.328 3.869 0 2.336.146 3.358.401 4.088.73 2.19 2.044 3.468 4.453 3.468.511 0 .913-.073 1.095-.183 0 .037.073.073.073.073zm4.051-13.505c-.73 0-1.168-.329-1.387-.986-.11-.292-.146-.657-.146-2.628s.037-2.3.146-2.592c.22-.657.657-.985 1.387-.985s1.168.328 1.387.985c.11.292.146.62.146 2.592 0 1.971-.036 2.336-.146 2.628-.219.657-.657.986-1.387.986zm9.454 10.548c.767 2.41 2.81 3.724 5.73 3.724 2.92 0 5.001-1.278 5.731-3.724.292-.912.402-1.898.402-9.015 0-7.118-.11-8.104-.402-9.016-.73-2.446-2.81-3.723-5.73-3.723-2.92 0-4.928 1.314-5.694 3.723-.292.912-.438 1.898-.438 9.016 0 7.117.109 8.103.401 9.015zm4.344-1.24c-.11-.366-.146-.804-.146-7.775 0-6.972.036-7.41.146-7.775.182-.584.657-.95 1.387-.95s1.204.366 1.387.95c.11.365.146.803.146 7.775 0 6.971-.037 7.41-.146 7.774-.183.584-.62.95-1.387.95-.73 0-1.205-.366-1.387-.95zm10.84 1.24c.767 2.41 2.811 3.724 5.731 3.724s5-1.278 5.73-3.724c.293-.912.402-1.898.402-9.015 0-7.118-.11-8.104-.401-9.016-.73-2.446-2.81-3.723-5.73-3.723-2.92 0-4.928 1.314-5.695 3.723-.292.912-.438 1.898-.438 9.016 0 7.117.11 8.103.402 9.015zm4.344-1.24c-.11-.366-.146-.804-.146-7.775 0-6.972.037-7.41.146-7.775.183-.584.657-.95 1.387-.95s1.205.366 1.387.95c.11.365.146.803.146 7.775 0 6.971-.036 7.41-.146 7.774-.182.584-.62.95-1.387.95-.73 0-1.204-.366-1.387-.95zm17.776 4.27c0 .219.146.365.365.365h4.052c.219 0 .365-.146.365-.365v-6.716l1.46-3.066 3.65 9.891c.037.183.146.256.365.256h4.344c.182 0 .292-.183.219-.365l-5.585-14.454 4.964-9.637c.11-.182 0-.365-.182-.365h-4.234c-.22 0-.365.073-.475.292l-4.526 9.6v-9.527c0-.219-.146-.365-.365-.365h-4.052c-.219 0-.365.146-.365.365zm30.99.365c.182 0 .255-.183.182-.365l-3.394-10.512c1.715-1.168 2.774-3.212 2.774-6.352 0-5.511-2.847-7.592-7.264-7.592h-5.913c-.22 0-.365.146-.365.365v24.091c0 .219.146.365.365.365h4.051c.22 0 .365-.146.365-.365V25.19c0-.146.073-.22.22-.22h1.386l2.811 9.418c.073.219.183.292.402.292zm-7.921-13.834h-1.059c-.146 0-.219-.073-.219-.219v-6.351c0-.146.073-.22.22-.22h1.058c1.862 0 2.665.804 2.665 3.395 0 2.629-.803 3.395-2.665 3.395zm10.403 13.469c0 .219.146.365.365.365h3.723c.219 0 .365-.146.365-.365v-4.234c0-.22-.146-.365-.365-.365h-3.723c-.22 0-.365.146-.365.365z" fill="#fff"/></svg>