<svg width="252.932" height="46" viewBox="0 0 252.932 46" xmlns="http://www.w3.org/2000/svg"><path d="M84.104 31c.196 0 .326-.13.326-.326v-17.82c0-.13.066-.196.196-.196h3.492c.196 0 .327-.13.327-.326V9.134c0-.196-.131-.327-.327-.327H76.467c-.196 0-.326.13-.326.327v3.198c0 .196.13.326.326.326h3.492c.13 0 .196.066.196.196v17.82c0 .195.13.326.326.326zm6.299-.326c0 .195.13.326.326.326h9.693c.196 0 .326-.13.326-.326v-3.199c0-.196-.13-.326-.326-.326h-5.548c-.13 0-.196-.065-.196-.196v-5.026c0-.13.065-.196.196-.196h4.797c.196 0 .327-.13.327-.326v-3.198c0-.196-.13-.327-.327-.327h-4.797c-.13 0-.196-.065-.196-.196v-4.83c0-.13.065-.196.196-.196h5.548c.196 0 .326-.13.326-.326V9.134c0-.196-.13-.327-.326-.327H90.73c-.196 0-.326.13-.326.327zm12.728 0c0 .195.13.326.326.326h3.1c.197 0 .327-.13.327-.326V16.738h.163l3.851 13.936c.066.228.196.326.457.326h3.917c.196 0 .326-.13.326-.326V9.134c0-.196-.13-.327-.326-.327h-3.1c-.197 0-.327.13-.327.327v13.935h-.163l-3.688-13.935c-.066-.229-.196-.327-.457-.327h-4.08c-.196 0-.326.13-.326.327zm15.47 0c0 .195.13.326.326.326h9.693c.196 0 .326-.13.326-.326v-3.199c0-.196-.13-.326-.326-.326h-5.548c-.13 0-.196-.065-.196-.196v-5.026c0-.13.065-.196.196-.196h4.797c.196 0 .327-.13.327-.326v-3.198c0-.196-.13-.327-.327-.327h-4.797c-.13 0-.196-.065-.196-.196v-4.83c0-.13.065-.196.196-.196h5.548c.196 0 .326-.13.326-.326V9.134c0-.196-.13-.327-.326-.327h-9.693c-.196 0-.326.13-.326.327zm25.228.326c.163 0 .228-.163.163-.326l-3.035-9.4c1.533-1.044 2.48-2.872 2.48-5.678 0-4.928-2.546-6.789-6.495-6.789h-5.287c-.196 0-.326.13-.326.327v21.54c0 .195.13.326.326.326h3.623c.196 0 .326-.13.326-.326v-8.16c0-.13.065-.195.196-.195h1.24l2.513 8.42c.065.196.163.261.36.261zm-7.083-12.37h-.946c-.13 0-.196-.064-.196-.195v-5.679c0-.13.065-.196.196-.196h.946c1.665 0 2.383.718 2.383 3.036 0 2.35-.718 3.035-2.383 3.035zm9.4 12.044c0 .195.13.326.326.326h3.623c.196 0 .326-.13.326-.326V9.134c0-.196-.13-.327-.326-.327h-3.623c-.196 0-.326.13-.326.327zm7.278 0c0 .195.13.326.326.326h3.623c.195 0 .326-.13.326-.326v-8.518c0-.131.065-.196.196-.196h4.797c.196 0 .327-.13.327-.327v-3.23c0-.196-.13-.327-.327-.327h-4.797c-.13 0-.196-.065-.196-.196v-5.026c0-.13.065-.196.196-.196h5.548c.196 0 .326-.13.326-.326V9.134c0-.196-.13-.327-.326-.327h-9.693c-.196 0-.326.13-.326.327zm12.597 0c0 .195.13.326.327.326h9.693c.195 0 .326-.13.326-.326v-3.199c0-.196-.13-.326-.326-.326h-5.549c-.13 0-.195-.065-.195-.196v-5.026c0-.13.065-.196.195-.196h4.798c.196 0 .326-.13.326-.326v-3.198c0-.196-.13-.327-.326-.327h-4.798c-.13 0-.195-.065-.195-.196v-4.83c0-.13.065-.196.195-.196h5.549c.195 0 .326-.13.326-.326V9.134c0-.196-.13-.327-.326-.327h-9.693c-.196 0-.327.13-.327.327z" fill="#fff"/></svg>