<svg width="252.932" height="46" viewBox="0 0 252.932 46" xmlns="http://www.w3.org/2000/svg"><path d="M47.192 27.606c.783 2.382 2.578 3.688 5.516 3.688 3.557 0 5.646-1.893 5.842-5.614 0-.196-.066-.359-.294-.391l-3.427-.588c-.196-.032-.359.065-.359.294-.065 1.762-.62 2.448-1.697 2.448-.783 0-1.24-.327-1.469-1.012-.13-.49-.195-.881-.195-6.527s.065-6.038.195-6.528c.229-.685.686-1.011 1.469-1.011 1.077 0 1.632.685 1.697 2.447 0 .229.163.327.36.294l3.426-.587c.228-.033.294-.196.294-.392-.196-3.72-2.285-5.613-5.842-5.613-2.938 0-4.733 1.305-5.516 3.687-.294.947-.424 1.959-.424 7.703s.13 6.755.424 7.702zm19.19 3.688c2.905 0 4.863-1.306 5.68-3.753.358-1.012.456-1.926.456-7.637 0-5.712-.098-6.626-.457-7.637-.816-2.448-2.774-3.753-5.679-3.753-2.904 0-4.862 1.305-5.678 3.753-.36 1.011-.457 1.925-.457 7.637 0 5.711.098 6.625.457 7.637.816 2.447 2.774 3.753 5.678 3.753zm0-3.851c-.816 0-1.37-.457-1.566-1.077-.163-.523-.229-1.077-.229-6.462s.066-5.94.229-6.462c.196-.62.75-1.077 1.566-1.077.816 0 1.371.457 1.567 1.077.163.522.228 1.077.228 6.462s-.065 5.94-.228 6.462c-.196.62-.75 1.077-1.567 1.077zm20.3-3.036c0-3.753-1.175-5.385-4.21-6.56l-1.338-.522c-1.73-.685-2.089-1.207-2.089-2.872 0-1.5.555-2.219 1.697-2.219 1.175 0 1.73.816 1.763 2.415 0 .196.163.294.359.261l3.329-.522c.195-.033.293-.163.293-.359-.163-3.492-1.99-5.515-5.874-5.515-3.95 0-5.875 2.154-5.875 6.168 0 3.557 1.077 5.222 4.21 6.43l1.338.521c1.665.653 2.057 1.338 2.057 3.297 0 2.023-.555 2.643-1.763 2.643-1.273 0-1.86-.816-1.925-2.872 0-.196-.13-.294-.36-.26l-3.491.554c-.196.033-.262.163-.262.359.066 3.818 1.991 5.94 6.006 5.94 4.405 0 6.135-2.35 6.135-6.887zM95.527 31c.195 0 .326-.13.326-.326v-17.82c0-.13.065-.196.196-.196h3.492c.196 0 .326-.13.326-.326V9.134c0-.196-.13-.327-.326-.327H87.89c-.196 0-.327.13-.327.327v3.198c0 .196.13.326.327.326h3.492c.13 0 .196.066.196.196v17.82c0 .195.13.326.326.326zm3.46-.326c-.034.195.064.326.26.326h3.623c.228 0 .326-.13.359-.326l.75-4.015h4.21l.719 4.015c.032.195.13.326.359.326h3.622c.196 0 .294-.13.261-.326l-4.765-21.54c-.032-.196-.163-.327-.359-.327h-3.85c-.197 0-.294.13-.36.327zm5.613-7.409l1.468-7.702h.098l1.403 7.702zm16.71 7.409c0 .195.13.326.326.326h5.613c3.068 0 4.863-1.175 5.679-3.688.392-1.24.587-2.741.587-7.408s-.195-6.169-.587-7.409c-.816-2.513-2.61-3.688-5.679-3.688h-5.613c-.196 0-.327.13-.327.327zm4.275-3.72v-14.1c0-.13.065-.196.196-.196h1.044c1.077 0 1.664.392 1.99 1.371.262.685.36 1.632.36 5.875 0 4.242-.098 5.189-.36 5.874-.326.98-.913 1.37-1.99 1.37h-1.044c-.13 0-.196-.064-.196-.195zm10.607 3.72c0 .195.13.326.326.326h9.693c.196 0 .326-.13.326-.326v-3.199c0-.196-.13-.326-.326-.326h-5.548c-.13 0-.196-.065-.196-.196v-5.026c0-.13.065-.196.196-.196h4.797c.196 0 .327-.13.327-.326v-3.198c0-.196-.13-.327-.327-.327h-4.797c-.13 0-.196-.065-.196-.196v-4.83c0-.13.065-.196.196-.196h5.548c.196 0 .326-.13.326-.326V9.134c0-.196-.13-.327-.326-.327h-9.693c-.196 0-.326.13-.326.327zm12.728 0c0 .195.13.326.326.326h9.758c.196 0 .327-.13.327-.326v-3.199c0-.196-.13-.326-.327-.326h-5.613c-.13 0-.196-.065-.196-.196V9.133c0-.195-.13-.326-.326-.326h-3.623c-.196 0-.326.13-.326.327zm30.417-6.267c0-3.753-1.175-5.385-4.21-6.56l-1.338-.522c-1.73-.685-2.089-1.207-2.089-2.872 0-1.5.555-2.219 1.697-2.219 1.175 0 1.73.816 1.762 2.415 0 .196.164.294.36.261l3.328-.522c.196-.033.294-.163.294-.359-.163-3.492-1.99-5.515-5.874-5.515-3.95 0-5.875 2.154-5.875 6.168 0 3.557 1.077 5.222 4.21 6.43l1.338.521c1.665.653 2.056 1.338 2.056 3.297 0 2.023-.555 2.643-1.762 2.643-1.273 0-1.86-.816-1.926-2.872 0-.196-.13-.294-.359-.26l-3.492.554c-.196.033-.26.163-.26.359.064 3.818 1.99 5.94 6.004 5.94 4.406 0 6.136-2.35 6.136-6.887zm8.126 6.887c2.905 0 4.863-1.306 5.68-3.753.358-1.012.456-1.926.456-7.637 0-5.712-.098-6.626-.457-7.637-.816-2.448-2.774-3.753-5.679-3.753-2.904 0-4.862 1.305-5.678 3.753-.36 1.011-.457 1.925-.457 7.637 0 5.711.098 6.625.457 7.637.816 2.447 2.774 3.753 5.678 3.753zm0-3.851c-.816 0-1.37-.457-1.566-1.077-.163-.523-.229-1.077-.229-6.462s.066-5.94.229-6.462c.196-.62.75-1.077 1.566-1.077.816 0 1.371.457 1.567 1.077.163.522.228 1.077.228 6.462s-.065 5.94-.228 6.462c-.196.62-.75 1.077-1.567 1.077zm8.812 3.23c0 .196.13.327.327.327h9.758c.196 0 .326-.13.326-.326v-3.199c0-.196-.13-.326-.326-.326h-5.614c-.13 0-.195-.065-.195-.196V9.133c0-.195-.131-.326-.327-.326h-3.622c-.196 0-.327.13-.327.327z" fill="#fff"/></svg>