<svg width="252.781" height="26" viewBox="0 0 252.781 26" xmlns="http://www.w3.org/2000/svg"><path d="M19.602 17.494c-.019.112.074.186.186.186h.596c.111 0 .167-.074.186-.186l.633-3.035h3.09l.633 3.035c.019.112.074.186.205.186h.595c.112 0 .187-.074.168-.186L23.288 5.207c-.019-.111-.093-.186-.205-.186h-.614c-.112 0-.168.075-.205.186zm1.787-3.91l1.359-6.46h.037l1.322 6.46zm1.6-10.145c.131 0 .187-.037.317-.186l1.62-1.918c.074-.093.037-.186-.075-.186h-.614c-.167 0-.223.056-.316.186l-1.397 1.918c-.074.093-.037.186.075.186zm8.061 14.055c0 .112.075.186.187.186h.54c.111 0 .186-.074.186-.186V7.776h.055l2.234 7.465c.038.13.093.187.205.187h.372c.112 0 .168-.056.205-.187l2.234-7.465h.056v9.718c0 .112.074.186.186.186h.54c.112 0 .186-.074.186-.186V5.207c0-.111-.074-.186-.186-.186h-.633c-.112 0-.205.056-.242.186l-2.494 8.49h-.038l-2.531-8.49c-.038-.13-.112-.186-.242-.186h-.633c-.112 0-.187.075-.187.186zm8.917 0c-.018.112.075.186.187.186h.595c.112 0 .168-.074.186-.186l.633-3.035h3.09l.633 3.035c.02.112.075.186.205.186h.596c.112 0 .186-.074.167-.186L43.653 5.207c-.018-.111-.093-.186-.204-.186h-.615c-.111 0-.167.075-.205.186zm1.788-3.91l1.358-6.46h.038l1.321 6.46zm6.236 3.91c0 .112.074.186.186.186h.521c.112 0 .186-.074.186-.186V7.124h.056l3.537 10.37c.056.149.13.186.298.186h.707c.112 0 .187-.074.187-.186V5.207c0-.111-.075-.186-.187-.186h-.52c-.113 0-.187.075-.187.186v10.37h-.056l-3.5-10.37c-.055-.148-.13-.186-.297-.186h-.745c-.112 0-.186.075-.186.186zm8.21 0c0 .112.074.186.185.186h.522c.111 0 .186-.074.186-.186V7.124h.056l3.537 10.37c.056.149.13.186.298.186h.707c.112 0 .186-.074.186-.186V5.207c0-.111-.074-.186-.186-.186h-.521c-.112 0-.186.075-.186.186v10.37h-.056l-3.5-10.37c-.056-.148-.13-.186-.298-.186h-.745c-.111 0-.186.075-.186.186zm11.634 0c0 .112.075.186.186.186h.54c.112 0 .186-.074.186-.186V7.776h.056l2.234 7.465c.037.13.093.187.205.187h.372c.112 0 .168-.056.205-.187l2.234-7.465h.056v9.718c0 .112.074.186.186.186h.54c.111 0 .186-.074.186-.186V5.207c0-.111-.075-.186-.186-.186h-.633c-.112 0-.205.056-.242.186l-2.495 8.49h-.037l-2.532-8.49c-.037-.13-.112-.186-.242-.186h-.633c-.111 0-.186.075-.186.186zm9.438 0c0 .112.075.186.186.186h.838c.112 0 .186-.074.186-.186v-1.21c0-.112-.074-.186-.186-.186h-.838c-.111 0-.186.074-.186.186zm5.994.186c.112 0 .168-.074.187-.186l2.513-12.287c.018-.111-.019-.186-.15-.186h-.613c-.112 0-.168.075-.187.186L83.025 15.41h-.055L80.96 5.207c-.02-.111-.094-.186-.206-.186h-.614c-.13 0-.167.075-.149.186l2.513 12.287c.019.112.075.186.186.186zm2.7-.186c0 .112.074.186.186.186h.838c.111 0 .186-.074.186-.186v-1.21c0-.112-.075-.186-.186-.186h-.838c-.112 0-.186.074-.186.186zm6.366 0c0 .112.075.186.186.186h4.412c.112 0 .187-.074.187-.186v-.503c0-.111-.075-.186-.187-.186h-3.574v-.019l3.035-5.957c.465-.93.726-1.675.726-2.922 0-.82-.038-1.154-.15-1.508-.316-.987-1.08-1.527-2.233-1.527-1.154 0-1.918.559-2.234 1.527-.112.354-.168.689-.168 1.638 0 .13.056.205.186.223l.522.056c.13.019.205-.056.205-.186 0-.968.037-1.21.111-1.452.205-.596.67-.93 1.36-.93.707 0 1.172.334 1.358.93.093.242.13.484.13 1.229 0 1.042-.223 1.694-.614 2.476l-3.183 6.329a.507.507 0 00-.075.298zm10.555 0c0 .112.075.186.187.186h.595c.112 0 .186-.074.186-.186v-5.585c0-.074.038-.112.112-.112h2.979c.111 0 .186-.074.186-.186v-.54c0-.111-.075-.186-.186-.186h-2.979c-.074 0-.112-.037-.112-.111V6.045c0-.074.038-.111.112-.111h3.407c.112 0 .186-.075.186-.187v-.54c0-.111-.074-.186-.186-.186h-4.3c-.112 0-.187.075-.187.186zm9.197.335c1.638 0 2.736-1.024 2.736-3.128V5.207c0-.111-.074-.186-.186-.186h-.577c-.112 0-.186.075-.186.186v9.569c0 1.47-.726 2.14-1.787 2.14-1.062 0-1.769-.67-1.769-2.14V5.207c0-.111-.074-.186-.186-.186h-.596c-.111 0-.186.075-.186.186v9.494c0 2.104 1.098 3.128 2.737 3.128zm5.25-.335c0 .112.074.186.185.186h4.282c.112 0 .186-.074.186-.186v-.54c0-.112-.074-.186-.186-.186h-3.388c-.075 0-.112-.037-.112-.112V5.207c0-.111-.074-.186-.186-.186h-.596c-.111 0-.186.075-.186.186zm6.403 0c0 .112.074.186.186.186h4.282c.111 0 .186-.074.186-.186v-.54c0-.112-.075-.186-.186-.186h-3.388c-.075 0-.112-.037-.112-.112V5.207c0-.111-.074-.186-.186-.186h-.596c-.112 0-.186.075-.186.186zm8.545.335c1.303 0 2.178-.596 2.55-1.731.186-.559.242-1.043.242-4.747 0-3.705-.056-4.189-.242-4.747-.372-1.136-1.247-1.732-2.55-1.732-1.303 0-2.178.596-2.55 1.732-.187.558-.243 1.042-.243 4.747 0 3.704.056 4.188.242 4.747.373 1.135 1.248 1.73 2.55 1.73zm0-.912c-.8 0-1.36-.373-1.62-1.117-.13-.428-.186-.82-.186-4.45 0-3.63.056-4.02.186-4.448.26-.764.82-1.117 1.62-1.117.8 0 1.377.353 1.62 1.117.13.428.204.819.204 4.449s-.075 4.02-.205 4.449c-.242.744-.819 1.117-1.62 1.117zm10.387.763c.093 0 .13-.074.093-.186l-1.712-5.771c1.005-.447 1.563-1.433 1.563-3.202 0-2.569-1.005-3.5-3.22-3.5h-1.806c-.112 0-.186.075-.186.186v12.287c0 .112.074.186.186.186h.596c.111 0 .186-.074.186-.186v-5.361c0-.075.037-.112.112-.112h.875c.279 0 .54-.019.781-.056l1.639 5.585c.037.093.093.13.204.13zm-3.202-6.553h-.986c-.075 0-.112-.037-.112-.111v-4.97c0-.075.037-.112.112-.112h.986c1.545 0 2.178.632 2.178 2.587 0 2.03-.67 2.606-2.178 2.606zm7.912 6.553c1.526 0 2.364-.67 2.755-1.88.223-.689.298-1.527.298-4.45 0-2.94-.075-3.76-.298-4.448-.39-1.21-1.229-1.88-2.755-1.88h-2.271c-.112 0-.186.074-.186.185v5.53c0 .074-.038.111-.112.111h-.633c-.112 0-.186.075-.186.186v.447c0 .112.074.186.186.186h.633c.074 0 .112.037.112.112v5.715c0 .112.074.186.186.186zm-.112-.912h-1.266c-.074 0-.111-.037-.111-.112V11.78c0-.075.037-.112.111-.112h1.397c.111 0 .186-.074.186-.186v-.447c0-.111-.075-.186-.186-.186h-1.397c-.074 0-.111-.037-.111-.112v-4.69c0-.075.037-.112.111-.112h1.266c1.061 0 1.638.409 1.936 1.284.186.577.26 1.34.26 4.133 0 2.792-.074 3.555-.26 4.132-.298.875-.875 1.285-1.936 1.285zm5.51.726c0 .112.075.186.187.186h.52c.113 0 .187-.074.187-.186V7.124h.056l3.537 10.37c.056.149.13.186.298.186h.707c.112 0 .186-.074.186-.186V5.207c0-.111-.074-.186-.186-.186h-.521c-.112 0-.186.075-.186.186v10.37h-.056l-3.5-10.37c-.056-.148-.13-.186-.298-.186h-.744c-.112 0-.187.075-.187.186zm7.41 0c-.02.112.074.186.186.186h.595c.112 0 .168-.074.187-.186l.632-3.035h3.09l.634 3.035c.018.112.074.186.204.186h.596c.112 0 .186-.074.168-.186l-2.607-12.287c-.018-.111-.093-.186-.204-.186h-.615c-.111 0-.167.075-.204.186zm1.787-3.91l1.359-6.46h.037l1.322 6.46zm12.249 4.245c1.303 0 2.178-.596 2.55-1.731.186-.559.242-1.043.242-4.747 0-3.705-.056-4.189-.242-4.747-.372-1.136-1.247-1.732-2.55-1.732-1.303 0-2.178.596-2.55 1.732-.187.558-.243 1.042-.243 4.747 0 3.704.056 4.188.242 4.747.373 1.135 1.248 1.73 2.55 1.73zm0-.912c-.8 0-1.36-.373-1.62-1.117-.13-.428-.186-.82-.186-4.45 0-3.63.056-4.02.186-4.448.26-.764.82-1.117 1.62-1.117.8 0 1.377.353 1.62 1.117.13.428.204.819.204 4.449s-.074 4.02-.205 4.449c-.242.744-.819 1.117-1.62 1.117zm5.156-.82c.373 1.136 1.248 1.732 2.55 1.732 1.304 0 2.179-.596 2.551-1.731.186-.559.242-1.043.242-4.32v-.502c0-.111-.074-.186-.186-.186h-2.383c-.112 0-.186.075-.186.186v.521c0 .112.074.187.186.187h1.508c.074 0 .112.037.112.111 0 2.886-.056 3.277-.187 3.705-.26.744-.837 1.117-1.638 1.117-.8 0-1.377-.373-1.638-1.117-.13-.428-.186-.82-.186-4.45 0-3.63.056-4.02.186-4.448.26-.764.82-1.117 1.62-1.117 1.117 0 1.656.688 1.824 1.805.019.112.093.168.223.13l.54-.111c.112-.037.15-.112.13-.242-.204-1.527-1.08-2.495-2.717-2.495-1.303 0-2.178.596-2.55 1.732-.187.558-.243 1.042-.243 4.747 0 3.704.056 4.188.242 4.747zm10.816 1.397c0 .112.074.186.186.186h4.412c.112 0 .186-.074.186-.186v-.503c0-.111-.074-.186-.186-.186h-3.574v-.019l3.034-5.957c.466-.93.726-1.675.726-2.922 0-.82-.037-1.154-.149-1.508-.316-.987-1.08-1.527-2.234-1.527s-1.917.559-2.233 1.527c-.112.354-.168.689-.168 1.638 0 .13.056.205.186.223l.521.056c.13.019.205-.056.205-.186 0-.968.037-1.21.112-1.452.205-.596.67-.93 1.359-.93.707 0 1.173.334 1.359.93.093.242.13.484.13 1.229 0 1.042-.223 1.694-.614 2.476l-3.184 6.329a.507.507 0 00-.074.298zm10.555 0c0 .112.075.186.186.186h1.9c2.233 0 3.182-.912 3.182-3.5 0-1.992-.651-2.755-1.6-3.09v-.037c.967-.372 1.47-1.173 1.47-2.811 0-2.383-.838-3.22-2.978-3.22h-1.974c-.111 0-.186.074-.186.185zm1.08-6.795c-.075 0-.112-.037-.112-.112V6.045c0-.074.037-.111.112-.111h1.06c1.49 0 2.03.52 2.03 2.4 0 1.788-.652 2.365-1.973 2.365zm-.112 5.957v-4.97c0-.075.037-.112.112-.112h1.135c1.397 0 2.085.614 2.085 2.588 0 2.047-.633 2.606-2.196 2.606h-1.024c-.075 0-.112-.037-.112-.112zM212.237 3.03c.112 0 .186-.074.186-.186V1.838c0-.112-.074-.186-.186-.186h-.633c-.112 0-.186.074-.186.186v1.005c0 .112.074.186.186.186zm-2.569 0c.112 0 .186-.074.186-.186V1.838c0-.112-.074-.186-.186-.186h-.633c-.112 0-.186.074-.186.186v1.005c0 .112.074.186.186.186zm.968 14.8c1.303 0 2.178-.596 2.55-1.731.187-.559.242-1.043.242-4.747 0-3.705-.055-4.189-.242-4.747-.372-1.136-1.247-1.732-2.55-1.732-1.303 0-2.178.596-2.55 1.732-.186.558-.242 1.042-.242 4.747 0 3.704.056 4.188.242 4.747.372 1.135 1.247 1.73 2.55 1.73zm0-.912c-.8 0-1.359-.373-1.62-1.117-.13-.428-.186-.82-.186-4.45 0-3.63.056-4.02.186-4.448.261-.764.82-1.117 1.62-1.117.8 0 1.378.353 1.62 1.117.13.428.204.819.204 4.449s-.074 4.02-.204 4.449c-.242.744-.82 1.117-1.62 1.117zm10.388.763c.093 0 .13-.074.093-.186l-1.713-5.771c1.005-.447 1.564-1.433 1.564-3.202 0-2.569-1.005-3.5-3.22-3.5h-1.806c-.112 0-.187.075-.187.186v12.287c0 .112.075.186.187.186h.595c.112 0 .186-.074.186-.186v-5.361c0-.075.038-.112.112-.112h.875c.28 0 .54-.019.782-.056l1.638 5.585c.037.093.093.13.205.13zm-3.202-6.553h-.987c-.074 0-.112-.037-.112-.111v-4.97c0-.075.038-.112.112-.112h.987c1.545 0 2.178.632 2.178 2.587 0 2.03-.67 2.606-2.178 2.606zm5.454 6.367c0 .112.075.186.186.186h.521c.112 0 .187-.074.187-.186V7.124h.055l3.537 10.37c.056.149.13.186.298.186h.708c.111 0 .186-.074.186-.186V5.207c0-.111-.075-.186-.186-.186h-.522c-.111 0-.186.075-.186.186v10.37h-.056l-3.5-10.37c-.055-.148-.13-.186-.297-.186h-.745c-.111 0-.186.075-.186.186z" fill="#fff"/></svg>