<svg width="252.683" height="55" viewBox="0 0 252.683 55" xmlns="http://www.w3.org/2000/svg"><path d="M27.592 36.472c0 .233.155.388.388.388h2.367c.232 0 .388-.155.388-.388V25.375c0-.155.077-.233.232-.233h6.053c.233 0 .388-.155.388-.388V22.62c0-.233-.155-.388-.388-.388h-6.053c-.155 0-.232-.078-.232-.233v-8.381c0-.155.077-.233.232-.233h6.985c.233 0 .388-.155.388-.388v-2.134c0-.233-.155-.388-.388-.388H27.98c-.233 0-.388.155-.388.388zm14.123 0c0 .233.156.388.388.388h9.895c.233 0 .388-.155.388-.388v-2.134c0-.233-.155-.388-.388-.388H45.09c-.155 0-.233-.078-.233-.233V10.863c0-.233-.155-.388-.388-.388h-2.367c-.232 0-.388.155-.388.388zm19.324.737c3.763 0 6.17-2.29 6.17-6.829V10.863c0-.233-.156-.388-.389-.388h-2.367c-.233 0-.388.155-.388.388v19.905c0 2.29-1.164 3.492-3.026 3.492-1.863 0-3.027-1.203-3.027-3.492V10.863c0-.233-.155-.388-.388-.388h-2.367c-.233 0-.388.155-.388.388V30.38c0 4.54 2.406 6.83 6.17 6.83zm10.864-3.919c.815 2.522 2.794 3.92 5.782 3.92 2.987 0 5.005-1.398 5.78-3.92.389-1.164.505-2.134.505-9.196V22.97c0-.233-.155-.388-.388-.388h-5.47c-.233 0-.389.155-.389.388v2.057c0 .232.156.388.388.388h2.6c.155 0 .233.077.233.232 0 5.394-.117 6.015-.35 6.752-.387 1.203-1.435 1.862-2.832 1.862-1.397 0-2.444-.66-2.832-1.862-.272-.776-.35-1.358-.35-8.73 0-7.373.078-7.955.35-8.73.388-1.204 1.396-1.863 2.793-1.863 1.902 0 2.91 1.202 3.182 3.375.039.233.194.35.466.31l2.173-.426c.232-.039.31-.233.271-.466-.427-3.686-2.483-5.742-6.13-5.742-2.988 0-4.967 1.397-5.782 3.919-.388 1.164-.504 2.134-.504 9.622 0 7.49.116 8.46.504 9.623zm29.334 3.92c2.988 0 5.005-1.398 5.781-3.92.388-1.164.505-2.134.505-9.623 0-7.488-.117-8.458-.505-9.622-.776-2.522-2.793-3.92-5.78-3.92-2.989 0-4.968 1.398-5.782 3.92-.388 1.164-.505 2.134-.505 9.622 0 7.49.117 8.46.505 9.623.814 2.522 2.793 3.92 5.781 3.92zm0-2.95c-1.397 0-2.367-.66-2.755-1.862-.271-.776-.35-1.358-.35-8.73 0-7.373.079-7.955.35-8.73.388-1.204 1.358-1.863 2.755-1.863 1.397 0 2.406.66 2.794 1.862.233.776.31 1.358.31 8.73 0 7.373-.077 7.955-.31 8.73-.388 1.204-1.397 1.863-2.794 1.863zm10.593-.97c.815 2.522 2.794 3.92 5.781 3.92 2.988 0 5.006-1.398 5.782-3.92.388-1.164.504-2.134.504-9.196V22.97c0-.233-.155-.388-.388-.388h-5.47c-.234 0-.389.155-.389.388v2.057c0 .232.155.388.388.388h2.6c.155 0 .233.077.233.232 0 5.394-.117 6.015-.35 6.752-.388 1.203-1.435 1.862-2.832 1.862-1.397 0-2.445-.66-2.833-1.862-.271-.776-.349-1.358-.349-8.73 0-7.373.078-7.955.35-8.73.387-1.204 1.396-1.863 2.793-1.863 1.901 0 2.91 1.202 3.182 3.375.039.233.194.35.465.31l2.173-.426c.233-.039.31-.233.272-.466-.427-3.686-2.483-5.742-6.13-5.742-2.988 0-4.967 1.397-5.782 3.919-.388 1.164-.505 2.134-.505 9.622 0 7.49.117 8.46.505 9.623zm23.552 0c.815 2.522 2.794 3.92 5.782 3.92s5.005-1.398 5.781-3.92c.388-1.164.505-2.134.505-9.196V22.97c0-.233-.155-.388-.388-.388h-5.471c-.233 0-.388.155-.388.388v2.057c0 .232.155.388.388.388h2.6c.155 0 .232.077.232.232 0 5.394-.116 6.015-.349 6.752-.388 1.203-1.436 1.862-2.833 1.862-1.396 0-2.444-.66-2.832-1.862-.272-.776-.35-1.358-.35-8.73 0-7.373.078-7.955.35-8.73.388-1.204 1.397-1.863 2.794-1.863 1.9 0 2.91 1.202 3.181 3.375.04.233.194.35.466.31l2.173-.426c.233-.039.31-.233.272-.466-.427-3.686-2.484-5.742-6.131-5.742-2.988 0-4.967 1.397-5.782 3.919-.388 1.164-.504 2.134-.504 9.622 0 7.49.116 8.46.504 9.623zm16.103 3.182c0 .233.155.388.388.388h2.367c.233 0 .388-.155.388-.388V10.863c0-.233-.155-.388-.388-.388h-2.367c-.233 0-.388.155-.388.388zm19.207-7.062c0-4.384-1.203-6.13-4.579-7.489l-1.59-.62c-2.135-.815-2.756-1.746-2.756-4.463 0-2.677.932-3.841 2.872-3.841 2.017 0 2.871 1.28 2.949 3.88 0 .233.194.388.427.31l2.172-.349c.233-.038.35-.194.35-.426-.194-4.113-2.018-6.286-5.976-6.286s-5.898 2.328-5.898 6.829c0 4.074 1.01 5.859 4.618 7.256l1.59.62c2.096.815 2.678 1.94 2.678 4.967 0 3.57-.931 4.54-2.949 4.54s-3.065-1.164-3.22-4.423c0-.233-.156-.388-.427-.35l-2.29.427c-.232.039-.31.194-.31.427.194 4.54 2.212 6.79 6.208 6.79 4.462 0 6.13-2.483 6.13-7.799zm9.351 7.45c.233 0 .388-.155.388-.388V13.618c0-.155.078-.233.233-.233h4.346c.232 0 .388-.155.388-.388v-2.134c0-.233-.156-.388-.388-.388h-12.3c-.233 0-.388.155-.388.388v2.134c0 .233.155.388.388.388h4.345c.156 0 .233.078.233.233v22.854c0 .233.155.388.388.388zm8.304-.388c0 .233.155.388.388.388h2.366c.233 0 .388-.155.388-.388V10.863c0-.233-.155-.388-.388-.388h-2.366c-.233 0-.388.155-.388.388zm7.799 0c0 .233.155.388.388.388h2.056c.233 0 .388-.155.388-.388V16.683h.194l6.014 19.789c.078.272.272.388.582.388h2.755c.233 0 .388-.155.388-.388V10.863c0-.233-.155-.388-.388-.388h-2.056c-.233 0-.388.155-.388.388v19.789h-.155l-5.898-19.789c-.078-.272-.272-.388-.582-.388h-2.91c-.233 0-.388.155-.388.388zm17.5-3.182c.814 2.522 2.793 3.92 5.78 3.92 2.988 0 5.006-1.398 5.782-3.92.388-1.164.504-2.134.504-9.196V22.97c0-.233-.155-.388-.388-.388h-5.47c-.233 0-.389.155-.389.388v2.057c0 .232.156.388.388.388h2.6c.155 0 .233.077.233.232 0 5.394-.116 6.015-.35 6.752-.387 1.203-1.435 1.862-2.832 1.862-1.397 0-2.444-.66-2.832-1.862-.272-.776-.35-1.358-.35-8.73 0-7.373.078-7.955.35-8.73.388-1.204 1.397-1.863 2.793-1.863 1.902 0 2.91 1.202 3.182 3.375.039.233.194.35.466.31l2.173-.426c.232-.039.31-.233.271-.466-.427-3.686-2.483-5.742-6.13-5.742-2.988 0-4.967 1.397-5.782 3.919-.388 1.164-.504 2.134-.504 9.622 0 7.49.116 8.46.504 9.623z" fill="#fff"/></svg>