<svg width="64.581" height="20" viewBox="0 0 64.581 20" xmlns="http://www.w3.org/2000/svg"><path d="M15.021 3.466h2.076V13.6h-1.67l-3.702-5.778V13.6H9.65V3.466h1.684l3.688 5.779V3.466zm6.983 0h1.8l3.92 10.134h-2.25l-.914-2.54h-3.296l-.915 2.54h-2.236l3.891-10.134zm.9 3.064l-.972 2.715h1.96l-.988-2.715zm-.464-3.935L23.688.23h1.975L23.79 2.595h-1.35zm11.672.871h2.077V13.6h-1.67l-3.702-5.778V13.6H28.74V3.466h1.684l3.687 5.779V3.466zm6.984 0h1.8l3.92 10.134h-2.25l-.915-2.54h-3.296l-.914 2.54h-2.236l3.89-10.134zm.9 3.064l-.973 2.715h1.96l-.987-2.715zm13.066.014q0 .944-.53 1.692-.53.747-1.43 1.052.116.102.407.537l2.41 3.775h-2.41l-2.033-3.397q-.247-.421-.428-.552-.182-.13-.632-.13h-.508V13.6h-2.076V3.466h3.717q1.568 0 2.54.777.973.777.973 2.301zm-2.076.015q0-.625-.377-.857-.378-.232-1.046-.232h-1.655V7.69h1.655q.683 0 1.053-.247.37-.247.37-.885z" fill="#fff"/></svg>