<svg width="114.728" height="18" viewBox="0 0 114.728 18" xmlns="http://www.w3.org/2000/svg"><path d="M12.176 9.162q0 1.393-.855 2.046-.855.652-2.3.652H5.577V3.019H8.82q1.368 0 2.21.64.843.639.843 1.969 0 .975-.634 1.583.938.621.938 1.951zm-2.078-3.521q0-.545-.323-.722-.323-.178-.93-.178H7.387v1.85h1.456q.608 0 .931-.19.323-.19.323-.76zm-.082 4.319q.348-.19.348-.785 0-.596-.348-.792-.348-.196-.994-.196H7.388v1.963h1.634q.646 0 .994-.19zm7.91-3.585q.697.887.697 2.369 0 1.482-.697 2.362-.696.88-2.14.88-1.444 0-2.141-.88-.697-.88-.697-2.362 0-1.482.697-2.369.697-.886 2.14-.886 1.445 0 2.141.886zm-1.279 3.509q.228-.43.228-1.14t-.228-1.146q-.228-.437-.861-.437-.646 0-.868.43-.222.431-.222 1.153t.222 1.146q.222.425.868.425.633 0 .861-.431zM14.38 5.058l1.089-2.065h1.723l-1.634 2.065H14.38zm10.564.545l-1.672 2.786 2.039 3.471h-1.837L21.55 8.39l1.609-2.787h1.786zm-5.118-2.584h1.66v8.841h-1.66V3.019zm10.919 4.484v3.179l.253.95-1.482.38-.126-.405q-.545.418-1.381.418-.975 0-1.647-.551-.671-.551-.671-1.501 0-.887.564-1.406.563-.52 1.716-.583h.95q.215-.013.215-.165v-.177q0-.266-.202-.424-.203-.159-.507-.159-.798 0-1.064.596l-1.457-.507q.507-1.621 2.521-1.621.9 0 1.609.55.709.552.709 1.426zM29.136 10.2V9.124q-.126.089-.316.089h-.71q-.874.025-.874.76 0 .291.26.456.26.164.551.164.595 0 1.09-.392zm8.778-1.52q0 1.52-.677 2.4-.678.88-2.071.88-1.444 0-2.103-.918-.659-.918-.659-2.362 0-1.495.672-2.363.671-.867 2.077-.867.177 0 .24.012l-.113-.266h-1.52V3.842h.912l-.659-1.47h1.57l.66 1.47h1.165v1.355h-.545l.659 1.356q.392.722.392 2.128zm-1.482.012q0-.874-.266-1.342-.266-.469-1.013-.469-.405 0-.671.152t-.393.43q-.127.28-.165.558-.038.279-.038.671 0 .862.266 1.33.266.469 1.001.469.405 0 .678-.146.272-.145.392-.424t.165-.557q.044-.279.044-.672zm6.625-3.09h1.723v6.257h-1.406l-.064-.266q-.544.38-1.14.38-1.292 0-1.957-.722t-.665-2.014V5.603h1.723v3.521q0 .583.19.88.19.298.747.298.368 0 .608-.24.241-.241.241-.621V5.603zm11.907 4.344q0 .95-.754 1.495-.754.545-1.742.545-2.191 0-2.596-1.723l1.494-.405q.241.595 1.077.595.81 0 .81-.43 0-.241-.341-.406-.342-.165-.836-.291-.494-.127-.982-.31-.488-.184-.83-.596-.342-.412-.342-1.02 0-.937.665-1.431t1.64-.494q.887 0 1.42.272.531.273 1 .982l-1.317.735q-.368-.494-.938-.494-.734 0-.734.43 0 .216.342.349.342.133.823.253.481.12.969.298.488.177.83.595.342.418.342 1.051zm5.801-3.572q.697.887.697 2.369 0 1.482-.697 2.362-.697.88-2.14.88-1.445 0-2.141-.88-.697-.88-.697-2.362 0-1.482.697-2.369.696-.886 2.14-.886 1.444 0 2.141.886zm-1.28 3.509q.229-.43.229-1.14t-.228-1.146q-.228-.437-.862-.437-.646 0-.867.43-.222.431-.222 1.153t.222 1.146q.221.425.867.425.634 0 .862-.431zm-2.267-4.826l1.09-2.065h1.722l-1.634 2.065h-1.178zm7.499 5.358l.013 1.444q-1.052 0-1.558-.393-.507-.392-.507-1.406V3.02h1.634v7.017q0 .215.095.298.095.082.323.082zm5.016-4.813h1.672v6.257h-1.672V5.603zm.494-.545l1.09-2.065h1.722l-1.634 2.065h-1.178zm11.299 4.89q0 .95-.754 1.494-.754.545-1.742.545-2.191 0-2.596-1.723l1.494-.405q.241.595 1.077.595.81 0 .81-.43 0-.241-.341-.406-.342-.165-.836-.291-.494-.127-.982-.31-.488-.184-.83-.596-.342-.412-.342-1.02 0-.937.665-1.431t1.64-.494q.887 0 1.42.272.531.273 1 .982l-1.317.735q-.368-.494-.938-.494-.734 0-.734.43 0 .216.342.349.342.133.823.253.481.12.969.298.488.177.83.595.342.418.342 1.051zm4.585-4.345h1.723v6.257h-1.406l-.064-.266q-.544.38-1.14.38-1.292 0-1.957-.722t-.665-2.014V5.603h1.723v3.521q0 .583.19.88.19.298.747.298.368 0 .608-.24.241-.241.241-.621V5.603zm11.894 2.736v3.521H96.27V8.339q0-.57-.171-.868-.171-.298-.703-.298-.228 0-.393.102-.165.101-.24.221-.077.12-.115.361-.038.241-.044.368-.006.126-.006.392v3.243h-1.736V8.339q0-.558-.17-.862-.172-.304-.691-.304-.355 0-.57.235-.215.234-.215.589v3.863H89.48V5.603H90.9l.063.253q.507-.393 1.039-.393.583 0 .969.133t.855.5q.722-.633 1.57-.633 1.293 0 1.951.786.659.785.659 2.09zm6.194-.836v3.179l.253.95-1.482.38-.126-.405q-.545.418-1.381.418-.975 0-1.647-.551-.671-.551-.671-1.501 0-.887.564-1.406.563-.52 1.716-.583h.95q.215-.013.215-.165v-.177q0-.266-.202-.424-.203-.159-.507-.159-.798 0-1.064.596l-1.457-.507q.507-1.621 2.521-1.621.9 0 1.609.55.709.552.709 1.426zM102.59 10.2V9.124q-.126.089-.316.089h-.71q-.874.025-.874.76 0 .291.26.456.26.164.551.164.595 0 1.09-.392zm7.132-4.282l-.634 1.33q-.418-.177-.734-.177-.431 0-.665.234-.235.235-.235.64v3.914h-1.71V5.603h1.394l.063.266q.494-.431 1.153-.431.696 0 1.368.481z" fill="#fff"/></svg>