<svg width="166" height="202" viewBox="0 0 166 202" xmlns="http://www.w3.org/2000/svg"><path d="M18.985 108.44c0 .186.124.31.31.31h4.991c4.123 0 6.231-1.55 6.231-6.2 0-2.821-1.116-4.309-2.666-4.774v-.062c1.55-.682 2.418-1.984 2.418-4.557 0-3.689-1.736-5.487-5.642-5.487h-5.332c-.186 0-.31.124-.31.31zm4.247-12.121c-.124 0-.186-.062-.186-.186v-4.836c0-.124.062-.186.186-.186h.899c1.581 0 2.077.558 2.077 2.604 0 2.077-.496 2.604-2.077 2.604zm-.186 8.804v-5.394c0-.124.062-.186.186-.186h.899c1.705 0 2.294.651 2.294 2.852 0 2.232-.589 2.914-2.294 2.914h-.899c-.124 0-.186-.062-.186-.186zm16.182-19.778c.248 0 .403-.093.62-.31l3.224-3.534c.124-.155.031-.31-.155-.31h-3.1c-.248 0-.341.093-.496.31l-2.542 3.534c-.124.155-.031.31.155.31zm-.93 23.684c2.759 0 4.619-1.24 5.394-3.565.341-.961.434-1.829.434-7.254s-.093-6.293-.434-7.254c-.775-2.325-2.635-3.565-5.394-3.565-2.759 0-4.619 1.24-5.394 3.565-.341.961-.434 1.829-.434 7.254s.093 6.293.434 7.254c.775 2.325 2.635 3.565 5.394 3.565zm0-3.658c-.775 0-1.302-.434-1.488-1.023-.155-.496-.217-1.023-.217-6.138s.062-5.642.217-6.138c.186-.589.713-1.023 1.488-1.023s1.302.434 1.488 1.023c.155.496.217 1.023.217 6.138s-.062 5.642-.217 6.138c-.186.589-.713 1.023-1.488 1.023zm8.37 3.069c0 .186.124.31.31.31h3.441c.186 0 .31-.124.31-.31v-5.704l1.24-2.604 3.1 8.401c.031.155.124.217.31.217h3.689c.155 0 .248-.155.186-.31l-4.743-12.276 4.216-8.184c.093-.155 0-.31-.155-.31h-3.596c-.186 0-.31.062-.403.248l-3.844 8.153V87.98c0-.186-.124-.31-.31-.31h-3.441c-.186 0-.31.124-.31.31zm13.299 0c-.031.186.062.31.248.31h3.441c.217 0 .31-.124.341-.31l.713-3.813h3.999l.682 3.813c.031.186.124.31.341.31h3.441c.186 0 .279-.124.248-.31l-4.526-20.46c-.031-.186-.155-.31-.341-.31h-3.658c-.186 0-.279.124-.341.31zm5.332-7.037l1.395-7.316h.093l1.333 7.316zm15.469 7.347c2.914 0 4.619-1.116 5.394-3.503.372-1.178.558-2.604.558-7.037s-.186-5.859-.558-7.037c-.775-2.387-2.48-3.503-5.394-3.503h-5.332c-.186 0-.31.124-.31.31v8.494c0 .124-.062.186-.186.186h-.837c-.186 0-.31.124-.31.31v2.294c0 .186.124.31.31.31h.837c.124 0 .186.062.186.186v8.68c0 .186.124.31.31.31zm-.403-3.658h-.992c-.124 0-.186-.062-.186-.186V99.76c0-.124.062-.186.186-.186h1.364c.186 0 .31-.124.31-.31v-2.263c0-.186-.124-.31-.31-.31h-1.364c-.124 0-.186-.062-.186-.186v-4.991c0-.124.062-.186.186-.186h.992c1.023 0 1.581.372 1.891 1.302.217.651.341 1.55.341 5.58s-.124 4.929-.341 5.58c-.31.93-.868 1.302-1.891 1.302zm14.508 3.937c3.534 0 5.704-2.015 5.704-5.983V87.98c0-.186-.124-.31-.31-.31h-3.441c-.186 0-.31.124-.31.31v15.562c0 1.116-.589 1.829-1.643 1.829-1.023 0-1.612-.713-1.612-1.829V87.98c0-.186-.124-.31-.31-.31H89.51c-.186 0-.31.124-.31.31v15.066c0 3.968 2.17 5.983 5.673 5.983zm14.539-.589c0 .186.124.31.31.31h3.441c.186 0 .31-.124.31-.31v-8.432c0-.124.062-.186.186-.186h2.945c.124 0 .186.062.186.186v8.432c0 .186.124.31.31.31h3.441c.186 0 .31-.124.31-.31V87.98c0-.186-.124-.31-.31-.31H117.1c-.186 0-.31.124-.31.31v7.998c0 .124-.062.186-.186.186h-2.945c-.124 0-.186-.062-.186-.186V87.98c0-.186-.124-.31-.31-.31h-3.441c-.186 0-.31.124-.31.31zM129.5 85.345c.248 0 .403-.093.62-.31l3.224-3.534c.124-.155.031-.31-.155-.31h-3.1c-.248 0-.341.093-.496.31l-2.542 3.534c-.124.155-.031.31.155.31zm-5.797 23.095c0 .186.124.31.31.31h9.207c.186 0 .31-.124.31-.31v-3.038c0-.186-.124-.31-.31-.31h-5.27c-.124 0-.186-.062-.186-.186v-4.774c0-.124.062-.186.186-.186h4.557c.186 0 .31-.124.31-.31v-3.038c0-.186-.124-.31-.31-.31h-4.557c-.124 0-.186-.062-.186-.186v-4.588c0-.124.062-.186.186-.186h5.27c.186 0 .31-.124.31-.31V87.98c0-.186-.124-.31-.31-.31h-9.207c-.186 0-.31.124-.31.31zm23.963.31c.155 0 .217-.155.155-.31l-2.883-8.928c1.457-.992 2.356-2.728 2.356-5.394 0-4.681-2.418-6.448-6.169-6.448h-5.022c-.186 0-.31.124-.31.31v20.46c0 .186.124.31.31.31h3.441c.186 0 .31-.124.31-.31v-7.75c0-.124.062-.186.186-.186h1.178l2.387 7.998c.062.186.155.248.341.248zm-6.727-11.749h-.899c-.124 0-.186-.062-.186-.186v-5.394c0-.124.062-.186.186-.186h.899c1.581 0 2.263.682 2.263 2.883 0 2.232-.682 2.883-2.263 2.883z" fill="#fff"/></svg>