<svg width="168.712" height="37" viewBox="0 0 168.712 37" xmlns="http://www.w3.org/2000/svg"><path d="M46.58 25.04c.159 0 .264-.105.264-.264V10.383c0-.105.053-.158.158-.158h2.82c.159 0 .264-.105.264-.264V7.378c0-.158-.105-.264-.263-.264h-9.411c-.158 0-.264.106-.264.264V9.96c0 .159.106.264.264.264h2.82c.106 0 .159.053.159.158v14.393c0 .159.105.264.263.264zm5.088-.264c0 .159.106.264.264.264h2.926c.158 0 .263-.105.263-.264V7.378c0-.158-.105-.264-.263-.264h-2.926c-.158 0-.264.106-.264.264zm5.879 0c0 .159.105.264.263.264h7.882c.158 0 .264-.105.264-.264v-2.583c0-.158-.106-.264-.264-.264h-4.534c-.105 0-.158-.052-.158-.158V7.378c0-.158-.105-.264-.264-.264H57.81c-.158 0-.263.106-.263.264zm18.479.264c.158 0 .264-.105.264-.264v-6.22c0-.106.052-.159.158-.159h.87c3.19 0 5.272-1.582 5.272-5.641 0-4.086-2.004-5.642-5.272-5.642H73.1c-.158 0-.264.106-.264.264v17.398c0 .159.106.264.264.264zm1.186-9.675h-.764c-.106 0-.158-.052-.158-.158v-4.903c0-.105.052-.158.158-.158h.764c1.345 0 1.925.58 1.925 2.61s-.58 2.61-1.925 2.61zm11.995 9.912c2.346 0 3.927-1.054 4.586-3.031.29-.817.37-1.556.37-6.169 0-4.613-.08-5.351-.37-6.168-.659-1.977-2.24-3.032-4.586-3.032-2.347 0-3.928 1.055-4.587 3.032-.29.817-.37 1.555-.37 6.168s.08 5.352.37 6.169c.659 1.977 2.24 3.031 4.587 3.031zm0-3.11c-.66 0-1.108-.37-1.266-.87-.132-.422-.184-.87-.184-5.22s.052-4.798.184-5.22c.158-.5.607-.87 1.266-.87s1.107.37 1.265.87c.132.422.184.87.184 5.22s-.052 4.798-.184 5.22c-.158.5-.606.87-1.265.87zm17.214 2.873c.131 0 .184-.132.131-.264l-2.451-7.592c1.239-.843 2.003-2.32 2.003-4.587 0-3.98-2.056-5.483-5.246-5.483h-4.27c-.158 0-.264.106-.264.264v17.398c0 .159.106.264.264.264h2.926c.158 0 .263-.105.263-.264v-6.59c0-.105.053-.158.159-.158h1.001l2.03 6.801c.053.158.132.211.29.211zm-5.72-9.99h-.765c-.106 0-.159-.054-.159-.16v-4.586c0-.105.053-.158.159-.158h.764c1.345 0 1.924.58 1.924 2.451 0 1.898-.58 2.452-1.924 2.452zm13.022 9.99c.158 0 .263-.105.263-.264V10.383c0-.105.053-.158.158-.158h2.821c.158 0 .264-.105.264-.264V7.378c0-.158-.106-.264-.264-.264h-9.41c-.16 0-.265.106-.265.264V9.96c0 .159.106.264.264.264h2.82c.106 0 .159.053.159.158v14.393c0 .159.105.264.263.264zm10.096-19.903c.21 0 .343-.079.527-.263l2.742-3.006c.105-.131.026-.263-.132-.263h-2.636c-.211 0-.29.079-.422.263l-2.162 3.006c-.105.131-.026.263.132.263zm-.79 20.14c2.345 0 3.927-1.054 4.586-3.031.29-.817.37-1.556.37-6.169-.001-4.613-.08-5.351-.37-6.168-.659-1.977-2.24-3.032-4.587-3.032-2.346 0-3.928 1.055-4.587 3.032-.29.817-.369 1.555-.369 6.168s.08 5.352.37 6.169c.658 1.977 2.24 3.031 4.586 3.031zm0-3.11c-.66 0-1.108-.37-1.266-.87-.132-.422-.185-.87-.185-5.22s.053-4.798.185-5.22c.158-.5.606-.87 1.265-.87.66 0 1.107.37 1.265.87.132.422.185.87.185 5.22s-.053 4.798-.185 5.22c-.158.5-.606.87-1.265.87z" fill="#fff"/></svg>