<svg width="299.255" height="27" viewBox="0 0 299.255 27" xmlns="http://www.w3.org/2000/svg"><path d="M2.354 16.22c.398 1.249 1.458 1.93 2.973 1.93 1.514 0 2.593-.662 2.972-1.93.151-.474.208-.985.208-4.677 0-3.691-.057-4.202-.208-4.675C7.92 5.599 6.84 4.937 5.327 4.937c-1.515 0-2.556.681-2.954 1.93-.151.474-.227.985-.227 4.676 0 3.692.057 4.203.208 4.676zm2.253-.644c-.057-.19-.075-.417-.075-4.033 0-3.615.018-3.842.075-4.032.095-.303.341-.492.72-.492.378 0 .624.19.719.492.057.19.076.417.076 4.032 0 3.616-.02 3.843-.076 4.033-.095.303-.322.492-.72.492-.378 0-.624-.19-.719-.492zm5.642.662c.397 1.212 1.382 1.912 2.953 1.912s2.556-.681 2.972-1.912c.114-.36.17-.833.17-2.404 0-1.817-.056-2.272-.208-2.707-.34-1.079-1.098-1.59-2.328-1.59-.644 0-1.136.208-1.42.492h-.02V7.341c0-.076.039-.114.115-.114h3.653c.114 0 .19-.075.19-.19v-1.74c0-.114-.076-.19-.19-.19h-5.68c-.113 0-.188.076-.188.19v6.795c0 .133.075.19.189.19h1.685c.151 0 .227-.038.265-.17.113-.322.34-.53.757-.53.379 0 .625.17.738.51.057.152.076.341.076 1.742s-.019 1.59-.076 1.742c-.113.34-.34.492-.738.492-.379 0-.606-.17-.72-.511-.056-.152-.075-.322-.075-.814 0-.152-.095-.208-.227-.19l-1.874.19c-.133.019-.19.094-.19.227 0 .454.057.89.17 1.268zm7.705 1.553c0 .113.075.189.189.189h1.93c.114 0 .19-.076.19-.19v-2.195c0-.114-.076-.19-.19-.19h-1.93c-.114 0-.19.076-.19.19zm7.44-3.749h5.073c.113 0 .19-.075.19-.189v-1.78c0-.113-.077-.189-.19-.189h-5.074c-.113 0-.189.076-.189.19v1.78c0 .113.076.188.19.188zM36.05 16.22c.398 1.25 1.458 1.931 2.973 1.931 1.514 0 2.593-.662 2.972-1.93.151-.474.208-.985.208-4.677 0-3.691-.057-4.202-.208-4.675-.379-1.269-1.458-1.931-2.972-1.931-1.515 0-2.556.681-2.954 1.93-.151.474-.227.985-.227 4.676 0 3.692.057 4.203.208 4.676zm2.253-.643c-.057-.19-.075-.417-.075-4.033 0-3.615.018-3.842.075-4.032.095-.303.341-.492.72-.492.378 0 .624.19.719.492.057.19.076.417.076 4.032 0 3.616-.02 3.843-.076 4.033-.095.303-.322.492-.72.492-.378 0-.624-.19-.719-.492zm5.604.643c.397 1.23 1.42 1.931 2.99 1.931 1.572 0 2.594-.7 2.992-1.93.114-.38.17-.796.17-1.988 0-.966-.038-1.344-.17-1.76-.17-.531-.473-.947-.89-1.212v-.038c.436-.265.72-.7.89-1.23.114-.38.17-.777.17-1.44 0-.87-.056-1.306-.17-1.684-.398-1.23-1.42-1.931-2.991-1.931-1.571 0-2.594.7-2.991 1.93-.114.38-.17.815-.17 1.685 0 .663.037 1.06.17 1.44.17.53.473.965.89 1.23v.038c-.398.265-.72.681-.89 1.211-.133.417-.17.795-.17 1.76 0 1.193.056 1.61.17 1.988zm2.99-5.963c-.378 0-.605-.17-.719-.51-.056-.171-.075-.398-.075-1.118 0-.72.019-.927.075-1.098.114-.34.341-.511.72-.511.378 0 .606.17.72.511.056.17.075.379.075 1.098 0 .72-.019.947-.076 1.117-.113.34-.34.511-.72.511zm-.719 5.3c-.056-.17-.075-.34-.075-1.362s.019-1.174.075-1.344c.114-.322.341-.511.72-.511.378 0 .606.189.72.51.056.171.075.323.075 1.345s-.019 1.192-.076 1.363c-.113.322-.34.511-.72.511-.378 0-.605-.19-.719-.511zm5.472 2.235c0 .113.075.189.189.189h1.93c.114 0 .19-.076.19-.19v-2.195c0-.114-.076-.19-.19-.19h-1.93c-.114 0-.19.076-.19.19zm7.383 0c0 .113.075.189.189.189h1.836c.114 0 .19-.076.19-.19v-7.44h.113l1.401 5.15c.038.114.114.19.246.19h1.041c.133 0 .208-.076.246-.19l1.401-5.15h.114v7.44c0 .114.076.19.19.19h1.835c.114 0 .19-.076.19-.19V5.297c0-.113-.076-.189-.19-.189h-2.025c-.17 0-.265.057-.303.19l-1.893 6.758h-.076L61.57 5.296c-.038-.132-.132-.189-.303-.189h-2.044c-.114 0-.19.076-.19.19zm10.033 0c-.019.113.038.189.151.189h2.102c.132 0 .189-.076.208-.19l.435-2.328h2.442l.417 2.329c.019.113.076.189.208.189h2.101c.114 0 .17-.076.152-.19L74.519 5.297c-.019-.113-.095-.189-.208-.189h-2.234c-.114 0-.17.076-.208.19zm3.256-4.298l.852-4.467h.057l.814 4.467zm6.001 4.298c0 .113.076.189.19.189h2.1c.114 0 .19-.076.19-.19V5.297c0-.113-.076-.189-.19-.189h-2.1c-.114 0-.19.076-.19.19zm1.818-14.104c.151 0 .246-.057.378-.19L82.49 1.34c.076-.095.019-.19-.095-.19h-1.893c-.151 0-.208.057-.303.19l-1.552 2.158c-.076.095-.019.19.095.19zM92.428 19.57c.113 0 .189-.076.189-.19V4.16c0-.113-.076-.189-.19-.189h-1.533c-.113 0-.19.076-.19.19v15.22c0 .113.077.19.19.19zm13.8-1.78c0 .114.076.19.19.19h2.1c.114 0 .19-.076.19-.19v-4.94c0-.076.038-.114.114-.114h2.783c.113 0 .189-.076.189-.19v-1.873c0-.114-.076-.19-.19-.19h-2.782c-.076 0-.114-.037-.114-.113V7.454c0-.075.038-.113.114-.113h3.218c.114 0 .19-.076.19-.19V5.297c0-.113-.076-.189-.19-.189h-5.622c-.114 0-.19.076-.19.19zm7.308 0c0 .114.075.19.189.19h5.66c.114 0 .19-.076.19-.19v-1.855c0-.113-.076-.189-.19-.189h-3.256c-.076 0-.113-.038-.113-.113V5.296c0-.113-.076-.189-.19-.189h-2.101c-.114 0-.19.076-.19.19zm10.26.36c2.158 0 3.483-1.23 3.483-3.653v-9.2c0-.114-.075-.19-.189-.19h-2.101c-.114 0-.19.076-.19.19V14.8c0 .681-.36 1.117-1.003 1.117-.625 0-.984-.436-.984-1.117V5.296c0-.113-.076-.189-.19-.189h-2.1c-.114 0-.19.076-.19.19v9.2c0 2.423 1.325 3.653 3.464 3.653zm5.244-2.158c.473 1.401 1.59 2.158 3.313 2.158 1.685 0 2.802-.757 3.275-2.177.208-.587.265-1.117.265-4.43v-.567c0-.114-.076-.19-.19-.19h-3.123c-.114 0-.19.076-.19.19v1.665c0 .114.076.19.19.19h.814c.076 0 .114.038.114.113 0 1.893-.038 2.083-.114 2.348-.113.378-.511.625-.984.625-.474 0-.871-.247-.985-.625-.094-.284-.113-.455-.113-3.749 0-3.312.019-3.464.113-3.767.114-.36.492-.606.947-.606.643 0 1.022.436 1.079 1.363.019.133.095.19.208.17l2.007-.34c.113-.019.17-.113.151-.227-.17-2.082-1.382-3.2-3.464-3.2-1.723 0-2.84.758-3.313 2.159-.19.606-.246 1.136-.246 4.448 0 3.313.057 3.843.246 4.45zm8.31 3.73c0 .113.076.189.19.189.095 0 .151-.038.208-.114l1.628-1.874c.114-.132.152-.265.152-.51v-1.818c0-.114-.076-.19-.19-.19h-1.798c-.114 0-.19.076-.19.19zm7.251-1.931c0 .113.076.189.19.189h2.1c.114 0 .19-.076.19-.19v-4.94c0-.076.038-.114.114-.114h2.783c.113 0 .189-.076.189-.19v-1.873c0-.114-.076-.19-.19-.19h-2.782c-.076 0-.114-.037-.114-.113V7.454c0-.075.038-.113.114-.113h3.218c.114 0 .19-.076.19-.19V5.297c0-.113-.076-.189-.19-.189h-5.623c-.113 0-.189.076-.189.19zm5.812 0c-.019.113.038.189.151.189h2.102c.132 0 .189-.076.208-.19l.435-2.328h2.442l.417 2.329c.019.113.076.189.208.189h2.102c.113 0 .17-.076.151-.19l-2.764-12.494c-.019-.113-.095-.189-.208-.189h-2.234c-.114 0-.17.076-.208.19zm3.256-4.298l.852-4.467h.057l.814 4.467zm13.252 4.487c.094 0 .132-.095.094-.19l-1.76-5.451c.89-.606 1.439-1.666 1.439-3.294 0-2.859-1.477-3.938-3.768-3.938h-3.067c-.113 0-.189.076-.189.19V17.79c0 .113.076.189.19.189h2.1c.114 0 .19-.076.19-.19v-4.732c0-.076.038-.114.114-.114h.72l1.457 4.885c.038.113.094.151.208.151zm-4.108-7.175h-.55c-.075 0-.113-.038-.113-.113V7.398c0-.076.038-.114.114-.114h.549c.965 0 1.382.417 1.382 1.76 0 1.364-.417 1.761-1.382 1.761zm4.751 6.986c-.019.113.038.189.152.189h2.101c.133 0 .19-.076.208-.19l.436-2.328h2.442l.416 2.329c.02.113.076.189.209.189h2.1c.114 0 .171-.076.152-.19l-2.764-12.494c-.018-.113-.094-.189-.208-.189h-2.234c-.113 0-.17.076-.208.19zm3.256-4.298l.852-4.467h.057l.814 4.467zm13.252 4.487c.095 0 .133-.095.095-.19l-1.76-5.451c.889-.606 1.438-1.666 1.438-3.294 0-2.859-1.477-3.938-3.767-3.938h-3.067c-.114 0-.19.076-.19.19V17.79c0 .113.076.189.19.189h2.101c.114 0 .19-.076.19-.19v-4.732c0-.076.037-.114.113-.114h.72l1.457 4.885c.038.113.095.151.208.151zm-4.108-7.175h-.549c-.076 0-.114-.038-.114-.113V7.398c0-.076.038-.114.114-.114h.55c.965 0 1.381.417 1.381 1.76 0 1.364-.416 1.761-1.382 1.761zm12.116 3.351c0-2.177-.682-3.124-2.442-3.805l-.776-.303c-1.004-.398-1.212-.7-1.212-1.666 0-.87.322-1.287.984-1.287.682 0 1.004.473 1.023 1.4 0 .114.094.171.208.152l1.93-.303c.114-.019.171-.094.171-.208-.094-2.026-1.155-3.2-3.407-3.2-2.29 0-3.408 1.25-3.408 3.579 0 2.063.625 3.028 2.442 3.729l.776.303c.966.378 1.193.776 1.193 1.912 0 1.174-.322 1.533-1.022 1.533-.739 0-1.08-.473-1.117-1.666 0-.113-.076-.17-.208-.151l-2.026.322c-.114.019-.151.094-.151.208.037 2.215 1.154 3.445 3.483 3.445 2.556 0 3.559-1.363 3.559-3.994zm5.13 3.824c.114 0 .19-.076.19-.19V7.455c0-.075.037-.113.113-.113h2.026c.113 0 .189-.076.189-.19V5.297c0-.113-.076-.189-.19-.189h-6.758c-.113 0-.189.076-.189.19v1.855c0 .113.076.189.19.189h2.025c.076 0 .113.038.113.113v10.337c0 .113.076.189.19.189zm1.325-.776c.492.606 1.382.946 2.367.946 2.139 0 3.52-1.117 3.52-3.71V5.296c0-.113-.075-.189-.189-.189h-2.1c-.114 0-.19.076-.19.19v9.37c0 .89-.36 1.25-1.022 1.25-.284 0-.53-.114-.72-.284-.113-.095-.19-.095-.284-.02l-1.363 1.326c-.094.076-.094.17-.019.265zm11.548-13.517c.152 0 .246-.057.379-.19l1.969-2.157c.075-.095.018-.19-.095-.19h-1.893c-.152 0-.208.057-.303.19l-1.552 2.158c-.076.095-.02.19.094.19zm-.568 14.463c1.685 0 2.82-.757 3.294-2.177.208-.587.265-1.117.265-4.43 0-3.312-.057-3.842-.265-4.43-.473-1.42-1.609-2.176-3.294-2.176s-2.82.757-3.294 2.177c-.208.587-.265 1.117-.265 4.43 0 3.312.057 3.842.265 4.43.473 1.42 1.61 2.176 3.294 2.176zm0-2.233c-.473 0-.795-.265-.908-.625-.095-.303-.133-.625-.133-3.749 0-3.123.038-3.445.133-3.748.113-.36.435-.625.908-.625.473 0 .795.265.909.625.095.303.132.625.132 3.748 0 3.124-.037 3.446-.132 3.749-.114.36-.436.625-.909.625zm12.362 2.063c.095 0 .133-.095.095-.19l-1.76-5.451c.889-.606 1.438-1.666 1.438-3.294 0-2.859-1.477-3.938-3.767-3.938h-3.067c-.114 0-.19.076-.19.19V17.79c0 .113.076.189.19.189h2.101c.114 0 .19-.076.19-.19v-4.732c0-.076.037-.114.113-.114h.72l1.457 4.885c.038.113.095.151.208.151zm-4.108-7.175h-.549c-.076 0-.114-.038-.114-.113V7.398c0-.076.038-.114.114-.114h.549c.966 0 1.382.417 1.382 1.76 0 1.364-.416 1.761-1.382 1.761zm5.452 6.986c0 .113.076.189.19.189h2.1c.114 0 .19-.076.19-.19V5.297c0-.113-.076-.189-.19-.189h-2.1c-.114 0-.19.076-.19.19zm8.084-2.613c0 1.818 1.192 2.972 3.01 2.972 1.135 0 1.987-.34 2.764-1.25l.17.266c.397.625.72.814 1.477.814h.719c.114 0 .19-.076.19-.19v-1.608c0-.114-.076-.19-.19-.19h-.076c-.265 0-.435-.075-.643-.435l-.36-.568 1.268-2.026c.057-.113.038-.208-.057-.265l-1.268-.833c-.114-.075-.208-.038-.265.057l-.795 1.268-1.155-1.836c1.477-1.666 1.931-2.631 1.931-3.597 0-1.722-1.23-2.82-2.972-2.82s-2.972 1.117-2.972 2.82c0 1.004.454 1.912 1.23 3.124l.152.265c-1.458 1.61-2.158 2.745-2.158 4.032zm3.672-5.641c-.624-1.06-.757-1.553-.757-1.874 0-.606.303-.966.833-.966s.852.36.852.966c0 .568-.17 1.003-.928 1.874zm-1.457 5.509c0-.625.302-1.193 1.079-2.102l1.382 2.215c-.587.776-.985.966-1.458.966-.587 0-1.003-.398-1.003-1.08zm11.87.946c.472 1.401 1.59 2.158 3.312 2.158 1.685 0 2.802-.757 3.275-2.177.208-.587.265-1.117.265-4.43v-.567c0-.114-.076-.19-.19-.19h-3.123c-.113 0-.189.076-.189.19v1.665c0 .114.076.19.19.19h.813c.076 0 .114.038.114.113 0 1.893-.038 2.083-.114 2.348-.113.378-.51.625-.984.625-.473 0-.87-.247-.984-.625-.095-.284-.114-.455-.114-3.749 0-3.312.019-3.464.114-3.767.113-.36.492-.606.946-.606.644 0 1.022.436 1.08 1.363.018.133.094.19.207.17l2.007-.34c.114-.019.17-.113.151-.227-.17-2.082-1.381-3.2-3.464-3.2-1.723 0-2.84.758-3.313 2.159-.19.606-.246 1.136-.246 4.448 0 3.313.057 3.843.246 4.45zm8.367 1.799c0 .113.075.189.189.189h2.101c.114 0 .19-.076.19-.19V5.297c0-.113-.076-.189-.19-.189h-2.101c-.114 0-.19.076-.19.19zm10.885-3.635c0-2.177-.682-3.124-2.442-3.805l-.776-.303c-1.004-.398-1.212-.7-1.212-1.666 0-.87.322-1.287.985-1.287.681 0 1.003.473 1.022 1.4 0 .114.094.171.208.152l1.931-.303c.114-.019.17-.094.17-.208-.094-2.026-1.154-3.2-3.407-3.2-2.29 0-3.408 1.25-3.408 3.579 0 2.063.625 3.028 2.442 3.729l.776.303c.966.378 1.193.776 1.193 1.912 0 1.174-.322 1.533-1.022 1.533-.738 0-1.08-.473-1.117-1.666 0-.113-.076-.17-.208-.151l-2.026.322c-.114.019-.151.094-.151.208.037 2.215 1.154 3.445 3.483 3.445 2.556 0 3.559-1.363 3.559-3.994zm5.13 3.824c.114 0 .19-.076.19-.19V7.455c0-.075.037-.113.113-.113h2.026c.113 0 .189-.076.189-.19V5.297c0-.113-.076-.189-.19-.189h-6.758c-.113 0-.189.076-.189.19v1.855c0 .113.076.189.19.189h2.025c.076 0 .114.038.114.113v10.337c0 .113.075.189.189.189zm3.654-.19c0 .114.076.19.19.19h2.1c.114 0 .19-.076.19-.19V5.297c0-.113-.076-.189-.19-.189h-2.1c-.114 0-.19.076-.19.19zm4.221 0c0 .114.076.19.19.19h1.798c.114 0 .19-.076.19-.19V9.708h.094l2.234 8.084c.038.132.114.189.265.189h2.272c.113 0 .189-.076.189-.19V5.297c0-.113-.076-.189-.19-.189h-1.798c-.113 0-.189.076-.189.19v8.083h-.095l-2.139-8.084c-.038-.132-.113-.189-.265-.189h-2.366c-.114 0-.19.076-.19.19zm9.03-1.798c.474 1.401 1.59 2.158 3.313 2.158 1.685 0 2.802-.757 3.275-2.177.209-.587.265-1.117.265-4.43v-.567c0-.114-.075-.19-.189-.19h-3.123c-.114 0-.19.076-.19.19v1.665c0 .114.076.19.19.19h.814c.075 0 .113.038.113.113 0 1.893-.038 2.083-.113 2.348-.114.378-.512.625-.985.625s-.87-.247-.984-.625c-.095-.284-.114-.455-.114-3.749 0-3.312.02-3.464.114-3.767.113-.36.492-.606.946-.606.644 0 1.023.436 1.08 1.363.018.133.094.19.208.17l2.006-.34c.114-.019.17-.113.152-.227-.17-2.082-1.382-3.2-3.465-3.2-1.722 0-2.84.758-3.313 2.159-.189.606-.246 1.136-.246 4.448 0 3.313.057 3.843.246 4.45z" fill="#fff"/></svg>