<svg width="168.712" height="37" viewBox="0 0 168.712 37" xmlns="http://www.w3.org/2000/svg"><path d="M37.987 24.776c0 .159.105.264.263.264h2.926c.158 0 .264-.105.264-.264v-7.17c0-.105.053-.158.158-.158h2.504c.106 0 .159.053.159.158v7.17c0 .159.105.264.263.264h2.926c.158 0 .264-.105.264-.264V7.378c0-.158-.106-.264-.264-.264h-2.926c-.158 0-.263.106-.263.264v6.801c0 .106-.053.158-.159.158h-2.504c-.105 0-.158-.052-.158-.158V7.378c0-.158-.106-.264-.264-.264H38.25c-.158 0-.263.106-.263.264zm12.152 0c0 .159.106.264.264.264h7.83c.157 0 .263-.105.263-.264v-2.583c0-.158-.106-.264-.264-.264h-4.481c-.106 0-.159-.052-.159-.158v-4.06c0-.105.053-.158.159-.158h3.875c.158 0 .263-.105.263-.263v-2.584c0-.158-.105-.263-.263-.263H53.75c-.106 0-.159-.053-.159-.158v-3.902c0-.105.053-.158.159-.158h4.481c.158 0 .264-.105.264-.264V7.378c0-.158-.106-.264-.264-.264h-7.83c-.157 0-.263.106-.263.264zm10.281 0c0 .159.106.264.264.264h7.882c.158 0 .263-.105.263-.264v-2.583c0-.158-.105-.264-.263-.264h-4.534c-.106 0-.159-.052-.159-.158V7.378c0-.158-.105-.264-.263-.264h-2.926c-.158 0-.264.106-.264.264zm9.596-2.504c.659 1.95 2.214 3.005 4.613 3.005 2.346 0 3.901-1.054 4.56-3.031.29-.817.37-1.556.37-6.169v-.79c0-.159-.106-.264-.264-.264h-4.35c-.158 0-.263.105-.263.263v2.32c0 .158.105.264.263.264h1.134c.105 0 .158.052.158.158 0 2.636-.053 2.9-.158 3.269-.158.527-.712.87-1.371.87-.66 0-1.213-.343-1.37-.87-.133-.396-.16-.633-.16-5.22 0-4.613.027-4.824.16-5.246.157-.5.684-.843 1.317-.843.896 0 1.424.606 1.503 1.898.026.184.132.263.29.237l2.794-.475c.158-.026.237-.158.21-.316-.236-2.9-1.923-4.455-4.823-4.455-2.4 0-3.954 1.055-4.613 3.005-.264.844-.343 1.582-.343 6.195s.079 5.352.343 6.195zm10.254 2.504c-.026.159.053.264.211.264h2.926c.185 0 .264-.105.29-.264l.606-3.242h3.401l.58 3.242c.026.159.105.264.29.264H91.5c.158 0 .237-.105.21-.264L87.863 7.378c-.026-.158-.132-.264-.29-.264h-3.11c-.159 0-.238.106-.29.264zm4.534-5.984l1.187-6.22h.079l1.133 6.22zm18.453 6.248c.132 0 .185-.132.132-.264l-2.452-7.592c1.24-.843 2.004-2.32 2.004-4.587 0-3.98-2.056-5.483-5.246-5.483h-4.27c-.159 0-.264.106-.264.264v17.398c0 .159.105.264.263.264h2.927c.158 0 .263-.105.263-.264v-6.59c0-.105.053-.158.158-.158h1.002l2.03 6.801c.053.158.132.211.29.211zm-5.72-9.99h-.765c-.105 0-.158-.054-.158-.16v-4.586c0-.105.053-.158.158-.158h.765c1.344 0 1.924.58 1.924 2.451 0 1.898-.58 2.452-1.924 2.452zm7.592 9.726c0 .159.105.264.263.264h2.927c.158 0 .263-.105.263-.264v-6.88c0-.105.053-.158.158-.158h3.875c.159 0 .264-.106.264-.264v-2.61c0-.158-.105-.263-.264-.263h-3.875c-.105 0-.158-.053-.158-.158v-4.06c0-.105.053-.158.158-.158h4.482c.158 0 .263-.105.263-.264V7.378c0-.158-.105-.264-.263-.264h-7.83c-.158 0-.263.106-.263.264zm20.272.264c.131 0 .184-.132.131-.264l-2.451-7.592c1.239-.843 2.003-2.32 2.003-4.587 0-3.98-2.056-5.483-5.246-5.483h-4.27c-.158 0-.264.106-.264.264v17.398c0 .159.106.264.264.264h2.926c.158 0 .264-.105.264-.264v-6.59c0-.105.052-.158.158-.158h1.001l2.03 6.801c.053.158.132.211.29.211zm-5.72-9.99h-.765c-.106 0-.158-.054-.158-.16v-4.586c0-.105.052-.158.158-.158h.764c1.345 0 1.925.58 1.925 2.451 0 1.898-.58 2.452-1.925 2.452zm7.591 9.726c0 .159.106.264.264.264h2.926c.158 0 .264-.105.264-.264V7.378c0-.158-.106-.264-.264-.264h-2.926c-.158 0-.264.106-.264.264zm2.531-19.639c.21 0 .343-.079.527-.263l2.742-3.006c.105-.131.026-.263-.132-.263h-2.636c-.211 0-.29.079-.422.263l-2.162 3.006c-.105.131-.026.263.132.263z" fill="#fff"/></svg>