<svg width="139.941" height="38" viewBox="0 0 139.941 38" xmlns="http://www.w3.org/2000/svg"><path d="M32.116 15.336q.594 0 .662.527.067.526-.19 1.147-.256.621-.728 1.147-.473.527-.959.527-1.107 0-2.619.054-1.512.054-3.159.405-.567.864-1.08 1.715-.513.85-.918 1.593-.405.742-.688 1.363-.284.621-.365 1.053-.108.513-.459.702-.35.189-.715.081t-.608-.486q-.243-.378-.162-.999.216-1.593.635-3.24.418-1.647.918-3.24.5-1.593 1.053-3.051.553-1.458 1.04-2.646.485-1.188.863-2.025t.54-1.215q.19-.459.635-.526.445-.068.972.135.526.202 1.08.62.553.419.972.932.418.513.634 1.066.216.554.081 1.04-.08.27-.364.783t-.689 1.175q-.405.661-.931 1.457-.527.797-1.094 1.661.783-.297 1.62-.608.837-.31 1.607-.567.77-.256 1.404-.418.634-.162 1.012-.162zm7.101-11.205q.486-.027.756.337.27.365.324.918.054.554-.08 1.229-.136.675-.406 1.282-.27.608-.675 1.053-.405.446-.89.527-.406.081-1.445-.054-1.04-.135-2.417-.364-1.377-.23-2.93-.5-1.552-.27-3.01-.459-1.458-.189-2.646-.27-1.188-.081-1.836.108-.513.135-.837-.095-.324-.229-.378-.607-.054-.378.162-.77.216-.391.81-.58 1.512-.513 3.146-.837 1.633-.324 3.213-.513t3.05-.27q1.472-.081 2.7-.108 1.23-.027 2.107-.014.877.014 1.282-.013zm1.674-3.24q.243-.459.675-.526.432-.068.932.148t.999.648q.5.432.877.972.378.54.567 1.107.19.567.054 1.053-.108.378-.702 1.377t-1.471 2.416q-.878 1.418-1.93 3.092-1.054 1.674-2.08 3.388-1.026 1.715-1.917 3.335-.89 1.62-1.444 2.889-.554 1.269-.662 2.079-.108.81.46.918.593.108 1.187-.351.594-.459 1.094-1.174.5-.716.918-1.526.418-.81.661-1.404.27-.594.635-.81.364-.216.661-.108.297.108.405.513.108.405-.162 1.08-.243.675-.77 1.674-.526.999-1.282 1.917t-1.7 1.539q-.946.621-2.08.54-1.377-.081-1.89-1.12-.513-1.04-.391-2.687.121-1.647.729-3.753.607-2.106 1.471-4.307.864-2.2 1.863-4.373 1-2.174 1.89-3.956.891-1.782 1.553-3.01l.85-1.58zm7.263 12.042q.297-.675 1.013-.716.715-.04 1.43.324.716.365 1.175 1.027.46.661.27 1.39-.135.486-.607 1.336-.473.851-1.053 1.85-.58.999-1.188 2.025-.608 1.026-1.013 1.836-.405.81-.5 1.31-.094.499.311.472.621-.054 1.202-.526.58-.473 1.08-1.148.5-.675.904-1.431.405-.756.675-1.35.27-.594.635-.81.364-.216.661-.108.297.108.405.513.108.405-.162 1.08t-.796 1.647q-.527.972-1.27 1.863-.742.891-1.7 1.526-.959.634-2.093.634-.648 0-1.066-.284-.419-.283-.635-.769-.216-.486-.27-1.161-.054-.675 0-1.458-.459.81-1.012 1.553-.554.742-1.188 1.255-.635.513-1.337.77-.702.256-1.458.094-.972-.189-1.444-.85-.473-.662-.567-1.648-.095-.985.148-2.254.243-1.269.702-2.66.46-1.39 1.107-2.848.648-1.458 1.377-2.862.243-.486.662-.607.418-.122.864.013.445.135.89.486.446.351.743.783.297.432.392.904.094.473-.095.851-.486.864-1.053 1.823-.567.958-1.107 1.903-.54.945-1.012 1.823-.473.877-.756 1.566-.284.688-.31 1.16-.028.473.323.581.46.162.972-.135.513-.297 1.026-.891.513-.594 1-1.404.485-.81.917-1.634.432-.823.77-1.593.337-.769.553-1.309.432-1.35.85-2.416.42-1.067.635-1.526zm12.123 3.132q.162-.729.77-.729.607 0 1.228.405t1.013 1.08q.391.675.121 1.35-.108.243-.27.702-.162.459-.378 1.08t-.513 1.377q-.297.756-.648 1.593 1.242-.783 2.093-1.714.85-.932 1.31-1.877.242-.513.593-.689.351-.175.635-.067.283.108.418.445.135.338-.054.824-.216.54-.648 1.229-.432.688-1.16 1.417-.73.729-1.783 1.458t-2.51 1.323q-.703 1.377-1.567 2.7-.864 1.323-1.917 2.362-1.053 1.04-2.268 1.674-1.215.635-2.619.635-1.134 0-1.809-.473-.675-.472-.85-1.215-.176-.742.202-1.646.378-.905 1.337-1.81.958-.904 2.538-1.673 1.58-.77 3.82-1.229.081 0 .19-.054.161-.324.31-.675.148-.351.31-.729-.62.621-1.363.972t-1.66.27q-1.378-.108-2.188-.81-.81-.702-1.107-1.769-.297-1.066-.094-2.335.202-1.269.864-2.511.661-1.242 1.755-2.322 1.093-1.08 2.592-1.742 1.498-.661 3.388-.769 1.89-.108 4.104.594.513.162.77.526.256.365.216.689-.04.324-.405.513-.365.189-1.094.027-1.674-.405-3.078.014-1.404.418-2.51 1.282-1.108.864-1.864 1.985-.756 1.12-1.093 2.16-.338 1.039-.216 1.795.121.756.742.891.594.108 1.134-.284.54-.391 1-1.066.458-.675.85-1.498.391-.824.675-1.58.283-.756.459-1.337.175-.58.202-.715.027-.027.027-.054zM52.34 31.158q.702 0 1.863-1.229 1.161-1.228 2.43-3.523-1.97.54-3.145 1.337-1.175.796-1.66 1.566-.487.769-.338 1.309.148.54.85.54zM77.8 19.332q.297-.567.689-.783.391-.216.688-.095.297.122.392.514.094.391-.23 1.039-.405.837-1.066 1.633-.662.797-1.472 1.485-.81.689-1.728 1.256-.918.567-1.863.904-.945.338-1.85.405-.904.068-1.66-.175-.378-.108-.607-.351-.23-.243-.338-.513-.108-.27-.094-.526.013-.257.094-.419.081-.162.243-.27.162-.108.392-.23.23-.121.5-.31t.593-.54q1-1.134 1.66-2.336.662-1.201 1.04-2.281t.54-1.904q.162-.823.216-1.147-.35.135-.918.648-.567.513-1.282 1.269-.716.756-1.499 1.688-.783.931-1.539 1.903-.756.972-1.444 1.944-.689.972-1.202 1.782-.972 1.944-1.809 3.915t-1.296 3.834q-.135.513-.459.702-.324.189-.661.081-.338-.108-.567-.486-.23-.378-.122-.999.216-1.593.783-3.497.567-1.903 1.323-3.874t1.58-3.861q.823-1.89 1.552-3.442.73-1.553 1.27-2.647.54-1.093.701-1.471.297-.675.85-.662.554.014 1.067.446.513.432.81 1.161.297.729.108 1.458-.08.297-.418.918-.338.621-.824 1.458 1.215-1.512 2.43-2.794 1.215-1.283 2.268-1.985.46-.297 1.067-.162.607.135 1.147.54t.905.999q.364.594.31 1.215-.08.972-.58 2.254-.5 1.283-1.27 2.552-.769 1.269-1.754 2.39-.986 1.12-2.093 1.714.513-.054 1.229-.337.715-.284 1.458-.824.742-.54 1.471-1.323.73-.783 1.27-1.863zM85.684.891q.243-.459.675-.526.432-.068.932.148t.999.648q.5.432.877.972.378.54.567 1.107.19.567.054 1.053-.108.378-.702 1.377t-1.471 2.416q-.878 1.418-1.93 3.092-1.054 1.674-2.08 3.388-1.026 1.715-1.917 3.335-.89 1.62-1.444 2.889-.554 1.269-.662 2.079-.108.81.46.918.593.108 1.187-.351.594-.459 1.094-1.174.5-.716.918-1.526.418-.81.661-1.404.27-.594.635-.81.364-.216.661-.108.297.108.405.513.108.405-.162 1.08-.243.675-.77 1.674-.526.999-1.282 1.917t-1.7 1.539q-.946.621-2.08.54-1.377-.081-1.89-1.12-.513-1.04-.391-2.687.121-1.647.729-3.753.607-2.106 1.471-4.307.864-2.2 1.863-4.373 1-2.174 1.89-3.956.891-1.782 1.553-3.01l.85-1.58zm7.263 12.042q.297-.675 1.013-.716.715-.04 1.43.324.716.365 1.175 1.027.46.661.27 1.39-.135.486-.607 1.336-.473.851-1.053 1.85-.58.999-1.188 2.025-.608 1.026-1.013 1.836-.405.81-.5 1.31-.094.499.311.472.621-.054 1.202-.526.58-.473 1.08-1.148.5-.675.904-1.431.405-.756.675-1.35.27-.594.635-.81.364-.216.661-.108.297.108.405.513.108.405-.162 1.08t-.796 1.647q-.527.972-1.27 1.863-.742.891-1.7 1.526-.959.634-2.093.634-.648 0-1.066-.284-.419-.283-.635-.769-.216-.486-.27-1.161-.054-.675 0-1.458-.459.81-1.012 1.553-.554.742-1.188 1.255-.635.513-1.337.77-.702.256-1.458.094-.972-.189-1.444-.85-.473-.662-.567-1.648-.095-.985.148-2.254.243-1.269.702-2.66.46-1.39 1.107-2.848.648-1.458 1.377-2.862.243-.486.662-.607.418-.122.864.013.445.135.89.486.446.351.743.783.297.432.392.904.094.473-.095.851-.486.864-1.053 1.823-.567.958-1.107 1.903-.54.945-1.012 1.823-.473.877-.756 1.566-.284.688-.31 1.16-.028.473.323.581.46.162.972-.135.513-.297 1.026-.891.513-.594 1-1.404.485-.81.917-1.634.432-.823.77-1.593.337-.769.553-1.309.432-1.35.85-2.416.42-1.067.635-1.526zm4.914-7.857q.648-.135.81.31.162.446 0 1.094-.162.648-.58 1.296-.419.648-.932.918-.459.216-1.215.337-.756.122-1.66.243-.905.122-1.85.27-.945.149-1.728.419-.35.108-.634-.027-.284-.135-.392-.392-.108-.256-.027-.553.081-.297.46-.54.998-.648 2.16-1.215 1.16-.567 2.24-1.013 1.08-.445 1.971-.742t1.377-.405zm-1.215 14.256q.594-1.134 1.283-2.295.688-1.161 1.39-2.281.702-1.121 1.364-2.188.661-1.066 1.228-2.038.378-.648.945-.513t1.053.635q.486.499.756 1.16.27.662.054 1.04-.108.216-.067.553.04.338.175.757.135.418.324.917.19.5.351 1.013.621 1.863.405 3.55-.216 1.688-1.026 3.038.73-.567 1.337-1.39.607-.824 1.201-1.958.297-.567.689-.783.391-.216.688-.095.297.122.392.514.094.391-.23 1.039-.567 1.134-1.485 2.187-.918 1.053-2.092 1.863-1.175.81-2.565 1.256-1.39.445-2.903.337-.054 0-.08.014-.028.013-.082.013-1.16 0-1.944-.607-.783-.608-1.188-1.499-.405-.891-.432-1.917-.027-1.026.297-1.863.027-.162.162-.459zm2.943 2.106q-.648 0-.945.378-.297.378-.324.837-.027.459.23.837.256.378.715.378.702 0 1.296-.445.594-.446 1-1.175.404-.729.607-1.674.202-.945.148-1.93-.054-.986-.378-1.958t-.972-1.755q-.324.513-.62 1.053-.298.459-.622 1.053-.324.594-.675 1.215.621.135 1.04.648.418.513.54 1.08.121.567-.122 1.012-.243.446-.918.446zm12.717 3.186q0 .81-.58 1.39-.58.581-1.39.581-.838 0-1.405-.58-.567-.581-.567-1.391 0-.837.567-1.404t1.404-.567q.81 0 1.39.567.581.567.581 1.404zM116.6 3.402q.19-.459.567-.526.378-.068.81.148.432.216.864.635.432.418.756.945.324.526.473 1.08.148.553.013 1.039-.108.405-.634 1.31-.527.904-1.256 2.092-.729 1.188-1.566 2.524-.837 1.337-1.58 2.606-.742 1.269-1.268 2.349-.527 1.08-.662 1.728-.108.513-.459.688-.35.176-.715.068-.365-.108-.608-.486t-.162-.972q.216-1.593.662-3.24.445-1.647.985-3.213t1.148-2.997q.607-1.431 1.134-2.592.526-1.161.931-1.984.405-.824.567-1.202z"/></svg>