<svg width="449.564" height="79" viewBox="0 0 449.564 79" xmlns="http://www.w3.org/2000/svg"><path d="M43.424 52.967c0 .338.225.563.563.563h9.073c7.494 0 11.326-2.817 11.326-11.27 0-5.127-2.029-7.832-4.846-8.677v-.113c2.817-1.24 4.395-3.606 4.395-8.283 0-6.706-3.156-9.974-10.256-9.974h-9.692c-.338 0-.563.225-.563.563zm7.72-22.033c-.226 0-.338-.112-.338-.338v-8.79c0-.226.112-.338.338-.338h1.634c2.874 0 3.775 1.014 3.775 4.733 0 3.775-.901 4.733-3.775 4.733zm-.338 16.003v-9.804c0-.226.112-.339.338-.339h1.634c3.099 0 4.17 1.184 4.17 5.185 0 4.057-1.071 5.296-4.17 5.296h-1.634c-.226 0-.338-.112-.338-.338zm28.512 6.593c.338 0 .563-.225.563-.563V38.316l7.438-22.54c.113-.338 0-.563-.45-.563h-6.142c-.395 0-.564.169-.676.563l-3.607 14.031h-.225l-3.776-14.03c-.056-.395-.281-.564-.676-.564h-6.254c-.451 0-.564.225-.451.563l7.438 22.54v14.65c0 .339.225.564.563.564zm32.626 0c.282 0 .394-.282.282-.563l-5.24-16.229c2.648-1.803 4.282-4.959 4.282-9.805 0-8.508-4.396-11.72-11.214-11.72h-9.128c-.338 0-.564.225-.564.563v37.19c0 .339.226.564.564.564h6.254c.339 0 .564-.225.564-.563V38.879c0-.225.113-.338.338-.338h2.141l4.34 14.538c.112.338.28.451.619.451zM99.716 32.174h-1.634c-.225 0-.338-.113-.338-.338V22.03c0-.225.113-.338.338-.338h1.634c2.874 0 4.114 1.24 4.114 5.24 0 4.058-1.24 5.24-4.114 5.24zm14.37 19.046c1.464 1.803 4.113 2.817 7.043 2.817 6.367 0 10.48-3.324 10.48-11.044V15.776c0-.338-.225-.563-.563-.563h-6.255c-.338 0-.563.225-.563.563V43.67c0 2.648-1.07 3.719-3.043 3.719-.845 0-1.578-.338-2.141-.845-.338-.282-.564-.282-.845-.057l-4.058 3.945c-.281.225-.281.507-.056.789zm19.777 1.747c-.056.338.113.563.451.563h6.255c.394 0 .563-.225.62-.563l1.296-6.931h7.269l1.24 6.93c.056.339.225.564.62.564h6.254c.338 0 .507-.225.45-.563l-8.226-37.19c-.057-.339-.282-.564-.62-.564h-6.65c-.337 0-.506.225-.619.563zm9.692-12.792l2.536-13.298h.17l2.422 13.298zm28.118 13.355c5.297 0 8.396-2.029 9.805-6.367.676-2.142 1.014-4.734 1.014-12.792 0-8.057-.338-10.65-1.014-12.79-1.409-4.34-4.508-6.368-9.805-6.368h-9.692c-.338 0-.563.225-.563.563v15.44c0 .225-.113.338-.338.338h-1.522c-.338 0-.563.225-.563.564v4.17c0 .337.225.563.563.563h1.522c.225 0 .338.113.338.338v15.778c0 .338.225.563.563.563zm-.732-6.65h-1.803c-.226 0-.338-.112-.338-.337v-9.354c0-.225.112-.338.338-.338h2.479c.338 0 .563-.226.563-.564v-4.113c0-.338-.225-.564-.563-.564h-2.48c-.225 0-.337-.112-.337-.338V22.2c0-.225.112-.338.338-.338h1.803c1.86 0 2.874.676 3.437 2.367.394 1.183.62 2.817.62 10.142 0 7.326-.226 8.96-.62 10.143-.563 1.69-1.578 2.367-3.437 2.367zm26.37 7.157c6.425 0 10.37-3.663 10.37-10.875V15.776c0-.338-.226-.563-.564-.563h-6.255c-.338 0-.564.225-.564.563v28.287c0 2.029-1.07 3.325-2.986 3.325-1.86 0-2.93-1.296-2.93-3.325V15.776c0-.338-.226-.563-.564-.563h-6.254c-.338 0-.564.225-.564.563v27.386c0 7.212 3.945 10.875 10.312 10.875zm24.344-1.07c-.057.338.112.563.45.563h6.255c.394 0 .563-.225.62-.563l1.296-6.931h7.269l1.24 6.93c.056.339.225.564.62.564h6.254c.338 0 .507-.225.45-.563l-8.226-37.19c-.056-.339-.282-.564-.62-.564h-6.65c-.337 0-.506.225-.619.563zm9.691-12.792l2.536-13.298h.17l2.422 13.298zm28.118 13.355c5.297 0 8.396-2.029 9.805-6.367.676-2.142 1.014-4.734 1.014-12.792 0-8.057-.338-10.65-1.014-12.79-1.409-4.34-4.508-6.368-9.805-6.368h-9.692c-.338 0-.563.225-.563.563v15.44c0 .225-.113.338-.338.338h-1.522c-.338 0-.563.225-.563.564v4.17c0 .337.225.563.563.563h1.522c.225 0 .338.113.338.338v15.778c0 .338.225.563.563.563zm-.732-6.65h-1.803c-.226 0-.338-.112-.338-.337v-9.354c0-.225.112-.338.338-.338h2.48c.337 0 .563-.226.563-.564v-4.113c0-.338-.226-.564-.564-.564h-2.48c-.225 0-.337-.112-.337-.338V22.2c0-.225.112-.338.338-.338h1.803c1.86 0 2.874.676 3.437 2.367.395 1.183.62 2.817.62 10.142 0 7.326-.225 8.96-.62 10.143-.563 1.69-1.578 2.367-3.437 2.367zm33.978 6.65c.338 0 .564-.225.564-.563V39.668c0-.225.112-.338.338-.338h1.86c6.817 0 11.269-3.38 11.269-12.058 0-8.734-4.283-12.059-11.27-12.059h-9.016c-.338 0-.563.225-.563.563v37.19c0 .339.225.564.563.564zm2.536-20.68h-1.634c-.226 0-.338-.113-.338-.338v-10.48c0-.226.112-.339.338-.339h1.634c2.874 0 4.113 1.24 4.113 5.579 0 4.338-1.24 5.578-4.113 5.578zm10.537 20.117c-.056.338.113.563.45.563h6.255c.395 0 .564-.225.62-.563l1.296-6.931h7.27l1.239 6.93c.056.339.225.564.62.564h6.254c.339 0 .508-.225.451-.563l-8.227-37.19c-.056-.339-.281-.564-.62-.564h-6.649c-.338 0-.507.225-.62.563zm9.692-12.792l2.536-13.298h.169l2.423 13.298zm17.862 12.792c0 .338.226.563.564.563h6.255c.338 0 .563-.225.563-.563V42.598l2.254-4.733 5.635 15.27c.056.282.225.395.563.395h6.706c.282 0 .45-.282.338-.563l-8.621-22.315 7.663-14.876c.169-.281 0-.563-.282-.563h-6.536c-.338 0-.564.113-.733.45l-6.987 14.82V15.776c0-.338-.225-.563-.563-.563H333.9c-.338 0-.564.225-.564.563zm26.259 0c0 .338.225.563.563.563h6.255c.338 0 .564-.225.564-.563V42.598l2.253-4.733 5.635 15.27c.057.282.226.395.564.395h6.705c.282 0 .451-.282.338-.563l-8.621-22.315 7.663-14.876c.17-.281 0-.563-.281-.563h-6.537c-.338 0-.563.113-.732.45l-6.987 14.82V15.776c0-.338-.226-.563-.564-.563h-6.255c-.338 0-.563.225-.563.563zm24.173 0c-.056.338.113.563.451.563h6.255c.394 0 .563-.225.62-.563l1.296-6.931h7.269l1.24 6.93c.056.339.225.564.62.564h6.254c.338 0 .507-.225.45-.563l-8.226-37.19c-.057-.339-.282-.564-.62-.564h-6.65c-.337 0-.506.225-.619.563zm9.692-12.792l2.536-13.298h.17l2.422 13.298z" fill="#fff"/></svg>