<svg width="168" height="62" viewBox="0 0 168 62" xmlns="http://www.w3.org/2000/svg"><path d="M26.18 37.72c0 .168.112.28.28.28h4.508c3.724 0 5.628-1.4 5.628-5.6 0-2.548-1.008-3.892-2.408-4.312v-.056c1.4-.616 2.184-1.792 2.184-4.116 0-3.332-1.568-4.956-5.096-4.956H26.46c-.168 0-.28.112-.28.28zm3.836-10.948c-.112 0-.168-.056-.168-.168v-4.368c0-.112.056-.168.168-.168h.812c1.428 0 1.876.504 1.876 2.352 0 1.876-.448 2.352-1.876 2.352zm-.168 7.952v-4.872c0-.112.056-.168.168-.168h.812c1.54 0 2.072.588 2.072 2.576 0 2.016-.532 2.632-2.072 2.632h-.812c-.112 0-.168-.056-.168-.168zM44.464 16.86c.224 0 .364-.084.56-.28l2.912-3.192c.112-.14.028-.28-.14-.28h-2.8c-.224 0-.308.084-.448.28l-2.296 3.192c-.112.14-.028.28.14.28zm-.84 21.392c2.492 0 4.172-1.12 4.872-3.22.308-.868.392-1.652.392-6.552 0-4.9-.084-5.684-.392-6.552-.7-2.1-2.38-3.22-4.872-3.22s-4.172 1.12-4.872 3.22c-.308.868-.392 1.652-.392 6.552 0 4.9.084 5.684.392 6.552.7 2.1 2.38 3.22 4.872 3.22zm0-3.304c-.7 0-1.176-.392-1.344-.924-.14-.448-.196-.924-.196-5.544 0-4.62.056-5.096.196-5.544.168-.532.644-.924 1.344-.924.7 0 1.176.392 1.344.924.14.448.196.924.196 5.544 0 4.62-.056 5.096-.196 5.544-.168.532-.644.924-1.344.924zm7.56 2.772c0 .168.112.28.28.28h3.108c.168 0 .28-.112.28-.28v-5.152l1.12-2.352 2.8 7.588c.028.14.112.196.28.196h3.332c.14 0 .224-.14.168-.28l-4.284-11.088 3.808-7.392c.084-.14 0-.28-.14-.28h-3.248c-.168 0-.28.056-.364.224l-3.472 7.364V19.24c0-.168-.112-.28-.28-.28h-3.108c-.168 0-.28.112-.28.28zm12.012 0c-.028.168.056.28.224.28h3.108c.196 0 .28-.112.308-.28l.644-3.444h3.612l.616 3.444c.028.168.112.28.308.28h3.108c.168 0 .252-.112.224-.28L71.26 19.24c-.028-.168-.14-.28-.308-.28h-3.304c-.168 0-.252.112-.308.28zm4.816-6.356l1.26-6.608h.084l1.204 6.608zM81.984 38c2.632 0 4.172-1.008 4.872-3.164.336-1.064.504-2.352.504-6.356s-.168-5.292-.504-6.356c-.7-2.156-2.24-3.164-4.872-3.164h-4.816c-.168 0-.28.112-.28.28v7.672c0 .112-.056.168-.168.168h-.756c-.168 0-.28.112-.28.28v2.072c0 .168.112.28.28.28h.756c.112 0 .168.056.168.168v7.84c0 .168.112.28.28.28zm-.364-3.304h-.896c-.112 0-.168-.056-.168-.168V29.88c0-.112.056-.168.168-.168h1.232c.168 0 .28-.112.28-.28v-2.044c0-.168-.112-.28-.28-.28h-1.232c-.112 0-.168-.056-.168-.168v-4.508c0-.112.056-.168.168-.168h.896c.924 0 1.428.336 1.708 1.176.196.588.308 1.4.308 5.04s-.112 4.452-.308 5.04c-.28.84-.784 1.176-1.708 1.176zm13.104 3.556c3.192 0 5.152-1.82 5.152-5.404V19.24c0-.168-.112-.28-.28-.28h-3.108c-.168 0-.28.112-.28.28v14.056c0 1.008-.532 1.652-1.484 1.652-.924 0-1.456-.644-1.456-1.652V19.24c0-.168-.112-.28-.28-.28H89.88c-.168 0-.28.112-.28.28v13.608c0 3.584 1.96 5.404 5.124 5.404zm13.132-.532c0 .168.112.28.28.28h3.108c.168 0 .28-.112.28-.28v-7.616c0-.112.056-.168.168-.168h2.66c.112 0 .168.056.168.168v7.616c0 .168.112.28.28.28h3.108c.168 0 .28-.112.28-.28V19.24c0-.168-.112-.28-.28-.28H114.8c-.168 0-.28.112-.28.28v7.224c0 .112-.056.168-.168.168h-2.66c-.112 0-.168-.056-.168-.168V19.24c0-.168-.112-.28-.28-.28h-3.108c-.168 0-.28.112-.28.28zM126 16.86c.224 0 .364-.084.56-.28l2.912-3.192c.112-.14.028-.28-.14-.28h-2.8c-.224 0-.308.084-.448.28l-2.296 3.192c-.112.14-.028.28.14.28zm-5.236 20.86c0 .168.112.28.28.28h8.316c.168 0 .28-.112.28-.28v-2.744c0-.168-.112-.28-.28-.28h-4.76c-.112 0-.168-.056-.168-.168v-4.312c0-.112.056-.168.168-.168h4.116c.168 0 .28-.112.28-.28v-2.744c0-.168-.112-.28-.28-.28H124.6c-.112 0-.168-.056-.168-.168v-4.144c0-.112.056-.168.168-.168h4.76c.168 0 .28-.112.28-.28V19.24c0-.168-.112-.28-.28-.28h-8.316c-.168 0-.28.112-.28.28zm21.644.28c.14 0 .196-.14.14-.28l-2.604-8.064c1.316-.896 2.128-2.464 2.128-4.872 0-4.228-2.184-5.824-5.572-5.824h-4.536c-.168 0-.28.112-.28.28v18.48c0 .168.112.28.28.28h3.108c.168 0 .28-.112.28-.28v-7c0-.112.056-.168.168-.168h1.064l2.156 7.224c.056.168.14.224.308.224zm-6.076-10.612h-.812c-.112 0-.168-.056-.168-.168v-4.872c0-.112.056-.168.168-.168h.812c1.428 0 2.044.616 2.044 2.604 0 2.016-.616 2.604-2.044 2.604z" fill="#fff"/></svg>