<svg width="292.806" height="56" viewBox="0 0 292.806 56" xmlns="http://www.w3.org/2000/svg"><path d="M8.072 37.59c.237 0 .356-.158.396-.396l5.341-26.115c.04-.237-.04-.396-.316-.396h-1.306c-.237 0-.356.159-.396.396L7.558 32.763h-.12L3.166 11.079c-.04-.237-.197-.396-.435-.396H1.424c-.277 0-.356.159-.316.396L6.45 37.194c.04.238.158.396.395.396zm9.536-.396c0 .238.158.396.396.396h9.14c.237 0 .396-.158.396-.396v-1.147c0-.238-.159-.396-.396-.396h-7.241c-.158 0-.237-.079-.237-.237V25.166c0-.159.079-.238.237-.238h6.33c.238 0 .397-.158.397-.396v-1.147c0-.237-.159-.396-.396-.396h-6.331c-.158 0-.237-.079-.237-.237V12.86c0-.159.079-.238.237-.238h7.241c.237 0 .396-.158.396-.395v-1.148c0-.237-.159-.396-.396-.396h-9.14c-.238 0-.396.159-.396.396zm25.086.396c.198 0 .277-.158.198-.396l-3.64-12.266c2.137-.95 3.324-3.047 3.324-6.806 0-5.46-2.137-7.439-6.846-7.439h-3.838c-.237 0-.396.159-.396.396v26.115c0 .238.159.396.396.396h1.266c.238 0 .396-.158.396-.396V25.8c0-.159.08-.238.237-.238h1.86c.594 0 1.148-.04 1.662-.119l3.482 11.871c.08.198.198.277.435.277zM35.89 23.662H33.79c-.158 0-.237-.08-.237-.238V12.86c0-.159.08-.238.237-.238h2.098c3.284 0 4.63 1.346 4.63 5.5 0 4.313-1.425 5.54-4.63 5.54zM52.705 37.59c3.245 0 5.025-1.424 5.856-3.996.475-1.464.633-3.245.633-9.457 0-6.252-.158-7.993-.633-9.457-.83-2.572-2.611-3.997-5.856-3.997h-4.827c-.238 0-.396.159-.396.396v11.752c0 .158-.079.237-.237.237h-1.346c-.237 0-.395.159-.395.396v.95c0 .237.158.395.395.395h1.346c.158 0 .237.08.237.238v12.147c0 .238.158.396.396.396zm-.237-1.939h-2.69c-.16 0-.238-.079-.238-.237V25.047c0-.158.079-.238.237-.238h2.968c.237 0 .395-.158.395-.395v-.95c0-.237-.158-.396-.395-.396h-2.968c-.158 0-.237-.079-.237-.237V12.86c0-.159.079-.238.237-.238h2.69c2.256 0 3.483.87 4.116 2.73.396 1.227.554 2.85.554 8.785 0 5.935-.158 7.557-.554 8.784-.633 1.86-1.86 2.73-4.115 2.73zm18.993 1.543c0 .238.158.396.395.396h1.266c.238 0 .396-.158.396-.396v-11.87c0-.158.08-.238.238-.238h6.33c.238 0 .396-.158.396-.395v-1.148c0-.237-.158-.395-.395-.395h-6.331c-.159 0-.238-.08-.238-.238V12.86c0-.159.08-.238.238-.238h7.24c.238 0 .396-.158.396-.395v-1.148c0-.237-.158-.396-.395-.396h-9.14c-.238 0-.396.159-.396.396zm24.967.396c.198 0 .277-.158.198-.396l-3.64-12.266c2.137-.95 3.324-3.047 3.324-6.806 0-5.46-2.137-7.439-6.846-7.439h-3.838c-.237 0-.396.159-.396.396v26.115c0 .238.159.396.396.396h1.266c.238 0 .396-.158.396-.396V25.8c0-.159.08-.238.237-.238h1.86c.594 0 1.148-.04 1.662-.119l3.482 11.871c.08.198.198.277.435.277zm-6.805-13.928h-2.098c-.158 0-.237-.08-.237-.238V12.86c0-.159.08-.238.237-.238h2.098c3.284 0 4.629 1.346 4.629 5.5 0 4.313-1.424 5.54-4.63 5.54zm9.892 13.532c-.04.238.158.396.395.396h1.267c.237 0 .356-.158.395-.396l1.346-6.45h6.568l1.345 6.45c.04.238.158.396.435.396h1.267c.237 0 .395-.158.356-.396l-5.54-26.115c-.04-.237-.198-.396-.435-.396h-1.306c-.237 0-.356.159-.435.396zm3.798-8.31l2.889-13.73h.079l2.81 13.73zm3.403-21.564c.277 0 .396-.079.673-.396l3.442-4.075c.158-.198.08-.396-.158-.396h-1.306c-.356 0-.475.119-.672.396l-2.968 4.075c-.158.198-.08.396.158.396zm10.209 14.76h1.78c.238 0 .396-.16.396-.397v-2.571c0-.238-.158-.396-.396-.396h-1.78c-.238 0-.396.158-.396.396v2.571c0 .238.158.396.396.396zm-.396 15.114c0 .238.158.396.396.396h1.78c.238 0 .396-.158.396-.396v-2.572c0-.237-.158-.395-.396-.395h-1.78c-.238 0-.396.158-.396.395z" fill="#fff"/></svg>