<svg width="489.125" height="79" viewBox="0 0 489.125 79" xmlns="http://www.w3.org/2000/svg"><path d="M162.992 52.788c-.056.337.113.562.45.562h6.233c.393 0 .562-.225.618-.562l1.291-6.907h7.245l1.235 6.907c.057.337.225.562.618.562h6.234c.337 0 .505-.225.449-.562l-8.2-37.064c-.055-.337-.28-.562-.617-.562h-6.627c-.337 0-.505.225-.617.562zm9.66-12.748l2.527-13.253h.168l2.415 13.253zm17.802 12.748c0 .337.224.562.561.562h16.792c.337 0 .561-.225.561-.562v-5.503c0-.337-.224-.562-.561-.562h-9.66c-.224 0-.336-.112-.336-.337V15.724c0-.337-.225-.562-.562-.562h-6.234c-.337 0-.561.225-.561.562zm21.62 0c0 .337.225.562.562.562h5.448c.337 0 .561-.225.561-.562v-22.07h.337l4.156 15.275c.112.337.337.562.73.562h3.089c.393 0 .618-.225.73-.562l4.156-15.275h.337v22.07c0 .337.224.562.561.562h5.448c.336 0 .561-.225.561-.562V15.724c0-.337-.225-.562-.561-.562h-6.01c-.505 0-.786.169-.898.562l-5.616 20.048h-.224L219.6 15.724c-.112-.393-.393-.562-.899-.562h-6.065c-.337 0-.561.225-.561.562zm31.843 0c0 .337.224.562.561.562h16.68c.336 0 .56-.225.56-.562v-5.503c0-.337-.224-.562-.56-.562h-9.548c-.224 0-.337-.112-.337-.337v-8.648c0-.225.113-.337.337-.337h8.256c.337 0 .561-.225.561-.562v-5.503c0-.337-.224-.562-.561-.562h-8.256c-.224 0-.337-.112-.337-.337v-8.311c0-.225.113-.337.337-.337h9.547c.337 0 .562-.225.562-.562v-5.503c0-.337-.225-.562-.562-.562h-16.679c-.337 0-.561.225-.561.562zm43.41.562c.281 0 .393-.28.281-.562l-5.223-16.173c2.64-1.797 4.268-4.942 4.268-9.772 0-8.48-4.38-11.68-11.175-11.68h-9.098c-.337 0-.561.224-.561.56v37.065c0 .337.224.562.561.562h6.234c.337 0 .561-.225.561-.562v-14.04c0-.224.113-.336.337-.336h2.134L279.97 52.9c.113.337.281.449.618.449zm-12.186-21.284h-1.629c-.224 0-.337-.112-.337-.337v-9.772c0-.224.113-.337.337-.337h1.629c2.864 0 4.1 1.236 4.1 5.223 0 4.044-1.236 5.223-4.1 5.223zm16.173 20.722c0 .337.225.562.562.562h6.234c.337 0 .561-.225.561-.562V15.724c0-.337-.224-.562-.561-.562h-6.234c-.337 0-.562.225-.562.562zm5.392-41.838c.449 0 .73-.168 1.123-.561l5.84-6.402c.225-.281.057-.562-.28-.562h-5.616c-.45 0-.618.169-.899.562l-4.605 6.402c-.224.28-.056.561.281.561zm5.054 41.838c-.056.337.112.562.45.562h6.233c.393 0 .561-.225.618-.562l1.291-6.907h7.245l1.235 6.907c.056.337.225.562.618.562h6.234c.336 0 .505-.225.449-.562l-8.2-37.064c-.056-.337-.28-.562-.617-.562h-6.627c-.337 0-.505.225-.618.562zm9.66-12.748l2.526-13.253h.169l2.415 13.253z" fill="#fff"/></svg>