<svg width="449.132" height="38" viewBox="0 0 449.132 38" xmlns="http://www.w3.org/2000/svg"><path d="M69.824 25.36c-.027.162.108.27.27.27h.863c.162 0 .243-.108.27-.27l.917-4.397h4.478l.917 4.397c.027.162.108.27.297.27h.863c.162 0 .27-.108.243-.27L75.165 7.557c-.027-.162-.134-.27-.296-.27h-.89c-.162 0-.243.108-.297.27zm2.59-5.664l1.97-9.36h.053l1.915 9.36zm2.32-14.702c.189 0 .27-.054.458-.27l2.347-2.778c.108-.135.054-.27-.108-.27h-.89c-.243 0-.324.081-.458.27L74.06 4.724c-.108.135-.054.27.107.27zm11.68 20.366c0 .162.108.27.27.27h.782c.162 0 .27-.108.27-.27V11.28h.08l3.238 10.816c.054.19.135.27.296.27h.54c.162 0 .243-.08.297-.27l3.237-10.817h.08V25.36c0 .162.108.27.27.27h.783c.161 0 .27-.108.27-.27V7.557c0-.162-.109-.27-.27-.27h-.918c-.161 0-.296.081-.35.27l-3.615 12.3h-.054l-3.668-12.3c-.054-.189-.162-.27-.351-.27h-.917c-.162 0-.27.108-.27.27zm12.921 0c-.027.162.108.27.27.27h.863c.162 0 .243-.108.27-.27l.917-4.397h4.478l.917 4.397c.027.162.108.27.296.27h.864c.162 0 .27-.108.242-.27l-3.776-17.803c-.027-.162-.135-.27-.297-.27h-.89c-.162 0-.243.108-.297.27zm2.59-5.664l1.969-9.36h.054l1.915 9.36zm9.036 5.664c0 .162.108.27.27.27h.755c.162 0 .27-.108.27-.27V10.335h.08l5.126 15.025c.081.216.189.27.432.27h1.025c.162 0 .27-.108.27-.27V7.557c0-.162-.108-.27-.27-.27h-.756c-.161 0-.27.108-.27.27v15.025h-.08L112.74 7.557c-.08-.216-.188-.27-.431-.27h-1.08c-.161 0-.269.108-.269.27zm11.896 0c0 .162.108.27.27.27h.755c.162 0 .27-.108.27-.27V10.335h.08l5.126 15.025c.08.216.189.27.432.27h1.025c.161 0 .27-.108.27-.27V7.557c0-.162-.109-.27-.27-.27h-.756c-.162 0-.27.108-.27.27v15.025h-.08l-5.072-15.025c-.08-.216-.188-.27-.431-.27h-1.08c-.161 0-.269.108-.269.27zm16.86 0c0 .162.107.27.27.27h.781c.162 0 .27-.108.27-.27V11.28h.081l3.237 10.816c.054.19.135.27.297.27h.54c.161 0 .242-.08.296-.27l3.237-10.817h.08V25.36c0 .162.109.27.27.27h.783c.162 0 .27-.108.27-.27V7.557c0-.162-.108-.27-.27-.27h-.917c-.162 0-.297.081-.35.27l-3.616 12.3h-.054l-3.668-12.3c-.054-.189-.162-.27-.35-.27h-.918c-.162 0-.27.108-.27.27zm13.676 0c0 .162.107.27.27.27h1.213c.162 0 .27-.108.27-.27v-1.753c0-.162-.108-.27-.27-.27h-1.214c-.162 0-.27.108-.27.27zm8.685.27c.162 0 .243-.108.27-.27l3.642-17.803c.027-.162-.027-.27-.216-.27h-.89c-.162 0-.243.108-.27.27l-2.886 14.782h-.081l-2.913-14.782c-.027-.162-.135-.27-.297-.27h-.89c-.19 0-.243.108-.216.27l3.642 17.803c.027.162.107.27.27.27zm3.912-.27c0 .162.108.27.27.27h1.213c.162 0 .27-.108.27-.27v-1.753c0-.162-.108-.27-.27-.27h-1.213c-.162 0-.27.108-.27.27zm9.225 0c0 .162.108.27.27.27h6.393c.162 0 .27-.108.27-.27v-.728c0-.162-.108-.27-.27-.27h-5.18v-.027l4.398-8.632c.674-1.348 1.052-2.427 1.052-4.235 0-1.187-.054-1.672-.216-2.185-.459-1.43-1.565-2.212-3.237-2.212-1.672 0-2.778.81-3.237 2.212-.162.513-.243.998-.243 2.374 0 .189.081.297.27.324l.755.08c.19.028.297-.08.297-.27 0-1.402.054-1.752.162-2.103.297-.863.971-1.349 1.969-1.349 1.025 0 1.7.486 1.97 1.349.134.35.188.701.188 1.78 0 1.51-.324 2.455-.89 3.588l-4.613 9.171a.735.735 0 00-.108.432zm15.295 0c0 .162.108.27.27.27h.863c.162 0 .27-.108.27-.27v-8.092c0-.108.054-.162.162-.162h4.316c.161 0 .27-.108.27-.27v-.782c0-.162-.109-.27-.27-.27h-4.316c-.108 0-.162-.054-.162-.162V8.771c0-.108.054-.162.162-.162h4.936c.162 0 .27-.108.27-.27v-.782c0-.162-.108-.27-.27-.27h-6.231c-.162 0-.27.108-.27.27zm13.326.486c2.373 0 3.965-1.484 3.965-4.532V7.557c0-.162-.108-.27-.27-.27h-.836c-.162 0-.27.108-.27.27v13.865c0 2.13-1.052 3.102-2.59 3.102-1.537 0-2.562-.971-2.562-3.102V7.557c0-.162-.108-.27-.27-.27h-.863c-.162 0-.27.108-.27.27v13.757c0 3.048 1.592 4.532 3.966 4.532zm7.607-.486c0 .162.107.27.27.27h6.203c.162 0 .27-.108.27-.27v-.782c0-.162-.108-.27-.27-.27h-4.909c-.108 0-.162-.054-.162-.162V7.556c0-.161-.108-.269-.27-.269h-.863c-.162 0-.27.108-.27.27zm9.279 0c0 .162.108.27.27.27h6.204c.162 0 .27-.108.27-.27v-.782c0-.162-.108-.27-.27-.27h-4.91c-.107 0-.161-.054-.161-.162V7.556c0-.161-.108-.269-.27-.269h-.863c-.162 0-.27.108-.27.27zm12.381.486c1.889 0 3.156-.863 3.696-2.509.27-.81.35-1.51.35-6.878s-.08-6.07-.35-6.879c-.54-1.646-1.807-2.509-3.696-2.509-1.888 0-3.156.863-3.695 2.509-.27.81-.35 1.51-.35 6.879 0 5.368.08 6.069.35 6.878.54 1.646 1.807 2.509 3.695 2.509zm0-1.322c-1.16 0-1.969-.54-2.346-1.618-.19-.62-.27-1.187-.27-6.447s.08-5.827.27-6.447c.377-1.106 1.186-1.619 2.346-1.619 1.16 0 1.996.513 2.347 1.619.189.62.297 1.186.297 6.447 0 5.26-.108 5.826-.297 6.447-.35 1.079-1.187 1.618-2.347 1.618zm15.052 1.106c.135 0 .19-.108.135-.27l-2.482-8.362c1.457-.647 2.266-2.077 2.266-4.64 0-3.722-1.456-5.07-4.666-5.07h-2.617c-.162 0-.27.107-.27.269V25.36c0 .162.108.27.27.27h.863c.162 0 .27-.108.27-.27v-7.769c0-.107.054-.161.162-.161h1.268c.404 0 .782-.027 1.133-.081l2.374 8.092c.053.135.134.189.296.189zm-4.64-9.495h-1.429c-.108 0-.162-.054-.162-.162V8.771c0-.108.054-.162.162-.162h1.43c2.239 0 3.156.917 3.156 3.75 0 2.94-.971 3.776-3.156 3.776zm11.465 9.495c2.212 0 3.426-.971 3.992-2.724.324-.999.432-2.212.432-6.447 0-4.262-.108-5.45-.432-6.447-.566-1.754-1.78-2.725-3.992-2.725h-3.291c-.162 0-.27.108-.27.27v8.011c0 .108-.054.162-.162.162h-.917c-.162 0-.27.108-.27.27v.647c0 .162.108.27.27.27h.917c.108 0 .162.054.162.162v8.281c0 .162.108.27.27.27zm-.162-1.322h-1.834c-.108 0-.162-.054-.162-.162V17.08c0-.108.054-.162.162-.162h2.023c.162 0 .27-.108.27-.27V16c0-.162-.108-.27-.27-.27h-2.023c-.108 0-.162-.054-.162-.162V8.771c0-.108.054-.162.162-.162h1.834c1.538 0 2.374.593 2.805 1.861.27.836.378 1.942.378 5.989 0 4.046-.108 5.152-.378 5.988-.431 1.268-1.267 1.861-2.805 1.861zm7.985 1.052c0 .162.108.27.27.27h.755c.162 0 .27-.108.27-.27V10.335h.08l5.126 15.025c.08.216.188.27.431.27h1.025c.162 0 .27-.108.27-.27V7.557c0-.162-.108-.27-.27-.27h-.755c-.162 0-.27.108-.27.27v15.025h-.08l-5.072-15.025c-.08-.216-.189-.27-.432-.27h-1.079c-.161 0-.27.108-.27.27zm10.736 0c-.027.162.108.27.27.27h.863c.161 0 .242-.108.27-.27l.916-4.397h4.478l.917 4.397c.027.162.108.27.297.27h.863c.162 0 .27-.108.243-.27L278.88 7.557c-.027-.162-.135-.27-.297-.27h-.89c-.162 0-.243.108-.297.27zm2.59-5.664l1.968-9.36h.054l1.916 9.36zm17.749 6.15c1.888 0 3.156-.863 3.695-2.509.27-.81.35-1.51.35-6.878s-.08-6.07-.35-6.879c-.54-1.646-1.807-2.509-3.695-2.509-1.889 0-3.156.863-3.696 2.509-.27.81-.35 1.51-.35 6.879 0 5.368.08 6.069.35 6.878.54 1.646 1.807 2.509 3.696 2.509zm0-1.322c-1.16 0-1.97-.54-2.347-1.618-.189-.62-.27-1.187-.27-6.447s.081-5.827.27-6.447c.378-1.106 1.187-1.619 2.347-1.619s1.996.513 2.347 1.619c.188.62.296 1.186.296 6.447 0 5.26-.108 5.826-.296 6.447-.351 1.079-1.187 1.618-2.347 1.618zm7.472-1.187c.54 1.646 1.807 2.509 3.695 2.509 1.889 0 3.156-.863 3.696-2.509.27-.81.35-1.51.35-6.258v-.728c0-.162-.107-.27-.27-.27h-3.452c-.162 0-.27.108-.27.27v.755c0 .162.108.27.27.27h2.185c.108 0 .162.054.162.162 0 4.18-.081 4.747-.27 5.368-.378 1.079-1.214 1.618-2.374 1.618-1.16 0-1.996-.54-2.374-1.618-.188-.62-.27-1.187-.27-6.447s.082-5.827.27-6.447c.378-1.106 1.187-1.619 2.347-1.619 1.619 0 2.401.998 2.644 2.617.027.161.135.242.324.188l.782-.161c.162-.054.216-.162.189-.351-.297-2.212-1.565-3.615-3.939-3.615-1.888 0-3.156.863-3.695 2.509-.27.81-.35 1.51-.35 6.879 0 5.368.08 6.069.35 6.878zm15.672 2.023c0 .162.108.27.27.27h6.393c.162 0 .27-.108.27-.27v-.728c0-.162-.108-.27-.27-.27h-5.18v-.027l4.398-8.632c.674-1.348 1.052-2.427 1.052-4.235 0-1.187-.054-1.672-.216-2.185-.459-1.43-1.565-2.212-3.237-2.212-1.673 0-2.779.81-3.237 2.212-.162.513-.243.998-.243 2.374 0 .189.081.297.27.324l.755.08c.189.028.297-.08.297-.27 0-1.402.054-1.752.162-2.103.296-.863.97-1.349 1.969-1.349 1.025 0 1.7.486 1.97 1.349.134.35.188.701.188 1.78 0 1.51-.324 2.455-.89 3.588l-4.613 9.171a.735.735 0 00-.108.432zm15.295 0c0 .162.108.27.27.27h2.751c3.237 0 4.613-1.322 4.613-5.071 0-2.887-.944-3.993-2.32-4.478v-.054c1.403-.54 2.131-1.7 2.131-4.073 0-3.453-1.214-4.667-4.316-4.667h-2.86c-.161 0-.27.108-.27.27zm1.564-9.846c-.107 0-.161-.054-.161-.161V8.77c0-.108.054-.162.161-.162h1.538c2.158 0 2.94.755 2.94 3.48 0 2.59-.944 3.425-2.86 3.425zm-.161 8.632v-7.202c0-.108.054-.162.161-.162h1.646c2.023 0 3.021.89 3.021 3.75 0 2.967-.917 3.776-3.183 3.776h-1.484c-.107 0-.161-.054-.161-.162zm15.24-19.745c.162 0 .27-.108.27-.27V2.674c0-.161-.108-.27-.27-.27h-.917c-.162 0-.27.109-.27.27v1.457c0 .162.108.27.27.27zm-3.722 0c.162 0 .27-.108.27-.27V2.674c0-.161-.108-.27-.27-.27h-.917c-.162 0-.27.109-.27.27v1.457c0 .162.108.27.27.27zm1.403 21.445c1.888 0 3.156-.863 3.695-2.509.27-.81.35-1.51.35-6.878s-.08-6.07-.35-6.879c-.54-1.646-1.807-2.509-3.695-2.509-1.889 0-3.157.863-3.696 2.509-.27.81-.35 1.51-.35 6.879 0 5.368.08 6.069.35 6.878.54 1.646 1.807 2.509 3.696 2.509zm0-1.322c-1.16 0-1.97-.54-2.347-1.618-.19-.62-.27-1.187-.27-6.447s.08-5.827.27-6.447c.377-1.106 1.187-1.619 2.347-1.619s1.996.513 2.346 1.619c.19.62.297 1.186.297 6.447 0 5.26-.108 5.826-.297 6.447-.35 1.079-1.187 1.618-2.346 1.618zm15.052 1.106c.134 0 .188-.108.134-.27l-2.481-8.362c1.456-.647 2.266-2.077 2.266-4.64 0-3.722-1.457-5.07-4.667-5.07h-2.617c-.161 0-.27.107-.27.269V25.36c0 .162.109.27.27.27h.864c.161 0 .27-.108.27-.27v-7.769c0-.107.053-.161.161-.161h1.268c.405 0 .782-.027 1.133-.081l2.374 8.092c.054.135.135.189.296.189zm-4.64-9.495h-1.43c-.108 0-.162-.054-.162-.162V8.771c0-.108.054-.162.162-.162h1.43c2.239 0 3.156.917 3.156 3.75 0 2.94-.971 3.776-3.156 3.776zm7.903 9.225c0 .162.108.27.27.27h.756c.161 0 .27-.108.27-.27V10.335h.08l5.125 15.025c.081.216.19.27.432.27h1.025c.162 0 .27-.108.27-.27V7.557c0-.162-.108-.27-.27-.27h-.755c-.162 0-.27.108-.27.27v15.025h-.08l-5.072-15.025c-.081-.216-.189-.27-.432-.27h-1.079c-.162 0-.27.108-.27.27z" fill="#fff"/></svg>