<svg width="489.125" height="68" viewBox="0 0 489.125 68" xmlns="http://www.w3.org/2000/svg"><path d="M147.65 36.164c0-5.56-1.74-7.977-6.236-9.718l-1.982-.773c-2.563-1.016-3.095-1.79-3.095-4.255 0-2.224.822-3.288 2.514-3.288 1.74 0 2.563 1.209 2.611 3.578 0 .29.242.435.532.387l4.931-.774c.29-.048.435-.241.435-.532-.241-5.173-2.949-8.17-8.702-8.17-5.85 0-8.703 3.19-8.703 9.137 0 5.27 1.596 7.736 6.237 9.525l1.982.773c2.466.967 3.046 1.983 3.046 4.883 0 2.998-.822 3.917-2.61 3.917-1.886 0-2.756-1.21-2.853-4.255 0-.29-.193-.435-.532-.387l-5.173.822c-.29.048-.387.242-.387.532.097 5.657 2.95 8.8 8.896 8.8 6.527 0 9.09-3.482 9.09-10.202zm12.184 10.201c5.512 0 8.896-3.142 8.896-9.33V13.536c0-.29-.193-.483-.484-.483h-5.366c-.29 0-.484.193-.484.483v24.27c0 1.741-.918 2.853-2.562 2.853-1.595 0-2.514-1.112-2.514-2.852v-24.27c0-.29-.193-.484-.483-.484h-5.367c-.29 0-.483.193-.483.483v23.497c0 6.189 3.384 9.331 8.847 9.331zm13.247-.918c0 .29.194.483.484.483h4.69c.29 0 .483-.193.483-.483v-19h.29l3.578 13.15c.096.29.29.483.628.483h2.66c.338 0 .531-.193.628-.483l3.577-13.15h.29v19c0 .29.194.483.484.483h4.69c.29 0 .483-.193.483-.483v-31.91c0-.29-.193-.483-.483-.483h-5.174c-.435 0-.676.145-.773.483l-4.835 17.26h-.193l-5.028-17.26c-.097-.338-.339-.483-.774-.483h-5.221c-.29 0-.484.193-.484.483zm25.624 0c-.048.29.097.483.387.483h5.367c.338 0 .483-.193.531-.483l1.112-5.947h6.237l1.064 5.947c.048.29.193.483.532.483h5.366c.29 0 .435-.193.387-.483l-7.059-31.91c-.048-.29-.242-.483-.532-.483h-5.705c-.29 0-.435.193-.531.483zm8.316-10.975l2.176-11.41h.145l2.078 11.41zm33.843 11.458c.242 0 .338-.242.242-.483l-4.497-13.924c2.273-1.548 3.675-4.255 3.675-8.413 0-7.3-3.771-10.056-9.621-10.056h-7.833c-.29 0-.483.193-.483.483v31.91c0 .29.193.483.483.483h5.367c.29 0 .483-.193.483-.483V33.36c0-.194.097-.29.29-.29h1.838l3.722 12.473c.097.29.242.387.532.387zm-10.491-18.324h-1.402c-.194 0-.29-.096-.29-.29v-8.412c0-.193.096-.29.29-.29h1.402c2.465 0 3.529 1.063 3.529 4.496 0 3.481-1.064 4.496-3.53 4.496zm30.942 8.558c0-5.56-1.74-7.977-6.237-9.718l-1.982-.773c-2.563-1.016-3.094-1.79-3.094-4.255 0-2.224.821-3.288 2.514-3.288 1.74 0 2.562 1.209 2.61 3.578 0 .29.242.435.532.387l4.932-.774c.29-.048.435-.241.435-.532-.242-5.173-2.95-8.17-8.703-8.17-5.85 0-8.702 3.19-8.702 9.137 0 5.27 1.595 7.736 6.237 9.525l1.982.773c2.465.967 3.046 1.983 3.046 4.883 0 2.998-.822 3.917-2.611 3.917-1.886 0-2.756-1.21-2.853-4.255 0-.29-.193-.435-.531-.387l-5.174.822c-.29.048-.386.242-.386.532.096 5.657 2.949 8.8 8.896 8.8 6.526 0 9.089-3.482 9.089-10.202zm13.489-26.736c.386 0 .628-.145.967-.484l5.028-5.511c.193-.242.048-.484-.242-.484h-4.835c-.387 0-.532.145-.773.484l-3.965 5.511c-.193.242-.048.484.242.484zm-1.45 36.937c4.302 0 7.203-1.934 8.412-5.56.531-1.499.677-2.852.677-11.313 0-8.46-.146-9.815-.677-11.313-1.209-3.626-4.11-5.56-8.413-5.56s-7.203 1.934-8.412 5.56c-.532 1.498-.677 2.852-.677 11.313 0 8.46.145 9.814.677 11.313 1.209 3.626 4.11 5.56 8.412 5.56zm0-5.705c-1.21 0-2.031-.677-2.321-1.595-.242-.774-.339-1.596-.339-9.573s.097-8.8.339-9.573c.29-.918 1.112-1.595 2.32-1.595 1.209 0 2.03.677 2.32 1.595.243.774.34 1.596.34 9.573s-.097 8.8-.34 9.573c-.29.918-1.111 1.595-2.32 1.595zm13.053 4.787c0 .29.193.483.483.483h14.456c.29 0 .484-.193.484-.483v-4.738c0-.29-.194-.484-.484-.484h-8.315c-.194 0-.29-.097-.29-.29V13.537c0-.29-.194-.483-.484-.483h-5.367c-.29 0-.483.193-.483.483zm37.808.483c.29 0 .483-.193.483-.483V19.049c0-.193.097-.29.29-.29h5.173c.29 0 .484-.194.484-.484v-4.738c0-.29-.194-.483-.484-.483h-17.26c-.29 0-.483.193-.483.483v4.738c0 .29.193.484.483.484h5.173c.194 0 .29.097.29.29v26.398c0 .29.194.483.484.483zm9.33-.483c0 .29.194.483.484.483h5.367c.29 0 .483-.193.483-.483v-31.91c0-.29-.193-.483-.483-.483h-5.367c-.29 0-.483.193-.483.483zm10.782 0c0 .29.193.483.483.483h14.456c.29 0 .484-.193.484-.483v-4.738c0-.29-.194-.484-.484-.484h-8.315c-.194 0-.29-.097-.29-.29V13.537c0-.29-.194-.483-.484-.483h-5.367c-.29 0-.483.193-.483.483z" fill="#fff"/></svg>