<svg width="273" height="40" viewBox="0 0 273 40" xmlns="http://www.w3.org/2000/svg"><path d="M99.289 27.23c.172 0 .287-.115.287-.287V11.291c0-.115.057-.172.172-.172h3.067c.172 0 .287-.115.287-.287v-2.81c0-.172-.115-.286-.287-.286H92.581c-.172 0-.287.114-.287.286v2.81c0 .172.115.287.287.287h3.067c.115 0 .172.057.172.172v15.652c0 .172.115.287.287.287zm5.533-.287c0 .172.115.287.287.287h8.514c.172 0 .287-.115.287-.287v-2.81c0-.171-.115-.286-.287-.286h-4.874c-.114 0-.172-.057-.172-.172V19.26c0-.114.058-.172.172-.172h4.215c.172 0 .286-.114.286-.286v-2.81c0-.172-.114-.287-.286-.287h-4.215c-.114 0-.172-.057-.172-.172v-4.242c0-.115.058-.172.172-.172h4.874c.172 0 .287-.115.287-.287v-2.81c0-.172-.115-.286-.287-.286h-8.514c-.172 0-.287.114-.287.286zm11.18 0c0 .172.115.287.287.287h2.724c.172 0 .286-.115.286-.287v-12.24h.144l3.382 12.24c.058.201.172.287.402.287h3.44c.172 0 .287-.115.287-.287V8.023c0-.173-.115-.287-.287-.287h-2.724c-.172 0-.286.114-.286.286v12.242h-.144l-3.24-12.242c-.056-.2-.171-.286-.4-.286h-3.584c-.172 0-.287.114-.287.286zm13.589 0c0 .172.115.287.287.287h8.514c.172 0 .287-.115.287-.287v-2.81c0-.171-.115-.286-.287-.286h-4.873c-.115 0-.172-.057-.172-.172V19.26c0-.114.057-.172.172-.172h4.214c.172 0 .286-.114.286-.286v-2.81c0-.172-.114-.287-.286-.287h-4.214c-.115 0-.172-.057-.172-.172v-4.242c0-.115.057-.172.172-.172h4.873c.172 0 .287-.115.287-.287v-2.81c0-.172-.115-.286-.287-.286h-8.514c-.172 0-.287.114-.287.286zm22.16.287c.144 0 .201-.143.144-.287l-2.666-8.256c1.347-.917 2.178-2.523 2.178-4.988 0-4.33-2.236-5.963-5.705-5.963h-4.644c-.172 0-.286.114-.286.286v18.921c0 .172.114.287.286.287h3.182c.172 0 .287-.115.287-.287v-7.167c0-.114.057-.172.172-.172h1.09l2.207 7.397c.057.172.143.229.315.229zm-6.22-10.865h-.832c-.115 0-.172-.057-.172-.172v-4.988c0-.115.057-.172.172-.172h.831c1.462 0 2.093.63 2.093 2.666 0 2.064-.63 2.666-2.093 2.666zm8.256 10.578c0 .172.114.287.286.287h3.183c.172 0 .286-.115.286-.287V8.023c0-.173-.114-.287-.286-.287h-3.183c-.172 0-.286.114-.286.286zm6.393 0c0 .172.114.287.286.287h3.183c.172 0 .286-.115.286-.287v-7.482c0-.115.058-.172.172-.172h4.214c.172 0 .287-.115.287-.287v-2.838c0-.172-.115-.287-.287-.287h-4.214c-.114 0-.172-.057-.172-.172v-4.414c0-.115.058-.172.172-.172h4.874c.172 0 .286-.115.286-.287v-2.81c0-.172-.114-.286-.286-.286h-8.515c-.172 0-.286.114-.286.286zm11.066 0c0 .172.114.287.286.287h8.515c.172 0 .286-.115.286-.287v-2.81c0-.171-.114-.286-.286-.286h-4.874c-.115 0-.172-.057-.172-.172V19.26c0-.114.057-.172.172-.172h4.214c.172 0 .287-.114.287-.286v-2.81c0-.172-.115-.287-.287-.287h-4.214c-.115 0-.172-.057-.172-.172v-4.242c0-.115.057-.172.172-.172h4.874c.172 0 .286-.115.286-.287v-2.81c0-.172-.114-.286-.286-.286h-8.515c-.172 0-.286.114-.286.286z" fill="#fff"/></svg>