<svg width="273" height="40" viewBox="0 0 273 40" xmlns="http://www.w3.org/2000/svg"><path d="M66.866 24.249c.688 2.092 2.264 3.239 4.844 3.239 3.125 0 4.96-1.663 5.132-4.93 0-.173-.057-.316-.258-.345l-3.01-.516c-.172-.029-.315.057-.315.258-.058 1.548-.545 2.15-1.491 2.15-.688 0-1.09-.286-1.29-.889-.115-.43-.172-.774-.172-5.733 0-4.96.057-5.304.172-5.734.2-.602.602-.888 1.29-.888.946 0 1.433.602 1.49 2.15 0 .2.144.286.316.258l3.01-.516c.2-.029.258-.172.258-.344-.172-3.268-2.007-4.931-5.132-4.931-2.58 0-4.156 1.147-4.844 3.24-.258.83-.373 1.72-.373 6.765s.115 5.934.373 6.766zm16.856 3.239c2.552 0 4.272-1.147 4.989-3.297.315-.889.4-1.691.4-6.708s-.085-5.82-.4-6.708c-.717-2.15-2.437-3.297-4.989-3.297-2.551 0-4.271 1.147-4.988 3.297-.315.888-.401 1.691-.401 6.708s.086 5.82.401 6.708c.717 2.15 2.437 3.297 4.988 3.297zm0-3.383c-.716 0-1.204-.401-1.376-.946-.143-.459-.2-.946-.2-5.676s.057-5.218.2-5.676c.172-.545.66-.946 1.376-.946.717 0 1.204.401 1.376.946.144.458.201.946.201 5.676s-.057 5.217-.2 5.676c-.173.545-.66.946-1.377.946zm17.832-2.666c0-3.297-1.032-4.73-3.698-5.762l-1.176-.459c-1.52-.602-1.835-1.06-1.835-2.523 0-1.318.488-1.95 1.491-1.95 1.032 0 1.52.718 1.548 2.122 0 .172.144.258.316.23l2.924-.459c.172-.029.258-.143.258-.315-.144-3.068-1.749-4.845-5.16-4.845-3.47 0-5.16 1.892-5.16 5.418 0 3.125.945 4.587 3.697 5.648l1.176.458c1.462.574 1.806 1.176 1.806 2.896 0 1.777-.487 2.322-1.548 2.322-1.118 0-1.634-.717-1.692-2.523 0-.172-.114-.258-.315-.23l-3.067.488c-.172.029-.23.143-.23.315.058 3.355 1.75 5.218 5.275 5.218 3.87 0 5.39-2.064 5.39-6.049zm7.769 5.791c.172 0 .286-.115.286-.287V11.291c0-.115.058-.172.172-.172h3.068c.172 0 .287-.115.287-.287v-2.81c0-.172-.115-.286-.287-.286h-10.235c-.172 0-.286.114-.286.286v2.81c0 .172.114.287.286.287h3.068c.115 0 .172.057.172.172v15.652c0 .172.115.287.287.287zm3.039-.287c-.03.172.057.287.229.287h3.182c.2 0 .287-.115.315-.287l.66-3.526h3.698l.63 3.526c.03.172.115.287.316.287h3.182c.172 0 .258-.115.23-.287l-4.186-18.92c-.029-.173-.143-.287-.315-.287h-3.383c-.172 0-.258.114-.316.286zm4.93-6.507l1.29-6.766h.087l1.232 6.766zm14.678 6.507c0 .172.115.287.287.287h4.931c2.695 0 4.272-1.032 4.988-3.24.344-1.089.516-2.408.516-6.507 0-4.1-.172-5.418-.516-6.508-.716-2.207-2.293-3.24-4.988-3.24h-4.93c-.173 0-.288.115-.288.287zm3.756-3.268V11.291c0-.115.057-.172.172-.172h.917c.946 0 1.462.344 1.75 1.204.228.602.314 1.433.314 5.16 0 3.727-.086 4.558-.315 5.16-.287.86-.803 1.204-1.749 1.204h-.917c-.115 0-.172-.057-.172-.172zm9.317 3.268c0 .172.115.287.287.287h8.514c.172 0 .287-.115.287-.287v-2.81c0-.171-.115-.286-.287-.286h-4.873c-.115 0-.172-.057-.172-.172V19.26c0-.114.057-.172.172-.172h4.214c.172 0 .286-.114.286-.286v-2.81c0-.172-.114-.287-.286-.287h-4.214c-.115 0-.172-.057-.172-.172v-4.242c0-.115.057-.172.172-.172h4.873c.172 0 .287-.115.287-.287v-2.81c0-.172-.115-.286-.287-.286h-8.514c-.172 0-.287.114-.287.286zm11.18 0c0 .172.115.287.287.287h8.572c.172 0 .287-.115.287-.287v-2.81c0-.171-.115-.286-.287-.286h-4.931c-.115 0-.172-.057-.172-.172V8.022c0-.172-.115-.286-.287-.286h-3.182c-.172 0-.286.114-.286.286zm26.72-5.504c0-3.297-1.033-4.73-3.7-5.762l-1.174-.459c-1.52-.602-1.835-1.06-1.835-2.523 0-1.318.487-1.95 1.49-1.95 1.033 0 1.52.718 1.549 2.122 0 .172.143.258.315.23l2.924-.459c.172-.029.258-.143.258-.315-.143-3.068-1.749-4.845-5.16-4.845-3.469 0-5.16 1.892-5.16 5.418 0 3.125.946 4.587 3.698 5.648l1.175.458c1.462.574 1.806 1.176 1.806 2.896 0 1.777-.487 2.322-1.548 2.322-1.118 0-1.634-.717-1.691-2.523 0-.172-.115-.258-.316-.23l-3.067.488c-.172.029-.23.143-.23.315.058 3.355 1.75 5.218 5.275 5.218 3.87 0 5.39-2.064 5.39-6.049zm7.137 6.049c2.552 0 4.272-1.147 4.989-3.297.315-.889.4-1.691.4-6.708s-.085-5.82-.4-6.708c-.717-2.15-2.437-3.297-4.989-3.297-2.551 0-4.271 1.147-4.988 3.297-.315.888-.401 1.691-.401 6.708s.086 5.82.401 6.708c.717 2.15 2.437 3.297 4.988 3.297zm0-3.383c-.716 0-1.204-.401-1.376-.946-.143-.459-.2-.946-.2-5.676s.057-5.218.2-5.676c.172-.545.66-.946 1.376-.946.717 0 1.204.401 1.376.946.144.458.201.946.201 5.676s-.057 5.217-.2 5.676c-.173.545-.66.946-1.377.946zm7.74 2.838c0 .172.115.287.287.287h8.572c.172 0 .287-.115.287-.287v-2.81c0-.171-.115-.286-.287-.286h-4.93c-.115 0-.173-.057-.173-.172V8.022c0-.172-.114-.286-.286-.286h-3.183c-.172 0-.286.114-.286.286z" fill="#fff"/></svg>