<svg width="273" height="30" viewBox="0 0 273 30" xmlns="http://www.w3.org/2000/svg"><path d="M16.034 19.74c-.021.126.084.21.21.21h.672c.125 0 .189-.084.21-.21l.713-3.423h3.487l.713 3.423c.021.126.084.21.231.21h.672c.127 0 .21-.084.19-.21l-2.94-13.86c-.021-.126-.105-.21-.232-.21h-.693c-.125 0-.189.084-.23.21zm2.015-4.41l1.534-7.287h.042l1.49 7.287zm1.806-11.445c.148 0 .21-.042.357-.21l1.828-2.163c.084-.105.041-.21-.084-.21h-.694c-.189 0-.252.063-.357.21L19.33 3.675c-.083.105-.041.21.085.21zm9.093 15.855c0 .126.084.21.21.21h.61c.125 0 .21-.084.21-.21V8.778h.063l2.52 8.421c.041.147.105.21.23.21h.42c.127 0 .19-.063.232-.21l2.52-8.421h.063V19.74c0 .126.083.21.21.21h.608c.127 0 .21-.084.21-.21V5.88c0-.126-.084-.21-.21-.21h-.714c-.126 0-.23.063-.273.21l-2.813 9.576h-.042L30.145 5.88c-.041-.147-.125-.21-.273-.21h-.713c-.127 0-.21.084-.21.21zm10.06 0c-.022.126.084.21.21.21h.671c.127 0 .19-.084.21-.21l.715-3.423H44.3l.714 3.423c.02.126.083.21.23.21h.672c.127 0 .21-.084.19-.21l-2.94-13.86c-.021-.126-.105-.21-.231-.21h-.694c-.126 0-.188.084-.23.21zm2.015-4.41l1.533-7.287h.043l1.49 7.287zm7.035 4.41c0 .126.084.21.21.21h.588c.127 0 .21-.084.21-.21V8.043h.063l3.99 11.697c.063.168.148.21.337.21h.797c.127 0 .21-.084.21-.21V5.88c0-.126-.084-.21-.21-.21h-.587c-.127 0-.21.084-.21.21v11.697h-.064L49.444 5.88c-.063-.168-.147-.21-.336-.21h-.84c-.126 0-.21.084-.21.21zm9.261 0c0 .126.084.21.21.21h.588c.127 0 .21-.084.21-.21V8.043h.064l3.99 11.697c.063.168.147.21.336.21h.797c.127 0 .21-.084.21-.21V5.88c0-.126-.083-.21-.21-.21h-.588c-.126 0-.21.084-.21.21v11.697h-.063L58.706 5.88c-.064-.168-.148-.21-.337-.21h-.84c-.126 0-.21.084-.21.21zm13.126 0c0 .126.084.21.21.21h.608c.126 0 .21-.084.21-.21V8.778h.064l2.52 8.421c.041.147.105.21.23.21h.42c.127 0 .19-.063.232-.21l2.52-8.421h.063V19.74c0 .126.084.21.21.21h.609c.126 0 .21-.084.21-.21V5.88c0-.126-.085-.21-.21-.21h-.715c-.126 0-.23.063-.273.21l-2.813 9.576h-.043L71.642 5.88c-.041-.147-.126-.21-.273-.21h-.713c-.127 0-.21.084-.21.21zm10.647 0c0 .126.084.21.21.21h.944c.127 0 .21-.084.21-.21v-1.365c0-.126-.084-.21-.21-.21h-.944c-.127 0-.21.084-.21.21zm6.761.21c.127 0 .19-.084.21-.21l2.835-13.86c.022-.126-.02-.21-.167-.21h-.694c-.126 0-.189.084-.21.21l-2.246 11.508h-.064L85.25 5.88c-.022-.126-.106-.21-.231-.21h-.694c-.147 0-.189.084-.168.21l2.836 13.86c.02.126.084.21.21.21zm3.046-.21c0 .126.084.21.21.21h.945c.126 0 .21-.084.21-.21v-1.365c0-.126-.084-.21-.21-.21h-.945c-.126 0-.21.084-.21.21zm7.181 0c0 .126.085.21.21.21h4.977c.127 0 .21-.084.21-.21v-.567c0-.126-.084-.21-.21-.21h-4.031v-.021l3.422-6.72c.525-1.05.82-1.89.82-3.297 0-.924-.042-1.302-.168-1.701-.358-1.113-1.219-1.722-2.52-1.722-1.303 0-2.164.63-2.52 1.722-.126.399-.19.777-.19 1.848 0 .147.064.231.21.252l.588.063c.147.021.231-.063.231-.21 0-1.092.043-1.365.127-1.638.23-.672.755-1.05 1.532-1.05.799 0 1.323.378 1.534 1.05.104.273.146.546.146 1.386 0 1.176-.251 1.911-.692 2.793l-3.591 7.14a.572.572 0 00-.085.336zm11.907 0c0 .126.085.21.21.21h.672c.127 0 .21-.084.21-.21v-6.3c0-.084.043-.126.127-.126h3.36c.126 0 .21-.084.21-.21v-.609c0-.126-.084-.21-.21-.21h-3.36c-.085 0-.127-.042-.127-.126V6.825c0-.084.043-.126.127-.126h3.843c.125 0 .21-.084.21-.21V5.88c0-.126-.085-.21-.21-.21h-4.852c-.126 0-.21.084-.21.21zm10.375.378c1.848 0 3.087-1.155 3.087-3.528V5.88c0-.126-.084-.21-.21-.21h-.651c-.126 0-.21.084-.21.21v10.794c0 1.659-.82 2.415-2.016 2.415-1.197 0-1.995-.756-1.995-2.415V5.88c0-.126-.085-.21-.21-.21h-.672c-.126 0-.21.084-.21.21v10.71c0 2.373 1.238 3.528 3.087 3.528zm5.922-.378c0 .126.084.21.21.21h4.83c.125 0 .21-.084.21-.21v-.609c0-.126-.084-.21-.21-.21H127.5c-.084 0-.126-.042-.126-.126V5.88c0-.126-.084-.21-.21-.21h-.672c-.125 0-.21.084-.21.21zm7.223 0c0 .126.084.21.21.21h4.83c.126 0 .21-.084.21-.21v-.609c0-.126-.084-.21-.21-.21h-3.821c-.084 0-.126-.042-.126-.126V5.88c0-.126-.084-.21-.21-.21h-.672c-.126 0-.21.084-.21.21zm9.64.378c1.47 0 2.457-.672 2.877-1.953.21-.63.273-1.176.273-5.355s-.064-4.725-.273-5.355c-.42-1.281-1.407-1.953-2.877-1.953-1.47 0-2.457.672-2.877 1.953-.21.63-.274 1.176-.274 5.355s.064 4.725.273 5.355c.42 1.281 1.407 1.953 2.877 1.953zm0-1.029c-.903 0-1.534-.42-1.827-1.26-.147-.483-.21-.924-.21-5.019s.063-4.536.21-5.019c.293-.861.924-1.26 1.827-1.26.903 0 1.554.399 1.827 1.26.147.483.23.924.23 5.019s-.084 4.536-.23 5.019c-.273.84-.924 1.26-1.827 1.26zm11.718.861c.105 0 .147-.084.105-.21l-1.933-6.51c1.135-.504 1.764-1.617 1.764-3.612 0-2.898-1.133-3.948-3.632-3.948h-2.038c-.125 0-.21.084-.21.21v13.86c0 .126.085.21.21.21h.673c.125 0 .21-.084.21-.21v-6.048c0-.084.041-.126.125-.126h.987c.315 0 .61-.021.882-.063l1.849 6.3c.042.105.105.147.23.147zm-3.613-7.392h-1.113c-.084 0-.126-.042-.126-.126V6.825c0-.084.042-.126.126-.126h1.113c1.743 0 2.457.714 2.457 2.919 0 2.289-.756 2.94-2.457 2.94zm8.925 7.392c1.722 0 2.668-.756 3.109-2.121.251-.777.335-1.722.335-5.019 0-3.318-.084-4.242-.335-5.019-.441-1.365-1.387-2.121-3.108-2.121h-2.563c-.126 0-.21.084-.21.21v6.237c0 .084-.042.126-.125.126h-.715c-.125 0-.21.084-.21.21v.504c0 .126.085.21.21.21h.715c.083 0 .125.042.125.126v6.447c0 .126.084.21.21.21zm-.125-1.029h-1.428c-.084 0-.126-.042-.126-.126v-5.502c0-.084.042-.126.126-.126h1.575c.125 0 .21-.084.21-.21v-.504c0-.126-.084-.21-.21-.21h-1.576c-.083 0-.125-.042-.125-.126V6.825c0-.084.042-.126.126-.126h1.428c1.197 0 1.847.462 2.184 1.449.21.651.294 1.512.294 4.662s-.084 4.011-.294 4.662c-.337.987-.987 1.449-2.184 1.449zm6.216.819c0 .126.083.21.21.21h.587c.126 0 .21-.084.21-.21V8.043h.064l3.99 11.697c.063.168.147.21.335.21h.799c.126 0 .21-.084.21-.21V5.88c0-.126-.084-.21-.21-.21h-.588c-.126 0-.21.084-.21.21v11.697h-.064L167.654 5.88c-.064-.168-.148-.21-.337-.21h-.84c-.126 0-.21.084-.21.21zm8.357 0c-.02.126.084.21.21.21h.672c.126 0 .19-.084.21-.21l.714-3.423h3.486l.714 3.423c.022.126.084.21.232.21h.672c.126 0 .21-.084.189-.21l-2.94-13.86c-.022-.126-.105-.21-.231-.21h-.694c-.126 0-.189.084-.23.21zm2.017-4.41l1.532-7.287h.042l1.492 7.287zm13.817 4.788c1.47 0 2.458-.672 2.877-1.953.21-.63.273-1.176.273-5.355s-.063-4.725-.273-5.355c-.42-1.281-1.407-1.953-2.877-1.953-1.47 0-2.457.672-2.876 1.953-.21.63-.273 1.176-.273 5.355s.063 4.725.273 5.355c.42 1.281 1.406 1.953 2.876 1.953zm0-1.029c-.903 0-1.532-.42-1.827-1.26-.147-.483-.21-.924-.21-5.019s.064-4.536.21-5.019c.294-.861.924-1.26 1.827-1.26.904 0 1.554.399 1.827 1.26.148.483.232.924.232 5.019s-.084 4.536-.232 5.019c-.273.84-.923 1.26-1.827 1.26zm5.817-.924c.42 1.281 1.407 1.953 2.877 1.953 1.47 0 2.458-.672 2.877-1.953.21-.63.274-1.176.274-4.872v-.567c0-.126-.084-.21-.21-.21h-2.689c-.125 0-.21.084-.21.21v.588c0 .126.085.21.21.21h1.702c.083 0 .125.042.125.126 0 3.255-.063 3.696-.21 4.179-.293.84-.945 1.26-1.847 1.26-.904 0-1.555-.42-1.849-1.26-.147-.483-.21-.924-.21-5.019s.063-4.536.21-5.019c.294-.861.924-1.26 1.828-1.26 1.26 0 1.869.777 2.058 2.037.02.126.105.189.252.147l.608-.126c.126-.042.168-.126.148-.273-.232-1.722-1.219-2.814-3.066-2.814-1.47 0-2.458.672-2.877 1.953-.21.63-.273 1.176-.273 5.355s.063 4.725.273 5.355zm12.201 1.575c0 .126.084.21.21.21h4.977c.127 0 .21-.084.21-.21v-.567c0-.126-.083-.21-.21-.21h-4.031v-.021l3.422-6.72c.525-1.05.82-1.89.82-3.297 0-.924-.042-1.302-.168-1.701-.357-1.113-1.219-1.722-2.52-1.722-1.303 0-2.163.63-2.52 1.722-.126.399-.19.777-.19 1.848 0 .147.064.231.21.252l.588.063c.148.021.231-.063.231-.21 0-1.092.042-1.365.126-1.638.231-.672.756-1.05 1.534-1.05.798 0 1.322.378 1.532 1.05.106.273.147.546.147 1.386 0 1.176-.251 1.911-.692 2.793l-3.591 7.14a.572.572 0 00-.085.336zm11.907 0c0 .126.085.21.21.21h2.143c2.52 0 3.59-1.029 3.59-3.948 0-2.247-.734-3.108-1.805-3.486v-.042c1.091-.42 1.659-1.323 1.659-3.171 0-2.688-.946-3.633-3.36-3.633h-2.226c-.126 0-.21.084-.21.21zm1.219-7.665c-.085 0-.127-.042-.127-.126V6.825c0-.084.042-.126.126-.126h1.197c1.68 0 2.29.588 2.29 2.709 0 2.016-.736 2.667-2.226 2.667zm-.127 6.72v-5.607c0-.084.042-.126.126-.126h1.281c1.575 0 2.352.693 2.352 2.919 0 2.31-.714 2.94-2.478 2.94h-1.155c-.084 0-.126-.042-.126-.126zm11.865-15.372c.126 0 .21-.084.21-.21V2.079c0-.126-.083-.21-.21-.21h-.714c-.126 0-.21.084-.21.21v1.134c0 .126.084.21.21.21zm-2.898 0c.126 0 .21-.084.21-.21V2.079c0-.126-.083-.21-.21-.21h-.714c-.126 0-.21.084-.21.21v1.134c0 .126.084.21.21.21zm1.093 16.695c1.47 0 2.457-.672 2.876-1.953.21-.63.273-1.176.273-5.355s-.063-4.725-.273-5.355c-.42-1.281-1.406-1.953-2.876-1.953s-2.458.672-2.877 1.953c-.21.63-.273 1.176-.273 5.355s.063 4.725.273 5.355c.42 1.281 1.406 1.953 2.877 1.953zm0-1.029c-.904 0-1.534-.42-1.828-1.26-.147-.483-.21-.924-.21-5.019s.064-4.536.21-5.019c.294-.861.924-1.26 1.828-1.26.903 0 1.553.399 1.827 1.26.147.483.23.924.23 5.019s-.083 4.536-.23 5.019c-.274.84-.924 1.26-1.827 1.26zm11.718.861c.105 0 .147-.084.105-.21l-1.933-6.51c1.135-.504 1.764-1.617 1.764-3.612 0-2.898-1.133-3.948-3.632-3.948h-2.037c-.126 0-.21.084-.21.21v13.86c0 .126.083.21.21.21h.672c.125 0 .21-.084.21-.21v-6.048c0-.084.042-.126.126-.126h.987c.315 0 .609-.021.882-.063l1.847 6.3c.042.105.106.147.231.147zm-3.612-7.392h-1.113c-.084 0-.126-.042-.126-.126V6.825c0-.084.042-.126.126-.126h1.113c1.743 0 2.457.714 2.457 2.919 0 2.289-.756 2.94-2.457 2.94zm6.153 7.182c0 .126.084.21.21.21h.588c.126 0 .21-.084.21-.21V8.043h.063l3.99 11.697c.063.168.147.21.335.21h.798c.126 0 .21-.084.21-.21V5.88c0-.126-.084-.21-.21-.21h-.588c-.126 0-.21.084-.21.21v11.697h-.063L247.181 5.88c-.064-.168-.148-.21-.337-.21h-.84c-.125 0-.21.084-.21.21z" fill="#fff"/></svg>