<svg width="273" height="40" viewBox="0 0 273 40" xmlns="http://www.w3.org/2000/svg"><path d="M115.63 26.943c0 .172.114.287.286.287h3.183c.172 0 .286-.115.286-.287v-5.275l1.147-2.408 2.867 7.77c.028.143.114.2.286.2h3.412c.143 0 .23-.143.172-.287l-4.386-11.352 3.899-7.569c.086-.143 0-.286-.144-.286h-3.325c-.172 0-.287.057-.373.23l-3.555 7.539V8.022c0-.172-.114-.286-.286-.286h-3.183c-.172 0-.286.114-.286.286zm24.339.287c.143 0 .2-.143.143-.287l-2.666-8.256c1.347-.917 2.179-2.523 2.179-4.988 0-4.33-2.236-5.963-5.705-5.963h-4.644c-.172 0-.287.114-.287.286v18.921c0 .172.115.287.287.287h3.182c.172 0 .286-.115.286-.287v-7.167c0-.114.058-.172.173-.172h1.089l2.207 7.397c.058.172.144.229.316.229zm-6.221-10.865h-.831c-.115 0-.173-.057-.173-.172v-4.988c0-.115.058-.172.173-.172h.83c1.463 0 2.094.63 2.094 2.666 0 2.064-.631 2.666-2.093 2.666zm8.256 10.578c0 .172.115.287.287.287h3.182c.172 0 .287-.115.287-.287V8.023c0-.173-.115-.287-.287-.287h-3.182c-.172 0-.287.114-.287.286zm2.752-21.357c.23 0 .373-.086.574-.287l2.981-3.268c.115-.143.029-.287-.143-.287H145.3c-.23 0-.315.086-.459.287l-2.35 3.268c-.115.143-.03.287.143.287zm9.719 21.644c.172 0 .286-.115.286-.287V11.291c0-.115.058-.172.172-.172h3.068c.172 0 .287-.115.287-.287v-2.81c0-.172-.115-.286-.287-.286h-10.234c-.173 0-.287.114-.287.286v2.81c0 .172.114.287.287.287h3.067c.115 0 .172.057.172.172v15.652c0 .172.115.287.287.287z" fill="#fff"/></svg>