<svg width="273" height="41" viewBox="0 0 273 41" xmlns="http://www.w3.org/2000/svg"><path d="M57.272 27.26c0 .174.116.29.29.29h3.219c.174 0 .29-.116.29-.29v-7.569c0-.116.058-.174.174-.174h4.263c.174 0 .29-.116.29-.29v-2.871c0-.174-.116-.29-.29-.29h-4.263c-.116 0-.174-.058-.174-.174v-4.466c0-.116.058-.174.174-.174h4.93c.174 0 .29-.116.29-.29V8.12c0-.174-.116-.29-.29-.29h-8.613c-.174 0-.29.116-.29.29zm11.194 0c0 .174.116.29.29.29h8.671c.174 0 .29-.116.29-.29v-2.842c0-.174-.116-.29-.29-.29h-4.988c-.116 0-.174-.058-.174-.174V8.12c0-.174-.116-.29-.29-.29h-3.219c-.174 0-.29.116-.29.29zm15.718.551c3.306 0 5.336-1.885 5.336-5.597V8.12c0-.174-.116-.29-.29-.29h-3.219c-.174 0-.29.116-.29.29v14.558c0 1.044-.551 1.711-1.537 1.711-.957 0-1.508-.667-1.508-1.711V8.12c0-.174-.116-.29-.29-.29h-3.219c-.174 0-.29.116-.29.29v14.094c0 3.712 2.03 5.597 5.307 5.597zm8.033-3.306c.725 2.146 2.436 3.306 5.075 3.306 2.581 0 4.292-1.16 5.017-3.335.319-.899.406-1.711.406-6.786v-.87c0-.174-.116-.29-.29-.29H97.64c-.174 0-.29.116-.29.29v2.552c0 .174.116.29.29.29h1.247c.116 0 .174.058.174.174 0 2.9-.058 3.19-.174 3.596-.174.58-.783.957-1.508.957s-1.334-.377-1.508-.957c-.145-.435-.174-.696-.174-5.742 0-5.075.029-5.307.174-5.771.174-.551.754-.928 1.45-.928.986 0 1.566.667 1.653 2.088.029.203.145.29.319.261l3.074-.522c.174-.029.261-.174.232-.348-.261-3.19-2.117-4.901-5.307-4.901-2.639 0-4.35 1.16-5.075 3.306-.29.928-.377 1.74-.377 6.815s.087 5.887.377 6.815zm23.635 3.306c2.581 0 4.321-1.16 5.046-3.335.319-.899.406-1.711.406-6.786 0-5.075-.087-5.887-.406-6.786-.725-2.175-2.465-3.335-5.046-3.335-2.581 0-4.321 1.16-5.046 3.335-.319.899-.406 1.711-.406 6.786 0 5.075.087 5.887.406 6.786.725 2.175 2.465 3.335 5.046 3.335zm0-3.422c-.725 0-1.218-.406-1.392-.957-.145-.464-.203-.957-.203-5.742s.058-5.278.203-5.742c.174-.551.667-.957 1.392-.957.725 0 1.218.406 1.392.957.145.464.203.957.203 5.742s-.058 5.278-.203 5.742c-.174.551-.667.957-1.392.957zm7.917.116c.725 2.146 2.436 3.306 5.075 3.306 2.581 0 4.292-1.16 5.017-3.335.319-.899.406-1.711.406-6.786v-.87c0-.174-.116-.29-.29-.29h-4.785c-.174 0-.29.116-.29.29v2.552c0 .174.116.29.29.29h1.247c.116 0 .174.058.174.174 0 2.9-.058 3.19-.174 3.596-.174.58-.783.957-1.508.957s-1.334-.377-1.508-.957c-.145-.435-.174-.696-.174-5.742 0-5.075.029-5.307.174-5.771.174-.551.754-.928 1.45-.928.986 0 1.566.667 1.653 2.088.029.203.145.29.319.261l3.074-.522c.174-.029.261-.174.232-.348-.261-3.19-2.117-4.901-5.307-4.901-2.639 0-4.35 1.16-5.075 3.306-.29.928-.377 1.74-.377 6.815s.087 5.887.377 6.815zm18.56 0c.725 2.146 2.436 3.306 5.075 3.306 2.581 0 4.292-1.16 5.017-3.335.319-.899.406-1.711.406-6.786v-.87c0-.174-.116-.29-.29-.29h-4.785c-.174 0-.29.116-.29.29v2.552c0 .174.116.29.29.29h1.247c.116 0 .174.058.174.174 0 2.9-.058 3.19-.174 3.596-.174.58-.783.957-1.508.957s-1.334-.377-1.508-.957c-.145-.435-.174-.696-.174-5.742 0-5.075.029-5.307.174-5.771.174-.551.754-.928 1.45-.928.986 0 1.566.667 1.653 2.088.029.203.145.29.319.261l3.074-.522c.174-.029.261-.174.232-.348-.261-3.19-2.117-4.901-5.307-4.901-2.639 0-4.35 1.16-5.075 3.306-.29.928-.377 1.74-.377 6.815s.087 5.887.377 6.815zm12.818 2.755c0 .174.116.29.29.29h3.219c.174 0 .29-.116.29-.29V8.12c0-.174-.116-.29-.29-.29h-3.219c-.174 0-.29.116-.29.29zm16.675-5.568c0-3.335-1.044-4.785-3.741-5.829l-1.189-.464c-1.537-.609-1.856-1.073-1.856-2.552 0-1.334.493-1.972 1.508-1.972 1.044 0 1.537.725 1.566 2.146 0 .174.145.261.319.232l2.958-.464c.174-.029.261-.145.261-.319-.145-3.103-1.769-4.901-5.22-4.901-3.509 0-5.22 1.914-5.22 5.481 0 3.161.957 4.64 3.741 5.713l1.189.464c1.479.58 1.827 1.189 1.827 2.929 0 1.798-.493 2.349-1.566 2.349-1.131 0-1.653-.725-1.711-2.552 0-.174-.116-.261-.319-.232l-3.103.493c-.174.029-.232.145-.232.319.058 3.393 1.769 5.278 5.336 5.278 3.915 0 5.452-2.088 5.452-6.119zm7.859 5.858c.174 0 .29-.116.29-.29V11.426c0-.116.058-.174.174-.174h3.103c.174 0 .29-.116.29-.29V8.12c0-.174-.116-.29-.29-.29h-10.353c-.174 0-.29.116-.29.29v2.842c0 .174.116.29.29.29h3.103c.116 0 .174.058.174.174V27.26c0 .174.116.29.29.29zm5.597-.29c0 .174.116.29.29.29h3.219c.174 0 .29-.116.29-.29V8.12c0-.174-.116-.29-.29-.29h-3.219c-.174 0-.29.116-.29.29zm6.467 0c0 .174.116.29.29.29h2.755c.174 0 .29-.116.29-.29V14.877h.145l3.422 12.383c.058.203.174.29.406.29h3.48c.174 0 .29-.116.29-.29V8.12c0-.174-.116-.29-.29-.29h-2.755c-.174 0-.29.116-.29.29v12.383h-.145L196.066 8.12c-.058-.203-.174-.29-.406-.29h-3.625c-.174 0-.29.116-.29.29zm13.833-2.755c.725 2.146 2.436 3.306 5.075 3.306 2.581 0 4.292-1.16 5.017-3.335.319-.899.406-1.711.406-6.786v-.87c0-.174-.116-.29-.29-.29h-4.785c-.174 0-.29.116-.29.29v2.552c0 .174.116.29.29.29h1.247c.116 0 .174.058.174.174 0 2.9-.058 3.19-.174 3.596-.174.58-.783.957-1.508.957s-1.334-.377-1.508-.957c-.145-.435-.174-.696-.174-5.742 0-5.075.029-5.307.174-5.771.174-.551.754-.928 1.45-.928.986 0 1.566.667 1.653 2.088.029.203.145.29.319.261l3.074-.522c.174-.029.261-.174.232-.348-.261-3.19-2.117-4.901-5.307-4.901-2.639 0-4.35 1.16-5.075 3.306-.29.928-.377 1.74-.377 6.815s.087 5.887.377 6.815z" fill="#fff"/></svg>