<svg width="135" height="48" viewBox="0 0 135 48" xmlns="http://www.w3.org/2000/svg"><path d="M17.94 29.76c0 .144.096.24.24.24h3.864c3.192 0 4.824-1.2 4.824-4.8 0-2.184-.864-3.336-2.064-3.696v-.048c1.2-.528 1.872-1.536 1.872-3.528 0-2.856-1.344-4.248-4.368-4.248H18.18c-.144 0-.24.096-.24.24zm3.288-9.384c-.096 0-.144-.048-.144-.144v-3.744c0-.096.048-.144.144-.144h.696c1.224 0 1.608.432 1.608 2.016 0 1.608-.384 2.016-1.608 2.016zm-.144 6.816v-4.176c0-.096.048-.144.144-.144h.696c1.32 0 1.776.504 1.776 2.208 0 1.728-.456 2.256-1.776 2.256h-.696c-.096 0-.144-.048-.144-.144zM33.612 11.88c.192 0 .312-.072.48-.24l2.496-2.736c.096-.12.024-.24-.12-.24h-2.4c-.192 0-.264.072-.384.24l-1.968 2.736c-.096.12-.024.24.12.24zm-.72 18.336c2.136 0 3.576-.96 4.176-2.76.264-.744.336-1.416.336-5.616 0-4.2-.072-4.872-.336-5.616-.6-1.8-2.04-2.76-4.176-2.76s-3.576.96-4.176 2.76c-.264.744-.336 1.416-.336 5.616 0 4.2.072 4.872.336 5.616.6 1.8 2.04 2.76 4.176 2.76zm0-2.832c-.6 0-1.008-.336-1.152-.792-.12-.384-.168-.792-.168-4.752s.048-4.368.168-4.752c.144-.456.552-.792 1.152-.792.6 0 1.008.336 1.152.792.12.384.168.792.168 4.752s-.048 4.368-.168 4.752c-.144.456-.552.792-1.152.792zm6.48 2.376c0 .144.096.24.24.24h2.664c.144 0 .24-.096.24-.24v-4.416l.96-2.016 2.4 6.504c.024.12.096.168.24.168h2.856c.12 0 .192-.12.144-.24l-3.672-9.504 3.264-6.336c.072-.12 0-.24-.12-.24h-2.784c-.144 0-.24.048-.312.192l-2.976 6.312V13.92c0-.144-.096-.24-.24-.24h-2.664c-.144 0-.24.096-.24.24zm10.296 0c-.024.144.048.24.192.24h2.664c.168 0 .24-.096.264-.24l.552-2.952h3.096l.528 2.952c.024.144.096.24.264.24h2.664c.144 0 .216-.096.192-.24L56.58 13.92c-.024-.144-.12-.24-.264-.24h-2.832c-.144 0-.216.096-.264.24zm4.128-5.448l1.08-5.664h.072l1.032 5.664zM65.772 30c2.256 0 3.576-.864 4.176-2.712.288-.912.432-2.016.432-5.448 0-3.432-.144-4.536-.432-5.448-.6-1.848-1.92-2.712-4.176-2.712h-4.128c-.144 0-.24.096-.24.24v6.576c0 .096-.048.144-.144.144h-.648c-.144 0-.24.096-.24.24v1.776c0 .144.096.24.24.24h.648c.096 0 .144.048.144.144v6.72c0 .144.096.24.24.24zm-.312-2.832h-.768c-.096 0-.144-.048-.144-.144V23.04c0-.096.048-.144.144-.144h1.056c.144 0 .24-.096.24-.24v-1.752c0-.144-.096-.24-.24-.24h-1.056c-.096 0-.144-.048-.144-.144v-3.864c0-.096.048-.144.144-.144h.768c.792 0 1.224.288 1.464 1.008.168.504.264 1.2.264 4.32s-.096 3.816-.264 4.32c-.24.72-.672 1.008-1.464 1.008zm11.232 3.048c2.736 0 4.416-1.56 4.416-4.632V13.92c0-.144-.096-.24-.24-.24h-2.664c-.144 0-.24.096-.24.24v12.048c0 .864-.456 1.416-1.272 1.416-.792 0-1.248-.552-1.248-1.416V13.92c0-.144-.096-.24-.24-.24H72.54c-.144 0-.24.096-.24.24v11.664c0 3.072 1.68 4.632 4.392 4.632zm11.256-.456c0 .144.096.24.24.24h2.664c.144 0 .24-.096.24-.24v-6.528c0-.096.048-.144.144-.144h2.28c.096 0 .144.048.144.144v6.528c0 .144.096.24.24.24h2.664c.144 0 .24-.096.24-.24V13.92c0-.144-.096-.24-.24-.24H93.9c-.144 0-.24.096-.24.24v6.192c0 .096-.048.144-.144.144h-2.28c-.096 0-.144-.048-.144-.144V13.92c0-.144-.096-.24-.24-.24h-2.664c-.144 0-.24.096-.24.24zM103.5 11.88c.192 0 .312-.072.48-.24l2.496-2.736c.096-.12.024-.24-.12-.24h-2.4c-.192 0-.264.072-.384.24l-1.968 2.736c-.096.12-.024.24.12.24zm-4.488 17.88c0 .144.096.24.24.24h7.128c.144 0 .24-.096.24-.24v-2.352c0-.144-.096-.24-.24-.24h-4.08c-.096 0-.144-.048-.144-.144v-3.696c0-.096.048-.144.144-.144h3.528c.144 0 .24-.096.24-.24v-2.352c0-.144-.096-.24-.24-.24H102.3c-.096 0-.144-.048-.144-.144v-3.552c0-.096.048-.144.144-.144h4.08c.144 0 .24-.096.24-.24V13.92c0-.144-.096-.24-.24-.24h-7.128c-.144 0-.24.096-.24.24zm18.552.24c.12 0 .168-.12.12-.24l-2.232-6.912c1.128-.768 1.824-2.112 1.824-4.176 0-3.624-1.872-4.992-4.776-4.992h-3.888c-.144 0-.24.096-.24.24v15.84c0 .144.096.24.24.24h2.664c.144 0 .24-.096.24-.24v-6c0-.096.048-.144.144-.144h.912l1.848 6.192c.048.144.12.192.264.192zm-5.208-9.096h-.696c-.096 0-.144-.048-.144-.144v-4.176c0-.096.048-.144.144-.144h.696c1.224 0 1.752.528 1.752 2.232 0 1.728-.528 2.232-1.752 2.232z" fill="#fff"/></svg>