<svg width="142.257" height="8" viewBox="0 0 142.257 8" xmlns="http://www.w3.org/2000/svg"><path d="M5.236 4.242q0 .644-.396.946-.396.302-1.064.302H2.182V1.4h1.5q.634 0 1.023.296.39.296.39.91 0 .452-.293.733.434.288.434.903zm-.962-1.63q0-.251-.149-.333-.15-.082-.43-.082H3.02v.855h.674q.282 0 .431-.088.15-.088.15-.351zm-.038 1.999q.162-.088.162-.363 0-.276-.162-.367-.16-.09-.46-.09H3.02v.908h.756q.3 0 .46-.088zM9.03 2.657q.097.366.097.788 0 .422-.097.788-.097.366-.293.665-.196.299-.536.469-.34.17-.786.17-.445 0-.785-.17t-.536-.469q-.196-.299-.293-.665-.097-.366-.097-.788 0-.422.097-.788.097-.367.293-.665.196-.3.536-.47.34-.17.785-.17.446 0 .786.17t.536.47q.196.298.293.665zM7.415 4.71q.868 0 .868-1.266t-.868-1.266q-.867 0-.867 1.266t.867 1.266zm-.65-3.663l.504-.955h.797l-.756.955h-.545zm5.204.352h.92L11.605 3.42l1.436 2.069h-.984l-1.354-2.069L11.969 1.4zm-1.36 0v4.09h-.838V1.4h.838zm4.044 0h.726l1.582 4.09h-.908l-.369-1.026h-1.33l-.37 1.026h-.902l1.57-4.09zm.363 1.236l-.393 1.096h.791l-.398-1.096zm5.403-.04q.04.298.04.849 0 .55-.04.85-.041.304-.164.53-.123.225-.281.351-.159.126-.387.2-.229.073-.431.093-.202.021-.46.021h-1.342V3.755h-.217v-.603h.217V1.4h1.342q.258 0 .46.02t.43.094q.23.073.388.2.158.125.28.35.124.226.165.531zm-.826 1.511q.029-.205.029-.662 0-.457-.03-.668-.023-.158-.078-.264-.056-.105-.12-.164-.065-.059-.194-.085-.129-.026-.226-.032-.096-.006-.278-.006h-.504v.926h.715v.603h-.715v.909h.504q.469 0 .66-.097.19-.097.237-.46zM23.402 1.4h.838v2.402q0 .82-.381 1.278-.381.457-1.184.457-.809 0-1.19-.457-.38-.457-.38-1.278V1.4h.837v2.355q0 .217.027.375.026.159.102.302.077.144.226.217.15.073.372.073.445 0 .59-.243.143-.243.143-.724V1.4zm6.358 2.836q0 .604-.457.958-.457.355-1.079.355-1.336 0-1.652-1.243l.791-.158q.17.604.861.604.264 0 .481-.135.217-.135.217-.381 0-.17-.164-.281-.164-.112-.41-.161-.247-.05-.537-.135-.29-.085-.536-.194-.246-.108-.41-.348-.164-.24-.164-.586 0-.557.419-.868.419-.31.993-.31.557 0 .923.222.366.223.607.715l-.721.334q-.147-.263-.328-.378-.182-.114-.48-.114-.212 0-.394.1-.181.1-.181.299 0 .14.164.237.164.097.41.147.246.05.536.14.29.091.536.211.247.12.41.37.165.248.165.6zm3.765-1.58q.097.367.097.789 0 .422-.097.788-.097.366-.293.665-.196.299-.536.469-.34.17-.786.17-.445 0-.785-.17t-.536-.469q-.196-.299-.293-.665-.097-.366-.097-.788 0-.422.097-.788.097-.367.293-.665.196-.3.536-.47.34-.17.785-.17.446 0 .786.17t.536.47q.196.298.293.665zM31.91 4.712q.868 0 .868-1.266t-.868-1.266q-.867 0-.867 1.266t.867 1.266zm-.65-3.663l.504-.955h.797l-.756.955h-.545zm3.838 3.633h1.735v.809h-2.567V1.4h.832V4.68zM39.253 1.4h.838v4.09h-.838V1.4zm0-.352l.504-.955h.797l-.756.955h-.545zm6.417 3.188q0 .604-.457.958-.457.355-1.079.355-1.336 0-1.652-1.243l.791-.158q.17.604.861.604.264 0 .481-.135.217-.135.217-.381 0-.17-.164-.281-.164-.112-.41-.161-.247-.05-.537-.135-.29-.085-.536-.194-.246-.108-.41-.348-.164-.24-.164-.586 0-.557.419-.868.419-.31.993-.31.557 0 .923.222.366.223.607.715l-.721.334q-.147-.263-.328-.378-.182-.114-.48-.114-.212 0-.394.1-.181.1-.181.299 0 .14.164.237.164.097.41.147.246.05.536.14.29.091.536.211.247.12.41.37.165.248.165.6zM48.524 1.4h.838v2.402q0 .82-.381 1.278-.381.457-1.184.457-.809 0-1.19-.457-.38-.457-.38-1.278V1.4h.837v2.355q0 .217.027.375.026.159.102.302.077.144.226.217.15.073.372.073.445 0 .589-.243.144-.243.144-.724V1.4zm4.53 0h.785v4.09h-.844V3.568L52.21 5.49h-.522l-.78-1.922V5.49h-.843V1.4h.797l1.084 2.73 1.107-2.73zm2.707 0h.726l1.583 4.09h-.909l-.369-1.026h-1.33l-.37 1.026h-.902l1.57-4.09zm.363 1.236l-.393 1.096h.792l-.399-1.096zm5.274.006q0 .38-.214.683-.214.302-.577.425.047.04.164.216l.973 1.524h-.973l-.82-1.371q-.1-.17-.173-.223-.073-.053-.255-.053h-.205V5.49h-.838V1.4h1.5q.633 0 1.025.313.393.314.393.929zm-.838.006q0-.252-.152-.346-.153-.094-.422-.094h-.668v.897h.668q.275 0 .425-.1.15-.1.15-.357zM63.924 1.4h2.754v.826h-1.922v.768h1.711v.79h-1.711V5.49h-.832V1.4zm4.828 1.793L69.59 1.4h.932L69.17 4.142V5.49h-.838V4.13L66.97 1.4h.938l.843 1.793zm5.157-.551q0 .38-.214.683-.214.302-.577.425.047.04.164.216l.973 1.524h-.973l-.82-1.371q-.1-.17-.173-.223-.073-.053-.255-.053h-.205V5.49h-.838V1.4h1.5q.633 0 1.026.313.392.314.392.929zm-.838.006q0-.252-.152-.346-.152-.094-.422-.094h-.668v.897h.668q.275 0 .425-.1.15-.1.15-.357zM74.677 1.4h.838v4.09h-.838V1.4zm4.577 1.242q0 .38-.214.683-.214.302-.577.425.046.04.164.216l.972 1.524h-.972l-.82-1.371q-.1-.17-.174-.223-.073-.053-.255-.053h-.205V5.49h-.838V1.4h1.5q.633 0 1.026.313.393.314.393.929zm-.838.006q0-.252-.153-.346-.152-.094-.422-.094h-.668v.897h.668q.276 0 .425-.1.15-.1.15-.357zM82.94 1.4h.726l1.582 4.09h-.908l-.37-1.026h-1.33l-.368 1.026h-.903l1.57-4.09zm.363 1.236l-.393 1.096h.791l-.398-1.096zm3.188 2.045h1.734v.809H85.66V1.4h.832V4.68zm3.111 0h1.735v.809H88.77V1.4h.832V4.68zM93.277 1.4h.726l1.583 4.09h-.909l-.369-1.026h-1.33l-.37 1.026h-.902l1.57-4.09zm.363 1.236l-.393 1.096h.791l-.398-1.096zM97.754 1.4h2.754v.826h-1.922v.768h1.711v.79h-1.711V5.49h-.832V1.4zm4.782 0h.832V4.17q0 .663-.364 1.011-.363.349-1.031.349-.598 0-.932-.299-.334-.299-.474-.873l.802-.217q.147.574.598.574.299 0 .434-.14t.135-.428V1.4zm4.802 1.257q.097.366.097.788 0 .422-.097.788-.097.366-.293.665-.196.299-.536.469-.34.17-.786.17-.445 0-.785-.17t-.536-.469q-.196-.299-.293-.665-.097-.366-.097-.788 0-.422.097-.788.097-.367.293-.665.196-.3.536-.47.34-.17.785-.17.446 0 .786.17t.536.47q.196.298.293.665zm-1.615 2.054q.868 0 .868-1.266t-.868-1.266q-.867 0-.867 1.266t.867 1.266zm.912-4.41q.126.126.126.308 0 .181-.126.307t-.302.126q-.182 0-.308-.126T105.9.61q0-.182.126-.308t.308-.126q.176 0 .302.126zm-1.213 0q.126.126.126.308 0 .181-.126.307t-.302.126q-.182 0-.308-.126t-.126-.307q0-.182.126-.308t.308-.126q.176 0 .302.126zm3.49 4.38h1.734v.809h-2.567V1.4h.832V4.68zm5.396-.445q0 .604-.457.958-.457.355-1.078.355-1.336 0-1.653-1.243l.792-.158q.17.604.861.604.264 0 .48-.135.217-.135.217-.381 0-.17-.164-.281-.164-.112-.41-.161-.246-.05-.536-.135-.29-.085-.536-.194-.246-.108-.41-.348-.165-.24-.165-.586 0-.557.42-.868.418-.31.993-.31.556 0 .923.222.366.223.606.715l-.72.334q-.147-.263-.329-.378-.181-.114-.48-.114-.211 0-.393.1-.182.1-.182.299 0 .14.164.237.165.097.41.147.247.05.537.14.29.091.536.211.246.12.41.37.164.248.164.6zm2.813-2.836h.92l-1.283 2.021 1.436 2.069h-.985l-1.354-2.069 1.266-2.021zm-1.36 0v4.09h-.837V1.4h.838zm4.314 1.793l.838-1.793h.931l-1.353 2.742V5.49h-.838V4.13l-1.36-2.73h.938l.844 1.793zm3.07 1.488h1.735v.809h-2.567V1.4h.832V4.68zm5.42-2.212q.083.372.083.976 0 .603-.082.976-.082.372-.302.624-.22.252-.592.348-.372.097-.976.097h-1.154V1.4h1.154q.604 0 .976.096.372.097.592.35.22.251.302.623zm-.755.982q0-.774-.117-.967-.088-.147-.276-.202-.187-.056-.533-.056h-.504v2.438h.504q.346 0 .536-.062.19-.061.279-.214.11-.193.11-.937zm3.78-2.051h.838v2.402q0 .82-.381 1.278-.381.457-1.184.457-.809 0-1.19-.457-.38-.457-.38-1.278V1.4h.837v2.355q0 .217.027.375.026.159.102.302.077.144.226.217.15.073.372.073.445 0 .589-.243.144-.243.144-.724V1.4zm3.768 0h.838v4.09h-.674l-1.495-2.332V5.49h-.838V1.4h.68l1.489 2.332V1.4zm2.818 0h.727l1.582 4.09h-.908l-.37-1.026h-1.33l-.369 1.026h-.902l1.57-4.09zm.364 1.236l-.393 1.096h.791l-.398-1.096z" fill="#fff"/></svg>