<svg width="89.568" height="16" viewBox="0 0 89.568 16" xmlns="http://www.w3.org/2000/svg"><path d="M17.226 8.308q0 1.185-.898 1.881-.897.696-2.116.696-2.623 0-3.244-2.439l1.553-.31q.333 1.184 1.69 1.184.518 0 .944-.264.426-.265.426-.748 0-.334-.322-.552-.323-.219-.806-.316-.483-.098-1.052-.265-.57-.167-1.053-.38t-.805-.684q-.322-.472-.322-1.15 0-1.093.822-1.703.823-.61 1.95-.61 1.093 0 1.812.437.72.437 1.19 1.404l-1.414.655q-.288-.517-.645-.742-.356-.224-.943-.224-.414 0-.77.196-.357.195-.357.586 0 .277.322.466.322.19.805.288.483.098 1.053.276.57.178 1.052.414.484.236.806.725.322.489.322 1.18zm5.522-5.568h1.806l-2.52 3.969 2.82 4.061H22.92l-2.657-4.061 2.485-3.969zm-2.67 0v8.03h-1.644V2.74h1.645zm11.384 2.468q.19.719.19 1.547t-.19 1.547q-.19.72-.575 1.306-.385.587-1.053.92-.667.334-1.541.334-.875 0-1.542-.334-.667-.333-1.052-.92-.386-.587-.576-1.306-.19-.719-.19-1.547t.19-1.547q.19-.72.576-1.306.385-.587 1.052-.92.667-.334 1.542-.334.874 0 1.541.334.668.333 1.053.92.385.587.575 1.306zm-3.17 4.032q1.703 0 1.703-2.485T28.293 4.27q-1.703 0-1.703 2.485t1.703 2.485zM38.9 5.087q.08.587.08 1.668t-.08 1.668q-.08.598-.322 1.041-.242.443-.553.69-.31.248-.759.392-.449.143-.846.184-.396.04-.903.04h-2.634V7.365h-.426V6.18h.426V2.74h2.634q.507 0 .903.04.397.04.846.184.449.144.76.392.31.247.552.69.241.443.322 1.041zm-1.622 2.968q.057-.403.057-1.3t-.057-1.311q-.046-.311-.156-.518-.11-.207-.236-.322-.126-.115-.38-.167-.252-.052-.442-.063-.19-.012-.547-.012h-.989V6.18h1.404v1.185h-1.404v1.783h.99q.92 0 1.294-.19t.466-.903zm5.015-5.315h1.427l3.106 8.03h-1.783l-.725-2.013h-2.611l-.725 2.013H39.21l3.083-8.03zm.714 2.427l-.771 2.152h1.553l-.782-2.152zm10.871 3.095l1.749-5.522h1.725l-2.703 8.03h-1.553l-2.704-8.03h1.737l1.749 5.522zm6.04.886h3.865v1.622h-5.51V2.74h5.51v1.622h-3.865V5.87h3.37v1.553h-3.37v1.726zm10.975-3.969q0 .748-.42 1.34-.42.593-1.133.834.092.08.322.426l1.91 2.991h-1.91l-1.61-2.692q-.196-.334-.34-.437-.144-.104-.5-.104h-.403v3.233h-1.645V2.74h2.945q1.242 0 2.013.616.77.615.77 1.823zm-1.645.011q0-.494-.3-.678-.299-.184-.828-.184H66.81v1.76h1.311q.54 0 .834-.196.294-.195.294-.702zm9.134-.103q.08.587.08 1.668t-.08 1.668q-.08.598-.322 1.041-.242.443-.552.69-.311.248-.76.392-.448.143-.845.184-.397.04-.903.04h-2.635V7.365h-.425V6.18h.425V2.74H75q.506 0 .903.04t.845.184q.449.144.76.392.31.247.552.69.241.443.322 1.041zM76.76 8.055q.057-.403.057-1.3t-.057-1.311q-.046-.311-.156-.518-.109-.207-.235-.322-.127-.115-.38-.167-.253-.052-.443-.063-.19-.012-.546-.012h-.99V6.18h1.404v1.185H74.01v1.783H75q.92 0 1.294-.19t.466-.903z" fill="#fff"/></svg>