<svg width="298" height="83" viewBox="0 0 298 83" xmlns="http://www.w3.org/2000/svg"><path d="M63.303 55.46c-.06.354.117.59.472.59h6.548c.414 0 .59-.236.65-.59l1.356-7.257h7.612l1.297 7.257c.06.354.237.59.65.59h6.548c.354 0 .531-.236.472-.59l-8.614-38.94c-.058-.354-.294-.59-.648-.59h-6.963c-.354 0-.53.236-.649.59zM73.45 42.067l2.655-13.924h.177l2.537 13.924zM92.154 55.46c0 .354.236.59.59.59h17.64c.355 0 .59-.236.59-.59v-5.782c0-.354-.236-.59-.59-.59h-10.147c-.236 0-.355-.118-.355-.354V16.52c0-.354-.236-.59-.59-.59h-6.549c-.353 0-.59.236-.59.59zm22.715 0c0 .354.236.59.59.59h5.722c.355 0 .59-.236.59-.59V32.273h.355l4.365 16.048c.118.354.355.59.767.59h3.246c.413 0 .649-.236.767-.59l4.366-16.048h.353V55.46c0 .354.236.59.59.59h5.724c.353 0 .59-.236.59-.59V16.52c0-.354-.237-.59-.59-.59h-6.314c-.53 0-.826.177-.944.59l-5.9 21.063h-.235l-6.136-21.063c-.119-.413-.413-.59-.945-.59h-6.371c-.355 0-.59.236-.59.59zm33.452 0c0 .354.237.59.59.59h17.524c.353 0 .59-.236.59-.59v-5.782c0-.354-.237-.59-.59-.59h-10.03c-.237 0-.355-.118-.355-.354v-9.086c0-.236.118-.354.355-.354h8.672c.355 0 .59-.236.59-.59v-5.782c0-.354-.236-.59-.59-.59h-8.672c-.237 0-.355-.118-.355-.354v-8.732c0-.236.118-.354.355-.354h10.03c.353 0 .59-.236.59-.59V16.52c0-.354-.237-.59-.59-.59H148.91c-.353 0-.59.236-.59.59zm45.608.59c.294 0 .412-.295.294-.59l-5.487-16.992c2.774-1.888 4.484-5.192 4.484-10.266 0-8.909-4.601-12.272-11.74-12.272h-9.558c-.355 0-.59.236-.59.59v38.94c0 .354.236.59.59.59h6.548c.355 0 .59-.236.59-.59V40.71c0-.236.119-.354.355-.354h2.242l4.542 15.222c.118.354.295.472.65.472zm-12.804-22.361h-1.71c-.236 0-.355-.118-.355-.354V23.069c0-.236.119-.354.355-.354h1.71c3.01 0 4.308 1.298 4.308 5.487 0 4.248-1.298 5.487-4.308 5.487zm16.993 21.771c0 .354.236.59.59.59h6.548c.355 0 .59-.236.59-.59V16.52c0-.354-.236-.59-.59-.59h-6.548c-.355 0-.59.236-.59.59zm5.663-43.955c.472 0 .767-.177 1.18-.59l6.136-6.726c.236-.295.06-.59-.294-.59h-5.9c-.472 0-.65.177-.945.59l-4.838 6.726c-.236.295-.059.59.296.59zm5.31 43.955c-.059.354.118.59.472.59h6.55c.412 0 .59-.236.649-.59l1.357-7.257h7.61l1.298 7.257c.06.354.237.59.65.59h6.549c.353 0 .53-.236.471-.59l-8.614-38.94c-.059-.354-.294-.59-.648-.59h-6.963c-.353 0-.53.236-.649.59zm10.148-13.393l2.655-13.924h.177l2.537 13.924z" fill="#e22b11"/></svg>