<svg width="334.811" height="134" viewBox="0 0 334.811 134" xmlns="http://www.w3.org/2000/svg"><path d="M99.331 36.11c0-5.948-1.862-8.534-6.673-10.397l-2.12-.827c-2.742-1.086-3.311-1.914-3.311-4.552 0-2.38.879-3.518 2.69-3.518 1.862 0 2.741 1.293 2.793 3.828 0 .31.258.466.569.414l5.276-.828c.31-.051.466-.258.466-.569-.259-5.535-3.156-8.742-9.311-8.742-6.26 0-9.312 3.414-9.312 9.777 0 5.638 1.707 8.276 6.673 10.19l2.121.828c2.638 1.035 3.26 2.12 3.26 5.225 0 3.207-.88 4.19-2.794 4.19-2.018 0-2.949-1.294-3.052-4.553 0-.31-.207-.465-.57-.413l-5.534.879c-.31.052-.414.259-.414.569.104 6.052 3.156 9.415 9.518 9.415 6.983 0 9.725-3.725 9.725-10.915zm14.018 10.45c.31 0 .518-.207.518-.517V17.799c0-.207.103-.31.31-.31h5.535c.31 0 .517-.207.517-.518v-5.069c0-.31-.207-.517-.517-.517h-18.467c-.31 0-.517.207-.517.517v5.07c0 .31.207.517.517.517h5.535c.207 0 .31.103.31.31v28.244c0 .31.207.517.518.517zm24.313-39.314c.31 0 .517-.206.517-.517V1.66c0-.31-.207-.516-.517-.516h-3.983c-.31 0-.518.206-.518.517v5.07c0 .31.207.516.518.516zm-8.173 0c.31 0 .517-.206.517-.517V1.66c0-.31-.207-.516-.517-.516h-3.983c-.31 0-.518.206-.518.517v5.07c0 .31.207.516.518.516zm2.12 39.78c4.604 0 7.708-2.07 9.001-5.95.57-1.603.724-3.051.724-12.104 0-9.052-.155-10.5-.724-12.104-1.293-3.88-4.397-5.949-9-5.949-4.604 0-7.708 2.07-9.001 5.949-.57 1.604-.724 3.052-.724 12.104 0 9.053.155 10.501.724 12.105 1.293 3.88 4.397 5.949 9 5.949zm0-6.104c-1.293 0-2.172-.725-2.482-1.707-.26-.828-.363-1.707-.363-10.243 0-8.535.104-9.414.363-10.242.31-.983 1.19-1.707 2.483-1.707 1.293 0 2.172.724 2.482 1.707.26.828.363 1.707.363 10.242 0 8.536-.104 9.415-.363 10.243-.31.982-1.19 1.707-2.482 1.707zm13.967 5.12c0 .311.207.518.517.518h5.742c.31 0 .518-.207.518-.517v-9.518l2.069-4.345 5.173 14.018c.051.259.206.362.517.362h6.156c.258 0 .413-.259.31-.517l-7.915-20.485 7.035-13.656c.156-.259 0-.517-.258-.517h-6c-.311 0-.518.103-.673.414l-6.414 13.604V11.902c0-.31-.207-.517-.518-.517h-5.742c-.31 0-.517.207-.517.517zm24.106 0c0 .311.206.518.517.518h5.742c.31 0 .517-.207.517-.517v-9.518l2.07-4.345 5.172 14.018c.052.259.207.362.517.362h6.156c.259 0 .414-.259.31-.517l-7.914-20.485 7.035-13.656c.155-.259 0-.517-.259-.517h-6c-.31 0-.518.103-.673.414l-6.414 13.604V11.902c0-.31-.207-.517-.517-.517h-5.742c-.31 0-.517.207-.517.517zm35.071.518c.31 0 .518-.207.518-.517V17.799c0-.207.103-.31.31-.31h5.535c.31 0 .517-.207.517-.518v-5.069c0-.31-.207-.517-.517-.517h-18.467c-.31 0-.517.207-.517.517v5.07c0 .31.207.517.517.517h5.535c.207 0 .31.103.31.31v28.244c0 .31.207.517.518.517zm19.347.466c5.897 0 9.518-3.363 9.518-9.984v-25.14c0-.31-.207-.517-.517-.517h-5.742c-.31 0-.518.207-.518.517V37.87c0 1.862-.982 3.052-2.741 3.052-1.707 0-2.69-1.19-2.69-3.052V11.902c0-.31-.207-.517-.517-.517h-5.742c-.31 0-.518.207-.518.517v25.14c0 6.621 3.621 9.984 9.467 9.984zM164.56 74.755c.414 0 .673-.155 1.035-.517l5.38-5.897c.207-.259.052-.517-.259-.517h-5.173c-.414 0-.569.155-.827.517l-4.242 5.897c-.207.258-.052.517.259.517zm-1.913 39.52c5.897 0 9.518-3.362 9.518-9.983v-25.14c0-.31-.207-.517-.518-.517h-5.742c-.31 0-.517.207-.517.517v25.968c0 1.862-.983 3.052-2.741 3.052-1.708 0-2.69-1.19-2.69-3.052V79.152c0-.31-.207-.517-.518-.517h-5.741c-.31 0-.518.207-.518.517v25.14c0 6.621 3.621 9.984 9.467 9.984zm25.14-.465c.31 0 .517-.207.517-.517V85.049c0-.207.103-.31.31-.31h5.535c.31 0 .517-.207.517-.518v-5.069c0-.31-.207-.517-.517-.517h-18.467c-.31 0-.517.207-.517.517v5.07c0 .31.207.517.517.517h5.535c.207 0 .31.103.31.31v28.244c0 .31.207.517.518.517zM207.857 113.293c0 .31.207.517.517.517h5.742c.31 0 .517-.207.517-.517V79.152c0-.31-.206-.517-.517-.517h-5.742c-.31 0-.517.207-.517.517zm4.966-38.538c.414 0 .672-.155 1.035-.517l5.38-5.897c.206-.259.051-.517-.26-.517h-5.172c-.414 0-.57.155-.828.517l-4.242 5.897c-.206.258-.051.517.26.517zm34.865 28.606c0-5.949-1.862-8.535-6.673-10.398l-2.12-.827c-2.743-1.086-3.312-1.914-3.312-4.552 0-2.38.88-3.518 2.69-3.518 1.863 0 2.742 1.293 2.794 3.828 0 .31.258.466.569.414l5.276-.828c.31-.051.466-.258.466-.569-.26-5.535-3.156-8.742-9.312-8.742-6.259 0-9.31 3.414-9.31 9.777 0 5.638 1.706 8.276 6.672 10.19l2.121.828c2.638 1.035 3.259 2.12 3.259 5.225 0 3.207-.88 4.19-2.793 4.19-2.018 0-2.949-1.294-3.052-4.553 0-.31-.207-.465-.57-.413l-5.534.879c-.31.052-.414.259-.414.569.103 6.052 3.155 9.415 9.518 9.415 6.983 0 9.725-3.725 9.725-10.915zm14.432-28.606c.414 0 .673-.155 1.035-.517l5.38-5.897c.206-.259.051-.517-.26-.517h-5.172c-.414 0-.57.155-.828.517l-4.241 5.897c-.207.258-.052.517.258.517zm-1.552 39.52c4.604 0 7.708-2.069 9.001-5.948.569-1.604.724-3.052.724-12.105 0-9.052-.155-10.5-.724-12.104-1.293-3.88-4.397-5.949-9-5.949-4.605 0-7.708 2.07-9.001 5.949-.57 1.604-.725 3.052-.725 12.104 0 9.053.156 10.501.725 12.105 1.293 3.88 4.396 5.949 9 5.949zm0-6.103c-1.293 0-2.172-.725-2.483-1.707-.258-.828-.362-1.707-.362-10.243 0-8.535.104-9.414.362-10.242.31-.983 1.19-1.707 2.483-1.707 1.293 0 2.173.724 2.483 1.707.259.828.362 1.707.362 10.242 0 8.536-.103 9.415-.362 10.243-.31.982-1.19 1.707-2.483 1.707zm13.967 5.12c0 .311.207.518.517.518h15.467c.31 0 .517-.207.517-.517v-5.07c0-.31-.207-.517-.517-.517h-8.897c-.207 0-.31-.103-.31-.31V79.152c0-.31-.208-.517-.518-.517h-5.742c-.31 0-.517.207-.517.517zm22.347-9.155h3.258c.31 0 .518-.207.518-.517l1.293-24.468c0-.31-.207-.517-.517-.517h-5.846c-.31 0-.517.207-.517.517l1.293 24.468c0 .31.207.517.518.517zm-1.552 9.156c0 .31.207.517.517.517h5.276c.31 0 .518-.207.518-.517v-6c0-.311-.207-.518-.518-.518h-5.276c-.31 0-.517.207-.517.517z" fill="#fff"/></svg>