<svg width="298" height="60" viewBox="0 0 298 60" xmlns="http://www.w3.org/2000/svg"><path d="M101.73 40.81c.3 0 .43-.129.515-.43l4.983-19.715c.043-.258-.086-.43-.344-.43h-2.448c-.3 0-.43.172-.472.43l-3.179 14.089h-.086l-3.221-14.089c-.043-.258-.172-.43-.43-.43h-2.577c-.258 0-.387.172-.3.43l4.982 19.715c.086.301.215.43.472.43zm14.132.387c3.135 0 5.326-1.804 5.884-4.768.043-.258-.043-.473-.3-.516l-2.277-.472c-.258-.043-.43.043-.515.343-.43 1.59-1.289 2.32-2.75 2.32-1.202 0-1.975-.601-2.405-1.761-.172-.559-.3-1.246-.3-4.553 0-.172.085-.258.257-.258h8.075c.258 0 .43-.172.43-.43 0-5.369-.172-6.485-.473-7.43-.816-2.449-2.663-3.823-5.54-3.823-2.878 0-4.768 1.374-5.584 3.823-.301.988-.473 2.061-.473 6.83 0 4.81.172 5.884.473 6.829.816 2.491 2.663 3.866 5.498 3.866zm2.534-12.457h-4.94c-.172 0-.257-.086-.257-.258 0-2.663.128-3.35.3-3.908.344-1.074 1.203-1.718 2.449-1.718 1.202 0 2.061.644 2.405 1.718.172.558.3 1.245.3 3.908 0 .172-.085.258-.257.258zm10.738 12.07c.258 0 .43-.172.43-.43V27.666c0-3.006 1.46-4.424 3.479-4.424h.644c.258 0 .43-.086.516-.386l.601-2.449c.086-.257 0-.43-.258-.472a4.327 4.327 0 00-.816-.086c-2.105 0-3.436 1.16-4.123 2.749h-.043v-1.933c0-.258-.172-.43-.43-.43h-2.448c-.258 0-.43.172-.43.43V40.38c0 .258.172.43.43.43zm18.212-24.913c.301-.086.387-.258.301-.515l-.515-1.547c-.086-.257-.215-.343-.473-.257l-2.706.902-1.246-2.449c-.171-.3-.343-.43-.601-.43h-2.534c-.258 0-.344.173-.215.43l1.761 3.35-2.491.817c-.3.086-.387.258-.3.515l.515 1.504c.085.257.214.343.472.257l2.92-.945 1.934 3.694h-.043c-.387-.257-1.203-.472-2.062-.472-2.448 0-4.166 1.331-4.94 3.694-.343 1.117-.515 2.233-.515 6.529 0 4.21.129 5.154.472 6.27.774 2.535 2.835 3.953 5.67 3.953s4.854-1.418 5.67-3.952c.344-1.117.43-2.062.43-6.443 0-5.928-.387-7.775-2.535-11.898l-1.202-2.277zm-4.596 22.207c-1.288 0-2.147-.644-2.534-1.804-.215-.73-.258-1.289-.258-5.326 0-4.124.043-4.64.258-5.37.387-1.16 1.246-1.803 2.534-1.803 1.246 0 2.105.6 2.492 1.804.214.73.3 1.374.3 5.369 0 4.037-.043 4.596-.257 5.326-.387 1.16-1.246 1.804-2.535 1.804zM165 40.81c.258 0 .43-.172.43-.43V23.113c0-.172.086-.257.257-.257h2.578c.257 0 .429-.172.429-.43v-1.761c0-.258-.172-.43-.43-.43h-2.577c-.171 0-.257-.085-.257-.257V16.67c0-1.417.515-1.933 1.847-1.933h.988c.257 0 .429-.171.429-.43v-2.276c0-.257-.172-.43-.43-.43h-.773c-3.865 0-5.369 2.106-5.369 5.67v2.707c0 .172-.086.257-.258.257h-1.245c-.258 0-.43.172-.43.43v1.761c0 .258.172.43.43.43h1.245c.172 0 .258.085.258.257V40.38c0 .258.172.43.43.43zm9.793 0c.258 0 .43-.172.43-.43V27.666c0-3.006 1.46-4.424 3.48-4.424h.643c.258 0 .43-.086.516-.386l.601-2.449c.086-.257 0-.43-.258-.472a4.327 4.327 0 00-.816-.086c-2.104 0-3.436 1.16-4.123 2.749h-.043v-1.933c0-.258-.172-.43-.43-.43h-2.448c-.258 0-.43.172-.43.43V40.38c0 .258.172.43.43.43zm18.814 0c.258 0 .43-.172.43-.43V26.635c0-4.896-1.719-6.786-5.842-6.786-2.19 0-4.08.773-5.283 1.89-.215.215-.215.43-.086.687l.816 1.675c.129.3.43.344.687.172.988-.773 1.976-1.374 3.48-1.374 2.233 0 3.049 1.16 3.049 3.908v1.675c0 .172-.086.258-.258.258h-2.448c-3.436 0-6.057 1.718-6.057 6.357 0 4.596 2.406 6.1 4.854 6.1 1.847 0 3.308-.988 3.866-2.578h.043v1.761c0 .258.172.43.43.43zm-5.756-2.448c-1.632 0-2.577-1.117-2.577-3.35 0-2.277.945-3.48 3.393-3.48h1.933c.172 0 .258.086.258.258v2.835c0 2.233-1.246 3.737-3.007 3.737zm.687-21.477c.344 0 .473-.086.73-.43l3.738-5.283c.128-.214.042-.43-.215-.43h-2.534c-.344 0-.516.13-.688.43l-2.963 5.284c-.13.257-.043.43.214.43zm10.61 7.775h2.835c.257 0 .43-.172.43-.43v-3.565c0-.258-.173-.43-.43-.43h-2.835c-.258 0-.43.172-.43.43v3.565c0 .258.172.43.43.43zm-.43 15.72c0 .258.172.43.43.43h2.835c.257 0 .43-.172.43-.43v-3.608c0-.257-.173-.43-.43-.43h-2.835c-.258 0-.43.173-.43.43z" fill="#E22B11"/></svg>