<svg width="357.679" height="402" viewBox="0 0 357.679 402" xmlns="http://www.w3.org/2000/svg"><path d="M85.108 46.043c-.052.31.103.517.414.517h5.742c.362 0 .517-.207.569-.517l1.19-6.363h6.672l1.138 6.363c.052.31.207.517.57.517h5.741c.31 0 .466-.207.414-.517l-7.552-34.141c-.052-.31-.259-.517-.57-.517h-6.103c-.31 0-.466.207-.57.517zM94.005 34.3l2.328-12.208h.155L98.713 34.3zm16.398 11.743c0 .31.207.517.517.517h15.467c.31 0 .517-.207.517-.517v-5.07c0-.31-.206-.517-.517-.517h-8.897c-.207 0-.31-.103-.31-.31V11.902c0-.31-.207-.517-.518-.517h-5.742c-.31 0-.517.207-.517.517zm19.916 0c0 .31.206.517.517.517h8.328c6.88 0 10.398-2.586 10.398-10.346 0-4.707-1.863-7.19-4.45-7.966v-.103c2.587-1.138 4.036-3.31 4.036-7.604 0-6.156-2.897-9.156-9.415-9.156h-8.897c-.31 0-.517.207-.517.517zm7.086-20.226c-.207 0-.31-.104-.31-.31v-8.07c0-.207.103-.31.31-.31h1.5c2.639 0 3.466.93 3.466 4.345 0 3.466-.827 4.345-3.466 4.345zm-.31 14.69v-9c0-.207.103-.31.31-.31h1.5c2.846 0 3.828 1.086 3.828 4.759 0 3.724-.982 4.862-3.828 4.862h-1.5c-.207 0-.31-.103-.31-.31zm25.606 6.519c5.897 0 9.518-3.363 9.518-9.984v-25.14c0-.31-.207-.517-.518-.517h-5.742c-.31 0-.517.207-.517.517V37.87c0 1.862-.983 3.052-2.741 3.052-1.708 0-2.69-1.19-2.69-3.052V11.902c0-.31-.207-.517-.518-.517h-5.741c-.31 0-.518.207-.518.517v25.14c0 6.621 3.621 9.984 9.467 9.984zm14.173-.983c0 .31.207.517.517.517h5.742c.31 0 .517-.207.517-.517V32.542c0-.207.104-.31.31-.31h7.605c.31 0 .517-.208.517-.518v-5.121c0-.31-.207-.517-.517-.517h-7.604c-.207 0-.31-.104-.31-.31v-7.967c0-.207.103-.31.31-.31h8.794c.31 0 .517-.207.517-.518v-5.069c0-.31-.207-.517-.517-.517H177.39c-.31 0-.517.207-.517.517zm19.967 0c0 .31.207.517.517.517h15.364c.31 0 .517-.207.517-.517v-5.07c0-.31-.207-.517-.517-.517h-8.794c-.207 0-.31-.103-.31-.31V32.18c0-.207.103-.31.31-.31h7.604c.31 0 .517-.208.517-.518v-5.07c0-.31-.207-.517-.517-.517h-7.604c-.207 0-.31-.103-.31-.31v-7.656c0-.207.103-.31.31-.31h8.794c.31 0 .517-.207.517-.518v-5.069c0-.31-.207-.517-.517-.517h-15.364c-.31 0-.517.207-.517.517zm20.174 0c0 .31.207.517.518.517h5.741c.31 0 .518-.207.518-.517V11.902c0-.31-.207-.517-.518-.517h-5.741c-.31 0-.518.207-.518.517zm31.348.517c.258 0 .362-.259.258-.517l-4.81-14.898c2.43-1.655 3.93-4.552 3.93-9 0-7.812-4.034-10.76-10.293-10.76h-8.38c-.31 0-.517.207-.517.517v34.14c0 .311.207.518.517.518h5.742c.31 0 .517-.207.517-.517V33.11c0-.207.104-.31.31-.31h1.966l3.983 13.345c.104.31.259.414.57.414zm-11.225-19.605h-1.5c-.207 0-.31-.103-.31-.31v-9.001c0-.207.103-.31.31-.31h1.5c2.638 0 3.776 1.138 3.776 4.81 0 3.725-1.138 4.811-3.776 4.811zm12.983 19.088c-.051.31.104.517.414.517h5.742c.362 0 .517-.207.57-.517l1.189-6.363h6.673l1.138 6.363c.052.31.207.517.569.517h5.742c.31 0 .465-.207.413-.517l-7.552-34.141c-.052-.31-.258-.517-.569-.517h-6.104c-.31 0-.465.207-.569.517zM259.02 34.3l2.327-12.208h.156l2.224 12.208zM96.902 113.293c-.052.31.104.517.414.517h5.742c.362 0 .517-.207.569-.517l1.19-6.363h6.672l1.138 6.363c.052.31.207.517.57.517h5.741c.31 0 .466-.207.414-.517L111.8 79.152c-.052-.31-.259-.517-.57-.517h-6.103c-.31 0-.466.207-.57.517zm8.897-11.743l2.328-12.208h.155l2.225 12.208zm16.398 11.743c0 .31.207.517.517.517h15.467c.31 0 .518-.207.518-.517v-5.07c0-.31-.207-.517-.518-.517h-8.897c-.207 0-.31-.103-.31-.31V79.152c0-.31-.207-.517-.518-.517h-5.742c-.31 0-.517.207-.517.517zm19.916 0c0 .31.207.517.517.517h5.742c.31 0 .517-.207.517-.517V79.152c0-.31-.207-.517-.517-.517h-5.742c-.31 0-.517.207-.517.517zm11.69-4.863c1.242 3.776 4.087 5.846 8.742 5.846 5.639 0 8.95-3 9.26-8.898 0-.31-.104-.569-.466-.62l-5.431-.932c-.31-.051-.57.104-.57.466-.103 2.793-.982 3.88-2.69 3.88-1.24 0-1.965-.518-2.327-1.604-.207-.776-.31-1.397-.31-10.346s.103-9.57.31-10.345c.362-1.087 1.086-1.604 2.328-1.604 1.707 0 2.586 1.086 2.69 3.88 0 .362.258.517.569.465l5.431-.93c.362-.053.466-.311.466-.622-.31-5.897-3.621-8.897-9.26-8.897-4.655 0-7.5 2.07-8.742 5.845-.465 1.5-.672 3.104-.672 12.208 0 9.105.207 10.708.672 12.208zm18.881 4.863c-.052.31.104.517.414.517h5.742c.362 0 .517-.207.569-.517l1.19-6.363h6.672l1.138 6.363c.052.31.207.517.57.517h5.741c.31 0 .466-.207.414-.517l-7.552-34.141c-.052-.31-.259-.517-.57-.517h-6.103c-.31 0-.466.207-.57.517zm8.897-11.743l2.328-12.208h.155l2.225 12.208zm16.398 11.743c0 .31.207.517.518.517h4.914c.31 0 .517-.207.517-.517V91.205h.259l6.104 22.088c.103.362.31.517.724.517h6.207c.31 0 .517-.207.517-.517V79.152c0-.31-.206-.517-.517-.517h-4.914c-.31 0-.517.207-.517.517v22.088h-.259l-5.845-22.088c-.104-.362-.31-.517-.724-.517h-6.466c-.31 0-.518.207-.518.517zm35.486.517c.31 0 .517-.207.517-.517V85.049c0-.207.104-.31.31-.31h5.535c.31 0 .518-.207.518-.518v-5.069c0-.31-.207-.517-.518-.517H221.36c-.31 0-.517.207-.517.517v5.07c0 .31.207.517.517.517h5.535c.207 0 .31.103.31.31v28.244c0 .31.208.517.518.517zm9.983-.517c0 .31.207.517.518.517h15.363c.31 0 .517-.207.517-.517v-5.07c0-.31-.207-.517-.517-.517h-8.794c-.207 0-.31-.103-.31-.31V99.43c0-.207.103-.31.31-.31h7.604c.31 0 .518-.208.518-.518v-5.07c0-.31-.207-.517-.518-.517h-7.604c-.207 0-.31-.103-.31-.31v-7.656c0-.207.103-.31.31-.31h8.794c.31 0 .517-.207.517-.518v-5.069c0-.31-.207-.517-.517-.517h-15.363c-.31 0-.518.207-.518.517zM91.807 180.543c0 .31.207.517.517.517h8.328c6.88 0 10.398-2.586 10.398-10.346 0-4.707-1.862-7.19-4.449-7.966v-.103c2.587-1.138 4.035-3.31 4.035-7.604 0-6.156-2.897-9.156-9.415-9.156h-8.897c-.31 0-.517.207-.517.517zm7.087-20.226c-.207 0-.31-.104-.31-.31v-8.07c0-.207.103-.31.31-.31h1.5c2.638 0 3.466.93 3.466 4.345 0 3.466-.828 4.345-3.466 4.345zm-.31 14.69v-9c0-.207.103-.31.31-.31h1.5c2.845 0 3.828 1.086 3.828 4.759 0 3.724-.983 4.862-3.828 4.862h-1.5c-.207 0-.31-.103-.31-.31zm16.242 5.536c0 .31.207.517.517.517h15.364c.31 0 .517-.207.517-.517v-5.07c0-.31-.207-.517-.517-.517h-8.794c-.207 0-.31-.103-.31-.31v-7.966c0-.207.103-.31.31-.31h7.604c.31 0 .517-.208.517-.518v-5.07c0-.31-.207-.517-.517-.517h-7.604c-.207 0-.31-.103-.31-.31v-7.656c0-.207.103-.31.31-.31h8.794c.31 0 .517-.207.517-.518v-5.069c0-.31-.207-.517-.517-.517h-15.364c-.31 0-.517.207-.517.517zm20.174 0c0 .31.207.517.517.517h4.914c.31 0 .518-.207.518-.517v-22.088h.258l6.104 22.088c.104.362.31.517.725.517h6.207c.31 0 .517-.207.517-.517v-34.141c0-.31-.207-.517-.517-.517h-4.914c-.31 0-.518.207-.518.517v22.088h-.258l-5.845-22.088c-.104-.362-.31-.517-.725-.517h-6.466c-.31 0-.517.207-.517.517zm24.52 0c0 .31.206.517.516.517h5.742c.31 0 .518-.207.518-.517v-34.141c0-.31-.207-.517-.518-.517h-5.742c-.31 0-.517.207-.517.517zm11.535 0c0 .31.207.517.517.517h8.897c4.863 0 7.708-1.862 9-5.845.622-1.966.932-4.345.932-11.743 0-7.397-.31-9.776-.931-11.742-1.293-3.983-4.138-5.845-9-5.845h-8.898c-.31 0-.517.207-.517.517zm6.776-5.897v-22.347c0-.207.103-.31.31-.31h1.656c1.707 0 2.638.62 3.155 2.172.414 1.087.57 2.587.57 9.311 0 6.725-.156 8.225-.57 9.311-.517 1.552-1.448 2.173-3.155 2.173h-1.656c-.207 0-.31-.103-.31-.31zm26.02 6.88c4.603 0 7.707-2.07 9-5.95.57-1.603.724-3.051.724-12.104 0-9.052-.155-10.5-.724-12.104-1.293-3.88-4.397-5.949-9-5.949-4.604 0-7.708 2.07-9.001 5.949-.57 1.604-.725 3.052-.725 12.104 0 9.053.156 10.501.725 12.105 1.293 3.88 4.397 5.949 9 5.949zm0-6.104c-1.294 0-2.173-.725-2.484-1.707-.258-.828-.362-1.707-.362-10.243 0-8.535.104-9.414.362-10.242.31-.983 1.19-1.707 2.483-1.707 1.294 0 2.173.724 2.483 1.707.259.828.362 1.707.362 10.242 0 8.536-.103 9.415-.362 10.243-.31.982-1.19 1.707-2.483 1.707zm33.778 5.638c.259 0 .362-.259.259-.517l-4.811-14.898c2.431-1.655 3.931-4.552 3.931-9 0-7.812-4.035-10.76-10.294-10.76h-8.38c-.31 0-.517.207-.517.517v34.14c0 .311.207.518.517.518h5.742c.31 0 .517-.207.517-.517V167.61c0-.207.104-.31.31-.31h1.967l3.983 13.345c.103.31.258.414.569.414zm-11.225-19.605h-1.5c-.207 0-.31-.103-.31-.31v-9.001c0-.207.103-.31.31-.31h1.5c2.638 0 3.776 1.138 3.776 4.81 0 3.725-1.138 4.811-3.776 4.811zm14.898 19.088c0 .31.207.517.517.517h5.018c.31 0 .517-.207.517-.517v-20.33h.31l3.828 14.07c.104.311.31.518.673.518h2.845c.362 0 .569-.207.672-.517l3.828-14.07h.31v20.329c0 .31.207.517.518.517h5.017c.31 0 .518-.207.518-.517v-34.141c0-.31-.207-.517-.518-.517h-5.535c-.465 0-.724.155-.827.517l-5.173 18.467h-.207l-5.38-18.467c-.103-.362-.362-.517-.827-.517h-5.587c-.31 0-.517.207-.517.517zM106.653 248.31c.31 0 .517-.207.517-.517v-28.244c0-.207.104-.31.31-.31h5.535c.31 0 .518-.207.518-.518v-5.069c0-.31-.207-.517-.518-.517H94.548c-.31 0-.517.207-.517.517v5.07c0 .31.207.517.517.517h5.535c.207 0 .31.103.31.31v28.244c0 .31.208.517.518.517zm9.983-.517c0 .31.207.517.518.517h15.363c.31 0 .517-.207.517-.517v-5.07c0-.31-.207-.517-.517-.517h-8.794c-.207 0-.31-.103-.31-.31v-7.966c0-.207.103-.31.31-.31h7.604c.31 0 .518-.208.518-.518v-5.07c0-.31-.207-.517-.518-.517h-7.604c-.207 0-.31-.103-.31-.31v-7.656c0-.207.103-.31.31-.31h8.794c.31 0 .517-.207.517-.518v-5.069c0-.31-.207-.517-.517-.517h-15.363c-.31 0-.518.207-.518.517zm20.174 0c0 .31.207.517.518.517h4.914c.31 0 .517-.207.517-.517v-22.088h.259l6.104 22.088c.103.362.31.517.724.517h6.207c.31 0 .518-.207.518-.517v-34.141c0-.31-.207-.517-.518-.517h-4.914c-.31 0-.517.207-.517.517v22.088h-.259l-5.845-22.088c-.103-.362-.31-.517-.724-.517h-6.466c-.31 0-.518.207-.518.517zm24.52 0c0 .31.207.517.517.517h15.363c.31 0 .518-.207.518-.517v-5.07c0-.31-.207-.517-.518-.517h-8.794c-.206 0-.31-.103-.31-.31v-7.966c0-.207.104-.31.31-.31h7.605c.31 0 .517-.208.517-.518v-5.07c0-.31-.207-.517-.517-.517h-7.605c-.206 0-.31-.103-.31-.31v-7.656c0-.207.104-.31.31-.31h8.794c.31 0 .518-.207.518-.518v-5.069c0-.31-.207-.517-.518-.517h-15.363c-.31 0-.517.207-.517.517zm39.986.517c.258 0 .362-.259.258-.517l-4.81-14.898c2.43-1.655 3.931-4.552 3.931-9 0-7.812-4.035-10.76-10.294-10.76h-8.38c-.31 0-.517.207-.517.517v34.14c0 .311.207.518.517.518h5.742c.31 0 .517-.207.517-.517V234.86c0-.207.104-.31.31-.31h1.966l3.983 13.345c.104.31.259.414.57.414zm-11.225-19.605h-1.5c-.207 0-.31-.103-.31-.31v-9.001c0-.207.103-.31.31-.31h1.5c2.638 0 3.776 1.138 3.776 4.81 0 3.725-1.138 4.811-3.776 4.811zm14.897 19.088c0 .31.207.517.518.517h5.742c.31 0 .517-.207.517-.517v-34.141c0-.31-.207-.517-.517-.517h-5.742c-.31 0-.518.207-.518.517zm11.536 0c0 .31.207.517.517.517h5.742c.31 0 .517-.207.517-.517v-13.501c0-.207.104-.31.31-.31h7.605c.31 0 .517-.208.517-.518v-5.121c0-.31-.207-.517-.517-.517h-7.604c-.207 0-.31-.104-.31-.31v-7.967c0-.207.103-.31.31-.31h8.793c.31 0 .518-.207.518-.518v-5.069c0-.31-.207-.517-.518-.517h-15.363c-.31 0-.517.207-.517.517zm19.967 0c0 .31.207.517.517.517h15.364c.31 0 .517-.207.517-.517v-5.07c0-.31-.207-.517-.517-.517h-8.794c-.207 0-.31-.103-.31-.31v-7.966c0-.207.103-.31.31-.31h7.604c.31 0 .517-.208.517-.518v-5.07c0-.31-.207-.517-.517-.517h-7.604c-.207 0-.31-.103-.31-.31v-7.656c0-.207.103-.31.31-.31h8.794c.31 0 .517-.207.517-.518v-5.069c0-.31-.207-.517-.517-.517h-15.364c-.31 0-.517.207-.517.517zM141.182 315.043c0 .31.206.517.517.517h5.742c.31 0 .517-.207.517-.517v-9.518l2.07-4.345 5.172 14.018c.052.259.207.362.517.362h6.156c.258 0 .414-.259.31-.517l-7.914-20.485 7.035-13.656c.155-.259 0-.517-.259-.517h-6c-.31 0-.518.103-.673.414l-6.414 13.604v-13.501c0-.31-.207-.517-.517-.517h-5.742c-.31 0-.517.207-.517.517zm43.917.517c.259 0 .362-.259.259-.517l-4.811-14.898c2.431-1.655 3.931-4.552 3.931-9 0-7.812-4.035-10.76-10.294-10.76h-8.38c-.31 0-.517.207-.517.517v34.14c0 .311.207.518.517.518h5.742c.31 0 .517-.207.517-.517V302.11c0-.207.104-.31.31-.31h1.966l3.983 13.345c.104.31.26.414.57.414zm-11.225-19.605h-1.5c-.207 0-.31-.103-.31-.31v-9.001c0-.207.103-.31.31-.31h1.5c2.638 0 3.776 1.138 3.776 4.81 0 3.725-1.138 4.811-3.776 4.811zm14.898 19.088c0 .31.207.517.517.517h5.742c.31 0 .517-.207.517-.517v-34.141c0-.31-.207-.517-.517-.517h-5.742c-.31 0-.517.207-.517.517zm4.966-38.538c.413 0 .672-.155 1.034-.517l5.38-5.897c.207-.259.052-.517-.259-.517h-5.173c-.413 0-.569.155-.827.517l-4.242 5.897c-.207.258-.052.517.259.517zm17.535 39.055c.31 0 .518-.207.518-.517v-28.244c0-.207.103-.31.31-.31h5.535c.31 0 .517-.207.517-.518v-5.069c0-.31-.207-.517-.517-.517h-18.467c-.31 0-.517.207-.517.517v5.07c0 .31.207.517.517.517h5.535c.207 0 .31.103.31.31v28.244c0 .31.207.517.518.517zM90.126 382.293c0 .31.207.517.517.517h5.018c.31 0 .517-.207.517-.517v-20.33h.31l3.828 14.07c.104.311.31.518.673.518h2.845c.362 0 .569-.207.672-.517l3.828-14.07h.31v20.329c0 .31.207.517.518.517h5.017c.31 0 .518-.207.518-.517v-34.141c0-.31-.207-.517-.518-.517h-5.535c-.465 0-.724.155-.827.517l-5.173 18.467h-.207l-5.38-18.467c-.103-.362-.362-.517-.827-.517h-5.587c-.31 0-.517.207-.517.517zm27.416 0c-.052.31.103.517.413.517h5.742c.362 0 .518-.207.57-.517l1.19-6.363h6.672l1.138 6.363c.052.31.207.517.57.517h5.74c.311 0 .466-.207.415-.517l-7.553-34.141c-.051-.31-.258-.517-.569-.517h-6.104c-.31 0-.465.207-.569.517zm8.897-11.743l2.328-12.208h.155l2.224 12.208zm16.398 11.743c0 .31.207.517.517.517h15.467c.31 0 .517-.207.517-.517v-5.07c0-.31-.207-.517-.517-.517h-8.897c-.207 0-.31-.103-.31-.31v-28.244c0-.31-.208-.517-.518-.517h-5.742c-.31 0-.517.207-.517.517zm19.915 0c0 .31.207.517.518.517h15.466c.31 0 .518-.207.518-.517v-5.07c0-.31-.207-.517-.518-.517h-8.897c-.207 0-.31-.103-.31-.31v-28.244c0-.31-.207-.517-.518-.517h-5.741c-.31 0-.518.207-.518.517zm27.882.983c4.604 0 7.707-2.07 9-5.95.57-1.603.725-3.051.725-12.104 0-9.052-.155-10.5-.724-12.104-1.294-3.88-4.397-5.949-9.001-5.949-4.604 0-7.708 2.07-9 5.949-.57 1.604-.725 3.052-.725 12.104 0 9.053.155 10.501.724 12.105 1.293 3.88 4.397 5.949 9 5.949zm0-6.104c-1.293 0-2.173-.725-2.483-1.707-.259-.828-.362-1.707-.362-10.243 0-8.535.103-9.414.362-10.242.31-.983 1.19-1.707 2.483-1.707 1.293 0 2.172.724 2.483 1.707.258.828.362 1.707.362 10.242 0 8.536-.104 9.415-.362 10.243-.31.982-1.19 1.707-2.483 1.707zm33.778 5.638c.26 0 .363-.259.26-.517l-4.812-14.898c2.432-1.655 3.932-4.552 3.932-9 0-7.812-4.035-10.76-10.294-10.76h-8.38c-.31 0-.518.207-.518.517v34.14c0 .311.207.518.518.518h5.742c.31 0 .517-.207.517-.517V369.36c0-.207.103-.31.31-.31h1.966l3.983 13.345c.103.31.259.414.569.414zm-11.225-19.605h-1.5c-.207 0-.31-.103-.31-.31v-9.001c0-.207.103-.31.31-.31h1.5c2.639 0 3.777 1.138 3.777 4.81 0 3.725-1.138 4.811-3.777 4.811zm14.95 14.225c1.241 3.776 4.086 5.846 8.742 5.846 5.638 0 8.949-3 9.26-8.898 0-.31-.104-.569-.466-.62l-5.432-.932c-.31-.051-.569.104-.569.466-.103 2.793-.983 3.88-2.69 3.88-1.241 0-1.965-.518-2.327-1.604-.207-.776-.31-1.397-.31-10.346s.103-9.57.31-10.345c.362-1.087 1.086-1.604 2.327-1.604 1.707 0 2.587 1.086 2.69 3.88 0 .362.259.517.57.465l5.43-.93c.363-.053.466-.311.466-.622-.31-5.897-3.62-8.897-9.26-8.897-4.655 0-7.5 2.07-8.741 5.845-.466 1.5-.673 3.104-.673 12.208 0 9.105.207 10.708.673 12.208zm18.88 4.863c-.051.31.104.517.415.517h5.741c.362 0 .518-.207.57-.517l1.19-6.363h6.672l1.138 6.363c.052.31.207.517.57.517h5.741c.31 0 .466-.207.414-.517l-7.553-34.141c-.051-.31-.258-.517-.569-.517h-6.103c-.31 0-.466.207-.57.517zm8.898-11.743l2.328-12.208h.155l2.224 12.208z" fill="#fff"/></svg>