<svg width="1228.984" height="98" viewBox="0 0 1228.984 98" xmlns="http://www.w3.org/2000/svg"><path d="M229.418 65.127c0 .416.277.693.693.693h11.154c9.215 0 13.926-3.464 13.926-13.857 0-6.304-2.494-9.63-5.958-10.67v-.138c3.464-1.524 5.404-4.434 5.404-10.184 0-8.245-3.88-12.263-12.61-12.263h-11.916c-.416 0-.693.277-.693.692zm9.491-27.09c-.277 0-.415-.138-.415-.415V26.814c0-.277.138-.416.415-.416h2.01c3.533 0 4.642 1.247 4.642 5.82 0 4.642-1.109 5.82-4.642 5.82zm-.415 19.677V45.659c0-.277.138-.416.415-.416h2.01c3.81 0 5.127 1.455 5.127 6.374 0 4.988-1.317 6.513-5.127 6.513h-2.01c-.277 0-.415-.139-.415-.416zm36.165-44.203c.555 0 .901-.207 1.386-.692l7.206-7.899c.277-.346.069-.692-.347-.692h-6.928c-.554 0-.762.207-1.109.692l-5.68 7.899c-.278.346-.07.692.345.692zm-2.078 52.933c6.166 0 10.323-2.772 12.055-7.968.762-2.148.97-4.088.97-16.212 0-12.125-.208-14.065-.97-16.212-1.732-5.197-5.889-7.968-12.055-7.968-6.166 0-10.323 2.771-12.055 7.968-.762 2.147-.97 4.087-.97 16.212 0 12.124.208 14.064.97 16.212 1.732 5.196 5.889 7.968 12.055 7.968zm0-8.176c-1.732 0-2.91-.97-3.326-2.286-.346-1.109-.485-2.286-.485-13.718s.139-12.61.485-13.718c.416-1.317 1.594-2.287 3.326-2.287s2.91.97 3.326 2.287c.346 1.108.485 2.286.485 13.718s-.14 12.61-.485 13.718c-.416 1.316-1.594 2.286-3.326 2.286zm18.706 6.86c0 .415.277.692.693.692h7.69c.416 0 .693-.277.693-.693V52.38l2.772-5.82 6.928 18.776c.07.346.277.485.693.485H319c.347 0 .555-.346.416-.693l-10.6-27.436 9.422-18.29c.208-.347 0-.693-.346-.693h-8.037c-.416 0-.693.138-.9.554l-8.592 18.221V19.4c0-.415-.277-.692-.692-.692h-7.69c-.417 0-.694.277-.694.692zm29.723 0c-.07.415.138.692.554.692h7.69c.485 0 .693-.277.762-.693l1.594-8.522h8.937l1.525 8.522c.069.416.277.693.762.693h7.69c.416 0 .624-.277.554-.693L340.963 19.4c-.07-.415-.346-.692-.762-.692h-8.175c-.416 0-.624.277-.762.692zM332.926 49.4l3.118-16.35h.208l2.979 16.35zm34.572 16.42c6.513 0 10.324-2.494 12.056-7.829.831-2.633 1.247-5.82 1.247-15.727 0-9.908-.416-13.095-1.247-15.727-1.732-5.335-5.543-7.83-12.056-7.83h-11.916c-.416 0-.693.278-.693.693v18.984c0 .277-.139.416-.416.416h-1.87c-.416 0-.693.277-.693.693v5.126c0 .416.277.693.693.693h1.87c.277 0 .416.139.416.416v19.4c0 .415.277.692.693.692zm-.9-8.175h-2.217c-.277 0-.416-.139-.416-.416V45.728c0-.277.139-.416.416-.416h3.048c.416 0 .693-.277.693-.693v-5.057c0-.416-.277-.693-.693-.693h-3.048c-.277 0-.416-.139-.416-.416V27.3c0-.277.139-.416.416-.416h2.217c2.286 0 3.533.831 4.226 2.91.485 1.455.762 3.464.762 12.47 0 9.008-.277 11.017-.762 12.472-.693 2.078-1.94 2.91-4.226 2.91zm32.424 8.799c7.898 0 12.748-4.504 12.748-13.372V19.4c0-.415-.277-.692-.693-.692h-7.69c-.416 0-.693.277-.693.692v34.78c0 2.495-1.316 4.088-3.672 4.088-2.286 0-3.603-1.593-3.603-4.088V19.4c0-.415-.277-.692-.692-.692h-7.69c-.416 0-.694.277-.694.692v33.672c0 8.868 4.85 13.372 12.68 13.372zm29.93-1.317c-.069.416.139.693.555.693h7.69c.485 0 .693-.277.762-.693l1.594-8.522h8.937l1.524 8.522c.07.416.277.693.762.693h7.69c.417 0 .624-.277.555-.693L448.906 19.4c-.07-.415-.347-.692-.762-.692h-8.176c-.415 0-.623.277-.762.692zM440.87 49.4l3.118-16.35h.208l2.979 16.35zm21.963 15.727c0 .416.277.693.692.693h20.716c.416 0 .693-.277.693-.693v-6.79c0-.415-.277-.692-.693-.692h-11.917c-.277 0-.415-.139-.415-.416V19.4c0-.415-.277-.692-.693-.692h-7.69c-.416 0-.693.277-.693.692zm26.674 0c0 .416.277.693.692.693h20.716c.416 0 .693-.277.693-.693v-6.79c0-.415-.277-.692-.693-.692h-11.917c-.277 0-.415-.139-.415-.416V19.4c0-.415-.278-.692-.693-.692h-7.69c-.416 0-.693.277-.693.692zm35.126.693c.416 0 .693-.277.693-.693V27.3c0-.277.138-.416.415-.416h7.414c.415 0 .693-.277.693-.693V19.4c0-.415-.278-.692-.693-.692H508.42c-.416 0-.693.277-.693.692v6.79c0 .416.277.693.693.693h7.413c.277 0 .416.139.416.416v37.828c0 .416.277.693.693.693zm23.625-.693c-.069.416.139.693.555.693h7.69c.485 0 .693-.277.762-.693l1.594-8.522h8.937l1.524 8.522c.07.416.278.693.763.693h7.69c.416 0 .623-.277.554-.693L568.211 19.4c-.07-.415-.347-.692-.762-.692h-8.176c-.415 0-.623.277-.762.692zM560.174 49.4l3.118-16.35h.208l2.979 16.35zm5.473-35.889c.555 0 .901-.207 1.386-.692l7.205-7.899c.278-.346.07-.692-.346-.692h-6.928c-.554 0-.762.207-1.109.692l-5.68 7.899c-.278.346-.07.692.345.692zm30 51.616c0 .416.277.693.693.693h20.577c.415 0 .693-.277.693-.693v-6.79c0-.415-.278-.692-.693-.692h-11.778c-.277 0-.416-.139-.416-.416v-10.67c0-.277.139-.415.416-.415h10.184c.416 0 .693-.277.693-.693v-6.79c0-.416-.277-.693-.693-.693H605.14c-.277 0-.416-.138-.416-.415V27.299c0-.277.139-.416.416-.416h11.778c.415 0 .693-.277.693-.693V19.4c0-.415-.278-.692-.693-.692H596.34c-.416 0-.693.277-.693.692zm27.02 0c0 .416.277.693.693.693h7.69c.416 0 .693-.277.693-.693V19.4c0-.415-.277-.692-.693-.692h-7.69c-.416 0-.693.277-.693.692zm15.45 0c0 .416.277.693.693.693h6.582c.416 0 .693-.277.693-.693V35.543h.346l8.176 29.584c.138.485.415.693.97.693h8.313c.416 0 .693-.277.693-.693V19.4c0-.415-.277-.692-.693-.692h-6.581c-.416 0-.693.277-.693.692v29.584h-.347L648.44 19.4c-.138-.484-.415-.692-.97-.692h-8.66c-.416 0-.693.277-.693.692zm45.38 1.317c7.899 0 12.749-4.504 12.749-13.372V19.4c0-.415-.278-.692-.693-.692h-7.69c-.416 0-.693.277-.693.692v34.78c0 2.495-1.317 4.088-3.672 4.088-2.287 0-3.603-1.593-3.603-4.088V19.4c0-.415-.277-.692-.693-.692h-7.69c-.416 0-.693.277-.693.692v33.672c0 8.868 4.85 13.372 12.679 13.372zm18.984-1.317c0 .416.277.693.693.693h6.72c.416 0 .693-.277.693-.693V37.9h.416l5.127 18.845c.138.416.415.693.9.693h3.811c.485 0 .762-.277.9-.693l5.128-18.845h.415v27.228c0 .416.277.693.693.693h6.72c.416 0 .693-.277.693-.693V19.4c0-.415-.277-.692-.692-.692h-7.414c-.623 0-.97.208-1.108.692l-6.929 24.734h-.277L711.765 19.4c-.139-.484-.485-.692-1.109-.692h-7.482c-.416 0-.693.277-.693.692zm77.181-13.302c0-7.968-2.494-11.432-8.937-13.926l-2.84-1.109c-3.673-1.454-4.435-2.563-4.435-6.096 0-3.187 1.178-4.712 3.603-4.712 2.494 0 3.672 1.732 3.74 5.127 0 .416.347.624.763.555l7.067-1.109c.416-.07.623-.346.623-.762-.346-7.413-4.226-11.709-12.47-11.709-8.384 0-12.471 4.573-12.471 13.095 0 7.551 2.286 11.085 8.937 13.648l2.84 1.109c3.534 1.385 4.366 2.84 4.366 6.997 0 4.296-1.178 5.612-3.742 5.612-2.702 0-3.949-1.732-4.087-6.097 0-.415-.278-.623-.763-.554l-7.413 1.178c-.416.07-.554.346-.554.762.138 8.106 4.226 12.61 12.748 12.61 9.353 0 13.025-4.989 13.025-14.62zm18.776 13.995c.415 0 .693-.277.693-.693V27.3c0-.277.138-.416.415-.416h7.414c.415 0 .692-.277.692-.693V19.4c0-.415-.277-.692-.692-.692h-24.734c-.416 0-.693.277-.693.692v6.79c0 .416.277.693.693.693h7.413c.277 0 .416.139.416.416v37.828c0 .416.277.693.692.693zm7.344-.693c-.07.416.138.693.554.693h7.69c.485 0 .693-.277.763-.693l1.593-8.522h8.938l1.524 8.522c.069.416.277.693.762.693h7.69c.416 0 .624-.277.555-.693L825.735 19.4c-.07-.415-.346-.692-.762-.692h-8.175c-.416 0-.624.277-.762.692zM817.698 49.4l3.118-16.35h.208l2.98 16.35zm34.573 16.42c6.512 0 10.323-2.494 12.055-7.829.831-2.633 1.247-5.82 1.247-15.727 0-9.908-.416-13.095-1.247-15.727-1.732-5.335-5.543-7.83-12.055-7.83h-11.917c-.416 0-.693.278-.693.693v18.984c0 .277-.138.416-.416.416h-1.87c-.416 0-.693.277-.693.693v5.126c0 .416.277.693.693.693h1.87c.278 0 .416.139.416.416v19.4c0 .415.277.692.693.692zm-.901-8.175h-2.217c-.277 0-.416-.139-.416-.416V45.728c0-.277.139-.416.416-.416h3.048c.416 0 .693-.277.693-.693v-5.057c0-.416-.277-.693-.693-.693h-3.048c-.277 0-.416-.139-.416-.416V27.3c0-.277.139-.416.416-.416h2.217c2.286 0 3.533.831 4.226 2.91.485 1.455.762 3.464.762 12.47 0 9.008-.277 11.017-.762 12.472-.693 2.078-1.94 2.91-4.226 2.91zm45.934 8.799c7.899 0 12.748-4.504 12.748-13.372V19.4c0-.415-.277-.692-.692-.692h-7.69c-.416 0-.694.277-.694.692v34.78c0 2.495-1.316 4.088-3.672 4.088-2.286 0-3.602-1.593-3.602-4.088V19.4c0-.415-.277-.692-.693-.692h-7.69c-.416 0-.693.277-.693.692v33.672c0 8.868 4.85 13.372 12.678 13.372zm31.524 0c7.898 0 12.748-4.504 12.748-13.372V19.4c0-.415-.277-.692-.693-.692h-7.69c-.416 0-.693.277-.693.692v34.78c0 2.495-1.316 4.088-3.672 4.088-2.286 0-3.603-1.593-3.603-4.088V19.4c0-.415-.277-.692-.692-.692h-7.69c-.417 0-.694.277-.694.692v33.672c0 8.868 4.85 13.372 12.68 13.372zm17.737-1.317c0 .416.277.693.692.693h7.067c.416 0 .693-.277.693-.693V57.09c0-.415-.277-.692-.693-.692h-7.067c-.415 0-.692.277-.692.692zm14.618 0c0 .416.277.693.693.693h7.69c.416 0 .693-.277.693-.693V19.4c0-.415-.277-.692-.693-.692h-7.69c-.416 0-.693.277-.693.692zm39.838-13.302c0-7.968-2.494-11.432-8.938-13.926l-2.84-1.109c-3.672-1.454-4.434-2.563-4.434-6.096 0-3.187 1.177-4.712 3.602-4.712 2.495 0 3.672 1.732 3.742 5.127 0 .416.346.624.762.555l7.067-1.109c.415-.07.623-.346.623-.762-.346-7.413-4.226-11.709-12.47-11.709-8.384 0-12.472 4.573-12.472 13.095 0 7.551 2.287 11.085 8.938 13.648l2.84 1.109c3.534 1.385 4.365 2.84 4.365 6.997 0 4.296-1.178 5.612-3.741 5.612-2.702 0-3.95-1.732-4.088-6.097 0-.415-.277-.623-.762-.554l-7.413 1.178c-.416.07-.554.346-.554.762.138 8.106 4.226 12.61 12.748 12.61 9.353 0 13.025-4.989 13.025-14.62z" fill="#fff"/></svg>