<svg width="1379.921" height="98" viewBox="0 0 1379.921 98" xmlns="http://www.w3.org/2000/svg"><path d="M297.023 65.127c0 .416.277.693.693.693h7.69c.416 0 .693-.277.693-.693V47.044c0-.277.139-.415.416-.415h10.184c.416 0 .693-.277.693-.693v-6.86c0-.415-.277-.692-.693-.692h-10.184c-.277 0-.416-.139-.416-.416v-10.67c0-.276.139-.415.416-.415h11.778c.415 0 .693-.277.693-.693V19.4c0-.415-.278-.692-.693-.692h-20.577c-.416 0-.693.277-.693.692zm53.278.693c.347 0 .485-.346.347-.693l-6.443-19.953c3.256-2.217 5.265-6.097 5.265-12.056 0-10.461-5.404-14.41-13.787-14.41h-11.224c-.416 0-.693.277-.693.692v45.727c0 .416.277.693.693.693h7.69c.416 0 .693-.277.693-.693v-17.32c0-.278.139-.416.416-.416h2.633l5.334 17.875c.139.415.347.554.763.554zm-15.034-26.258h-2.01c-.276 0-.415-.139-.415-.416V27.091c0-.277.139-.416.416-.416h2.01c3.533 0 5.057 1.524 5.057 6.443 0 4.989-1.524 6.444-5.058 6.444zm17.39 25.565c-.07.416.139.693.554.693h7.69c.486 0 .694-.277.763-.693l1.593-8.522h8.938l1.524 8.522c.07.416.277.693.762.693h7.69c.416 0 .624-.277.555-.693L372.61 19.4c-.07-.415-.347-.692-.763-.692h-8.175c-.416 0-.623.277-.762.692zM364.574 49.4l3.117-16.35h.208l2.98 16.35zm5.473-35.889c.554 0 .9-.207 1.386-.692l7.205-7.899c.277-.346.07-.692-.346-.692h-6.929c-.554 0-.762.207-1.108.692l-5.681 7.899c-.277.346-.07.692.346.692zm16.49 51.616c0 .416.277.693.692.693h11.155c9.214 0 13.926-3.464 13.926-13.857 0-6.304-2.495-9.63-5.959-10.67v-.138c3.464-1.524 5.404-4.434 5.404-10.184 0-8.245-3.88-12.263-12.61-12.263H387.23c-.415 0-.693.277-.693.692zm9.491-27.09c-.277 0-.416-.138-.416-.415V26.814c0-.277.139-.416.416-.416h2.01c3.533 0 4.641 1.247 4.641 5.82 0 4.642-1.108 5.82-4.642 5.82zm-.416 19.677V45.659c0-.277.139-.416.416-.416h2.01c3.81 0 5.126 1.455 5.126 6.374 0 4.988-1.316 6.513-5.127 6.513h-2.009c-.277 0-.416-.139-.416-.416zm61.108 8.106c.416 0 .693-.277.693-.693v-6.79c0-.415-.277-.692-.693-.692h-11.778c-.277 0-.416-.139-.416-.416v-10.67c0-.277.139-.415.416-.415h10.184c.416 0 .693-.277.693-.693v-6.79c0-.416-.277-.693-.693-.693h-10.184c-.277 0-.416-.138-.416-.415V27.299c0-.277.139-.416.416-.416h11.778c.416 0 .693-.277.693-.693V19.4c0-.415-.277-.692-.693-.692h-26.535c-.416 0-.624.277-.763.692l-16.281 45.727c-.139.416.07.693.485.693h7.621c.416 0 .762-.277.9-.693l2.91-8.522h9.977c.278 0 .416.139.416.416v8.106c0 .416.277.693.693.693zm-21.547-38.937h.277v22.101c0 .277-.138.416-.416.416h-7.551zm53.833 38.937c.346 0 .485-.346.346-.693l-6.443-19.953c3.256-2.217 5.265-6.097 5.265-12.056 0-10.461-5.404-14.41-13.787-14.41h-11.224c-.415 0-.693.277-.693.692v45.727c0 .416.278.693.693.693h7.69c.416 0 .693-.277.693-.693v-17.32c0-.278.139-.416.416-.416h2.633l5.335 17.875c.138.415.346.554.762.554zM473.97 39.562h-2.009c-.277 0-.416-.139-.416-.416V27.091c0-.277.139-.416.416-.416h2.01c3.533 0 5.057 1.524 5.057 6.443 0 4.989-1.524 6.444-5.058 6.444zm19.954 25.565c0 .416.277.693.693.693h7.69c.416 0 .693-.277.693-.693V19.4c0-.415-.277-.692-.693-.692h-7.69c-.416 0-.693.277-.693.692zm41.985.693c.347 0 .485-.346.347-.693l-6.444-19.953c3.257-2.217 5.266-6.097 5.266-12.056 0-10.461-5.404-14.41-13.787-14.41h-11.224c-.416 0-.693.277-.693.692v45.727c0 .416.277.693.693.693h7.69c.416 0 .693-.277.693-.693v-17.32c0-.278.139-.416.416-.416h2.632l5.335 17.875c.139.415.347.554.762.554zm-15.034-26.258h-2.01c-.276 0-.415-.139-.415-.416V27.091c0-.277.139-.416.416-.416h2.009c3.533 0 5.057 1.524 5.057 6.443 0 4.989-1.524 6.444-5.057 6.444zm33.463 25.565c0 .416.278.693.693.693h7.69c.416 0 .694-.277.694-.693V47.044c0-.277.138-.415.415-.415h10.185c.415 0 .693-.277.693-.693v-6.86c0-.415-.278-.692-.693-.692H563.83c-.277 0-.415-.139-.415-.416v-10.67c0-.276.138-.415.415-.415h11.778c.416 0 .693-.277.693-.693V19.4c0-.415-.277-.692-.693-.692h-20.577c-.415 0-.693.277-.693.692zm26.744 0c0 .416.277.693.692.693h20.716c.416 0 .693-.277.693-.693v-6.79c0-.415-.277-.692-.693-.692h-11.917c-.277 0-.415-.139-.415-.416V19.4c0-.415-.277-.692-.693-.692h-7.69c-.416 0-.693.277-.693.692zm37.55 1.317c7.9 0 12.749-4.504 12.749-13.372V19.4c0-.415-.277-.692-.693-.692H623c-.416 0-.693.277-.693.692v34.78c0 2.495-1.316 4.088-3.672 4.088-2.286 0-3.603-1.593-3.603-4.088V19.4c0-.415-.277-.692-.693-.692h-7.69c-.416 0-.693.277-.693.692v33.672c0 8.868 4.85 13.372 12.679 13.372zm19.192-7.899c1.732 5.127 5.82 7.899 12.125 7.899 6.166 0 10.254-2.772 11.986-7.968.762-2.148.97-4.088.97-16.212v-2.079c0-.415-.277-.692-.693-.692H650.78c-.416 0-.693.277-.693.692v6.097c0 .416.277.693.693.693h2.98c.276 0 .415.139.415.416 0 6.928-.139 7.62-.416 8.59-.415 1.386-1.87 2.287-3.602 2.287-1.732 0-3.187-.9-3.603-2.286-.346-1.04-.416-1.663-.416-13.718 0-12.125.07-12.679.416-13.787.416-1.317 1.801-2.218 3.464-2.218 2.356 0 3.741 1.594 3.95 4.989.068.485.346.693.761.623l7.344-1.247c.416-.069.624-.415.555-.831-.624-7.621-5.058-11.709-12.68-11.709-6.304 0-10.392 2.771-12.124 7.898-.693 2.217-.9 4.157-.9 16.282 0 12.124.207 14.064.9 16.281zm44.064 7.275c.416 0 .693-.277.693-.693V27.3c0-.277.139-.416.416-.416h7.413c.416 0 .693-.277.693-.693V19.4c0-.415-.277-.692-.693-.692h-24.734c-.416 0-.693.277-.693.692v6.79c0 .416.277.693.693.693h7.413c.277 0 .416.139.416.416v37.828c0 .416.277.693.693.693zm13.372-.693c0 .416.277.693.693.693h7.69c.416 0 .693-.277.693-.693V19.4c0-.415-.277-.692-.693-.692h-7.69c-.416 0-.693.277-.693.692zm6.65-51.616c.555 0 .902-.207 1.387-.692l7.205-7.899c.277-.346.07-.692-.346-.692h-6.929c-.554 0-.762.207-1.108.692l-5.681 7.899c-.278.346-.07.692.346.692zm8.8 51.616c0 .416.277.693.693.693h6.72c.416 0 .693-.277.693-.693V37.9h.416l5.127 18.845c.138.416.415.693.9.693h3.81c.486 0 .763-.277.901-.693l5.127-18.845h.416v27.228c0 .416.277.693.693.693h6.72c.416 0 .693-.277.693-.693V19.4c0-.415-.277-.692-.693-.692h-7.413c-.623 0-.97.208-1.108.692l-6.929 24.734h-.277L719.995 19.4c-.139-.484-.485-.692-1.109-.692h-7.482c-.416 0-.693.277-.693.692zm36.72 0c-.07.416.138.693.554.693h7.69c.485 0 .693-.277.763-.693l1.593-8.522h8.938l1.524 8.522c.069.416.277.693.762.693h7.69c.416 0 .624-.277.555-.693L767.384 19.4c-.07-.415-.346-.692-.762-.692h-8.175c-.416 0-.624.277-.762.692zM759.347 49.4l3.118-16.35h.208l2.98 16.35zm48.498 16.42c.347 0 .485-.346.347-.693l-6.443-19.953c3.256-2.217 5.265-6.097 5.265-12.056 0-10.461-5.404-14.41-13.787-14.41h-11.224c-.416 0-.693.277-.693.692v45.727c0 .416.277.693.693.693h7.69c.416 0 .693-.277.693-.693v-17.32c0-.278.139-.416.416-.416h2.633l5.334 17.875c.139.415.347.554.762.554zm-15.034-26.258h-2.01c-.276 0-.415-.139-.415-.416V27.091c0-.277.139-.416.416-.416h2.009c3.533 0 5.058 1.524 5.058 6.443 0 4.989-1.525 6.444-5.058 6.444zm33.464 25.565c0 .416.277.693.692.693h11.155c9.215 0 13.926-3.464 13.926-13.857 0-6.304-2.494-9.63-5.958-10.67v-.138c3.464-1.524 5.404-4.434 5.404-10.184 0-8.245-3.88-12.263-12.61-12.263h-11.917c-.415 0-.692.277-.692.692zm9.491-27.09c-.277 0-.415-.138-.415-.415V26.814c0-.277.138-.416.415-.416h2.01c3.533 0 4.642 1.247 4.642 5.82 0 4.642-1.109 5.82-4.642 5.82zm-.415 19.677V45.659c0-.277.138-.416.415-.416h2.01c3.81 0 5.127 1.455 5.127 6.374 0 4.988-1.317 6.513-5.127 6.513h-2.01c-.277 0-.415-.139-.415-.416zm21.755 7.413c0 .416.277.693.692.693h20.577c.416 0 .693-.277.693-.693v-6.79c0-.415-.277-.692-.693-.692h-11.778c-.277 0-.415-.139-.415-.416v-10.67c0-.277.138-.415.415-.415h10.185c.416 0 .693-.277.693-.693v-6.79c0-.416-.277-.693-.693-.693h-10.185c-.277 0-.415-.138-.415-.415V27.299c0-.277.138-.416.415-.416h11.778c.416 0 .693-.277.693-.693V19.4c0-.415-.277-.692-.693-.692h-20.577c-.415 0-.692.277-.692.692zm27.02 0c0 .416.277.693.693.693h7.69c.416 0 .693-.277.693-.693V19.4c0-.415-.277-.692-.693-.692h-7.69c-.416 0-.693.277-.693.692zm15.45 0c0 .416.277.693.693.693h6.582c.415 0 .692-.277.692-.693V35.543h.347l8.175 29.584c.139.485.416.693.97.693h8.314c.416 0 .693-.277.693-.693V19.4c0-.415-.277-.692-.693-.692h-6.582c-.415 0-.693.277-.693.692v29.584h-.346L909.899 19.4c-.139-.484-.416-.692-.97-.692h-8.66c-.416 0-.693.277-.693.692zm47.528.693c.416 0 .693-.277.693-.693V27.3c0-.277.138-.416.415-.416h7.414c.415 0 .693-.277.693-.693V19.4c0-.415-.278-.692-.693-.692h-24.734c-.416 0-.693.277-.693.692v6.79c0 .416.277.693.693.693h7.413c.277 0 .416.139.416.416v37.828c0 .416.277.693.693.693zm26.189-.693c0 .416.277.693.693.693h7.69c.416 0 .693-.277.693-.693V19.4c0-.415-.277-.692-.693-.692h-7.69c-.416 0-.693.277-.693.692zm6.651-51.616c.554 0 .9-.207 1.386-.692l7.205-7.899c.277-.346.07-.692-.346-.692h-6.929c-.554 0-.762.207-1.108.692l-5.681 7.899c-.277.346-.07.692.346.692zm46.697 38.314c0-7.968-2.495-11.432-8.938-13.926l-2.84-1.109c-3.672-1.454-4.435-2.563-4.435-6.096 0-3.187 1.178-4.712 3.603-4.712 2.494 0 3.672 1.732 3.741 5.127 0 .416.347.624.763.555l7.066-1.109c.416-.07.624-.346.624-.762-.346-7.413-4.226-11.709-12.471-11.709-8.383 0-12.47 4.573-12.47 13.095 0 7.551 2.285 11.085 8.937 13.648l2.84 1.109c3.534 1.385 4.365 2.84 4.365 6.997 0 4.296-1.178 5.612-3.741 5.612-2.702 0-3.95-1.732-4.088-6.097 0-.415-.277-.623-.762-.554l-7.413 1.178c-.416.07-.555.346-.555.762.139 8.106 4.227 12.61 12.748 12.61 9.354 0 13.026-4.989 13.026-14.62zm19.33-38.314c.554 0 .9-.207 1.385-.692l7.206-7.899c.277-.346.069-.692-.347-.692h-6.928c-.554 0-.762.207-1.109.692l-5.68 7.899c-.278.346-.07.692.346.692zm-2.079 52.933c6.166 0 10.323-2.772 12.055-7.968.762-2.148.97-4.088.97-16.212 0-12.125-.208-14.065-.97-16.212-1.732-5.197-5.889-7.968-12.055-7.968-6.166 0-10.323 2.771-12.055 7.968-.762 2.147-.97 4.087-.97 16.212 0 12.124.208 14.064.97 16.212 1.732 5.196 5.889 7.968 12.055 7.968zm0-8.176c-1.732 0-2.91-.97-3.325-2.286-.347-1.109-.485-2.286-.485-13.718s.138-12.61.485-13.718c.415-1.317 1.593-2.287 3.325-2.287 1.732 0 2.91.97 3.326 2.287.346 1.108.485 2.286.485 13.718s-.139 12.61-.485 13.718c-.416 1.316-1.594 2.286-3.326 2.286zm18.706 6.86c0 .415.278.692.693.692h20.716c.416 0 .693-.277.693-.693v-6.79c0-.415-.277-.692-.693-.692h-11.917c-.277 0-.415-.139-.415-.416V19.4c0-.415-.278-.692-.693-.692h-7.69c-.416 0-.694.277-.694.692z" fill="#fff"/></svg>