<svg width="1228.984" height="98" viewBox="0 0 1228.984 98" xmlns="http://www.w3.org/2000/svg"><path d="M212.755 65.127c0 .416.277.693.693.693h6.72c.416 0 .693-.277.693-.693V37.9h.416l5.127 18.845c.138.416.416.693.9.693h3.811c.485 0 .762-.277.9-.693l5.128-18.845h.415v27.228c0 .416.278.693.693.693h6.72c.416 0 .694-.277.694-.693V19.4c0-.415-.278-.692-.693-.692h-7.414c-.623 0-.97.208-1.108.692l-6.928 24.734h-.277L222.039 19.4c-.138-.484-.485-.692-1.108-.692h-7.483c-.416 0-.693.277-.693.692zm39.284 0c0 .416.277.693.692.693h7.69c.417 0 .694-.277.694-.693V19.4c0-.415-.277-.692-.693-.692h-7.69c-.416 0-.693.277-.693.692zm15.45 0c0 .416.277.693.692.693h7.69c.417 0 .694-.277.694-.693V52.38l2.771-5.82 6.928 18.776c.07.346.277.485.693.485h8.245c.346 0 .554-.346.415-.693l-10.6-27.436 9.423-18.29c.208-.347 0-.693-.347-.693h-8.037c-.415 0-.692.138-.9.554l-8.591 18.221V19.4c0-.415-.277-.692-.693-.692h-7.69c-.416 0-.693.277-.693.692zm32.285 0c0 .416.278.693.693.693h7.69c.416 0 .694-.277.694-.693V19.4c0-.415-.278-.692-.693-.692h-7.69c-.416 0-.694.277-.694.692zm28.06.693c6.513 0 10.323-2.494 12.055-7.829.832-2.633 1.247-5.82 1.247-15.727 0-9.908-.415-13.095-1.247-15.727-1.732-5.335-5.542-7.83-12.055-7.83h-11.917c-.415 0-.692.278-.692.693v18.984c0 .277-.139.416-.416.416h-1.87c-.416 0-.694.277-.694.693v5.126c0 .416.278.693.693.693h1.87c.278 0 .417.139.417.416v19.4c0 .415.277.692.692.692zm-.9-8.175h-2.218c-.277 0-.415-.139-.415-.416V45.728c0-.277.138-.416.415-.416h3.049c.415 0 .693-.277.693-.693v-5.057c0-.416-.278-.693-.693-.693h-3.049c-.277 0-.415-.139-.415-.416V27.3c0-.277.138-.416.415-.416h2.217c2.287 0 3.534.831 4.227 2.91.485 1.455.762 3.464.762 12.47 0 9.008-.277 11.017-.762 12.472-.693 2.078-1.94 2.91-4.227 2.91zM375.43 13.51c.555 0 .901-.207 1.386-.692l7.205-7.899c.278-.346.07-.692-.346-.692h-6.928c-.555 0-.762.207-1.109.692l-5.681 7.899c-.277.346-.07.692.346.692zm-2.563 52.933c7.898 0 12.748-4.504 12.748-13.372V19.4c0-.415-.277-.692-.693-.692h-7.69c-.416 0-.693.277-.693.692v34.78c0 2.495-1.317 4.088-3.672 4.088-2.286 0-3.603-1.593-3.603-4.088V19.4c0-.415-.277-.692-.693-.692h-7.69c-.416 0-.693.277-.693.692v33.672c0 8.868 4.85 13.372 12.679 13.372zm45.519-.624c.346 0 .485-.346.346-.693l-6.443-19.953c3.256-2.217 5.265-6.097 5.265-12.056 0-10.461-5.404-14.41-13.787-14.41h-11.224c-.415 0-.693.277-.693.692v45.727c0 .416.278.693.693.693h7.69c.416 0 .693-.277.693-.693v-17.32c0-.278.139-.416.416-.416h2.633l5.335 17.875c.138.415.346.554.762.554zm-15.035-26.258h-2.009c-.277 0-.416-.139-.416-.416V27.091c0-.277.139-.416.416-.416h2.01c3.533 0 5.057 1.524 5.057 6.443 0 4.989-1.524 6.444-5.058 6.444zm34.226 26.258c.416 0 .624-.277.693-.693l9.422-45.727c.139-.415-.069-.692-.554-.692h-7.69c-.416 0-.693.208-.762.692l-4.573 29.792h-.208l-4.78-29.792c-.07-.484-.347-.692-.763-.692h-7.829c-.485 0-.692.277-.554.692l9.353 45.727c.139.416.347.693.763.693zm9.63-.693c-.069.416.139.693.555.693h7.69c.485 0 .693-.277.762-.693l1.594-8.522h8.937l1.524 8.522c.07.416.277.693.762.693h7.69c.417 0 .624-.277.555-.693L467.162 19.4c-.07-.415-.347-.692-.762-.692h-8.176c-.415 0-.623.277-.762.692zM459.125 49.4l3.118-16.35h.208l2.979 16.35zm21.963 15.727c0 .416.277.693.693.693h20.715c.416 0 .693-.277.693-.693v-6.79c0-.415-.277-.692-.693-.692H490.58c-.277 0-.415-.139-.415-.416V19.4c0-.415-.277-.692-.693-.692h-7.69c-.416 0-.693.277-.693.692zm64.571-13.302c0-7.968-2.494-11.432-8.937-13.926l-2.84-1.109c-3.673-1.454-4.435-2.563-4.435-6.096 0-3.187 1.178-4.712 3.603-4.712 2.494 0 3.672 1.732 3.741 5.127 0 .416.347.624.762.555l7.067-1.109c.416-.07.624-.346.624-.762-.347-7.413-4.227-11.709-12.471-11.709-8.384 0-12.471 4.573-12.471 13.095 0 7.551 2.286 11.085 8.937 13.648l2.84 1.109c3.534 1.385 4.366 2.84 4.366 6.997 0 4.296-1.178 5.612-3.742 5.612-2.702 0-3.949-1.732-4.087-6.097 0-.415-.277-.623-.762-.554l-7.414 1.178c-.415.07-.554.346-.554.762.139 8.106 4.226 12.61 12.748 12.61 9.353 0 13.025-4.989 13.025-14.62zm19.33-38.314c.554 0 .9-.207 1.386-.692l7.205-7.899c.277-.346.07-.692-.346-.692h-6.928c-.555 0-.763.207-1.109.692l-5.681 7.899c-.277.346-.07.692.346.692zm-2.078 52.933c6.166 0 10.323-2.772 12.055-7.968.762-2.148.97-4.088.97-16.212 0-12.125-.208-14.065-.97-16.212-1.732-5.197-5.89-7.968-12.055-7.968-6.166 0-10.323 2.771-12.055 7.968-.763 2.147-.97 4.087-.97 16.212 0 12.124.207 14.064.97 16.212 1.732 5.196 5.889 7.968 12.055 7.968zm0-8.176c-1.732 0-2.91-.97-3.326-2.286-.346-1.109-.485-2.286-.485-13.718s.139-12.61.485-13.718c.416-1.317 1.594-2.287 3.326-2.287s2.91.97 3.325 2.287c.347 1.108.485 2.286.485 13.718s-.138 12.61-.485 13.718c-.415 1.316-1.593 2.286-3.325 2.286zm18.706 6.86c0 .415.277.692.693.692h20.716c.415 0 .692-.277.692-.693v-6.79c0-.415-.277-.692-.692-.692h-11.917c-.277 0-.416-.139-.416-.416V19.4c0-.415-.277-.692-.693-.692h-7.69c-.416 0-.693.277-.693.692zm24.11 0c-.069.415.14.692.555.692h7.69c.485 0 .693-.277.762-.693l1.594-8.522h8.937l1.525 8.522c.069.416.277.693.762.693h7.69c.416 0 .624-.277.554-.693L625.681 19.4c-.07-.415-.346-.692-.762-.692h-8.175c-.416 0-.624.277-.763.692zM617.645 49.4l3.118-16.35h.208l2.979 16.35zm48.498 16.42c.347 0 .485-.346.347-.693l-6.444-19.953c3.257-2.217 5.266-6.097 5.266-12.056 0-10.461-5.404-14.41-13.787-14.41H640.3c-.416 0-.693.277-.693.692v45.727c0 .416.277.693.693.693h7.69c.416 0 .693-.277.693-.693v-17.32c0-.278.138-.416.416-.416h2.632l5.335 17.875c.139.415.347.554.762.554zm-15.034-26.258h-2.01c-.277 0-.415-.139-.415-.416V27.091c0-.277.138-.416.416-.416h2.009c3.533 0 5.057 1.524 5.057 6.443 0 4.989-1.524 6.444-5.057 6.444zm44.34 12.263c0-7.968-2.493-11.432-8.937-13.926l-2.84-1.109c-3.672-1.454-4.434-2.563-4.434-6.096 0-3.187 1.177-4.712 3.602-4.712 2.495 0 3.672 1.732 3.742 5.127 0 .416.346.624.762.555l7.067-1.109c.415-.07.623-.346.623-.762-.346-7.413-4.226-11.709-12.47-11.709-8.384 0-12.472 4.573-12.472 13.095 0 7.551 2.287 11.085 8.938 13.648l2.84 1.109c3.534 1.385 4.365 2.84 4.365 6.997 0 4.296-1.178 5.612-3.741 5.612-2.702 0-3.95-1.732-4.088-6.097 0-.415-.277-.623-.762-.554l-7.413 1.178c-.416.07-.554.346-.554.762.138 8.106 4.226 12.61 12.748 12.61 9.353 0 13.025-4.989 13.025-14.62zm18.776 13.995c.416 0 .693-.277.693-.693V27.3c0-.277.139-.416.416-.416h7.413c.416 0 .693-.277.693-.693V19.4c0-.415-.277-.692-.693-.692h-24.734c-.415 0-.693.277-.693.692v6.79c0 .416.278.693.693.693h7.414c.277 0 .415.139.415.416v37.828c0 .416.277.693.693.693zm7.344-.693c-.069.416.139.693.555.693h7.69c.485 0 .693-.277.762-.693l1.594-8.522h8.937l1.524 8.522c.07.416.278.693.763.693h7.69c.416 0 .624-.277.554-.693L741.522 19.4c-.07-.415-.346-.692-.762-.692h-8.176c-.415 0-.623.277-.762.692zM733.485 49.4l3.118-16.35h.208l2.979 16.35zm34.572 16.42c6.513 0 10.323-2.494 12.055-7.829.832-2.633 1.248-5.82 1.248-15.727 0-9.908-.416-13.095-1.248-15.727-1.732-5.335-5.542-7.83-12.055-7.83h-11.916c-.416 0-.693.278-.693.693v18.984c0 .277-.139.416-.416.416h-1.87c-.416 0-.693.277-.693.693v5.126c0 .416.277.693.692.693h1.871c.277 0 .416.139.416.416v19.4c0 .415.277.692.693.692zm-.9-8.175h-2.217c-.278 0-.416-.139-.416-.416V45.728c0-.277.138-.416.416-.416h3.048c.416 0 .693-.277.693-.693v-5.057c0-.416-.277-.693-.693-.693h-3.048c-.278 0-.416-.139-.416-.416V27.3c0-.277.138-.416.416-.416h2.217c2.286 0 3.533.831 4.226 2.91.485 1.455.762 3.464.762 12.47 0 9.008-.277 11.017-.762 12.472-.693 2.078-1.94 2.91-4.226 2.91zm16.212 7.482c-.07.416.138.693.554.693h7.69c.485 0 .693-.277.763-.693l1.593-8.522h8.938l1.524 8.522c.069.416.277.693.762.693h7.69c.416 0 .624-.277.555-.693L803.322 19.4c-.07-.415-.346-.692-.762-.692h-8.175c-.416 0-.624.277-.762.692zM795.285 49.4l3.118-16.35h.208l2.98 16.35zm35.473 15.727c0 .416.277.693.693.693h7.69c.416 0 .693-.277.693-.693V19.4c0-.415-.277-.692-.693-.692h-7.69c-.416 0-.693.277-.693.692zm6.651-51.616c.555 0 .901-.207 1.386-.692L846 4.92c.278-.346.07-.692-.346-.692h-6.928c-.554 0-.762.207-1.109.692l-5.681 7.899c-.277.346-.07.692.346.692zm46.697 38.314c0-7.968-2.494-11.432-8.937-13.926l-2.841-1.109c-3.672-1.454-4.434-2.563-4.434-6.096 0-3.187 1.178-4.712 3.603-4.712 2.494 0 3.672 1.732 3.74 5.127 0 .416.347.624.763.555l7.067-1.109c.415-.07.623-.346.623-.762-.346-7.413-4.226-11.709-12.47-11.709-8.384 0-12.471 4.573-12.471 13.095 0 7.551 2.286 11.085 8.937 13.648l2.84 1.109c3.534 1.385 4.365 2.84 4.365 6.997 0 4.296-1.177 5.612-3.74 5.612-2.703 0-3.95-1.732-4.089-6.097 0-.415-.277-.623-.762-.554l-7.413 1.178c-.416.07-.554.346-.554.762.138 8.106 4.226 12.61 12.748 12.61 9.353 0 13.025-4.989 13.025-14.62zm17.46 14.619c7.898 0 12.747-4.504 12.747-13.372V19.4c0-.415-.277-.692-.692-.692h-7.69c-.417 0-.694.277-.694.692v34.78c0 2.495-1.316 4.088-3.672 4.088-2.286 0-3.602-1.593-3.602-4.088V19.4c0-.415-.278-.692-.693-.692h-7.69c-.416 0-.693.277-.693.692v33.672c0 8.868 4.85 13.372 12.678 13.372zm18.983-1.317c0 .416.277.693.693.693h6.72c.416 0 .693-.277.693-.693V37.9h.416l5.127 18.845c.138.416.415.693.9.693h3.81c.486 0 .763-.277.901-.693l5.127-18.845h.416v27.228c0 .416.277.693.693.693h6.72c.416 0 .693-.277.693-.693V19.4c0-.415-.277-.692-.693-.692h-7.413c-.623 0-.97.208-1.108.692l-6.929 24.734h-.277L929.833 19.4c-.139-.484-.485-.692-1.109-.692h-7.482c-.416 0-.693.277-.693.692zm36.72 0c-.07.416.138.693.554.693h7.69c.485 0 .693-.277.762-.693l1.594-8.522h8.937l1.525 8.522c.069.416.277.693.762.693h7.69c.416 0 .624-.277.554-.693L977.222 19.4c-.07-.415-.346-.692-.762-.692h-8.175c-.416 0-.624.277-.762.692zM969.185 49.4l3.118-16.35h.208l2.98 16.35zm48.498 16.42c.347 0 .485-.346.347-.693l-6.444-19.953c3.257-2.217 5.266-6.097 5.266-12.056 0-10.461-5.404-14.41-13.787-14.41H991.84c-.416 0-.693.277-.693.692v45.727c0 .416.277.693.693.693h7.69c.416 0 .693-.277.693-.693v-17.32c0-.278.139-.416.416-.416h2.633l5.334 17.875c.139.415.347.554.762.554zm-15.034-26.258h-2.01c-.276 0-.415-.139-.415-.416V27.091c0-.277.139-.416.416-.416h2.009c3.533 0 5.058 1.524 5.058 6.443 0 4.989-1.525 6.444-5.058 6.444z" fill="#fff"/></svg>