<svg width="1228.984" height="98" viewBox="0 0 1228.984 98" xmlns="http://www.w3.org/2000/svg"><path d="M234.787 65.127c0 .416.277.693.693.693h7.69c.416 0 .693-.277.693-.693V47.044c0-.277.139-.415.416-.415h10.184c.416 0 .693-.277.693-.693v-6.86c0-.415-.277-.692-.693-.692H244.28c-.277 0-.416-.139-.416-.416v-10.67c0-.276.139-.415.416-.415h11.778c.416 0 .693-.277.693-.693V19.4c0-.415-.277-.692-.693-.692H235.48c-.416 0-.693.277-.693.692zm21.27 0c-.07.416.139.693.554.693h7.69c.486 0 .693-.277.763-.693l1.593-8.522h8.938l1.524 8.522c.07.416.277.693.762.693h7.69c.416 0 .624-.277.555-.693L276.01 19.4c-.069-.415-.346-.692-.762-.692h-8.175c-.416 0-.624.277-.762.692zM267.974 49.4l3.117-16.35h.208l2.98 16.35zm48.498 16.42c.346 0 .485-.346.346-.693l-6.443-19.953c3.256-2.217 5.265-6.097 5.265-12.056 0-10.461-5.404-14.41-13.787-14.41h-11.224c-.416 0-.693.277-.693.692v45.727c0 .416.277.693.693.693h7.69c.416 0 .693-.277.693-.693v-17.32c0-.278.139-.416.416-.416h2.633l5.335 17.875c.138.415.346.554.762.554zm-15.035-26.258h-2.009c-.277 0-.416-.139-.416-.416V27.091c0-.277.139-.416.416-.416h2.01c3.533 0 5.057 1.524 5.057 6.443 0 4.989-1.524 6.444-5.058 6.444zm17.39 25.565c-.069.416.139.693.555.693h7.69c.485 0 .693-.277.762-.693l1.594-8.522h8.937l1.524 8.522c.07.416.277.693.762.693h7.69c.416 0 .624-.277.555-.693L338.781 19.4c-.07-.415-.347-.692-.762-.692h-8.176c-.415 0-.623.277-.762.692zM330.744 49.4l3.118-16.35h.207l2.98 16.35zm21.963 15.727c0 .416.277.693.692.693h6.582c.416 0 .693-.277.693-.693V35.543h.347l8.175 29.584c.138.485.416.693.97.693h8.314c.415 0 .693-.277.693-.693V19.4c0-.415-.278-.692-.693-.692h-6.582c-.416 0-.693.277-.693.692v29.584h-.346l-7.83-29.584c-.138-.484-.415-.692-.97-.692h-8.66c-.415 0-.692.277-.692.692zm33.047-6.582c1.733 5.127 5.82 7.899 12.125 7.899 6.166 0 10.254-2.772 11.986-7.968.762-2.148.97-4.088.97-16.212v-2.079c0-.415-.277-.692-.693-.692H398.71c-.415 0-.692.277-.692.692v6.097c0 .416.277.693.692.693h2.98c.277 0 .415.139.415.416 0 6.928-.138 7.62-.415 8.59-.416 1.386-1.871 2.287-3.603 2.287-1.732 0-3.187-.9-3.603-2.286-.346-1.04-.416-1.663-.416-13.718 0-12.125.07-12.679.416-13.787.416-1.317 1.801-2.218 3.464-2.218 2.356 0 3.742 1.594 3.95 4.989.069.485.346.693.761.623l7.344-1.247c.416-.069.624-.415.555-.831-.624-7.621-5.058-11.709-12.679-11.709-6.305 0-10.392 2.771-12.125 7.898-.692 2.217-.9 4.157-.9 16.282 0 12.124.208 14.064.9 16.281zm43.164 7.899c7.898 0 12.748-4.504 12.748-13.372V19.4c0-.415-.277-.692-.693-.692h-7.69c-.416 0-.693.277-.693.692v34.78c0 2.495-1.317 4.088-3.672 4.088-2.287 0-3.603-1.593-3.603-4.088V19.4c0-.415-.277-.692-.693-.692h-7.69c-.416 0-.693.277-.693.692v33.672c0 8.868 4.85 13.372 12.679 13.372zm45.519-.624c.346 0 .485-.346.346-.693l-6.443-19.953c3.256-2.217 5.265-6.097 5.265-12.056 0-10.461-5.404-14.41-13.787-14.41h-11.224c-.416 0-.693.277-.693.692v45.727c0 .416.277.693.693.693h7.69c.416 0 .693-.277.693-.693v-17.32c0-.278.139-.416.416-.416h2.633l5.334 17.875c.139.415.347.554.763.554zm-15.035-26.258h-2.009c-.277 0-.416-.139-.416-.416V27.091c0-.277.139-.416.416-.416h2.01c3.533 0 5.057 1.524 5.057 6.443 0 4.989-1.524 6.444-5.058 6.444zm33.464 25.565c0 .416.277.693.693.693h20.577c.415 0 .692-.277.692-.693v-6.79c0-.415-.277-.692-.692-.692h-11.778c-.278 0-.416-.139-.416-.416v-10.67c0-.277.138-.415.416-.415h10.184c.416 0 .693-.277.693-.693v-6.79c0-.416-.277-.693-.693-.693h-10.184c-.278 0-.416-.138-.416-.415V27.299c0-.277.138-.416.416-.416h11.778c.415 0 .692-.277.692-.693V19.4c0-.415-.277-.692-.692-.692h-20.577c-.416 0-.693.277-.693.692zm53.555.693c.347 0 .485-.346.347-.693l-6.443-19.953c3.256-2.217 5.265-6.097 5.265-12.056 0-10.461-5.404-14.41-13.787-14.41h-11.224c-.416 0-.693.277-.693.692v45.727c0 .416.277.693.693.693h7.69c.416 0 .693-.277.693-.693v-17.32c0-.278.139-.416.416-.416h2.633l5.334 17.875c.139.415.347.554.762.554zm-15.034-26.258h-2.01c-.276 0-.415-.139-.415-.416V27.091c0-.277.139-.416.416-.416h2.009c3.533 0 5.058 1.524 5.058 6.443 0 4.989-1.525 6.444-5.058 6.444zm33.464 25.565c0 .416.277.693.692.693h7.69c.417 0 .694-.277.694-.693V19.4c0-.415-.277-.692-.693-.692h-7.69c-.416 0-.693.277-.693.692zm15.45 0c0 .416.277.693.693.693h6.581c.416 0 .693-.277.693-.693V35.543h.347l8.175 29.584c.139.485.416.693.97.693h8.314c.416 0 .693-.277.693-.693V19.4c0-.415-.277-.692-.693-.692h-6.582c-.416 0-.693.277-.693.692v29.584h-.346l-7.83-29.584c-.138-.484-.415-.692-.97-.692h-8.66c-.415 0-.692.277-.692.692zm32.84 0c0 .416.277.693.693.693h6.582c.415 0 .692-.277.692-.693V35.543h.347l8.175 29.584c.139.485.416.693.97.693h8.314c.416 0 .693-.277.693-.693V19.4c0-.415-.277-.692-.693-.692h-6.582c-.416 0-.693.277-.693.692v29.584h-.346l-7.83-29.584c-.138-.484-.415-.692-.969-.692h-8.66c-.416 0-.693.277-.693.692zm32.84 0c0 .416.277.693.693.693h7.69c.416 0 .693-.277.693-.693V19.4c0-.415-.277-.692-.693-.692h-7.69c-.416 0-.693.277-.693.692zm15.45 0c0 .416.277.693.693.693h7.69c.416 0 .693-.277.693-.693V47.044c0-.277.139-.415.416-.415h10.184c.416 0 .693-.277.693-.693v-6.86c0-.415-.277-.692-.693-.692h-10.184c-.277 0-.416-.139-.416-.416v-10.67c0-.276.139-.415.416-.415H682.7c.415 0 .693-.277.693-.693V19.4c0-.415-.278-.692-.693-.692h-20.577c-.416 0-.693.277-.693.692zm21.27 0c-.07.416.138.693.554.693h7.69c.485 0 .693-.277.763-.693l1.593-8.522h8.938l1.524 8.522c.07.416.277.693.762.693h7.69c.416 0 .624-.277.555-.693L702.654 19.4c-.069-.415-.346-.692-.762-.692h-8.175c-.416 0-.624.277-.762.692zM694.617 49.4l3.118-16.35h.208l2.98 16.35zm21.963 15.727c0 .416.277.693.693.693h20.716c.415 0 .692-.277.692-.693v-6.79c0-.415-.277-.692-.692-.692h-11.917c-.277 0-.416-.139-.416-.416V19.4c0-.415-.277-.692-.693-.692h-7.69c-.416 0-.693.277-.693.692zm26.674 0c0 .416.277.693.693.693h7.69c.416 0 .693-.277.693-.693V19.4c0-.415-.277-.692-.693-.692h-7.69c-.416 0-.693.277-.693.692zm15.45 0c0 .416.277.693.693.693h6.582c.415 0 .693-.277.693-.693V35.543h.346l8.175 29.584c.139.485.416.693.97.693h8.314c.416 0 .693-.277.693-.693V19.4c0-.415-.277-.692-.693-.692h-6.582c-.415 0-.692.277-.692.692v29.584h-.347L769.027 19.4c-.138-.484-.415-.692-.97-.692h-8.66c-.416 0-.693.277-.693.692zm32.84 0c0 .416.277.693.693.693h6.582c.416 0 .693-.277.693-.693V35.543h.346l8.175 29.584c.139.485.416.693.97.693h8.314c.416 0 .693-.277.693-.693V19.4c0-.415-.277-.692-.693-.692h-6.582c-.415 0-.692.277-.692.692v29.584h-.347L801.867 19.4c-.138-.484-.415-.692-.97-.692h-8.66c-.416 0-.693.277-.693.692zm46.35 0c0 .416.278.693.693.693h7.69c.416 0 .693-.277.693-.693V19.4c0-.415-.277-.692-.692-.692h-7.69c-.416 0-.694.277-.694.692zm6.652-51.616c.554 0 .9-.207 1.385-.692l7.206-7.899c.277-.346.069-.692-.347-.692h-6.928c-.554 0-.762.207-1.109.692l-5.68 7.899c-.278.346-.07.692.346.692zM880.78 65.82c.416 0 .624-.277.693-.693l9.423-45.727c.138-.415-.07-.692-.555-.692h-7.69c-.416 0-.693.208-.762.692l-4.573 29.792h-.208l-4.78-29.792c-.07-.484-.346-.692-.762-.692h-7.83c-.484 0-.692.277-.553.692l9.353 45.727c.138.416.346.693.762.693zm14.273-.693c0 .416.277.693.693.693h20.577c.415 0 .692-.277.692-.693v-6.79c0-.415-.277-.692-.692-.692h-11.779c-.277 0-.415-.139-.415-.416v-10.67c0-.277.138-.415.415-.415h10.185c.416 0 .693-.277.693-.693v-6.79c0-.416-.277-.693-.693-.693h-10.185c-.277 0-.415-.138-.415-.415V27.299c0-.277.138-.416.415-.416h11.779c.415 0 .692-.277.692-.693V19.4c0-.415-.277-.692-.692-.692h-20.577c-.416 0-.693.277-.693.692zm53.555.693c.347 0 .485-.346.347-.693l-6.444-19.953c3.257-2.217 5.266-6.097 5.266-12.056 0-10.461-5.404-14.41-13.787-14.41h-11.224c-.416 0-.693.277-.693.692v45.727c0 .416.277.693.693.693h7.69c.416 0 .693-.277.693-.693v-17.32c0-.278.139-.416.416-.416h2.633l5.334 17.875c.139.415.347.554.762.554zm-15.034-26.258h-2.01c-.276 0-.415-.139-.415-.416V27.091c0-.277.139-.416.416-.416h2.009c3.533 0 5.058 1.524 5.058 6.443 0 4.989-1.525 6.444-5.058 6.444zm32.563 26.258c6.513 0 10.323-2.494 12.055-7.829.832-2.633 1.247-5.82 1.247-15.727 0-9.908-.415-13.095-1.247-15.727-1.732-5.335-5.542-7.83-12.055-7.83H954.22c-.415 0-.693.278-.693.693v18.984c0 .277-.138.416-.415.416h-1.87c-.417 0-.694.277-.694.693v5.126c0 .416.277.693.693.693h1.87c.278 0 .416.139.416.416v19.4c0 .415.278.692.693.692zm-.9-8.175h-2.218c-.277 0-.415-.139-.415-.416V45.728c0-.277.138-.416.415-.416h3.049c.415 0 .692-.277.692-.693v-5.057c0-.416-.277-.693-.692-.693h-3.049c-.277 0-.415-.139-.415-.416V27.3c0-.277.138-.416.415-.416h2.217c2.287 0 3.534.831 4.227 2.91.484 1.455.762 3.464.762 12.47 0 9.008-.278 11.017-.762 12.472-.693 2.078-1.94 2.91-4.227 2.91zm19.883 7.482c0 .416.278.693.693.693h7.69c.416 0 .693-.277.693-.693V19.4c0-.415-.277-.692-.692-.692h-7.69c-.416 0-.694.277-.694.692z" fill="#fff"/></svg>