<svg width="259.061" height="35" viewBox="0 0 259.061 35" xmlns="http://www.w3.org/2000/svg"><path d="M76.221 21.082c.517 1.624 1.894 2.51 3.862 2.51 1.968 0 3.37-.862 3.863-2.51.197-.615.27-1.28.27-6.076 0-4.797-.073-5.461-.27-6.076-.492-1.649-1.895-2.51-3.863-2.51s-3.32.886-3.837 2.51c-.197.615-.295 1.279-.295 6.076s.073 5.461.27 6.076zm2.928-.836c-.074-.246-.099-.541-.099-5.24s.025-4.994.099-5.24c.123-.394.442-.64.934-.64.492 0 .812.246.935.64.074.246.099.541.099 5.24s-.025 4.994-.099 5.24c-.123.393-.418.64-.935.64-.492 0-.811-.247-.934-.64zm7.33.86c.517 1.575 1.796 2.485 3.838 2.485s3.321-.885 3.862-2.484c.148-.468.222-1.083.222-3.124 0-2.362-.074-2.953-.27-3.518-.444-1.403-1.428-2.067-3.027-2.067-.836 0-1.476.27-1.845.64h-.024V9.545c0-.099.049-.148.147-.148h4.748c.148 0 .246-.098.246-.246V6.888c0-.148-.098-.246-.246-.246h-7.38c-.147 0-.246.098-.246.246v8.831c0 .172.099.246.246.246h2.19c.196 0 .295-.049.344-.221.148-.418.443-.689.984-.689.492 0 .812.221.96.664.073.197.098.443.098 2.264 0 1.82-.025 2.066-.099 2.263-.147.443-.442.64-.959.64-.492 0-.787-.222-.935-.665-.074-.197-.098-.418-.098-1.058 0-.196-.123-.27-.295-.246l-2.436.246c-.172.025-.246.123-.246.296 0 .59.074 1.156.222 1.648zm10.013 2.018c0 .148.098.246.246.246h2.51c.147 0 .245-.098.245-.246V20.27c0-.147-.098-.246-.246-.246h-2.51c-.147 0-.245.099-.245.246zm9.668-4.87h6.593c.147 0 .246-.1.246-.247v-2.312c0-.148-.099-.246-.246-.246h-6.593c-.148 0-.246.098-.246.246v2.312c0 .148.098.246.246.246zm13.85 2.828c.517 1.624 1.894 2.51 3.862 2.51 1.968 0 3.37-.862 3.862-2.51.197-.615.271-1.28.271-6.076 0-4.797-.074-5.461-.27-6.076-.493-1.649-1.895-2.51-3.863-2.51s-3.32.886-3.837 2.51c-.197.615-.296 1.279-.296 6.076s.074 5.461.27 6.076zm2.927-.836c-.073-.246-.098-.541-.098-5.24s.025-4.994.098-5.24c.123-.394.443-.64.935-.64.492 0 .812.246.935.64.074.246.098.541.098 5.24s-.024 4.994-.098 5.24c-.123.393-.418.64-.935.64-.492 0-.812-.247-.935-.64zm7.282.836c.517 1.6 1.845 2.51 3.887 2.51s3.37-.91 3.887-2.51c.147-.492.221-1.033.221-2.583 0-1.255-.049-1.747-.221-2.288-.222-.689-.615-1.23-1.156-1.574v-.05c.565-.344.934-.91 1.156-1.598.147-.492.221-1.009.221-1.87 0-1.132-.074-1.697-.221-2.19-.517-1.598-1.845-2.509-3.887-2.509s-3.37.91-3.887 2.51c-.148.492-.221 1.057-.221 2.189 0 .861.049 1.378.221 1.87.222.688.615 1.254 1.156 1.599v.049c-.516.344-.934.885-1.156 1.574-.172.541-.221 1.033-.221 2.288 0 1.55.073 2.091.221 2.583zm3.887-7.749c-.492 0-.787-.221-.935-.664-.074-.222-.098-.517-.098-1.452 0-.934.024-1.205.098-1.426.148-.443.443-.665.935-.665.492 0 .787.222.935.665.074.221.098.492.098 1.426 0 .935-.024 1.23-.098 1.452-.148.443-.443.664-.935.664zm-.935 6.888c-.074-.221-.098-.443-.098-1.771 0-1.329.024-1.525.098-1.747.148-.418.443-.664.935-.664.492 0 .787.246.935.664.074.222.098.418.098 1.747 0 1.328-.024 1.55-.098 1.771-.148.418-.443.664-.935.664-.492 0-.787-.246-.935-.664zm7.11 2.903c0 .148.098.246.246.246h2.509c.148 0 .246-.098.246-.246V20.27c0-.147-.098-.246-.246-.246h-2.51c-.147 0-.245.099-.245.246zm9.594 0c0 .148.098.246.246.246h2.386c.148 0 .246-.098.246-.246v-9.668h.148l1.82 6.691c.05.148.148.246.32.246h1.353c.172 0 .27-.098.32-.246l1.82-6.691h.148v9.668c0 .148.098.246.246.246h2.386c.148 0 .246-.098.246-.246V6.888c0-.148-.098-.246-.246-.246h-2.632c-.222 0-.345.074-.394.246l-2.46 8.782h-.098l-2.559-8.782c-.049-.172-.172-.246-.393-.246h-2.657c-.148 0-.246.098-.246.246zm13.038 0c-.025.148.05.246.197.246h2.73c.173 0 .246-.098.271-.246l.566-3.026h3.173l.542 3.026c.024.148.098.246.27.246h2.73c.148 0 .222-.098.198-.246l-3.592-16.236c-.025-.148-.123-.246-.27-.246h-2.903c-.148 0-.222.098-.271.246zm4.231-5.584l1.107-5.806h.074l1.058 5.806zm7.799 5.584c0 .148.098.246.246.246h2.73c.148 0 .246-.098.246-.246V6.888c0-.148-.098-.246-.246-.246h-2.73c-.148 0-.246.098-.246.246zm2.361-18.327c.197 0 .32-.074.492-.246l2.559-2.805c.098-.123.024-.246-.123-.246h-2.46c-.197 0-.27.074-.394.246l-2.017 2.805c-.099.123-.025.246.123.246z" fill="#fff"/></svg>