<svg width="186.291" height="17" viewBox="0 0 186.291 17" xmlns="http://www.w3.org/2000/svg"><path d="M2.43 11.32c.072 0 .108-.048.12-.12l1.608-7.862c.012-.072-.012-.12-.095-.12h-.394c-.071 0-.107.048-.119.12L2.275 9.867H2.24L.953 3.337c-.012-.07-.06-.118-.131-.118H.429c-.084 0-.107.047-.095.119L1.942 11.2c.012.071.048.119.119.119zm2.872-.12c0 .072.047.12.119.12h2.752c.071 0 .119-.048.119-.12v-.345c0-.071-.048-.119-.12-.119h-2.18c-.047 0-.071-.024-.071-.071V7.579c0-.048.024-.071.072-.071h1.906c.071 0 .119-.048.119-.12v-.345c0-.071-.048-.12-.12-.12H5.994c-.048 0-.072-.023-.072-.07V3.873c0-.048.024-.071.072-.071h2.18c.071 0 .119-.048.119-.12v-.345c0-.072-.048-.12-.12-.12H5.422c-.072 0-.12.048-.12.12zm7.553.12c.06 0 .083-.048.06-.12l-1.097-3.692c.644-.286 1.001-.918 1.001-2.05 0-1.644-.643-2.24-2.061-2.24H9.602c-.071 0-.119.048-.119.12V11.2c0 .071.048.119.12.119h.38c.072 0 .12-.048.12-.12V7.77c0-.048.024-.072.071-.072h.56c.179 0 .346-.012.5-.035l1.049 3.574c.024.06.06.083.131.083zm-2.05-4.194h-.63c-.048 0-.072-.023-.072-.071V3.874c0-.048.024-.071.071-.071h.632c.988 0 1.394.405 1.394 1.656 0 1.298-.43 1.667-1.394 1.667zm5.064 4.194c.977 0 1.513-.429 1.763-1.203.143-.441.19-.977.19-2.848 0-1.882-.047-2.406-.19-2.847-.25-.774-.786-1.203-1.763-1.203h-1.454c-.071 0-.119.047-.119.119v3.538c0 .048-.024.072-.071.072h-.405c-.072 0-.12.047-.12.119v.286c0 .071.048.119.12.119h.405c.047 0 .071.024.071.071v3.658c0 .071.048.119.12.119zm-.072-.584h-.81c-.047 0-.071-.024-.071-.071V7.543c0-.047.024-.071.071-.071h.894c.071 0 .119-.048.119-.12v-.285c0-.072-.048-.12-.12-.12h-.893c-.047 0-.071-.023-.071-.07V3.873c0-.048.024-.071.071-.071h.81c.68 0 1.049.262 1.24.822.119.369.166.857.166 2.644 0 1.787-.047 2.276-.167 2.645-.19.56-.56.822-1.239.822zm5.719.465c0 .071.048.119.12.119h.38c.072 0 .12-.048.12-.12V7.628c0-.048.023-.072.07-.072h1.907c.072 0 .12-.047.12-.119v-.345c0-.072-.048-.12-.12-.12h-1.906c-.048 0-.072-.023-.072-.07V3.873c0-.048.024-.071.072-.071h2.18c.072 0 .12-.048.12-.12v-.345c0-.072-.048-.12-.12-.12h-2.752c-.071 0-.12.048-.12.12zm7.517.119c.06 0 .084-.048.06-.12l-1.096-3.692c.643-.286 1-.918 1-2.05 0-1.644-.643-2.24-2.06-2.24H25.78c-.071 0-.12.048-.12.12V11.2c0 .071.049.119.12.119h.381c.072 0 .12-.048.12-.12V7.77c0-.048.023-.072.07-.072h.56c.18 0 .346-.012.501-.035l1.049 3.574c.023.06.06.083.13.083zm-2.049-4.194h-.631c-.048 0-.072-.023-.072-.071V3.874c0-.048.024-.071.072-.071h.631c.99 0 1.394.405 1.394 1.656 0 1.298-.429 1.667-1.394 1.667zm2.979 4.075c-.012.071.047.119.119.119h.381c.072 0 .107-.048.12-.12l.404-1.941h1.978l.405 1.942c.012.071.048.119.131.119h.381c.072 0 .12-.048.107-.12l-1.667-7.862c-.012-.072-.06-.12-.132-.12h-.393c-.071 0-.107.048-.13.12zm1.143-2.502l.87-4.134H32l.846 4.134zm1.025-6.493c.083 0 .12-.024.202-.119L33.37.86c.048-.06.024-.12-.048-.12h-.393c-.107 0-.143.036-.202.12l-.894 1.227c-.048.06-.024.12.048.12zm3.074 4.444h.536c.071 0 .119-.048.119-.12v-.774c0-.071-.048-.119-.12-.119h-.535c-.072 0-.12.048-.12.12v.774c0 .071.048.119.12.119zm-.12 4.55c0 .072.048.12.12.12h.536c.071 0 .119-.048.119-.12v-.774c0-.071-.048-.119-.12-.119h-.535c-.072 0-.12.048-.12.12z" fill="#fff"/></svg>