<svg width="521.756" height="74" viewBox="0 0 521.756 74" xmlns="http://www.w3.org/2000/svg"><path d="M192.41 50.11c.317 0 .528-.211.528-.527V20.782c0-.211.105-.317.316-.317h5.644c.317 0 .528-.21.528-.527v-5.17c0-.316-.211-.527-.528-.527h-18.831c-.317 0-.528.21-.528.527v5.17c0 .316.211.527.528.527h5.644c.21 0 .316.106.316.317v28.8c0 .317.211.528.528.528zm10.18-.527c0 .316.212.527.528.527h15.667c.316 0 .527-.211.527-.527v-5.17c0-.316-.211-.527-.527-.527h-8.968c-.21 0-.316-.106-.316-.317v-8.123c0-.211.105-.317.316-.317h7.754c.317 0 .528-.21.528-.527v-5.17c0-.316-.211-.527-.528-.527h-7.754c-.21 0-.316-.106-.316-.317v-7.806c0-.211.105-.317.316-.317h8.968c.316 0 .527-.21.527-.527v-5.17c0-.316-.211-.527-.527-.527h-15.667c-.316 0-.527.21-.527.527zm20.573 0c0 .316.21.527.527.527h5.011c.317 0 .528-.211.528-.527V27.059h.264l6.224 22.524c.105.369.316.527.738.527h6.33c.317 0 .528-.211.528-.527V14.768c0-.316-.211-.527-.528-.527h-5.01c-.317 0-.528.21-.528.527v22.524h-.264l-5.96-22.524c-.106-.37-.317-.527-.74-.527h-6.593c-.316 0-.527.21-.527.527zm25.003 0c0 .316.21.527.527.527h15.667c.316 0 .527-.211.527-.527v-5.17c0-.316-.21-.527-.527-.527h-8.968c-.21 0-.316-.106-.316-.317v-8.123c0-.211.105-.317.316-.317h7.754c.317 0 .528-.21.528-.527v-5.17c0-.316-.211-.527-.528-.527h-7.754c-.21 0-.316-.106-.316-.317v-7.806c0-.211.105-.317.316-.317h8.968c.316 0 .527-.21.527-.527v-5.17c0-.316-.21-.527-.527-.527h-15.667c-.316 0-.527.21-.527.527zm40.775.527c.263 0 .369-.264.263-.527L284.3 34.39c2.479-1.688 4.009-4.642 4.009-9.179 0-7.965-4.115-10.971-10.497-10.971h-8.546c-.316 0-.527.21-.527.527v34.815c0 .316.21.527.527.527h5.855c.317 0 .528-.211.528-.527V36.395c0-.21.105-.316.316-.316h2.005l4.062 13.609c.105.317.263.422.58.422zm-11.447-19.992h-1.53c-.21 0-.316-.105-.316-.316v-9.179c0-.21.105-.316.316-.316h1.53c2.69 0 3.85 1.16 3.85 4.905 0 3.798-1.16 4.906-3.85 4.906zm15.192 19.465c0 .316.21.527.527.527h5.856c.316 0 .527-.211.527-.527V14.768c0-.316-.211-.527-.527-.527h-5.856c-.316 0-.527.21-.527.527zm11.763 0c0 .316.21.527.527.527h5.856c.316 0 .527-.211.527-.527V35.815c0-.211.106-.316.317-.316h7.754c.316 0 .527-.211.527-.528v-5.222c0-.317-.21-.528-.527-.528h-7.754c-.211 0-.317-.105-.317-.316v-8.123c0-.211.106-.317.317-.317h8.967c.316 0 .527-.21.527-.527v-5.17c0-.316-.21-.527-.527-.527h-15.667c-.316 0-.527.21-.527.527zm20.361 0c0 .316.211.527.528.527h15.666c.316 0 .527-.211.527-.527v-5.17c0-.316-.21-.527-.527-.527h-8.967c-.211 0-.317-.106-.317-.317v-8.123c0-.211.106-.317.317-.317h7.754c.316 0 .527-.21.527-.527v-5.17c0-.316-.21-.527-.527-.527h-7.754c-.211 0-.317-.106-.317-.317v-7.806c0-.211.106-.317.317-.317h8.967c.316 0 .527-.21.527-.527v-5.17c0-.316-.21-.527-.527-.527h-15.666c-.317 0-.528.21-.528.527z" fill="#fff"/></svg>