<svg width="188.064" height="60" viewBox="0 0 188.064 60" xmlns="http://www.w3.org/2000/svg"><path d="M36.55 36.463c.893 2.766 3.19 4.34 6.722 4.34 3.531 0 5.829-1.574 6.722-4.34.256-.851.383-1.787.383-4.468 0-2.17-.085-3.02-.383-3.957-.382-1.191-1.063-2.127-2-2.723v-.085c.98-.595 1.618-1.574 2-2.765.256-.851.383-1.745.383-3.234 0-1.957-.127-2.936-.383-3.787-.893-2.766-3.19-4.34-6.722-4.34-3.532 0-5.83 1.574-6.723 4.34-.255.851-.383 1.83-.383 3.787 0 1.489.085 2.383.383 3.234.383 1.19 1.064 2.17 2 2.765v.085c-.894.596-1.617 1.532-2 2.723-.298.936-.383 1.787-.383 3.957 0 2.681.128 3.617.383 4.468zm6.722-13.403c-.851 0-1.362-.383-1.617-1.149-.128-.383-.17-.893-.17-2.51 0-1.617.042-2.085.17-2.468.255-.766.766-1.149 1.617-1.149.85 0 1.361.383 1.617 1.15.127.382.17.85.17 2.467s-.043 2.127-.17 2.51c-.256.766-.766 1.15-1.617 1.15zm-1.617 11.914c-.128-.383-.17-.766-.17-3.064 0-2.297.042-2.638.17-3.02.255-.724.766-1.15 1.617-1.15.85 0 1.361.426 1.617 1.15.127.382.17.723.17 3.02 0 2.298-.043 2.68-.17 3.064-.256.723-.766 1.149-1.617 1.149s-1.362-.426-1.617-1.15zm12.637 1.489c.893 2.808 3.276 4.34 6.68 4.34s5.83-1.49 6.68-4.34c.34-1.064.468-2.213.468-10.51 0-8.296-.127-9.445-.468-10.509-.85-2.85-3.276-4.34-6.68-4.34s-5.744 1.532-6.638 4.34c-.34 1.064-.51 2.213-.51 10.51 0 8.296.127 9.445.468 10.509zm5.063-1.447c-.127-.425-.17-.936-.17-9.062 0-8.127.043-8.638.17-9.063.213-.681.766-1.107 1.617-1.107s1.404.426 1.617 1.107c.127.425.17.936.17 9.063 0 8.126-.043 8.637-.17 9.062-.213.681-.723 1.107-1.617 1.107-.851 0-1.404-.426-1.617-1.107zm12.297 4.979c0 .255.17.425.425.425h4.34c.255 0 .426-.17.426-.425v-4.936c0-.255-.17-.426-.426-.426h-4.34c-.255 0-.425.17-.425.426zm11.147-.086c-.127.298 0 .511.298.511h4.51c.34 0 .51-.128.639-.425l4.893-11.829c1.063-2.553 1.489-4.255 1.489-8.212 0-2.68-.128-3.659-.383-4.51-.894-2.766-3.191-4.34-6.723-4.34-3.531 0-5.829 1.574-6.722 4.34-.256.851-.383 1.83-.383 4.51 0 2.723.17 3.915.468 4.766.85 2.553 2.382 4.042 5.19 4.042.596 0 1.064-.085 1.277-.213 0 .043.085.085.085.085zm4.723-15.743c-.85 0-1.361-.382-1.617-1.148-.127-.34-.17-.766-.17-3.064 0-2.297.043-2.68.17-3.02.256-.767.766-1.15 1.617-1.15s1.362.383 1.617 1.15c.128.34.17.723.17 3.02 0 2.298-.042 2.723-.17 3.064-.255.766-.766 1.148-1.617 1.148zm11.02 12.297c.894 2.808 3.277 4.34 6.68 4.34 3.404 0 5.83-1.49 6.68-4.34.34-1.064.469-2.213.469-10.51 0-8.296-.128-9.445-.468-10.509-.851-2.85-3.277-4.34-6.68-4.34-3.404 0-5.745 1.532-6.638 4.34-.34 1.064-.51 2.213-.51 10.51 0 8.296.127 9.445.467 10.509zm5.064-1.447c-.128-.425-.17-.936-.17-9.062 0-8.127.042-8.638.17-9.063.212-.681.765-1.107 1.616-1.107.851 0 1.405.426 1.617 1.107.128.425.17.936.17 9.063 0 8.126-.042 8.637-.17 9.062-.212.681-.723 1.107-1.617 1.107-.85 0-1.404-.426-1.616-1.107zm12.637 1.447c.893 2.808 3.276 4.34 6.68 4.34 3.403 0 5.829-1.49 6.68-4.34.34-1.064.468-2.213.468-10.51 0-8.296-.128-9.445-.468-10.509-.851-2.85-3.277-4.34-6.68-4.34-3.404 0-5.744 1.532-6.638 4.34-.34 1.064-.51 2.213-.51 10.51 0 8.296.127 9.445.468 10.509zm5.063-1.447c-.128-.425-.17-.936-.17-9.062 0-8.127.042-8.638.17-9.063.213-.681.766-1.107 1.617-1.107.85 0 1.404.426 1.616 1.107.128.425.17.936.17 9.063 0 8.126-.042 8.637-.17 9.062-.212.681-.723 1.107-1.616 1.107-.851 0-1.404-.426-1.617-1.107zm20.72 4.979c0 .255.171.425.426.425h4.723c.256 0 .426-.17.426-.425v-7.83l1.702-3.573 4.255 11.53c.042.213.17.298.425.298h5.063c.213 0 .34-.213.256-.425l-6.51-16.85 5.786-11.232c.128-.213 0-.426-.212-.426h-4.936c-.255 0-.426.085-.553.34l-5.276 11.19V11.914c0-.256-.17-.426-.426-.426h-4.723c-.255 0-.425.17-.425.426zm36.125.425c.212 0 .297-.213.212-.425l-3.957-12.254c2-1.362 3.234-3.745 3.234-7.404 0-6.425-3.319-8.85-8.467-8.85h-6.893c-.255 0-.426.17-.426.426v28.082c0 .255.17.425.426.425h4.723c.255 0 .425-.17.425-.425V29.357c0-.17.085-.255.256-.255h1.616l3.277 10.978c.085.255.212.34.468.34zm-9.233-16.126h-1.234c-.17 0-.256-.085-.256-.255v-7.404c0-.17.085-.255.256-.255h1.234c2.17 0 3.106.936 3.106 3.957 0 3.064-.936 3.957-3.106 3.957zm12.126 15.7c0 .256.17.426.425.426h4.34c.256 0 .426-.17.426-.425v-4.936c0-.255-.17-.426-.426-.426h-4.34c-.255 0-.425.17-.425.426z" fill="#fff"/></svg>