<svg width="521.756" height="74" viewBox="0 0 521.756 74" xmlns="http://www.w3.org/2000/svg"><path d="M222.477 49.583c0 .316.211.527.527.527h5.856c.316 0 .527-.211.527-.527v-9.706l2.11-4.431 5.275 14.295c.053.264.21.369.527.369h6.278c.263 0 .422-.264.316-.527l-8.07-20.89 7.173-13.925c.159-.264 0-.527-.263-.527h-6.12c-.316 0-.527.105-.685.422l-6.54 13.873V14.768c0-.316-.212-.527-.528-.527h-5.856c-.316 0-.527.21-.527.527zm44.784.527c.264 0 .37-.264.264-.527l-4.906-15.192c2.48-1.688 4.009-4.642 4.009-9.179 0-7.965-4.115-10.971-10.497-10.971h-8.546c-.316 0-.527.21-.527.527v34.815c0 .316.211.527.527.527h5.856c.316 0 .527-.211.527-.527V36.395c0-.21.106-.316.317-.316h2.004l4.062 13.609c.105.317.263.422.58.422zm-11.447-19.992h-1.53c-.21 0-.316-.105-.316-.316v-9.179c0-.21.106-.316.317-.316h1.53c2.69 0 3.85 1.16 3.85 4.905 0 3.798-1.16 4.906-3.85 4.906zm15.192 19.465c0 .316.211.527.528.527h5.855c.316 0 .527-.211.527-.527V14.768c0-.316-.21-.527-.527-.527h-5.855c-.317 0-.528.21-.528.527zm5.064-39.298c.422 0 .686-.159 1.055-.528l5.486-6.013c.21-.264.053-.528-.264-.528h-5.275c-.422 0-.58.158-.844.528l-4.325 6.013c-.211.264-.053.528.264.528zm17.882 39.825c.316 0 .527-.211.527-.527V20.782c0-.211.106-.317.317-.317h5.644c.316 0 .527-.21.527-.527v-5.17c0-.316-.21-.527-.527-.527h-18.831c-.317 0-.528.21-.528.527v5.17c0 .316.211.527.528.527h5.644c.21 0 .316.106.316.317v28.8c0 .317.211.528.528.528z" fill="#fff"/></svg>