<svg width="199.127" height="61" viewBox="0 0 199.127 61" xmlns="http://www.w3.org/2000/svg"><path d="M46.621 40.71c-.13.303 0 .52.304.52h4.6c.348 0 .521-.13.651-.434l4.991-12.065c1.085-2.604 1.52-4.34 1.52-8.376 0-2.734-.13-3.733-.391-4.6-.912-2.821-3.255-4.427-6.857-4.427-3.603 0-5.946 1.606-6.858 4.427-.26.867-.39 1.866-.39 4.6 0 2.777.173 3.993.477 4.86.868 2.605 2.43 4.124 5.295 4.124.608 0 1.085-.087 1.302-.217 0 .043.087.086.087.086zM51.44 24.65c-.868 0-1.39-.39-1.65-1.171-.13-.348-.173-.782-.173-3.125 0-2.344.043-2.734.173-3.082.26-.78.782-1.171 1.65-1.171.868 0 1.388.39 1.649 1.171.13.348.173.738.173 3.082 0 2.343-.043 2.777-.173 3.125-.26.78-.781 1.171-1.65 1.171zm11.283 12.586c.912 2.778 3.169 4.384 6.77 4.384 3.603 0 5.86-1.563 6.814-4.384.26-.824.391-1.91.391-5.511 0-4.167-.13-5.208-.477-6.207-.782-2.473-2.517-3.645-5.338-3.645-1.476 0-2.604.477-3.255 1.128h-.044V16.84c0-.173.087-.26.26-.26h8.377c.26 0 .434-.173.434-.434v-3.993c0-.26-.174-.434-.434-.434H63.2c-.26 0-.434.174-.434.434v15.58c0 .305.173.435.434.435h3.862c.348 0 .521-.087.608-.39.26-.739.781-1.216 1.736-1.216.868 0 1.432.39 1.693 1.172.13.347.173.781.173 3.993 0 3.211-.043 3.645-.173 3.992-.26.781-.782 1.129-1.693 1.129-.868 0-1.389-.39-1.65-1.172-.13-.347-.173-.738-.173-1.866 0-.348-.217-.478-.52-.434l-4.297.434c-.304.043-.434.217-.434.52 0 1.042.13 2.04.39 2.908zm17.664 3.559c0 .26.174.434.434.434h4.427c.26 0 .434-.174.434-.434v-5.034c0-.26-.174-.434-.434-.434H80.82c-.26 0-.434.173-.434.434zm11.37-.087c-.13.304 0 .521.304.521h4.6c.348 0 .522-.13.652-.434l4.99-12.065c1.086-2.604 1.52-4.34 1.52-8.376 0-2.734-.13-3.733-.39-4.6-.912-2.821-3.256-4.427-6.858-4.427s-5.946 1.606-6.857 4.427c-.26.867-.39 1.866-.39 4.6 0 2.777.173 3.993.477 4.86.868 2.605 2.43 4.124 5.294 4.124.608 0 1.085-.087 1.302-.217 0 .043.087.086.087.086zm4.818-16.058c-.868 0-1.389-.39-1.65-1.171-.13-.348-.173-.782-.173-3.125 0-2.344.044-2.734.174-3.082.26-.78.781-1.171 1.649-1.171s1.389.39 1.65 1.171c.13.348.173.738.173 3.082 0 2.343-.044 2.777-.174 3.125-.26.78-.781 1.171-1.649 1.171zm11.24 12.543c.912 2.864 3.342 4.427 6.814 4.427s5.946-1.52 6.814-4.427c.347-1.085.477-2.257.477-10.72 0-8.463-.13-9.635-.477-10.72-.868-2.907-3.342-4.426-6.814-4.426s-5.859 1.562-6.77 4.427c-.347 1.084-.52 2.256-.52 10.72 0 8.462.13 9.634.476 10.719zm5.165-1.476c-.13-.434-.174-.955-.174-9.244 0-8.29.044-8.81.174-9.244.217-.694.781-1.128 1.65-1.128.867 0 1.431.434 1.648 1.128.13.434.174.955.174 9.244 0 8.29-.043 8.81-.174 9.244-.217.695-.737 1.129-1.649 1.129-.868 0-1.432-.434-1.649-1.129zm12.89 1.476c.911 2.864 3.341 4.427 6.813 4.427 3.472 0 5.946-1.52 6.814-4.427.347-1.085.478-2.257.478-10.72 0-8.463-.13-9.635-.478-10.72-.868-2.907-3.342-4.426-6.814-4.426s-5.859 1.562-6.77 4.427c-.347 1.084-.52 2.256-.52 10.72 0 8.462.13 9.634.477 10.719zm5.164-1.476c-.13-.434-.173-.955-.173-9.244 0-8.29.043-8.81.173-9.244.217-.694.781-1.128 1.65-1.128.867 0 1.432.434 1.649 1.128.13.434.173.955.173 9.244 0 8.29-.043 8.81-.173 9.244-.217.695-.738 1.129-1.65 1.129-.868 0-1.432-.434-1.649-1.129zm21.136 5.078c0 .26.173.434.434.434h4.817c.26 0 .434-.174.434-.434v-7.985l1.736-3.646 4.34 11.761c.043.217.174.304.434.304h5.165c.217 0 .347-.217.26-.434l-6.64-17.186 5.902-11.458c.13-.217 0-.434-.217-.434H163.8c-.26 0-.434.087-.564.348l-5.382 11.414V12.152c0-.26-.174-.434-.434-.434h-4.817c-.26 0-.434.174-.434.434zm36.846.434c.217 0 .304-.217.217-.434l-4.036-12.499c2.04-1.389 3.298-3.82 3.298-7.552 0-6.553-3.385-9.027-8.636-9.027h-7.031c-.26 0-.434.174-.434.434v28.644c0 .26.174.434.434.434h4.817c.26 0 .434-.174.434-.434v-10.85c0-.173.087-.26.26-.26h1.65l3.342 11.197c.086.26.217.347.477.347zm-9.418-16.448h-1.258c-.174 0-.26-.087-.26-.26V16.97c0-.174.086-.26.26-.26h1.258c2.214 0 3.168.954 3.168 4.035 0 3.125-.954 4.037-3.168 4.037zm12.37 16.014c0 .26.173.434.433.434h4.427c.26 0 .434-.174.434-.434v-5.034c0-.26-.174-.434-.434-.434H192.4c-.26 0-.434.173-.434.434z" fill="#fff"/></svg>