<svg width="173.598" height="60" viewBox="0 0 173.598 60" xmlns="http://www.w3.org/2000/svg"><path d="M24.082 39.91c-.127.297 0 .51.298.51h4.51c.34 0 .511-.128.639-.425l4.893-11.829c1.063-2.553 1.489-4.255 1.489-8.212 0-2.68-.128-3.659-.383-4.51-.894-2.766-3.191-4.34-6.723-4.34-3.531 0-5.829 1.574-6.722 4.34-.256.851-.383 1.83-.383 4.51 0 2.723.17 3.915.468 4.766.85 2.553 2.382 4.042 5.19 4.042.596 0 1.064-.085 1.277-.213 0 .043.085.085.085.085zm4.723-15.744c-.85 0-1.361-.382-1.617-1.148-.127-.34-.17-.766-.17-3.064 0-2.297.043-2.68.17-3.02.256-.767.766-1.15 1.617-1.15s1.362.383 1.617 1.15c.128.34.17.723.17 3.02 0 2.298-.042 2.723-.17 3.064-.255.766-.766 1.148-1.617 1.148zm11.063 12.34c.893 2.723 3.106 4.297 6.638 4.297 3.531 0 5.744-1.532 6.68-4.297.255-.809.383-1.873.383-5.404 0-4.085-.128-5.106-.468-6.085-.766-2.425-2.468-3.574-5.234-3.574-1.447 0-2.553.468-3.191 1.107h-.043v-6.042c0-.17.085-.256.256-.256H53.1c.255 0 .425-.17.425-.425v-3.914c0-.256-.17-.426-.425-.426H40.336c-.255 0-.426.17-.426.426v15.274c0 .298.17.426.426.426h3.787c.34 0 .51-.085.595-.383.256-.723.766-1.191 1.702-1.191.851 0 1.405.383 1.66 1.148.127.34.17.766.17 3.915 0 3.148-.043 3.574-.17 3.914-.255.766-.766 1.107-1.66 1.107-.85 0-1.361-.383-1.616-1.15-.128-.34-.17-.723-.17-1.829 0-.34-.213-.468-.511-.425l-4.213.425c-.297.043-.425.213-.425.51 0 1.022.128 2 .383 2.852zm17.317 3.489c0 .255.17.425.426.425h4.34c.255 0 .425-.17.425-.425v-4.936c0-.255-.17-.426-.425-.426h-4.34c-.256 0-.426.17-.426.426zm9.233-3.49c.894 2.724 3.106 4.298 6.638 4.298 3.531 0 5.744-1.532 6.68-4.297.255-.809.383-1.873.383-5.404 0-4.085-.128-5.106-.468-6.085-.766-2.425-2.468-3.574-5.234-3.574-1.446 0-2.553.468-3.19 1.107h-.043v-6.042c0-.17.085-.256.255-.256h8.212c.255 0 .425-.17.425-.425v-3.914c0-.256-.17-.426-.425-.426H66.886c-.255 0-.425.17-.425.426v15.274c0 .298.17.426.425.426h3.787c.34 0 .51-.085.596-.383.255-.723.766-1.191 1.702-1.191.85 0 1.404.383 1.66 1.148.127.34.17.766.17 3.915 0 3.148-.043 3.574-.17 3.914-.256.766-.767 1.107-1.66 1.107-.851 0-1.362-.383-1.617-1.15-.128-.34-.17-.723-.17-1.829 0-.34-.213-.468-.51-.425l-4.213.425c-.298.043-.426.213-.426.51 0 1.022.128 2 .383 2.852zm17.658-.042c.893 2.808 3.276 4.34 6.68 4.34s5.83-1.49 6.68-4.34c.34-1.064.468-2.213.468-10.51 0-8.296-.128-9.445-.468-10.509-.85-2.85-3.276-4.34-6.68-4.34s-5.744 1.532-6.638 4.34c-.34 1.064-.51 2.213-.51 10.51 0 8.296.127 9.445.468 10.509zm5.063-1.447c-.128-.425-.17-.936-.17-9.062 0-8.127.042-8.638.17-9.063.213-.681.766-1.107 1.617-1.107.85 0 1.404.426 1.617 1.107.127.425.17.936.17 9.063 0 8.126-.043 8.637-.17 9.062-.213.681-.724 1.107-1.617 1.107-.851 0-1.404-.426-1.617-1.107zm12.637 1.447c.894 2.808 3.276 4.34 6.68 4.34s5.83-1.49 6.68-4.34c.34-1.064.468-2.213.468-10.51 0-8.296-.127-9.445-.468-10.509-.85-2.85-3.276-4.34-6.68-4.34s-5.744 1.532-6.637 4.34c-.34 1.064-.511 2.213-.511 10.51 0 8.296.128 9.445.468 10.509zm5.063-1.447c-.127-.425-.17-.936-.17-9.062 0-8.127.043-8.638.17-9.063.213-.681.766-1.107 1.617-1.107s1.404.426 1.617 1.107c.128.425.17.936.17 9.063 0 8.126-.042 8.637-.17 9.062-.213.681-.723 1.107-1.617 1.107-.85 0-1.404-.426-1.617-1.107zm20.721 4.979c0 .255.17.425.426.425h4.723c.255 0 .425-.17.425-.425v-7.83l1.702-3.573 4.255 11.53c.043.213.17.298.426.298h5.063c.213 0 .34-.213.255-.425l-6.51-16.85 5.787-11.232c.127-.213 0-.426-.213-.426h-4.936c-.255 0-.425.085-.553.34l-5.276 11.19V11.914c0-.256-.17-.426-.425-.426h-4.723c-.255 0-.426.17-.426.426zm36.124.425c.213 0 .298-.213.213-.425L159.94 27.74c2-1.362 3.233-3.745 3.233-7.404 0-6.425-3.318-8.85-8.467-8.85h-6.893c-.255 0-.425.17-.425.426v28.082c0 .255.17.425.425.425h4.723c.256 0 .426-.17.426-.425V29.357c0-.17.085-.255.255-.255h1.617l3.276 10.978c.085.255.213.34.468.34zm-9.233-16.126h-1.234c-.17 0-.255-.085-.255-.255v-7.404c0-.17.085-.255.255-.255h1.234c2.17 0 3.106.936 3.106 3.957 0 3.064-.936 3.957-3.106 3.957zm12.126 15.7c0 .256.17.426.426.426h4.34c.255 0 .425-.17.425-.425v-4.936c0-.255-.17-.426-.425-.426h-4.34c-.255 0-.426.17-.426.426z" fill="#fff"/></svg>