<svg width="521.756" height="74" viewBox="0 0 521.756 74" xmlns="http://www.w3.org/2000/svg"><path d="M132.75 44.624c1.267 3.85 4.168 5.96 8.915 5.96 5.75 0 9.126-3.059 9.443-9.072 0-.317-.106-.58-.475-.633l-5.539-.95c-.316-.052-.58.106-.58.475-.106 2.849-1.002 3.956-2.743 3.956-1.266 0-2.004-.527-2.374-1.635-.21-.791-.316-1.424-.316-10.55 0-9.125.105-9.758.316-10.55.37-1.107 1.108-1.635 2.374-1.635 1.74 0 2.637 1.108 2.743 3.956 0 .37.264.528.58.475l5.539-.95c.37-.052.475-.316.475-.632-.317-6.014-3.693-9.073-9.443-9.073-4.747 0-7.648 2.11-8.914 5.96-.475 1.53-.686 3.166-.686 12.45 0 9.283.211 10.918.686 12.448zm31.017 5.96c4.695 0 7.86-2.11 9.179-6.065.58-1.636.738-3.113.738-12.344 0-9.23-.158-10.708-.738-12.343-1.32-3.956-4.484-6.066-9.179-6.066-4.694 0-7.86 2.11-9.178 6.066-.58 1.635-.738 3.112-.738 12.343s.158 10.708.738 12.344c1.319 3.956 4.484 6.066 9.178 6.066zm0-6.224c-1.318 0-2.215-.738-2.532-1.74-.263-.844-.369-1.741-.369-10.445 0-8.703.106-9.6.37-10.444.316-1.002 1.213-1.74 2.531-1.74 1.319 0 2.216.738 2.532 1.74.264.844.37 1.74.37 10.444s-.106 9.6-.37 10.445c-.316 1.002-1.213 1.74-2.532 1.74zm32.81-4.905c0-6.066-1.899-8.704-6.804-10.603l-2.163-.844c-2.796-1.108-3.376-1.952-3.376-4.642 0-2.426.897-3.587 2.743-3.587 1.899 0 2.796 1.319 2.848 3.904 0 .316.264.474.58.422l5.381-.844c.316-.053.475-.264.475-.58-.264-5.645-3.218-8.915-9.495-8.915-6.383 0-9.495 3.481-9.495 9.97 0 5.75 1.74 8.44 6.805 10.391l2.162.844c2.69 1.055 3.324 2.163 3.324 5.328 0 3.27-.897 4.272-2.849 4.272-2.057 0-3.007-1.318-3.112-4.642 0-.316-.211-.474-.58-.422l-5.644.897c-.317.053-.422.264-.422.58.105 6.172 3.217 9.6 9.705 9.6 7.121 0 9.917-3.797 9.917-11.13zm14.295 10.655c.317 0 .528-.211.528-.527V20.782c0-.211.105-.317.316-.317h5.644c.317 0 .528-.21.528-.527v-5.17c0-.316-.211-.527-.528-.527H198.53c-.317 0-.528.21-.528.527v5.17c0 .316.211.527.528.527h5.644c.211 0 .317.106.317.317v28.8c0 .317.21.528.527.528zm5.592-.527c-.053.316.105.527.422.527h5.855c.369 0 .527-.211.58-.527l1.213-6.489h6.805l1.16 6.489c.053.316.211.527.58.527h5.856c.316 0 .474-.211.422-.527l-7.702-34.815c-.052-.316-.263-.527-.58-.527h-6.224c-.317 0-.475.21-.58.527zm9.072-11.975l2.374-12.448h.158l2.269 12.448zm27.008 11.975c0 .316.21.527.527.527h9.073c4.959 0 7.86-1.899 9.179-5.96.633-2.005.949-4.432.949-11.975 0-7.543-.316-9.97-.95-11.974-1.318-4.061-4.22-5.96-9.178-5.96h-9.073c-.316 0-.527.21-.527.527zm6.91-6.014V20.782c0-.211.106-.317.317-.317h1.687c1.741 0 2.69.633 3.218 2.216.422 1.107.58 2.637.58 9.494 0 6.858-.158 8.387-.58 9.495-.527 1.583-1.477 2.216-3.218 2.216h-1.687c-.211 0-.317-.106-.317-.317zm17.143 6.014c0 .316.211.527.528.527h15.666c.317 0 .528-.211.528-.527v-5.17c0-.316-.211-.527-.528-.527h-8.967c-.21 0-.316-.106-.316-.317v-8.123c0-.211.105-.317.316-.317h7.754c.317 0 .528-.21.528-.527v-5.17c0-.316-.211-.527-.528-.527h-7.754c-.21 0-.316-.106-.316-.317v-7.806c0-.211.105-.317.316-.317h8.967c.317 0 .528-.21.528-.527v-5.17c0-.316-.211-.527-.528-.527h-15.666c-.317 0-.528.21-.528.527zm20.573 0c0 .316.21.527.527.527h15.772c.316 0 .527-.211.527-.527v-5.17c0-.316-.21-.527-.527-.527h-9.073c-.21 0-.316-.106-.316-.317v-28.8c0-.317-.211-.528-.528-.528h-5.855c-.316 0-.527.21-.527.527zm49.162-10.128c0-6.066-1.9-8.704-6.805-10.603l-2.163-.844c-2.795-1.108-3.376-1.952-3.376-4.642 0-2.426.897-3.587 2.743-3.587 1.9 0 2.796 1.319 2.849 3.904 0 .316.263.474.58.422l5.38-.844c.317-.053.475-.264.475-.58-.264-5.645-3.218-8.915-9.495-8.915-6.382 0-9.495 3.481-9.495 9.97 0 5.75 1.741 8.44 6.805 10.391l2.163.844c2.69 1.055 3.323 2.163 3.323 5.328 0 3.27-.897 4.272-2.848 4.272-2.058 0-3.007-1.318-3.113-4.642 0-.316-.21-.474-.58-.422l-5.644.897c-.317.053-.422.264-.422.58.105 6.172 3.218 9.6 9.706 9.6 7.12 0 9.917-3.797 9.917-11.13zm13.134 11.13c4.695 0 7.86-2.11 9.178-6.066.58-1.636.739-3.113.739-12.344 0-9.23-.158-10.708-.739-12.343-1.318-3.956-4.483-6.066-9.178-6.066-4.695 0-7.86 2.11-9.178 6.066-.58 1.635-.739 3.112-.739 12.343s.159 10.708.739 12.344c1.319 3.956 4.483 6.066 9.178 6.066zm0-6.225c-1.319 0-2.215-.738-2.532-1.74-.264-.844-.37-1.741-.37-10.445 0-8.703.106-9.6.37-10.444.317-1.002 1.213-1.74 2.532-1.74s2.216.738 2.532 1.74c.264.844.37 1.74.37 10.444s-.106 9.6-.37 10.445c-.316 1.002-1.213 1.74-2.532 1.74zm14.242 5.223c0 .316.211.527.528.527h15.772c.316 0 .527-.211.527-.527v-5.17c0-.316-.21-.527-.527-.527h-9.073c-.211 0-.317-.106-.317-.317v-28.8c0-.317-.21-.528-.527-.528h-5.855c-.317 0-.528.21-.528.527z" fill="#fff"/></svg>