<svg width="521.488" height="53" viewBox="0 0 521.488 53" xmlns="http://www.w3.org/2000/svg"><path d="M44.49 35.433c-.038.226.15.377.377.377h1.206c.226 0 .34-.15.377-.377l1.282-6.145h6.258l1.281 6.145c.038.226.151.377.415.377h1.206c.227 0 .377-.15.34-.377l-5.278-24.88c-.038-.227-.188-.378-.415-.378h-1.244c-.226 0-.339.151-.414.377zm3.619-7.917l2.752-13.08h.075l2.677 13.08zM51.35 6.971c.264 0 .377-.075.64-.377l3.28-3.883c.151-.188.076-.377-.15-.377h-1.244c-.34 0-.453.113-.641.377l-2.828 3.883c-.15.189-.075.377.151.377zm16.323 28.462c0 .226.15.377.377.377h1.093c.226 0 .377-.15.377-.377V15.755h.113l4.524 15.117c.075.263.189.377.415.377h.754c.226 0 .339-.114.414-.377l4.524-15.117h.113v19.678c0 .226.151.377.377.377h1.093c.227 0 .377-.15.377-.377v-24.88c0-.227-.15-.378-.377-.378h-1.281c-.226 0-.415.114-.49.377l-5.052 17.19h-.075l-5.127-17.19c-.076-.263-.226-.377-.49-.377H68.05c-.226 0-.377.151-.377.377zm18.057 0c-.037.226.151.377.377.377h1.207c.226 0 .339-.15.377-.377l1.281-6.145h6.258l1.282 6.145c.038.226.15.377.415.377h1.206c.226 0 .377-.15.34-.377l-5.278-24.88c-.038-.227-.189-.378-.415-.378h-1.244c-.226 0-.34.151-.415.377zm3.62-7.917l2.751-13.08h.076l2.676 13.08zm12.628 7.917c0 .226.15.377.377.377h1.056c.226 0 .377-.15.377-.377V14.435h.113l7.162 20.998c.113.302.264.377.603.377h1.433c.226 0 .377-.15.377-.377v-24.88c0-.227-.15-.378-.377-.378h-1.056c-.226 0-.377.151-.377.377V31.55h-.113l-7.087-20.998c-.113-.301-.264-.377-.603-.377h-1.508c-.226 0-.377.151-.377.377zm16.625 0c0 .226.15.377.377.377h1.055c.227 0 .377-.15.377-.377V14.435h.113l7.163 20.998c.113.302.264.377.603.377h1.433c.226 0 .377-.15.377-.377v-24.88c0-.227-.151-.378-.377-.378h-1.056c-.226 0-.377.151-.377.377V31.55h-.113l-7.087-20.998c-.113-.301-.264-.377-.603-.377h-1.508c-.226 0-.377.151-.377.377zm23.561 0c0 .226.15.377.377.377h1.093c.227 0 .377-.15.377-.377V15.755h.113l4.524 15.117c.076.263.189.377.415.377h.754c.226 0 .34-.114.414-.377l4.524-15.117h.113v19.678c0 .226.151.377.377.377h1.094c.226 0 .376-.15.376-.377v-24.88c0-.227-.15-.378-.376-.378h-1.282c-.226 0-.415.114-.49.377l-5.052 17.19h-.075l-5.127-17.19c-.076-.263-.226-.377-.49-.377h-1.282c-.226 0-.377.151-.377.377zm19.113 0c0 .226.15.377.377.377h1.696c.227 0 .377-.15.377-.377v-2.45c0-.227-.15-.377-.377-.377h-1.696c-.226 0-.377.15-.377.377zm12.139.377c.226 0 .339-.15.377-.377l5.089-24.88c.038-.227-.038-.378-.302-.378h-1.244c-.226 0-.339.151-.377.377l-4.033 20.659h-.114l-4.07-20.659c-.039-.226-.19-.377-.416-.377h-1.244c-.263 0-.339.151-.301.377l5.089 24.881c.038.226.15.377.377.377zm5.466-.377c0 .226.15.377.377.377h1.696c.226 0 .377-.15.377-.377v-2.45c0-.227-.15-.377-.377-.377h-1.696c-.226 0-.377.15-.377.377zm12.893 0c0 .226.15.377.377.377h8.934c.226 0 .377-.15.377-.377v-1.018c0-.226-.15-.377-.377-.377h-7.238v-.037l6.145-12.064c.942-1.885 1.47-3.393 1.47-5.918 0-1.66-.075-2.338-.302-3.054-.64-1.998-2.186-3.091-4.523-3.091-2.338 0-3.883 1.13-4.524 3.091-.226.716-.34 1.395-.34 3.317 0 .264.114.415.378.453l1.055.113c.264.038.415-.113.415-.377 0-1.96.075-2.45.226-2.94.415-1.207 1.357-1.885 2.752-1.885 1.432 0 2.375.678 2.752 1.885.188.49.264.98.264 2.488 0 2.11-.453 3.43-1.244 5.013l-6.447 12.818c-.113.188-.15.339-.15.603zm21.374 0c0 .226.151.377.377.377h1.207c.226 0 .377-.15.377-.377v-11.31c0-.15.075-.226.226-.226h6.031c.227 0 .377-.15.377-.377v-1.093c0-.226-.15-.377-.377-.377h-6.031c-.151 0-.226-.075-.226-.226V12.25c0-.151.075-.226.226-.226h6.898c.227 0 .377-.151.377-.377v-1.094c0-.226-.15-.377-.377-.377h-8.708c-.226 0-.377.151-.377.377zm18.623.679c3.317 0 5.542-2.074 5.542-6.334V10.552c0-.226-.151-.377-.377-.377h-1.169c-.226 0-.377.151-.377.377V29.93c0 2.978-1.47 4.335-3.619 4.335s-3.581-1.357-3.581-4.335V10.552c0-.226-.151-.377-.377-.377h-1.207c-.226 0-.377.151-.377.377v19.226c0 4.26 2.225 6.334 5.542 6.334zm10.63-.679c0 .226.152.377.378.377h8.67c.227 0 .377-.15.377-.377V34.34c0-.226-.15-.377-.377-.377h-6.86c-.151 0-.227-.076-.227-.226V10.552c0-.226-.15-.377-.377-.377h-1.206c-.226 0-.377.151-.377.377zm12.969 0c0 .226.15.377.377.377h8.67c.227 0 .377-.15.377-.377V34.34c0-.226-.15-.377-.377-.377h-6.86c-.151 0-.227-.076-.227-.226V10.552c0-.226-.15-.377-.377-.377h-1.206c-.226 0-.377.151-.377.377zm17.303.679c2.64 0 4.41-1.207 5.165-3.506.377-1.131.49-2.111.49-9.613 0-7.502-.113-8.482-.49-9.613-.754-2.3-2.526-3.506-5.165-3.506-2.639 0-4.41 1.206-5.164 3.506-.377 1.13-.49 2.11-.49 9.613 0 7.502.113 8.482.49 9.613.754 2.3 2.525 3.506 5.164 3.506zm0-1.848c-1.62 0-2.752-.754-3.28-2.261-.263-.868-.376-1.66-.376-9.01 0-7.351.113-8.143.377-9.01.527-1.546 1.658-2.262 3.28-2.262 1.62 0 2.789.716 3.279 2.262.264.867.415 1.659.415 9.01 0 7.35-.151 8.142-.415 9.01-.49 1.507-1.659 2.261-3.28 2.261zm21.036 1.546c.188 0 .264-.15.188-.377l-3.468-11.686c2.036-.905 3.167-2.903 3.167-6.484 0-5.203-2.036-7.088-6.522-7.088h-3.657c-.226 0-.377.151-.377.377v24.881c0 .226.151.377.377.377h1.206c.227 0 .377-.15.377-.377V24.576c0-.15.076-.226.227-.226H287c.566 0 1.094-.038 1.584-.113l3.317 11.31c.076.188.189.263.415.263zm-6.484-13.27h-1.998c-.151 0-.227-.075-.227-.226V12.25c0-.151.076-.226.227-.226h1.998c3.129 0 4.41 1.281 4.41 5.24 0 4.109-1.357 5.277-4.41 5.277zm16.021 13.27c3.091 0 4.788-1.357 5.58-3.807.452-1.395.603-3.092.603-9.01 0-5.957-.151-7.615-.603-9.01-.792-2.45-2.489-3.808-5.58-3.808h-4.599c-.226 0-.377.151-.377.377V21.75c0 .15-.075.226-.226.226h-1.282c-.226 0-.377.15-.377.377v.905c0 .226.151.377.377.377h1.282c.15 0 .226.075.226.226v11.573c0 .226.15.377.377.377zm-.226-1.847h-2.563c-.151 0-.227-.076-.227-.226V23.86c0-.151.076-.226.227-.226h2.827c.226 0 .377-.151.377-.377v-.905c0-.226-.15-.377-.377-.377h-2.827c-.151 0-.227-.076-.227-.226v-9.5c0-.151.076-.226.227-.226h2.563c2.149 0 3.317.829 3.92 2.6.378 1.17.528 2.715.528 8.37 0 5.654-.15 7.2-.527 8.369-.604 1.771-1.772 2.6-3.92 2.6zm11.159 1.47c0 .226.15.377.377.377h1.055c.226 0 .377-.15.377-.377V14.435h.113l7.163 20.998c.113.302.264.377.603.377h1.433c.226 0 .377-.15.377-.377v-24.88c0-.227-.151-.378-.377-.378h-1.056c-.226 0-.377.151-.377.377V31.55h-.113l-7.087-20.998c-.113-.301-.264-.377-.603-.377h-1.508c-.227 0-.377.151-.377.377zm15.003 0c-.037.226.151.377.377.377h1.207c.226 0 .339-.15.377-.377l1.281-6.145h6.258l1.282 6.145c.038.226.15.377.415.377h1.206c.226 0 .377-.15.34-.377l-5.278-24.88c-.038-.227-.189-.378-.415-.378h-1.244c-.226 0-.34.151-.415.377zm3.62-7.917l2.751-13.08h.076l2.676 13.08zm24.805 8.596c2.638 0 4.41-1.207 5.164-3.506.377-1.131.49-2.111.49-9.613 0-7.502-.113-8.482-.49-9.613-.754-2.3-2.526-3.506-5.164-3.506-2.64 0-4.411 1.206-5.165 3.506-.377 1.13-.49 2.11-.49 9.613 0 7.502.113 8.482.49 9.613.754 2.3 2.526 3.506 5.165 3.506zm0-1.848c-1.621 0-2.752-.754-3.28-2.261-.264-.868-.377-1.66-.377-9.01 0-7.351.113-8.143.377-9.01.528-1.546 1.659-2.262 3.28-2.262 1.62 0 2.79.716 3.28 2.262.263.867.414 1.659.414 9.01 0 7.35-.15 8.142-.415 9.01-.49 1.507-1.658 2.261-3.28 2.261zm10.442-1.658c.754 2.3 2.526 3.506 5.165 3.506 2.638 0 4.41-1.207 5.164-3.506.377-1.131.49-2.111.49-8.746v-1.018c0-.226-.15-.377-.377-.377h-4.825c-.226 0-.377.15-.377.377v1.055c0 .227.15.377.377.377h3.053c.151 0 .227.076.227.227 0 5.843-.113 6.634-.377 7.502-.528 1.507-1.697 2.261-3.318 2.261-1.62 0-2.79-.754-3.317-2.261-.264-.868-.377-1.66-.377-9.01 0-7.351.113-8.143.377-9.01.528-1.546 1.659-2.262 3.28-2.262 2.261 0 3.355 1.395 3.694 3.657.038.226.188.339.452.264l1.094-.227c.226-.075.301-.226.263-.49-.414-3.09-2.186-5.051-5.503-5.051-2.64 0-4.411 1.206-5.165 3.506-.377 1.13-.49 2.11-.49 9.613 0 7.502.113 8.482.49 9.613zm21.902 2.827c0 .226.151.377.377.377h8.935c.226 0 .377-.15.377-.377v-1.018c0-.226-.151-.377-.377-.377h-7.238v-.037l6.145-12.064c.942-1.885 1.47-3.393 1.47-5.918 0-1.66-.076-2.338-.302-3.054-.64-1.998-2.186-3.091-4.524-3.091-2.337 0-3.882 1.13-4.523 3.091-.226.716-.34 1.395-.34 3.317 0 .264.114.415.377.453l1.056.113c.264.038.415-.113.415-.377 0-1.96.075-2.45.226-2.94.415-1.207 1.357-1.885 2.752-1.885 1.432 0 2.375.678 2.752 1.885.188.49.264.98.264 2.488 0 2.11-.453 3.43-1.244 5.013l-6.447 12.818c-.113.188-.15.339-.15.603zm21.375 0c0 .226.151.377.377.377h3.845c4.524 0 6.447-1.847 6.447-7.087 0-4.034-1.32-5.58-3.242-6.258v-.075c1.96-.754 2.978-2.375 2.978-5.693 0-4.825-1.697-6.522-6.032-6.522h-3.996c-.226 0-.377.151-.377.377zm2.187-13.76c-.151 0-.227-.075-.227-.226V12.25c0-.151.076-.226.227-.226h2.148c3.016 0 4.11 1.055 4.11 4.863 0 3.619-1.32 4.787-3.996 4.787zm-.227 12.064V23.67c0-.15.076-.226.227-.226h2.3c2.827 0 4.221 1.244 4.221 5.24 0 4.147-1.281 5.278-4.448 5.278h-2.073c-.151 0-.227-.076-.227-.226zm21.3-27.595c.226 0 .377-.151.377-.377V3.729c0-.226-.151-.377-.377-.377h-1.282c-.226 0-.377.15-.377.377v2.036c0 .226.15.377.377.377zm-5.203 0c.227 0 .377-.151.377-.377V3.729c0-.226-.15-.377-.377-.377h-1.281c-.226 0-.377.15-.377.377v2.036c0 .226.15.377.377.377zm1.96 29.97c2.64 0 4.411-1.207 5.165-3.506.377-1.131.49-2.111.49-9.613 0-7.502-.113-8.482-.49-9.613-.754-2.3-2.525-3.506-5.164-3.506-2.64 0-4.41 1.206-5.165 3.506-.377 1.13-.49 2.11-.49 9.613 0 7.502.113 8.482.49 9.613.754 2.3 2.526 3.506 5.165 3.506zm0-1.848c-1.62 0-2.751-.754-3.279-2.261-.264-.868-.377-1.66-.377-9.01 0-7.351.113-8.143.377-9.01.528-1.546 1.659-2.262 3.28-2.262 1.62 0 2.79.716 3.28 2.262.263.867.414 1.659.414 9.01 0 7.35-.15 8.142-.415 9.01-.49 1.507-1.658 2.261-3.28 2.261zm21.036 1.546c.189 0 .264-.15.189-.377L449.1 23.747c2.036-.905 3.167-2.903 3.167-6.484 0-5.203-2.036-7.088-6.522-7.088h-3.656c-.227 0-.377.151-.377.377v24.881c0 .226.15.377.377.377h1.206c.226 0 .377-.15.377-.377V24.576c0-.15.075-.226.226-.226h1.772c.565 0 1.093-.038 1.583-.113l3.318 11.31c.075.188.188.263.414.263zm-6.484-13.27H443.9c-.15 0-.226-.075-.226-.226V12.25c0-.151.075-.226.226-.226h1.998c3.13 0 4.41 1.281 4.41 5.24 0 4.109-1.356 5.277-4.41 5.277zm11.046 12.893c0 .226.15.377.377.377h1.055c.226 0 .377-.15.377-.377V14.435h.113l7.163 20.998c.113.302.264.377.603.377h1.433c.226 0 .376-.15.376-.377v-24.88c0-.227-.15-.378-.376-.378h-1.056c-.226 0-.377.151-.377.377V31.55h-.113l-7.087-20.998c-.113-.301-.264-.377-.603-.377h-1.508c-.227 0-.377.151-.377.377z" fill="#fff"/></svg>