<svg width="521.756" height="74" viewBox="0 0 521.756 74" xmlns="http://www.w3.org/2000/svg"><path d="M178.3 50.11c.316 0 .527-.211.527-.527v-12.45c0-.21.106-.316.317-.316h1.74c6.383 0 10.55-3.165 10.55-11.288 0-8.176-4.009-11.288-10.55-11.288h-8.44c-.316 0-.527.21-.527.527v34.815c0 .316.211.527.528.527zm2.373-19.359h-1.53c-.21 0-.316-.105-.316-.316v-9.812c0-.21.106-.316.317-.316h1.53c2.69 0 3.85 1.16 3.85 5.222s-1.16 5.222-3.85 5.222zm24.001 19.834c4.695 0 7.86-2.11 9.178-6.066.58-1.636.739-3.113.739-12.344 0-9.23-.158-10.708-.739-12.343-1.318-3.956-4.483-6.066-9.178-6.066-4.694 0-7.86 2.11-9.178 6.066-.58 1.635-.739 3.112-.739 12.343s.159 10.708.739 12.344c1.319 3.956 4.484 6.066 9.178 6.066zm0-6.225c-1.319 0-2.215-.738-2.532-1.74-.264-.844-.369-1.741-.369-10.445 0-8.703.105-9.6.37-10.444.316-1.002 1.212-1.74 2.531-1.74 1.319 0 2.216.738 2.532 1.74.264.844.37 1.74.37 10.444s-.106 9.6-.37 10.445c-.316 1.002-1.213 1.74-2.532 1.74zm34.445 5.75c.264 0 .37-.264.264-.527l-4.906-15.192c2.48-1.688 4.01-4.642 4.01-9.179 0-7.965-4.115-10.971-10.498-10.971h-8.545c-.317 0-.528.21-.528.527v34.815c0 .316.211.527.528.527h5.855c.317 0 .528-.211.528-.527V36.395c0-.21.105-.316.316-.316h2.004l4.062 13.609c.106.317.264.422.58.422zm-11.446-19.992h-1.53c-.211 0-.316-.105-.316-.316v-9.179c0-.21.105-.316.316-.316h1.53c2.69 0 3.85 1.16 3.85 4.905 0 3.798-1.16 4.906-3.85 4.906zM253.73 50.11c.316 0 .527-.211.527-.527V20.782c0-.211.106-.317.317-.317h5.644c.316 0 .527-.21.527-.527v-5.17c0-.316-.21-.527-.527-.527h-18.832c-.316 0-.527.21-.527.527v5.17c0 .316.211.527.527.527h5.645c.21 0 .316.106.316.317v28.8c0 .317.211.528.528.528zm21.68-39.825c.422 0 .685-.159 1.055-.528l5.485-6.013c.211-.264.053-.528-.263-.528h-5.275c-.422 0-.58.158-.844.528l-4.326 6.013c-.21.264-.052.528.264.528zm-1.952 40.3c6.013 0 9.706-3.429 9.706-10.18V14.767c0-.316-.211-.527-.528-.527h-5.855c-.316 0-.527.21-.527.527v26.48c0 1.9-1.003 3.112-2.796 3.112-1.74 0-2.743-1.213-2.743-3.112v-26.48c0-.316-.211-.527-.528-.527h-5.855c-.316 0-.527.21-.527.527v25.636c0 6.752 3.692 10.18 9.653 10.18zm14.611-6.014c1.32 3.904 4.431 6.014 9.231 6.014 4.695 0 7.807-2.11 9.126-6.066.58-1.636.738-3.113.738-12.344v-1.582c0-.317-.21-.528-.527-.528h-8.704c-.316 0-.527.211-.527.528v4.642c0 .316.21.527.527.527h2.269c.21 0 .316.106.316.317 0 5.275-.105 5.802-.316 6.54-.317 1.056-1.425 1.741-2.743 1.741-1.32 0-2.427-.685-2.743-1.74-.264-.792-.317-1.266-.317-10.445 0-9.23.053-9.653.317-10.497.316-1.002 1.371-1.688 2.637-1.688 1.794 0 2.849 1.214 3.007 3.798.053.37.264.528.58.475l5.591-.95c.317-.052.475-.316.422-.632-.474-5.803-3.85-8.915-9.653-8.915-4.8 0-7.912 2.11-9.23 6.013-.528 1.688-.686 3.165-.686 12.396 0 9.231.158 10.708.685 12.396zm20.52 5.012c-.053.316.105.527.422.527h5.855c.37 0 .527-.211.58-.527l1.213-6.489h6.805l1.16 6.489c.053.316.211.527.58.527h5.856c.316 0 .475-.211.422-.527l-7.702-34.815c-.052-.316-.263-.527-.58-.527h-6.224c-.317 0-.475.21-.58.527zm9.073-11.975l2.373-12.448h.158l2.269 12.448zm16.721 11.975c0 .316.211.527.527.527h15.772c.317 0 .528-.211.528-.527v-5.17c0-.316-.211-.527-.528-.527h-9.072c-.211 0-.317-.106-.317-.317v-28.8c0-.317-.21-.528-.527-.528h-5.856c-.316 0-.527.21-.527.527z" fill="#fff"/></svg>