<svg width="521.756" height="74" viewBox="0 0 521.756 74" xmlns="http://www.w3.org/2000/svg"><path d="M184.26 49.583c-.052.316.106.527.422.527h5.855c.37 0 .528-.211.58-.527l1.214-6.489h6.805l1.16 6.489c.053.316.211.527.58.527h5.855c.317 0 .475-.211.422-.527l-7.701-34.815c-.053-.316-.264-.527-.58-.527h-6.225c-.316 0-.474.21-.58.527zm9.073-11.975l2.374-12.448h.158l2.268 12.448zm16.722 11.975c0 .316.21.527.527.527h15.772c.317 0 .527-.211.527-.527v-5.17c0-.316-.21-.527-.527-.527h-9.073c-.21 0-.316-.106-.316-.317v-28.8c0-.317-.211-.528-.528-.528h-5.855c-.316 0-.527.21-.527.527zm20.308 0c0 .316.21.527.527.527h5.117c.317 0 .528-.211.528-.527v-20.73h.316l3.903 14.347c.106.316.317.527.686.527h2.901c.37 0 .58-.21.686-.527l3.904-14.348h.316v20.73c0 .317.211.528.528.528h5.116c.317 0 .528-.211.528-.527V14.768c0-.316-.211-.527-.528-.527h-5.644c-.475 0-.738.158-.844.527L243.128 33.6h-.21l-5.487-18.832c-.105-.37-.369-.527-.844-.527h-5.697c-.316 0-.527.21-.527.527zm29.909 0c0 .316.21.527.527.527h15.667c.316 0 .527-.211.527-.527v-5.17c0-.316-.21-.527-.527-.527h-8.968c-.21 0-.316-.106-.316-.317v-8.123c0-.211.105-.317.316-.317h7.754c.317 0 .528-.21.528-.527v-5.17c0-.316-.211-.527-.528-.527h-7.754c-.21 0-.316-.106-.316-.317v-7.806c0-.211.105-.317.316-.317h8.968c.316 0 .527-.21.527-.527v-5.17c0-.316-.21-.527-.527-.527h-15.667c-.316 0-.527.21-.527.527zm40.775.527c.263 0 .369-.264.263-.527l-4.905-15.192c2.479-1.688 4.009-4.642 4.009-9.179 0-7.965-4.115-10.971-10.497-10.971h-8.546c-.316 0-.527.21-.527.527v34.815c0 .316.21.527.527.527h5.855c.317 0 .528-.211.528-.527V36.395c0-.21.105-.316.316-.316h2.005l4.061 13.609c.106.317.264.422.58.422zM289.6 30.118h-1.53c-.21 0-.316-.105-.316-.316v-9.179c0-.21.105-.316.316-.316h1.53c2.69 0 3.85 1.16 3.85 4.905 0 3.798-1.16 4.906-3.85 4.906zm15.192 19.465c0 .316.21.527.527.527h5.855c.317 0 .528-.211.528-.527V14.768c0-.316-.211-.527-.528-.527h-5.855c-.316 0-.527.21-.527.527zm5.064-39.298c.422 0 .685-.159 1.055-.528l5.486-6.013c.21-.264.052-.528-.264-.528h-5.275c-.422 0-.58.158-.844.528l-4.325 6.013c-.211.264-.053.528.263.528zm4.747 39.298c-.053.316.106.527.422.527h5.855c.37 0 .528-.211.58-.527l1.214-6.489h6.804l1.16 6.489c.054.316.212.527.581.527h5.855c.317 0 .475-.211.422-.527l-7.701-34.815c-.053-.316-.264-.527-.58-.527h-6.225c-.316 0-.475.21-.58.527zm9.073-11.975l2.374-12.448h.158l2.268 12.448z" fill="#fff"/></svg>