<svg width="211.041" height="61" viewBox="0 0 211.041 61" xmlns="http://www.w3.org/2000/svg"><path d="M43.215 40.796c0 .26.173.434.434.434h4.557c.26 0 .434-.174.434-.434V12.152c0-.26-.174-.434-.434-.434h-4.297c-.304 0-.477.087-.738.26L39.352 14.8c-.304.217-.39.39-.39.694v4.687c0 .347.26.434.477.26l3.689-2.56h.087zm18.054 0c0 .26.174.434.434.434h4.557c.26 0 .434-.174.434-.434V12.152c0-.26-.174-.434-.434-.434h-4.297c-.303 0-.477.087-.737.26l-3.82 2.822c-.303.217-.39.39-.39.694v4.687c0 .347.26.434.477.26l3.69-2.56h.086zm13.28-3.559c.912 2.778 3.212 4.384 6.77 4.384 3.646 0 5.903-1.563 6.814-4.34.26-.825.39-1.953.39-4.6 0-2.691-.086-3.43-.303-4.124-.39-1.258-1.128-2.04-2.257-2.69v-.087c1.085-.651 1.866-1.476 2.257-2.691.217-.694.304-1.476.304-3.429 0-2.04-.13-3.168-.39-3.992-.912-2.778-3.126-4.34-6.814-4.34-3.56 0-5.86 1.606-6.77 4.383-.261.868-.391 1.866-.391 3.212 0 .303.13.477.434.52l4.34.434c.303.044.52-.086.52-.434 0-1.432.044-1.822.13-2.17.261-.78.782-1.171 1.693-1.171.868 0 1.389.347 1.65 1.128.13.347.173.781.173 2.43 0 2.17-.043 2.561-.174 2.865-.26.781-.868 1.041-1.866 1.041h-.694c-.26 0-.434.174-.434.434v4.037c0 .26.173.434.434.434h.65c1.042 0 1.65.26 1.91 1.085.13.303.174.737.174 3.08 0 2.301-.043 2.735-.174 3.082-.26.781-.78 1.129-1.649 1.129-.911 0-1.432-.39-1.692-1.172-.087-.347-.13-.738-.13-2.17 0-.347-.218-.477-.521-.434l-4.34.434c-.304.043-.434.217-.434.52 0 1.346.13 2.344.39 3.212zm17.75 3.559c0 .26.174.434.435.434h4.426c.26 0 .434-.174.434-.434v-5.034c0-.26-.173-.434-.434-.434h-4.426c-.26 0-.434.173-.434.434zm11.371-.087c-.13.304 0 .521.304.521h4.6c.348 0 .521-.13.651-.434l4.991-12.065c1.085-2.604 1.52-4.34 1.52-8.376 0-2.734-.13-3.733-.391-4.6-.912-2.821-3.255-4.427-6.857-4.427-3.603 0-5.946 1.606-6.858 4.427-.26.867-.39 1.866-.39 4.6 0 2.777.174 3.993.477 4.86.868 2.605 2.43 4.124 5.295 4.124.608 0 1.085-.087 1.302-.217 0 .043.087.086.087.086zm4.818-16.058c-.868 0-1.39-.39-1.65-1.171-.13-.348-.173-.782-.173-3.125 0-2.344.043-2.734.173-3.082.26-.78.782-1.171 1.65-1.171.868 0 1.388.39 1.649 1.171.13.348.173.738.173 3.082 0 2.343-.043 2.777-.173 3.125-.26.78-.781 1.171-1.65 1.171zm11.24 12.543c.911 2.864 3.342 4.427 6.814 4.427s5.946-1.52 6.814-4.427c.347-1.085.477-2.257.477-10.72 0-8.463-.13-9.635-.477-10.72-.868-2.907-3.342-4.426-6.814-4.426s-5.86 1.562-6.77 4.427c-.348 1.084-.521 2.256-.521 10.72 0 8.462.13 9.634.477 10.719zm5.165-1.476c-.13-.434-.174-.955-.174-9.244 0-8.29.043-8.81.174-9.244.217-.694.78-1.128 1.649-1.128.868 0 1.432.434 1.649 1.128.13.434.174.955.174 9.244 0 8.29-.044 8.81-.174 9.244-.217.695-.738 1.129-1.65 1.129-.867 0-1.431-.434-1.648-1.129zm12.89 1.476c.91 2.864 3.341 4.427 6.813 4.427 3.472 0 5.946-1.52 6.814-4.427.347-1.085.477-2.257.477-10.72 0-8.463-.13-9.635-.477-10.72-.868-2.907-3.342-4.426-6.814-4.426s-5.859 1.562-6.77 4.427c-.348 1.084-.521 2.256-.521 10.72 0 8.462.13 9.634.477 10.719zm5.164-1.476c-.13-.434-.174-.955-.174-9.244 0-8.29.044-8.81.174-9.244.217-.694.781-1.128 1.649-1.128s1.432.434 1.65 1.128c.13.434.173.955.173 9.244 0 8.29-.044 8.81-.174 9.244-.217.695-.738 1.129-1.649 1.129-.868 0-1.432-.434-1.65-1.129zm21.135 5.078c0 .26.174.434.434.434h4.818c.26 0 .434-.174.434-.434v-7.985l1.736-3.646 4.34 11.761c.043.217.173.304.434.304h5.164c.217 0 .347-.217.26-.434l-6.64-17.186 5.903-11.458c.13-.217 0-.434-.217-.434h-5.035c-.26 0-.434.087-.564.348l-5.381 11.414V12.152c0-.26-.174-.434-.434-.434h-4.818c-.26 0-.434.174-.434.434zm36.846.434c.217 0 .304-.217.217-.434l-4.036-12.499c2.04-1.389 3.299-3.82 3.299-7.552 0-6.553-3.385-9.027-8.637-9.027h-7.03c-.26 0-.435.174-.435.434v28.644c0 .26.174.434.434.434h4.818c.26 0 .434-.174.434-.434v-10.85c0-.173.087-.26.26-.26h1.65l3.341 11.197c.087.26.217.347.478.347zm-9.417-16.448h-1.259c-.173 0-.26-.087-.26-.26V16.97c0-.174.087-.26.26-.26h1.259c2.213 0 3.168.954 3.168 4.035 0 3.125-.955 4.037-3.168 4.037zm12.369 16.014c0 .26.173.434.434.434h4.426c.26 0 .434-.174.434-.434v-5.034c0-.26-.173-.434-.434-.434h-4.426c-.26 0-.434.173-.434.434z" fill="#fff"/></svg>