<svg width="227.412" height="61" viewBox="0 0 227.412 61" xmlns="http://www.w3.org/2000/svg"><path d="M52.337 32.66c0-5.021-1.571-7.204-5.632-8.776l-1.79-.699c-2.314-.917-2.795-1.615-2.795-3.842 0-2.009.743-2.97 2.27-2.97 1.573 0 2.315 1.092 2.359 3.232 0 .262.218.393.48.35l4.454-.7c.262-.043.392-.218.392-.48-.218-4.672-2.663-7.379-7.859-7.379-5.283 0-7.86 2.882-7.86 8.252 0 4.76 1.442 6.987 5.633 8.602l1.79.699c2.227.873 2.751 1.79 2.751 4.41 0 2.707-.742 3.536-2.358 3.536-1.702 0-2.488-1.091-2.576-3.842 0-.262-.174-.393-.48-.35l-4.672.743c-.262.044-.35.218-.35.48.088 5.109 2.664 7.947 8.035 7.947 5.894 0 8.208-3.144 8.208-9.213zm11.004 9.213c4.977 0 8.034-2.838 8.034-8.427v-21.22c0-.262-.175-.437-.437-.437H66.09c-.262 0-.436.175-.436.437v21.919c0 1.571-.83 2.576-2.314 2.576-1.441 0-2.27-1.005-2.27-2.576v-21.92c0-.261-.176-.436-.438-.436h-4.846c-.262 0-.437.175-.437.437v21.22c0 5.589 3.057 8.427 7.99 8.427zm11.963-.83c0 .262.175.437.437.437h4.235c.262 0 .437-.175.437-.437v-17.16h.262l3.23 11.877c.088.262.263.437.568.437h2.402c.306 0 .48-.175.568-.437l3.23-11.876h.263v17.16c0 .261.174.436.436.436h4.236c.262 0 .436-.175.436-.437V12.226c0-.262-.174-.437-.436-.437h-4.672c-.393 0-.612.131-.699.437l-4.366 15.587h-.175l-4.54-15.587c-.088-.306-.307-.437-.7-.437h-4.715c-.262 0-.437.175-.437.437zm23.142 0c-.044.262.087.437.349.437h4.847c.305 0 .436-.175.48-.437l1.004-5.37h5.633l.96 5.37c.044.262.175.437.48.437h4.847c.262 0 .393-.175.35-.437l-6.375-28.817c-.044-.262-.219-.437-.48-.437h-5.153c-.262 0-.393.175-.48.437zm7.51-9.911l1.965-10.305h.13l1.878 10.305zM136.52 41.48c.218 0 .306-.218.218-.437l-4.06-12.575c2.052-1.397 3.318-3.842 3.318-7.597 0-6.593-3.406-9.082-8.689-9.082h-7.073c-.262 0-.437.175-.437.437v28.817c0 .262.175.437.437.437h4.846c.262 0 .437-.175.437-.437V30.128c0-.175.087-.262.262-.262h1.659L130.8 41.13c.087.262.218.349.48.349zm-9.475-16.548h-1.266c-.175 0-.262-.088-.262-.262v-7.598c0-.174.087-.262.262-.262h1.266c2.227 0 3.187.961 3.187 4.061 0 3.144-.96 4.06-3.187 4.06zm27.944 7.728c0-5.021-1.572-7.204-5.632-8.776l-1.79-.699c-2.315-.917-2.795-1.615-2.795-3.842 0-2.009.742-2.97 2.27-2.97 1.573 0 2.315 1.092 2.358 3.232 0 .262.219.393.48.35l4.454-.7c.262-.043.393-.218.393-.48-.218-4.672-2.663-7.379-7.859-7.379-5.283 0-7.86 2.882-7.86 8.252 0 4.76 1.442 6.987 5.633 8.602l1.79.699c2.227.873 2.751 1.79 2.751 4.41 0 2.707-.742 3.536-2.358 3.536-1.702 0-2.488-1.091-2.576-3.842 0-.262-.174-.393-.48-.35l-4.672.743c-.262.044-.35.218-.35.48.088 5.109 2.664 7.947 8.035 7.947 5.894 0 8.208-3.144 8.208-9.213zm12.182-24.146c.35 0 .568-.13.874-.436l4.54-4.978c.175-.218.044-.436-.218-.436h-4.366c-.35 0-.48.13-.699.436l-3.58 4.978c-.175.218-.044.436.218.436zm-1.31 33.359c3.886 0 6.506-1.747 7.598-5.021.48-1.354.611-2.576.611-10.217s-.13-8.864-.611-10.218c-1.092-3.274-3.712-5.02-7.598-5.02-3.886 0-6.505 1.746-7.597 5.02-.48 1.354-.611 2.577-.611 10.218 0 7.64.13 8.863.611 10.217 1.092 3.274 3.711 5.021 7.597 5.021zm0-5.152c-1.091 0-1.833-.612-2.095-1.441-.219-.699-.306-1.441-.306-8.645 0-7.205.087-7.947.306-8.646.262-.83 1.004-1.44 2.095-1.44 1.092 0 1.834.61 2.096 1.44.219.699.306 1.441.306 8.646 0 7.204-.087 7.946-.306 8.645-.262.83-1.004 1.44-2.096 1.44zm11.79 4.322c0 .262.174.437.436.437h13.055c.262 0 .437-.175.437-.437v-4.279c0-.262-.175-.436-.437-.436h-7.51c-.174 0-.262-.088-.262-.262v-23.84c0-.262-.174-.437-.436-.437h-4.847c-.262 0-.437.175-.437.437z" fill="#fff"/></svg>