<svg width="268.089" height="42" viewBox="0 0 268.089 42" xmlns="http://www.w3.org/2000/svg"><path d="M49.876 28.13c.177 0 .296-.118.296-.296v-6.988c0-.119.059-.178.177-.178h.978c3.583 0 5.922-1.777 5.922-6.337 0-4.59-2.25-6.336-5.922-6.336h-4.738c-.178 0-.296.118-.296.296v19.543c0 .178.118.296.296.296zm1.332-10.867h-.859c-.118 0-.177-.06-.177-.178v-5.507c0-.119.059-.178.177-.178h.86c1.51 0 2.16.651 2.16 2.931 0 2.28-.65 2.932-2.16 2.932zm13.473 11.133c2.635 0 4.412-1.184 5.152-3.405.326-.918.415-1.747.415-6.929s-.089-6.01-.415-6.929c-.74-2.22-2.517-3.405-5.152-3.405-2.635 0-4.412 1.185-5.152 3.405-.326.918-.415 1.747-.415 6.93 0 5.181.09 6.01.415 6.928.74 2.221 2.517 3.405 5.152 3.405zm0-3.494c-.74 0-1.244-.414-1.421-.977-.148-.474-.207-.977-.207-5.863 0-4.885.059-5.389.207-5.863.177-.562.68-.977 1.421-.977.74 0 1.244.415 1.421.977.148.474.208.978.208 5.863 0 4.886-.06 5.39-.208 5.863-.177.563-.68.977-1.42.977zm19.336 3.228c.148 0 .207-.148.148-.296l-2.754-8.528c1.392-.948 2.25-2.606 2.25-5.152 0-4.472-2.309-6.16-5.892-6.16h-4.797c-.178 0-.296.12-.296.297v19.543c0 .178.118.296.296.296h3.287c.178 0 .296-.118.296-.296V20.43c0-.118.06-.177.178-.177h1.125l2.28 7.64c.06.177.148.236.326.236zm-6.426-11.223h-.858c-.119 0-.178-.059-.178-.177v-5.152c0-.119.06-.178.178-.178h.858c1.51 0 2.162.651 2.162 2.754 0 2.132-.651 2.753-2.162 2.753zM92.22 28.13c.178 0 .296-.118.296-.296V11.666c0-.118.06-.177.178-.177h3.168c.178 0 .296-.119.296-.296V8.29c0-.178-.118-.296-.296-.296h-10.57c-.178 0-.297.118-.297.296v2.902c0 .177.119.296.296.296h3.169c.118 0 .177.059.177.177v16.168c0 .178.119.296.296.296zm10.453.266c2.635 0 4.412-1.184 5.152-3.405.326-.918.415-1.747.415-6.929s-.09-6.01-.415-6.929c-.74-2.22-2.517-3.405-5.152-3.405-2.636 0-4.412 1.185-5.152 3.405-.326.918-.415 1.747-.415 6.93 0 5.181.089 6.01.415 6.928.74 2.221 2.516 3.405 5.152 3.405zm0-3.494c-.74 0-1.244-.414-1.421-.977-.149-.474-.208-.977-.208-5.863 0-4.885.06-5.389.208-5.863.177-.562.68-.977 1.42-.977.741 0 1.245.415 1.422.977.148.474.207.978.207 5.863 0 4.886-.059 5.39-.207 5.863-.177.563-.68.977-1.421.977zm7.906 5.952c0 .178.118.296.296.296.148 0 .237-.059.326-.177l2.546-2.932c.178-.207.237-.414.237-.8V24.4c0-.178-.118-.296-.296-.296h-2.813c-.178 0-.296.118-.296.296zm14.924-2.724c.177 0 .296-.118.296-.296v-6.988c0-.119.06-.178.178-.178h.977c3.583 0 5.922-1.777 5.922-6.337 0-4.59-2.25-6.336-5.922-6.336h-4.738c-.178 0-.296.118-.296.296v19.543c0 .178.118.296.296.296zm1.332-10.867h-.858c-.119 0-.178-.06-.178-.178v-5.507c0-.119.06-.178.178-.178h.858c1.51 0 2.162.651 2.162 2.931 0 2.28-.652 2.932-2.162 2.932zm13.473 11.133c2.636 0 4.412-1.184 5.153-3.405.325-.918.414-1.747.414-6.929s-.089-6.01-.414-6.929c-.74-2.22-2.517-3.405-5.153-3.405-2.635 0-4.412 1.185-5.152 3.405-.326.918-.415 1.747-.415 6.93 0 5.181.09 6.01.415 6.928.74 2.221 2.517 3.405 5.152 3.405zm0-3.494c-.74 0-1.243-.414-1.421-.977-.148-.474-.207-.977-.207-5.863 0-4.885.059-5.389.207-5.863.178-.562.681-.977 1.421-.977s1.244.415 1.422.977c.148.474.207.978.207 5.863 0 4.886-.06 5.39-.207 5.863-.178.563-.681.977-1.422.977zm19.336 3.228c.148 0 .207-.148.148-.296l-2.754-8.528c1.392-.948 2.25-2.606 2.25-5.152 0-4.472-2.309-6.16-5.892-6.16h-4.797c-.177 0-.296.12-.296.297v19.543c0 .178.119.296.296.296h3.287c.178 0 .296-.118.296-.296V20.43c0-.118.06-.177.178-.177h1.125l2.28 7.64c.06.177.148.236.326.236zm-6.425-11.223h-.86c-.118 0-.177-.059-.177-.177v-5.152c0-.119.06-.178.178-.178h.859c1.51 0 2.161.651 2.161 2.754 0 2.132-.651 2.753-2.161 2.753zm14.627 11.223c.178 0 .296-.118.296-.296V11.666c0-.118.06-.177.178-.177h3.168c.178 0 .297-.119.297-.296V8.29c0-.178-.119-.296-.297-.296h-10.57c-.178 0-.297.118-.297.296v2.902c0 .177.119.296.296.296h3.169c.118 0 .177.059.177.177v16.168c0 .178.119.296.297.296zm12.17-22.356c.237 0 .385-.089.593-.296l3.08-3.376c.118-.148.029-.296-.149-.296h-2.961c-.237 0-.326.089-.474.296l-2.428 3.376c-.118.148-.03.296.148.296zm-1.095 22.622c3.375 0 5.448-1.924 5.448-5.714V8.29c0-.178-.118-.296-.296-.296h-3.287c-.177 0-.296.118-.296.296v14.864c0 1.066-.562 1.747-1.57 1.747-.976 0-1.539-.68-1.539-1.747V8.291c0-.178-.118-.296-.296-.296h-3.287c-.178 0-.296.118-.296.296v14.39c0 3.79 2.073 5.715 5.419 5.715zm8.202-3.375c.74 2.191 2.487 3.375 5.182 3.375 2.635 0 4.382-1.184 5.123-3.405.325-.918.414-1.747.414-6.929v-.888c0-.178-.118-.296-.296-.296h-4.886c-.177 0-.296.118-.296.296v2.606c0 .177.119.296.296.296h1.274c.118 0 .177.06.177.178 0 2.96-.059 3.257-.177 3.671-.178.592-.8.977-1.54.977s-1.362-.385-1.54-.977c-.148-.444-.178-.71-.178-5.863 0-5.182.03-5.418.178-5.892.178-.563.77-.948 1.48-.948 1.007 0 1.6.681 1.688 2.132.03.207.148.296.326.267l3.139-.533c.178-.03.266-.178.237-.356-.267-3.257-2.162-5.004-5.42-5.004-2.694 0-4.44 1.185-5.181 3.376-.296.947-.385 1.776-.385 6.958s.089 6.011.385 6.959zm11.519 2.813c-.03.178.059.296.237.296h3.286c.208 0 .296-.118.326-.296l.681-3.642h3.82l.651 3.642c.03.178.119.296.326.296h3.287c.178 0 .266-.118.237-.296L207.169 8.29c-.03-.178-.148-.296-.326-.296h-3.494c-.178 0-.267.118-.326.296zm5.093-6.722l1.332-6.988h.089l1.273 6.988zm9.386 6.722c0 .178.119.296.296.296h8.854c.178 0 .296-.118.296-.296v-2.902c0-.178-.118-.296-.296-.296h-5.093c-.118 0-.178-.06-.178-.178V8.291c0-.178-.118-.296-.296-.296h-3.287c-.177 0-.296.118-.296.296z" fill="#fff"/></svg>