<svg width="67.467" height="31" viewBox="0 0 67.467 31" xmlns="http://www.w3.org/2000/svg"><path d="M16.991 16.038q0 2.287-1.732 3.63-1.731 1.344-4.085 1.344-5.063 0-6.262-4.707l2.998-.6q.644 2.287 3.264 2.287 1 0 1.82-.51.822-.511.822-1.444 0-.644-.622-1.066-.621-.421-1.554-.61-.932-.189-2.032-.51-1.099-.323-2.031-.734-.933-.41-1.555-1.32-.621-.911-.621-2.221 0-2.11 1.587-3.286 1.588-1.177 3.764-1.177 2.11 0 3.497.844 1.388.843 2.298 2.708l-2.73 1.266q-.556-1-1.244-1.432-.689-.433-1.821-.433-.8 0-1.488.377-.688.378-.688 1.133 0 .533.622.9.621.365 1.554.554.933.189 2.032.533 1.099.344 2.031.8.933.455 1.555 1.398.621.944.621 2.276zm11.08-6.217l-2.93 4.885 3.574 6.084h-3.22l-3.374-6.084 2.82-4.885h3.13zm-8.97-4.53h2.909V20.79H19.1V5.291zm18.452 5.885q1.22 1.554 1.22 4.152t-1.22 4.14q-1.222 1.544-3.753 1.544t-3.753-1.543q-1.22-1.543-1.22-4.141t1.22-4.152Q31.27 9.62 33.8 9.62t3.753 1.555zm-2.243 6.15q.4-.755.4-1.998 0-1.244-.4-2.01-.4-.766-1.51-.766-1.132 0-1.521.755t-.389 2.02q0 1.266.389 2.01.389.744 1.521.744 1.11 0 1.51-.755zm15.543-2.11q0 2.665-1.188 4.208-1.188 1.544-3.63 1.544-2.532 0-3.686-1.61-1.155-1.61-1.155-4.141 0-2.62 1.177-4.141t3.641-1.521q.311 0 .422.022l-.2-.466H43.57V6.735h1.599l-1.155-2.576h2.753l1.155 2.576h2.043V9.11h-.955l1.155 2.375q.688 1.266.688 3.73zm-2.598.023q0-1.532-.466-2.354-.467-.821-1.777-.821-.71 0-1.176.266-.467.267-.689.755-.222.489-.288.977-.067.489-.067 1.177 0 1.51.466 2.331.466.822 1.754.822.71 0 1.188-.255.478-.256.689-.744.21-.489.288-.977.078-.489.078-1.177zm13.878-2.087v5.573l.444 1.665-2.598.666-.222-.71q-.955.733-2.42.733-1.71 0-2.887-.966t-1.177-2.631q0-1.555.988-2.465.988-.91 3.009-1.022h1.665q.378-.022.378-.288v-.311q0-.466-.356-.744-.355-.277-.888-.277-1.399 0-1.865 1.043l-2.553-.888q.888-2.842 4.418-2.842 1.577 0 2.82.966 1.244.966 1.244 2.498zm-2.82 4.73v-1.888q-.222.155-.555.155h-1.244q-1.532.045-1.532 1.333 0 .51.455.799.455.289.966.289 1.044 0 1.91-.689z" fill="#fff"/></svg>