<svg width="168" height="13" viewBox="0 0 168 13" xmlns="http://www.w3.org/2000/svg"><path d="M15.297 2.135h1.278V8.37h-1.278V2.135zm0-.536l.768-1.456h1.215L16.128 1.6h-.83zm3.886 2.358h.563v1.019h-.563v2.036q0 .34.393.34V8.37h-.474q-.535 0-.817-.353-.281-.353-.281-.898V4.976h-.491V3.957h.49V2.778h1.18v1.18zm4.841 1.34V7.54l.179.67-1.045.268-.09-.286q-.384.295-.973.295-.688 0-1.161-.388-.474-.389-.474-1.059 0-.625.398-.991.397-.367 1.21-.411h.67q.152-.01.152-.116v-.125q0-.188-.143-.3-.143-.111-.357-.111-.563 0-.75.42l-1.028-.358q.357-1.143 1.778-1.143.634 0 1.134.388.5.389.5 1.005zM22.89 7.2v-.76q-.09.063-.224.063h-.5q-.616.018-.616.536 0 .206.183.322.183.116.389.116.42 0 .768-.277zm3.626.152l.01 1.018q-.742 0-1.1-.277-.357-.277-.357-.991V2.135h1.152v4.949q0 .152.067.21.067.058.228.058zm.858-3.395h1.179V8.37h-1.18V3.957zm.348-.384l.768-1.456h1.215l-1.152 1.456h-.83zm5.243 1.724V7.54l.179.67-1.045.268-.09-.286q-.383.295-.973.295-.688 0-1.161-.388-.474-.389-.474-1.059 0-.625.398-.991.397-.367 1.21-.411h.67q.152-.01.152-.116v-.125q0-.188-.143-.3-.143-.111-.357-.111-.563 0-.75.42l-1.028-.358q.358-1.143 1.778-1.143.634 0 1.134.388.5.389.5 1.005zM31.831 7.2v-.76q-.09.063-.223.063h-.5q-.617.018-.617.536 0 .206.183.322.183.116.389.116.42 0 .768-.277zm4.86-1.697h2.652v.938H36.69v-.938zm8.717.464v-1.09h2.367V8.37h-1.072v-.456q-.41.527-1.223.527-.536 0-.974-.174-.438-.174-.728-.473-.29-.3-.487-.71-.196-.411-.286-.867-.09-.455-.09-.964 0-.51.09-.97.09-.46.29-.87.202-.411.496-.706.295-.295.737-.469t.987-.174q.724 0 1.21.281.487.282.952.907l-.893.813q-.277-.376-.563-.559-.286-.183-.706-.183-1.322 0-1.322 1.93 0 1.929 1.331 1.929.5 0 .746-.344t.246-.87h-1.108zm6.2-1.786l-.448.938q-.294-.125-.518-.125-.303 0-.469.165-.165.165-.165.45V8.37h-1.206V3.957h.983l.045.188q.348-.304.812-.304.492 0 .965.34zm1.888-2.095q.201.201.201.487t-.2.487q-.202.2-.488.2-.285 0-.486-.205t-.201-.482q0-.286.2-.487.202-.2.487-.2.286 0 .487.2zm-1.085 1.871h1.188V8.37h-1.188V3.957zm5.922 0l-1.179 1.966 1.438 2.447h-1.295l-1.358-2.447 1.135-1.966h1.26zm-3.609-1.822h1.17V8.37h-1.17V2.135zm7.968 1.822l-1.179 1.966 1.438 2.447h-1.295l-1.358-2.447 1.135-1.966h1.259zm-3.609-1.822h1.17V8.37h-1.17V2.135zM64.8 7.352l.009 1.018q-.741 0-1.099-.277-.357-.277-.357-.991V2.135h1.152v4.949q0 .152.067.21.067.058.228.058zm4.198-2.055V7.54l.179.67-1.045.268-.09-.286q-.384.295-.973.295-.688 0-1.161-.388-.474-.389-.474-1.059 0-.625.398-.991.397-.367 1.21-.411h.67q.152-.01.152-.116v-.125q0-.188-.143-.3-.143-.111-.357-.111-.563 0-.75.42l-1.028-.358q.357-1.143 1.778-1.143.634 0 1.134.388.5.389.5 1.005zM67.864 7.2v-.76q-.09.063-.223.063h-.5q-.617.018-.617.536 0 .206.183.322.183.116.389.116.42 0 .768-.277zm5.913-1.313V8.37h-1.215V5.914q0-.411-.138-.63-.139-.219-.523-.219-.259 0-.429.183-.17.183-.17.451V8.37h-1.214V3.957h.991l.045.18q.34-.278.83-.278 1.823 0 1.823 2.028zm4.707 2.304l-1.063.313-.089-.26q-.366.215-.875.215-.974 0-1.425-.643-.451-.643-.451-1.661 0-1.01.451-1.648.451-.639 1.425-.639.33 0 .607.179V2.135h1.215V7.53q0 .01.049.161.05.152.098.317.05.165.058.183zm-1.42-1.482v-1.1q0-.258-.17-.41-.17-.152-.428-.152-.188 0-.322.076t-.2.174q-.068.099-.104.268-.035.17-.04.29-.004.121-.004.309 0 .187.004.303.005.117.04.286.036.17.103.268t.201.174q.134.076.322.076.259 0 .428-.152.17-.151.17-.41zm5.038-1.206h2.653v.938h-2.653v-.938zM93.16 4.038q0 1.902-2.081 1.902h-1.206v2.43h-1.277V2.135h2.438q.974 0 1.55.474.576.473.576 1.429zm-1.277 0q0-.393-.237-.54-.237-.148-.656-.148h-1.117v1.385h1.117q.437 0 .665-.143.228-.143.228-.554zm5.19.464q.49.626.49 1.67 0 1.046-.49 1.667-.492.62-1.51.62t-1.51-.62q-.491-.621-.491-1.666t.491-1.67q.492-.626 1.51-.626t1.51.625zm-.903 2.475q.161-.304.161-.804t-.16-.809q-.162-.308-.608-.308-.456 0-.612.304-.156.304-.156.813 0 .509.156.808.156.3.612.3.446 0 .607-.304zm5.092-2.796l-.447.938q-.295-.125-.518-.125-.304 0-.469.165-.165.165-.165.45V8.37h-1.206V3.957h.982l.045.188q.348-.304.813-.304.491 0 .965.34zm2.206-.224h.563v1.019h-.563v2.036q0 .34.393.34V8.37h-.473q-.536 0-.818-.353-.281-.353-.281-.898V4.976h-.491V3.957h.49V2.778h1.18v1.18zm3.93 0h1.215V8.37h-.992l-.044-.188q-.384.268-.804.268-.911 0-1.38-.509-.47-.509-.47-1.42V3.957h1.216v2.484q0 .41.134.62.134.21.527.21.259 0 .428-.17.17-.17.17-.437V3.957zm-1.58-.384l.767-1.456h1.215l-1.152 1.456h-.83zm7.225 1.974q0 .75-.482 1.175-.482.424-1.268.424-.25 0-.465-.089-.16.125-.16.295 0 .116.178.116.232 0 .683-.103.451-.103.684-.103.509 0 .835.313.326.313.326.813 0 .786-.625 1.268-.626.483-1.439.483-.759 0-1.317-.335-.558-.335-.558-1.041 0-.232.08-.447l1.063.322q-.009.036-.009.098 0 .152.179.232.178.08.437.08.393 0 .724-.164.33-.166.33-.443 0-.098-.071-.151-.071-.054-.17-.054-.178 0-.522.063-.344.062-.514.062-.5 0-.884-.223-.384-.224-.384-.688 0-.393.294-.777-.375-.438-.375-1.135 0-.786.46-1.219.46-.433 1.255-.433.599 0 .992.232.053-.125.036-.34h1q0 .823-.402 1.108.09.33.09.661zm-1.152-.009q0-.25-.152-.388-.152-.139-.41-.139-.25 0-.407.139-.156.138-.156.388 0 .536.562.536.563 0 .563-.536zm5.672-.24v2.241l.179.67-1.045.268-.09-.286q-.384.295-.973.295-.688 0-1.161-.388-.474-.389-.474-1.059 0-.625.398-.991.397-.367 1.21-.411h.67q.152-.01.152-.116v-.125q0-.188-.143-.3-.143-.111-.358-.111-.562 0-.75.42l-1.027-.358q.357-1.143 1.777-1.143.635 0 1.135.388.5.389.5 1.005zM116.43 7.2v-.76q-.09.063-.224.063h-.5q-.616.018-.616.536 0 .206.183.322.183.116.388.116.42 0 .769-.277zm3.626.152l.01 1.018q-.742 0-1.1-.277-.357-.277-.357-.991V2.135h1.152v4.949q0 .152.067.21.067.058.228.058zm3.537-1.85h2.653v.939h-2.653v-.938zm11.067.956q0 .92-.696 1.46-.697.541-1.644.541-2.036 0-2.519-1.893l1.206-.241q.26.92 1.313.92.402 0 .733-.206.33-.205.33-.58 0-.26-.25-.43-.25-.169-.625-.245-.375-.076-.818-.205-.442-.13-.817-.295-.375-.165-.625-.532-.25-.366-.25-.893 0-.848.638-1.322.64-.473 1.514-.473.85 0 1.407.34.559.339.925 1.089l-1.099.51q-.223-.403-.5-.577-.277-.174-.733-.174-.321 0-.598.152-.277.151-.277.455 0 .215.25.362t.625.223q.376.076.818.215.442.138.817.321.375.183.625.563.25.38.25.915zm4.583-.259q0 1.01-.451 1.64-.451.63-1.425.63-.34 0-.599-.17v2.036h-1.214V3.957h.991l.045.18q.366-.278.786-.278.66 0 1.094.34.433.339.603.844.17.504.17 1.156zm-1.233.38q.018-.147.018-.38 0-.232-.018-.38-.018-.147-.076-.334-.058-.188-.2-.286-.144-.098-.367-.098-.268 0-.433.152-.166.151-.166.41v1.063q0 .268.161.416.161.147.438.147.223 0 .366-.094.143-.093.201-.281.058-.188.076-.335zm5.422-1.282V7.54l.179.67-1.045.268-.09-.286q-.384.295-.973.295-.688 0-1.162-.388-.473-.389-.473-1.059 0-.625.397-.991.398-.367 1.21-.411h.67q.153-.01.153-.116v-.125q0-.188-.143-.3-.143-.111-.358-.111-.562 0-.75.42l-1.027-.358q.357-1.143 1.777-1.143.635 0 1.135.388.5.389.5 1.005zM142.297 7.2v-.76q-.09.063-.224.063h-.5q-.616.018-.616.536 0 .206.183.322.183.116.388.116.42 0 .769-.277zm-1.546-3.627l.768-1.456h1.215l-1.152 1.456h-.83zm7.459 2.314V8.37h-1.215V5.914q0-.411-.138-.63-.139-.219-.523-.219-.26 0-.429.183-.17.183-.17.451V8.37h-1.214V3.957h.991l.045.18q.34-.278.83-.278 1.823 0 1.823 2.028zm4.627 0V8.37h-1.215V5.914q0-.411-.139-.63-.138-.219-.522-.219-.26 0-.429.183-.17.183-.17.451V8.37h-1.214V3.957h.991l.045.18q.34-.278.83-.278 1.823 0 1.823 2.028z" fill="#fff"/></svg>