<svg width="168" height="13" viewBox="0 0 168 13" xmlns="http://www.w3.org/2000/svg"><path d="M23.6 6.458q0 .92-.697 1.46-.697.541-1.643.541-2.037 0-2.52-1.893l1.207-.241q.259.92 1.313.92.402 0 .732-.206.33-.205.33-.58 0-.26-.25-.43-.25-.169-.625-.245-.375-.076-.817-.205-.442-.13-.817-.295-.376-.165-.626-.532-.25-.366-.25-.893 0-.848.639-1.322.639-.473 1.514-.473.848 0 1.407.34.558.339.924 1.089l-1.098.51q-.224-.403-.5-.577-.278-.174-.733-.174-.322 0-.599.152-.276.151-.276.455 0 .215.25.362t.625.223q.375.076.817.215.442.138.818.321.375.183.625.563.25.38.25.915zm3.278-2.5h1.215V8.37H27.1l-.044-.188q-.384.268-.804.268-.911 0-1.38-.509-.47-.509-.47-1.42V3.957h1.216v2.484q0 .41.134.62.134.21.527.21.259 0 .428-.17.17-.17.17-.437V3.957zm8.387 1.929V8.37h-1.223V5.887q0-.402-.12-.612-.121-.21-.497-.21-.16 0-.277.072-.116.071-.17.156-.053.085-.08.254-.026.17-.03.26-.005.089-.005.276V8.37h-1.224V5.887q0-.393-.12-.608-.121-.214-.487-.214-.25 0-.402.165-.152.166-.152.416V8.37h-1.224V3.957h1l.045.18q.357-.278.733-.278.41 0 .683.094.272.094.603.353.509-.447 1.107-.447.911 0 1.376.554.464.554.464 1.474zm4.368-.59V7.54l.179.67-1.045.268-.09-.286q-.384.295-.973.295-.688 0-1.161-.388-.474-.389-.474-1.059 0-.625.398-.991.397-.367 1.21-.411h.67q.152-.01.152-.116v-.125q0-.188-.143-.3-.143-.111-.357-.111-.563 0-.75.42l-1.028-.358Q36.578 3.904 38 3.904q.634 0 1.134.388.5.389.5 1.005zM38.5 7.2v-.76q-.09.063-.223.063h-.5q-.617.018-.617.536 0 .206.183.322.183.116.389.116.42 0 .768-.277zm5.029-3.02l-.447.939q-.295-.125-.518-.125-.304 0-.469.165-.165.165-.165.45V8.37h-1.206V3.957h.983l.044.188q.349-.304.813-.304.491 0 .965.34zm2.903-2.045v.983q-.384 0-.545.116-.16.116-.16.482v.241h.615v1.019h-.616V8.37h-1.17V4.976h-.357V3.957h.357v-.562q0-.313.063-.536.062-.224.21-.358.147-.133.28-.214.135-.08.403-.112.268-.03.424-.035.156-.005.496-.005zm3.653 2.046l-.447.938q-.294-.125-.518-.125-.303 0-.469.165-.165.165-.165.45V8.37H47.28V3.957h.983l.045.188q.348-.304.812-.304.492 0 .965.34zm.76-.224h1.178V8.37h-1.179V3.957zm.348-.384l.768-1.456h1.215l-1.153 1.456h-.83zm3.032-1.487q.201.201.201.487t-.2.487q-.202.2-.488.2-.285 0-.486-.205t-.201-.482q0-.286.2-.487.202-.2.487-.2.286 0 .487.2zM53.14 3.957h1.188V8.37h-1.188V3.957zm6.324 2.171q0 1.072-.478 1.693-.478.62-1.46.62-1.019 0-1.483-.647-.465-.648-.465-1.666 0-1.054.474-1.666.473-.612 1.465-.612.125 0 .17.01l-.08-.188h-1.073v-.956h.643l-.464-1.036h1.107l.465 1.036h.822v.956h-.384l.464.955q.277.51.277 1.501zm-1.045.009q0-.616-.188-.947-.187-.33-.714-.33-.286 0-.474.107-.187.107-.277.303-.089.197-.116.394-.026.196-.026.473 0 .607.187.938.188.33.706.33.286 0 .478-.102.192-.103.277-.3.084-.196.116-.393.03-.196.03-.473zm8.736-.027q0 1.045-.478 1.71-.478.666-1.443.666-.34 0-.607-.116v1.84h-1.242V2.135h1.242V3.85q.304-.116.607-.116.51 0 .893.201.385.201.603.545.22.344.322.755.103.41.103.875zm-1.25 0q0-.509-.135-.813-.134-.303-.536-.303-.286 0-.446.151-.161.152-.161.402v1.135q0 .268.174.41.174.144.433.144.224 0 .371-.103t.205-.295q.058-.192.076-.348.018-.157.018-.38zm3.228-4.024q.201.201.201.487t-.2.487q-.202.2-.488.2-.285 0-.486-.205t-.201-.482q0-.286.2-.487.202-.2.487-.2.286 0 .487.2zm-1.085 1.871h1.188V8.37h-1.188V3.957zm3.76 0h.563v1.019h-.563v2.036q0 .34.393.34V8.37h-.473q-.536 0-.817-.353-.282-.353-.282-.898V4.976h-.49V3.957h.49V2.778h1.18v1.18zm2.77 0h.562v1.019h-.563v2.036q0 .34.393.34V8.37h-.473q-.536 0-.817-.353-.282-.353-.282-.898V4.976h-.49V3.957h.49V2.778h1.18v1.18zm15.81-1.822h1.277V8.37h-1.277v-2.6h-2.225v2.6h-1.277V2.135h1.277v2.43h2.225v-2.43zm4.189 4.493l.902-2.67h1.313L95.094 8.37h-.983l-1.688-4.413h1.304l.849 2.671zm6.288-.554v.384H98.31q.035.385.254.626.219.24.603.24.5 0 .902-.419l.75.741q-.803.804-1.66.804-.975 0-1.537-.647-.563-.648-.563-1.63 0-.992.545-1.64.545-.647 1.51-.647.803 0 1.277.603.473.603.473 1.585zM98.318 5.7h1.42q-.098-.688-.678-.688-.625 0-.742.688zm6.244-1.518l-.446.938q-.295-.125-.519-.125-.303 0-.469.165-.165.165-.165.45V8.37h-1.206V3.957h.983l.045.188q.348-.304.812-.304.492 0 .965.34zm2.206-.224h.563v1.019h-.563v2.036q0 .34.393.34V8.37h-.473q-.536 0-.817-.353-.282-.353-.282-.898V4.976h-.49V3.957h.49V2.778h1.18v1.18zm5.753 2.671l.902-2.67h1.313l-1.697 4.412h-.983l-1.688-4.413h1.304l.849 2.671zm4.015-4.542q.2.201.2.487t-.2.487q-.201.2-.487.2t-.487-.205q-.2-.205-.2-.482 0-.286.2-.487.201-.2.487-.2t.487.2zm-1.085 1.871h1.188V8.37h-1.188V3.957zm3.76 3.395l.009 1.018q-.741 0-1.099-.277-.357-.277-.357-.991V2.135h1.152v4.949q0 .152.067.21.067.058.228.058zm2.305-3.395h.562v1.019h-.562v2.036q0 .34.393.34V8.37h-.474q-.536 0-.817-.353-.281-.353-.281-.898V4.976h-.492V3.957h.492V2.778h1.179v1.18zm3.93 0h1.215V8.37h-.992l-.045-.188q-.384.268-.803.268-.912 0-1.38-.509-.47-.509-.47-1.42V3.957h1.215v2.484q0 .41.134.62.134.21.527.21.26 0 .43-.17.169-.17.169-.437V3.957zm7.155-1.822v.983q-.385 0-.545.116-.161.116-.161.482v.241h.616v1.019h-.616V8.37h-1.17V4.976h-.357V3.957h.357v-.562q0-.313.062-.536.063-.224.21-.358.148-.133.282-.214.134-.08.402-.112.268-.03.424-.035.156-.005.496-.005zm3.966 3.162V7.54l.178.67-1.045.268-.09-.286q-.383.295-.973.295-.688 0-1.161-.388-.473-.389-.473-1.059 0-.625.397-.991.398-.367 1.21-.411h.67q.152-.01.152-.116v-.125q0-.188-.143-.3-.143-.111-.357-.111-.563 0-.75.42l-1.028-.358q.358-1.143 1.778-1.143.634 0 1.134.388.5.389.5 1.005zM135.432 7.2v-.76q-.09.063-.223.063h-.5q-.617.018-.617.536 0 .206.183.322.183.116.389.116.42 0 .768-.277zm5.029-3.02l-.447.939q-.294-.125-.518-.125-.303 0-.469.165-.165.165-.165.45V8.37h-1.206V3.957h.983l.044.188q.349-.304.813-.304.492 0 .965.34zm3.743 1.117V7.54l.178.67-1.045.268-.09-.286q-.383.295-.973.295-.688 0-1.16-.388-.474-.389-.474-1.059 0-.625.397-.991.398-.367 1.21-.411h.67q.152-.01.152-.116v-.125q0-.188-.143-.3-.143-.111-.357-.111-.563 0-.75.42l-1.028-.358q.358-1.143 1.778-1.143.634 0 1.134.388.5.389.5 1.005zM143.069 7.2v-.76q-.09.063-.223.063h-.5q-.617.018-.617.536 0 .206.183.322.184.116.389.116.42 0 .768-.277zm5.994-3.394q0 .812-.84 1.313-.304.178-.415.303-.112.125-.13.34l-.062.866h-.92q-.08-.66-.08-.884 0-.322.066-.554.067-.232.22-.393.151-.16.25-.232.098-.072.312-.197.027-.018.116-.067.09-.049.116-.071l.094-.076q.067-.054.09-.094.022-.04.044-.107t.022-.147q0-.304-.21-.483-.21-.178-.567-.178-.822 0-.822.812h-1.098q0-.964.562-1.429.563-.464 1.358-.464.83 0 1.362.455.532.456.532 1.287zm-1.394 3.416q.215.21.215.514 0 .304-.215.513-.214.21-.518.21-.294 0-.509-.21-.214-.21-.214-.513 0-.304.214-.514.215-.21.51-.21.303 0 .517.21z" fill="#fff"/></svg>