<svg width="144.273" height="12" viewBox="0 0 144.273 12" xmlns="http://www.w3.org/2000/svg"><path d="M7.144 6.304q0 .898-.68 1.426-.68.527-1.604.527-1.988 0-2.459-1.848l1.177-.236q.253.898 1.282.898.392 0 .715-.2.322-.2.322-.567 0-.253-.244-.418-.244-.166-.61-.24-.366-.074-.798-.2-.431-.127-.798-.288-.366-.162-.61-.52-.244-.357-.244-.871 0-.828.623-1.29.624-.463 1.478-.463.829 0 1.373.332.545.33.903 1.063l-1.073.497q-.218-.392-.488-.562-.27-.17-.715-.17-.314 0-.584.148-.27.148-.27.445 0 .21.244.353.244.144.61.218.366.074.798.21.432.134.798.313.366.179.61.55.244.37.244.893zm4.037-1.91q.48.611.48 1.631t-.48 1.626q-.48.606-1.473.606-.994 0-1.474-.606t-.48-1.626q0-1.02.48-1.63.48-.61 1.474-.61t1.473.61zm-.88 2.416q.157-.297.157-.785 0-.488-.157-.789-.157-.3-.593-.3-.445 0-.598.296-.152.296-.152.793 0 .497.152.79.153.291.598.291.436 0 .593-.296zM8.74 3.488l.75-1.421h1.186L9.55 3.487H8.74zm5.162 3.688l.008.994q-.723 0-1.072-.27-.349-.27-.349-.968V2.084h1.125v4.83q0 .149.065.205.066.057.223.057zM18 5.171v2.188l.174.654-1.02.262-.087-.28q-.375.288-.95.288-.672 0-1.134-.379-.462-.38-.462-1.033 0-.61.388-.968.388-.357 1.181-.401h.654q.148-.009.148-.113v-.122q0-.184-.14-.293-.139-.109-.348-.109-.55 0-.732.41l-1.003-.349q.349-1.116 1.735-1.116.62 0 1.107.38.489.379.489.98zm-1.108 1.857v-.741q-.087.06-.218.06h-.488q-.602.018-.602.524 0 .2.18.314.178.113.378.113.41 0 .75-.27zm4.91-2.947l-.437.915q-.288-.122-.506-.122-.296 0-.457.161-.162.162-.162.44V8.17h-1.177V3.863h.96l.043.183q.34-.297.793-.297.48 0 .942.332zm4.385 1.97q0 .986-.44 1.6-.44.615-1.391.615-.331 0-.584-.166v1.988h-1.186V3.863h.968l.043.174q.358-.27.768-.27.645 0 1.068.331.423.331.588.824.166.493.166 1.13zm-1.203.37q.017-.143.017-.37 0-.226-.017-.37-.018-.144-.074-.327-.057-.183-.197-.28-.14-.095-.357-.095-.262 0-.423.148-.161.148-.161.401v1.038q0 .261.157.405.157.144.427.144.218 0 .357-.092.14-.091.197-.274.056-.183.074-.327zm5.292-1.25v2.188l.175.654-1.02.262-.088-.28q-.375.288-.95.288-.672 0-1.134-.379-.462-.38-.462-1.033 0-.61.388-.968.388-.357 1.182-.401h.654q.148-.009.148-.113v-.122q0-.184-.14-.293-.14-.109-.348-.109-.55 0-.733.41l-1.003-.349q.35-1.116 1.736-1.116.619 0 1.107.38.488.379.488.98zM29.17 7.028v-.741q-.087.06-.218.06h-.488q-.602.018-.602.524 0 .2.179.314.178.113.379.113.41 0 .75-.27zm5.65-3.165L33.668 5.78l1.404 2.389h-1.265l-1.325-2.389 1.107-1.918h1.23zm-3.523-1.779h1.142V8.17h-1.142V2.084zm7.778 1.779L37.923 5.78l1.404 2.389h-1.265l-1.325-2.389 1.107-1.918h1.23zM35.55 2.084h1.142V8.17h-1.142V2.084zm5.358-.048q.196.196.196.475 0 .28-.196.475-.196.197-.475.197-.28 0-.475-.2-.196-.201-.196-.472 0-.279.196-.475.196-.196.475-.196.279 0 .475.196zm-1.06 1.827h1.16V8.17h-1.16V3.863zm5.904 1.883V8.17h-1.186V5.772q0-.4-.135-.614-.136-.214-.51-.214-.253 0-.419.179-.166.178-.166.44V8.17h-1.185V3.863h.967l.044.174q.331-.27.81-.27 1.78 0 1.78 1.98zm4.516 0V8.17h-1.186V5.772q0-.4-.135-.614-.135-.214-.51-.214-.253 0-.418.179-.166.178-.166.44V8.17h-1.186V3.863h.968l.044.174q.33-.27.81-.27 1.78 0 1.78 1.98zm7.342.218q0 1.02-.467 1.67-.466.65-1.408.65-.331 0-.593-.114v1.796h-1.212V2.084h1.212v1.674q.297-.113.593-.113.497 0 .872.196t.588.532q.214.336.314.737.1.4.1.854zm-1.221 0q0-.497-.13-.793-.132-.297-.524-.297-.279 0-.436.148-.157.149-.157.393v1.107q0 .262.17.401.17.14.423.14.218 0 .362-.1t.2-.288q.057-.188.074-.34.018-.153.018-.37zm3.152-3.928q.196.196.196.475 0 .28-.196.475-.196.197-.475.197-.28 0-.475-.2-.197-.201-.197-.472 0-.279.197-.475.196-.196.475-.196.279 0 .475.196zm-1.06 1.827h1.16V8.17h-1.16V3.863zm5.903 1.883V8.17H63.2V5.772q0-.4-.136-.614-.135-.214-.51-.214-.253 0-.418.179-.166.178-.166.44V8.17h-1.186V3.863h.968l.044.174q.331-.27.81-.27 1.78 0 1.78 1.98zm4.517 0V8.17h-1.186V5.772q0-.4-.135-.614-.135-.214-.51-.214-.253 0-.419.179-.165.178-.165.44V8.17H65.3V3.863h.968l.043.174q.332-.27.811-.27 1.779 0 1.779 1.98zm7.115.183v.375h-2.494q.035.375.249.61.213.236.588.236.488 0 .88-.41l.733.724q-.785.784-1.622.784-.95 0-1.5-.632-.549-.632-.549-1.59 0-.969.532-1.6.532-.633 1.474-.633.784 0 1.247.589.462.588.462 1.547zm-2.485-.366h1.386q-.096-.671-.663-.671-.61 0-.723.671zm6.094-1.482l-.436.915q-.287-.122-.505-.122-.297 0-.458.161-.161.162-.161.44V8.17h-1.177V3.863h.959l.043.183q.34-.297.794-.297.48 0 .941.332zm6.444 1.09v2.188l.174.654-1.02.262-.087-.28q-.375.288-.95.288-.672 0-1.134-.379-.462-.38-.462-1.033 0-.61.388-.968.388-.357 1.181-.401h.654q.149-.009.149-.113v-.122q0-.184-.14-.293-.14-.109-.349-.109-.55 0-.732.41l-1.003-.349q.349-1.116 1.735-1.116.62 0 1.108.38.488.379.488.98zm-1.107 1.857v-.741q-.088.06-.218.06h-.489q-.601.018-.601.524 0 .2.178.314.18.113.38.113.41 0 .75-.27zm-1.509-3.54l.75-1.421h1.186l-1.125 1.42h-.81zm9.556 3.365q0 .654-.519 1.03-.518.374-1.198.374-1.509 0-1.788-1.186l1.029-.279q.166.41.741.41.558 0 .558-.296 0-.166-.235-.28-.236-.113-.576-.2-.34-.087-.675-.213-.336-.127-.572-.41-.235-.284-.235-.702 0-.645.458-.985.458-.34 1.129-.34.61 0 .976.187.367.187.69.676l-.907.505q-.253-.34-.646-.34-.505 0-.505.297 0 .148.235.24.235.091.567.174.331.083.667.205.335.122.57.41.236.287.236.723zm3.157-2.99h1.185V8.17h-.967l-.044-.183q-.375.261-.785.261-.89 0-1.347-.497-.458-.497-.458-1.386V3.863h1.186v2.424q0 .4.131.606.13.205.514.205.253 0 .419-.166.166-.166.166-.427V3.863zm8.187 1.883V8.17h-1.195V5.746q0-.392-.117-.597-.118-.205-.484-.205-.157 0-.27.07-.114.07-.166.152-.053.083-.079.249-.026.165-.03.253-.005.087-.005.27V8.17h-1.194V5.746q0-.384-.118-.593-.118-.21-.475-.21-.244 0-.392.162-.149.162-.149.406V8.17h-1.194V3.863h.976l.044.174q.349-.27.715-.27.401 0 .667.091.266.092.589.345.497-.436 1.08-.436.89 0 1.343.54.454.541.454 1.44zm4.264-.575v2.188l.174.654-1.02.262-.087-.28q-.375.288-.95.288-.672 0-1.134-.379-.462-.38-.462-1.033 0-.61.388-.968.388-.357 1.181-.401h.654q.148-.009.148-.113v-.122q0-.184-.14-.293-.139-.109-.348-.109-.55 0-.732.41l-1.003-.349q.349-1.116 1.735-1.116.619 0 1.107.38.489.379.489.98zm-1.108 1.857v-.741q-.087.06-.218.06h-.488q-.602.018-.602.524 0 .2.18.314.178.113.378.113.41 0 .75-.27zm4.91-2.947l-.437.915q-.288-.122-.506-.122-.296 0-.457.161-.162.162-.162.44V8.17h-1.177V3.863h.96l.043.183q.34-.297.793-.297.48 0 .942.332zm2.833-1.997v.96q-.375 0-.532.112-.157.114-.157.471v.236h.602v.994h-.602V8.17h-1.142V4.857h-.349v-.994h.349v-.55q0-.305.06-.523.062-.218.206-.348.144-.131.274-.21.131-.078.393-.109.261-.03.414-.035.152-.004.484-.004zm4.28 3.845v.375h-2.493q.035.375.249.61.213.236.588.236.489 0 .88-.41l.733.724q-.784.784-1.621.784-.95 0-1.5-.632t-.55-1.59q0-.969.532-1.6.532-.633 1.474-.633.785 0 1.247.589.462.588.462 1.547zm-2.484-.366h1.386q-.096-.671-.662-.671-.61 0-.724.671zm6.095-1.482l-.436.915q-.288-.122-.506-.122-.297 0-.458.161-.161.162-.161.44V8.17h-1.177V3.863h.959l.043.183q.34-.297.794-.297.48 0 .942.332zm4.071 3.915l-1.037.305-.087-.253q-.358.21-.855.21-.95 0-1.39-.629-.44-.627-.44-1.621 0-.986.44-1.609t1.39-.623q.323 0 .593.174V2.084h1.186V7.35q0 .01.048.157.048.149.096.31t.056.179zm-1.386-1.448V5.476q0-.253-.166-.401-.165-.149-.418-.149-.183 0-.314.075-.13.074-.196.17-.066.096-.1.261-.035.166-.04.284-.004.117-.004.3t.004.297q.005.113.04.279.034.166.1.261.065.096.196.17.13.075.314.075.253 0 .418-.149.166-.148.166-.4zm3.405-4.512q.196.196.196.475 0 .28-.196.475-.196.197-.475.197-.28 0-.475-.2-.197-.201-.197-.472 0-.279.197-.475.196-.196.475-.196.279 0 .475.196zm-1.06 1.827h1.16V8.17h-1.16V3.863zm5.04.218l-.436.915q-.288-.122-.505-.122-.297 0-.458.161-.162.162-.162.44V8.17h-1.177V3.863h.96l.043.183q.34-.297.794-.297.48 0 .941.332zm1.766 2.894q.222.218.222.532 0 .314-.222.532-.223.218-.536.218-.306 0-.528-.218-.222-.218-.222-.532 0-.314.222-.532.222-.217.528-.217.313 0 .536.217zm2.459-4.939q.196.196.196.475 0 .28-.196.475-.197.197-.476.197-.279 0-.475-.2-.196-.201-.196-.472 0-.279.196-.475.196-.196.475-.196.28 0 .476.196zm-1.06 1.827h1.16V8.17h-1.16V3.863zm5.563 2.99q0 .654-.519 1.03-.519.374-1.199.374-1.508 0-1.787-1.186l1.029-.279q.165.41.74.41.559 0 .559-.296 0-.166-.235-.28-.236-.113-.576-.2-.34-.087-.676-.213-.335-.127-.57-.41-.236-.284-.236-.702 0-.645.458-.985.457-.34 1.129-.34.61 0 .976.187t.69.676l-.908.505q-.253-.34-.645-.34-.506 0-.506.297 0 .148.236.24.235.091.566.174.332.083.668.205.335.122.57.41.236.287.236.723z" fill="#fff"/></svg>