<svg width="177.333" height="62.588" viewBox="0 0 177.333 62.588" xmlns="http://www.w3.org/2000/svg"><path d="M18.457 39.454c0 .204.136.34.34.34h5.474c4.522 0 6.834-1.7 6.834-6.8 0-3.094-1.224-4.726-2.924-5.236v-.068c1.7-.748 2.652-2.176 2.652-4.998 0-4.046-1.904-6.018-6.188-6.018h-5.848c-.204 0-.34.136-.34.34zm4.658-13.294c-.136 0-.204-.068-.204-.204v-5.304c0-.136.068-.204.204-.204h.986c1.734 0 2.278.612 2.278 2.856 0 2.278-.544 2.856-2.278 2.856zm-.204 9.656V29.9c0-.136.068-.204.204-.204h.986c1.87 0 2.516.714 2.516 3.128 0 2.448-.646 3.196-2.516 3.196h-.986c-.136 0-.204-.068-.204-.204zm17.748-21.692c.272 0 .442-.102.68-.34l3.536-3.876c.136-.17.034-.34-.17-.34h-3.4c-.272 0-.374.102-.544.34l-2.788 3.876c-.136.17-.034.34.17.34zM39.639 40.1c3.026 0 5.066-1.36 5.916-3.91.374-1.054.476-2.006.476-7.956 0-5.95-.102-6.902-.476-7.956-.85-2.55-2.89-3.91-5.916-3.91-3.026 0-5.066 1.36-5.916 3.91-.374 1.054-.476 2.006-.476 7.956 0 5.95.102 6.902.476 7.956.85 2.55 2.89 3.91 5.916 3.91zm0-4.012c-.85 0-1.428-.476-1.632-1.122-.17-.544-.238-1.122-.238-6.732s.068-6.188.238-6.732c.204-.646.782-1.122 1.632-1.122.85 0 1.428.476 1.632 1.122.17.544.238 1.122.238 6.732s-.068 6.188-.238 6.732c-.204.646-.782 1.122-1.632 1.122zm9.18 3.366c0 .204.136.34.34.34h3.774c.204 0 .34-.136.34-.34v-6.256l1.36-2.856 3.4 9.214c.034.17.136.238.34.238h4.046c.17 0 .272-.17.204-.34L57.42 25.99l4.624-8.976c.102-.17 0-.34-.17-.34H57.93c-.204 0-.34.068-.442.272l-4.216 8.942v-8.874c0-.204-.136-.34-.34-.34h-3.774c-.204 0-.34.136-.34.34zm14.586 0c-.034.204.068.34.272.34h3.774c.238 0 .34-.136.374-.34l.782-4.182h4.386l.748 4.182c.034.204.136.34.374.34h3.774c.204 0 .306-.136.272-.34l-4.964-22.44c-.034-.204-.17-.34-.374-.34H68.81c-.204 0-.306.136-.374.34zm5.848-7.718l1.53-8.024h.102l1.462 8.024zm16.966 8.058c3.196 0 5.066-1.224 5.916-3.842.408-1.292.612-2.856.612-7.718s-.204-6.426-.612-7.718c-.85-2.618-2.72-3.842-5.916-3.842H80.37c-.204 0-.34.136-.34.34v9.316c0 .136-.068.204-.204.204h-.918c-.204 0-.34.136-.34.34v2.516c0 .204.136.34.34.34h.918c.136 0 .204.068.204.204v9.52c0 .204.136.34.34.34zm-.442-4.012h-1.088c-.136 0-.204-.068-.204-.204v-5.644c0-.136.068-.204.204-.204h1.496c.204 0 .34-.136.34-.34v-2.482c0-.204-.136-.34-.34-.34h-1.496c-.136 0-.204-.068-.204-.204V20.89c0-.136.068-.204.204-.204h1.088c1.122 0 1.734.408 2.074 1.428.238.714.374 1.7.374 6.12s-.136 5.406-.374 6.12c-.34 1.02-.952 1.428-2.074 1.428zm15.912 4.318c3.876 0 6.256-2.21 6.256-6.562V17.014c0-.204-.136-.34-.34-.34h-3.774c-.204 0-.34.136-.34.34v17.068c0 1.224-.646 2.006-1.802 2.006-1.122 0-1.768-.782-1.768-2.006V17.014c0-.204-.136-.34-.34-.34h-3.774c-.204 0-.34.136-.34.34v16.524c0 4.352 2.38 6.562 6.222 6.562zm15.946-.646c0 .204.136.34.34.34h3.774c.204 0 .34-.136.34-.34v-9.248c0-.136.068-.204.204-.204h3.23c.136 0 .204.068.204.204v9.248c0 .204.136.34.34.34h3.774c.204 0 .34-.136.34-.34v-22.44c0-.204-.136-.34-.34-.34h-3.774c-.204 0-.34.136-.34.34v8.772c0 .136-.068.204-.204.204h-3.23c-.136 0-.204-.068-.204-.204v-8.772c0-.204-.136-.34-.34-.34h-3.774c-.204 0-.34.136-.34.34zm22.032-25.33c.272 0 .442-.102.68-.34l3.536-3.876c.136-.17.034-.34-.17-.34h-3.4c-.272 0-.374.102-.544.34l-2.788 3.876c-.136.17-.034.34.17.34zm-6.358 25.33c0 .204.136.34.34.34h10.098c.204 0 .34-.136.34-.34v-3.332c0-.204-.136-.34-.34-.34h-5.78c-.136 0-.204-.068-.204-.204v-5.236c0-.136.068-.204.204-.204h4.998c.204 0 .34-.136.34-.34v-3.332c0-.204-.136-.34-.34-.34h-4.998c-.136 0-.204-.068-.204-.204V20.89c0-.136.068-.204.204-.204h5.78c.204 0 .34-.136.34-.34v-3.332c0-.204-.136-.34-.34-.34h-10.098c-.204 0-.34.136-.34.34zm26.282.34c.17 0 .238-.17.17-.34l-3.162-9.792c1.598-1.088 2.584-2.992 2.584-5.916 0-5.134-2.652-7.072-6.766-7.072h-5.508c-.204 0-.34.136-.34.34v22.44c0 .204.136.34.34.34h3.774c.204 0 .34-.136.34-.34v-8.5c0-.136.068-.204.204-.204h1.292l2.618 8.772c.068.204.17.272.374.272zm-7.378-12.886h-.986c-.136 0-.204-.068-.204-.204v-5.916c0-.136.068-.204.204-.204h.986c1.734 0 2.482.748 2.482 3.162 0 2.448-.748 3.162-2.482 3.162z" fill="#fff"/></svg>