<svg width="296.697" height="87" viewBox="0 0 296.697 87" xmlns="http://www.w3.org/2000/svg"><path d="M75.165 53.314c1.306 4.044 4.666 6.346 9.83 6.346 5.163 0 8.522-2.302 9.828-6.346.374-1.244.56-2.612.56-6.532 0-3.172-.124-4.417-.56-5.785-.56-1.742-1.555-3.11-2.924-3.982v-.124c1.431-.871 2.364-2.302 2.924-4.044.374-1.244.56-2.55.56-4.728 0-2.862-.186-4.292-.56-5.537-1.306-4.043-4.665-6.345-9.829-6.345-5.163 0-8.523 2.302-9.83 6.345-.372 1.245-.56 2.675-.56 5.537 0 2.177.125 3.484.56 4.728.56 1.742 1.556 3.173 2.925 4.044v.124c-1.307.871-2.364 2.24-2.924 3.982-.436 1.368-.56 2.613-.56 5.785 0 3.92.187 5.288.56 6.532zm9.83-19.596c-1.245 0-1.992-.56-2.365-1.68-.187-.56-.249-1.306-.249-3.67s.062-3.048.25-3.608c.372-1.12 1.119-1.68 2.363-1.68s1.99.56 2.364 1.68c.187.56.249 1.244.249 3.608s-.062 3.11-.249 3.67c-.373 1.12-1.12 1.68-2.364 1.68zM82.63 51.137c-.187-.56-.249-1.12-.249-4.48 0-3.359.062-3.856.25-4.416.372-1.058 1.119-1.68 2.363-1.68s1.99.622 2.364 1.68c.187.56.249 1.057.249 4.417s-.062 3.92-.249 4.479c-.373 1.058-1.12 1.68-2.364 1.68-1.244 0-1.99-.622-2.364-1.68zm25.258 7.34c0 .374.248.623.622.623h6.532c.373 0 .622-.249.622-.622v-41.06c0-.372-.249-.621-.622-.621h-6.159c-.435 0-.684.124-1.058.373l-5.474 4.044c-.436.31-.56.56-.56.995v6.719c0 .498.373.622.684.373l5.288-3.67h.125zm18.6 0c0 .374.25.623.623.623h6.345c.373 0 .622-.249.622-.622V51.26c0-.373-.249-.622-.622-.622h-6.345c-.374 0-.622.25-.622.622zm16.3-.124c-.187.436 0 .747.435.747h6.595c.497 0 .746-.187.933-.622l7.154-17.295c1.555-3.732 2.177-6.22 2.177-12.006 0-3.92-.186-5.35-.56-6.595-1.306-4.043-4.665-6.345-9.829-6.345-5.163 0-8.523 2.302-9.83 6.345-.372 1.245-.559 2.675-.559 6.595 0 3.981.249 5.723.684 6.967 1.245 3.733 3.484 5.91 7.59 5.91.871 0 1.555-.124 1.866-.31 0 .061.125.124.125.124zm6.905-23.017c-1.244 0-1.99-.56-2.364-1.68-.186-.498-.249-1.12-.249-4.48 0-3.359.063-3.919.25-4.416.372-1.12 1.119-1.68 2.363-1.68s1.99.56 2.364 1.68c.187.497.249 1.057.249 4.417s-.062 3.981-.249 4.479c-.373 1.12-1.12 1.68-2.364 1.68zm16.113 17.978c1.306 4.106 4.79 6.346 9.767 6.346 4.977 0 8.523-2.177 9.767-6.346.498-1.555.684-3.235.684-15.366 0-12.13-.186-13.81-.684-15.366-1.244-4.168-4.79-6.345-9.767-6.345-4.977 0-8.399 2.24-9.705 6.345-.498 1.556-.747 3.235-.747 15.366s.187 13.811.685 15.366zm7.403-2.115c-.187-.622-.249-1.368-.249-13.25 0-11.883.062-12.63.249-13.251.31-.996 1.12-1.618 2.364-1.618 1.244 0 2.053.622 2.364 1.618.186.622.249 1.368.249 13.25 0 11.883-.063 12.63-.25 13.251-.31.996-1.057 1.618-2.363 1.618-1.244 0-2.053-.622-2.364-1.618zm18.476 2.115c1.307 4.106 4.79 6.346 9.767 6.346 4.977 0 8.523-2.177 9.767-6.346.498-1.555.685-3.235.685-15.366 0-12.13-.187-13.81-.685-15.366-1.244-4.168-4.79-6.345-9.767-6.345-4.976 0-8.398 2.24-9.704 6.345-.498 1.556-.747 3.235-.747 15.366s.187 13.811.684 15.366zm7.403-2.115c-.186-.622-.248-1.368-.248-13.25 0-11.883.062-12.63.248-13.251.311-.996 1.12-1.618 2.364-1.618 1.245 0 2.053.622 2.364 1.618.187.622.25 1.368.25 13.25 0 11.883-.063 12.63-.25 13.251-.31.996-1.057 1.618-2.364 1.618-1.244 0-2.053-.622-2.364-1.618zm30.297 7.279c0 .373.249.622.622.622h6.905c.374 0 .623-.249.623-.622V47.03l2.488-5.226 6.221 16.86c.062.31.249.435.622.435h7.403c.311 0 .498-.311.374-.622l-9.519-24.636 8.46-16.423c.188-.311 0-.622-.31-.622h-7.217c-.373 0-.622.124-.808.497l-7.714 16.362V17.419c0-.373-.25-.622-.623-.622h-6.905c-.373 0-.622.249-.622.622zm52.817.622c.31 0 .435-.311.31-.622l-5.785-17.917c2.924-1.99 4.728-5.474 4.728-10.824 0-9.394-4.852-12.94-12.38-12.94h-10.078c-.373 0-.622.249-.622.622v41.059c0 .373.249.622.622.622h6.906c.373 0 .622-.249.622-.622V42.925c0-.249.124-.373.373-.373h2.364l4.79 16.05c.125.374.311.498.685.498zm-13.5-23.578h-1.804c-.249 0-.373-.124-.373-.373V24.324c0-.249.124-.373.373-.373h1.804c3.173 0 4.542 1.369 4.542 5.786 0 4.479-1.37 5.785-4.542 5.785zm17.73 22.956c0 .373.249.622.622.622h6.346c.373 0 .622-.249.622-.622V51.26c0-.373-.249-.622-.622-.622h-6.346c-.373 0-.622.25-.622.622z" fill="#fff"/></svg>