<svg width="296.697" height="87" viewBox="0 0 296.697 87" xmlns="http://www.w3.org/2000/svg"><path d="M78.089 58.353c-.187.436 0 .747.435.747h6.595c.497 0 .746-.187.933-.622l7.154-17.295c1.555-3.732 2.177-6.22 2.177-12.006 0-3.92-.186-5.35-.56-6.595-1.306-4.043-4.665-6.345-9.829-6.345-5.163 0-8.523 2.302-9.83 6.345-.372 1.245-.56 2.675-.56 6.595 0 3.981.25 5.723.685 6.967 1.244 3.733 3.484 5.91 7.59 5.91.87 0 1.555-.124 1.866-.31 0 .061.125.124.125.124zm6.905-23.017c-1.244 0-1.99-.56-2.364-1.68-.187-.498-.249-1.12-.249-4.48 0-3.359.062-3.919.25-4.416.372-1.12 1.119-1.68 2.363-1.68s1.99.56 2.364 1.68c.187.497.249 1.057.249 4.417s-.062 3.981-.249 4.479c-.373 1.12-1.12 1.68-2.364 1.68zm15.553 23.142c0 .373.249.622.622.622h19.347c.374 0 .622-.249.622-.622v-5.723c0-.374-.248-.623-.622-.623h-11.198v-.062l8.834-14.184c2.053-3.297 2.986-5.785 2.986-10.513 0-2.178-.186-3.67-.56-4.853-1.368-4.044-4.54-6.283-9.704-6.283-5.226 0-8.46 2.302-9.767 6.283-.374 1.244-.56 2.675-.56 5.101 0 .436.186.685.622.747l6.159.56c.435.062.746-.125.746-.622 0-2.489.062-3.049.25-3.546.372-1.12 1.119-1.68 2.363-1.68 1.307 0 2.053.56 2.426 1.68.187.497.25 1.057.25 2.613 0 3.421-.499 4.852-1.867 7.03l-10.638 17.356c-.249.498-.311.747-.311 1.182zm25.942 0c0 .373.248.622.622.622h6.345c.373 0 .622-.249.622-.622V51.26c0-.373-.249-.622-.622-.622h-6.345c-.374 0-.622.25-.622.622zm13.5-5.101c1.306 3.981 4.54 6.283 9.704 6.283 5.164 0 8.399-2.24 9.767-6.283.374-1.182.56-2.738.56-7.901 0-5.972-.186-7.465-.684-8.896-1.12-3.546-3.608-5.226-7.652-5.226-2.115 0-3.733.684-4.666 1.618h-.062v-8.834c0-.25.124-.374.373-.374h12.007c.373 0 .622-.248.622-.622V17.42c0-.373-.249-.622-.622-.622h-18.663c-.374 0-.622.249-.622.622v22.333c0 .436.248.623.622.623h5.536c.498 0 .747-.125.871-.56.374-1.058 1.12-1.742 2.489-1.742 1.244 0 2.053.56 2.426 1.68.187.497.249 1.12.249 5.723s-.062 5.226-.249 5.723c-.373 1.12-1.12 1.618-2.426 1.618-1.244 0-1.991-.56-2.364-1.68-.187-.498-.25-1.058-.25-2.675 0-.498-.31-.684-.746-.622l-6.158.622c-.436.062-.623.311-.623.747 0 1.493.187 2.923.56 4.168zm25.817-.063c1.306 4.106 4.79 6.346 9.767 6.346 4.977 0 8.523-2.177 9.767-6.346.498-1.555.684-3.235.684-15.366 0-12.13-.186-13.81-.684-15.366-1.244-4.168-4.79-6.345-9.767-6.345-4.977 0-8.399 2.24-9.705 6.345-.498 1.556-.747 3.235-.747 15.366s.187 13.811.685 15.366zm7.403-2.115c-.187-.622-.249-1.368-.249-13.25 0-11.883.062-12.63.249-13.251.31-.996 1.12-1.618 2.364-1.618 1.244 0 2.053.622 2.364 1.618.186.622.249 1.368.249 13.25 0 11.883-.063 12.63-.25 13.251-.31.996-1.057 1.618-2.363 1.618-1.244 0-2.053-.622-2.364-1.618zm18.476 2.115c1.307 4.106 4.79 6.346 9.767 6.346 4.977 0 8.523-2.177 9.767-6.346.498-1.555.685-3.235.685-15.366 0-12.13-.187-13.81-.685-15.366-1.244-4.168-4.79-6.345-9.767-6.345-4.976 0-8.398 2.24-9.704 6.345-.498 1.556-.747 3.235-.747 15.366s.187 13.811.684 15.366zm7.403-2.115c-.186-.622-.248-1.368-.248-13.25 0-11.883.062-12.63.248-13.251.311-.996 1.12-1.618 2.364-1.618 1.245 0 2.053.622 2.364 1.618.187.622.25 1.368.25 13.25 0 11.883-.063 12.63-.25 13.251-.31.996-1.057 1.618-2.364 1.618-1.244 0-2.053-.622-2.364-1.618zm30.297 7.279c0 .373.249.622.622.622h6.905c.374 0 .623-.249.623-.622V47.03l2.488-5.226 6.221 16.86c.062.31.249.435.622.435h7.403c.311 0 .498-.311.374-.622l-9.519-24.636 8.46-16.423c.188-.311 0-.622-.31-.622h-7.217c-.373 0-.622.124-.808.497l-7.714 16.362V17.419c0-.373-.25-.622-.623-.622h-6.905c-.373 0-.622.249-.622.622zm52.817.622c.31 0 .435-.311.31-.622l-5.785-17.917c2.924-1.99 4.728-5.474 4.728-10.824 0-9.394-4.852-12.94-12.38-12.94h-10.078c-.373 0-.622.249-.622.622v41.059c0 .373.249.622.622.622h6.906c.373 0 .622-.249.622-.622V42.925c0-.249.124-.373.373-.373h2.364l4.79 16.05c.125.374.311.498.685.498zm-13.5-23.578h-1.804c-.249 0-.373-.124-.373-.373V24.324c0-.249.124-.373.373-.373h1.804c3.173 0 4.542 1.369 4.542 5.786 0 4.479-1.37 5.785-4.542 5.785zm17.73 22.956c0 .373.249.622.622.622h6.346c.373 0 .622-.249.622-.622V51.26c0-.373-.249-.622-.622-.622h-6.346c-.373 0-.622.25-.622.622z" fill="#fff"/></svg>