<svg width="283.537" height="86" viewBox="0 0 283.537 86" xmlns="http://www.w3.org/2000/svg"><path d="M66.265 52.286c1.281 3.966 4.576 6.223 9.64 6.223 5.065 0 8.36-2.257 9.64-6.223.367-1.22.55-2.563.55-6.407 0-3.112-.122-4.332-.55-5.674-.549-1.709-1.525-3.05-2.867-3.905v-.122c1.403-.854 2.318-2.258 2.868-3.966.366-1.22.549-2.502.549-4.637 0-2.807-.183-4.21-.55-5.43-1.28-3.966-4.575-6.224-9.64-6.224-5.064 0-8.359 2.258-9.64 6.224-.366 1.22-.549 2.623-.549 5.43 0 2.135.122 3.417.55 4.637.548 1.708 1.524 3.112 2.867 3.966v.122c-1.282.854-2.319 2.196-2.868 3.905-.427 1.342-.549 2.562-.549 5.674 0 3.844.183 5.186.55 6.407zm9.64-19.22c-1.22 0-1.952-.549-2.318-1.647-.183-.55-.244-1.282-.244-3.6 0-2.319.06-2.99.244-3.539.366-1.098 1.098-1.647 2.318-1.647s1.953.549 2.319 1.647c.183.55.244 1.22.244 3.539 0 2.318-.061 3.05-.244 3.6-.366 1.098-1.098 1.647-2.319 1.647zM73.587 50.15c-.183-.549-.244-1.098-.244-4.393s.06-3.783.244-4.332c.366-1.037 1.098-1.647 2.318-1.647s1.953.61 2.319 1.647c.183.55.244 1.037.244 4.332s-.061 3.844-.244 4.393c-.366 1.037-1.098 1.648-2.319 1.648-1.22 0-1.952-.61-2.318-1.648zm18.06 2.136c1.281 3.966 4.576 6.223 9.64 6.223 5.064 0 8.36-2.257 9.64-6.223.367-1.22.55-2.624.55-6.468 0-3.905-.244-5.613-.671-6.833-1.22-3.661-3.417-5.797-7.444-5.797-.854 0-1.526.122-1.83.305 0-.06-.123-.122-.123-.122l6.65-16.169c.184-.427 0-.732-.426-.732h-6.468c-.488 0-.732.183-.915.61l-7.017 16.962c-1.525 3.661-2.135 6.102-2.135 11.776 0 3.844.183 5.247.549 6.468zm7.322-2.136c-.183-.488-.244-1.037-.244-4.332s.06-3.905.244-4.393c.366-1.098 1.098-1.647 2.318-1.647s1.953.549 2.319 1.647c.183.488.244 1.098.244 4.393s-.061 3.844-.244 4.332c-.366 1.098-1.098 1.648-2.319 1.648-1.22 0-1.952-.55-2.318-1.648zm17.633 7.2c0 .366.244.61.61.61h6.223c.367 0 .61-.244.61-.61v-7.078c0-.366-.243-.61-.61-.61h-6.223c-.366 0-.61.244-.61.61zm15.986-.122c-.183.427 0 .732.427.732h6.467c.488 0 .732-.183.915-.61l7.017-16.962c1.525-3.661 2.136-6.102 2.136-11.776 0-3.844-.183-5.247-.55-6.467-1.28-3.966-4.576-6.224-9.64-6.224-5.064 0-8.359 2.258-9.64 6.224-.366 1.22-.55 2.623-.55 6.467 0 3.905.245 5.613.672 6.834 1.22 3.66 3.417 5.796 7.444 5.796.854 0 1.525-.122 1.83-.305 0 .061.122.122.122.122zm6.772-22.575c-1.22 0-1.952-.55-2.318-1.648-.183-.488-.244-1.098-.244-4.393s.06-3.844.244-4.332c.366-1.098 1.098-1.647 2.318-1.647s1.953.549 2.319 1.647c.183.488.244 1.037.244 4.332s-.061 3.905-.244 4.393c-.366 1.098-1.098 1.648-2.319 1.648zm15.803 17.633c1.281 4.027 4.698 6.223 9.58 6.223 4.88 0 8.358-2.135 9.578-6.223.489-1.526.672-3.173.672-15.07 0-11.899-.183-13.546-.672-15.071-1.22-4.088-4.698-6.224-9.579-6.224s-8.237 2.197-9.518 6.224c-.488 1.525-.732 3.172-.732 15.07s.183 13.545.67 15.07zm7.26-2.075c-.182-.61-.243-1.342-.243-12.996s.06-12.386.244-12.996c.305-.976 1.098-1.586 2.318-1.586s2.014.61 2.319 1.586c.183.61.244 1.342.244 12.996s-.061 12.386-.244 12.996c-.305.976-1.038 1.587-2.319 1.587-1.22 0-2.013-.61-2.318-1.587zm18.122 2.075c1.281 4.027 4.698 6.223 9.58 6.223 4.88 0 8.358-2.135 9.578-6.223.488-1.526.672-3.173.672-15.07 0-11.899-.184-13.546-.672-15.071-1.22-4.088-4.698-6.224-9.579-6.224s-8.237 2.197-9.518 6.224c-.488 1.525-.732 3.172-.732 15.07s.183 13.545.67 15.07zm7.26-2.075c-.182-.61-.243-1.342-.243-12.996s.06-12.386.244-12.996c.305-.976 1.098-1.586 2.318-1.586s2.014.61 2.319 1.586c.183.61.244 1.342.244 12.996s-.061 12.386-.244 12.996c-.305.976-1.038 1.587-2.319 1.587-1.22 0-2.013-.61-2.318-1.587zm29.715 7.139c0 .366.244.61.61.61h6.772c.366 0 .61-.244.61-.61V46.123l2.441-5.125 6.101 16.535c.061.305.244.427.61.427h7.261c.305 0 .488-.305.366-.61l-9.335-24.162 8.298-16.108c.183-.305 0-.61-.305-.61h-7.078c-.366 0-.61.122-.793.488l-7.566 16.047V17.08c0-.366-.244-.61-.61-.61h-6.772c-.366 0-.61.244-.61.61zm51.8.61c.306 0 .428-.305.306-.61l-5.675-17.572c2.868-1.953 4.637-5.37 4.637-10.617 0-9.213-4.759-12.69-12.141-12.69h-9.885c-.366 0-.61.243-.61.61V57.35c0 .366.244.61.61.61h6.773c.366 0 .61-.244.61-.61V42.096c0-.244.122-.366.366-.366h2.319l4.698 15.742c.122.366.305.488.67.488zm-13.24-23.124h-1.769c-.244 0-.366-.122-.366-.367V23.853c0-.244.122-.366.366-.366h1.77c3.111 0 4.454 1.342 4.454 5.674 0 4.393-1.343 5.675-4.454 5.675zm17.39 22.514c0 .366.244.61.61.61h6.223c.366 0 .61-.244.61-.61v-7.078c0-.366-.244-.61-.61-.61h-6.223c-.366 0-.61.244-.61.61z" fill="#fff"/></svg>