<svg width="273" height="35" viewBox="0 0 273 35" xmlns="http://www.w3.org/2000/svg"><path d="M100.935 23.015c-.024.147.05.245.196.245h2.718c.171 0 .245-.098.27-.245l.562-3.012h3.159l.539 3.012c.024.147.098.245.269.245h2.718c.147 0 .22-.098.196-.245l-3.575-16.16c-.025-.147-.123-.245-.27-.245h-2.889c-.147 0-.22.098-.27.245zm4.212-5.558l1.101-5.779h.074l1.053 5.779zm7.761 5.558c0 .147.098.245.245.245h7.321c.147 0 .245-.098.245-.245v-2.4c0-.146-.098-.244-.245-.244h-4.211c-.098 0-.147-.05-.147-.147V6.854c0-.146-.098-.244-.245-.244h-2.718c-.147 0-.245.098-.245.245zm9.427 0c0 .147.098.245.245.245h2.375c.147 0 .245-.098.245-.245v-9.623h.147l1.812 6.66c.049.147.147.245.318.245h1.347c.171 0 .27-.098.318-.245l1.812-6.66h.147v9.623c0 .147.098.245.245.245h2.375c.147 0 .245-.098.245-.245V6.855c0-.147-.098-.245-.245-.245h-2.62c-.22 0-.343.073-.392.245l-2.448 8.741h-.098l-2.547-8.741c-.049-.172-.171-.245-.391-.245h-2.645c-.147 0-.245.098-.245.245zm13.883 0c0 .147.098.245.245.245h7.272c.147 0 .245-.098.245-.245v-2.4c0-.146-.098-.244-.245-.244h-4.162c-.098 0-.147-.05-.147-.147v-3.77c0-.099.049-.148.147-.148h3.6c.146 0 .244-.098.244-.245v-2.4c0-.146-.098-.244-.245-.244h-3.6c-.097 0-.146-.05-.146-.147V9.646c0-.098.049-.147.147-.147h4.162c.147 0 .245-.098.245-.245v-2.4c0-.146-.098-.244-.245-.244h-7.272c-.147 0-.245.098-.245.245zm18.928.245c.122 0 .171-.122.122-.245l-2.277-7.052c1.15-.783 1.86-2.154 1.86-4.26 0-3.697-1.91-5.093-4.872-5.093h-3.966c-.147 0-.245.098-.245.245v16.16c0 .147.098.245.245.245h2.717c.147 0 .245-.098.245-.245v-6.121c0-.098.05-.147.147-.147h.93l1.886 6.317c.049.147.122.196.27.196zm-5.314-9.28h-.71c-.098 0-.147-.049-.147-.147v-4.26c0-.098.05-.147.147-.147h.71c1.249 0 1.788.538 1.788 2.277 0 1.763-.539 2.277-1.788 2.277zm7.052 9.035c0 .147.098.245.245.245h2.718c.147 0 .245-.098.245-.245V6.855c0-.147-.098-.245-.245-.245h-2.718c-.147 0-.245.098-.245.245zm2.35-18.241c.196 0 .319-.074.49-.245l2.547-2.792c.098-.122.024-.244-.123-.244H159.7c-.196 0-.27.073-.392.244L157.3 4.53c-.098.122-.024.245.123.245zm2.204 18.241c-.024.147.05.245.196.245h2.718c.171 0 .245-.098.27-.245l.563-3.012h3.158l.539 3.012c.024.147.098.245.27.245h2.717c.147 0 .22-.098.196-.245l-3.575-16.16c-.024-.147-.122-.245-.27-.245h-2.889c-.146 0-.22.098-.269.245zm4.212-5.558l1.102-5.779h.073l1.053 5.779z" fill="#fff"/></svg>