<svg width="100" height="40" viewBox="0 0 100 40" xmlns="http://www.w3.org/2000/svg"><path d="M10.765 24.56c0 .114.076.19.19.19h3.059c2.527 0 3.819-.95 3.819-3.8 0-1.729-.684-2.641-1.634-2.926v-.038c.95-.418 1.482-1.216 1.482-2.793 0-2.261-1.064-3.363-3.458-3.363h-3.268c-.114 0-.19.076-.19.19zm2.603-7.429c-.076 0-.114-.038-.114-.114v-2.964c0-.076.038-.114.114-.114h.551c.969 0 1.273.342 1.273 1.596 0 1.273-.304 1.596-1.273 1.596zm-.114 5.396v-3.306c0-.076.038-.114.114-.114h.551c1.045 0 1.406.399 1.406 1.748 0 1.368-.361 1.786-1.406 1.786h-.551c-.076 0-.114-.038-.114-.114zm9.918-12.122c.152 0 .247-.057.38-.19l1.976-2.166c.076-.095.019-.19-.095-.19h-1.9c-.152 0-.209.057-.304.19l-1.558 2.166c-.076.095-.019.19.095.19zm-.57 14.516c1.691 0 2.831-.76 3.306-2.185.209-.589.266-1.121.266-4.446 0-3.325-.057-3.857-.266-4.446-.475-1.425-1.615-2.185-3.306-2.185s-2.831.76-3.306 2.185c-.209.589-.266 1.121-.266 4.446 0 3.325.057 3.857.266 4.446.475 1.425 1.615 2.185 3.306 2.185zm0-2.242c-.475 0-.798-.266-.912-.627-.095-.304-.133-.627-.133-3.762s.038-3.458.133-3.762c.114-.361.437-.627.912-.627.475 0 .798.266.912.627.095.304.133.627.133 3.762s-.038 3.458-.133 3.762c-.114.361-.437.627-.912.627zm5.13 1.881c0 .114.076.19.19.19h2.109c.114 0 .19-.076.19-.19v-3.496l.76-1.596 1.9 5.149c.019.095.076.133.19.133h2.261c.095 0 .152-.095.114-.19l-2.907-7.524 2.584-5.016c.057-.095 0-.19-.095-.19h-2.204c-.114 0-.19.038-.247.152l-2.356 4.997V12.02c0-.114-.076-.19-.19-.19h-2.109c-.114 0-.19.076-.19.19zm8.151 0c-.019.114.038.19.152.19h2.109c.133 0 .19-.076.209-.19l.437-2.337h2.451l.418 2.337c.019.114.076.19.209.19h2.109c.114 0 .171-.076.152-.19l-2.774-12.54c-.019-.114-.095-.19-.209-.19h-2.242c-.114 0-.171.076-.209.19zm3.268-4.313l.855-4.484h.057l.817 4.484zm9.481 4.503c1.786 0 2.831-.684 3.306-2.147.228-.722.342-1.596.342-4.313 0-2.717-.114-3.591-.342-4.313-.475-1.463-1.52-2.147-3.306-2.147h-3.268c-.114 0-.19.076-.19.19v5.206c0 .076-.038.114-.114.114h-.513c-.114 0-.19.076-.19.19v1.406c0 .114.076.19.19.19h.513c.076 0 .114.038.114.114v5.32c0 .114.076.19.19.19zm-.247-2.242h-.608c-.076 0-.114-.038-.114-.114V19.24c0-.076.038-.114.114-.114h.836c.114 0 .19-.076.19-.19v-1.387c0-.114-.076-.19-.19-.19h-.836c-.076 0-.114-.038-.114-.114v-3.059c0-.076.038-.114.114-.114h.608c.627 0 .969.228 1.159.798.133.399.209.95.209 3.42 0 2.47-.076 3.021-.209 3.42-.19.57-.532.798-1.159.798zm8.892 2.413c2.166 0 3.496-1.235 3.496-3.667V12.02c0-.114-.076-.19-.19-.19h-2.109c-.114 0-.19.076-.19.19v9.538c0 .684-.361 1.121-1.007 1.121-.627 0-.988-.437-.988-1.121V12.02c0-.114-.076-.19-.19-.19H53.99c-.114 0-.19.076-.19.19v9.234c0 2.432 1.33 3.667 3.477 3.667zm8.911-.361c0 .114.076.19.19.19h2.109c.114 0 .19-.076.19-.19v-5.168c0-.076.038-.114.114-.114h1.805c.076 0 .114.038.114.114v5.168c0 .114.076.19.19.19h2.109c.114 0 .19-.076.19-.19V12.02c0-.114-.076-.19-.19-.19H70.9c-.114 0-.19.076-.19.19v4.902c0 .076-.038.114-.114.114h-1.805c-.076 0-.114-.038-.114-.114V12.02c0-.114-.076-.19-.19-.19h-2.109c-.114 0-.19.076-.19.19zM78.5 10.405c.152 0 .247-.057.38-.19l1.976-2.166c.076-.095.019-.19-.095-.19h-1.9c-.152 0-.209.057-.304.19l-1.558 2.166c-.076.095-.019.19.095.19zM74.947 24.56c0 .114.076.19.19.19h5.643c.114 0 .19-.076.19-.19v-1.862c0-.114-.076-.19-.19-.19h-3.23c-.076 0-.114-.038-.114-.114v-2.926c0-.076.038-.114.114-.114h2.793c.114 0 .19-.076.19-.19v-1.862c0-.114-.076-.19-.19-.19H77.55c-.076 0-.114-.038-.114-.114v-2.812c0-.076.038-.114.114-.114h3.23c.114 0 .19-.076.19-.19V12.02c0-.114-.076-.19-.19-.19h-5.643c-.114 0-.19.076-.19.19zm14.687.19c.095 0 .133-.095.095-.19l-1.767-5.472c.893-.608 1.444-1.672 1.444-3.306 0-2.869-1.482-3.952-3.781-3.952h-3.078c-.114 0-.19.076-.19.19v12.54c0 .114.076.19.19.19h2.109c.114 0 .19-.076.19-.19v-4.75c0-.076.038-.114.114-.114h.722l1.463 4.902c.038.114.095.152.209.152zm-4.123-7.201h-.551c-.076 0-.114-.038-.114-.114v-3.306c0-.076.038-.114.114-.114h.551c.969 0 1.387.418 1.387 1.767 0 1.368-.418 1.767-1.387 1.767z" fill="#fff"/></svg>