<svg width="273" height="35" viewBox="0 0 273 35" xmlns="http://www.w3.org/2000/svg"><path d="M104.718 23.26c.147 0 .245-.098.245-.245V9.646c0-.098.049-.147.147-.147h2.62c.147 0 .245-.098.245-.245v-2.4c0-.146-.098-.244-.245-.244h-8.741c-.147 0-.245.098-.245.245v2.4c0 .146.098.244.245.244h2.62c.097 0 .146.05.146.147v13.37c0 .146.098.244.245.244zm4.726-.245c0 .147.098.245.245.245h7.272c.147 0 .245-.098.245-.245v-2.4c0-.146-.098-.244-.245-.244h-4.163c-.098 0-.147-.05-.147-.147v-3.77c0-.099.05-.148.147-.148h3.6c.146 0 .244-.098.244-.245v-2.4c0-.146-.098-.244-.244-.244h-3.6c-.098 0-.147-.05-.147-.147V9.646c0-.098.05-.147.147-.147h4.163c.147 0 .245-.098.245-.245v-2.4c0-.146-.098-.244-.245-.244h-7.272c-.147 0-.245.098-.245.245zm9.549 0c0 .147.098.245.245.245h2.326c.147 0 .245-.098.245-.245V12.56h.122l2.89 10.455c.048.172.146.245.342.245h2.939c.146 0 .244-.098.244-.245V6.855c0-.147-.098-.245-.244-.245h-2.327c-.146 0-.244.098-.244.245V17.31h-.123l-2.767-10.455c-.049-.172-.147-.245-.342-.245h-3.061c-.147 0-.245.098-.245.245zm11.606 0c0 .147.098.245.245.245h7.272c.147 0 .245-.098.245-.245v-2.4c0-.146-.098-.244-.245-.244h-4.162c-.098 0-.147-.05-.147-.147v-3.77c0-.099.049-.148.147-.148h3.599c.147 0 .245-.098.245-.245v-2.4c0-.146-.098-.244-.245-.244h-3.6c-.097 0-.146-.05-.146-.147V9.646c0-.098.049-.147.147-.147h4.162c.147 0 .245-.098.245-.245v-2.4c0-.146-.098-.244-.245-.244h-7.272c-.147 0-.245.098-.245.245zm18.927.245c.123 0 .172-.122.123-.245l-2.278-7.052c1.151-.783 1.861-2.154 1.861-4.26 0-3.697-1.91-5.093-4.872-5.093h-3.967c-.147 0-.245.098-.245.245v16.16c0 .147.098.245.245.245h2.718c.147 0 .245-.098.245-.245v-6.121c0-.098.049-.147.147-.147h.93l1.886 6.317c.049.147.122.196.269.196zm-5.313-9.28h-.71c-.098 0-.147-.049-.147-.147v-4.26c0-.098.049-.147.147-.147h.71c1.249 0 1.787.538 1.787 2.277 0 1.763-.538 2.277-1.787 2.277zm7.052 9.035c0 .147.098.245.244.245h2.718c.147 0 .245-.098.245-.245V6.855c0-.147-.098-.245-.245-.245h-2.718c-.146 0-.244.098-.244.245zm5.46 0c0 .147.098.245.245.245h2.718c.146 0 .244-.098.244-.245v-6.39c0-.098.05-.147.147-.147h3.6c.147 0 .245-.098.245-.245v-2.424c0-.147-.098-.245-.245-.245h-3.6c-.098 0-.147-.05-.147-.147v-3.77c0-.099.05-.148.147-.148h4.163c.147 0 .245-.098.245-.245v-2.4c0-.146-.098-.244-.245-.244h-7.272c-.147 0-.245.098-.245.245zm9.451 0c0 .147.098.245.245.245h7.272c.147 0 .245-.098.245-.245v-2.4c0-.146-.098-.244-.245-.244h-4.162c-.098 0-.147-.05-.147-.147v-3.77c0-.099.049-.148.147-.148h3.599c.147 0 .245-.098.245-.245v-2.4c0-.146-.098-.244-.245-.244h-3.6c-.097 0-.146-.05-.146-.147V9.646c0-.098.049-.147.147-.147h4.162c.147 0 .245-.098.245-.245v-2.4c0-.146-.098-.244-.245-.244h-7.272c-.147 0-.245.098-.245.245z" fill="#fff"/></svg>