<svg width="273" height="35" viewBox="0 0 273 35" xmlns="http://www.w3.org/2000/svg"><path d="M77.025 20.714c.588 1.787 1.935 2.766 4.138 2.766 2.67 0 4.236-1.42 4.383-4.211 0-.147-.049-.27-.22-.294l-2.571-.44c-.147-.025-.27.048-.27.22-.049 1.322-.465 1.836-1.273 1.836-.587 0-.93-.245-1.102-.759-.098-.367-.147-.661-.147-4.897 0-4.236.05-4.53.147-4.897.172-.514.515-.76 1.102-.76.808 0 1.224.515 1.273 1.837 0 .172.123.245.27.22l2.57-.44c.172-.025.221-.147.221-.294C85.4 7.81 83.832 6.39 81.163 6.39c-2.203 0-3.55.979-4.138 2.766-.22.71-.318 1.47-.318 5.779 0 4.31.098 5.068.318 5.779zm14.398 2.766c2.179 0 3.648-.979 4.26-2.815.27-.76.343-1.445.343-5.73s-.074-4.97-.343-5.73c-.612-1.836-2.081-2.815-4.26-2.815-2.18 0-3.649.979-4.26 2.815-.27.76-.344 1.445-.344 5.73s.074 4.97.343 5.73c.612 1.836 2.081 2.815 4.26 2.815zm0-2.889c-.613 0-1.029-.343-1.176-.808-.122-.392-.171-.808-.171-4.848s.049-4.456.171-4.848c.147-.465.563-.808 1.176-.808.612 0 1.028.343 1.175.808.122.392.171.808.171 4.848s-.049 4.456-.171 4.848c-.147.465-.563.808-1.175.808zm15.23-2.277c0-2.816-.882-4.04-3.16-4.922l-1.003-.391c-1.298-.515-1.567-.906-1.567-2.155 0-1.126.416-1.665 1.273-1.665.882 0 1.298.612 1.322 1.812 0 .147.123.22.27.196l2.497-.392c.147-.025.22-.122.22-.27-.122-2.62-1.493-4.137-4.407-4.137-2.963 0-4.407 1.616-4.407 4.627 0 2.67.808 3.918 3.158 4.824l1.004.392c1.25.49 1.543 1.004 1.543 2.473 0 1.518-.416 1.983-1.322 1.983-.955 0-1.396-.612-1.445-2.155 0-.147-.098-.22-.27-.196l-2.62.417c-.146.024-.195.122-.195.269.049 2.865 1.493 4.456 4.505 4.456 3.306 0 4.603-1.763 4.603-5.166zm6.635 4.946c.147 0 .245-.098.245-.245V9.646c0-.098.049-.147.147-.147h2.62c.147 0 .244-.098.244-.245v-2.4c0-.146-.097-.244-.244-.244h-8.742c-.147 0-.244.098-.244.245v2.4c0 .146.097.244.244.244h2.62c.098 0 .147.05.147.147v13.37c0 .146.098.244.245.244zm2.595-.245c-.024.147.05.245.196.245h2.718c.172 0 .245-.098.27-.245l.563-3.012h3.158l.539 3.012c.024.147.098.245.27.245h2.717c.147 0 .22-.098.196-.245l-3.575-16.16c-.024-.147-.122-.245-.27-.245h-2.888c-.147 0-.22.098-.27.245zm4.212-5.558l1.102-5.779h.073l1.053 5.779zm12.536 5.558c0 .147.098.245.245.245h4.212c2.301 0 3.648-.881 4.26-2.767.294-.93.44-2.057.44-5.558s-.146-4.628-.44-5.558c-.612-1.886-1.959-2.767-4.26-2.767h-4.212c-.147 0-.245.098-.245.245zm3.208-2.791V9.646c0-.098.049-.147.147-.147h.783c.808 0 1.25.294 1.494 1.029.196.514.27 1.224.27 4.407s-.074 3.893-.27 4.407c-.245.735-.686 1.029-1.494 1.029h-.783c-.098 0-.147-.05-.147-.147zm7.958 2.791c0 .147.098.245.244.245h7.273c.147 0 .244-.098.244-.245v-2.4c0-.146-.097-.244-.244-.244h-4.163c-.098 0-.147-.05-.147-.147v-3.77c0-.099.05-.148.147-.148h3.6c.146 0 .244-.098.244-.245v-2.4c0-.146-.098-.244-.245-.244h-3.599c-.098 0-.147-.05-.147-.147V9.646c0-.098.05-.147.147-.147h4.163c.147 0 .244-.098.244-.245v-2.4c0-.146-.097-.244-.244-.244h-7.273c-.146 0-.244.098-.244.245zm9.549 0c0 .147.098.245.245.245h7.32c.148 0 .246-.098.246-.245v-2.4c0-.146-.098-.244-.245-.244H156.7c-.098 0-.147-.05-.147-.147V6.854c0-.146-.097-.244-.244-.244h-2.718c-.147 0-.245.098-.245.245zm22.82-4.701c0-2.816-.881-4.04-3.158-4.922l-1.004-.391c-1.298-.515-1.567-.906-1.567-2.155 0-1.126.416-1.665 1.273-1.665.881 0 1.298.612 1.322 1.812 0 .147.122.22.27.196l2.497-.392c.147-.025.22-.122.22-.27-.122-2.62-1.493-4.137-4.407-4.137-2.963 0-4.407 1.616-4.407 4.627 0 2.67.808 3.918 3.158 4.824l1.004.392c1.249.49 1.543 1.004 1.543 2.473 0 1.518-.417 1.983-1.323 1.983-.954 0-1.395-.612-1.444-2.155 0-.147-.098-.22-.27-.196l-2.62.417c-.146.024-.195.122-.195.269.049 2.865 1.493 4.456 4.505 4.456 3.305 0 4.603-1.763 4.603-5.166zm6.097 5.166c2.18 0 3.648-.979 4.26-2.815.27-.76.343-1.445.343-5.73s-.073-4.97-.343-5.73c-.612-1.836-2.08-2.815-4.26-2.815-2.18 0-3.648.979-4.26 2.815-.27.76-.343 1.445-.343 5.73s.073 4.97.343 5.73c.612 1.836 2.08 2.815 4.26 2.815zm0-2.889c-.612 0-1.028-.343-1.175-.808-.123-.392-.172-.808-.172-4.848s.05-4.456.172-4.848c.147-.465.563-.808 1.175-.808.612 0 1.028.343 1.175.808.123.392.172.808.172 4.848s-.05 4.456-.172 4.848c-.147.465-.563.808-1.175.808zm6.611 2.424c0 .147.098.245.245.245h7.321c.147 0 .245-.098.245-.245v-2.4c0-.146-.098-.244-.245-.244h-4.211c-.098 0-.147-.05-.147-.147V6.854c0-.146-.098-.244-.245-.244h-2.718c-.147 0-.245.098-.245.245z" fill="#fff"/></svg>