<svg width="103.977" height="33" viewBox="0 0 103.977 33" xmlns="http://www.w3.org/2000/svg"><path d="M20.711 22.226c-.07.166 0 .284.166.284h2.512c.19 0 .284-.071.355-.237l2.725-6.587c.593-1.422.83-2.37.83-4.574 0-1.492-.071-2.037-.214-2.511-.497-1.54-1.777-2.417-3.744-2.417-1.966 0-3.246.877-3.743 2.417-.143.474-.214 1.019-.214 2.511 0 1.517.095 2.18.261 2.654.474 1.422 1.327 2.251 2.89 2.251.333 0 .593-.047.712-.118 0 .024.047.047.047.047zm2.63-8.768c-.473 0-.758-.213-.9-.64-.071-.189-.095-.426-.095-1.706s.024-1.492.095-1.682c.142-.426.427-.64.9-.64.474 0 .759.214.9.64.072.19.096.403.096 1.682 0 1.28-.024 1.517-.095 1.707-.142.426-.427.64-.9.64zm6.161 6.872c.498 1.517 1.73 2.393 3.697 2.393s3.199-.853 3.72-2.393c.142-.45.213-1.043.213-3.01 0-2.274-.07-2.843-.26-3.388-.427-1.35-1.375-1.99-2.915-1.99-.806 0-1.422.26-1.777.616h-.024V9.193c0-.095.048-.142.142-.142h4.574c.142 0 .237-.095.237-.237v-2.18c0-.142-.095-.237-.237-.237h-7.11c-.141 0-.236.095-.236.237v8.507c0 .166.095.237.237.237h2.109c.19 0 .284-.048.332-.214.142-.402.426-.663.947-.663.474 0 .782.213.925.64.07.19.094.426.094 2.18 0 1.753-.023 1.99-.094 2.18-.143.426-.427.616-.925.616-.474 0-.758-.213-.9-.64-.071-.19-.095-.403-.095-1.019 0-.19-.118-.26-.284-.237l-2.346.237c-.166.024-.237.119-.237.284 0 .57.071 1.114.213 1.588zm9.644 1.943c0 .142.095.237.237.237H41.8c.142 0 .237-.095.237-.237v-2.749c0-.142-.095-.237-.237-.237h-2.417c-.142 0-.237.095-.237.237zm5.142-1.943c.498 1.517 1.73 2.393 3.697 2.393 1.966 0 3.199-.853 3.72-2.393.142-.45.213-1.043.213-3.01 0-2.274-.07-2.843-.26-3.388-.427-1.35-1.375-1.99-2.915-1.99-.806 0-1.422.26-1.777.616h-.024V9.193c0-.095.048-.142.142-.142h4.574c.142 0 .236-.095.236-.237v-2.18c0-.142-.094-.237-.236-.237h-7.11c-.141 0-.236.095-.236.237v8.507c0 .166.095.237.237.237h2.109c.19 0 .284-.048.332-.214.142-.402.426-.663.947-.663.474 0 .782.213.924.64.072.19.095.426.095 2.18 0 1.753-.023 1.99-.095 2.18-.142.426-.426.616-.924.616-.474 0-.758-.213-.9-.64-.071-.19-.095-.403-.095-1.019 0-.19-.118-.26-.284-.237l-2.346.237c-.166.024-.237.119-.237.284 0 .57.071 1.114.213 1.588zm9.834-.024c.497 1.564 1.824 2.417 3.72 2.417 1.896 0 3.246-.83 3.72-2.417.19-.592.26-1.232.26-5.852 0-4.621-.07-5.26-.26-5.853-.474-1.588-1.824-2.417-3.72-2.417-1.896 0-3.199.853-3.696 2.417-.19.592-.285 1.232-.285 5.853 0 4.62.071 5.26.26 5.852zm2.82-.805c-.071-.237-.095-.522-.095-5.047 0-4.526.024-4.81.095-5.048.118-.379.426-.616.9-.616.474 0 .782.237.9.616.072.237.095.522.095 5.048 0 4.525-.023 4.81-.095 5.047-.118.379-.402.616-.9.616-.474 0-.782-.237-.9-.616zm7.037.805c.498 1.564 1.825 2.417 3.72 2.417 1.896 0 3.247-.83 3.72-2.417.19-.592.261-1.232.261-5.852 0-4.621-.07-5.26-.26-5.853-.474-1.588-1.825-2.417-3.72-2.417-1.896 0-3.2.853-3.697 2.417-.19.592-.284 1.232-.284 5.853 0 4.62.07 5.26.26 5.852zm2.82-.805c-.071-.237-.095-.522-.095-5.047 0-4.526.024-4.81.095-5.048.118-.379.426-.616.9-.616.474 0 .782.237.9.616.072.237.096.522.096 5.048 0 4.525-.024 4.81-.095 5.047-.119.379-.403.616-.9.616-.475 0-.783-.237-.901-.616zm11.54 2.772c0 .142.094.237.237.237h2.63c.142 0 .237-.095.237-.237v-4.36l.948-1.99 2.37 6.421c.023.119.094.166.236.166h2.82c.118 0 .19-.118.142-.237l-3.625-9.383 3.222-6.256c.071-.118 0-.237-.118-.237h-2.749c-.142 0-.237.047-.308.19l-2.938 6.232V6.634c0-.142-.095-.237-.237-.237h-2.63c-.143 0-.237.095-.237.237zm20.117.237c.119 0 .166-.118.119-.237l-2.204-6.824c1.114-.758 1.8-2.085 1.8-4.123 0-3.578-1.848-4.929-4.715-4.929h-3.838c-.143 0-.237.095-.237.237v15.639c0 .142.094.237.237.237h2.63c.142 0 .237-.095.237-.237v-5.924c0-.095.047-.142.142-.142h.9l1.825 6.113c.047.143.118.19.26.19zm-5.142-8.98h-.687c-.095 0-.142-.048-.142-.143V9.264c0-.095.047-.142.142-.142h.687c1.209 0 1.73.521 1.73 2.204 0 1.706-.521 2.203-1.73 2.203zm6.753 8.743c0 .142.095.237.237.237h2.417c.142 0 .237-.095.237-.237v-2.749c0-.142-.095-.237-.237-.237h-2.417c-.142 0-.237.095-.237.237z" fill="#fff"/></svg>