<svg width="273" height="42" viewBox="0 0 273 42" xmlns="http://www.w3.org/2000/svg"><path d="M40.783 27.953c0 .178.119.297.297.297h4.788c3.956 0 5.978-1.487 5.978-5.948 0-2.706-1.07-4.134-2.558-4.58v-.06c1.487-.654 2.32-1.903 2.32-4.371 0-3.54-1.665-5.264-5.413-5.264H41.08c-.178 0-.297.119-.297.297zm4.074-11.629c-.119 0-.178-.06-.178-.178v-4.64c0-.118.06-.178.178-.178h.863c1.516 0 1.992.535 1.992 2.498 0 1.993-.476 2.498-1.992 2.498zm-.178 8.446v-5.174c0-.12.06-.179.178-.179h.863c1.635 0 2.2.625 2.2 2.736 0 2.142-.565 2.796-2.2 2.796h-.863c-.119 0-.178-.06-.178-.179zm15.048 3.48c.178 0 .297-.119.297-.297V20.22L63.95 8.324c.06-.178 0-.297-.238-.297H60.47c-.208 0-.297.09-.356.297L58.21 15.73h-.119L56.1 8.324c-.03-.208-.149-.297-.357-.297H52.44c-.238 0-.298.119-.238.297l3.925 11.896v7.733c0 .178.12.297.298.297zm17.22 0c.148 0 .207-.149.148-.297l-2.766-8.565c1.398-.952 2.26-2.618 2.26-5.175 0-4.49-2.32-6.186-5.918-6.186h-4.818c-.178 0-.297.119-.297.297v19.629c0 .178.119.297.297.297h3.301c.179 0 .298-.119.298-.297v-7.435c0-.12.06-.179.178-.179h1.13l2.29 7.673c.06.179.15.238.328.238zm-6.454-11.271h-.863c-.119 0-.178-.06-.178-.179v-5.174c0-.12.06-.179.178-.179h.863c1.516 0 2.17.654 2.17 2.766 0 2.141-.654 2.766-2.17 2.766zm7.583 10.052c.774.951 2.171 1.487 3.718 1.487 3.36 0 5.531-1.755 5.531-5.83V8.325c0-.178-.119-.297-.297-.297h-3.301c-.179 0-.297.119-.297.297v14.722c0 1.397-.566 1.962-1.606 1.962-.447 0-.833-.178-1.13-.446-.179-.148-.298-.148-.447-.03l-2.14 2.082c-.15.12-.15.268-.03.417zm10.439.922c-.03.178.06.297.238.297h3.301c.208 0 .297-.119.327-.297l.684-3.658h3.837l.654 3.658c.03.178.119.297.327.297h3.301c.179 0 .268-.119.238-.297L97.08 8.324c-.03-.178-.149-.297-.327-.297h-3.51c-.178 0-.267.119-.327.297zm5.115-6.751l1.339-7.019h.089l1.279 7.019zm14.84 7.048c2.796 0 4.432-1.07 5.175-3.36.357-1.13.535-2.499.535-6.751 0-4.253-.178-5.621-.535-6.751-.743-2.29-2.38-3.361-5.175-3.361h-5.115c-.178 0-.297.119-.297.297v8.15c0 .118-.06.178-.179.178h-.803c-.178 0-.297.118-.297.297v2.2c0 .18.119.298.297.298h.803c.12 0 .179.06.179.178v8.328c0 .178.119.297.297.297zm-.386-3.51h-.952c-.119 0-.178-.059-.178-.178v-4.937c0-.118.06-.178.178-.178h1.309c.178 0 .297-.119.297-.297v-2.171c0-.179-.119-.298-.297-.298h-1.309c-.119 0-.178-.06-.178-.178v-4.788c0-.12.06-.179.178-.179h.952c.981 0 1.516.357 1.814 1.25.208.624.327 1.486.327 5.353 0 3.866-.119 4.728-.327 5.353-.298.892-.833 1.249-1.814 1.249zm13.918 3.778c3.39 0 5.472-1.933 5.472-5.74V8.324c0-.178-.119-.297-.297-.297h-3.302c-.178 0-.297.119-.297.297v14.93c0 1.07-.565 1.754-1.576 1.754-.982 0-1.547-.684-1.547-1.754V8.324c0-.178-.119-.297-.297-.297h-3.301c-.179 0-.297.119-.297.297v14.454c0 3.807 2.081 5.74 5.442 5.74zm12.847-.565c-.03.178.06.297.238.297h3.301c.209 0 .298-.119.328-.297l.684-3.658h3.836l.654 3.658c.03.178.12.297.327.297h3.302c.178 0 .267-.119.237-.297l-4.342-19.629c-.03-.178-.148-.297-.327-.297h-3.509c-.178 0-.268.119-.327.297zm5.116-6.751l1.338-7.019h.09l1.278 7.019zm14.84 7.048c2.795 0 4.431-1.07 5.174-3.36.357-1.13.536-2.499.536-6.751 0-4.253-.179-5.621-.536-6.751-.743-2.29-2.379-3.361-5.174-3.361h-5.115c-.179 0-.298.119-.298.297v8.15c0 .118-.06.178-.178.178h-.803c-.179 0-.298.118-.298.297v2.2c0 .18.12.298.298.298h.803c.119 0 .178.06.178.178v8.328c0 .178.12.297.298.297zm-.387-3.51h-.952c-.118 0-.178-.059-.178-.178v-4.937c0-.118.06-.178.178-.178h1.309c.178 0 .297-.119.297-.297v-2.171c0-.179-.119-.298-.297-.298h-1.309c-.118 0-.178-.06-.178-.178v-4.788c0-.12.06-.179.178-.179h.952c.982 0 1.517.357 1.814 1.25.208.624.327 1.486.327 5.353 0 3.866-.119 4.728-.327 5.353-.297.892-.832 1.249-1.814 1.249zm17.933 3.51c.179 0 .298-.119.298-.297v-7.019c0-.119.06-.178.178-.178h.981c3.599 0 5.948-1.785 5.948-6.365 0-4.61-2.26-6.364-5.948-6.364h-4.758c-.178 0-.297.119-.297.297v19.629c0 .178.119.297.297.297zm1.338-10.914h-.862c-.119 0-.178-.06-.178-.179v-5.531c0-.12.06-.179.178-.179h.862c1.517 0 2.171.654 2.171 2.944s-.654 2.945-2.17 2.945zm5.562 10.617c-.03.178.06.297.238.297h3.3c.209 0 .298-.119.328-.297l.684-3.658h3.836l.655 3.658c.03.178.119.297.327.297h3.3c.18 0 .269-.119.239-.297l-4.342-19.629c-.03-.178-.149-.297-.327-.297h-3.51c-.178 0-.267.119-.327.297zm5.115-6.751l1.338-7.019h.09l1.278 7.019zm9.428 6.75c0 .179.118.298.297.298h3.301c.178 0 .297-.119.297-.297V22.48l1.19-2.498 2.974 8.06c.03.149.119.208.297.208h3.54c.148 0 .237-.149.178-.297l-4.55-11.777 4.044-7.852c.09-.148 0-.297-.148-.297h-3.45c-.179 0-.298.06-.387.238l-3.688 7.821V8.324c0-.178-.119-.297-.297-.297h-3.301c-.179 0-.297.119-.297.297zm13.858 0c0 .179.12.298.298.298h3.3c.18 0 .298-.119.298-.297V22.48l1.19-2.498 2.974 8.06c.03.149.119.208.297.208h3.54c.148 0 .237-.149.178-.297l-4.55-11.777 4.044-7.852c.09-.148 0-.297-.149-.297h-3.45c-.178 0-.297.06-.386.238l-3.688 7.821V8.324c0-.178-.119-.297-.297-.297h-3.301c-.179 0-.298.119-.298.297zm12.759 0c-.03.179.059.298.237.298h3.302c.208 0 .297-.119.327-.297l.684-3.658h3.836l.654 3.658c.03.178.12.297.328.297h3.3c.18 0 .268-.119.239-.297l-4.342-19.629c-.03-.178-.15-.297-.328-.297h-3.509c-.178 0-.268.119-.327.297zm5.115-6.75l1.338-7.019h.09l1.278 7.019z" fill="#fff"/></svg>