<svg width="273" height="43" viewBox="0 0 273 43" xmlns="http://www.w3.org/2000/svg"><path d="M53.903 28.418c0 .181.121.302.303.302h3.356c.181 0 .302-.12.302-.302v-7.891c0-.121.06-.182.181-.182h4.445c.181 0 .302-.12.302-.302V17.05c0-.181-.12-.302-.302-.302h-4.445c-.12 0-.181-.06-.181-.182V11.91c0-.12.06-.18.181-.18h5.14c.181 0 .302-.122.302-.303V8.464c0-.181-.12-.302-.302-.302h-8.98c-.18 0-.302.12-.302.302zm11.67 0c0 .181.121.302.303.302h9.04c.18 0 .302-.12.302-.302v-2.963c0-.182-.121-.302-.303-.302h-5.2c-.12 0-.181-.061-.181-.182V8.464c0-.181-.121-.302-.302-.302h-3.356c-.182 0-.303.12-.303.302zm16.387.574c3.446 0 5.563-1.965 5.563-5.835V8.464c0-.181-.121-.302-.303-.302h-3.356c-.181 0-.302.12-.302.302V23.64c0 1.088-.574 1.784-1.602 1.784-.998 0-1.572-.696-1.572-1.784V8.464c0-.181-.121-.302-.303-.302H76.73c-.181 0-.302.12-.302.302v14.693c0 3.87 2.116 5.835 5.533 5.835zm8.374-3.446c.756 2.237 2.54 3.446 5.291 3.446 2.69 0 4.474-1.21 5.23-3.477.333-.937.424-1.783.424-7.074v-.907c0-.182-.121-.303-.303-.303h-4.988c-.182 0-.303.121-.303.303v2.66c0 .182.121.303.303.303h1.3c.12 0 .181.06.181.181 0 3.023-.06 3.326-.181 3.749-.182.605-.816.998-1.572.998-.756 0-1.391-.393-1.572-.998-.152-.454-.182-.726-.182-5.986 0-5.291.03-5.533.182-6.017.181-.574.786-.967 1.511-.967 1.028 0 1.633.695 1.724 2.177.03.211.15.302.332.272l3.205-.544c.181-.03.272-.182.242-.363-.272-3.326-2.207-5.11-5.533-5.11-2.751 0-4.535 1.21-5.29 3.447-.303.967-.394 1.814-.394 7.105 0 5.29.09 6.137.393 7.105zm24.64 3.446c2.69 0 4.505-1.21 5.26-3.477.333-.937.424-1.783.424-7.074s-.09-6.138-.423-7.075c-.756-2.267-2.57-3.477-5.26-3.477-2.692 0-4.506 1.21-5.261 3.477-.333.937-.424 1.784-.424 7.075 0 5.29.091 6.137.424 7.074.755 2.268 2.57 3.477 5.26 3.477zm0-3.567c-.756 0-1.27-.424-1.451-.998-.151-.484-.212-.998-.212-5.986 0-4.989.06-5.503.212-5.986.181-.575.695-.998 1.451-.998.756 0 1.27.423 1.451.998.151.483.212.997.212 5.986 0 4.988-.06 5.502-.212 5.986-.181.574-.695.998-1.45.998zm8.254.12c.756 2.238 2.54 3.447 5.29 3.447 2.691 0 4.475-1.21 5.23-3.477.333-.937.424-1.783.424-7.074v-.907c0-.182-.12-.303-.302-.303h-4.989c-.181 0-.302.121-.302.303v2.66c0 .182.12.303.302.303h1.3c.121 0 .182.06.182.181 0 3.023-.06 3.326-.182 3.749-.181.605-.816.998-1.572.998-.756 0-1.39-.393-1.572-.998-.151-.454-.181-.726-.181-5.986 0-5.291.03-5.533.181-6.017.181-.574.786-.967 1.512-.967 1.028 0 1.632.695 1.723 2.177.03.211.151.302.333.272l3.204-.544c.182-.03.272-.182.242-.363-.272-3.326-2.207-5.11-5.533-5.11-2.75 0-4.534 1.21-5.29 3.447-.303.967-.393 1.814-.393 7.105 0 5.29.09 6.137.393 7.105zm19.349 0c.756 2.238 2.54 3.447 5.29 3.447 2.691 0 4.475-1.21 5.23-3.477.333-.937.424-1.783.424-7.074v-.907c0-.182-.12-.303-.302-.303h-4.989c-.181 0-.302.121-.302.303v2.66c0 .182.121.303.302.303h1.3c.121 0 .182.06.182.181 0 3.023-.06 3.326-.182 3.749-.181.605-.816.998-1.572.998-.756 0-1.39-.393-1.572-.998-.151-.454-.181-.726-.181-5.986 0-5.291.03-5.533.181-6.017.182-.574.786-.967 1.512-.967 1.028 0 1.632.695 1.723 2.177.03.211.151.302.333.272l3.204-.544c.182-.03.272-.182.242-.363-.272-3.326-2.207-5.11-5.532-5.11-2.752 0-4.535 1.21-5.291 3.447-.303.967-.393 1.814-.393 7.105 0 5.29.09 6.137.393 7.105zm13.363 2.873c0 .181.12.302.302.302h3.356c.181 0 .302-.12.302-.302V8.464c0-.181-.12-.302-.302-.302h-3.356c-.181 0-.302.12-.302.302zm17.384-5.805c0-3.477-1.089-4.989-3.9-6.077l-1.24-.484c-1.602-.635-1.935-1.118-1.935-2.66 0-1.39.514-2.056 1.572-2.056 1.089 0 1.603.756 1.633 2.237 0 .182.151.272.333.242l3.083-.484c.182-.03.272-.15.272-.332-.15-3.235-1.844-5.11-5.442-5.11-3.658 0-5.441 1.996-5.441 5.715 0 3.295.997 4.837 3.9 5.955l1.24.484c1.541.605 1.904 1.24 1.904 3.054 0 1.874-.514 2.449-1.633 2.449-1.179 0-1.723-.756-1.784-2.661 0-.181-.12-.272-.332-.242l-3.235.514c-.181.03-.242.151-.242.333.06 3.537 1.844 5.502 5.563 5.502 4.081 0 5.684-2.177 5.684-6.38zm8.193 6.107c.181 0 .302-.12.302-.302V11.91c0-.12.06-.18.182-.18h3.235c.181 0 .302-.122.302-.303V8.464c0-.181-.121-.302-.302-.302h-10.794c-.181 0-.302.12-.302.302v2.963c0 .181.121.302.302.302h3.235c.121 0 .182.06.182.181v16.508c0 .181.12.302.302.302zm5.835-.302c0 .181.12.302.302.302h3.356c.181 0 .302-.12.302-.302V8.464c0-.181-.12-.302-.302-.302h-3.356c-.181 0-.302.12-.302.302zm6.742 0c0 .181.12.302.302.302h2.872c.182 0 .303-.12.303-.302v-12.91h.15l3.568 12.91c.06.211.182.302.424.302h3.628c.18 0 .302-.12.302-.302V8.464c0-.181-.121-.302-.302-.302h-2.873c-.181 0-.302.12-.302.302v12.91h-.151l-3.416-12.91c-.06-.212-.182-.302-.424-.302h-3.779c-.181 0-.302.12-.302.302zm14.421-2.872c.756 2.237 2.54 3.446 5.29 3.446 2.691 0 4.475-1.21 5.231-3.477.333-.937.423-1.783.423-7.074v-.907c0-.182-.12-.303-.302-.303h-4.988c-.182 0-.303.121-.303.303v2.66c0 .182.121.303.303.303h1.3c.12 0 .181.06.181.181 0 3.023-.06 3.326-.181 3.749-.182.605-.817.998-1.573.998-.755 0-1.39-.393-1.572-.998-.15-.454-.181-.726-.181-5.986 0-5.291.03-5.533.181-6.017.182-.574.786-.967 1.512-.967 1.028 0 1.633.695 1.723 2.177.03.211.151.302.333.272l3.205-.544c.18-.03.272-.182.241-.363-.272-3.326-2.207-5.11-5.532-5.11-2.751 0-4.535 1.21-5.291 3.447-.302.967-.393 1.814-.393 7.105 0 5.29.09 6.137.393 7.105z" fill="#fff"/></svg>