<svg width="273" height="35" viewBox="0 0 273 35" xmlns="http://www.w3.org/2000/svg"><path d="M98.168 23.26c.147 0 .245-.098.245-.245v-5.778c0-.098.05-.147.147-.147h.808c2.963 0 4.897-1.47 4.897-5.24 0-3.795-1.86-5.24-4.897-5.24H95.45c-.147 0-.244.098-.244.245v16.16c0 .147.097.245.244.245zm1.102-8.986h-.71c-.098 0-.147-.05-.147-.147V9.573c0-.098.05-.147.147-.147h.71c1.249 0 1.788.538 1.788 2.424 0 1.885-.54 2.424-1.788 2.424zm11.14 9.206c2.18 0 3.65-.979 4.261-2.815.27-.76.343-1.445.343-5.73s-.073-4.97-.343-5.73c-.612-1.836-2.08-2.815-4.26-2.815-2.18 0-3.648.979-4.26 2.815-.27.76-.343 1.445-.343 5.73s.073 4.97.342 5.73c.613 1.836 2.082 2.815 4.26 2.815zm0-2.889c-.611 0-1.027-.343-1.174-.808-.123-.392-.172-.808-.172-4.848s.05-4.456.172-4.848c.147-.465.563-.808 1.175-.808.612 0 1.028.343 1.175.808.123.392.172.808.172 4.848s-.05 4.456-.172 4.848c-.147.465-.563.808-1.175.808zm15.99 2.669c.122 0 .171-.122.122-.245l-2.277-7.052c1.15-.783 1.861-2.154 1.861-4.26 0-3.697-1.91-5.093-4.873-5.093h-3.966c-.147 0-.245.098-.245.245v16.16c0 .147.098.245.245.245h2.718c.147 0 .245-.098.245-.245v-6.121c0-.098.048-.147.146-.147h.93l1.886 6.317c.05.147.123.196.27.196zm-5.313-9.28h-.71c-.099 0-.147-.049-.147-.147v-4.26c0-.098.048-.147.146-.147h.71c1.25 0 1.788.538 1.788 2.277 0 1.763-.539 2.277-1.787 2.277zm12.095 9.28c.147 0 .245-.098.245-.245V9.646c0-.098.05-.147.147-.147h2.62c.147 0 .245-.098.245-.245v-2.4c0-.146-.098-.244-.245-.244h-8.741c-.147 0-.245.098-.245.245v2.4c0 .146.098.244.245.244h2.62c.098 0 .147.05.147.147v13.37c0 .146.097.244.244.244zm10.064-18.486c.196 0 .318-.074.49-.245l2.546-2.792c.098-.122.024-.244-.123-.244h-2.448c-.196 0-.27.073-.392.244l-2.008 2.792c-.098.122-.024.245.123.245zm-.906 18.706c2.791 0 4.505-1.591 4.505-4.725v-11.9c0-.147-.098-.245-.245-.245h-2.718c-.147 0-.245.098-.245.245v12.291c0 .882-.465 1.445-1.297 1.445-.808 0-1.273-.563-1.273-1.445V6.855c0-.147-.098-.245-.245-.245h-2.718c-.147 0-.245.098-.245.245v11.9c0 3.134 1.714 4.725 4.48 4.725zm6.782-2.791c.612 1.812 2.057 2.791 4.285 2.791 2.18 0 3.624-.979 4.236-2.815.27-.76.343-1.445.343-5.73V14.2c0-.146-.098-.244-.245-.244h-4.04c-.147 0-.245.098-.245.244v2.155c0 .147.098.245.245.245h1.053c.098 0 .147.049.147.147 0 2.448-.05 2.693-.147 3.036-.147.49-.661.808-1.273.808-.613 0-1.127-.318-1.274-.808-.122-.367-.147-.588-.147-4.848 0-4.285.025-4.48.147-4.873.147-.465.637-.783 1.225-.783.832 0 1.322.563 1.395 1.763.025.171.123.245.27.22l2.595-.44c.147-.025.22-.147.196-.294-.22-2.694-1.788-4.138-4.48-4.138-2.23 0-3.674.979-4.286 2.791-.245.783-.318 1.47-.318 5.754 0 4.285.073 4.97.318 5.754zm9.525 2.326c-.025.147.049.245.196.245h2.718c.171 0 .245-.098.269-.245l.563-3.012h3.159l.538 3.012c.025.147.098.245.27.245h2.718c.147 0 .22-.098.196-.245l-3.575-16.16c-.025-.147-.123-.245-.27-.245h-2.889c-.147 0-.22.098-.27.245zm4.211-5.558l1.102-5.779h.074l1.053 5.779zm7.762 5.558c0 .147.098.245.245.245h7.321c.147 0 .245-.098.245-.245v-2.4c0-.146-.098-.244-.245-.244h-4.211c-.098 0-.147-.05-.147-.147V6.854c0-.146-.098-.244-.245-.244h-2.718c-.147 0-.245.098-.245.245z" fill="#fff"/></svg>