<svg width="273" height="35" viewBox="0 0 273 35" xmlns="http://www.w3.org/2000/svg"><path d="M118.675 23.015c0 .147.098.245.245.245h2.717c.147 0 .245-.098.245-.245V18.51l.98-2.057 2.448 6.636c.025.122.098.171.245.171h2.914c.122 0 .196-.122.147-.245l-3.747-9.696 3.33-6.464c.074-.123 0-.245-.122-.245h-2.84c-.147 0-.245.049-.319.196l-3.036 6.44V6.855c0-.147-.098-.245-.245-.245h-2.717c-.147 0-.245.098-.245.245zm20.788.245c.122 0 .171-.122.122-.245l-2.277-7.052c1.15-.783 1.86-2.154 1.86-4.26 0-3.697-1.909-5.093-4.872-5.093h-3.966c-.147 0-.245.098-.245.245v16.16c0 .147.098.245.245.245h2.718c.146 0 .244-.098.244-.245v-6.121c0-.098.05-.147.147-.147h.93l1.886 6.317c.05.147.123.196.27.196zm-5.314-9.28h-.71c-.098 0-.147-.049-.147-.147v-4.26c0-.098.05-.147.147-.147h.71c1.25 0 1.788.538 1.788 2.277 0 1.763-.539 2.277-1.788 2.277zm7.052 9.035c0 .147.098.245.245.245h2.718c.147 0 .245-.098.245-.245V6.855c0-.147-.098-.245-.245-.245h-2.718c-.147 0-.245.098-.245.245zm2.35-18.241c.197 0 .32-.074.49-.245l2.547-2.792c.098-.122.024-.244-.122-.244h-2.449c-.196 0-.27.073-.392.244l-2.008 2.792c-.098.122-.024.245.123.245zm8.301 18.486c.147 0 .245-.098.245-.245V9.646c0-.098.05-.147.147-.147h2.62c.147 0 .245-.098.245-.245v-2.4c0-.146-.098-.244-.245-.244h-8.741c-.147 0-.245.098-.245.245v2.4c0 .146.098.244.245.244h2.62c.098 0 .147.05.147.147v13.37c0 .146.098.244.244.244z" fill="#fff"/></svg>