<svg width="298" height="83" viewBox="0 0 298 83" xmlns="http://www.w3.org/2000/svg"><path d="M45.425 50.563c1.24 3.835 4.425 6.018 9.323 6.018 4.897 0 8.083-2.183 9.322-6.018.354-1.18.53-2.478.53-6.195 0-3.009-.117-4.189-.53-5.487-.531-1.652-1.475-2.95-2.773-3.776v-.118c1.357-.826 2.242-2.183 2.773-3.835.354-1.18.53-2.419.53-4.484 0-2.714-.176-4.071-.53-5.251-1.24-3.835-4.425-6.018-9.322-6.018-4.898 0-8.084 2.183-9.322 6.018-.355 1.18-.532 2.537-.532 5.251 0 2.065.119 3.304.532 4.484.53 1.652 1.474 3.009 2.773 3.835v.118c-1.24.826-2.242 2.124-2.773 3.776-.413 1.298-.532 2.478-.532 5.487 0 3.717.178 5.015.532 6.195zm9.323-18.585c-1.18 0-1.889-.531-2.242-1.593-.178-.531-.236-1.239-.236-3.481s.058-2.891.235-3.422c.354-1.062 1.063-1.593 2.242-1.593 1.18 0 1.889.531 2.242 1.593.178.531.236 1.18.236 3.422s-.059 2.95-.236 3.481c-.353 1.062-1.061 1.593-2.241 1.593zm-2.242 16.52c-.178-.531-.236-1.062-.236-4.248s.058-3.658.235-4.189c.354-1.003 1.063-1.593 2.242-1.593 1.18 0 1.889.59 2.242 1.593.178.531.236 1.003.236 4.189s-.059 3.717-.236 4.248c-.353 1.003-1.061 1.593-2.241 1.593-1.18 0-1.889-.59-2.242-1.593zm20.237 6.844c-.177.413 0 .708.413.708h6.253c.472 0 .709-.177.885-.59l6.785-16.402c1.476-3.54 2.066-5.9 2.066-11.387 0-3.717-.177-5.074-.531-6.254-1.24-3.835-4.425-6.018-9.323-6.018-4.897 0-8.082 2.183-9.322 6.018-.353 1.18-.53 2.537-.53 6.254 0 3.776.236 5.428.649 6.608 1.18 3.54 3.303 5.605 7.198 5.605.826 0 1.474-.118 1.77-.295 0 .059.118.118.118.118zm6.549-21.83c-1.18 0-1.889-.531-2.243-1.593-.177-.472-.236-1.062-.236-4.248s.06-3.717.236-4.189c.354-1.062 1.063-1.593 2.242-1.593 1.18 0 1.889.531 2.243 1.593.176.472.235 1.003.235 4.189s-.059 3.776-.236 4.248c-.353 1.062-1.061 1.593-2.242 1.593zM94.1 55.46c0 .354.237.59.59.59h6.019c.353 0 .59-.236.59-.59v-6.844c0-.354-.237-.59-.59-.59H94.69c-.353 0-.59.236-.59.59zm15.459-.118c-.177.413 0 .708.413.708h6.254c.472 0 .707-.177.885-.59l6.784-16.402c1.476-3.54 2.066-5.9 2.066-11.387 0-3.717-.177-5.074-.531-6.254-1.24-3.835-4.426-6.018-9.323-6.018s-8.082 2.183-9.322 6.018c-.353 1.18-.53 2.537-.53 6.254 0 3.776.236 5.428.648 6.608 1.18 3.54 3.304 5.605 7.198 5.605.826 0 1.475-.118 1.77-.295 0 .059.119.118.119.118zm6.549-21.83c-1.18 0-1.889-.531-2.243-1.593-.176-.472-.236-1.062-.236-4.248s.06-3.717.236-4.189c.355-1.062 1.063-1.593 2.243-1.593s1.888.531 2.242 1.593c.177.472.236 1.003.236 4.189s-.06 3.776-.236 4.248c-.354 1.062-1.063 1.593-2.242 1.593zm15.28 17.051c1.24 3.894 4.543 6.018 9.263 6.018s8.083-2.065 9.263-6.018c.473-1.475.65-3.068.65-14.573s-.177-13.098-.65-14.573c-1.18-3.953-4.542-6.018-9.262-6.018-4.72 0-7.965 2.124-9.204 6.018-.472 1.475-.709 3.068-.709 14.573s.178 13.098.65 14.573zm7.022-2.006c-.178-.59-.237-1.298-.237-12.567s.06-11.977.237-12.567c.294-.944 1.061-1.534 2.242-1.534 1.18 0 1.947.59 2.242 1.534.177.59.236 1.298.236 12.567s-.06 11.977-.237 12.567c-.294.944-1.002 1.534-2.242 1.534-1.18 0-1.947-.59-2.242-1.534zm17.523 2.006c1.239 3.894 4.543 6.018 9.263 6.018s8.083-2.065 9.262-6.018c.472-1.475.65-3.068.65-14.573s-.178-13.098-.65-14.573c-1.18-3.953-4.542-6.018-9.262-6.018-4.72 0-7.965 2.124-9.204 6.018-.472 1.475-.708 3.068-.708 14.573s.177 13.098.649 14.573zm7.02-2.006c-.177-.59-.236-1.298-.236-12.567s.06-11.977.236-12.567c.296-.944 1.063-1.534 2.243-1.534s1.947.59 2.242 1.534c.177.59.236 1.298.236 12.567s-.06 11.977-.237 12.567c-.294.944-1.002 1.534-2.242 1.534-1.18 0-1.946-.59-2.242-1.534zm28.733 6.903c0 .354.237.59.59.59h6.55c.353 0 .59-.236.59-.59V44.604l2.36-4.956 5.9 15.989c.059.295.236.413.59.413h7.02c.296 0 .472-.295.355-.59l-9.028-23.364 8.024-15.576c.178-.295 0-.59-.294-.59h-6.844c-.355 0-.59.118-.767.472l-7.316 15.517V16.52c0-.354-.237-.59-.59-.59h-6.55c-.353 0-.59.236-.59.59zm50.091.59c.296 0 .413-.295.296-.59l-5.488-16.992c2.773-1.888 4.484-5.192 4.484-10.266 0-8.909-4.601-12.272-11.74-12.272h-9.559c-.353 0-.59.236-.59.59v38.94c0 .354.237.59.59.59h6.55c.353 0 .59-.236.59-.59V40.71c0-.236.118-.354.353-.354h2.243l4.542 15.222c.119.354.296.472.65.472zm-12.802-22.361h-1.712c-.236 0-.353-.118-.353-.354V23.069c0-.236.118-.354.353-.354h1.712c3.008 0 4.306 1.298 4.306 5.487 0 4.248-1.298 5.487-4.306 5.487zM245.79 55.46c0 .354.236.59.59.59h6.018c.353 0 .59-.236.59-.59v-6.844c0-.354-.237-.59-.59-.59h-6.018c-.355 0-.59.236-.59.59z" fill="#fff"/></svg>