<svg width="298" height="57" viewBox="0 0 298 57" xmlns="http://www.w3.org/2000/svg"><path d="M46.516 37.857c0 .242.161.403.403.403h2.456c.242 0 .403-.161.403-.403V26.34c0-.16.08-.241.242-.241h6.282c.241 0 .402-.161.402-.403v-2.215c0-.241-.16-.402-.402-.402H50.02c-.161 0-.242-.08-.242-.242V14.14c0-.161.08-.242.242-.242h7.248c.242 0 .403-.16.403-.402V11.28c0-.242-.161-.403-.403-.403H46.92c-.242 0-.403.161-.403.403zm14.658 0c0 .242.161.403.403.403h10.268c.242 0 .403-.161.403-.403v-2.214c0-.242-.161-.403-.403-.403h-7.167c-.162 0-.242-.08-.242-.242V11.28c0-.242-.161-.403-.403-.403h-2.456c-.242 0-.403.161-.403.403zm20.054.765c3.906 0 6.403-2.375 6.403-7.087V11.28c0-.242-.161-.403-.403-.403h-2.456c-.242 0-.403.161-.403.403v20.658c0 2.376-1.208 3.624-3.141 3.624s-3.141-1.248-3.141-3.624V11.28c0-.242-.161-.403-.403-.403h-2.456c-.242 0-.403.161-.403.403v20.255c0 4.712 2.497 7.087 6.403 7.087zm11.275-4.067c.846 2.618 2.9 4.067 6 4.067s5.195-1.45 6-4.067c.403-1.208.524-2.214.524-9.543v-1.168c0-.242-.161-.403-.403-.403h-5.678c-.242 0-.403.161-.403.403v2.134c0 .242.161.403.403.403h2.698c.161 0 .242.08.242.241 0 5.598-.121 6.242-.363 7.007-.402 1.248-1.49 1.933-2.94 1.933-1.449 0-2.536-.685-2.939-1.933-.282-.805-.362-1.41-.362-9.06 0-7.651.08-8.255.362-9.06.403-1.25 1.45-1.934 2.9-1.934 1.973 0 3.02 1.249 3.301 3.504.04.241.202.362.484.322l2.255-.443c.241-.04.322-.242.282-.483-.443-3.826-2.578-5.96-6.363-5.96-3.1 0-5.154 1.45-6 4.067-.403 1.208-.523 2.215-.523 9.987s.12 8.778.523 9.986zm30.443 4.067c3.1 0 5.195-1.45 6-4.067.403-1.208.524-2.214.524-9.986s-.121-8.779-.524-9.987c-.805-2.617-2.9-4.067-6-4.067s-5.154 1.45-6 4.067c-.403 1.208-.523 2.215-.523 9.987s.12 8.778.523 9.986c.846 2.618 2.9 4.067 6 4.067zm0-3.06c-1.45 0-2.456-.685-2.859-1.933-.282-.805-.362-1.41-.362-9.06 0-7.651.08-8.255.362-9.06.403-1.25 1.41-1.934 2.86-1.934 1.449 0 2.496.685 2.899 1.933.241.806.322 1.41.322 9.06 0 7.652-.08 8.256-.322 9.061-.403 1.248-1.45 1.933-2.9 1.933zm10.994-1.007c.845 2.618 2.899 4.067 6 4.067 3.1 0 5.194-1.45 6-4.067.402-1.208.523-2.214.523-9.543v-1.168c0-.242-.161-.403-.403-.403h-5.677c-.242 0-.403.161-.403.403v2.134c0 .242.16.403.403.403h2.698c.16 0 .241.08.241.241 0 5.598-.12 6.242-.362 7.007-.403 1.248-1.49 1.933-2.94 1.933s-2.537-.685-2.94-1.933c-.281-.805-.362-1.41-.362-9.06 0-7.651.08-8.255.362-9.06.403-1.25 1.45-1.934 2.9-1.934 1.973 0 3.02 1.249 3.302 3.504.04.241.201.362.483.322l2.255-.443c.242-.04.322-.242.282-.483-.443-3.826-2.577-5.96-6.362-5.96-3.101 0-5.155 1.45-6 4.067-.403 1.208-.524 2.215-.524 9.987s.12 8.778.524 9.986zm24.443 0c.845 2.618 2.899 4.067 6 4.067 3.1 0 5.194-1.45 6-4.067.402-1.208.523-2.214.523-9.543v-1.168c0-.242-.16-.403-.403-.403h-5.677c-.242 0-.403.161-.403.403v2.134c0 .242.161.403.403.403h2.698c.16 0 .241.08.241.241 0 5.598-.12 6.242-.362 7.007-.403 1.248-1.49 1.933-2.94 1.933s-2.537-.685-2.94-1.933c-.281-.805-.362-1.41-.362-9.06 0-7.651.08-8.255.363-9.06.402-1.25 1.45-1.934 2.899-1.934 1.973 0 3.02 1.249 3.302 3.504.04.241.201.362.483.322l2.255-.443c.242-.04.322-.242.282-.483-.443-3.826-2.577-5.96-6.362-5.96-3.101 0-5.155 1.45-6 4.067-.403 1.208-.524 2.215-.524 9.987s.12 8.778.524 9.986zm16.711 3.302c0 .242.161.403.403.403h2.456c.242 0 .403-.161.403-.403V11.28c0-.242-.161-.403-.403-.403h-2.456c-.242 0-.403.161-.403.403zm19.933-7.329c0-4.55-1.248-6.362-4.752-7.771l-1.65-.645c-2.215-.845-2.86-1.812-2.86-4.63 0-2.78.967-3.987 2.98-3.987 2.094 0 2.98 1.329 3.06 4.027 0 .241.202.402.443.322l2.256-.363c.241-.04.362-.201.362-.443-.201-4.268-2.094-6.523-6.201-6.523-4.108 0-6.121 2.416-6.121 7.087 0 4.228 1.047 6.08 4.792 7.53l1.65.645c2.175.845 2.78 2.013 2.78 5.154 0 3.705-.967 4.712-3.061 4.712s-3.181-1.209-3.342-4.591c0-.242-.162-.403-.443-.363l-2.376.443c-.242.04-.322.202-.322.443.201 4.712 2.295 7.047 6.443 7.047 4.63 0 6.362-2.577 6.362-8.094zm9.705 7.732c.241 0 .402-.161.402-.403V14.14c0-.161.081-.242.242-.242h4.51c.242 0 .403-.16.403-.402V11.28c0-.242-.161-.403-.403-.403h-12.765c-.242 0-.403.161-.403.403v2.215c0 .241.161.402.403.402h4.51c.161 0 .242.081.242.242v23.718c0 .242.16.403.402.403zm8.617-.403c0 .242.161.403.403.403h2.456c.242 0 .403-.161.403-.403V11.28c0-.242-.161-.403-.403-.403h-2.456c-.242 0-.403.161-.403.403zm8.094 0c0 .242.161.403.403.403h2.134c.242 0 .403-.161.403-.403V17.32h.201l6.242 20.537c.08.282.282.403.604.403h2.859c.242 0 .403-.161.403-.403V11.28c0-.242-.161-.403-.403-.403h-2.134c-.242 0-.403.161-.403.403v20.537h-.161l-6.12-20.537c-.081-.282-.283-.403-.605-.403h-3.02c-.242 0-.403.161-.403.403zm18.161-3.302c.846 2.618 2.9 4.067 6 4.067 3.101 0 5.195-1.45 6-4.067.403-1.208.524-2.214.524-9.543v-1.168c0-.242-.161-.403-.403-.403h-5.678c-.241 0-.402.161-.402.403v2.134c0 .242.16.403.402.403h2.698c.161 0 .242.08.242.241 0 5.598-.12 6.242-.362 7.007-.403 1.248-1.49 1.933-2.94 1.933s-2.537-.685-2.94-1.933c-.282-.805-.362-1.41-.362-9.06 0-7.651.08-8.255.362-9.06.403-1.25 1.45-1.934 2.9-1.934 1.973 0 3.02 1.249 3.302 3.504.04.241.201.362.483.322l2.255-.443c.242-.04.322-.242.282-.483-.443-3.826-2.577-5.96-6.363-5.96-3.1 0-5.154 1.45-6 4.067-.402 1.208-.523 2.215-.523 9.987s.12 8.778.523 9.986z" fill="#e22b11"/></svg>