<svg width="298" height="30" viewBox="0 0 298 30" xmlns="http://www.w3.org/2000/svg"><path d="M44.505 20.05c.127 0 .211-.084.211-.211v-6.753c0-2.406-.844-3.335-2.87-3.335-1.076 0-2.004.38-2.595.929-.106.106-.106.211-.043.338l.401.823c.064.147.211.169.338.084.485-.38.97-.675 1.71-.675 1.097 0 1.498.57 1.498 1.92v.823c0 .085-.042.127-.127.127h-1.203c-1.688 0-2.975.844-2.975 3.123 0 2.258 1.181 2.997 2.384 2.997.908 0 1.625-.485 1.9-1.266h.02v.865c0 .127.085.211.212.211zm-2.827-1.203c-.802 0-1.267-.549-1.267-1.646 0-1.118.465-1.71 1.668-1.71h.95c.084 0 .126.043.126.127v1.393c0 1.097-.612 1.836-1.477 1.836zm.337-10.552c.169 0 .232-.042.359-.21l1.836-2.596c.063-.106.021-.212-.106-.212H42.86c-.168 0-.253.064-.337.212l-1.456 2.595c-.064.127-.022.211.105.211zM61.093 20.05c.127 0 .21-.084.21-.211v-6.985c0-2.11-.843-3.103-2.51-3.103-1.034 0-1.73.465-2.11 1.203h-.022c-.338-.823-1.034-1.203-2.026-1.203-.992 0-1.604.528-1.92 1.203h-.021v-.802c0-.126-.085-.21-.211-.21H51.28c-.127 0-.211.084-.211.21v9.687c0 .127.084.211.21.211h1.204c.126 0 .21-.084.21-.211v-6.732c0-1.245.507-1.836 1.351-1.836.908 0 1.33.633 1.33 1.836v6.732c0 .127.084.211.21.211h1.204c.126 0 .21-.084.21-.211v-6.774c0-1.203.507-1.794 1.33-1.794.908 0 1.35.612 1.35 1.836v6.732c0 .127.085.211.212.211zm7.85 0c.127 0 .211-.084.211-.211v-6.753c0-2.406-.844-3.335-2.87-3.335-1.076 0-2.004.38-2.595.929-.106.106-.106.211-.043.338l.401.823c.064.147.211.169.338.084.485-.38.97-.675 1.71-.675 1.097 0 1.498.57 1.498 1.92v.823c0 .085-.042.127-.127.127h-1.203c-1.688 0-2.975.844-2.975 3.123 0 2.258 1.181 2.997 2.384 2.997.908 0 1.625-.485 1.9-1.266h.02v.865c0 .127.085.211.212.211zm-2.827-1.203c-.802 0-1.267-.549-1.267-1.646 0-1.118.465-1.71 1.668-1.71h.95c.084 0 .126.043.126.127v1.393c0 1.097-.612 1.836-1.477 1.836zm11.1 1.203c.127 0 .211-.084.211-.211v-6.985c0-2.132-.802-3.103-2.364-3.103-.991 0-1.603.528-1.92 1.203h-.021v-.802c0-.126-.084-.21-.211-.21h-1.203c-.127 0-.211.084-.211.21v9.687c0 .127.084.211.211.211h1.203c.127 0 .21-.084.21-.211l.001-6.732c0-1.245.506-1.836 1.35-1.836.908 0 1.33.633 1.33 1.836v6.732c0 .127.085.211.211.211zm8.294 0c.126 0 .21-.084.21-.211v-6.985c0-2.132-.801-3.103-2.363-3.103-.992 0-1.604.528-1.92 1.203h-.021v-.802c0-.126-.085-.21-.211-.21h-1.203c-.127 0-.211.084-.211.21v9.687c0 .127.084.211.21.211h1.204c.126 0 .21-.084.21-.211v-6.732c0-1.245.507-1.836 1.351-1.836.908 0 1.33.633 1.33 1.836v6.732c0 .127.084.211.21.211zm16.608 0c.127 0 .211-.084.211-.211v-6.985c0-2.11-.844-3.103-2.511-3.103-1.034 0-1.73.465-2.11 1.203h-.021c-.338-.823-1.035-1.203-2.026-1.203-.992 0-1.604.528-1.92 1.203h-.022v-.802c0-.126-.084-.21-.211-.21h-1.203c-.126 0-.21.084-.21.21v9.687c0 .127.084.211.21.211h1.203c.127 0 .211-.084.211-.211v-6.732c0-1.245.507-1.836 1.35-1.836.908 0 1.33.633 1.33 1.836v6.732c0 .127.085.211.211.211h1.203c.127 0 .211-.084.211-.211v-6.774c0-1.203.507-1.794 1.33-1.794.907 0 1.35.612 1.35 1.836v6.732c0 .127.085.211.211.211zm2.406-.211c0 .127.085.211.211.211h1.372c.127 0 .21-.084.21-.211v-1.773c0-.126-.083-.21-.21-.21h-1.372c-.126 0-.21.084-.21.21zm7.049.211c.147 0 .21-.063.253-.211l2.448-9.687c.021-.126-.042-.21-.169-.21h-1.203c-.147 0-.21.084-.232.21l-1.562 6.922h-.042l-1.583-6.922c-.02-.126-.084-.21-.21-.21h-1.267c-.126 0-.19.084-.147.21l2.448 9.687c.042.148.105.211.232.211zm3.397-.211c0 .127.085.211.211.211h1.372c.127 0 .211-.084.211-.211v-1.773c0-.126-.084-.21-.21-.21h-1.373c-.126 0-.21.084-.21.21zm7.619 0c0 .127.084.211.21.211h5.509c.127 0 .21-.084.21-.211v-1.097c0-.127-.083-.211-.21-.211h-3.946v-.022l3.292-6.056c.57-1.077.865-1.879.865-3.398 0-.823-.063-1.266-.19-1.667-.401-1.203-1.308-1.878-2.786-1.878-1.456 0-2.384.696-2.785 1.899-.127.4-.17.823-.17 1.794 0 .147.064.232.19.253l1.14.127c.148.02.254-.064.254-.211 0-1.013.02-1.246.105-1.478.19-.548.591-.844 1.245-.844.654 0 1.077.296 1.266.844.085.232.106.465.106 1.161 0 1.16-.19 1.794-.612 2.575l-3.588 6.753a.651.651 0 00-.105.38zm14.034.211c.126 0 .21-.084.21-.211v-8.484c0-.084.043-.126.127-.126h1.267c.126 0 .21-.085.21-.211v-.866c0-.126-.084-.21-.21-.21h-1.267c-.084 0-.126-.043-.126-.127V8.19c0-.697.253-.95.907-.95h.486c.126 0 .21-.084.21-.21V5.91c0-.126-.084-.21-.21-.21h-.38c-1.9 0-2.638 1.034-2.638 2.785v1.33c0 .084-.042.126-.127.126h-.612c-.126 0-.21.085-.21.211v.866c0 .126.084.21.21.21h.612c.085 0 .127.043.127.127v8.484c0 .127.084.211.21.211zm8.969 0c.126 0 .21-.084.21-.211v-9.687c0-.126-.084-.21-.21-.21h-1.203c-.127 0-.211.084-.211.21v6.732c0 1.224-.486 1.836-1.309 1.836-.907 0-1.308-.633-1.308-1.836v-6.732c0-.126-.084-.21-.211-.21h-1.203c-.127 0-.211.084-.211.21v6.965c0 2.152.78 3.123 2.321 3.123 1.013 0 1.604-.528 1.9-1.203h.02v.802c0 .127.085.211.212.211zm5.276.106c.126 0 .21-.085.21-.212v-1.097c0-.127-.084-.21-.21-.232l-.106-.021c-.633-.106-.886-.443-.886-1.16V5.91c0-.127-.085-.211-.211-.211h-1.203c-.127 0-.211.084-.211.21v11.46c0 1.941.654 2.701 2.511 2.764zm4.621 0c.127 0 .211-.085.211-.212v-1.097c0-.127-.084-.21-.21-.232l-.106-.021c-.633-.106-.887-.443-.887-1.16V5.91c0-.127-.084-.211-.21-.211h-1.203c-.127 0-.211.084-.211.21v11.46c0 1.941.654 2.701 2.51 2.764zm4.77.084c1.393 0 2.384-.696 2.785-1.942.17-.548.211-1.013.211-3.313 0-2.3-.042-2.764-.21-3.313-.402-1.224-1.393-1.92-2.786-1.92s-2.385.696-2.786 1.92c-.169.549-.21 1.013-.21 3.313 0 2.3.041 2.765.21 3.313.401 1.246 1.393 1.942 2.786 1.942zm0-1.52c-.633 0-1.055-.316-1.245-.886-.106-.359-.127-.633-.127-2.849 0-2.195.021-2.469.127-2.828.19-.57.612-.886 1.245-.886.633 0 1.055.316 1.245.886.105.359.127.633.127 2.828 0 2.216-.022 2.49-.127 2.85-.19.569-.612.885-1.245.885zm6.584 1.33c.127 0 .211-.084.211-.211v-6.247c0-1.477.718-2.173 1.71-2.173h.316c.127 0 .211-.043.253-.19l.296-1.203c.042-.127 0-.211-.127-.232a2.126 2.126 0 00-.4-.043c-1.035 0-1.69.57-2.027 1.351h-.02v-.95c0-.126-.085-.21-.212-.21h-1.203c-.126 0-.21.084-.21.21v9.687c0 .127.084.211.21.211zm8.948-12.24c.148-.042.19-.127.148-.253l-.253-.76c-.043-.127-.106-.169-.233-.127l-1.33.443-.611-1.202c-.085-.148-.169-.211-.296-.211h-1.245c-.126 0-.169.084-.105.21l.865 1.647-1.224.4c-.148.043-.19.127-.148.254l.254.738c.042.127.105.17.232.127l1.435-.464.95 1.815h-.022c-.19-.127-.59-.232-1.013-.232-1.203 0-2.047.654-2.427 1.815-.168.548-.253 1.097-.253 3.207 0 2.068.063 2.533.232 3.081.38 1.246 1.393 1.942 2.786 1.942s2.385-.696 2.786-1.942c.168-.548.21-1.013.21-3.165 0-2.912-.19-3.82-1.244-5.846l-.591-1.118zm-2.258 10.91c-.633 0-1.055-.316-1.245-.886-.106-.359-.127-.633-.127-2.617 0-2.026.021-2.279.127-2.638.19-.57.612-.886 1.245-.886.612 0 1.034.295 1.224.886.105.36.148.676.148 2.638 0 1.984-.021 2.258-.127 2.617-.19.57-.612.886-1.245.886zm10.89 1.33c.126 0 .21-.084.21-.211v-6.985c0-2.132-.801-3.103-2.363-3.103-.992 0-1.604.528-1.92 1.203h-.022v-.802c0-.126-.084-.21-.21-.21h-1.204c-.126 0-.21.084-.21.21v9.687c0 .127.084.211.21.211h1.203c.127 0 .211-.084.211-.211v-6.732c0-1.245.507-1.836 1.35-1.836.908 0 1.33.633 1.33 1.836v6.732c0 .127.085.211.212.211zm7.85 0c.127 0 .211-.084.211-.211v-6.753c0-2.406-.844-3.335-2.87-3.335-1.076 0-2.005.38-2.596.929-.105.106-.105.211-.042.338l.4.823c.064.147.212.169.339.084.485-.38.97-.675 1.709-.675 1.097 0 1.498.57 1.498 1.92v.823c0 .085-.042.127-.126.127h-1.203c-1.688 0-2.976.844-2.976 3.123 0 2.258 1.182 2.997 2.385 2.997.907 0 1.625-.485 1.9-1.266h.02v.865c0 .127.085.211.211.211zm-2.828-1.203c-.802 0-1.266-.549-1.266-1.646 0-1.118.464-1.71 1.667-1.71h.95c.084 0 .126.043.126.127v1.393c0 1.097-.612 1.836-1.477 1.836zm12.114 1.393c1.392 0 2.384-.696 2.785-1.942.17-.548.211-1.013.211-3.313 0-2.3-.042-2.764-.21-3.313-.402-1.224-1.394-1.92-2.786-1.92-1.393 0-2.385.696-2.786 1.92-.169.549-.211 1.013-.211 3.313 0 2.3.042 2.765.21 3.313.402 1.246 1.394 1.942 2.787 1.942zm0-1.52c-.634 0-1.056-.316-1.246-.886-.105-.359-.126-.633-.126-2.849 0-2.195.02-2.469.126-2.828.19-.57.612-.886 1.246-.886.633 0 1.055.316 1.245.886.105.359.126.633.126 2.828 0 2.216-.02 2.49-.126 2.85-.19.569-.612.885-1.245.885zm7.871 5.319c1.836 0 3.018-1.119 3.018-3.25V10.152c0-.126-.084-.21-.211-.21h-1.203c-.127 0-.211.084-.211.21v.845h-.021c-.253-.697-.802-1.246-1.878-1.246-1.161 0-1.857.591-2.195 1.689-.169.527-.253 1.14-.253 3.46 0 2.322.084 2.913.253 3.462.338 1.097 1.034 1.646 2.195 1.646 1.076 0 1.625-.528 1.878-1.224h.021v2.173c0 1.056-.528 1.541-1.35 1.541-.613 0-1.077-.317-1.309-.907-.063-.127-.148-.148-.274-.106l-1.119.401c-.105.042-.126.148-.105.253.316 1.119 1.371 1.9 2.764 1.9zm.042-5.53c-.654 0-1.034-.316-1.224-.886-.084-.316-.147-.633-.147-2.722 0-2.09.063-2.427.147-2.744.19-.57.57-.886 1.224-.886.612 0 1.013.338 1.203.886.106.317.148.654.148 2.744 0 2.089-.042 2.406-.148 2.722-.19.57-.59.886-1.203.886zm9.307 1.33c0 .127.085.211.211.211h5.508c.127 0 .211-.084.211-.211v-1.097c0-.127-.084-.211-.21-.211h-3.947v-.022l3.292-6.056c.57-1.077.865-1.879.865-3.398 0-.823-.063-1.266-.19-1.667-.4-1.203-1.308-1.878-2.785-1.878-1.457 0-2.385.696-2.786 1.899-.127.4-.169.823-.169 1.794 0 .147.063.232.19.253l1.14.127c.147.02.253-.064.253-.211 0-1.013.021-1.246.105-1.478.19-.548.591-.844 1.246-.844.654 0 1.076.296 1.266.844.084.232.105.465.105 1.161 0 1.16-.19 1.794-.612 2.575l-3.587 6.753a.651.651 0 00-.106.38zm15.849.4c1.097 0 1.836-.527 2.195-1.645.19-.591.253-1.119.253-3.609s-.063-3.018-.253-3.587c-.36-1.119-1.098-1.647-2.195-1.647-1.097 0-1.646.528-1.92 1.224h-.022V5.911c0-.127-.084-.211-.21-.211h-1.204c-.126 0-.21.084-.21.21V19.84c0 .127.084.211.21.211h1.203c.127 0 .211-.084.211-.211v-.823h.021c.275.675.824 1.224 1.92 1.224zm-.549-1.519c-.633 0-1.055-.337-1.245-.886-.105-.359-.148-.633-.148-2.849 0-2.195.043-2.469.148-2.828.19-.548.612-.886 1.245-.886.633 0 1.034.316 1.224.886.106.359.148.633.148 2.828 0 2.216-.042 2.49-.148 2.85-.19.569-.59.885-1.224.885zm9.982-11.079c.127 0 .211-.084.211-.211V5.91c0-.126-.084-.21-.21-.21h-1.077c-.127 0-.211.084-.211.21v1.52c0 .127.084.211.211.211zm-3.06 0c.127 0 .211-.084.211-.211V5.91c0-.126-.084-.21-.21-.21h-1.077c-.127 0-.211.084-.211.21v1.52c0 .127.084.211.21.211zm.992 12.599c1.393 0 2.385-.696 2.786-1.942.169-.548.21-1.013.21-3.313 0-2.3-.041-2.764-.21-3.313-.401-1.224-1.393-1.92-2.786-1.92s-2.385.696-2.786 1.92c-.168.549-.21 1.013-.21 3.313 0 2.3.042 2.765.21 3.313.401 1.246 1.393 1.942 2.786 1.942zm0-1.52c-.633 0-1.055-.316-1.245-.886-.106-.359-.127-.633-.127-2.849 0-2.195.021-2.469.127-2.828.19-.57.612-.886 1.245-.886.633 0 1.055.316 1.245.886.106.359.127.633.127 2.828 0 2.216-.021 2.49-.127 2.85-.19.569-.612.885-1.245.885zm6.584 1.33c.127 0 .211-.084.211-.211v-6.247c0-1.477.718-2.173 1.71-2.173h.316c.127 0 .211-.043.254-.19l.295-1.203c.042-.127 0-.211-.127-.232a2.126 2.126 0 00-.4-.043c-1.035 0-1.689.57-2.026 1.351h-.022v-.95c0-.126-.084-.21-.21-.21h-1.203c-.127 0-.212.084-.212.21v9.687c0 .127.085.211.212.211zm10.067 0c.126 0 .21-.084.21-.211v-6.985c0-2.132-.801-3.103-2.363-3.103-.992 0-1.604.528-1.92 1.203h-.021v-.802c0-.126-.085-.21-.211-.21h-1.203c-.127 0-.211.084-.211.21v9.687c0 .127.084.211.21.211h1.204c.126 0 .21-.084.21-.211v-6.732c0-1.245.507-1.836 1.351-1.836.908 0 1.33.633 1.33 1.836v6.732c0 .127.084.211.21.211z" fill="#fff"/></svg>