<svg width="298" height="111" viewBox="0 0 298 111" xmlns="http://www.w3.org/2000/svg"><path d="M13.277 74.389c0 .474.317.791.792.791h7.676c.475 0 .792-.317.792-.791V43.287h.474l5.857 21.526c.158.475.474.791 1.028.791h4.353c.554 0 .87-.316 1.029-.791l5.856-21.526h.475V74.39c0 .474.317.791.791.791h7.677c.475 0 .791-.317.791-.791V22.157c0-.475-.316-.791-.791-.791h-8.468c-.712 0-1.108.237-1.266.791L32.429 50.41h-.317l-8.23-28.253c-.158-.554-.554-.791-1.266-.791h-8.547c-.475 0-.792.316-.792.791zm41.944 0c-.08.474.158.791.633.791h8.784c.554 0 .792-.317.87-.791l1.821-9.734h10.209l1.74 9.734c.08.474.317.791.871.791h8.785c.475 0 .712-.317.633-.791L78.013 22.157c-.08-.475-.396-.791-.87-.791h-9.34c-.474 0-.711.316-.87.791zm13.612-17.965l3.56-18.677h.238l3.403 18.677zM93.92 74.39c0 .474.316.791.79.791h23.663c.475 0 .792-.317.792-.791v-7.756c0-.475-.317-.791-.792-.791h-13.611c-.317 0-.475-.159-.475-.475v-43.21c0-.475-.317-.791-.792-.791h-8.784c-.475 0-.791.316-.791.791zm30.468 0c0 .474.316.791.791.791h23.663c.475 0 .791-.317.791-.791v-7.756c0-.475-.316-.791-.791-.791H135.23c-.317 0-.475-.159-.475-.475v-43.21c0-.475-.316-.791-.791-.791h-8.785c-.475 0-.791.316-.791.791zm42.656 1.503c7.043 0 11.791-3.165 13.77-9.1.87-2.454 1.108-4.67 1.108-18.52 0-13.848-.238-16.064-1.108-18.518-1.979-5.935-6.727-9.1-13.77-9.1-7.044 0-11.792 3.165-13.77 9.1-.871 2.454-1.108 4.67-1.108 18.519 0 13.85.237 16.065 1.107 18.518 1.979 5.936 6.727 9.101 13.77 9.101zm0-9.338c-1.979 0-3.324-1.108-3.8-2.612-.395-1.266-.553-2.611-.553-15.67 0-13.057.158-14.402.554-15.669.475-1.503 1.82-2.611 3.799-2.611 1.978 0 3.323 1.108 3.798 2.611.396 1.267.554 2.612.554 15.67s-.158 14.403-.554 15.67c-.475 1.503-1.82 2.61-3.798 2.61zm51.677 8.626c.396 0 .554-.396.396-.791l-7.36-22.792c3.72-2.533 6.014-6.964 6.014-13.77 0-11.95-6.172-16.461-15.748-16.461h-12.82c-.475 0-.792.316-.792.791V74.39c0 .474.317.791.791.791h8.785c.475 0 .791-.317.791-.791V54.604c0-.317.158-.475.475-.475h3.007l6.094 20.418c.158.475.396.633.87.633zm-17.173-29.994h-2.295c-.317 0-.475-.158-.475-.474v-13.77c0-.317.158-.475.475-.475h2.295c4.036 0 5.777 1.74 5.777 7.36 0 5.698-1.74 7.36-5.777 7.36zm22.871 21.764c1.9 5.777 6.252 8.942 13.374 8.942 8.627 0 13.691-4.59 14.166-13.612 0-.474-.158-.87-.712-.95l-8.31-1.424c-.474-.079-.87.159-.87.713-.158 4.273-1.504 5.935-4.115 5.935-1.9 0-3.008-.791-3.561-2.453-.317-1.187-.475-2.137-.475-15.828 0-13.691.158-14.64.475-15.828.553-1.662 1.661-2.453 3.56-2.453 2.612 0 3.958 1.662 4.116 5.935 0 .554.396.792.87.713l8.31-1.425c.554-.08.712-.475.712-.95-.475-9.021-5.54-13.611-14.166-13.611-7.122 0-11.475 3.165-13.374 8.942-.712 2.295-1.029 4.749-1.029 18.677s.317 16.382 1.029 18.677zm28.886 7.439c-.08.474.158.791.633.791h8.784c.554 0 .791-.317.87-.791l1.82-9.734h10.21l1.74 9.734c.08.474.317.791.871.791h8.785c.474 0 .712-.317.633-.791l-11.554-52.232c-.08-.475-.396-.791-.871-.791h-9.338c-.475 0-.713.316-.87.791zm13.611-17.965l3.562-18.677h.237l3.403 18.677z" fill="#fff"/></svg>