<svg width="298" height="83" viewBox="0 0 298 83" xmlns="http://www.w3.org/2000/svg"><path d="M5.689 49.914c1.416 4.307 4.661 6.667 9.971 6.667 6.431 0 10.207-3.422 10.561-10.148 0-.354-.118-.649-.531-.708l-6.195-1.062c-.354-.059-.649.118-.649.531-.118 3.186-1.121 4.425-3.068 4.425-1.416 0-2.242-.59-2.655-1.829-.236-.885-.354-1.593-.354-11.8s.118-10.915.354-11.8c.413-1.239 1.239-1.829 2.655-1.829 1.947 0 2.95 1.239 3.068 4.425 0 .413.295.59.649.531l6.195-1.062c.413-.059.531-.354.531-.708-.354-6.726-4.13-10.148-10.561-10.148-5.31 0-8.555 2.36-9.971 6.667-.531 1.711-.767 3.54-.767 13.924s.236 12.213.767 13.924zm34.692 6.667c5.251 0 8.791-2.36 10.266-6.785.649-1.829.826-3.481.826-13.806s-.177-11.977-.826-13.806c-1.475-4.425-5.015-6.785-10.266-6.785s-8.791 2.36-10.266 6.785c-.649 1.829-.826 3.481-.826 13.806s.177 11.977.826 13.806c1.475 4.425 5.015 6.785 10.266 6.785zm0-6.962c-1.475 0-2.478-.826-2.832-1.947-.295-.944-.413-1.947-.413-11.682s.118-10.738.413-11.682c.354-1.121 1.357-1.947 2.832-1.947 1.475 0 2.478.826 2.832 1.947.295.944.413 1.947.413 11.682s-.118 10.738-.413 11.682c-.354 1.121-1.357 1.947-2.832 1.947zm36.698-5.487c0-6.785-2.124-9.735-7.611-11.859l-2.419-.944c-3.127-1.239-3.776-2.183-3.776-5.192 0-2.714 1.003-4.012 3.068-4.012 2.124 0 3.127 1.475 3.186 4.366 0 .354.295.531.649.472l6.018-.944c.354-.059.531-.295.531-.649-.295-6.313-3.599-9.971-10.62-9.971-7.139 0-10.62 3.894-10.62 11.151 0 6.431 1.947 9.44 7.611 11.623l2.419.944c3.009 1.18 3.717 2.419 3.717 5.959 0 3.658-1.003 4.779-3.186 4.779-2.301 0-3.363-1.475-3.481-5.192 0-.354-.236-.531-.649-.472l-6.313 1.003c-.354.059-.472.295-.472.649.118 6.903 3.599 10.738 10.856 10.738 7.965 0 11.092-4.248 11.092-12.449zM93.068 56.05c.354 0 .59-.236.59-.59V23.246c0-.236.118-.354.354-.354h6.313c.354 0 .59-.236.59-.59V16.52c0-.354-.236-.59-.59-.59H79.262c-.354 0-.59.236-.59.59v5.782c0 .354.236.59.59.59h6.313c.236 0 .354.118.354.354V55.46c0 .354.236.59.59.59zm6.254-.59c-.059.354.118.59.472.59h6.549c.413 0 .59-.236.649-.59l1.357-7.257h7.611l1.298 7.257c.059.354.236.59.649.59h6.549c.354 0 .531-.236.472-.59l-8.614-38.94c-.059-.354-.295-.59-.649-.59h-6.962c-.354 0-.531.236-.649.59zm10.148-13.393l2.655-13.924h.177l2.537 13.924zm30.208 13.393c0 .354.236.59.59.59h10.148c5.546 0 8.791-2.124 10.266-6.667.708-2.242 1.062-4.956 1.062-13.393 0-8.437-.354-11.151-1.062-13.393-1.475-4.543-4.72-6.667-10.266-6.667h-10.148c-.354 0-.59.236-.59.59zm7.729-6.726V23.246c0-.236.118-.354.354-.354h1.888c1.947 0 3.009.708 3.599 2.478.472 1.239.649 2.95.649 10.62 0 7.67-.177 9.381-.649 10.62-.59 1.77-1.652 2.478-3.599 2.478h-1.888c-.236 0-.354-.118-.354-.354zm19.175 6.726c0 .354.236.59.59.59h17.523c.354 0 .59-.236.59-.59v-5.782c0-.354-.236-.59-.59-.59h-10.03c-.236 0-.354-.118-.354-.354v-9.086c0-.236.118-.354.354-.354h8.673c.354 0 .59-.236.59-.59v-5.782c0-.354-.236-.59-.59-.59h-8.673c-.236 0-.354-.118-.354-.354v-8.732c0-.236.118-.354.354-.354h10.03c.354 0 .59-.236.59-.59V16.52c0-.354-.236-.59-.59-.59h-17.523c-.354 0-.59.236-.59.59zm23.01 0c0 .354.236.59.59.59h17.641c.354 0 .59-.236.59-.59v-5.782c0-.354-.236-.59-.59-.59h-10.148c-.236 0-.354-.118-.354-.354V16.52c0-.354-.236-.59-.59-.59h-6.549c-.354 0-.59.236-.59.59zm54.988-11.328c0-6.785-2.124-9.735-7.611-11.859l-2.419-.944c-3.127-1.239-3.776-2.183-3.776-5.192 0-2.714 1.003-4.012 3.068-4.012 2.124 0 3.127 1.475 3.186 4.366 0 .354.295.531.649.472l6.018-.944c.354-.059.531-.295.531-.649-.295-6.313-3.599-9.971-10.62-9.971-7.139 0-10.62 3.894-10.62 11.151 0 6.431 1.947 9.44 7.611 11.623l2.419.944c3.009 1.18 3.717 2.419 3.717 5.959 0 3.658-1.003 4.779-3.186 4.779-2.301 0-3.363-1.475-3.481-5.192 0-.354-.236-.531-.649-.472l-6.313 1.003c-.354.059-.472.295-.472.649.118 6.903 3.599 10.738 10.856 10.738 7.965 0 11.092-4.248 11.092-12.449zm14.691 12.449c5.251 0 8.791-2.36 10.266-6.785.649-1.829.826-3.481.826-13.806s-.177-11.977-.826-13.806c-1.475-4.425-5.015-6.785-10.266-6.785s-8.791 2.36-10.266 6.785c-.649 1.829-.826 3.481-.826 13.806s.177 11.977.826 13.806c1.475 4.425 5.015 6.785 10.266 6.785zm0-6.962c-1.475 0-2.478-.826-2.832-1.947-.295-.944-.413-1.947-.413-11.682s.118-10.738.413-11.682c.354-1.121 1.357-1.947 2.832-1.947 1.475 0 2.478.826 2.832 1.947.295.944.413 1.947.413 11.682s-.118 10.738-.413 11.682c-.354 1.121-1.357 1.947-2.832 1.947zm15.93 5.841c0 .354.236.59.59.59h17.641c.354 0 .59-.236.59-.59v-5.782c0-.354-.236-.59-.59-.59h-10.148c-.236 0-.354-.118-.354-.354V16.52c0-.354-.236-.59-.59-.59h-6.549c-.354 0-.59.236-.59.59z" fill="#e22b11"/></svg>