<svg width="1379.921" height="76" viewBox="0 0 1379.921 76" xmlns="http://www.w3.org/2000/svg"><path d="M5.179 45.541c1.292 3.93 4.253 6.084 9.098 6.084 5.868 0 9.313-3.123 9.636-9.26 0-.323-.107-.592-.484-.646l-5.653-.97c-.323-.053-.592.109-.592.485-.108 2.907-1.023 4.038-2.8 4.038-1.292 0-2.045-.538-2.422-1.669-.215-.807-.323-1.453-.323-10.767 0-9.313.108-9.96.323-10.767.377-1.13 1.13-1.669 2.422-1.669 1.777 0 2.692 1.13 2.8 4.038 0 .377.269.538.592.484l5.653-.969c.377-.054.484-.323.484-.646-.323-6.137-3.768-9.26-9.636-9.26-4.845 0-7.806 2.154-9.098 6.084-.485 1.561-.7 3.23-.7 12.705s.215 11.144.7 12.705zm31.655 6.084c4.791 0 8.021-2.154 9.367-6.192.592-1.668.754-3.176.754-12.597s-.162-10.928-.754-12.597c-1.346-4.038-4.576-6.191-9.367-6.191-4.792 0-8.022 2.153-9.368 6.19-.592 1.67-.753 3.177-.753 12.598 0 9.421.161 10.929.753 12.597 1.346 4.038 4.576 6.192 9.368 6.192zm0-6.353c-1.346 0-2.261-.754-2.584-1.777-.27-.86-.377-1.776-.377-10.659 0-8.883.107-9.798.377-10.66.323-1.022 1.238-1.776 2.584-1.776s2.26.754 2.584 1.777c.269.861.377 1.776.377 10.66 0 8.882-.108 9.797-.377 10.658-.323 1.023-1.238 1.777-2.584 1.777zm33.485-5.007c0-6.19-1.938-8.882-6.945-10.82l-2.207-.862c-2.853-1.13-3.445-1.992-3.445-4.737 0-2.477.915-3.661 2.8-3.661 1.937 0 2.852 1.346 2.906 3.984 0 .323.27.484.592.43l5.492-.861c.323-.054.484-.27.484-.592-.27-5.76-3.284-9.098-9.69-9.098-6.514 0-9.69 3.553-9.69 10.174 0 5.868 1.776 8.614 6.944 10.606l2.207.861c2.746 1.077 3.392 2.208 3.392 5.438 0 3.337-.915 4.36-2.907 4.36-2.1 0-3.069-1.346-3.176-4.737 0-.323-.216-.485-.593-.43l-5.76.914c-.323.054-.43.27-.43.593.107 6.298 3.283 9.798 9.905 9.798 7.268 0 10.121-3.877 10.121-11.36zM84.91 51.14c.322 0 .538-.215.538-.538V21.208c0-.216.107-.323.323-.323h5.76c.323 0 .538-.216.538-.539v-5.275c0-.324-.215-.539-.538-.539H72.311c-.323 0-.538.215-.538.539v5.275c0 .323.215.539.538.539h5.76c.216 0 .323.107.323.323v29.394c0 .323.216.538.539.538zm5.706-.538c-.054.323.108.538.43.538h5.976c.377 0 .539-.215.592-.538l1.239-6.622h6.944l1.185 6.622c.054.323.215.538.592.538h5.976c.323 0 .484-.215.43-.538l-7.86-35.531c-.053-.324-.269-.539-.592-.539h-6.352c-.323 0-.485.215-.593.539zm9.26-12.22l2.422-12.706h.162l2.315 12.705zm27.563 12.22c0 .323.215.538.538.538h9.26c5.06 0 8.021-1.938 9.367-6.083.646-2.046.97-4.523.97-12.22 0-7.7-.324-10.176-.97-12.221-1.346-4.146-4.306-6.084-9.367-6.084h-9.26c-.323 0-.538.215-.538.539zm7.052-6.138V21.208c0-.216.108-.323.323-.323h1.723c1.777 0 2.746.646 3.284 2.26.43 1.131.592 2.693.592 9.691 0 6.999-.161 8.56-.592 9.69-.538 1.615-1.507 2.261-3.284 2.261h-1.723c-.215 0-.323-.107-.323-.323zm17.497 6.138c0 .323.215.538.538.538h15.99c.322 0 .538-.215.538-.538v-5.276c0-.323-.216-.539-.539-.539h-9.152c-.215 0-.323-.107-.323-.323v-8.29c0-.215.108-.323.323-.323h7.914c.323 0 .538-.215.538-.539v-5.275c0-.323-.215-.539-.538-.539h-7.914c-.215 0-.323-.107-.323-.323v-7.967c0-.216.108-.323.323-.323h9.152c.323 0 .539-.216.539-.539v-5.275c0-.324-.216-.539-.539-.539h-15.989c-.323 0-.538.215-.538.539zm20.996 0c0 .323.215.538.538.538h16.097c.323 0 .538-.215.538-.538v-5.276c0-.323-.215-.539-.538-.539h-9.26c-.215 0-.323-.107-.323-.323V15.071c0-.324-.215-.539-.538-.539h-5.976c-.323 0-.538.215-.538.539zm50.174-10.337c0-6.19-1.938-8.882-6.945-10.82l-2.207-.862c-2.853-1.13-3.446-1.992-3.446-4.737 0-2.477.916-3.661 2.8-3.661 1.938 0 2.853 1.346 2.907 3.984 0 .323.27.484.592.43l5.491-.861c.323-.054.485-.27.485-.592-.27-5.76-3.284-9.098-9.69-9.098-6.515 0-9.69 3.553-9.69 10.174 0 5.868 1.776 8.614 6.944 10.606l2.207.861c2.746 1.077 3.392 2.208 3.392 5.438 0 3.337-.915 4.36-2.907 4.36-2.1 0-3.069-1.346-3.177-4.737 0-.323-.215-.485-.592-.43l-5.76.914c-.323.054-.43.27-.43.593.107 6.298 3.283 9.798 9.905 9.798 7.268 0 10.12-3.877 10.12-11.36zm13.405 11.36c4.791 0 8.021-2.154 9.367-6.192.592-1.668.754-3.176.754-12.597s-.162-10.928-.754-12.597c-1.346-4.038-4.576-6.191-9.367-6.191-4.792 0-8.022 2.153-9.368 6.19-.592 1.67-.753 3.177-.753 12.598 0 9.421.161 10.929.753 12.597 1.346 4.038 4.576 6.192 9.368 6.192zm0-6.353c-1.346 0-2.261-.754-2.584-1.777-.27-.86-.377-1.776-.377-10.659 0-8.883.107-9.798.377-10.66.323-1.022 1.238-1.776 2.584-1.776s2.26.754 2.584 1.777c.269.861.377 1.776.377 10.66 0 8.882-.108 9.797-.377 10.658-.323 1.023-1.238 1.777-2.584 1.777zm14.535 5.33c0 .323.216.538.539.538h16.096c.323 0 .539-.215.539-.538v-5.276c0-.323-.216-.539-.539-.539h-9.26c-.215 0-.322-.107-.322-.323V15.071c0-.324-.216-.539-.539-.539h-5.975c-.323 0-.539.215-.539.539zm73.216 0c0 .323.215.538.538.538h5.976c.323 0 .538-.215.538-.538V36.55c0-.216.108-.323.323-.323h7.914c.323 0 .538-.216.538-.539v-5.33c0-.322-.215-.538-.538-.538h-7.914c-.215 0-.323-.107-.323-.323v-8.29c0-.216.108-.323.323-.323h9.152c.323 0 .539-.216.539-.539v-5.275c0-.324-.216-.539-.539-.539h-15.989c-.323 0-.538.215-.538.539zm20.78 0c0 .323.216.538.539.538h16.096c.323 0 .539-.215.539-.538v-5.276c0-.323-.216-.539-.539-.539h-9.26c-.215 0-.322-.107-.322-.323V15.071c0-.324-.216-.539-.539-.539h-5.975c-.323 0-.539.215-.539.539zm29.179 1.023c6.137 0 9.905-3.5 9.905-10.39V15.07c0-.324-.215-.539-.538-.539h-5.976c-.323 0-.538.215-.538.539v27.025c0 1.938-1.023 3.176-2.853 3.176-1.777 0-2.8-1.238-2.8-3.176V15.07c0-.324-.215-.539-.538-.539h-5.976c-.323 0-.538.215-.538.539v26.163c0 6.891 3.768 10.39 9.852 10.39zm14.912-6.138c1.346 3.984 4.522 6.138 9.421 6.138 4.792 0 7.968-2.154 9.314-6.192.592-1.668.753-3.176.753-12.597v-1.615c0-.323-.215-.538-.538-.538h-8.883c-.323 0-.538.215-.538.538v4.738c0 .323.215.538.538.538h2.315c.216 0 .323.108.323.323 0 5.383-.107 5.922-.323 6.675-.323 1.077-1.453 1.777-2.8 1.777-1.345 0-2.476-.7-2.799-1.777-.269-.807-.323-1.292-.323-10.659 0-9.421.054-9.852.323-10.713.323-1.023 1.4-1.723 2.692-1.723 1.83 0 2.907 1.238 3.069 3.876.054.377.269.539.592.485l5.706-.97c.323-.053.485-.322.431-.645-.484-5.922-3.93-9.098-9.852-9.098-4.899 0-8.075 2.153-9.42 6.137-.54 1.723-.7 3.23-.7 12.651s.16 10.929.7 12.651zm43.876 6.138c4.791 0 8.021-2.154 9.367-6.192.592-1.668.754-3.176.754-12.597s-.162-10.928-.754-12.597c-1.346-4.038-4.576-6.191-9.367-6.191-4.792 0-8.022 2.153-9.368 6.19-.592 1.67-.753 3.177-.753 12.598 0 9.421.161 10.929.753 12.597 1.346 4.038 4.576 6.192 9.368 6.192zm0-6.353c-1.346 0-2.261-.754-2.584-1.777-.27-.86-.377-1.776-.377-10.659 0-8.883.107-9.798.377-10.66.323-1.022 1.238-1.776 2.584-1.776s2.26.754 2.584 1.777c.269.861.377 1.776.377 10.66 0 8.882-.108 9.797-.377 10.658-.323 1.023-1.238 1.777-2.584 1.777zm14.697.215c1.346 3.984 4.522 6.138 9.42 6.138 4.792 0 7.968-2.154 9.314-6.192.592-1.668.754-3.176.754-12.597v-1.615c0-.323-.215-.538-.538-.538h-8.883c-.323 0-.538.215-.538.538v4.738c0 .323.215.538.538.538h2.315c.215 0 .323.108.323.323 0 5.383-.108 5.922-.323 6.675-.323 1.077-1.454 1.777-2.8 1.777-1.346 0-2.476-.7-2.8-1.777-.268-.807-.322-1.292-.322-10.659 0-9.421.054-9.852.323-10.713.323-1.023 1.4-1.723 2.692-1.723 1.83 0 2.907 1.238 3.068 3.876.054.377.27.539.592.485l5.707-.97c.323-.053.484-.322.43-.645-.484-5.922-3.93-9.098-9.851-9.098-4.9 0-8.075 2.153-9.421 6.137-.539 1.723-.7 3.23-.7 12.651s.161 10.929.7 12.651zm34.454 0c1.346 3.984 4.522 6.138 9.421 6.138 4.792 0 7.968-2.154 9.314-6.192.592-1.668.753-3.176.753-12.597v-1.615c0-.323-.215-.538-.538-.538h-8.883c-.323 0-.538.215-.538.538v4.738c0 .323.215.538.538.538h2.315c.216 0 .323.108.323.323 0 5.383-.107 5.922-.323 6.675-.323 1.077-1.453 1.777-2.8 1.777-1.345 0-2.476-.7-2.799-1.777-.269-.807-.323-1.292-.323-10.659 0-9.421.054-9.852.323-10.713.323-1.023 1.4-1.723 2.692-1.723 1.83 0 2.907 1.238 3.069 3.876.054.377.269.539.592.485l5.706-.97c.323-.053.485-.322.431-.645-.484-5.922-3.93-9.098-9.852-9.098-4.899 0-8.075 2.153-9.42 6.137-.54 1.723-.7 3.23-.7 12.651s.16 10.929.7 12.651zm23.795 5.115c0 .323.216.538.539.538h5.975c.323 0 .539-.215.539-.538V15.07c0-.324-.216-.539-.539-.539h-5.975c-.323 0-.539.215-.539.539zm30.955-10.337c0-6.19-1.938-8.882-6.944-10.82l-2.208-.862c-2.853-1.13-3.445-1.992-3.445-4.737 0-2.477.915-3.661 2.8-3.661 1.937 0 2.853 1.346 2.907 3.984 0 .323.269.484.592.43l5.49-.861c.324-.054.485-.27.485-.592-.269-5.76-3.284-9.098-9.69-9.098-6.514 0-9.69 3.553-9.69 10.174 0 5.868 1.776 8.614 6.944 10.606l2.208.861c2.745 1.077 3.391 2.208 3.391 5.438 0 3.337-.915 4.36-2.907 4.36-2.1 0-3.068-1.346-3.176-4.737 0-.323-.215-.485-.592-.43l-5.76.914c-.324.054-.431.27-.431.593.107 6.298 3.284 9.798 9.905 9.798 7.268 0 10.121-3.877 10.121-11.36zm14.59 10.875c.323 0 .538-.215.538-.538V21.208c0-.216.108-.323.323-.323h5.76c.323 0 .539-.216.539-.539v-5.275c0-.324-.216-.539-.539-.539h-19.219c-.323 0-.538.215-.538.539v5.275c0 .323.215.539.538.539h5.76c.216 0 .324.107.324.323v29.394c0 .323.215.538.538.538zm10.39-.538c0 .323.215.538.538.538h5.976c.323 0 .538-.215.538-.538V15.07c0-.324-.215-.539-.538-.539h-5.976c-.323 0-.538.215-.538.539zm12.005 0c0 .323.215.538.538.538h5.115c.323 0 .538-.215.538-.538V27.614h.27l6.352 22.988c.107.376.323.538.754.538h6.46c.323 0 .538-.215.538-.538V15.07c0-.324-.215-.539-.538-.539h-5.115c-.323 0-.538.215-.538.539v22.987h-.27l-6.082-22.987c-.108-.377-.324-.539-.754-.539h-6.73c-.323 0-.538.215-.538.539zm25.68-5.115c1.345 3.984 4.522 6.138 9.42 6.138 4.792 0 7.968-2.154 9.314-6.192.592-1.668.754-3.176.754-12.597v-1.615c0-.323-.216-.538-.539-.538h-8.882c-.323 0-.539.215-.539.538v4.738c0 .323.216.538.539.538h2.314c.216 0 .323.108.323.323 0 5.383-.107 5.922-.323 6.675-.323 1.077-1.453 1.777-2.799 1.777-1.346 0-2.476-.7-2.8-1.777-.269-.807-.322-1.292-.322-10.659 0-9.421.053-9.852.323-10.713.323-1.023 1.4-1.723 2.691-1.723 1.83 0 2.907 1.238 3.069 3.876.054.377.27.539.592.485l5.707-.97c.323-.053.484-.322.43-.645-.484-5.922-3.93-9.098-9.851-9.098-4.9 0-8.076 2.153-9.422 6.137-.538 1.723-.7 3.23-.7 12.651s.162 10.929.7 12.651zm66.001.7c1.13 3.446 3.984 5.438 8.398 5.438 4.523 0 7.322-1.939 8.453-5.384.323-1.023.484-2.423.484-5.707 0-3.337-.108-4.252-.377-5.114-.484-1.561-1.4-2.53-2.8-3.338v-.107c1.347-.808 2.316-1.83 2.8-3.338.27-.861.377-1.83.377-4.253 0-2.53-.161-3.93-.484-4.953-1.131-3.445-3.877-5.383-8.453-5.383-4.414 0-7.267 1.992-8.398 5.437-.323 1.077-.484 2.315-.484 3.984 0 .377.161.592.538.646l5.384.538c.376.054.646-.108.646-.538 0-1.777.053-2.261.161-2.692.323-.969.97-1.454 2.1-1.454 1.076 0 1.722.431 2.045 1.4.162.43.216.97.216 3.015 0 2.692-.054 3.176-.216 3.553-.323.97-1.076 1.292-2.315 1.292h-.86c-.324 0-.54.215-.54.538v5.007c0 .323.216.538.54.538h.807c1.292 0 2.045.324 2.368 1.346.162.377.216.916.216 3.823 0 2.853-.054 3.391-.216 3.822-.323.969-.969 1.4-2.045 1.4-1.13 0-1.777-.485-2.1-1.454-.108-.43-.161-.915-.161-2.692 0-.43-.27-.592-.646-.538l-5.384.538c-.377.054-.538.27-.538.646 0 1.67.161 2.907.484 3.984zm22.45-.054c1.13 3.553 4.145 5.492 8.452 5.492 4.306 0 7.375-1.885 8.452-5.492.43-1.346.592-2.8.592-13.297 0-10.498-.162-11.951-.592-13.297-1.077-3.607-4.146-5.491-8.452-5.491-4.307 0-7.268 1.938-8.399 5.49-.43 1.347-.646 2.8-.646 13.298 0 10.498.162 11.951.592 13.297zm6.406-1.83c-.162-.538-.216-1.184-.216-11.467 0-10.282.054-10.928.216-11.467.269-.861.969-1.4 2.046-1.4 1.076 0 1.776.539 2.045 1.4.162.539.216 1.185.216 11.467 0 10.283-.054 10.929-.216 11.467-.269.861-.915 1.4-2.045 1.4-1.077 0-1.777-.539-2.046-1.4zm15.558 6.299c0 .323.215.538.538.538h5.492c.323 0 .538-.215.538-.538v-6.245c0-.323-.215-.539-.538-.539h-5.492c-.323 0-.538.216-.538.539zm19.004 0c-.054.323.108.538.43.538h5.976c.377 0 .539-.215.592-.538l1.239-6.622h6.944l1.185 6.622c.054.323.215.538.592.538h5.976c.323 0 .484-.215.43-.538l-7.86-35.531c-.053-.324-.269-.539-.592-.539h-6.352c-.323 0-.485.215-.593.539zm9.26-12.22l2.422-12.706h.162l2.315 12.705zm23.58 12.758c.322 0 .538-.215.538-.538V37.897c0-.216.107-.323.323-.323h1.776c6.514 0 10.767-3.23 10.767-11.521 0-8.345-4.091-11.52-10.767-11.52h-8.613c-.323 0-.539.214-.539.538V50.6c0 .324.216.539.539.539zm2.422-19.757h-1.561c-.216 0-.323-.108-.323-.323V21.046c0-.215.107-.323.323-.323h1.56c2.746 0 3.93 1.185 3.93 5.33s-1.184 5.33-3.93 5.33zm35.531 19.757c.27 0 .377-.27.27-.538L795.1 35.097c2.53-1.723 4.091-4.737 4.091-9.367 0-8.13-4.2-11.198-10.713-11.198h-8.721c-.323 0-.539.215-.539.539V50.6c0 .324.216.539.539.539h5.975c.323 0 .539-.215.539-.538v-13.46c0-.214.107-.322.323-.322h2.045l4.146 13.89c.107.322.269.43.592.43zm-11.682-20.403h-1.561c-.216 0-.323-.108-.323-.323v-9.368c0-.215.107-.323.323-.323h1.56c2.746 0 3.93 1.185 3.93 5.007 0 3.876-1.184 5.007-3.93 5.007zm15.504 19.865c0 .323.216.538.539.538h5.975c.323 0 .539-.215.539-.538V15.07c0-.324-.216-.539-.539-.539H804.2c-.323 0-.539.215-.539.539zm5.168-40.107c.431 0 .7-.162 1.077-.539l5.599-6.137c.215-.27.054-.538-.27-.538h-5.383c-.43 0-.592.161-.861.538l-4.415 6.137c-.215.27-.053.539.27.539zm6.838 40.107c0 .323.215.538.538.538H832.3c.323 0 .538-.215.538-.538v-5.276c0-.323-.215-.539-.538-.539h-9.26c-.215 0-.323-.107-.323-.323V15.071c0-.324-.215-.539-.538-.539h-5.976c-.323 0-.538.215-.538.539zm31.385-10.66h14.428c.323 0 .538-.215.538-.538v-5.06c0-.324-.215-.539-.538-.539h-14.428c-.323 0-.538.215-.538.538v5.061c0 .323.215.538.538.538zm30.31 6.191c1.13 3.553 4.145 5.492 8.452 5.492 4.306 0 7.375-1.885 8.452-5.492.43-1.346.592-2.8.592-13.297 0-10.498-.162-11.951-.592-13.297-1.077-3.607-4.146-5.491-8.452-5.491-4.307 0-7.268 1.938-8.399 5.49-.43 1.347-.646 2.8-.646 13.298 0 10.498.162 11.951.592 13.297zm6.406-1.83c-.162-.538-.215-1.184-.215-11.467 0-10.282.053-10.928.215-11.467.269-.861.969-1.4 2.046-1.4 1.076 0 1.776.539 2.045 1.4.162.539.216 1.185.216 11.467 0 10.283-.054 10.929-.216 11.467-.269.861-.915 1.4-2.045 1.4-1.077 0-1.777-.539-2.046-1.4zm18.465 6.191c-.161.377 0 .646.377.646h5.707c.43 0 .646-.162.807-.538l6.191-14.966c1.346-3.23 1.884-5.384 1.884-10.39 0-3.392-.161-4.63-.484-5.707-1.13-3.5-4.038-5.491-8.506-5.491s-7.375 1.992-8.506 5.49c-.323 1.078-.484 2.316-.484 5.707 0 3.446.215 4.953.592 6.03 1.076 3.23 3.014 5.114 6.568 5.114.753 0 1.345-.107 1.615-.269 0 .054.107.108.107.108zm5.976-19.919c-1.077 0-1.723-.485-2.046-1.454-.161-.43-.215-.969-.215-3.876s.054-3.391.215-3.822c.323-.969.97-1.454 2.046-1.454 1.077 0 1.723.485 2.046 1.454.161.43.215.915.215 3.822s-.054 3.446-.215 3.876c-.323.97-.97 1.454-2.046 1.454zm13.513 20.027c0 .323.215.538.538.538h5.491c.323 0 .538-.215.538-.538v-6.245c0-.323-.215-.539-.538-.539h-5.491c-.323 0-.538.216-.538.539zm20.995 0c0 .323.216.538.539.538h5.222c.323 0 .538-.215.538-.538V29.444h.323l3.984 14.644c.107.323.323.538.7.538h2.96c.377 0 .593-.215.7-.538l3.984-14.644h.323v21.158c0 .323.216.538.539.538h5.222c.323 0 .538-.215.538-.538V15.07c0-.324-.215-.539-.538-.539h-5.76c-.485 0-.754.162-.862.539l-5.384 19.219h-.215l-5.599-19.22c-.108-.376-.377-.538-.861-.538h-5.814c-.323 0-.539.215-.539.539zm28.533 0c-.054.323.108.538.43.538h5.976c.377 0 .539-.215.592-.538l1.239-6.622h6.944l1.185 6.622c.054.323.215.538.592.538h5.976c.323 0 .484-.215.43-.538l-7.86-35.531c-.054-.324-.269-.539-.592-.539h-6.352c-.323 0-.485.215-.593.539zm9.26-12.22l2.422-12.706h.162l2.314 12.705zm17.065 12.22c0 .323.216.538.539.538h5.975c.323 0 .539-.215.539-.538V15.07c0-.324-.216-.539-.539-.539h-5.975c-.323 0-.539.215-.539.539zm5.168-40.107c.431 0 .7-.162 1.077-.539l5.599-6.137c.215-.27.054-.538-.27-.538h-5.383c-.43 0-.592.161-.861.538l-4.415 6.137c-.215.27-.053.539.27.539zm91.143 40.645c.323 0 .485-.215.538-.538l7.322-35.531c.108-.324-.054-.539-.43-.539h-5.976c-.323 0-.539.162-.593.539l-3.553 23.149h-.161l-3.715-23.15c-.054-.376-.269-.538-.592-.538h-6.083c-.377 0-.539.215-.431.539l7.268 35.53c.107.324.269.539.592.539zm11.09-.538c0 .323.215.538.538.538h15.99c.323 0 .538-.215.538-.538v-5.276c0-.323-.215-.539-.539-.539h-9.151c-.216 0-.323-.107-.323-.323v-8.29c0-.215.107-.323.323-.323h7.913c.323 0 .539-.215.539-.539v-5.275c0-.323-.216-.539-.539-.539h-7.913c-.216 0-.323-.107-.323-.323v-7.967c0-.216.107-.323.323-.323h9.151c.324 0 .539-.216.539-.539v-5.275c0-.324-.215-.539-.539-.539h-15.989c-.323 0-.538.215-.538.539zm41.615.538c.269 0 .376-.27.269-.538l-5.007-15.505c2.53-1.723 4.092-4.737 4.092-9.367 0-8.13-4.2-11.198-10.714-11.198h-8.72c-.324 0-.54.215-.54.539V50.6c0 .324.216.539.54.539h5.975c.323 0 .538-.215.538-.538v-13.46c0-.214.108-.322.323-.322h2.046l4.145 13.89c.108.322.27.43.592.43zm-11.683-20.403h-1.56c-.216 0-.324-.108-.324-.323v-9.368c0-.215.108-.323.323-.323h1.561c2.746 0 3.93 1.185 3.93 5.007 0 3.876-1.184 5.007-3.93 5.007zm25.303 20.403c5.06 0 8.021-1.938 9.367-6.083.646-2.046.97-4.523.97-12.22 0-7.7-.324-10.176-.97-12.221-1.346-4.146-4.307-6.084-9.367-6.084h-9.26c-.323 0-.538.215-.538.539v14.75c0 .216-.108.323-.323.323h-1.454c-.323 0-.538.216-.538.539v3.983c0 .323.215.539.538.539h1.454c.215 0 .323.107.323.323v15.074c0 .323.215.538.538.538zm-.7-6.353h-1.723c-.215 0-.323-.107-.323-.323v-8.936c0-.216.108-.323.323-.323h2.37c.322 0 .537-.216.537-.539v-3.93c0-.322-.215-.538-.538-.538h-2.369c-.215 0-.323-.108-.323-.323v-8.667c0-.216.108-.323.323-.323h1.723c1.777 0 2.746.646 3.284 2.26.377 1.131.592 2.693.592 9.691 0 6.999-.215 8.56-.592 9.69-.538 1.615-1.507 2.261-3.284 2.261zm26.164 1.346c1.13 3.5 4.038 5.492 8.506 5.492s7.375-1.992 8.506-5.492c.323-1.076.484-2.315.484-5.706 0-3.446-.215-4.953-.592-6.03-1.077-3.23-3.015-5.114-6.568-5.114-.753 0-1.346.108-1.615.27 0-.055-.108-.109-.108-.109l5.869-14.266c.161-.377 0-.646-.377-.646h-5.707c-.43 0-.646.162-.807.539l-6.191 14.966c-1.346 3.23-1.885 5.383-1.885 10.39 0 3.391.162 4.63.485 5.706zm6.46-1.884c-.161-.43-.215-.915-.215-3.822s.054-3.446.215-3.876c.323-.97.97-1.454 2.046-1.454 1.077 0 1.723.485 2.046 1.454.161.43.215.969.215 3.876s-.054 3.391-.215 3.822c-.323.97-.97 1.454-2.046 1.454-1.077 0-1.723-.485-2.046-1.454zm17.658 6.245c-.108.43.054.646.377.646h5.706c.431 0 .593-.162.7-.538l8.937-30.094c.054-.162.108-.377.108-.592V15.07c0-.324-.216-.539-.539-.539h-16.904c-.323 0-.538.215-.538.539v8.775c0 .323.215.538.538.538h4.845c.323 0 .538-.215.538-.538V20.83c0-.215.108-.323.323-.323h4.953v.108zm20.296.108c0 .323.215.538.538.538h5.491c.323 0 .539-.215.539-.538v-6.245c0-.323-.216-.539-.539-.539h-5.49c-.324 0-.54.216-.54.539zm14.105-.108c-.162.377 0 .646.376.646h5.707c.43 0 .646-.162.807-.538l6.192-14.966c1.345-3.23 1.884-5.384 1.884-10.39 0-3.392-.162-4.63-.485-5.707-1.13-3.5-4.037-5.491-8.506-5.491-4.468 0-7.375 1.992-8.506 5.49-.323 1.078-.484 2.316-.484 5.707 0 3.446.215 4.953.592 6.03 1.077 3.23 3.015 5.114 6.568 5.114.754 0 1.346-.107 1.615-.269 0 .054.108.108.108.108zm5.975-19.919c-1.076 0-1.722-.485-2.045-1.454-.162-.43-.216-.969-.216-3.876s.054-3.391.216-3.822c.323-.969.969-1.454 2.045-1.454 1.077 0 1.723.485 2.046 1.454.162.43.215.915.215 3.822s-.053 3.446-.215 3.876c-.323.97-.969 1.454-2.046 1.454zm13.944 15.558c1.13 3.553 4.145 5.492 8.452 5.492 4.306 0 7.375-1.885 8.452-5.492.43-1.346.592-2.8.592-13.297 0-10.498-.162-11.951-.592-13.297-1.077-3.607-4.146-5.491-8.452-5.491-4.307 0-7.268 1.938-8.399 5.49-.43 1.347-.646 2.8-.646 13.298 0 10.498.162 11.951.593 13.297zm6.406-1.83c-.162-.538-.215-1.184-.215-11.467 0-10.282.053-10.928.215-11.467.27-.861.969-1.4 2.046-1.4 1.076 0 1.776.539 2.045 1.4.162.539.216 1.185.216 11.467 0 10.283-.054 10.929-.216 11.467-.269.861-.915 1.4-2.045 1.4-1.077 0-1.777-.539-2.046-1.4zm15.989 1.83c1.13 3.553 4.145 5.492 8.452 5.492s7.375-1.885 8.452-5.492c.43-1.346.592-2.8.592-13.297 0-10.498-.161-11.951-.592-13.297-1.077-3.607-4.145-5.491-8.452-5.491s-7.268 1.938-8.398 5.49c-.43 1.347-.646 2.8-.646 13.298 0 10.498.161 11.951.592 13.297zm6.406-1.83c-.161-.538-.215-1.184-.215-11.467 0-10.282.054-10.928.215-11.467.27-.861.97-1.4 2.046-1.4 1.077 0 1.777.539 2.046 1.4.161.539.215 1.185.215 11.467 0 10.283-.054 10.929-.215 11.467-.27.861-.915 1.4-2.046 1.4-1.077 0-1.776-.539-2.046-1.4zm26.218 6.299c0 .323.215.538.538.538h5.976c.323 0 .538-.215.538-.538v-9.906l2.154-4.522 5.383 14.59c.054.268.216.376.539.376h6.406c.27 0 .43-.27.323-.538l-8.237-21.319 7.322-14.212c.161-.27 0-.539-.27-.539h-6.244c-.323 0-.539.108-.7.43l-6.676 14.16V15.07c0-.324-.215-.539-.538-.539h-5.976c-.323 0-.538.215-.538.539zm45.706.538c.27 0 .377-.27.27-.538l-5.008-15.505c2.53-1.723 4.092-4.737 4.092-9.367 0-8.13-4.2-11.198-10.713-11.198h-8.722c-.323 0-.538.215-.538.539V50.6c0 .324.215.539.538.539h5.976c.323 0 .539-.215.539-.538v-13.46c0-.214.107-.322.323-.322h2.045l4.146 13.89c.107.322.269.43.592.43zm-11.682-20.403h-1.561c-.216 0-.323-.108-.323-.323v-9.368c0-.215.107-.323.323-.323h1.56c2.746 0 3.93 1.185 3.93 5.007 0 3.876-1.184 5.007-3.93 5.007zm15.343 19.865c0 .323.215.538.538.538h5.491c.323 0 .539-.215.539-.538v-6.245c0-.323-.216-.539-.539-.539h-5.49c-.324 0-.54.216-.54.539z" fill="#fff"/></svg>