<svg width="298" height="57" viewBox="0 0 298 57" xmlns="http://www.w3.org/2000/svg"><path d="M52.677 37.857c0 .242.162.403.403.403h2.457c.241 0 .402-.161.402-.403V26.34c0-.16.08-.241.242-.241h6.282c.241 0 .402-.161.402-.403v-2.215c0-.241-.16-.402-.402-.402H56.18c-.161 0-.242-.08-.242-.242V14.14c0-.161.08-.242.242-.242h7.248c.242 0 .403-.16.403-.402V11.28c0-.242-.161-.403-.403-.403H53.08c-.241 0-.403.161-.403.403zm14.658 0c0 .242.161.403.403.403h10.268c.242 0 .403-.161.403-.403v-2.214c0-.242-.161-.403-.403-.403H70.84c-.161 0-.242-.08-.242-.242V11.28c0-.242-.161-.403-.403-.403h-2.456c-.242 0-.403.161-.403.403zm20.054.765c3.906 0 6.403-2.375 6.403-7.087V11.28c0-.242-.161-.403-.403-.403h-2.456c-.242 0-.403.161-.403.403v20.658c0 2.376-1.208 3.624-3.141 3.624s-3.14-1.248-3.14-3.624V11.28c0-.242-.162-.403-.404-.403H81.39c-.242 0-.403.161-.403.403v20.255c0 4.712 2.497 7.087 6.403 7.087zm11.275-4.067c.846 2.618 2.9 4.067 6 4.067s5.195-1.45 6-4.067c.403-1.208.524-2.214.524-9.543v-1.168c0-.242-.161-.403-.403-.403h-5.678c-.241 0-.402.161-.402.403v2.134c0 .242.16.403.402.403h2.698c.161 0 .242.08.242.241 0 5.598-.121 6.242-.363 7.007-.402 1.248-1.49 1.933-2.94 1.933-1.449 0-2.536-.685-2.939-1.933-.282-.805-.362-1.41-.362-9.06 0-7.651.08-8.255.362-9.06.403-1.25 1.45-1.934 2.9-1.934 1.973 0 3.02 1.249 3.302 3.504.04.241.2.362.483.322l2.255-.443c.241-.04.322-.242.282-.483-.443-3.826-2.577-5.96-6.363-5.96-3.1 0-5.154 1.45-6 4.067-.402 1.208-.523 2.215-.523 9.987s.12 8.778.523 9.986zm24.604-1.892c0 3.584 2.135 5.96 5.799 5.96 2.497 0 4.349-1.088 6-3.383l.846 1.45c.684 1.208 1.208 1.57 2.496 1.57h.886c.242 0 .403-.161.403-.403v-2.013c0-.242-.161-.403-.403-.403h-.16c-.484 0-.766-.16-1.25-1.047l-1.127-1.933 2.537-4.55c.121-.242.08-.443-.12-.564l-1.571-.886c-.242-.16-.403-.08-.524.161l-1.852 3.222-3.503-6.08c3.181-3.705 4.147-5.719 4.147-7.853 0-3.302-2.255-5.396-5.355-5.396-3.101 0-5.316 2.094-5.316 5.396 0 1.893.846 3.745 2.497 6.604l.564.966c-3.383 3.987-4.994 6.484-4.994 9.182zm6.967-11.477c-1.772-3.14-2.134-4.39-2.134-5.356 0-1.771.966-2.778 2.456-2.778s2.456 1.007 2.456 2.778c0 1.57-.563 2.739-2.778 5.356zm-4.067 11.396c0-1.893 1.047-3.584 3.584-6.523l3.825 6.644c-1.57 2.416-2.819 3.14-4.349 3.14-1.852 0-3.06-1.167-3.06-3.26zm26.053 1.973c.846 2.618 2.9 4.067 6 4.067 3.101 0 5.195-1.45 6-4.067.403-1.208.524-2.214.524-9.543v-1.168c0-.242-.161-.403-.403-.403h-5.678c-.241 0-.402.161-.402.403v2.134c0 .242.16.403.402.403h2.698c.162 0 .242.08.242.241 0 5.598-.12 6.242-.362 7.007-.403 1.248-1.49 1.933-2.94 1.933s-2.537-.685-2.94-1.933c-.281-.805-.362-1.41-.362-9.06 0-7.651.08-8.255.362-9.06.403-1.25 1.45-1.934 2.9-1.934 1.973 0 3.02 1.249 3.302 3.504.04.241.201.362.483.322l2.255-.443c.242-.04.322-.242.282-.483-.443-3.826-2.577-5.96-6.362-5.96-3.101 0-5.155 1.45-6 4.067-.403 1.208-.524 2.215-.524 9.987s.12 8.778.523 9.986zm16.712 3.302c0 .242.161.403.403.403h2.456c.242 0 .403-.161.403-.403V11.28c0-.242-.161-.403-.403-.403h-2.456c-.242 0-.403.161-.403.403zm19.933-7.329c0-4.55-1.248-6.362-4.752-7.771l-1.65-.645c-2.216-.845-2.86-1.812-2.86-4.63 0-2.78.967-3.987 2.98-3.987 2.094 0 2.98 1.329 3.06 4.027 0 .241.202.402.443.322l2.255-.363c.242-.04.363-.201.363-.443-.201-4.268-2.094-6.523-6.202-6.523-4.107 0-6.12 2.416-6.12 7.087 0 4.228 1.047 6.08 4.792 7.53l1.65.645c2.175.845 2.78 2.013 2.78 5.154 0 3.705-.967 4.712-3.061 4.712s-3.181-1.209-3.343-4.591c0-.242-.16-.403-.442-.363l-2.376.443c-.242.04-.322.202-.322.443.2 4.712 2.295 7.047 6.442 7.047 4.631 0 6.363-2.577 6.363-8.094zm9.705 7.732c.241 0 .402-.161.402-.403V14.14c0-.161.08-.242.242-.242h4.51c.242 0 .403-.16.403-.402V11.28c0-.242-.161-.403-.403-.403H190.96c-.242 0-.403.161-.403.403v2.215c0 .241.161.402.403.402h4.51c.161 0 .242.081.242.242v23.718c0 .242.16.403.402.403zm8.617-.403c0 .242.161.403.403.403h2.456c.242 0 .403-.161.403-.403V11.28c0-.242-.161-.403-.403-.403h-2.456c-.242 0-.403.161-.403.403zm8.094 0c0 .242.161.403.403.403h2.134c.242 0 .403-.161.403-.403V17.32h.201l6.242 20.537c.08.282.282.403.604.403h2.859c.241 0 .403-.161.403-.403V11.28c0-.242-.162-.403-.403-.403h-2.134c-.242 0-.403.161-.403.403v20.537h-.161l-6.121-20.537c-.08-.282-.282-.403-.604-.403h-3.02c-.242 0-.403.161-.403.403zm18.161-3.302c.846 2.618 2.9 4.067 6 4.067 3.101 0 5.195-1.45 6-4.067.403-1.208.524-2.214.524-9.543v-1.168c0-.242-.161-.403-.403-.403h-5.678c-.241 0-.402.161-.402.403v2.134c0 .242.16.403.402.403h2.698c.161 0 .242.08.242.241 0 5.598-.12 6.242-.363 7.007-.402 1.248-1.49 1.933-2.94 1.933-1.449 0-2.536-.685-2.939-1.933-.282-.805-.362-1.41-.362-9.06 0-7.651.08-8.255.362-9.06.403-1.25 1.45-1.934 2.9-1.934 1.973 0 3.02 1.249 3.302 3.504.04.241.201.362.483.322l2.255-.443c.241-.04.322-.242.282-.483-.443-3.826-2.577-5.96-6.363-5.96-3.1 0-5.154 1.45-6 4.067-.402 1.208-.523 2.215-.523 9.987s.12 8.778.523 9.986z" fill="#e22b11"/></svg>