<svg width="384.755" height="96" viewBox="0 0 384.755 96" xmlns="http://www.w3.org/2000/svg"><path d="M88.515 51.583c0-8.499-2.66-12.193-9.533-14.854l-3.03-1.182c-3.917-1.552-4.73-2.734-4.73-6.503 0-3.4 1.257-5.025 3.843-5.025 2.66 0 3.917 1.847 3.99 5.468 0 .444.37.665.814.591l7.537-1.182c.443-.074.665-.37.665-.813-.37-7.907-4.508-12.488-13.301-12.488-8.942 0-13.302 4.877-13.302 13.966 0 8.055 2.439 11.824 9.533 14.558l3.03 1.182c3.768 1.478 4.655 3.03 4.655 7.464 0 4.582-1.256 5.986-3.99 5.986-2.882 0-4.212-1.848-4.36-6.503 0-.444-.296-.665-.813-.591l-7.907 1.256c-.444.074-.591.37-.591.813.147 8.646 4.507 13.45 13.597 13.45 9.976 0 13.893-5.322 13.893-15.593zm18.622 15.592c8.424 0 13.597-4.803 13.597-14.262V16.999c0-.444-.296-.74-.74-.74h-8.202c-.443 0-.739.296-.739.74v37.096c0 2.66-1.404 4.36-3.916 4.36-2.439 0-3.843-1.7-3.843-4.36V17c0-.444-.296-.74-.739-.74h-8.203c-.443 0-.739.296-.739.74v35.914c0 9.459 5.173 14.262 13.524 14.262zm20.248-1.404c0 .443.295.739.739.739h7.168c.443 0 .739-.296.739-.739V36.729h.443l5.469 20.1c.147.444.443.74.96.74h4.065c.517 0 .812-.296.96-.74l5.469-20.1h.443v29.042c0 .443.296.739.739.739h7.168c.443 0 .74-.296.74-.739V16.999c0-.444-.297-.74-.74-.74h-7.907c-.665 0-1.035.222-1.182.74l-7.39 26.381h-.296l-7.685-26.381c-.148-.518-.517-.74-1.182-.74h-7.981c-.444 0-.74.296-.74.74zm39.165 0c-.073.443.148.739.592.739h8.202c.518 0 .74-.296.813-.739l1.7-9.09h9.533l1.625 9.09c.074.443.296.739.813.739h8.203c.443 0 .665-.296.591-.739l-10.79-48.772c-.073-.444-.369-.74-.812-.74h-8.72c-.443 0-.665.296-.813.74zm12.71-16.775l3.326-17.44h.222l3.178 17.44zm51.73 17.514c.369 0 .516-.37.369-.739l-6.873-21.282c3.473-2.365 5.616-6.503 5.616-12.859 0-11.158-5.764-15.37-14.705-15.37h-11.972c-.443 0-.739.295-.739.739V65.77c0 .443.296.739.74.739h8.202c.443 0 .739-.296.739-.739V47.297c0-.296.148-.444.443-.444h2.808l5.69 19.066c.148.443.37.591.813.591zm-16.037-28.007h-2.143c-.295 0-.443-.148-.443-.444V25.201c0-.295.148-.443.443-.443h2.143c3.77 0 5.395 1.626 5.395 6.872 0 5.32-1.626 6.873-5.395 6.873zm47.295 13.08c0-8.499-2.66-12.193-9.533-14.854l-3.03-1.182c-3.916-1.552-4.73-2.734-4.73-6.503 0-3.4 1.257-5.025 3.843-5.025 2.66 0 3.917 1.847 3.991 5.468 0 .444.37.665.813.591l7.537-1.182c.444-.074.665-.37.665-.813-.369-7.907-4.507-12.488-13.301-12.488-8.942 0-13.302 4.877-13.302 13.966 0 8.055 2.439 11.824 9.533 14.558l3.03 1.182c3.769 1.478 4.655 3.03 4.655 7.464 0 4.582-1.256 5.986-3.99 5.986-2.882 0-4.212-1.848-4.36-6.503 0-.444-.296-.665-.813-.591l-7.907 1.256c-.443.074-.591.37-.591.813.148 8.646 4.508 13.45 13.597 13.45 9.976 0 13.893-5.322 13.893-15.593zm20.617-40.866c.591 0 .961-.221 1.478-.739l7.686-8.424c.295-.37.073-.739-.37-.739h-7.39c-.59 0-.813.222-1.182.739l-6.06 8.424c-.295.37-.074.74.37.74zm-2.217 56.458c6.577 0 11.011-2.956 12.859-8.498.812-2.291 1.034-4.36 1.034-17.292 0-12.932-.222-15.001-1.034-17.292-1.848-5.543-6.282-8.498-12.859-8.498s-11.01 2.955-12.858 8.498c-.813 2.29-1.034 4.36-1.034 17.292 0 12.932.221 15.001 1.034 17.292 1.848 5.542 6.281 8.498 12.858 8.498zm0-8.72c-1.847 0-3.103-1.034-3.547-2.438-.37-1.183-.517-2.44-.517-14.632 0-12.193.148-13.45.517-14.632.444-1.404 1.7-2.439 3.547-2.439 1.848 0 3.104 1.035 3.547 2.44.37 1.181.518 2.438.518 14.63 0 12.194-.148 13.45-.518 14.633-.443 1.404-1.7 2.438-3.547 2.438zm19.953 7.316c0 .443.295.739.739.739h22.095c.443 0 .74-.296.74-.739v-7.242c0-.443-.297-.739-.74-.739h-12.71c-.296 0-.444-.148-.444-.443V16.999c0-.444-.295-.74-.739-.74h-8.202c-.444 0-.74.296-.74.74z" fill="#fff"/></svg>